<?xml version="1.0" encoding="utf-8"?>
<!-- Generator: Adobe Illustrator 19.0.0, SVG Export Plug-In . SVG Version: 6.00 Build 0)  -->
<svg version="1.1" id="Capa_1" xmlns="http://www.w3.org/2000/svg" xmlns:xlink="http://www.w3.org/1999/xlink" x="0px" y="0px"
	 viewBox="0 0 172.9 269.3" style="enable-background:new 0 0 172.9 269.3;" xml:space="preserve">
<style type="text/css">
	.st0{fill:#FFFFFF;}
	.st1{fill:#E94C30;}
	.st2{fill:#010202;}
	.st3{fill:#83CCF1;}
	.st4{fill:#CBE7E9;}
	.st5{fill:#FAEA26;}
</style>
<rect id="XMLID_3865_" x="0" y="0" class="st0" width="172.9" height="269.3"/>
<g id="XMLID_2960_">
	<g id="XMLID_3983_">
		<g id="XMLID_2914_">
			<path id="XMLID_2883_" class="st1" d="M109.6,110.6l-6.8-8l-3.2,7.5l-5.3-10.6L89,96.3l-2.5,13.8l-6.6-9.8l-7.6,5l-5.9-5.8
				c-0.8,2.2-1.6,4.6-2.2,6.9c-1.5,6-2.6,12-1.9,18.3c1.4,12.4,12.2,25.2,27,23.2c12.2-1.6,21.4-13.7,21.4-27.6
				C110.8,117,110.3,113.8,109.6,110.6"/>
			<path id="XMLID_2911_" class="st2" d="M86.3,148.3c-5,0-9.7-1.7-13.8-4.9C66.8,139,63,132,62.2,124.8c-0.7-6.7,0.5-13.1,1.9-18.3
				c0.6-2.4,1.4-4.8,2.2-7l0.1-0.2l6,5.9l7.6-5l6.5,9.6l2.5-13.7l5.5,3.3l0,0l5.2,10.3l3.2-7.4l0.1,0.2l6.8,8l-0.1,0.1l0.1,0
				c0.8,3.6,1.2,6.8,1.2,9.8c0,6.8-2.2,13.4-6.2,18.5c-4,5.2-9.4,8.4-15.3,9.2C88.4,148.3,87.4,148.3,86.3,148.3z M66.5,99.7
				c-0.8,2.1-1.5,4.4-2.1,6.8c-1.3,5.3-2.6,11.6-1.9,18.3c0.8,7.2,4.6,14.1,10.2,18.5c4.9,3.8,10.6,5.4,16.7,4.6
				c12.1-1.6,21.3-13.4,21.3-27.5c0-3-0.4-6.2-1.2-9.7l-6.7-7.8l-3.2,7.5l-5.4-10.8l-5.1-3.1l-2.6,13.9l-0.2-0.3l-6.5-9.7l-7.6,5
				L66.5,99.7z"/>
		</g>
		<polygon id="XMLID_4111_" class="st3" points="112.2,122.6 109.4,122.6 110.8,118.3 		"/>
		<polygon id="XMLID_4110_" class="st4" points="110.1,127 109.4,122.6 112.2,122.6 		"/>
		<polygon id="XMLID_4109_" class="st3" points="63.5,122.6 60.7,122.6 62.1,118.3 		"/>
		<polygon id="XMLID_4108_" class="st3" points="75.4,122.6 68.1,122.6 71.8,118.3 		"/>
		<polygon id="XMLID_4107_" class="st4" points="71.8,127 68.1,122.6 75.4,122.6 		"/>
		<polygon id="XMLID_4106_" class="st3" points="104.8,122.6 97.5,122.6 101.2,118.3 		"/>
		<polygon id="XMLID_4105_" class="st4" points="101.2,127 97.5,122.6 104.8,122.6 		"/>
		<polygon id="XMLID_2910_" class="st2" points="91.3,127.7 87.4,118.8 87.4,118.8 88.5,115 86.3,110.1 86.6,110 88.8,115 
			87.7,118.8 91.5,127.6 		"/>
		<polygon id="XMLID_2909_" class="st2" points="71.9,117.7 71.7,117.6 73.1,115.6 68,113.4 68,113.2 72.2,105.3 72.4,105.4 
			68.3,113.2 73.5,115.5 		"/>
		<polygon id="XMLID_2908_" class="st2" points="99.5,115.7 95.8,113.8 99.5,110 99.7,110.2 96.2,113.8 99.6,115.5 		"/>
		<g id="XMLID_4099_">
			<polygon id="XMLID_4101_" class="st4" points="86.5,129.3 81.5,122.6 91.4,122.6 			"/>
			<polygon id="XMLID_4100_" class="st3" points="91.4,122.6 81.5,122.6 86.5,116 			"/>
		</g>
		<path id="XMLID_2905_" class="st2" d="M86.5,129.5l-5.1-6.9l0.1-0.1l5.1-6.8l5.1,6.9l-0.1,0.1L86.5,129.5z M81.6,122.6l4.8,6.5
			l4.8-6.5l-4.8-6.5L81.6,122.6z"/>
		<g id="XMLID_4095_">
			<polygon id="XMLID_4097_" class="st4" points="62.7,127 60.7,122.6 63.5,122.6 			"/>
			<path id="XMLID_2902_" class="st2" d="M62.7,127.4l-2.2-4.7l0,0l1.5-4.7l1.6,4.7l0,0L62.7,127.4z M60.8,122.6l1.8,3.9l0.8-3.9
				l-1.3-3.9L60.8,122.6z"/>
		</g>
		<g id="XMLID_4083_">
			<polygon id="XMLID_4094_" class="st4" points="110.1,127 112.1,122.6 109.2,122.6 			"/>
			<path id="XMLID_2897_" class="st2" d="M110.1,127.4l-0.9-4.7l0,0l1.5-4.7l1.6,4.7l0,0L110.1,127.4z M109.4,122.7l0.8,3.9l1.8-3.9
				l-1.3-3.9L109.4,122.7z"/>
		</g>
		<path id="XMLID_2891_" class="st2" d="M71.8,127.2l-3.8-4.5l3.8-4.5l3.8,4.5L71.8,127.2z M68.3,122.6l3.5,4.1l3.5-4.1l-3.5-4.1
			L68.3,122.6z"/>
		<path id="XMLID_2884_" class="st2" d="M101.2,127.2l-3.8-4.5l3.8-4.5l3.8,4.5L101.2,127.2z M97.7,122.6l3.5,4.1l3.5-4.1l-3.5-4.1
			L97.7,122.6z"/>
		<g id="XMLID_4078_">
			<g id="XMLID_2882_">
				<ellipse id="XMLID_2878_" class="st5" cx="78.6" cy="122.6" rx="0.9" ry="2.7"/>
				<path id="XMLID_2879_" class="st2" d="M78.6,125.4c-0.5,0-0.9-1.2-0.9-2.8c0-1.6,0.4-2.8,0.9-2.8s0.9,1.2,0.9,2.8
					C79.5,124.2,79.1,125.4,78.6,125.4z M78.6,120c-0.5,0-0.8,1.2-0.8,2.7s0.4,2.7,0.8,2.7s0.8-1.2,0.8-2.7S79,120,78.6,120z"/>
			</g>
			<g id="XMLID_2877_">
				<ellipse id="XMLID_2867_" class="st5" cx="94.3" cy="122.6" rx="0.9" ry="2.7"/>
				<path id="XMLID_2868_" class="st2" d="M94.3,125.4c-0.5,0-0.9-1.2-0.9-2.8c0-1.6,0.4-2.8,0.9-2.8s0.9,1.2,0.9,2.8
					C95.3,124.2,94.9,125.4,94.3,125.4z M94.3,120c-0.5,0-0.8,1.2-0.8,2.7s0.4,2.7,0.8,2.7s0.8-1.2,0.8-2.7S94.8,120,94.3,120z"/>
			</g>
		</g>
		<g id="XMLID_4075_">
			<g id="XMLID_2863_">
				<ellipse id="XMLID_2855_" class="st5" cx="107.4" cy="122.6" rx="0.6" ry="1.9"/>
				<path id="XMLID_2856_" class="st2" d="M107.4,124.6c-0.4,0-0.7-1-0.7-1.9s0.2-1.9,0.7-1.9c0.4,0,0.7,1,0.7,1.9
					C108.1,123.7,107.8,124.6,107.4,124.6z M107.4,120.8c-0.3,0-0.6,0.7-0.6,1.8c0,1.1,0.3,1.8,0.6,1.8s0.6-0.7,0.6-1.8
					C108,121.5,107.7,120.8,107.4,120.8z"/>
			</g>
			<g id="XMLID_2854_">
				<ellipse id="XMLID_2848_" class="st5" cx="65.5" cy="122.6" rx="0.6" ry="1.9"/>
				<path id="XMLID_2850_" class="st2" d="M65.5,124.6c-0.4,0-0.7-1-0.7-1.9s0.2-1.9,0.7-1.9c0.4,0,0.7,1,0.7,1.9
					C66.2,123.7,65.9,124.6,65.5,124.6z M65.5,120.8c-0.3,0-0.6,0.7-0.6,1.8c0,1.1,0.3,1.8,0.6,1.8s0.6-0.7,0.6-1.8
					C66.1,121.5,65.8,120.8,65.5,120.8z"/>
			</g>
		</g>
		<g id="XMLID_2847_">
			<rect id="XMLID_2843_" x="66.3" y="168.5" class="st5" width="40.4" height="4.5"/>
			<path id="XMLID_2844_" class="st2" d="M106.8,173.1H66.1v-4.8h40.6V173.1z M66.4,172.9h40.1v-4.3H66.4V172.9z"/>
		</g>
		<g id="XMLID_2842_">
			<rect id="XMLID_2838_" x="69.4" y="164.5" class="st4" width="34.1" height="4"/>
			<path id="XMLID_2839_" class="st2" d="M103.6,168.6H69.3v-4.2h34.4V168.6z M69.5,168.3h33.9v-3.7H69.5V168.3z"/>
		</g>
		<g id="XMLID_2830_">
			<path id="XMLID_2826_" class="st5" d="M86.5,149c-5.9,0.7-14,15.5-14,15.5h14h14C100.5,164.5,92.3,149.7,86.5,149z"/>
			<path id="XMLID_2827_" class="st2" d="M100.7,164.6H72.2l0.1-0.2c0.3-0.6,8.3-14.9,14.1-15.6l0,0l0,0c5.9,0.7,13.8,15,14.1,15.6
				L100.7,164.6z M72.6,164.4h27.7c-1-1.7-8.4-14.6-13.8-15.3C81.1,149.8,73.6,162.6,72.6,164.4z"/>
		</g>
		<g id="XMLID_2825_">
			<path id="XMLID_2821_" class="st5" d="M85,146.9c-3-1.8-4.8-9.4-4.8-9.4s4.3,7.6,8.1,8.3L85,146.9z"/>
			<path id="XMLID_2822_" class="st2" d="M84.9,147L84.9,147c-3.1-1.8-4.9-9.2-4.9-9.5l-0.2-0.9l0.4,0.8c0,0.1,4.3,7.6,8,8.3
				l0.5,0.1L84.9,147z M80.5,138.3c0.6,2,2.2,7,4.5,8.4l2.8-0.9C84.8,144.9,81.6,140.2,80.5,138.3z"/>
		</g>
		<g id="XMLID_2820_">
			<path id="XMLID_2816_" class="st5" d="M87.5,146.9c3-1.8,4.8-9.4,4.8-9.4s-4.3,7.6-8.1,8.3L87.5,146.9z"/>
			<path id="XMLID_2817_" class="st2" d="M87.5,147l-3.8-1.3l0.5-0.1c3.7-0.7,8-8.2,8-8.3l0.4-0.8l-0.2,0.9
				C92.4,137.8,90.6,145.2,87.5,147L87.5,147z M84.6,145.8l2.8,0.9c2.3-1.4,3.9-6.4,4.5-8.4C90.8,140.2,87.6,144.9,84.6,145.8z"/>
		</g>
		<g id="XMLID_2815_">
			<path id="XMLID_2811_" class="st5" d="M88.8,147.9c4-0.2,11.1-8.1,11.1-8.1s-9.3,6.3-13.4,4.7L88.8,147.9z"/>
			<path id="XMLID_2812_" class="st2" d="M88.7,148l-2.6-3.8l0.4,0.2c3.9,1.6,13.2-4.6,13.3-4.6l0.8-0.6l-0.7,0.7
				C99.6,140.2,92.8,147.8,88.7,148L88.7,148z M86.8,144.7l2.1,3c3.2-0.2,8.4-5.4,10.2-7.3C96.7,141.9,90.2,145.7,86.8,144.7z"/>
		</g>
		<g id="XMLID_2810_">
			<path id="XMLID_2806_" class="st5" d="M82.6,147.9c-4-0.2-11.1-8.1-11.1-8.1s9.3,6.3,13.4,4.7L82.6,147.9z"/>
			<path id="XMLID_2807_" class="st2" d="M82.7,148L82.7,148c-4.1-0.2-11-7.8-11.2-8.1l-0.7-0.7l0.8,0.6c0.1,0.1,9.3,6.2,13.3,4.6
				l0.4-0.2L82.7,148z M72.3,140.5c1.8,1.9,7,7.1,10.2,7.3l2.1-3C81.1,145.7,74.6,141.9,72.3,140.5z"/>
		</g>
		<g id="XMLID_2805_">
			<path id="XMLID_2800_" class="st5" d="M97.5,157.4c-1.2-4.5-7.4-8.4-11-8.4c-3.6,0-9.8,3.9-11,8.4c2.1,2.1,5.1,2.6,7.2,0.3
				c-0.6,4.5,3.9,5.8,3.9,5.8s4.4-1.3,3.9-5.8C92.4,159.9,95.4,159.5,97.5,157.4z"/>
			<path id="XMLID_2801_" class="st2" d="M86.5,163.6L86.5,163.6c-0.1,0-4.3-1.4-4-5.6c-0.9,0.9-1.9,1.3-3.1,1.3c0,0,0,0-0.1,0
				c-1.4,0-2.8-0.7-4-1.8l0-0.1l0-0.1c1.3-4.7,7.7-8.5,11.1-8.5c3.5,0,9.9,3.8,11.1,8.5l0,0.1l0,0.1c-1.2,1.2-2.6,1.8-4,1.8
				c0,0,0,0-0.1,0c-1.1,0-2.2-0.5-3.1-1.3C90.8,162.2,86.5,163.5,86.5,163.6L86.5,163.6z M82.8,157.2l0,0.4
				c-0.5,4.2,3.3,5.5,3.7,5.7c0.4-0.1,4.2-1.5,3.7-5.7l0-0.4l0.3,0.3c0.9,1,2,1.5,3.1,1.5c0,0,0,0,0.1,0c1.3,0,2.6-0.6,3.7-1.7
				c-1.3-4.5-7.5-8.2-10.9-8.2s-9.6,3.7-10.9,8.2c1.1,1.1,2.4,1.7,3.7,1.7c0,0,0,0,0.1,0c1.2,0,2.3-0.5,3.1-1.5L82.8,157.2z"/>
		</g>
		<g id="XMLID_3988_">
			<g id="XMLID_2799_">
				<path id="XMLID_2797_" class="st5" d="M77.2,155.5c-0.3,0.5-0.5,1-0.6,1.5c0.4,0.4,0.9,0.8,1.3,1"/>
				<path id="XMLID_2798_" class="st2" d="M77.8,158.2c-0.5-0.3-1-0.6-1.4-1.1l0-0.1l0-0.1c0.1-0.5,0.4-1,0.6-1.5l0.2,0.1
					c-0.3,0.5-0.5,0.9-0.6,1.4c0.4,0.4,0.8,0.7,1.3,1L77.8,158.2z"/>
			</g>
			<g id="XMLID_2796_">
				<path id="XMLID_2794_" class="st5" d="M95.8,155.5c0.3,0.5,0.5,1,0.6,1.5c-0.4,0.4-0.9,0.8-1.3,1"/>
				<path id="XMLID_2795_" class="st2" d="M95.1,158.2L95,158c0.4-0.2,0.9-0.6,1.3-1c-0.1-0.5-0.3-0.9-0.6-1.4l0.2-0.1
					c0.3,0.5,0.5,1,0.6,1.5l0,0.1l0,0.1C96,157.6,95.6,157.9,95.1,158.2z"/>
			</g>
		</g>
		<g id="XMLID_2792_">
			<ellipse id="XMLID_2780_" class="st4" cx="86.5" cy="149" rx="3.9" ry="4.9"/>
			<path id="XMLID_2788_" class="st2" d="M86.5,154c-2.2,0-4-2.3-4-5s1.8-5,4-5s4,2.3,4,5S88.6,154,86.5,154z M86.5,144.2
				c-2.1,0-3.7,2.1-3.7,4.8s1.7,4.8,3.7,4.8s3.7-2.1,3.7-4.8S88.5,144.2,86.5,144.2z"/>
		</g>
		<g id="XMLID_2779_">
			<ellipse id="XMLID_2768_" class="st3" cx="86.5" cy="149" rx="2.1" ry="2.7"/>
			<path id="XMLID_2771_" class="st2" d="M86.5,151.8c-1.2,0-2.2-1.3-2.2-2.8s1-2.8,2.2-2.8s2.2,1.3,2.2,2.8S87.7,151.8,86.5,151.8z
				 M86.5,146.4c-1.1,0-2,1.1-2,2.5s0.9,2.5,2,2.5s2-1.1,2-2.5S87.5,146.4,86.5,146.4z"/>
		</g>
		<g id="XMLID_2766_">
			<path id="XMLID_2189_" class="st5" d="M84.9,161.6c0.8,0.6,1.5,0.8,1.5,0.8s0.7-0.2,1.5-0.8"/>
			<path id="XMLID_2729_" class="st2" d="M86.5,162.5L86.5,162.5c-0.1,0-0.8-0.2-1.6-0.8l0.1-0.2c0.7,0.5,1.3,0.7,1.5,0.7
				c0.2-0.1,0.8-0.3,1.5-0.7l0.1,0.2C87.2,162.3,86.5,162.5,86.5,162.5L86.5,162.5z"/>
		</g>
	</g>
	<g id="XMLID_1813_">
		<path id="XMLID_1818_" class="st2" d="M164,258.6H9V10.7h155V258.6z M11,256.6h151V12.7H11V256.6z"/>
		<path id="XMLID_1816_" d="M16.9,20.4c2,0.3,5,1.5,5,4.4c0,2.1-1.6,4.4-4.8,4.4c-0.5,0-1.1-0.1-1.5-0.3c-0.3-0.1-0.3-0.3-0.3-0.5
			c0-0.5,0-1.5,0.1-2c0-0.2,0.1-0.3,0.1-0.3c0.1,0,0.1,0.1,0.1,0.3c0,1.7,1,2.1,2.2,2.1c1.4,0,2.8-0.9,2.8-3.1
			c0-2.6-2.8-3.8-4.1-3.9c-0.3,0-0.4-0.1-0.4-0.3l0.4-4.1c0-0.2,0.1-0.2,0.3-0.2h3.8c0.5,0,0.7,0,0.9-0.1c0.2,0,0.3,0,0.3,0
			c0.1,0,0.1,0,0.1,0.2c0,0.1,0,0.9-0.2,2c0,0.1-0.1,0.2-0.1,0.2c-0.1,0-0.1-0.1-0.1-0.2c0-0.6-0.1-1-1.4-1h-3L16.9,20.4z"/>
		<path id="XMLID_1814_" d="M156,248.9c-2-0.3-5-1.5-5-4.4c0-2.1,1.6-4.4,4.8-4.4c0.5,0,1.1,0.1,1.5,0.3c0.3,0.1,0.3,0.3,0.3,0.5
			c0,0.5,0,1.5-0.1,2c0,0.2-0.1,0.3-0.1,0.3c-0.1,0-0.1-0.1-0.1-0.3c0-1.7-1-2.1-2.2-2.1c-1.4,0-2.8,0.9-2.8,3.1
			c0,2.6,2.8,3.8,4.1,3.9c0.3,0,0.4,0.1,0.4,0.3l-0.4,4.1c0,0.2-0.1,0.2-0.3,0.2h-3.8c-0.5,0-0.7,0-0.9,0.1c-0.2,0-0.3,0-0.3,0
			c-0.1,0-0.1,0-0.1-0.2c0-0.1,0-0.9,0.2-2c0-0.1,0.1-0.2,0.1-0.2s0.1,0.1,0.1,0.2c0,0.6,0.1,1,1.4,1h3L156,248.9z"/>
	</g>
	<g id="XMLID_1587_">
		<g id="XMLID_2980_">
			<g id="XMLID_3035_">
				<g id="XMLID_1951_">
					<path id="XMLID_1928_" class="st1" d="M67.3,42.2l-5.1-5.9l-2.4,5.5L56,34l-3.9-2.4l-1.9,10.2l-4.9-7.2l-5.6,3.7L35.4,34
						c-0.6,1.7-1.2,3.4-1.6,5.1c-1.1,4.4-1.9,8.9-1.4,13.5c1,9.2,9,18.6,20,17.2c9-1.2,15.8-10.1,15.8-20.4
						C68.2,47,67.9,44.6,67.3,42.2"/>
					<path id="XMLID_1948_" class="st2" d="M50.1,70.2c-3.7,0-7.2-1.2-10.3-3.6c-4.2-3.3-7-8.5-7.6-13.8c-0.5-5,0.4-9.7,1.4-13.6
						c0.5-1.8,1-3.5,1.6-5.2l0.1-0.2l4.4,4.4l5.6-3.7l4.8,7.1L52,31.5l4.1,2.5l0,0l3.8,7.6l2.4-5.5l0.1,0.2l5.1,5.9l-0.1,0.1l0.1,0
						c0.6,2.6,0.9,5,0.9,7.3c0,5-1.6,9.9-4.6,13.7c-3,3.8-7,6.3-11.4,6.8C51.6,70.1,50.9,70.2,50.1,70.2z M35.4,34.3
						c-0.6,1.6-1.1,3.2-1.5,4.9c-1,3.9-1.9,8.5-1.4,13.5c0.6,5.3,3.4,10.4,7.5,13.6c3.6,2.8,7.9,4,12.3,3.4
						c9-1.2,15.7-9.9,15.7-20.3c0-2.2-0.3-4.6-0.9-7.2l-4.9-5.7l-2.4,5.6l-4-8l-3.7-2.3l-1.9,10.3l-5-7.4l-5.6,3.7L35.4,34.3z"/>
				</g>
				<polygon id="XMLID_3909_" class="st3" points="69.3,51.1 67.2,51.1 68.2,47.9 				"/>
				<polygon id="XMLID_3908_" class="st4" points="67.7,54.3 67.2,51.1 69.3,51.1 				"/>
				<polygon id="XMLID_3907_" class="st3" points="33.3,51.1 31.2,51.1 32.2,47.9 				"/>
				<polygon id="XMLID_3870_" class="st3" points="42,51.1 36.7,51.1 39.4,47.9 				"/>
				<polygon id="XMLID_3112_" class="st4" points="39.4,54.3 36.7,51.1 42,51.1 				"/>
				<polygon id="XMLID_3111_" class="st3" points="63.8,51.1 58.4,51.1 61.1,47.9 				"/>
				<polygon id="XMLID_3110_" class="st4" points="61.1,54.3 58.4,51.1 63.8,51.1 				"/>
				<polygon id="XMLID_1947_" class="st2" points="53.8,54.9 50.9,48.3 50.9,48.3 51.7,45.5 50.1,41.9 50.3,41.8 52,45.5 51.2,48.3 
					54,54.8 				"/>
				<polygon id="XMLID_1946_" class="st2" points="39.5,47.5 39.3,47.4 40.3,46 36.5,44.3 36.6,44.2 39.6,38.3 39.9,38.4 36.8,44.2 
					40.7,45.9 				"/>
				<polygon id="XMLID_1945_" class="st2" points="59.9,46 57,44.6 59.8,41.8 60,41.9 57.5,44.6 60,45.8 				"/>
				<g id="XMLID_3104_">
					<polygon id="XMLID_3106_" class="st4" points="50.2,56.1 46.5,51.1 53.9,51.1 					"/>
					<polygon id="XMLID_3105_" class="st3" points="53.9,51.1 46.5,51.1 50.2,46.2 					"/>
				</g>
				<path id="XMLID_1942_" class="st2" d="M50.2,56.3l-3.8-5.1l0.1-0.1l3.8-5.1l3.8,5.1L54,51.2L50.2,56.3z M46.7,51.1l3.5,4.7
					l3.5-4.7l-3.5-4.7L46.7,51.1z"/>
				<g id="XMLID_3100_">
					<polygon id="XMLID_3102_" class="st4" points="32.7,54.3 31.2,51.1 33.3,51.1 					"/>
					<path id="XMLID_1939_" class="st2" d="M32.7,54.7L31,51.1l0,0l1.2-3.6l1.2,3.6l0,0L32.7,54.7z M31.3,51.1l1.3,2.8l0.6-2.8
						l-0.9-2.8L31.3,51.1z"/>
				</g>
				<g id="XMLID_3097_">
					<polygon id="XMLID_3099_" class="st4" points="67.7,54.3 69.2,51.1 67.1,51.1 					"/>
					<path id="XMLID_1935_" class="st2" d="M67.7,54.7l-0.7-3.6l0,0l1.2-3.6l1.2,3.6l0,0L67.7,54.7z M67.2,51.1l0.6,2.8l1.3-2.8
						l-0.9-2.8L67.2,51.1z"/>
				</g>
				<path id="XMLID_1932_" class="st2" d="M39.4,54.5l-2.8-3.4l2.8-3.4l2.8,3.4L39.4,54.5z M36.8,51.1l2.5,3l2.5-3l-2.5-3L36.8,51.1
					z"/>
				<path id="XMLID_1929_" class="st2" d="M61.1,54.5l-2.8-3.4l2.8-3.4l2.8,3.4L61.1,54.5z M58.6,51.1l2.5,3l2.5-3l-2.5-3L58.6,51.1
					z"/>
				<g id="XMLID_3092_">
					<g id="XMLID_1927_">
						<ellipse id="XMLID_1923_" class="st5" cx="44.4" cy="51.1" rx="0.7" ry="2"/>
						<path id="XMLID_1924_" class="st2" d="M44.4,53.2c-0.4,0-0.7-0.9-0.7-2.1s0.3-2.1,0.7-2.1s0.7,0.9,0.7,2.1
							S44.8,53.2,44.4,53.2z M44.4,49.2c-0.3,0-0.6,0.8-0.6,2s0.3,2,0.6,2s0.6-0.8,0.6-2S44.7,49.2,44.4,49.2z"/>
					</g>
					<g id="XMLID_1922_">
						<ellipse id="XMLID_1918_" class="st5" cx="56.1" cy="51.1" rx="0.7" ry="2"/>
						<path id="XMLID_1919_" class="st2" d="M56.1,53.2c-0.4,0-0.7-0.9-0.7-2.1s0.3-2.1,0.7-2.1s0.7,0.9,0.7,2.1
							S56.4,53.2,56.1,53.2z M56.1,49.2c-0.3,0-0.6,0.8-0.6,2s0.3,2,0.6,2s0.6-0.8,0.6-2S56.3,49.2,56.1,49.2z"/>
					</g>
				</g>
				<g id="XMLID_3089_">
					<g id="XMLID_1917_">
						<ellipse id="XMLID_1913_" class="st5" cx="65.7" cy="51.1" rx="0.5" ry="1.4"/>
						<path id="XMLID_1914_" class="st2" d="M65.7,52.6c-0.3,0-0.5-0.7-0.5-1.4s0.2-1.4,0.5-1.4s0.5,0.7,0.5,1.4S66,52.6,65.7,52.6z
							 M65.7,49.8c-0.2,0-0.4,0.6-0.4,1.3c0,0.8,0.2,1.3,0.4,1.3s0.4-0.6,0.4-1.3C66.1,50.3,65.9,49.8,65.7,49.8z"/>
					</g>
					<g id="XMLID_1912_">
						<ellipse id="XMLID_1908_" class="st5" cx="34.7" cy="51.1" rx="0.5" ry="1.4"/>
						<path id="XMLID_1909_" class="st2" d="M34.7,52.6c-0.3,0-0.5-0.7-0.5-1.4s0.2-1.4,0.5-1.4s0.5,0.7,0.5,1.4
							S35.1,52.6,34.7,52.6z M34.7,49.8c-0.2,0-0.4,0.6-0.4,1.3c0,0.8,0.2,1.3,0.4,1.3s0.4-0.6,0.4-1.3
							C35.2,50.3,34.9,49.8,34.7,49.8z"/>
					</g>
				</g>
				<g id="XMLID_1907_">
					<rect id="XMLID_1903_" x="35.3" y="85" class="st5" width="29.8" height="3.3"/>
					<path id="XMLID_1904_" class="st2" d="M65.3,88.5H35.2v-3.6h30.1V88.5z M35.4,88.2H65v-3.1H35.4V88.2z"/>
				</g>
				<g id="XMLID_1902_">
					<rect id="XMLID_1898_" x="37.6" y="82.1" class="st4" width="25.2" height="2.9"/>
					<path id="XMLID_1899_" class="st2" d="M63,85.1H37.5v-3.2H63V85.1z M37.7,84.9h25v-2.7h-25V84.9z"/>
				</g>
				<g id="XMLID_1897_">
					<path id="XMLID_1893_" class="st5" d="M50.2,70.6c-4.4,0.5-10.4,11.5-10.4,11.5h10.4h10.4C60.6,82.1,54.6,71.1,50.2,70.6z"/>
					<path id="XMLID_1894_" class="st2" d="M60.8,82.2H39.6l0.1-0.2c0.2-0.4,6.1-11,10.5-11.5l0,0l0,0C54.6,71,60.5,81.6,60.7,82
						L60.8,82.2z M40,81.9h20.3c-0.8-1.4-6.2-10.7-10.2-11.2C46.3,71.2,40.9,80.5,40,81.9z"/>
				</g>
				<g id="XMLID_1892_">
					<path id="XMLID_1888_" class="st5" d="M49.1,69c-2.2-1.3-3.6-6.9-3.6-6.9s3.2,5.6,6,6.1L49.1,69z"/>
					<path id="XMLID_1889_" class="st2" d="M49.1,69.2L49.1,69.2c-2.3-1.4-3.6-6.8-3.7-7.1l-0.2-0.9l0.4,0.8c0,0.1,3.2,5.6,5.9,6.1
						l0.5,0.1L49.1,69.2z M45.9,62.9c0.5,1.6,1.6,5,3.2,6l2-0.7C49,67.5,46.8,64.4,45.9,62.9z"/>
				</g>
				<g id="XMLID_1887_">
					<path id="XMLID_1883_" class="st5" d="M51,69c2.2-1.3,3.6-6.9,3.6-6.9s-3.2,5.6-6,6.1L51,69z"/>
					<path id="XMLID_1884_" class="st2" d="M51,69.2l-3-1l0.5-0.1c2.7-0.5,5.9-6,5.9-6.1l0.4-0.8l-0.2,0.9
						C54.6,62.4,53.3,67.8,51,69.2L51,69.2z M49,68.3l2,0.7c1.6-1,2.8-4.4,3.2-6C53.3,64.4,51.1,67.5,49,68.3z"/>
				</g>
				<g id="XMLID_1882_">
					<path id="XMLID_1878_" class="st5" d="M51.9,69.8c3-0.1,8.2-6,8.2-6s-6.9,4.6-9.9,3.4L51.9,69.8z"/>
					<path id="XMLID_1879_" class="st2" d="M51.9,69.9l-2-2.9l0.4,0.2c2.9,1.2,9.7-3.4,9.8-3.4l0.8-0.6l-0.7,0.7
						C60,64.2,54.9,69.8,51.9,69.9L51.9,69.9z M50.5,67.5l1.5,2.2c2.3-0.2,5.9-3.7,7.4-5.2C57.5,65.6,53,68.1,50.5,67.5z"/>
				</g>
				<g id="XMLID_1877_">
					<path id="XMLID_1873_" class="st5" d="M47.4,69.8c-3-0.1-8.2-6-8.2-6s6.9,4.6,9.9,3.4L47.4,69.8z"/>
					<path id="XMLID_1874_" class="st2" d="M47.4,69.9L47.4,69.9c-3.1-0.2-8.1-5.8-8.4-6l-0.7-0.7l0.8,0.6c0.1,0,6.9,4.6,9.8,3.4
						l0.4-0.2L47.4,69.9z M40,64.5c1.5,1.5,5.1,5,7.4,5.2l1.5-2.2C46.3,68.1,41.8,65.6,40,64.5z"/>
				</g>
				<g id="XMLID_1872_">
					<path id="XMLID_1868_" class="st5" d="M58.4,76.8c-0.9-3.3-5.5-6.2-8.1-6.2s-7.2,2.9-8.1,6.2c1.5,1.6,3.7,1.9,5.3,0.2
						c-0.4,3.3,2.8,4.3,2.8,4.3s3.3-1,2.8-4.3C54.6,78.7,56.8,78.4,58.4,76.8z"/>
					<path id="XMLID_1869_" class="st2" d="M50.2,81.4L50.2,81.4c-0.1,0-3.2-1-3-4.1c-0.6,0.6-1.4,0.9-2.2,0.9c0,0,0,0,0,0
						c-1,0-2.1-0.5-2.9-1.4l0-0.1l0-0.1c0.9-3.5,5.7-6.3,8.3-6.3c2.6,0,7.3,2.8,8.3,6.3l0,0.1l0,0.1c-0.9,0.9-1.9,1.4-2.9,1.4
						c0,0,0,0,0,0c-0.8,0-1.6-0.3-2.2-0.9C53.4,80.4,50.3,81.4,50.2,81.4L50.2,81.4z M47.5,76.6l0,0.4c-0.4,3,2.4,4,2.7,4.2
						c0.4-0.1,3.1-1.1,2.7-4.2l0-0.4l0.3,0.3c0.6,0.7,1.4,1.1,2.3,1.1c0,0,0,0,0,0c1,0,1.9-0.4,2.7-1.2c-1-3.3-5.5-6-8-6s-7,2.7-8,6
						C43,77.6,44,78,44.9,78c0,0,0,0,0,0c0.9,0,1.7-0.4,2.3-1.1L47.5,76.6z"/>
				</g>
				<g id="XMLID_3078_">
					<g id="XMLID_1867_">
						<path id="XMLID_1865_" class="st5" d="M43.3,75.5c-0.2,0.4-0.4,0.7-0.5,1.1c0.3,0.3,0.6,0.6,1,0.8"/>
						<path id="XMLID_1866_" class="st2" d="M43.8,77.4c-0.4-0.2-0.7-0.5-1-0.8l0-0.1l0-0.1c0.1-0.4,0.3-0.8,0.5-1.1l0.2,0.1
							c-0.2,0.3-0.3,0.7-0.4,1c0.3,0.3,0.6,0.5,0.9,0.7L43.8,77.4z"/>
					</g>
					<g id="XMLID_1864_">
						<path id="XMLID_1862_" class="st5" d="M57.1,75.5c0.2,0.4,0.4,0.7,0.5,1.1c-0.3,0.3-0.6,0.6-1,0.8"/>
						<path id="XMLID_1863_" class="st2" d="M56.6,77.4l-0.1-0.2c0.3-0.2,0.6-0.4,0.9-0.7c-0.1-0.3-0.2-0.7-0.4-1l0.2-0.1
							c0.2,0.4,0.4,0.8,0.5,1.1l0,0.1l0,0.1C57.3,77,57,77.2,56.6,77.4z"/>
					</g>
				</g>
				<g id="XMLID_1861_">
					<ellipse id="XMLID_1857_" class="st4" cx="50.2" cy="70.6" rx="2.8" ry="3.6"/>
					<path id="XMLID_1858_" class="st2" d="M50.2,74.4c-1.6,0-3-1.7-3-3.8s1.3-3.8,3-3.8c1.6,0,3,1.7,3,3.8S51.9,74.4,50.2,74.4z
						 M50.2,67.1c-1.5,0-2.7,1.6-2.7,3.5s1.2,3.5,2.7,3.5s2.7-1.6,2.7-3.5S51.7,67.1,50.2,67.1z"/>
				</g>
				<g id="XMLID_1856_">
					<ellipse id="XMLID_1852_" class="st3" cx="50.2" cy="70.6" rx="1.5" ry="2"/>
					<path id="XMLID_1853_" class="st2" d="M50.2,72.7c-0.9,0-1.7-0.9-1.7-2.1s0.8-2.1,1.7-2.1c0.9,0,1.7,0.9,1.7,2.1
						S51.1,72.7,50.2,72.7z M50.2,68.7c-0.8,0-1.4,0.8-1.4,1.9s0.6,1.9,1.4,1.9s1.4-0.8,1.4-1.9S51,68.7,50.2,68.7z"/>
				</g>
				<g id="XMLID_1851_">
					<path id="XMLID_1849_" class="st5" d="M49.1,80c0.6,0.4,1.1,0.6,1.1,0.6s0.5-0.2,1.1-0.6"/>
					<path id="XMLID_1850_" class="st2" d="M50.2,80.7L50.2,80.7c-0.1,0-0.6-0.2-1.2-0.6l0.1-0.2c0.5,0.3,0.9,0.5,1.1,0.5
						c0.1,0,0.6-0.2,1.1-0.5l0.1,0.2C50.8,80.5,50.3,80.6,50.2,80.7L50.2,80.7z"/>
				</g>
			</g>
			<g id="XMLID_2981_">
				<g id="XMLID_1848_">
					<path id="XMLID_1793_" class="st1" d="M139.8,42.2l-5.1-5.9l-2.4,5.5l-3.9-7.8l-3.9-2.4l-1.9,10.2l-4.9-7.2l-5.6,3.7l-4.4-4.3
						c-0.6,1.7-1.2,3.4-1.6,5.1c-1.1,4.4-1.9,8.9-1.4,13.5c1,9.2,9,18.6,20,17.2c9-1.2,15.8-10.1,15.8-20.4
						C140.7,47,140.3,44.6,139.8,42.2"/>
					<path id="XMLID_1845_" class="st2" d="M122.6,70.2c-3.7,0-7.2-1.2-10.3-3.6c-4.2-3.3-7-8.5-7.6-13.8c-0.5-5,0.4-9.7,1.4-13.6
						c0.5-1.8,1-3.5,1.6-5.2l0.1-0.2l4.4,4.4l5.6-3.7l4.8,7.1l1.9-10.1l4.1,2.5l0,0l3.8,7.6l2.4-5.5l0.1,0.2l5.1,5.9
						c0.6,2.6,0.9,5,0.9,7.3c0,5-1.6,9.9-4.6,13.7c-3,3.8-7,6.3-11.4,6.8C124.1,70.1,123.4,70.2,122.6,70.2z M107.9,34.3
						c-0.6,1.6-1.1,3.2-1.5,4.9c-1,3.9-1.9,8.5-1.4,13.5c0.6,5.3,3.4,10.4,7.5,13.6c3.6,2.8,7.9,4,12.3,3.4
						c9-1.2,15.7-9.9,15.7-20.3c0-2.2-0.3-4.6-0.9-7.2l-4.9-5.7l-2.4,5.6l-4-8l-3.7-2.3l-1.9,10.3l-5-7.4l-5.6,3.7L107.9,34.3z"/>
				</g>
				<polygon id="XMLID_3033_" class="st3" points="141.7,51.1 139.6,51.1 140.7,47.9 				"/>
				<polygon id="XMLID_3032_" class="st4" points="140.2,54.3 139.6,51.1 141.7,51.1 				"/>
				<polygon id="XMLID_3031_" class="st3" points="105.8,51.1 103.6,51.1 104.7,47.9 				"/>
				<polygon id="XMLID_3030_" class="st3" points="114.5,51.1 109.1,51.1 111.8,47.9 				"/>
				<polygon id="XMLID_3029_" class="st4" points="111.8,54.3 109.1,51.1 114.5,51.1 				"/>
				<polygon id="XMLID_3028_" class="st3" points="136.2,51.1 130.9,51.1 133.6,47.9 				"/>
				<polygon id="XMLID_3027_" class="st4" points="133.6,54.3 130.9,51.1 136.2,51.1 				"/>
				<polygon id="XMLID_1844_" class="st2" points="126.3,54.9 123.4,48.3 123.4,48.3 124.2,45.5 122.6,41.9 122.8,41.8 124.4,45.5 
					123.6,48.3 126.5,54.8 				"/>
				<polygon id="XMLID_1843_" class="st2" points="111.9,47.5 111.7,47.4 112.8,46 109,44.3 109,44.2 112.1,38.3 112.3,38.4 
					109.3,44.2 113.2,45.9 				"/>
				<polygon id="XMLID_1809_" class="st2" points="132.3,46 129.5,44.6 132.3,41.8 132.5,41.9 129.9,44.6 132.4,45.8 				"/>
				<g id="XMLID_3021_">
					<polygon id="XMLID_3023_" class="st4" points="122.7,56.1 119,51.1 126.4,51.1 					"/>
					<polygon id="XMLID_3022_" class="st3" points="126.4,51.1 119,51.1 122.7,46.2 					"/>
				</g>
				<path id="XMLID_1806_" class="st2" d="M122.7,56.3l-3.8-5.1l0.1-0.1l3.8-5.1l3.8,5.1l-0.1,0.1L122.7,56.3z M119.2,51.1l3.5,4.7
					l3.5-4.7l-3.5-4.7L119.2,51.1z"/>
				<g id="XMLID_3017_">
					<polygon id="XMLID_3019_" class="st4" points="105.1,54.3 103.6,51.1 105.8,51.1 					"/>
					<path id="XMLID_1803_" class="st2" d="M105.2,54.7l-1.7-3.6l0,0l1.2-3.6l1.2,3.6l0,0L105.2,54.7z M103.8,51.1l1.3,2.8l0.6-2.8
						l-0.9-2.8L103.8,51.1z"/>
				</g>
				<g id="XMLID_3014_">
					<polygon id="XMLID_3016_" class="st4" points="140.2,54.3 141.7,51.1 139.5,51.1 					"/>
					<path id="XMLID_1800_" class="st2" d="M140.1,54.7l-0.7-3.6l0,0l1.2-3.6l1.2,3.6l0,0L140.1,54.7z M139.7,51.1l0.6,2.8l1.3-2.8
						l-0.9-2.8L139.7,51.1z"/>
				</g>
				<path id="XMLID_1797_" class="st2" d="M111.8,54.5l-2.8-3.4l2.8-3.4l2.8,3.4L111.8,54.5z M109.3,51.1l2.5,3l2.5-3l-2.5-3
					L109.3,51.1z"/>
				<path id="XMLID_1794_" class="st2" d="M133.6,54.5l-2.8-3.4l2.8-3.4l2.8,3.4L133.6,54.5z M131,51.1l2.5,3l2.5-3l-2.5-3L131,51.1
					z"/>
				<g id="XMLID_3009_">
					<g id="XMLID_1792_">
						<ellipse id="XMLID_1788_" class="st5" cx="116.9" cy="51.1" rx="0.7" ry="2"/>
						<path id="XMLID_1789_" class="st2" d="M116.9,53.2c-0.4,0-0.7-0.9-0.7-2.1s0.3-2.1,0.7-2.1s0.7,0.9,0.7,2.1
							S117.3,53.2,116.9,53.2z M116.9,49.2c-0.3,0-0.6,0.8-0.6,2s0.3,2,0.6,2s0.6-0.8,0.6-2S117.2,49.2,116.9,49.2z"/>
					</g>
					<g id="XMLID_1787_">
						<ellipse id="XMLID_1783_" class="st5" cx="128.5" cy="51.1" rx="0.7" ry="2"/>
						<path id="XMLID_1784_" class="st2" d="M128.5,53.2c-0.4,0-0.7-0.9-0.7-2.1s0.3-2.1,0.7-2.1s0.7,0.9,0.7,2.1
							S128.9,53.2,128.5,53.2z M128.5,49.2c-0.3,0-0.6,0.8-0.6,2s0.3,2,0.6,2s0.6-0.8,0.6-2S128.8,49.2,128.5,49.2z"/>
					</g>
				</g>
				<g id="XMLID_2996_">
					<g id="XMLID_1782_">
						<ellipse id="XMLID_1778_" class="st5" cx="138.2" cy="51.1" rx="0.5" ry="1.4"/>
						<path id="XMLID_1779_" class="st2" d="M138.2,52.6c-0.3,0-0.5-0.7-0.5-1.4s0.2-1.4,0.5-1.4s0.5,0.7,0.5,1.4
							S138.5,52.6,138.2,52.6z M138.2,49.8c-0.2,0-0.4,0.6-0.4,1.3c0,0.8,0.2,1.3,0.4,1.3s0.4-0.6,0.4-1.3
							C138.6,50.3,138.4,49.8,138.2,49.8z"/>
					</g>
					<g id="XMLID_1777_">
						<ellipse id="XMLID_1756_" class="st5" cx="107.2" cy="51.1" rx="0.5" ry="1.4"/>
						<path id="XMLID_1757_" class="st2" d="M107.2,52.6c-0.3,0-0.5-0.7-0.5-1.4s0.2-1.4,0.5-1.4s0.5,0.7,0.5,1.4
							S107.5,52.6,107.2,52.6z M107.2,49.8c-0.2,0-0.4,0.6-0.4,1.3c0,0.8,0.2,1.3,0.4,1.3s0.4-0.6,0.4-1.3
							C107.6,50.3,107.4,49.8,107.2,49.8z"/>
					</g>
				</g>
				<g id="XMLID_1755_">
					<rect id="XMLID_1751_" x="107.8" y="85" class="st5" width="29.8" height="3.3"/>
					<path id="XMLID_1752_" class="st2" d="M137.7,88.5h-30.1v-3.6h30.1V88.5z M107.9,88.2h29.6v-3.1h-29.6V88.2z"/>
				</g>
				<g id="XMLID_1750_">
					<rect id="XMLID_1746_" x="110.1" y="82.1" class="st4" width="25.2" height="2.9"/>
					<path id="XMLID_1747_" class="st2" d="M135.4,85.1H110v-3.2h25.5V85.1z M110.2,84.9h25v-2.7h-25V84.9z"/>
				</g>
				<g id="XMLID_1745_">
					<path id="XMLID_1741_" class="st5" d="M122.7,70.6c-4.4,0.5-10.4,11.5-10.4,11.5h10.4h10.4C133.1,82.1,127,71.1,122.7,70.6z"/>
					<path id="XMLID_1742_" class="st2" d="M133.3,82.2h-21.2l0.1-0.2c0.2-0.4,6.1-11,10.5-11.5l0,0l0,0
						c4.4,0.5,10.2,11.1,10.5,11.5L133.3,82.2z M112.5,81.9h20.3c-0.8-1.4-6.2-10.7-10.2-11.2C118.8,71.2,113.3,80.5,112.5,81.9z"/>
				</g>
				<g id="XMLID_1740_">
					<path id="XMLID_1736_" class="st5" d="M121.6,69c-2.2-1.3-3.6-6.9-3.6-6.9s3.2,5.6,6,6.1L121.6,69z"/>
					<path id="XMLID_1737_" class="st2" d="M121.6,69.2L121.6,69.2c-2.3-1.4-3.6-6.8-3.7-7.1l-0.2-0.9l0.4,0.8
						c0,0.1,3.2,5.6,5.9,6.1l0.5,0.1L121.6,69.2z M118.4,62.9c0.5,1.6,1.6,5,3.2,6l2-0.7C121.5,67.5,119.3,64.4,118.4,62.9z"/>
				</g>
				<g id="XMLID_1735_">
					<path id="XMLID_1731_" class="st5" d="M123.5,69c2.2-1.3,3.6-6.9,3.6-6.9s-3.2,5.6-6,6.1L123.5,69z"/>
					<path id="XMLID_1732_" class="st2" d="M123.5,69.2l-3-1l0.5-0.1c2.7-0.5,5.9-6,5.9-6.1l0.4-0.8l-0.2,0.9
						C127.1,62.4,125.7,67.8,123.5,69.2L123.5,69.2z M121.5,68.3l2,0.7c1.6-1,2.8-4.4,3.2-6C125.7,64.4,123.6,67.5,121.5,68.3z"/>
				</g>
				<g id="XMLID_1730_">
					<path id="XMLID_1726_" class="st5" d="M124.4,69.8c3-0.1,8.2-6,8.2-6s-6.9,4.6-9.9,3.4L124.4,69.8z"/>
					<path id="XMLID_1727_" class="st2" d="M124.3,69.9l-2-2.9l0.4,0.2c2.9,1.2,9.7-3.4,9.8-3.4l0.8-0.6l-0.7,0.7
						C132.5,64.2,127.4,69.8,124.3,69.9L124.3,69.9z M123,67.5l1.5,2.2c2.3-0.2,5.9-3.7,7.4-5.2C130,65.6,125.5,68.1,123,67.5z"/>
				</g>
				<g id="XMLID_1725_">
					<path id="XMLID_1721_" class="st5" d="M119.8,69.8c-3-0.1-8.2-6-8.2-6s6.9,4.6,9.9,3.4L119.8,69.8z"/>
					<path id="XMLID_1722_" class="st2" d="M119.9,69.9L119.9,69.9c-3.1-0.2-8.1-5.8-8.4-6l-0.7-0.7l0.8,0.6c0.1,0,6.9,4.6,9.8,3.4
						l0.4-0.2L119.9,69.9z M112.4,64.5c1.5,1.5,5.1,5,7.4,5.2l1.5-2.2C118.7,68.1,114.3,65.6,112.4,64.5z"/>
				</g>
				<g id="XMLID_1720_">
					<path id="XMLID_1713_" class="st5" d="M130.8,76.8c-0.9-3.3-5.5-6.2-8.1-6.2s-7.2,2.9-8.1,6.2c1.5,1.6,3.7,1.9,5.3,0.2
						c-0.4,3.3,2.8,4.3,2.8,4.3s3.3-1,2.8-4.3C127.1,78.7,129.3,78.4,130.8,76.8z"/>
					<path id="XMLID_1717_" class="st2" d="M122.7,81.4L122.7,81.4c-0.1,0-3.2-1-3-4.1c-0.6,0.6-1.4,0.9-2.2,0.9c0,0,0,0,0,0
						c-1,0-2.1-0.5-2.9-1.4l0-0.1l0-0.1c0.9-3.5,5.7-6.3,8.3-6.3s7.3,2.8,8.3,6.3l0,0.1l0,0.1c-0.9,0.9-1.9,1.4-2.9,1.4c0,0,0,0,0,0
						c-0.8,0-1.6-0.3-2.2-0.9C125.9,80.4,122.8,81.4,122.7,81.4L122.7,81.4z M120,76.6l0,0.4c-0.4,3,2.4,4,2.7,4.2
						c0.4-0.1,3.1-1.1,2.7-4.2l0-0.4l0.3,0.3c0.6,0.7,1.4,1.1,2.3,1.1c0,0,0,0,0,0c1,0,1.9-0.4,2.7-1.2c-1-3.3-5.5-6-8-6s-7,2.7-8,6
						c0.8,0.8,1.8,1.2,2.7,1.2c0,0,0,0,0,0c0.9,0,1.7-0.4,2.3-1.1L120,76.6z"/>
				</g>
				<g id="XMLID_2985_">
					<g id="XMLID_1712_">
						<path id="XMLID_1710_" class="st5" d="M115.8,75.5c-0.2,0.4-0.4,0.7-0.5,1.1c0.3,0.3,0.6,0.6,1,0.8"/>
						<path id="XMLID_1711_" class="st2" d="M116.3,77.4c-0.4-0.2-0.7-0.5-1-0.8l0-0.1l0-0.1c0.1-0.4,0.3-0.8,0.5-1.1l0.2,0.1
							c-0.2,0.3-0.3,0.7-0.4,1c0.3,0.3,0.6,0.5,0.9,0.7L116.3,77.4z"/>
					</g>
					<g id="XMLID_1709_">
						<path id="XMLID_1707_" class="st5" d="M129.6,75.5c0.2,0.4,0.4,0.7,0.5,1.1c-0.3,0.3-0.6,0.6-1,0.8"/>
						<path id="XMLID_1708_" class="st2" d="M129.1,77.4l-0.1-0.2c0.3-0.2,0.6-0.4,0.9-0.7c-0.1-0.3-0.2-0.7-0.4-1l0.2-0.1
							c0.2,0.4,0.4,0.8,0.5,1.1l0,0.1l0,0.1C129.8,77,129.5,77.2,129.1,77.4z"/>
					</g>
				</g>
				<g id="XMLID_1706_">
					<ellipse id="XMLID_1702_" class="st4" cx="122.7" cy="70.6" rx="2.8" ry="3.6"/>
					<path id="XMLID_1703_" class="st2" d="M122.7,74.4c-1.6,0-3-1.7-3-3.8s1.3-3.8,3-3.8s3,1.7,3,3.8S124.3,74.4,122.7,74.4z
						 M122.7,67.1c-1.5,0-2.7,1.6-2.7,3.5s1.2,3.5,2.7,3.5s2.7-1.6,2.7-3.5S124.2,67.1,122.7,67.1z"/>
				</g>
				<g id="XMLID_1701_">
					<ellipse id="XMLID_1697_" class="st3" cx="122.7" cy="70.6" rx="1.5" ry="2"/>
					<path id="XMLID_1698_" class="st2" d="M122.7,72.7c-0.9,0-1.7-0.9-1.7-2.1s0.8-2.1,1.7-2.1s1.7,0.9,1.7,2.1
						S123.6,72.7,122.7,72.7z M122.7,68.7c-0.8,0-1.4,0.8-1.4,1.9s0.6,1.9,1.4,1.9s1.4-0.8,1.4-1.9S123.5,68.7,122.7,68.7z"/>
				</g>
				<g id="XMLID_1696_">
					<path id="XMLID_1694_" class="st5" d="M121.6,80c0.6,0.4,1.1,0.6,1.1,0.6s0.5-0.2,1.1-0.6"/>
					<path id="XMLID_1695_" class="st2" d="M122.7,80.7L122.7,80.7c-0.1,0-0.6-0.2-1.2-0.6l0.1-0.2c0.5,0.3,0.9,0.5,1.1,0.5
						c0.1,0,0.6-0.2,1.1-0.5l0.1,0.2C123.3,80.5,122.8,80.6,122.7,80.7L122.7,80.7z"/>
				</g>
			</g>
		</g>
		<g id="XMLID_1588_">
			<g id="XMLID_2687_">
				<g id="XMLID_1693_">
					<path id="XMLID_1638_" class="st1" d="M67.3,191.5l-5.1-5.9l-2.4,5.5l-3.9-7.8l-3.9-2.4l-1.9,10.2l-4.9-7.2l-5.6,3.7l-4.4-4.3
						c-0.6,1.7-1.2,3.4-1.6,5.1c-1.1,4.4-1.9,8.9-1.4,13.5c1,9.2,9,18.6,20,17.2c9-1.2,15.8-10.1,15.8-20.4
						C68.2,196.3,67.9,193.8,67.3,191.5"/>
					<path id="XMLID_1658_" class="st2" d="M50.1,219.4c-3.7,0-7.2-1.2-10.3-3.6c-4.2-3.3-7-8.5-7.6-13.8c-0.5-5,0.4-9.7,1.4-13.6
						c0.5-1.8,1-3.5,1.6-5.2l0.1-0.2l0.1,0.1c0,0,3.7,3.7,4.3,4.2l5.6-3.7l4.8,7.1l1.9-10.1l4.1,2.5l0,0l3.8,7.6l2.4-5.5l0.1,0.2
						l5.1,5.9l-0.1,0.1l0.1,0c0.6,2.6,0.9,5,0.9,7.3c0,5-1.6,9.9-4.6,13.7c-3,3.8-7,6.3-11.4,6.8C51.6,219.4,50.9,219.4,50.1,219.4z
						 M35.5,183.5c-0.6,1.6-1.1,3.2-1.5,5c-1,3.9-1.9,8.5-1.4,13.5c0.6,5.3,3.4,10.4,7.5,13.6c3.6,2.8,7.9,4,12.3,3.4
						c9-1.2,15.7-9.9,15.7-20.3c0-2.2-0.3-4.6-0.9-7.2l-4.9-5.7l-2.4,5.6l-4-8l-3.7-2.3l-1.9,10.3l-5-7.4l-5.6,3.7l-0.1-0.1
						C36.8,184.8,35.8,183.9,35.5,183.5z"/>
				</g>
				<polygon id="XMLID_2978_" class="st3" points="69.3,200.4 67.2,200.4 68.2,197.2 				"/>
				<polygon id="XMLID_2977_" class="st4" points="67.7,203.6 67.2,200.4 69.3,200.4 				"/>
				<polygon id="XMLID_2976_" class="st3" points="33.3,200.4 31.2,200.4 32.2,197.2 				"/>
				<polygon id="XMLID_2975_" class="st3" points="42,200.4 36.7,200.4 39.4,197.2 				"/>
				<polygon id="XMLID_2974_" class="st4" points="39.4,203.6 36.7,200.4 42,200.4 				"/>
				<polygon id="XMLID_2973_" class="st3" points="63.8,200.4 58.4,200.4 61.1,197.2 				"/>
				<polygon id="XMLID_2972_" class="st4" points="61.1,203.6 58.4,200.4 63.8,200.4 				"/>
				<polygon id="XMLID_1657_" class="st2" points="53.8,204.2 50.9,197.6 50.9,197.6 51.7,194.8 50.1,191.2 50.3,191.1 52,194.7 
					51.2,197.6 54,204.1 				"/>
				<polygon id="XMLID_1656_" class="st2" points="39.5,196.8 39.3,196.6 40.3,195.2 36.5,193.6 36.6,193.4 39.6,187.5 39.9,187.7 
					36.8,193.4 40.7,195.1 				"/>
				<polygon id="XMLID_1655_" class="st2" points="59.9,195.3 57,193.9 59.8,191 60,191.2 57.5,193.8 60,195.1 				"/>
				<g id="XMLID_2966_">
					<polygon id="XMLID_2968_" class="st4" points="50.2,205.3 46.5,200.4 53.9,200.4 					"/>
					<polygon id="XMLID_2967_" class="st3" points="53.9,200.4 46.5,200.4 50.2,195.5 					"/>
				</g>
				<path id="XMLID_1652_" class="st2" d="M50.2,205.5l-3.8-5.1l0.1-0.1l3.8-5.1l3.8,5.1l-0.1,0.1L50.2,205.5z M46.7,200.4l3.5,4.7
					l3.5-4.7l-3.5-4.7L46.7,200.4z"/>
				<g id="XMLID_2962_">
					<polygon id="XMLID_2964_" class="st4" points="32.7,203.6 31.2,200.4 33.3,200.4 					"/>
					<path id="XMLID_1648_" class="st2" d="M32.7,204l-1.7-3.6l0,0l1.2-3.6l1.2,3.6l0,0L32.7,204z M31.3,200.4l1.3,2.8l0.6-2.8
						l-0.9-2.8L31.3,200.4z"/>
				</g>
				<g id="XMLID_2959_">
					<polygon id="XMLID_2961_" class="st4" points="67.7,203.6 69.2,200.4 67.1,200.4 					"/>
					<path id="XMLID_1645_" class="st2" d="M67.7,204l-0.7-3.6l0,0l1.2-3.6l1.2,3.6l0,0L67.7,204z M67.2,200.4l0.6,2.8l1.3-2.8
						l-0.9-2.8L67.2,200.4z"/>
				</g>
				<path id="XMLID_1642_" class="st2" d="M39.4,203.8l-2.8-3.4l2.8-3.4l2.8,3.4L39.4,203.8z M36.8,200.4l2.5,3l2.5-3l-2.5-3
					L36.8,200.4z"/>
				<path id="XMLID_1639_" class="st2" d="M61.1,203.8l-2.8-3.4l2.8-3.4l2.8,3.4L61.1,203.8z M58.6,200.4l2.5,3l2.5-3l-2.5-3
					L58.6,200.4z"/>
				<g id="XMLID_2954_">
					<g id="XMLID_1637_">
						<ellipse id="XMLID_1633_" class="st5" cx="44.4" cy="200.4" rx="0.7" ry="2"/>
						<path id="XMLID_1634_" class="st2" d="M44.4,202.5c-0.4,0-0.7-0.9-0.7-2.1s0.3-2.1,0.7-2.1s0.7,0.9,0.7,2.1
							S44.8,202.5,44.4,202.5z M44.4,198.4c-0.3,0-0.6,0.8-0.6,2s0.3,2,0.6,2s0.6-0.8,0.6-2S44.7,198.4,44.4,198.4z"/>
					</g>
					<g id="XMLID_1632_">
						<ellipse id="XMLID_1628_" class="st5" cx="56.1" cy="200.4" rx="0.7" ry="2"/>
						<path id="XMLID_1629_" class="st2" d="M56.1,202.5c-0.4,0-0.7-0.9-0.7-2.1s0.3-2.1,0.7-2.1s0.7,0.9,0.7,2.1
							S56.4,202.5,56.1,202.5z M56.1,198.4c-0.3,0-0.6,0.8-0.6,2s0.3,2,0.6,2s0.6-0.8,0.6-2S56.3,198.4,56.1,198.4z"/>
					</g>
				</g>
				<g id="XMLID_2951_">
					<g id="XMLID_1627_">
						<ellipse id="XMLID_1623_" class="st5" cx="65.7" cy="200.4" rx="0.5" ry="1.4"/>
						<path id="XMLID_1624_" class="st2" d="M65.7,201.9c-0.3,0-0.5-0.7-0.5-1.4s0.2-1.4,0.5-1.4s0.5,0.7,0.5,1.4
							S66,201.9,65.7,201.9z M65.7,199.1c-0.2,0-0.4,0.6-0.4,1.3s0.2,1.3,0.4,1.3s0.4-0.6,0.4-1.3S65.9,199.1,65.7,199.1z"/>
					</g>
					<g id="XMLID_1622_">
						<ellipse id="XMLID_1618_" class="st5" cx="34.7" cy="200.4" rx="0.5" ry="1.4"/>
						<path id="XMLID_1619_" class="st2" d="M34.7,201.9c-0.3,0-0.5-0.7-0.5-1.4s0.2-1.4,0.5-1.4s0.5,0.7,0.5,1.4
							S35.1,201.9,34.7,201.9z M34.7,199.1c-0.2,0-0.4,0.6-0.4,1.3s0.2,1.3,0.4,1.3s0.4-0.6,0.4-1.3S34.9,199.1,34.7,199.1z"/>
					</g>
				</g>
				<g id="XMLID_1617_">
					<rect id="XMLID_1606_" x="35.3" y="234.3" class="st5" width="29.8" height="3.3"/>
					<path id="XMLID_1607_" class="st2" d="M65.3,237.7H35.2v-3.6h30.1V237.7z M35.4,237.5H65v-3.1H35.4V237.5z"/>
				</g>
				<g id="XMLID_1605_">
					<rect id="XMLID_1601_" x="37.6" y="231.3" class="st4" width="25.2" height="2.9"/>
					<path id="XMLID_1602_" class="st2" d="M63,234.4H37.5v-3.2H63V234.4z M37.7,234.2h25v-2.7h-25V234.2z"/>
				</g>
				<g id="XMLID_1600_">
					<path id="XMLID_1595_" class="st5" d="M50.2,219.9c-4.4,0.5-10.4,11.5-10.4,11.5h10.4h10.4C60.6,231.3,54.6,220.4,50.2,219.9z"
						/>
					<path id="XMLID_1596_" class="st2" d="M60.8,231.5H39.6l0.1-0.2c0.2-0.4,6.1-11,10.5-11.5l0,0l0,0c4.4,0.5,10.2,11.1,10.5,11.5
						L60.8,231.5z M40,231.2h20.3c-0.8-1.4-6.2-10.7-10.2-11.2C46.3,220.5,40.9,229.8,40,231.2z"/>
				</g>
				<g id="XMLID_1594_">
					<path id="XMLID_1590_" class="st5" d="M49.1,218.3c-2.2-1.3-3.6-6.9-3.6-6.9s3.2,5.6,6,6.1L49.1,218.3z"/>
					<path id="XMLID_1591_" class="st2" d="M49.1,218.4L49.1,218.4c-2.3-1.4-3.6-6.8-3.7-7.1l-0.2-0.9l0.4,0.8
						c0,0.1,3.2,5.6,5.9,6.1l0.5,0.1L49.1,218.4z M45.9,212.2c0.5,1.6,1.6,5,3.2,6l2-0.7C49,216.8,46.8,213.7,45.9,212.2z"/>
				</g>
				<g id="XMLID_1586_">
					<path id="XMLID_1582_" class="st5" d="M51,218.3c2.2-1.3,3.6-6.9,3.6-6.9s-3.2,5.6-6,6.1L51,218.3z"/>
					<path id="XMLID_1583_" class="st2" d="M51,218.4l-3-1l0.5-0.1c2.7-0.5,5.9-6,5.9-6.1l0.4-0.8l-0.2,0.9
						C54.6,211.6,53.3,217.1,51,218.4L51,218.4z M49,217.5l2,0.7c1.6-1,2.8-4.4,3.2-6C53.3,213.7,51.1,216.8,49,217.5z"/>
				</g>
				<g id="XMLID_1581_">
					<path id="XMLID_1577_" class="st5" d="M51.9,219.1c3-0.1,8.2-6,8.2-6s-6.9,4.6-9.9,3.4L51.9,219.1z"/>
					<path id="XMLID_1578_" class="st2" d="M51.9,219.2l-2-2.9l0.4,0.2c2.9,1.2,9.7-3.4,9.8-3.4l0.8-0.6l-0.7,0.7
						C60,213.4,54.9,219,51.9,219.2L51.9,219.2z M50.5,216.8l1.5,2.2c2.3-0.2,5.9-3.7,7.4-5.2C57.5,214.9,53,217.4,50.5,216.8z"/>
				</g>
				<g id="XMLID_1576_">
					<path id="XMLID_1572_" class="st5" d="M47.4,219.1c-3-0.1-8.2-6-8.2-6s6.9,4.6,9.9,3.4L47.4,219.1z"/>
					<path id="XMLID_1573_" class="st2" d="M47.4,219.2L47.4,219.2c-3.1-0.2-8.1-5.8-8.4-6l-0.7-0.7l0.8,0.6c0.1,0,6.9,4.6,9.8,3.4
						l0.4-0.2L47.4,219.2z M40,213.7c1.5,1.5,5.1,5,7.4,5.2l1.5-2.2C46.3,217.4,41.8,214.9,40,213.7z"/>
				</g>
				<g id="XMLID_1571_">
					<path id="XMLID_1567_" class="st5" d="M58.4,226.1c-0.9-3.3-5.5-6.2-8.1-6.2s-7.2,2.9-8.1,6.2c1.5,1.6,3.7,1.9,5.3,0.2
						c-0.4,3.3,2.8,4.3,2.8,4.3s3.3-1,2.8-4.3C54.6,228,56.8,227.6,58.4,226.1z"/>
					<path id="XMLID_1568_" class="st2" d="M50.2,230.7L50.2,230.7c-0.1,0-3.2-1-3-4.1c-0.6,0.6-1.4,0.9-2.2,0.9c0,0,0,0,0,0
						c-1,0-2.1-0.5-2.9-1.4l0-0.1l0-0.1c0.9-3.5,5.7-6.3,8.3-6.3c2.6,0,7.3,2.8,8.3,6.3l0,0.1l0,0.1c-0.9,0.9-1.9,1.4-2.9,1.4
						c0,0,0,0,0,0c-0.8,0-1.6-0.3-2.2-0.9C53.4,229.7,50.3,230.7,50.2,230.7L50.2,230.7z M47.5,225.9l0,0.4c-0.4,3,2.4,4,2.7,4.2
						c0.4-0.1,3.1-1.1,2.7-4.2l0-0.4l0.3,0.3c0.6,0.7,1.4,1.1,2.3,1.1c0,0,0,0,0,0c1,0,1.9-0.4,2.7-1.2c-1-3.3-5.5-6-8-6s-7,2.7-8,6
						c0.8,0.8,1.8,1.3,2.8,1.2c0.9,0,1.7-0.4,2.3-1.1L47.5,225.9z"/>
				</g>
				<g id="XMLID_2691_">
					<g id="XMLID_1566_">
						<path id="XMLID_1564_" class="st5" d="M43.3,224.7c-0.2,0.4-0.4,0.7-0.5,1.1c0.3,0.3,0.6,0.6,1,0.8"/>
						<path id="XMLID_1565_" class="st2" d="M43.8,226.7c-0.4-0.2-0.7-0.5-1-0.8l0-0.1l0-0.1c0.1-0.4,0.3-0.8,0.5-1.1l0.2,0.1
							c-0.2,0.3-0.3,0.7-0.4,1c0.3,0.3,0.6,0.5,0.9,0.7L43.8,226.7z"/>
					</g>
					<g id="XMLID_1563_">
						<path id="XMLID_1561_" class="st5" d="M57.1,224.7c0.2,0.4,0.4,0.7,0.5,1.1c-0.3,0.3-0.6,0.6-1,0.8"/>
						<path id="XMLID_1562_" class="st2" d="M56.6,226.7l-0.1-0.2c0.3-0.2,0.6-0.4,0.9-0.7c-0.1-0.3-0.2-0.7-0.4-1l0.2-0.1
							c0.2,0.4,0.4,0.8,0.5,1.1l0,0.1l0,0.1C57.3,226.2,57,226.5,56.6,226.7z"/>
					</g>
				</g>
				<g id="XMLID_1560_">
					<ellipse id="XMLID_1556_" class="st4" cx="50.2" cy="219.9" rx="2.8" ry="3.6"/>
					<path id="XMLID_1557_" class="st2" d="M50.2,223.6c-1.6,0-3-1.7-3-3.8s1.3-3.8,3-3.8c1.6,0,3,1.7,3,3.8S51.9,223.6,50.2,223.6z
						 M50.2,216.4c-1.5,0-2.7,1.6-2.7,3.5s1.2,3.5,2.7,3.5s2.7-1.6,2.7-3.5S51.7,216.4,50.2,216.4z"/>
				</g>
				<g id="XMLID_1555_">
					<ellipse id="XMLID_1551_" class="st3" cx="50.2" cy="219.9" rx="1.5" ry="2"/>
					<path id="XMLID_1552_" class="st2" d="M50.2,222c-0.9,0-1.7-0.9-1.7-2.1c0-1.2,0.8-2.1,1.7-2.1c0.9,0,1.7,0.9,1.7,2.1
						C51.9,221,51.1,222,50.2,222z M50.2,218c-0.8,0-1.4,0.8-1.4,1.9s0.6,1.9,1.4,1.9s1.4-0.8,1.4-1.9S51,218,50.2,218z"/>
				</g>
				<g id="XMLID_1550_">
					<path id="XMLID_1548_" class="st5" d="M49.1,229.2c0.6,0.4,1.1,0.6,1.1,0.6s0.5-0.2,1.1-0.6"/>
					<path id="XMLID_1549_" class="st2" d="M50.2,229.9L50.2,229.9c-0.1,0-0.6-0.2-1.2-0.6l0.1-0.2c0.5,0.3,0.9,0.5,1.1,0.5
						c0.1,0,0.6-0.2,1.1-0.5l0.1,0.2C50.8,229.7,50.3,229.9,50.2,229.9L50.2,229.9z"/>
				</g>
			</g>
			<g id="XMLID_1589_">
				<g id="XMLID_1547_">
					<path id="XMLID_1525_" class="st1" d="M139.8,191.5l-5.1-5.9l-2.4,5.5l-3.9-7.8l-3.9-2.4l-1.9,10.2l-4.9-7.2l-5.6,3.7l-4.4-4.3
						c-0.6,1.7-1.2,3.4-1.6,5.1c-1.1,4.4-1.9,8.9-1.4,13.5c1,9.2,9,18.6,20,17.2c9-1.2,15.8-10.1,15.8-20.4
						C140.7,196.3,140.3,193.8,139.8,191.5"/>
					<path id="XMLID_1544_" class="st2" d="M122.6,219.4c-3.7,0-7.2-1.2-10.3-3.6c-4.2-3.3-7-8.5-7.6-13.8c-0.5-5,0.4-9.7,1.4-13.6
						c0.5-1.8,1-3.5,1.6-5.2l0.1-0.2l4.4,4.4l5.6-3.7l4.8,7.1l1.9-10.1l4.1,2.5l0,0l3.8,7.6l2.4-5.5l0.1,0.2l5.1,5.9l-0.1,0.1l0.1,0
						c0.6,2.6,0.9,5,0.9,7.3c0,5-1.6,9.9-4.6,13.7c-3,3.8-7,6.3-11.4,6.8C124.1,219.4,123.4,219.4,122.6,219.4z M107.9,183.5
						c-0.6,1.6-1.1,3.2-1.5,4.9c-1,3.9-1.9,8.5-1.4,13.5c0.6,5.3,3.4,10.4,7.5,13.6c3.6,2.8,7.9,4,12.3,3.4
						c9-1.2,15.7-9.9,15.7-20.3c0-2.2-0.3-4.6-0.9-7.2l-4.9-5.7l-2.4,5.6l-4-8l-3.7-2.3l-1.9,10.3l-5-7.4l-5.6,3.7L107.9,183.5z"/>
				</g>
				<polygon id="XMLID_2685_" class="st3" points="141.7,200.4 139.6,200.4 140.7,197.2 				"/>
				<polygon id="XMLID_2684_" class="st4" points="140.2,203.6 139.6,200.4 141.7,200.4 				"/>
				<polygon id="XMLID_2683_" class="st3" points="105.8,200.4 103.6,200.4 104.7,197.2 				"/>
				<polygon id="XMLID_2682_" class="st3" points="114.5,200.4 109.1,200.4 111.8,197.2 				"/>
				<polygon id="XMLID_2681_" class="st4" points="111.8,203.6 109.1,200.4 114.5,200.4 				"/>
				<polygon id="XMLID_2680_" class="st3" points="136.2,200.4 130.9,200.4 133.6,197.2 				"/>
				<polygon id="XMLID_2679_" class="st4" points="133.6,203.6 130.9,200.4 136.2,200.4 				"/>
				<polygon id="XMLID_1543_" class="st2" points="126.3,204.2 123.4,197.6 123.4,197.6 124.2,194.8 122.6,191.2 122.8,191.1 
					124.4,194.7 123.6,197.6 126.5,204.1 				"/>
				<polygon id="XMLID_1542_" class="st2" points="111.9,196.8 111.7,196.6 112.8,195.2 109,193.6 109,193.4 112.1,187.5 
					112.3,187.7 109.3,193.4 113.2,195.1 				"/>
				<polygon id="XMLID_1541_" class="st2" points="132.3,195.3 129.5,193.9 132.3,191 132.5,191.2 129.9,193.8 132.4,195.1 				"/>
				<g id="XMLID_2664_">
					<polygon id="XMLID_2675_" class="st4" points="122.7,205.3 119,200.4 126.4,200.4 					"/>
					<polygon id="XMLID_2674_" class="st3" points="126.4,200.4 119,200.4 122.7,195.5 					"/>
				</g>
				<path id="XMLID_1538_" class="st2" d="M122.7,205.5l-3.8-5.1l0.1-0.1l3.8-5.1l3.8,5.1l-0.1,0.1L122.7,205.5z M119.2,200.4
					l3.5,4.7l3.5-4.7l-3.5-4.7L119.2,200.4z"/>
				<g id="XMLID_2660_">
					<polygon id="XMLID_2662_" class="st4" points="105.1,203.6 103.6,200.4 105.8,200.4 					"/>
					<path id="XMLID_1535_" class="st2" d="M105.2,204l-1.7-3.6l0,0l1.2-3.6l1.2,3.6l0,0L105.2,204z M103.8,200.4l1.3,2.8l0.6-2.8
						l-0.9-2.8L103.8,200.4z"/>
				</g>
				<g id="XMLID_2657_">
					<polygon id="XMLID_2659_" class="st4" points="140.2,203.6 141.7,200.4 139.5,200.4 					"/>
					<path id="XMLID_1532_" class="st2" d="M140.1,204l-0.7-3.6l0,0l1.2-3.6l1.2,3.6l0,0L140.1,204z M139.7,200.4l0.6,2.8l1.3-2.8
						l-0.9-2.8L139.7,200.4z"/>
				</g>
				<path id="XMLID_1529_" class="st2" d="M111.8,203.8l-2.8-3.4l2.8-3.4l2.8,3.4L111.8,203.8z M109.3,200.4l2.5,3l2.5-3l-2.5-3
					L109.3,200.4z"/>
				<path id="XMLID_1526_" class="st2" d="M133.6,203.8l-2.8-3.4l2.8-3.4l2.8,3.4L133.6,203.8z M131,200.4l2.5,3l2.5-3l-2.5-3
					L131,200.4z"/>
				<g id="XMLID_2652_">
					<g id="XMLID_1524_">
						<ellipse id="XMLID_1487_" class="st5" cx="116.9" cy="200.4" rx="0.7" ry="2"/>
						<path id="XMLID_1488_" class="st2" d="M116.9,202.5c-0.4,0-0.7-0.9-0.7-2.1s0.3-2.1,0.7-2.1s0.7,0.9,0.7,2.1
							S117.3,202.5,116.9,202.5z M116.9,198.4c-0.3,0-0.6,0.8-0.6,2s0.3,2,0.6,2s0.6-0.8,0.6-2S117.2,198.4,116.9,198.4z"/>
					</g>
					<g id="XMLID_1486_">
						<ellipse id="XMLID_1482_" class="st5" cx="128.5" cy="200.4" rx="0.7" ry="2"/>
						<path id="XMLID_1483_" class="st2" d="M128.5,202.5c-0.4,0-0.7-0.9-0.7-2.1s0.3-2.1,0.7-2.1s0.7,0.9,0.7,2.1
							S128.9,202.5,128.5,202.5z M128.5,198.4c-0.3,0-0.6,0.8-0.6,2s0.3,2,0.6,2s0.6-0.8,0.6-2S128.8,198.4,128.5,198.4z"/>
					</g>
				</g>
				<g id="XMLID_2649_">
					<g id="XMLID_1481_">
						<ellipse id="XMLID_1466_" class="st5" cx="138.2" cy="200.4" rx="0.5" ry="1.4"/>
						<path id="XMLID_1467_" class="st2" d="M138.2,201.9c-0.3,0-0.5-0.7-0.5-1.4s0.2-1.4,0.5-1.4s0.5,0.7,0.5,1.4
							S138.5,201.9,138.2,201.9z M138.2,199.1c-0.2,0-0.4,0.6-0.4,1.3s0.2,1.3,0.4,1.3s0.4-0.6,0.4-1.3S138.4,199.1,138.2,199.1z"/>
					</g>
					<g id="XMLID_1465_">
						<ellipse id="XMLID_1461_" class="st5" cx="107.2" cy="200.4" rx="0.5" ry="1.4"/>
						<path id="XMLID_1462_" class="st2" d="M107.2,201.9c-0.3,0-0.5-0.7-0.5-1.4s0.2-1.4,0.5-1.4s0.5,0.7,0.5,1.4
							S107.5,201.9,107.2,201.9z M107.2,199.1c-0.2,0-0.4,0.6-0.4,1.3s0.2,1.3,0.4,1.3s0.4-0.6,0.4-1.3S107.4,199.1,107.2,199.1z"/>
					</g>
				</g>
				<g id="XMLID_1460_">
					<rect id="XMLID_1455_" x="107.8" y="234.3" class="st5" width="29.8" height="3.3"/>
					<path id="XMLID_1456_" class="st2" d="M137.7,237.7h-30.1v-3.6h30.1V237.7z M107.9,237.5h29.6v-3.1h-29.6V237.5z"/>
				</g>
				<g id="XMLID_1453_">
					<rect id="XMLID_1447_" x="110.1" y="231.3" class="st4" width="25.2" height="2.9"/>
					<path id="XMLID_1448_" class="st2" d="M135.4,234.4H110v-3.2h25.5V234.4z M110.2,234.2h25v-2.7h-25V234.2z"/>
				</g>
				<g id="XMLID_1445_">
					<path id="XMLID_1440_" class="st5" d="M122.7,219.9c-4.4,0.5-10.4,11.5-10.4,11.5h10.4h10.4C133.1,231.3,127,220.4,122.7,219.9
						z"/>
					<path id="XMLID_1441_" class="st2" d="M133.3,231.5h-21.2l0.1-0.2c0.2-0.4,6.1-11,10.5-11.5l0,0l0,0
						c4.4,0.5,10.2,11.1,10.5,11.5L133.3,231.5z M112.5,231.2h20.3c-0.8-1.4-6.2-10.7-10.2-11.2
						C118.8,220.5,113.3,229.8,112.5,231.2z"/>
				</g>
				<g id="XMLID_1439_">
					<path id="XMLID_1435_" class="st5" d="M121.6,218.3c-2.2-1.3-3.6-6.9-3.6-6.9s3.2,5.6,6,6.1L121.6,218.3z"/>
					<path id="XMLID_1436_" class="st2" d="M121.6,218.4L121.6,218.4c-2.3-1.4-3.6-6.8-3.7-7.1l-0.2-0.9l0.4,0.8
						c0,0.1,3.2,5.6,5.9,6.1l0.5,0.1L121.6,218.4z M118.4,212.2c0.5,1.6,1.6,5,3.2,6l2-0.7C121.5,216.8,119.3,213.7,118.4,212.2z"/>
				</g>
				<g id="XMLID_1434_">
					<path id="XMLID_1428_" class="st5" d="M123.5,218.3c2.2-1.3,3.6-6.9,3.6-6.9s-3.2,5.6-6,6.1L123.5,218.3z"/>
					<path id="XMLID_1429_" class="st2" d="M123.5,218.4l-3-1l0.5-0.1c2.7-0.5,5.9-6,5.9-6.1l0.4-0.8l-0.2,0.9
						C127.1,211.6,125.7,217.1,123.5,218.4L123.5,218.4z M121.5,217.5l2,0.7c1.6-1,2.8-4.4,3.2-6
						C125.7,213.7,123.6,216.8,121.5,217.5z"/>
				</g>
				<g id="XMLID_1427_">
					<path id="XMLID_1423_" class="st5" d="M124.4,219.1c3-0.1,8.2-6,8.2-6s-6.9,4.6-9.9,3.4L124.4,219.1z"/>
					<path id="XMLID_1424_" class="st2" d="M124.3,219.2l-2-2.9l0.4,0.2c2.9,1.2,9.7-3.4,9.8-3.4l0.8-0.6l-0.7,0.7
						C132.5,213.4,127.4,219,124.3,219.2L124.3,219.2z M123,216.8l1.5,2.2c2.3-0.2,5.9-3.7,7.4-5.2C130,214.9,125.5,217.4,123,216.8
						z"/>
				</g>
				<g id="XMLID_1422_">
					<path id="XMLID_1418_" class="st5" d="M119.8,219.1c-3-0.1-8.2-6-8.2-6s6.9,4.6,9.9,3.4L119.8,219.1z"/>
					<path id="XMLID_1419_" class="st2" d="M119.9,219.2L119.9,219.2c-3.1-0.2-8.1-5.8-8.4-6l-0.7-0.7l0.8,0.6
						c0.1,0,6.9,4.6,9.8,3.4l0.4-0.2L119.9,219.2z M112.4,213.7c1.5,1.5,5.1,5,7.4,5.2l1.5-2.2C118.7,217.4,114.3,214.9,112.4,213.7
						z"/>
				</g>
				<g id="XMLID_1417_">
					<path id="XMLID_1413_" class="st5" d="M130.8,226.1c-0.9-3.3-5.5-6.2-8.1-6.2s-7.2,2.9-8.1,6.2c1.5,1.6,3.7,1.9,5.3,0.2
						c-0.4,3.3,2.8,4.3,2.8,4.3s3.3-1,2.8-4.3C127.1,228,129.3,227.6,130.8,226.1z"/>
					<path id="XMLID_1414_" class="st2" d="M122.7,230.7L122.7,230.7c-0.1,0-3.2-1-3-4.1c-0.6,0.6-1.4,0.9-2.2,0.9c0,0,0,0,0,0
						c-1,0-2.1-0.5-2.9-1.4l0-0.1l0-0.1c0.9-3.5,5.7-6.3,8.3-6.3s7.3,2.8,8.3,6.3l0,0.1l0,0.1c-0.9,0.9-1.9,1.4-2.9,1.4c0,0,0,0,0,0
						c-0.8,0-1.6-0.3-2.2-0.9C125.9,229.7,122.8,230.7,122.7,230.7L122.7,230.7z M120,225.9l0,0.4c-0.4,3,2.4,4,2.7,4.2
						c0.4-0.1,3.1-1.1,2.7-4.2l0-0.4l0.3,0.3c0.6,0.7,1.4,1.1,2.3,1.1c0,0,0,0,0,0c1,0,1.9-0.4,2.7-1.2c-1-3.3-5.5-6-8-6s-7,2.7-8,6
						c0.8,0.8,1.8,1.2,2.7,1.2c0,0,0,0,0,0c0.9,0,1.7-0.4,2.3-1.1L120,225.9z"/>
				</g>
				<g id="XMLID_1597_">
					<g id="XMLID_1412_">
						<path id="XMLID_1410_" class="st5" d="M115.8,224.7c-0.2,0.4-0.4,0.7-0.5,1.1c0.3,0.3,0.6,0.6,1,0.8"/>
						<path id="XMLID_1411_" class="st2" d="M116.3,226.7c-0.4-0.2-0.7-0.5-1-0.8l0-0.1l0-0.1c0.1-0.4,0.3-0.8,0.5-1.1l0.2,0.1
							c-0.2,0.3-0.3,0.7-0.4,1c0.3,0.3,0.6,0.5,0.9,0.7L116.3,226.7z"/>
					</g>
					<g id="XMLID_1409_">
						<path id="XMLID_1407_" class="st5" d="M129.6,224.7c0.2,0.4,0.4,0.7,0.5,1.1c-0.3,0.3-0.6,0.6-1,0.8"/>
						<path id="XMLID_1408_" class="st2" d="M129.1,226.7l-0.1-0.2c0.3-0.2,0.6-0.4,0.9-0.7c-0.1-0.3-0.2-0.7-0.4-1l0.2-0.1
							c0.2,0.4,0.4,0.8,0.5,1.1l0,0.1l0,0.1C129.8,226.2,129.5,226.5,129.1,226.7z"/>
					</g>
				</g>
				<g id="XMLID_1406_">
					<ellipse id="XMLID_1402_" class="st4" cx="122.7" cy="219.9" rx="2.8" ry="3.6"/>
					<path id="XMLID_1403_" class="st2" d="M122.7,223.6c-1.6,0-3-1.7-3-3.8s1.3-3.8,3-3.8s3,1.7,3,3.8S124.3,223.6,122.7,223.6z
						 M122.7,216.4c-1.5,0-2.7,1.6-2.7,3.5s1.2,3.5,2.7,3.5s2.7-1.6,2.7-3.5S124.2,216.4,122.7,216.4z"/>
				</g>
				<g id="XMLID_1401_">
					<ellipse id="XMLID_1397_" class="st3" cx="122.7" cy="219.9" rx="1.5" ry="2"/>
					<path id="XMLID_1398_" class="st2" d="M122.7,222c-0.9,0-1.7-0.9-1.7-2.1c0-1.2,0.8-2.1,1.7-2.1s1.7,0.9,1.7,2.1
						C124.4,221,123.6,222,122.7,222z M122.7,218c-0.8,0-1.4,0.8-1.4,1.9s0.6,1.9,1.4,1.9s1.4-0.8,1.4-1.9S123.5,218,122.7,218z"/>
				</g>
				<g id="XMLID_1396_">
					<path id="XMLID_1394_" class="st5" d="M121.6,229.2c0.6,0.4,1.1,0.6,1.1,0.6s0.5-0.2,1.1-0.6"/>
					<path id="XMLID_1395_" class="st2" d="M122.7,229.9L122.7,229.9c-0.1,0-0.6-0.2-1.2-0.6l0.1-0.2c0.5,0.3,0.9,0.5,1.1,0.5
						c0.1,0,0.6-0.2,1.1-0.5l0.1,0.2C123.3,229.7,122.8,229.9,122.7,229.9L122.7,229.9z"/>
				</g>
			</g>
		</g>
	</g>
</g>
</svg>
