<?xml version="1.0" encoding="utf-8"?>
<!-- Generator: Adobe Illustrator 19.0.0, SVG Export Plug-In . SVG Version: 6.00 Build 0)  -->
<svg version="1.1" id="Capa_1" xmlns="http://www.w3.org/2000/svg" xmlns:xlink="http://www.w3.org/1999/xlink" x="0px" y="0px"
	 viewBox="0 0 172.9 269.3" style="enable-background:new 0 0 172.9 269.3;" xml:space="preserve">
<style type="text/css">
	.st0{fill:#FFFFFF;}
	.st1{fill:#010202;}
	.st2{fill:#83CCF1;}
	.st3{fill:#CBE7E9;}
	.st4{fill:#FAEA26;}
	.st5{fill:#EA572D;}
	.st6{fill:#929293;}
</style>
<rect id="XMLID_6257_" x="0" y="0" class="st0" width="172.9" height="269.3"/>
<g id="XMLID_6029_">
	<path id="XMLID_4787_" class="st1" d="M164,258.6H9V10.7h155V258.6z M11,256.6h151V12.7H11V256.6z"/>
	<g id="XMLID_4783_">
		<path id="XMLID_4784_" d="M20.9,24.7h1.2c0.4,0,0.6-0.2,0.7-0.2c0.1,0,0.1,0.1,0.1,0.2c0,0.1-0.1,0.5-0.1,0.6
			c-0.1,0.2-0.1,0.2-0.3,0.2h-1.5c0,0.5,0,1.8,0,2.5c0,0.5,0.2,0.8,0.7,0.9c0.2,0,0.5,0.1,0.7,0.1c0.1,0,0.1,0.1,0.1,0.1
			c0,0.1-0.1,0.1-0.3,0.1c-0.9,0-1.9,0-2,0c-0.1,0-1,0-1.9,0c-0.2,0-0.3,0-0.3-0.1c0-0.1,0-0.1,0.1-0.1c0.1,0,0.5,0,0.8,0
			c0.5-0.1,0.6-0.4,0.7-0.9c0.1-0.7,0-2,0-2.5h-4.9c-0.2,0-0.3,0-0.3-0.2c0-0.1,0.1-0.3,0.1-0.3c0.1-0.1,5.3-7.2,5.9-7.9
			c0.1-0.2,0.2-0.3,0.3-0.3c0.1,0,0.2,0.1,0.2,0.3c0,0.2,0,1.5,0,2.4V24.7z M19.7,19L19.7,19c-0.3,0.4-3.8,5.3-4.1,5.7h4.1V19z"/>
	</g>
	<g id="XMLID_4779_">
		<path id="XMLID_4780_" d="M152,244.6h-1.2c-0.4,0-0.6,0.2-0.7,0.2c-0.1,0-0.1-0.1-0.1-0.2c0-0.1,0.1-0.5,0.1-0.6
			c0.1-0.2,0.1-0.2,0.3-0.2h1.5c0-0.5,0-1.8,0-2.5c0-0.5-0.2-0.8-0.7-0.9c-0.2,0-0.5-0.1-0.7-0.1c-0.1,0-0.1-0.1-0.1-0.1
			c0-0.1,0.1-0.1,0.3-0.1c0.9,0,1.9,0,2,0s1,0,1.9,0c0.2,0,0.3,0,0.3,0.1c0,0.1,0,0.1-0.1,0.1c-0.1,0-0.5,0-0.8,0
			c-0.5,0.1-0.6,0.4-0.7,0.9c-0.1,0.7,0,2,0,2.5h4.9c0.2,0,0.3,0,0.3,0.2c0,0.1-0.1,0.3-0.1,0.3c-0.1,0.1-5.3,7.2-5.9,7.9
			c-0.1,0.2-0.2,0.3-0.3,0.3s-0.2-0.1-0.2-0.3c0-0.2,0-1.5,0-2.4V244.6z M153.2,250.3L153.2,250.3c0.3-0.4,3.8-5.3,4.1-5.7h-4.1
			V250.3z"/>
	</g>
	<g id="XMLID_4497_">
		<g id="XMLID_4516_">
			<path id="XMLID_4521_" class="st2" d="M44.9,224.1c0,0,0.6-2.1,0.8-2.1c2-0.5,0.2,0.9,1.3,0.6c1.1-0.4,2.1-1.9,2.4-3l-1.2,0.3
				c0,0-1.2,0.3-0.7-0.9l0.9-1.7c0.6-1,0.9-0.6,1.8,0.4c0.3-1.1,0.1-1.7,0.3-3.8c0.2-2.1,1.1-1.4,1.6,0.3c0.5,1.6,0.7,3.6,0.7,3.6
				c0.8-1.1,2.1-5.1,2.4-7.3l-0.6,0.6c-0.6,0.6-1,0.6-1.1-0.5c0-1.1,0.4-3.7,0.7-4.9c0.2-0.7,0.6-0.8,1-0.5c0.4,0.3,0.9,1,0.9,1
				c-0.2-3.7,1.1-7,2.2-9.9c1.1-2.8,3.5-8.1,5-10.3c1.5-2.2,4.7-8.4,6.6-12.8c2.6-5.7,2.7-11.4,3.4-14.4L44,221.7L44.9,224.1z"/>
			<path id="XMLID_4520_" class="st3" d="M41.3,212.2c0,0,1.6-1.1,3.2-1.8c1.6-0.6,2.7-0.5,1.3,1.1c-1.5,1.5-2,1.8-2.7,2.7
				c1.4,0.1,1.9,0,1.5,1.1l-0.7,1.8c-0.6,1.1-1.2,0-1.2,0l-0.6-1.1c-0.7,1-1.2,2.7-0.8,3.8c0.4,1,0.4-1.2,1.3,0.6
				c0.1,0.2-1.1,2-1.1,2l2.4-0.8l29.4-63.1c-1.8,2.4-6.1,6.2-8.8,11.8c-2.2,4.2-4.8,10.6-5.6,13.3c-0.7,2.6-3.2,7.8-4.7,10.5
				c-1.5,2.6-3.2,5.8-6.2,8c0,0,0.8-0.1,1.3,0c0.5,0.1,0.7,0.5,0.3,1.1c-0.7,1-2.4,2.9-3.3,3.7c-0.9,0.7-1.1,0.4-1-0.5l0.1-0.9
				C43.8,207.3,41.6,210.9,41.3,212.2z"/>
			<path id="XMLID_4519_" class="st4" d="M35.2,220.5c2.4-0.6,1.7,1.2,1.2,1.8c-2.2,0.2-2.1,2.1-1.8,2.7c0.8-1.9,5.8-2.2,6,0.8
				c0,0.1-0.1,0.3-0.2,0.4c0.9,0,1.6,0.4,2.2,1c0.1-0.2,0.2-0.3,0.2-0.4c2.4-1.8,5.4,2.2,4.5,4.1c0.6-0.1,2.1-1.3,0.9-3.1
				c0.2-0.8,1.1-2.4,2.2-0.2c1.6-2.4,3.2-8,1.1-11.9c-0.2,3.8-2.1,6.9-4.5,7.8c2.3,0.6,0.6,2.8-1.4,1.9c-0.4-0.2-0.8-1.4-0.8-1.4
				l-0.9-2.4l-2.4,0.8c0,0-1.1,0.4-1.6,0.2c-2-1-1.4-3.7,0.5-2.3c-0.9-2.4,0.3-5.9,3.1-8.4C39.3,212.9,36,217.7,35.2,220.5z"/>
			<path id="XMLID_4518_" class="st4" d="M35.1,237.8c0,0-0.1,0.6-1,0.8c0,0,0.5,0.6,0.5,1c0,0.2-1.2-0.3-2,0.8
				c-0.4,0.6-0.5,2.7-0.2,2.9c0.2-0.7,0.3-1.3,0.8-1.4c0.5-0.1,0.7,0.3,0.7,0.5c0.1,0.2-0.2,1.3-0.2,1.3s0.7-0.9,0.9-0.9
				c0.2-0.1,0.6-0.2,0.9,0.2c0.3,0.4-0.1,1-0.5,1.5c0.3,0.1,1.8-1.3,2-2c0.3-1.3-0.8-1.9-0.7-2.1c0.3-0.3,1.1-0.3,1.1-0.3
				c-0.4-0.8-0.1-1.3-0.1-1.3C36.5,238.9,35.7,238.5,35.1,237.8z"/>
			<path id="XMLID_4517_" class="st5" d="M40.5,226.3c-0.3,0.5-0.8,1.3-0.8,1.3c-1.9,2.6-4.2,8.2-4.6,10.3c0.6,0.7,1.3,1,2.2,1
				c1.3-1.7,4.2-7,4.9-10.1c0,0,0.2-0.8,0.5-1.4C42.1,226.7,41.4,226.4,40.5,226.3z"/>
		</g>
		<g id="XMLID_4510_">
			<path id="XMLID_4515_" class="st2" d="M128,224.1c0,0-0.6-2.1-0.8-2.1c-2-0.5-0.2,0.9-1.3,0.6c-1.1-0.4-2.1-1.9-2.4-3l1.2,0.3
				c0,0,1.2,0.3,0.7-0.9l-0.9-1.7c-0.6-1-0.9-0.6-1.8,0.4c-0.3-1.1-0.1-1.7-0.3-3.8c-0.2-2.1-1.1-1.4-1.6,0.3
				c-0.5,1.6-0.7,3.6-0.7,3.6c-0.8-1.1-2.1-5.1-2.4-7.3l0.6,0.6c0.6,0.6,1,0.6,1.1-0.5c0-1.1-0.4-3.7-0.7-4.9
				c-0.2-0.7-0.6-0.8-1-0.5c-0.4,0.3-0.9,1-0.9,1c0.2-3.7-1.1-7-2.2-9.9c-1.1-2.8-3.5-8.1-5-10.3c-1.5-2.2-4.7-8.4-6.6-12.8
				c-2.6-5.7-2.7-11.4-3.4-14.4l29.4,63.1L128,224.1z"/>
			<path id="XMLID_4514_" class="st3" d="M131.6,212.2c0,0-1.6-1.1-3.2-1.8c-1.6-0.6-2.7-0.5-1.3,1.1c1.5,1.5,2,1.8,2.7,2.7
				c-1.4,0.1-1.9,0-1.5,1.1l0.7,1.8c0.6,1.1,1.2,0,1.2,0l0.6-1.1c0.7,1,1.2,2.7,0.8,3.8c-0.4,1-0.4-1.2-1.3,0.6
				c-0.1,0.2,1.1,2,1.1,2l-2.4-0.8l-29.4-63.1c1.8,2.4,6.1,6.2,8.8,11.8c2.2,4.2,4.8,10.6,5.6,13.3c0.7,2.6,3.2,7.8,4.7,10.5
				c1.5,2.6,3.2,5.8,6.2,8c0,0-0.8-0.1-1.3,0c-0.5,0.1-0.7,0.5-0.3,1.1c0.7,1,2.4,2.9,3.3,3.7c0.9,0.7,1.1,0.4,1-0.5l-0.1-0.9
				C129.1,207.3,131.3,210.9,131.6,212.2z"/>
			<path id="XMLID_4513_" class="st4" d="M137.7,220.5c-2.4-0.6-1.7,1.2-1.2,1.8c2.2,0.2,2.1,2.1,1.8,2.7c-0.8-1.9-5.8-2.2-6,0.8
				c0,0.1,0.1,0.3,0.2,0.4c-0.9,0-1.6,0.4-2.2,1c-0.1-0.2-0.2-0.3-0.2-0.4c-2.4-1.8-5.4,2.2-4.5,4.1c-0.6-0.1-2.1-1.3-0.9-3.1
				c-0.2-0.8-1.1-2.4-2.2-0.2c-1.6-2.4-3.2-8-1.1-11.9c0.2,3.8,2.1,6.9,4.5,7.8c-2.3,0.6-0.6,2.8,1.4,1.9c0.4-0.2,0.8-1.4,0.8-1.4
				l0.9-2.4l2.4,0.8c0,0,1.1,0.4,1.6,0.2c2-1,1.4-3.7-0.5-2.3c0.9-2.4-0.3-5.9-3.1-8.4C133.6,212.9,136.9,217.7,137.7,220.5z"/>
			<path id="XMLID_4512_" class="st4" d="M137.8,237.8c0,0,0.1,0.6,1,0.8c0,0-0.5,0.6-0.5,1c0,0.2,1.2-0.3,2,0.8
				c0.4,0.6,0.5,2.7,0.2,2.9c-0.2-0.7-0.3-1.3-0.8-1.4c-0.5-0.1-0.7,0.3-0.7,0.5c-0.1,0.2,0.2,1.3,0.2,1.3s-0.7-0.9-0.9-0.9
				c-0.2-0.1-0.6-0.2-0.9,0.2c-0.3,0.4,0.1,1,0.5,1.5c-0.3,0.1-1.8-1.3-2-2c-0.3-1.3,0.8-1.9,0.7-2.1c-0.3-0.3-1.1-0.3-1.1-0.3
				c0.4-0.8,0.1-1.3,0.1-1.3C136.5,238.9,137.2,238.5,137.8,237.8z"/>
			<path id="XMLID_4511_" class="st5" d="M132.4,226.3c0.3,0.5,0.8,1.3,0.8,1.3c1.9,2.6,4.2,8.2,4.6,10.3c-0.6,0.7-1.3,1-2.2,1
				c-1.3-1.7-4.2-7-4.9-10.1c0,0-0.2-0.8-0.5-1.4C130.8,226.7,131.5,226.4,132.4,226.3z"/>
		</g>
		<g id="XMLID_4504_">
			<path id="XMLID_4509_" class="st2" d="M128,45.2c0,0-0.6,2.1-0.8,2.1c-2,0.5-0.2-0.9-1.3-0.6c-1.1,0.4-2.1,1.9-2.4,3l1.2-0.3
				c0,0,1.2-0.3,0.7,0.9l-0.9,1.7c-0.6,1-0.9,0.6-1.8-0.4c-0.3,1.1-0.1,1.7-0.3,3.8c-0.2,2.1-1.1,1.4-1.6-0.3
				c-0.5-1.6-0.7-3.6-0.7-3.6c-0.8,1.1-2.1,5.1-2.4,7.3l0.6-0.6c0.6-0.6,1-0.6,1.1,0.5c0,1.1-0.4,3.7-0.7,4.9
				c-0.2,0.7-0.6,0.8-1,0.5c-0.4-0.3-0.9-1-0.9-1c0.2,3.7-1.1,7-2.2,9.9c-1.1,2.8-3.5,8.1-5,10.3c-1.5,2.2-4.7,8.4-6.6,12.8
				c-2.6,5.7-2.7,11.4-3.4,14.4l29.4-63.1L128,45.2z"/>
			<path id="XMLID_4508_" class="st3" d="M131.6,57.1c0,0-1.6,1.1-3.2,1.8c-1.6,0.6-2.7,0.5-1.3-1.1c1.5-1.5,2-1.8,2.7-2.7
				c-1.4-0.1-1.9,0-1.5-1.1l0.7-1.8c0.6-1.1,1.2,0,1.2,0l0.6,1.1c0.7-1,1.2-2.7,0.8-3.8c-0.4-1-0.4,1.2-1.3-0.6
				c-0.1-0.2,1.1-2,1.1-2l-2.4,0.8l-29.4,63.1c1.8-2.4,6.1-6.2,8.8-11.8c2.2-4.2,4.8-10.6,5.6-13.3c0.7-2.6,3.2-7.8,4.7-10.5
				c1.5-2.6,3.2-5.8,6.2-8c0,0-0.8,0.1-1.3,0c-0.5-0.1-0.7-0.5-0.3-1.1c0.7-1,2.4-2.9,3.3-3.7c0.9-0.7,1.1-0.4,1,0.5l-0.1,0.9
				C129.1,62,131.3,58.4,131.6,57.1z"/>
			<path id="XMLID_4507_" class="st4" d="M137.7,48.8c-2.4,0.6-1.7-1.2-1.2-1.8c2.2-0.2,2.1-2.1,1.8-2.7c-0.8,1.9-5.8,2.2-6-0.8
				c0-0.1,0.1-0.3,0.2-0.4c-0.9,0-1.6-0.4-2.2-1c-0.1,0.2-0.2,0.3-0.2,0.4c-2.4,1.8-5.4-2.2-4.5-4.1c-0.6,0.1-2.1,1.3-0.9,3.1
				c-0.2,0.8-1.1,2.4-2.2,0.2c-1.6,2.4-3.2,8-1.1,11.9c0.2-3.8,2.1-6.9,4.5-7.8c-2.3-0.6-0.6-2.8,1.4-1.9c0.4,0.2,0.8,1.4,0.8,1.4
				l0.9,2.4l2.4-0.8c0,0,1.1-0.4,1.6-0.2c2,1,1.4,3.7-0.5,2.3c0.9,2.4-0.3,5.9-3.1,8.4C133.6,56.3,136.9,51.6,137.7,48.8z"/>
			<path id="XMLID_4506_" class="st4" d="M137.8,31.5c0,0,0.1-0.6,1-0.8c0,0-0.5-0.6-0.5-1c0-0.2,1.2,0.3,2-0.8
				c0.4-0.6,0.5-2.7,0.2-2.9c-0.2,0.7-0.3,1.3-0.8,1.4c-0.5,0.1-0.7-0.3-0.7-0.5c-0.1-0.2,0.2-1.3,0.2-1.3s-0.7,0.9-0.9,0.9
				c-0.2,0.1-0.6,0.2-0.9-0.2c-0.3-0.4,0.1-1,0.5-1.5c-0.3-0.1-1.8,1.3-2,2c-0.3,1.3,0.8,1.9,0.7,2.1c-0.3,0.3-1.1,0.3-1.1,0.3
				c0.4,0.8,0.1,1.3,0.1,1.3C136.5,30.4,137.2,30.8,137.8,31.5z"/>
			<path id="XMLID_4505_" class="st5" d="M132.4,43c0.3-0.5,0.8-1.3,0.8-1.3c1.9-2.6,4.2-8.2,4.6-10.3c-0.6-0.7-1.3-1-2.2-1
				c-1.3,1.7-4.2,7-4.9,10.1c0,0-0.2,0.8-0.5,1.4C130.8,42.6,131.5,42.9,132.4,43z"/>
		</g>
		<g id="XMLID_4498_">
			<path id="XMLID_4503_" class="st2" d="M44.9,45.2c0,0,0.6,2.1,0.8,2.1c2,0.5,0.2-0.9,1.3-0.6c1.1,0.4,2.1,1.9,2.4,3l-1.2-0.3
				c0,0-1.2-0.3-0.7,0.9l0.9,1.7c0.6,1,0.9,0.6,1.8-0.4c0.3,1.1,0.1,1.7,0.3,3.8c0.2,2.1,1.1,1.4,1.6-0.3c0.5-1.6,0.7-3.6,0.7-3.6
				c0.8,1.1,2.1,5.1,2.4,7.3l-0.6-0.6c-0.6-0.6-1-0.6-1.1,0.5c0,1.1,0.4,3.7,0.7,4.9c0.2,0.7,0.6,0.8,1,0.5c0.4-0.3,0.9-1,0.9-1
				c-0.2,3.7,1.1,7,2.2,9.9c1.1,2.8,3.5,8.1,5,10.3c1.5,2.2,4.7,8.4,6.6,12.8c2.6,5.7,2.7,11.4,3.4,14.4L44,47.6L44.9,45.2z"/>
			<path id="XMLID_4502_" class="st3" d="M41.3,57.1c0,0,1.6,1.1,3.2,1.8c1.6,0.6,2.7,0.5,1.3-1.1c-1.5-1.5-2-1.8-2.7-2.7
				c1.4-0.1,1.9,0,1.5-1.1l-0.7-1.8c-0.6-1.1-1.2,0-1.2,0l-0.6,1.1c-0.7-1-1.2-2.7-0.8-3.8c0.4-1,0.4,1.2,1.3-0.6
				c0.1-0.2-1.1-2-1.1-2l2.4,0.8l29.4,63.1c-1.8-2.4-6.1-6.2-8.8-11.8c-2.2-4.2-4.8-10.6-5.6-13.3c-0.7-2.6-3.2-7.8-4.7-10.5
				c-1.5-2.6-3.2-5.8-6.2-8c0,0,0.8,0.1,1.3,0c0.5-0.1,0.7-0.5,0.3-1.1c-0.7-1-2.4-2.9-3.3-3.7c-0.9-0.7-1.1-0.4-1,0.5l0.1,0.9
				C43.8,62,41.6,58.4,41.3,57.1z"/>
			<path id="XMLID_4501_" class="st4" d="M35.2,48.8c2.4,0.6,1.7-1.2,1.2-1.8c-2.2-0.2-2.1-2.1-1.8-2.7c0.8,1.9,5.8,2.2,6-0.8
				c0-0.1-0.1-0.3-0.2-0.4c0.9,0,1.6-0.4,2.2-1c0.1,0.2,0.2,0.3,0.2,0.4c2.4,1.8,5.4-2.2,4.5-4.1c0.6,0.1,2.1,1.3,0.9,3.1
				c0.2,0.8,1.1,2.4,2.2,0.2c1.6,2.4,3.2,8,1.1,11.9c-0.2-3.8-2.1-6.9-4.5-7.8c2.3-0.6,0.6-2.8-1.4-1.9c-0.4,0.2-0.8,1.4-0.8,1.4
				L44,47.6l-2.4-0.8c0,0-1.1-0.4-1.6-0.2c-2,1-1.4,3.7,0.5,2.3c-0.9,2.4,0.3,5.9,3.1,8.4C39.3,56.3,36,51.6,35.2,48.8z"/>
			<path id="XMLID_4500_" class="st4" d="M35.1,31.5c0,0-0.1-0.6-1-0.8c0,0,0.5-0.6,0.5-1c0-0.2-1.2,0.3-2-0.8
				c-0.4-0.6-0.5-2.7-0.2-2.9c0.2,0.7,0.3,1.3,0.8,1.4c0.5,0.1,0.7-0.3,0.7-0.5c0.1-0.2-0.2-1.3-0.2-1.3s0.7,0.9,0.9,0.9
				c0.2,0.1,0.6,0.2,0.9-0.2c0.3-0.4-0.1-1-0.5-1.5c0.3-0.1,1.8,1.3,2,2c0.3,1.3-0.8,1.9-0.7,2.1c0.3,0.3,1.1,0.3,1.1,0.3
				c-0.4,0.8-0.1,1.3-0.1,1.3C36.5,30.4,35.7,30.8,35.1,31.5z"/>
			<path id="XMLID_4499_" class="st5" d="M40.5,43c-0.3-0.5-0.8-1.3-0.8-1.3c-1.9-2.6-4.2-8.2-4.6-10.3c0.6-0.7,1.3-1,2.2-1
				c1.3,1.7,4.2,7,4.9,10.1c0,0,0.2,0.8,0.5,1.4C42.1,42.6,41.4,42.9,40.5,43z"/>
		</g>
	</g>
	<g id="XMLID_4492_">
		<path id="XMLID_4495_" class="st1" d="M35,244.6C35,244.6,34.9,244.6,35,244.6l-0.2-0.1l0.1-0.1c0.4-0.5,0.7-1,0.5-1.4
			c-0.2-0.4-0.6-0.2-0.7-0.2c-0.1,0-0.5,0.5-0.8,0.9l-0.3,0.4l0.1-0.5c0.1-0.5,0.2-1.1,0.2-1.2c0-0.1-0.2-0.4-0.5-0.4
			c0,0-0.1,0-0.1,0c-0.4,0-0.6,0.6-0.7,1.3l0,0.1l-0.1,0c-0.1,0-0.1-0.1-0.2-0.3c-0.2-0.6,0-2.2,0.4-2.8c0.6-0.8,1.5-0.8,1.9-0.8
			c0,0,0.1,0,0.1,0c0-0.3-0.3-0.7-0.5-0.8l-0.2-0.2l0.2,0c0.8-0.2,0.9-0.7,0.9-0.7c0.4-2.1,2.7-7.7,4.6-10.3c0,0,0.5-0.7,0.8-1.2
			c0.1-0.2,0.1-0.3,0.1-0.4c-0.1-1.6-1.5-2-2.1-2.1c-1.5-0.3-3.2,0.3-3.6,1.3l-0.1,0.2l-0.1-0.2c-0.2-0.3-0.3-1.1,0-1.8
			c0.2-0.4,0.7-1,1.8-1.1c0.3-0.4,0.6-1.1,0.3-1.5c-0.2-0.3-0.7-0.3-1.5-0.1l-0.2,0.1l0.1-0.2c0.9-2.9,4.2-7.7,8.5-8.6l0.4-0.1
			l-0.3,0.3c-2.7,2.5-3.9,5.9-3.1,8.3l0.1,0.4l-0.3-0.2c-0.5-0.3-0.9-0.4-1.2-0.3c-0.2,0.1-0.4,0.4-0.4,0.8c0,0.5,0.3,1.2,1.2,1.6
			c0.3,0.1,1.1-0.1,1.4-0.2c0.5-0.8,1-1.7,1-1.9c-0.3-0.6-0.5-0.6-0.5-0.6c0,0,0,0,0,0c-0.1,0-0.1,0.1-0.2,0.2
			c-0.1,0.1-0.1,0.2-0.3,0.2c0,0,0,0,0,0c-0.1,0-0.2-0.2-0.3-0.4c-0.4-1.1,0.1-2.9,0.8-3.9l0.1-0.2l0.7,1.3c0.1,0.1,0.3,0.4,0.5,0.4
			c0,0,0,0,0,0c0.2,0,0.4-0.2,0.5-0.4l0.7-1.8c0.1-0.4,0.1-0.6,0.1-0.7c-0.1-0.2-0.6-0.2-1.2-0.2l-0.4,0l0.1-0.2
			c0.4-0.5,0.7-0.8,1.2-1.2c0.4-0.3,0.9-0.8,1.5-1.5c0.7-0.8,0.7-1,0.6-1.1c-0.1-0.2-0.8-0.2-1.7,0.2c-1.6,0.6-3.2,1.7-3.2,1.8
			l-0.3,0.2l0.1-0.3c0.3-1.3,2.5-5,4.1-6.6l0.2-0.2l-0.1,1.2c0,0.6,0,0.7,0.1,0.7c0.1,0,0.2,0.1,0.7-0.3c0.9-0.7,2.6-2.7,3.3-3.6
			c0.2-0.3,0.3-0.5,0.2-0.6c-0.1-0.2-0.3-0.3-0.4-0.3c-0.5-0.1-1.3,0-1.3,0l-0.4,0l0.4-0.3c2.9-2.2,4.6-5.2,6-7.8l0.1-0.1
			c1.5-2.6,4-7.8,4.7-10.4c0.7-2.7,3.4-9.1,5.6-13.3c2-4.1,4.8-7.3,6.9-9.6c0.8-0.9,1.5-1.6,2-2.3l0.3-0.5l-0.1,0.6
			c-0.2,0.8-0.3,1.8-0.5,3c-0.4,3.1-1,7.2-2.9,11.4c-1.8,4.3-5,10.5-6.6,12.8c-1.5,2.2-3.9,7.5-5,10.3l-0.1,0.2
			c-1.1,2.8-2.3,6-2.1,9.7l0,0.5l-0.3-0.4c0,0-0.4-0.6-0.8-0.9c-0.1-0.1-0.3-0.2-0.5-0.1c-0.2,0.1-0.3,0.3-0.4,0.6
			c-0.3,1.2-0.7,3.7-0.7,4.9c0,0.6,0.2,0.8,0.2,0.8c0.1,0,0.2,0,0.6-0.4l0.9-0.9l0,0.3c-0.2,2.3-1.6,6.3-2.4,7.4l-0.2,0.3l0-0.3
			c0,0-0.2-2-0.7-3.6c-0.3-1-0.7-1.5-0.9-1.5c-0.1,0-0.3,0.1-0.4,1.2c-0.1,1-0.1,1.6-0.2,2.1c0,0.6,0,1.1-0.2,1.7l-0.1,0.2l-0.3-0.3
			c-0.4-0.5-0.7-0.8-1-0.8c0,0,0,0,0,0c-0.1,0-0.3,0.2-0.5,0.5l-0.9,1.7c-0.1,0.2-0.1,0.5,0,0.6c0.1,0.2,0.5,0.1,0.6,0.1l1.4-0.3
			l-0.1,0.2c-0.3,1.2-1.4,2.7-2.5,3.1c-0.2,0.1-0.4,0.1-0.5,0c-0.1-0.1-0.1-0.2,0-0.4c0-0.1,0.1-0.2,0-0.3c0,0-0.2-0.1-0.8,0
			c-0.1,0.1-0.5,1.1-0.7,2c0.1,0.3,0.5,1.1,0.8,1.2c0.9,0.4,1.6,0.2,2-0.1c0.3-0.2,0.4-0.5,0.4-0.8c-0.1-0.3-0.4-0.6-1-0.8l-0.4-0.1
			l0.4-0.1c2.4-0.9,4.2-4.1,4.4-7.7l0-0.4l0.2,0.4c2.1,3.9,0.6,9.5-1.1,12l-0.1,0.2l-0.1-0.2c-0.3-0.7-0.7-1-1-1c0,0,0,0,0,0
			c-0.4,0-0.8,0.7-0.9,1.2c0.6,0.9,0.5,1.6,0.3,2.1c-0.3,0.7-1,1.1-1.3,1.2l-0.2,0l0.1-0.2c0.5-0.9-0.1-2.6-1.3-3.6
			c-0.5-0.4-1.7-1.2-3-0.3c0,0-0.1,0.1-0.2,0.4c-0.2,0.5-0.5,1.4-0.5,1.4c-0.8,3.1-3.6,8.5-4.9,10.2c0,0-0.3,0.4,0.1,1.1l0.1,0.2
			l-0.2,0c-0.2,0-0.7,0-0.9,0.2c0,0,0.1,0.1,0.1,0.1c0.3,0.3,0.8,0.9,0.6,2c-0.2,0.7-1.4,1.8-1.9,2.1
			C35.1,244.6,35.1,244.6,35,244.6z M35,242.6c0.2,0,0.5,0.1,0.6,0.4c0.3,0.4,0,0.9-0.3,1.3c0.5-0.3,1.4-1.3,1.6-1.8
			c0.2-0.9-0.3-1.4-0.5-1.7c-0.1-0.1-0.2-0.3-0.1-0.4c0.2-0.3,0.7-0.3,1-0.3c-0.3-0.7,0-1.2,0-1.2c1.4-1.7,4.1-7,4.9-10.1
			c0,0,0.2-0.9,0.5-1.4c0.1-0.2,0.2-0.4,0.3-0.5c1-0.8,2.2-0.7,3.3,0.3c1.1,0.9,1.9,2.5,1.5,3.7c0.3-0.1,0.7-0.5,0.9-0.9
			c0.2-0.6,0.1-1.2-0.3-1.9l0,0l0-0.1c0.1-0.5,0.5-1.4,1.2-1.4c0.4,0,0.8,0.3,1.2,1c1.5-2.5,2.9-7.5,1.2-11.2
			c-0.3,3.4-2,6.3-4.2,7.3c0.6,0.3,0.8,0.6,0.9,0.9c0.1,0.4-0.1,0.7-0.4,1c-0.5,0.4-1.3,0.6-2.2,0.1c-0.5-0.2-0.9-1.3-0.9-1.4l0,0
			l0,0c0.7-2.1,0.9-2.2,0.9-2.2c0.6-0.1,0.9-0.1,1.1,0c0.1,0.1,0.1,0.4,0,0.5c0,0,0,0.1,0,0.1c0,0,0.1,0,0.2,0
			c0.9-0.3,1.9-1.6,2.3-2.7l-1,0.2c0,0-0.6,0.1-0.8-0.2c-0.2-0.2-0.2-0.5,0-0.9l1-1.8c0.3-0.4,0.5-0.6,0.7-0.6c0,0,0,0,0,0
			c0.3,0,0.6,0.3,1.1,0.9c0.1-0.5,0.1-0.9,0.1-1.4c0-0.5,0-1.2,0.2-2.2c0.1-0.9,0.3-1.4,0.7-1.4c0,0,0,0,0,0c0.6,0,1,1.1,1.2,1.7
			c0.4,1.2,0.6,2.6,0.7,3.3c0.7-1.3,1.8-4.5,2.1-6.6l-0.4,0.4c-0.4,0.4-0.7,0.5-0.9,0.4c-0.2-0.1-0.4-0.4-0.4-1
			c0-1.2,0.4-3.8,0.7-4.9c0.1-0.5,0.3-0.7,0.5-0.7c0.2-0.1,0.5,0,0.7,0.2c0.2,0.2,0.5,0.5,0.7,0.7c-0.1-3.5,1.1-6.6,2.1-9.4l0.1-0.2
			c1.1-2.8,3.5-8.1,5-10.4c1.6-2.3,4.8-8.5,6.6-12.8c1.9-4.1,2.5-8.3,2.9-11.3c0.1-0.9,0.2-1.8,0.4-2.5c-0.5,0.6-1,1.2-1.7,1.9
			c-2.1,2.3-4.9,5.4-6.8,9.5c-2.1,4.1-4.8,10.6-5.6,13.2l0,0c-0.7,2.6-3.2,7.9-4.7,10.5l-0.1,0.1c-1.4,2.6-3,5.5-5.8,7.7
			c0.3,0,0.6,0,0.9,0.1c0.3,0.1,0.5,0.2,0.6,0.4c0.1,0.2,0.1,0.5-0.2,0.9c-0.7,1-2.4,2.9-3.4,3.7c-0.5,0.4-0.8,0.5-1,0.4
			c-0.2-0.1-0.3-0.4-0.2-1l0-0.5c-1.4,1.6-3.2,4.5-3.7,5.9c0.5-0.4,1.8-1.1,2.9-1.6c0.4-0.2,1.7-0.6,2-0.1c0.2,0.3,0,0.7-0.6,1.4
			c-0.7,0.7-1.2,1.1-1.6,1.5c-0.4,0.4-0.7,0.6-1,1c0.8,0,1.2,0.1,1.4,0.3c0.1,0.2,0.1,0.5,0,1l-0.7,1.9c-0.2,0.4-0.5,0.6-0.7,0.6
			c-0.4,0-0.7-0.5-0.7-0.5l-0.5-0.9c-0.6,1-1,2.6-0.6,3.5c0,0.1,0.1,0.2,0.1,0.2c0,0,0-0.1,0.1-0.1c0.1-0.1,0.2-0.3,0.4-0.3
			c0,0,0,0,0,0c0.2,0,0.4,0.3,0.7,0.8c0,0.1,0.1,0.3-1.1,2.1l0,0l0,0c-0.1,0-1.2,0.4-1.7,0.2c-1-0.5-1.3-1.2-1.3-1.8
			c0-0.5,0.2-0.8,0.5-1c0.2-0.1,0.6-0.2,1.2,0.1c-0.6-2.4,0.5-5.5,2.9-7.9c-3.9,1.1-6.9,5.3-7.8,8.1c0.8-0.2,1.3-0.1,1.5,0.3
			c0.4,0.5,0,1.4-0.3,1.8l0,0l-0.1,0c-0.8,0.1-1.4,0.4-1.7,0.9c-0.2,0.5-0.2,1-0.1,1.3c0.7-1,2.4-1.5,3.8-1.2
			c1.4,0.2,2.2,1.1,2.3,2.3c0,0.1-0.1,0.3-0.2,0.5c-0.3,0.5-0.8,1.2-0.8,1.3c-1.9,2.6-4.2,8.1-4.6,10.2c0,0-0.2,0.6-0.9,0.8
			c0.2,0.2,0.4,0.6,0.4,0.9c0,0.2-0.2,0.2-0.4,0.2c-0.4,0-1.1,0-1.7,0.7c-0.3,0.5-0.4,1.8-0.4,2.4c0.2-0.5,0.4-1,0.8-1.1
			c0.5-0.1,0.8,0.3,0.9,0.6c0,0.1,0,0.5-0.1,0.9c0.2-0.3,0.5-0.6,0.6-0.6C34.7,242.6,34.8,242.6,35,242.6z"/>
		<path id="XMLID_4494_" class="st1" d="M137.9,244.6c-0.1,0-0.1,0-0.2-0.1c-0.5-0.2-1.7-1.4-1.9-2.1c-0.3-1,0.3-1.7,0.6-2
			c0,0,0.1-0.1,0.1-0.1c-0.2-0.2-0.7-0.2-0.9-0.2l-0.2,0l0.1-0.2c0.4-0.7,0.1-1.1,0.1-1.2c-1.4-1.7-4.2-7-4.9-10.2
			c0,0-0.2-0.8-0.5-1.4c-0.1-0.2-0.2-0.3-0.2-0.4c-1.2-0.9-2.5-0.1-3,0.3c-1.2,1-1.8,2.7-1.3,3.6l0.1,0.2l-0.2,0
			c-0.4-0.1-1-0.5-1.3-1.2c-0.2-0.4-0.3-1.2,0.3-2.1c-0.1-0.5-0.5-1.1-0.9-1.2c-0.3,0-0.7,0.3-1,1l-0.1,0.2l-0.1-0.2
			c-1.7-2.5-3.2-8.1-1.1-12l0.2-0.4l0,0.4c0.2,3.6,2,6.8,4.4,7.7l0.4,0.1l-0.4,0.1c-0.6,0.2-0.9,0.4-1,0.8c-0.1,0.3,0.1,0.6,0.4,0.8
			c0.4,0.3,1.1,0.5,2,0.1c0.3-0.2,0.6-0.9,0.8-1.2c-0.3-0.9-0.6-1.9-0.8-2c-0.6-0.1-0.8-0.1-0.8,0c0,0,0,0.2,0,0.3
			c0,0.1,0.1,0.3,0,0.4c-0.1,0.1-0.3,0.1-0.5,0c-1.1-0.4-2.2-1.9-2.5-3.1l-0.1-0.2l1.4,0.3c0.1,0,0.5,0.1,0.6-0.1
			c0.1-0.1,0.1-0.4,0-0.6l-0.9-1.7c-0.2-0.3-0.4-0.5-0.5-0.5c-0.2,0-0.5,0.3-1,0.8l-0.3,0.3l-0.1-0.2c-0.2-0.6-0.2-1.1-0.2-1.7
			c0-0.5,0-1.2-0.2-2.1c-0.1-1.1-0.4-1.2-0.4-1.2c-0.2,0-0.6,0.5-0.9,1.5c-0.5,1.6-0.7,3.5-0.7,3.6l0,0.3l-0.2-0.3
			c-0.8-1.1-2.2-5.1-2.4-7.4l0-0.3l0.9,0.9c0.4,0.4,0.6,0.4,0.6,0.4c0.1,0,0.2-0.1,0.2-0.8c0-1.2-0.4-3.7-0.7-4.9
			c-0.1-0.3-0.2-0.5-0.4-0.6c-0.2-0.1-0.4,0-0.5,0.1c-0.4,0.3-0.8,0.9-0.8,0.9l-0.3,0.4l0-0.5c0.2-3.6-1-6.8-2.1-9.7l-0.1-0.2
			c-1.1-2.8-3.5-8.1-5-10.3c-1.6-2.3-4.8-8.5-6.6-12.8c-1.9-4.2-2.5-8.3-2.9-11.4c-0.2-1.2-0.3-2.2-0.5-3l-0.1-0.6l0.3,0.5
			c0.5,0.7,1.2,1.4,2,2.3c2.1,2.3,4.9,5.4,6.9,9.6c2.1,4.2,4.8,10.6,5.6,13.3c0.7,2.6,3.2,7.8,4.7,10.4l0.1,0.1
			c1.5,2.6,3.1,5.6,6,7.8l0.4,0.3l-0.4,0c0,0-0.8-0.1-1.3,0c-0.2,0-0.3,0.1-0.4,0.3c-0.1,0.2,0,0.4,0.2,0.6c0.7,0.9,2.4,2.9,3.3,3.6
			c0.5,0.4,0.7,0.4,0.7,0.3c0.1,0,0.2-0.2,0.1-0.7l-0.1-1.2l0.2,0.2c1.6,1.6,3.8,5.3,4.1,6.6l0.1,0.3l-0.3-0.2c0,0-1.6-1.1-3.2-1.8
			c-1-0.4-1.6-0.4-1.7-0.2c0,0.1-0.1,0.3,0.6,1.1c0.7,0.7,1.1,1.1,1.5,1.5c0.5,0.4,0.8,0.7,1.2,1.2l0.1,0.2l-0.4,0
			c-0.7,0-1.1,0-1.2,0.2c-0.1,0.1-0.1,0.4,0.1,0.7l0.7,1.8c0.1,0.2,0.3,0.4,0.5,0.4c0,0,0,0,0,0c0.2,0,0.4-0.3,0.5-0.4l0.7-1.3
			l0.1,0.2c0.7,1,1.2,2.8,0.8,3.9c-0.1,0.2-0.2,0.3-0.3,0.4c-0.1,0-0.2-0.1-0.3-0.2c-0.1-0.1-0.1-0.2-0.2-0.2c0,0,0,0,0,0
			c0,0-0.2,0.1-0.5,0.7c0,0.1,0.5,1,1.1,1.8c0.3,0.1,1.1,0.3,1.4,0.2c0.8-0.4,1.2-1.1,1.2-1.6c0-0.4-0.1-0.6-0.4-0.8
			c-0.3-0.2-0.7-0.1-1.2,0.3l-0.3,0.2l0.1-0.4c0.8-2.4-0.4-5.8-3.1-8.3l-0.3-0.3l0.4,0.1c4.3,0.9,7.6,5.7,8.5,8.6l0.1,0.2l-0.2-0.1
			c-0.8-0.2-1.3-0.1-1.5,0.1c-0.2,0.4,0,1.1,0.3,1.5c1.1,0.1,1.6,0.6,1.8,1.1c0.3,0.7,0.2,1.5,0,1.8l-0.1,0.2l-0.1-0.2
			c-0.4-1-2.1-1.6-3.6-1.3c-0.6,0.1-2,0.5-2.1,2.1c0,0,0,0.2,0.1,0.4c0.3,0.5,0.8,1.2,0.8,1.2c1.9,2.6,4.2,8.2,4.6,10.3
			c0,0,0.1,0.5,0.9,0.7l0.2,0l-0.2,0.2c-0.1,0.1-0.4,0.5-0.5,0.8c0,0,0.1,0,0.1,0c0.4,0,1.3,0,1.9,0.8c0.4,0.6,0.5,2.2,0.4,2.8
			c0,0.1-0.1,0.2-0.2,0.3l-0.1,0.1l0-0.1c-0.2-0.6-0.3-1.2-0.7-1.3c0,0-0.1,0-0.1,0c-0.4,0-0.5,0.3-0.5,0.4c0,0.1,0.1,0.7,0.2,1.2
			l0.1,0.5l-0.3-0.4c-0.3-0.4-0.7-0.9-0.8-0.9c-0.1-0.1-0.5-0.2-0.7,0.2c-0.2,0.3,0.1,0.8,0.5,1.4l0.1,0.1L137.9,244.6
			C138,244.6,137.9,244.6,137.9,244.6z M135.7,240c0.3,0,0.7,0.1,1,0.3c0.1,0.1,0,0.2-0.1,0.4c-0.3,0.3-0.7,0.8-0.5,1.7
			c0.2,0.5,1.1,1.5,1.6,1.8c-0.3-0.5-0.5-0.9-0.3-1.3c0.3-0.4,0.7-0.4,1-0.3c0.1,0.1,0.4,0.4,0.6,0.6c-0.1-0.3-0.1-0.7-0.1-0.9
			c0.1-0.3,0.4-0.7,0.9-0.6c0.5,0.1,0.7,0.5,0.8,1.1c0.1-0.6,0-1.9-0.4-2.4c-0.5-0.7-1.3-0.7-1.7-0.7c-0.2,0-0.4,0-0.4-0.2v0
			c0-0.3,0.2-0.7,0.4-0.9c-0.8-0.3-0.9-0.8-0.9-0.8c-0.4-2.1-2.7-7.6-4.6-10.2c0,0-0.5-0.7-0.8-1.3c-0.1-0.2-0.2-0.4-0.2-0.5
			c0.1-1.3,0.9-2.1,2.3-2.4c1.4-0.2,3.1,0.2,3.8,1.2c0.1-0.3,0.1-0.8-0.1-1.3c-0.3-0.6-0.9-0.9-1.7-0.9l-0.1,0l0,0
			c-0.3-0.4-0.7-1.3-0.3-1.8c0.2-0.3,0.7-0.4,1.5-0.3c-0.9-2.8-3.9-7-7.8-8.1c2.4,2.4,3.5,5.6,2.9,7.9c0.6-0.3,1-0.2,1.2-0.1
			c0.3,0.2,0.5,0.5,0.5,1c0,0.6-0.4,1.4-1.3,1.8c-0.5,0.2-1.6-0.2-1.7-0.2l0,0l0,0c-1.2-1.9-1.1-2.1-1.1-2.1
			c0.3-0.6,0.5-0.8,0.7-0.8c0,0,0,0,0,0c0.2,0,0.3,0.2,0.4,0.3c0,0,0,0.1,0.1,0.1c0,0,0-0.1,0.1-0.2c0.4-0.9,0-2.5-0.6-3.5l-0.5,0.9
			c0,0-0.3,0.5-0.7,0.5c0,0,0,0,0,0c-0.3,0-0.5-0.2-0.7-0.6l-0.7-1.9c-0.2-0.5-0.2-0.8,0-1c0.2-0.3,0.7-0.3,1.4-0.3
			c-0.3-0.4-0.6-0.7-1-1c-0.4-0.4-0.9-0.8-1.6-1.5c-0.6-0.7-0.8-1.1-0.6-1.4c0.3-0.5,1.5-0.1,2,0.1c1.2,0.5,2.4,1.2,2.9,1.6
			c-0.5-1.4-2.3-4.3-3.7-5.9l0,0.5c0,0.5,0,0.9-0.2,1c-0.2,0.1-0.5,0-1-0.4c-0.9-0.7-2.6-2.7-3.4-3.7c-0.3-0.4-0.3-0.7-0.2-0.9
			c0.1-0.2,0.3-0.4,0.6-0.4c0.3-0.1,0.7-0.1,0.9-0.1c-2.7-2.2-4.4-5.1-5.8-7.7l-0.1-0.1c-1.5-2.6-4-7.9-4.7-10.5
			c-0.7-2.7-3.4-9.1-5.6-13.2c-2-4.1-4.8-7.2-6.8-9.5c-0.6-0.7-1.2-1.3-1.7-1.9c0.1,0.7,0.3,1.5,0.4,2.5c0.4,3,1,7.2,2.9,11.3
			c1.8,4.3,5,10.5,6.6,12.8c1.5,2.2,3.9,7.5,5,10.4l0.1,0.2c1,2.7,2.2,5.8,2.1,9.4c0.2-0.2,0.4-0.5,0.7-0.7c0.2-0.2,0.5-0.2,0.7-0.2
			c0.2,0.1,0.4,0.2,0.5,0.7c0.3,1.2,0.7,3.8,0.7,4.9c0,0.6-0.1,0.9-0.4,1c-0.2,0.1-0.5,0-0.9-0.4l-0.4-0.4c0.3,2.1,1.4,5.3,2.1,6.6
			c0.1-0.6,0.3-2.1,0.7-3.3c0.2-0.5,0.6-1.7,1.2-1.7c0,0,0,0,0,0c0.3,0,0.6,0.5,0.7,1.4c0.1,1,0.1,1.6,0.2,2.2c0,0.5,0,0.9,0.1,1.4
			c0.5-0.5,0.8-0.9,1.1-0.9c0,0,0,0,0,0c0.2,0,0.4,0.2,0.7,0.6l0.9,1.7c0.2,0.4,0.2,0.7,0,0.9c-0.3,0.3-0.8,0.2-0.8,0.2l-1-0.2
			c0.4,1.1,1.3,2.4,2.3,2.7c0.1,0,0.2,0,0.2,0c0,0,0-0.1,0-0.1c0-0.2-0.1-0.4,0-0.5c0.2-0.2,0.5-0.2,1.1,0c0.1,0,0.3,0.1,0.9,2.2
			l0,0l0,0c0,0.1-0.4,1.2-0.9,1.4c-1,0.4-1.8,0.2-2.2-0.1c-0.4-0.3-0.5-0.7-0.4-1c0-0.2,0.2-0.6,0.9-0.9c-2.2-1-3.9-3.9-4.2-7.3
			c-1.7,3.7-0.4,8.7,1.2,11.2c0.4-0.7,0.8-1,1.2-1c0.6,0.1,1,0.9,1.2,1.4l0,0.1l0,0c-0.5,0.7-0.6,1.3-0.3,1.9
			c0.2,0.5,0.6,0.8,0.9,0.9c-0.4-1.2,0.4-2.8,1.5-3.7c1.1-0.9,2.3-1,3.3-0.3c0.1,0.1,0.2,0.2,0.3,0.5c0.2,0.6,0.5,1.4,0.5,1.4
			c0.8,3.1,3.5,8.4,4.9,10.1C135.7,238.8,136,239.3,135.7,240z"/>
		<path id="XMLID_4493_" class="st1" d="M99.3,111.2l0.1-0.6c0.2-0.8,0.3-1.8,0.5-3c0.4-3.1,1-7.2,2.9-11.4c1.8-4.3,5-10.5,6.6-12.8
			c1.5-2.2,3.9-7.5,5-10.3l0.1-0.2c1.1-2.8,2.3-6,2.1-9.7l0-0.5l0.3,0.4c0,0,0.4,0.6,0.8,0.9c0.1,0.1,0.3,0.2,0.5,0.1
			c0.2-0.1,0.3-0.3,0.4-0.6c0.3-1.2,0.7-3.7,0.7-4.9c0-0.6-0.2-0.8-0.2-0.8c-0.1,0-0.2,0-0.6,0.4l-0.9,0.9l0-0.3
			c0.2-2.3,1.6-6.3,2.4-7.4l0.2-0.3l0,0.3c0,0,0.2,2,0.7,3.6c0.3,1,0.7,1.5,0.9,1.5c0.1,0,0.3-0.1,0.4-1.2c0.1-1,0.1-1.6,0.2-2.1
			c0-0.6,0-1.1,0.2-1.7l0.1-0.2l0.3,0.3c0.5,0.5,0.8,0.8,1,0.8c0.1,0,0.3-0.2,0.5-0.5l0.9-1.7c0.1-0.2,0.1-0.5,0-0.6
			c-0.1-0.2-0.5-0.1-0.6-0.1l-1.4,0.3l0.1-0.2c0.3-1.2,1.4-2.7,2.5-3.1c0.2-0.1,0.4-0.1,0.5,0c0.1,0.1,0.1,0.2,0,0.4
			c0,0.1-0.1,0.2,0,0.3c0,0,0.2,0.1,0.8,0c0.1-0.1,0.5-1.1,0.7-2c-0.1-0.3-0.5-1.1-0.8-1.2c-0.9-0.4-1.6-0.2-2,0.1
			c-0.3,0.2-0.4,0.5-0.4,0.8c0.1,0.3,0.4,0.6,1,0.8l0.4,0.1l-0.4,0.1c-2.4,0.9-4.2,4.1-4.4,7.7l0,0.4l-0.2-0.4
			c-2.1-3.9-0.6-9.5,1.1-12l0.1-0.2l0.1,0.2c0.4,0.7,0.7,1.1,1,1c0.4,0,0.8-0.7,0.9-1.2c-0.6-0.9-0.5-1.6-0.3-2.1
			c0.3-0.7,1-1.1,1.3-1.2l0.2,0l-0.1,0.2c-0.5,0.9,0.1,2.6,1.3,3.6c0.5,0.4,1.7,1.2,3,0.3c0,0,0.1-0.1,0.2-0.4
			c0.2-0.5,0.5-1.4,0.5-1.4c0.8-3.1,3.6-8.5,4.9-10.2c0,0,0.3-0.4-0.1-1.1l-0.1-0.2l0.2,0c0.2,0,0.7,0,0.9-0.2c0,0-0.1-0.1-0.1-0.1
			c-0.3-0.3-0.8-0.9-0.6-2c0.2-0.7,1.4-1.8,1.9-2.1c0.1-0.1,0.2-0.1,0.3,0l0.1,0.1l-0.1,0.1c-0.4,0.5-0.7,1-0.5,1.4
			c0.2,0.4,0.6,0.2,0.7,0.2c0.1,0,0.5-0.5,0.8-0.9l0.3-0.4l-0.1,0.5c-0.1,0.5-0.2,1.1-0.2,1.2c0,0.1,0.2,0.5,0.6,0.4
			c0.4,0,0.6-0.6,0.7-1.3l0-0.1l0.1,0c0.1,0,0.1,0.1,0.2,0.3c0.2,0.6,0,2.2-0.4,2.8c-0.6,0.8-1.5,0.8-1.9,0.8c0,0-0.1,0-0.1,0
			c0,0.3,0.3,0.7,0.5,0.8l0.2,0.2l-0.2,0c-0.8,0.2-0.9,0.7-0.9,0.7c-0.4,2.1-2.7,7.7-4.6,10.3c0,0-0.5,0.7-0.8,1.2
			c-0.1,0.2-0.1,0.3-0.1,0.4c0.1,1.6,1.5,2,2.1,2.1c1.5,0.3,3.2-0.3,3.6-1.3l0.1-0.2l0.1,0.2c0.2,0.3,0.3,1.1,0,1.8
			c-0.2,0.4-0.7,1-1.8,1.1c-0.3,0.4-0.6,1.1-0.3,1.5c0.2,0.3,0.7,0.3,1.5,0.1l0.2-0.1l-0.1,0.2c-0.9,2.9-4.2,7.7-8.5,8.6l-0.4,0.1
			l0.3-0.3c2.7-2.5,3.9-5.9,3.1-8.3l-0.1-0.4l0.3,0.2c0.5,0.3,0.9,0.4,1.2,0.3c0.2-0.1,0.4-0.4,0.4-0.8c0-0.5-0.3-1.2-1.2-1.6
			c-0.3-0.1-1.1,0.1-1.4,0.2c-0.5,0.8-1,1.7-1,1.9c0.3,0.6,0.5,0.6,0.5,0.6c0,0,0,0,0,0c0.1,0,0.1-0.1,0.2-0.2
			c0.1-0.1,0.2-0.2,0.3-0.2c0.1,0,0.2,0.2,0.3,0.4c0.4,1.1-0.1,2.9-0.8,3.9l-0.1,0.2l-0.7-1.3c-0.1-0.1-0.3-0.4-0.5-0.4c0,0,0,0,0,0
			c-0.2,0-0.4,0.2-0.5,0.4l-0.7,1.8c-0.1,0.4-0.1,0.6-0.1,0.7c0.1,0.2,0.6,0.2,1.2,0.2l0.4,0l-0.1,0.2c-0.4,0.5-0.7,0.8-1.2,1.2
			c-0.4,0.3-0.9,0.8-1.5,1.5c-0.7,0.8-0.7,1-0.6,1.1c0.1,0.2,0.8,0.2,1.7-0.2c1.6-0.6,3.2-1.7,3.2-1.8l0.3-0.2l-0.1,0.3
			c-0.3,1.3-2.5,5-4.1,6.6l-0.2,0.2l0.1-1.2c0-0.6,0-0.7-0.1-0.7c-0.1,0-0.2-0.1-0.7,0.3c-0.9,0.7-2.6,2.7-3.3,3.6
			c-0.2,0.3-0.3,0.5-0.2,0.6c0.1,0.2,0.3,0.3,0.4,0.3c0.5,0.1,1.3,0,1.3,0l0.4,0l-0.4,0.3c-2.9,2.2-4.6,5.2-6,7.8l-0.1,0.1
			c-1.5,2.6-4,7.9-4.7,10.4l0,0c-0.7,2.7-3.4,9.1-5.6,13.3c-2,4.1-4.8,7.3-6.9,9.6c-0.8,0.9-1.5,1.6-2,2.3L99.3,111.2z M116.8,63.7
			c0.1,3.5-1.1,6.6-2.1,9.4l-0.1,0.2c-1.1,2.8-3.5,8.1-5,10.4c-1.6,2.3-4.8,8.5-6.6,12.8c-1.9,4.1-2.5,8.3-2.9,11.3
			c-0.1,0.9-0.2,1.8-0.4,2.5c0.5-0.6,1-1.2,1.7-1.9c2.1-2.3,4.9-5.4,6.8-9.5c2.1-4.1,4.8-10.6,5.6-13.2c0.7-2.6,3.2-7.9,4.7-10.5
			l0.1-0.1c1.4-2.6,3-5.5,5.8-7.7c-0.3,0-0.6,0-0.9-0.1c-0.3-0.1-0.5-0.2-0.6-0.4c-0.1-0.2-0.1-0.5,0.2-0.9c0.7-1,2.4-2.9,3.4-3.7
			c0.5-0.4,0.8-0.5,1-0.4c0.2,0.1,0.3,0.4,0.2,1l0,0.5c1.4-1.6,3.2-4.5,3.7-5.9c-0.5,0.4-1.8,1.1-2.9,1.6c-0.5,0.2-1.7,0.6-2,0.1
			c-0.2-0.3,0-0.7,0.6-1.4c0.7-0.7,1.2-1.1,1.6-1.5c0.4-0.4,0.7-0.6,1-1c-0.8,0-1.2-0.1-1.4-0.3c-0.1-0.2-0.1-0.5,0-1l0.7-1.8
			c0.2-0.4,0.4-0.6,0.7-0.6c0,0,0,0,0,0c0.4,0,0.7,0.5,0.7,0.5l0.5,0.9c0.6-1,1-2.6,0.6-3.5c0-0.1-0.1-0.2-0.1-0.2
			c0,0,0,0.1-0.1,0.1c-0.1,0.1-0.2,0.3-0.4,0.3c0,0,0,0,0,0c-0.2,0-0.4-0.3-0.7-0.8c0-0.1-0.1-0.3,1.1-2.1l0,0l0,0
			c0.1,0,1.2-0.4,1.7-0.2c1,0.5,1.3,1.2,1.3,1.8c0,0.5-0.2,0.8-0.5,1c-0.2,0.1-0.6,0.2-1.2-0.1c0.6,2.4-0.5,5.5-2.9,7.9
			c3.9-1.1,6.9-5.3,7.8-8.1c-0.8,0.2-1.3,0.1-1.5-0.3c-0.4-0.5,0-1.4,0.3-1.8l0,0l0.1,0c0.8-0.1,1.4-0.4,1.7-0.9
			c0.2-0.5,0.2-1,0.1-1.3c-0.7,1-2.4,1.5-3.8,1.2c-1.4-0.2-2.2-1.1-2.3-2.3c0-0.1,0.1-0.3,0.2-0.5c0.3-0.5,0.8-1.2,0.8-1.3
			c1.9-2.6,4.2-8.1,4.6-10.2c0,0,0.2-0.6,0.9-0.8c-0.2-0.2-0.4-0.6-0.4-0.9c0-0.2,0.2-0.2,0.4-0.2c0.4,0,1.1,0,1.7-0.7
			c0.3-0.5,0.4-1.8,0.4-2.4c-0.2,0.5-0.4,1-0.8,1.1c-0.5,0.1-0.8-0.3-0.9-0.6c0-0.1,0-0.5,0.1-0.9c-0.2,0.3-0.5,0.6-0.6,0.6
			c-0.3,0.1-0.7,0.2-1-0.3c-0.3-0.4,0-0.9,0.3-1.3c-0.5,0.3-1.4,1.3-1.6,1.8c-0.2,0.9,0.3,1.4,0.5,1.7c0.1,0.1,0.2,0.3,0.1,0.4
			c-0.2,0.3-0.7,0.3-1,0.3c0.3,0.7,0,1.2,0,1.2c-1.4,1.7-4.1,7-4.9,10.1c0,0-0.2,0.9-0.5,1.4c-0.1,0.2-0.2,0.4-0.3,0.5
			c-1,0.8-2.2,0.7-3.3-0.3c-1.1-0.9-1.9-2.5-1.5-3.7c-0.3,0.1-0.7,0.5-0.9,0.9c-0.2,0.6-0.1,1.2,0.3,1.9l0,0l0,0.1
			c-0.1,0.5-0.5,1.4-1.2,1.4c-0.4,0-0.8-0.3-1.2-1c-1.5,2.5-2.9,7.5-1.2,11.2c0.3-3.4,2-6.3,4.2-7.3c-0.6-0.3-0.8-0.6-0.9-0.9
			c-0.1-0.4,0.1-0.7,0.4-1c0.5-0.4,1.3-0.6,2.2-0.1c0.5,0.2,0.9,1.3,0.9,1.4l0,0l0,0c-0.7,2.1-0.9,2.2-0.9,2.2
			c-0.6,0.1-0.9,0.1-1.1,0c-0.1-0.1-0.1-0.4,0-0.5c0,0,0-0.1,0-0.1c0,0-0.1,0-0.2,0c-0.9,0.3-1.9,1.6-2.3,2.7l1-0.2
			c0,0,0.6-0.1,0.8,0.2c0.2,0.2,0.2,0.5,0,0.9l-1,1.8c-0.3,0.4-0.5,0.6-0.7,0.6c0,0,0,0,0,0c-0.3,0-0.6-0.3-1.1-0.9
			c-0.1,0.5-0.1,0.9-0.1,1.4c0,0.5,0,1.2-0.2,2.2c-0.1,0.9-0.3,1.4-0.7,1.4c0,0,0,0,0,0c-0.6,0-1-1.1-1.2-1.7
			c-0.4-1.2-0.6-2.6-0.7-3.3c-0.7,1.3-1.8,4.5-2.1,6.6l0.4-0.4c0.4-0.4,0.7-0.5,0.9-0.4c0.2,0.1,0.4,0.4,0.4,1
			c0,1.2-0.4,3.8-0.7,4.9c-0.1,0.5-0.3,0.7-0.5,0.7c-0.2,0.1-0.5,0-0.7-0.2C117.2,64.2,117,63.9,116.8,63.7z"/>
		<path id="XMLID_5443_" class="st1" d="M73.6,111.2l-0.3-0.5c-0.5-0.7-1.2-1.4-2-2.3c-2.1-2.3-4.9-5.4-6.9-9.6
			c-2.1-4.2-4.8-10.6-5.6-13.3c-0.7-2.6-3.2-7.8-4.7-10.4L54.1,75c-1.5-2.6-3.1-5.6-6-7.8l-0.4-0.3l0.4,0c0,0,0.8,0.1,1.3,0
			c0.2,0,0.3-0.1,0.4-0.3c0.1-0.2,0-0.4-0.2-0.6c-0.7-1-2.4-2.9-3.3-3.6c-0.5-0.4-0.7-0.4-0.7-0.3c-0.1,0-0.2,0.2-0.1,0.7l0.1,1.2
			l-0.2-0.2c-1.6-1.6-3.8-5.3-4.1-6.6l-0.1-0.3l0.3,0.2c0,0,1.6,1.1,3.2,1.8c1,0.4,1.6,0.4,1.7,0.2c0-0.1,0.1-0.3-0.6-1.1
			c-0.7-0.7-1.1-1.1-1.5-1.5c-0.5-0.4-0.8-0.7-1.2-1.2l-0.1-0.2l0.4,0c0.7,0,1.1,0,1.2-0.2c0.1-0.1,0.1-0.4-0.1-0.7l-0.7-1.8
			c-0.1-0.2-0.3-0.4-0.5-0.4c0,0,0,0,0,0c-0.2,0-0.4,0.3-0.5,0.4l-0.7,1.3L42,53.2c-0.7-1-1.2-2.8-0.8-3.9c0.1-0.2,0.2-0.3,0.3-0.4
			c0.1,0,0.2,0.1,0.3,0.2c0.1,0.1,0.1,0.2,0.2,0.2c0,0,0.2-0.1,0.5-0.7c0-0.1-0.5-1-1.1-1.8c-0.3-0.1-1.1-0.3-1.4-0.2
			c-0.8,0.4-1.2,1.1-1.2,1.6c0,0.4,0.1,0.6,0.4,0.8c0.3,0.2,0.7,0.1,1.2-0.3l0.3-0.2l-0.1,0.4c-0.8,2.4,0.4,5.8,3.1,8.3l0.3,0.3
			l-0.4-0.1c-4.3-0.9-7.6-5.7-8.5-8.6L35,48.6l0.2,0.1c0.8,0.2,1.3,0.1,1.5-0.1c0.2-0.4,0-1.1-0.3-1.5c-1.1-0.1-1.6-0.6-1.8-1.1
			c-0.3-0.7-0.2-1.5,0-1.8l0.1-0.2l0.1,0.2c0.4,1,2.1,1.6,3.6,1.3c0.6-0.1,2-0.5,2.1-2.1c0,0,0-0.2-0.1-0.4
			c-0.3-0.5-0.8-1.2-0.8-1.2c-1.9-2.6-4.2-8.2-4.6-10.3c0,0-0.1-0.5-0.9-0.7l-0.2,0l0.2-0.2c0.1-0.1,0.4-0.5,0.5-0.8
			c0,0-0.1,0-0.1,0c-0.4,0-1.3,0-1.9-0.8c-0.4-0.6-0.5-2.2-0.4-2.8c0-0.1,0.1-0.2,0.2-0.3l0.1-0.1l0,0.1c0.2,0.6,0.3,1.2,0.7,1.3
			c0,0,0.1,0,0.1,0c0.4,0,0.5-0.3,0.5-0.4c0-0.1-0.1-0.7-0.2-1.2l-0.1-0.5l0.3,0.4c0.3,0.4,0.7,0.9,0.8,0.9c0.1,0.1,0.5,0.2,0.7-0.2
			c0.2-0.3-0.1-0.8-0.5-1.4l-0.1-0.1l0.1-0.1c0.1,0,0.2,0,0.3,0c0.5,0.2,1.7,1.4,1.9,2.1c0.3,1-0.3,1.7-0.6,2c0,0-0.1,0.1-0.1,0.1
			c0.2,0.2,0.7,0.2,0.9,0.2l0.2,0l-0.1,0.2c-0.4,0.7-0.1,1.1-0.1,1.2c1.4,1.7,4.2,7,4.9,10.2c0,0,0.2,0.8,0.5,1.4
			c0.1,0.2,0.2,0.3,0.2,0.4c1.2,0.9,2.5,0.1,3-0.3c1.2-1,1.8-2.7,1.3-3.6l-0.1-0.2l0.2,0c0.4,0.1,1,0.5,1.3,1.2
			c0.2,0.4,0.3,1.2-0.3,2.1c0.1,0.5,0.5,1.1,0.9,1.2c0,0,0,0,0,0c0.3,0,0.7-0.4,1-1l0.1-0.2l0.1,0.2c1.7,2.5,3.2,8.1,1.1,12L51.5,54
			l0-0.4c-0.2-3.6-2-6.8-4.4-7.7l-0.4-0.1l0.4-0.1c0.6-0.2,0.9-0.4,1-0.8c0.1-0.3-0.1-0.6-0.4-0.8c-0.4-0.3-1.1-0.5-2-0.1
			c-0.3,0.2-0.6,0.9-0.8,1.2c0.3,0.9,0.6,1.9,0.8,2c0.6,0.2,0.8,0.1,0.8,0c0,0,0-0.2,0-0.3c0-0.1-0.1-0.3,0-0.4
			c0.1-0.1,0.3-0.1,0.5,0c1.1,0.4,2.2,1.9,2.5,3.1l0.1,0.2l-1.4-0.3c-0.1,0-0.5-0.1-0.6,0.1c-0.1,0.1-0.1,0.4,0,0.6l0.9,1.7
			c0.2,0.3,0.4,0.5,0.5,0.5c0,0,0,0,0,0c0.2,0,0.5-0.3,1-0.8l0.3-0.3l0.1,0.2c0.2,0.6,0.2,1.1,0.2,1.7c0,0.5,0,1.2,0.2,2.1
			c0.1,1.1,0.4,1.2,0.4,1.2c0.2,0,0.6-0.5,0.9-1.5c0.5-1.6,0.7-3.5,0.7-3.6l0-0.3l0.2,0.3c0.8,1.1,2.2,5.1,2.4,7.4l0,0.3l-0.9-0.9
			C54.2,58,54.1,58,54,58.1c-0.1,0-0.2,0.1-0.2,0.8c0,1.1,0.4,3.7,0.7,4.9c0.1,0.3,0.2,0.5,0.4,0.6c0.2,0.1,0.4,0,0.5-0.1
			c0.4-0.3,0.8-0.9,0.8-0.9l0.3-0.4l0,0.5c-0.2,3.6,1,6.8,2.1,9.7l0.1,0.2c1.1,2.8,3.5,8.1,5,10.3l0,0c1.6,2.3,4.8,8.5,6.6,12.8
			c1.9,4.2,2.5,8.4,2.9,11.4c0.2,1.2,0.3,2.2,0.5,3L73.6,111.2z M48.5,67.2c2.7,2.2,4.4,5.1,5.8,7.7l0.1,0.1c1.5,2.6,4,7.9,4.7,10.5
			c0.7,2.7,3.4,9.1,5.6,13.2c2,4.1,4.8,7.2,6.8,9.5c0.6,0.7,1.2,1.3,1.7,1.9c-0.1-0.7-0.3-1.5-0.4-2.5c-0.4-3-1-7.2-2.9-11.3
			c-1.8-4.3-5-10.5-6.6-12.8c-1.5-2.2-3.9-7.5-5-10.4L58.2,73c-1-2.7-2.2-5.8-2.1-9.4c-0.2,0.2-0.4,0.5-0.7,0.7
			c-0.2,0.2-0.5,0.2-0.7,0.2c-0.2-0.1-0.4-0.2-0.5-0.7c-0.3-1.2-0.7-3.8-0.7-4.9c0-0.6,0.1-0.9,0.4-1c0.2-0.1,0.5,0,0.9,0.4l0.4,0.4
			c-0.3-2.1-1.4-5.3-2.1-6.6c-0.1,0.6-0.3,2.1-0.7,3.3c-0.2,0.5-0.6,1.7-1.2,1.7c0,0,0,0,0,0c-0.3,0-0.6-0.5-0.7-1.4
			c-0.1-1-0.1-1.6-0.2-2.2c0-0.5,0-0.9-0.1-1.4c-0.5,0.6-0.8,0.9-1.2,0.9c-0.2,0-0.5-0.2-0.7-0.6l-0.9-1.7c-0.2-0.4-0.2-0.7,0-0.9
			c0.3-0.3,0.8-0.2,0.8-0.2l1,0.2c-0.4-1.1-1.3-2.4-2.3-2.7c-0.1,0-0.2,0-0.2,0c0,0,0,0.1,0,0.1c0,0.2,0.1,0.4,0,0.5
			c-0.1,0.2-0.5,0.2-1.1,0c-0.1,0-0.3-0.1-0.9-2.2l0,0l0,0c0-0.1,0.4-1.2,0.9-1.4c1-0.4,1.8-0.2,2.2,0.1c0.4,0.3,0.5,0.7,0.4,1
			c0,0.2-0.2,0.6-0.9,0.9c2.2,1,3.9,3.9,4.2,7.3c1.7-3.7,0.4-8.7-1.2-11.2c-0.4,0.7-0.7,1-1.1,1c0,0,0,0-0.1,0
			c-0.6-0.1-1-0.9-1.2-1.4l0-0.1l0,0c0.5-0.7,0.6-1.3,0.3-1.9c-0.2-0.5-0.6-0.8-0.9-0.9c0.4,1.2-0.4,2.8-1.5,3.7
			c-1.1,0.9-2.3,1-3.3,0.3c-0.1-0.1-0.2-0.2-0.3-0.5c-0.2-0.6-0.5-1.4-0.5-1.4c-0.8-3.1-3.5-8.4-4.9-10.1c0,0-0.3-0.5,0-1.2
			c-0.3,0-0.7-0.1-1-0.3c-0.1-0.1,0-0.2,0.1-0.4c0.3-0.3,0.7-0.8,0.5-1.7c-0.2-0.5-1.1-1.5-1.6-1.8c0.3,0.5,0.5,0.9,0.3,1.3
			c-0.3,0.4-0.7,0.4-1,0.3c-0.1-0.1-0.4-0.4-0.6-0.6c0.1,0.3,0.1,0.7,0.1,0.9c-0.1,0.3-0.4,0.7-0.9,0.6c-0.5-0.1-0.7-0.5-0.8-1.1
			c-0.1,0.6,0,1.9,0.4,2.4c0.5,0.7,1.3,0.7,1.7,0.7c0.2,0,0.4,0,0.4,0.2c0,0.3-0.2,0.7-0.4,0.9c0.8,0.3,0.9,0.8,0.9,0.8
			c0.4,2.1,2.7,7.6,4.6,10.2c0,0,0.5,0.7,0.8,1.3c0.1,0.2,0.2,0.4,0.2,0.5c-0.1,1.3-0.9,2.1-2.3,2.4c-1.4,0.2-3.1-0.2-3.8-1.2
			c-0.1,0.3-0.1,0.8,0.1,1.3c0.3,0.6,0.9,0.9,1.7,0.9l0.1,0l0,0c0.3,0.4,0.7,1.3,0.3,1.8c-0.2,0.3-0.7,0.4-1.5,0.3
			c0.9,2.8,3.9,7,7.8,8.1c-2.4-2.4-3.5-5.6-2.9-7.9c-0.6,0.3-1,0.2-1.2,0.1c-0.3-0.2-0.5-0.5-0.5-1c0-0.6,0.4-1.4,1.3-1.8
			c0.5-0.2,1.6,0.2,1.7,0.2l0,0l0,0c1.2,1.9,1.1,2.1,1.1,2.1c-0.3,0.6-0.5,0.8-0.7,0.8c0,0,0,0,0,0c-0.2,0-0.3-0.2-0.4-0.3
			c0,0,0-0.1-0.1-0.1c0,0,0,0.1-0.1,0.2c-0.4,0.9,0,2.5,0.6,3.5l0.5-0.9c0,0,0.3-0.5,0.7-0.5c0,0,0,0,0,0c0.3,0,0.5,0.2,0.7,0.6
			l0.7,1.9c0.2,0.5,0.2,0.8,0,1c-0.2,0.3-0.7,0.3-1.4,0.3c0.3,0.4,0.6,0.7,1,1c0.4,0.4,0.9,0.8,1.6,1.5c0.6,0.7,0.8,1.1,0.6,1.4
			c-0.3,0.5-1.6,0-2-0.1c-1.2-0.5-2.4-1.2-2.9-1.6c0.5,1.4,2.3,4.3,3.7,5.9l0-0.5c0-0.5,0-0.9,0.2-1c0.2-0.1,0.5,0,1,0.4
			c0.9,0.7,2.6,2.7,3.4,3.7c0.3,0.4,0.3,0.7,0.2,0.9c-0.1,0.2-0.3,0.4-0.6,0.4C49.2,67.2,48.8,67.2,48.5,67.2z"/>
	</g>
	<g id="XMLID_4134_">
		<g id="XMLID_4136_">
			<path id="XMLID_4244_" class="st6" d="M41.4,128.7h-2.8l-0.6,1.8h-0.5l2.4-6.4h0.5l2.3,6.4h-0.5L41.4,128.7z M38.8,128.2h2.5
				l-1.2-3.4h0L38.8,128.2z"/>
			<path id="XMLID_4242_" class="st6" d="M44.1,130.4h-0.5v-6.9h0.5V130.4z"/>
			<path id="XMLID_4238_" class="st6" d="M49.3,128.2c0,0.7-0.2,1.3-0.5,1.7c-0.3,0.4-0.8,0.6-1.3,0.6c-0.3,0-0.6-0.1-0.9-0.2
				c-0.3-0.1-0.5-0.3-0.6-0.6l-0.1,0.7h-0.4v-6.9H46v2.8c0.2-0.3,0.4-0.5,0.6-0.6c0.2-0.1,0.5-0.2,0.9-0.2c0.6,0,1,0.2,1.3,0.7
				S49.3,127.3,49.3,128.2L49.3,128.2z M48.8,128.1c0-0.6-0.1-1.1-0.4-1.5s-0.6-0.6-1-0.6c-0.4,0-0.7,0.1-0.9,0.3
				c-0.2,0.2-0.4,0.4-0.5,0.7v2.2c0.1,0.3,0.3,0.5,0.5,0.7c0.2,0.2,0.5,0.2,0.9,0.2c0.5,0,0.8-0.2,1-0.5S48.8,128.8,48.8,128.1
				L48.8,128.1z"/>
			<path id="XMLID_4233_" class="st6" d="M52.3,130.5c-0.6,0-1.1-0.2-1.5-0.7c-0.4-0.4-0.6-1-0.6-1.7V128c0-0.7,0.2-1.3,0.6-1.7
				c0.4-0.4,0.9-0.7,1.4-0.7c0.6,0,1,0.2,1.3,0.6c0.3,0.4,0.5,0.9,0.5,1.5v0.4h-3.3v0.1c0,0.5,0.1,1,0.4,1.3s0.7,0.5,1.1,0.5
				c0.3,0,0.6,0,0.8-0.1s0.4-0.2,0.6-0.4l0.2,0.4c-0.2,0.2-0.4,0.3-0.7,0.4C53,130.5,52.7,130.5,52.3,130.5z M52.3,126.1
				c-0.4,0-0.7,0.1-1,0.4s-0.4,0.7-0.5,1.1l0,0h2.7v-0.1c0-0.4-0.1-0.8-0.3-1S52.7,126.1,52.3,126.1z"/>
			<path id="XMLID_4231_" class="st6" d="M57.3,126.1l-0.4,0c-0.3,0-0.6,0.1-0.8,0.3c-0.2,0.2-0.4,0.4-0.5,0.8v3.3h-0.5v-4.8h0.5
				l0.1,0.8v0.1c0.1-0.3,0.3-0.5,0.6-0.7s0.5-0.2,0.8-0.2c0.1,0,0.1,0,0.2,0s0.1,0,0.1,0L57.3,126.1z"/>
			<path id="XMLID_4229_" class="st6" d="M59.1,124.5v1.2h1v0.4h-1v3.1c0,0.3,0.1,0.5,0.2,0.7c0.1,0.1,0.3,0.2,0.5,0.2
				c0.1,0,0.1,0,0.2,0s0.1,0,0.2,0l0.1,0.4c-0.1,0-0.2,0.1-0.3,0.1c-0.1,0-0.2,0-0.3,0c-0.3,0-0.6-0.1-0.8-0.3
				c-0.2-0.2-0.3-0.5-0.3-1v-3.1h-0.8v-0.4h0.8v-1.2H59.1z"/>
			<path id="XMLID_4226_" class="st6" d="M60.9,128c0-0.7,0.2-1.3,0.6-1.7s0.9-0.7,1.5-0.7c0.6,0,1.1,0.2,1.5,0.7s0.6,1,0.6,1.7v0.1
				c0,0.7-0.2,1.3-0.6,1.7c-0.4,0.4-0.9,0.7-1.5,0.7c-0.6,0-1.1-0.2-1.5-0.7c-0.4-0.4-0.6-1-0.6-1.7V128z M61.4,128.1
				c0,0.6,0.1,1,0.4,1.4s0.7,0.6,1.2,0.6c0.5,0,0.9-0.2,1.2-0.6c0.3-0.4,0.4-0.8,0.4-1.4V128c0-0.5-0.1-1-0.4-1.4s-0.7-0.6-1.2-0.6
				s-0.9,0.2-1.2,0.6s-0.4,0.8-0.4,1.4V128.1z"/>
			<path id="XMLID_4224_" class="st6" d="M71.6,129.7L71.6,129.7L74,124h0.6v6.4h-0.5v-5.4l0,0l-2.3,5.4h-0.4l-2.3-5.5l0,0v5.5h-0.5
				V124h0.7L71.6,129.7z"/>
			<path id="XMLID_4221_" class="st6" d="M79.2,130.4c0-0.2-0.1-0.3-0.1-0.4s0-0.2,0-0.4c-0.2,0.3-0.4,0.5-0.7,0.6
				c-0.3,0.2-0.6,0.3-1,0.3c-0.5,0-0.8-0.1-1.1-0.4c-0.3-0.2-0.4-0.6-0.4-1s0.2-0.8,0.6-1s0.9-0.4,1.5-0.4h1.2v-0.6
				c0-0.3-0.1-0.6-0.3-0.8c-0.2-0.2-0.5-0.3-0.9-0.3c-0.4,0-0.7,0.1-0.9,0.3c-0.2,0.2-0.3,0.4-0.3,0.7h-0.5l0,0
				c0-0.4,0.1-0.7,0.5-0.9c0.3-0.3,0.7-0.4,1.3-0.4s0.9,0.1,1.3,0.4s0.5,0.6,0.5,1.1v2.3c0,0.2,0,0.3,0,0.5s0.1,0.3,0.1,0.5H79.2z
				 M77.4,130.1c0.4,0,0.8-0.1,1.1-0.3s0.5-0.4,0.6-0.7v-0.9h-1.2c-0.4,0-0.8,0.1-1.1,0.3s-0.4,0.4-0.4,0.7c0,0.3,0.1,0.5,0.3,0.7
				S77.1,130.1,77.4,130.1z"/>
			<path id="XMLID_4218_" class="st6" d="M82.8,130.5c-0.6,0-1.1-0.2-1.5-0.7c-0.4-0.4-0.6-1-0.6-1.7V128c0-0.7,0.2-1.3,0.6-1.7
				c0.4-0.4,0.9-0.7,1.4-0.7c0.6,0,1,0.2,1.3,0.6c0.3,0.4,0.5,0.9,0.5,1.5v0.4h-3.3v0.1c0,0.5,0.1,1,0.4,1.3s0.7,0.5,1.1,0.5
				c0.3,0,0.6,0,0.8-0.1s0.4-0.2,0.6-0.4l0.2,0.4c-0.2,0.2-0.4,0.3-0.7,0.4C83.5,130.5,83.2,130.5,82.8,130.5z M82.8,126.1
				c-0.4,0-0.7,0.1-1,0.4s-0.4,0.7-0.5,1.1l0,0H84v-0.1c0-0.4-0.1-0.8-0.3-1S83.2,126.1,82.8,126.1z"/>
			<path id="XMLID_4216_" class="st6" d="M88.5,129.2c0-0.2-0.1-0.4-0.3-0.6c-0.2-0.2-0.5-0.3-1-0.4c-0.6-0.1-1-0.3-1.3-0.5
				c-0.3-0.2-0.4-0.5-0.4-0.9c0-0.4,0.2-0.7,0.5-0.9c0.3-0.3,0.7-0.4,1.2-0.4c0.5,0,1,0.1,1.3,0.4c0.3,0.3,0.5,0.6,0.5,1l0,0h-0.5
				c0-0.3-0.1-0.5-0.3-0.7c-0.2-0.2-0.5-0.3-0.9-0.3c-0.4,0-0.7,0.1-0.9,0.3s-0.3,0.4-0.3,0.6c0,0.2,0.1,0.4,0.2,0.5
				c0.2,0.1,0.5,0.3,1,0.4c0.6,0.1,1,0.3,1.3,0.5c0.3,0.2,0.4,0.5,0.4,0.9c0,0.4-0.2,0.7-0.5,1c-0.3,0.2-0.7,0.4-1.3,0.4
				c-0.6,0-1-0.1-1.4-0.4c-0.3-0.3-0.5-0.6-0.5-1l0,0h0.5c0,0.3,0.2,0.6,0.4,0.7c0.3,0.2,0.6,0.2,0.9,0.2c0.4,0,0.7-0.1,0.9-0.3
				S88.5,129.5,88.5,129.2z"/>
			<path id="XMLID_4214_" class="st6" d="M91,124.5v1.2h1v0.4h-1v3.1c0,0.3,0.1,0.5,0.2,0.7c0.1,0.1,0.3,0.2,0.5,0.2
				c0.1,0,0.1,0,0.2,0s0.1,0,0.2,0l0.1,0.4c-0.1,0-0.2,0.1-0.3,0.1c-0.1,0-0.2,0-0.3,0c-0.3,0-0.6-0.1-0.8-0.3
				c-0.2-0.2-0.3-0.5-0.3-1v-3.1h-0.8v-0.4h0.8v-1.2H91z"/>
			<path id="XMLID_4212_" class="st6" d="M95.3,126.1l-0.4,0c-0.3,0-0.6,0.1-0.8,0.3c-0.2,0.2-0.4,0.4-0.5,0.8v3.3h-0.5v-4.8h0.5
				l0.1,0.8v0.1c0.1-0.3,0.3-0.5,0.6-0.7s0.5-0.2,0.8-0.2c0.1,0,0.1,0,0.2,0s0.1,0,0.1,0L95.3,126.1z"/>
			<path id="XMLID_4209_" class="st6" d="M95.8,128c0-0.7,0.2-1.3,0.6-1.7s0.9-0.7,1.5-0.7c0.6,0,1.1,0.2,1.5,0.7s0.6,1,0.6,1.7v0.1
				c0,0.7-0.2,1.3-0.6,1.7c-0.4,0.4-0.9,0.7-1.5,0.7c-0.6,0-1.1-0.2-1.5-0.7c-0.4-0.4-0.6-1-0.6-1.7V128z M96.3,128.1
				c0,0.6,0.1,1,0.4,1.4s0.7,0.6,1.2,0.6c0.5,0,0.9-0.2,1.2-0.6c0.3-0.4,0.4-0.8,0.4-1.4V128c0-0.5-0.1-1-0.4-1.4s-0.7-0.6-1.2-0.6
				s-0.9,0.2-1.2,0.6s-0.4,0.8-0.4,1.4V128.1z"/>
			<path id="XMLID_4207_" class="st6" d="M106.5,129.7L106.5,129.7l2.4-5.6h0.6v6.4H109v-5.4l0,0l-2.3,5.4h-0.4l-2.3-5.5l0,0v5.5
				h-0.5V124h0.7L106.5,129.7z"/>
			<path id="XMLID_4204_" class="st6" d="M110.8,128c0-0.7,0.2-1.3,0.6-1.7s0.9-0.7,1.5-0.7c0.6,0,1.1,0.2,1.5,0.7s0.6,1,0.6,1.7
				v0.1c0,0.7-0.2,1.3-0.6,1.7c-0.4,0.4-0.9,0.7-1.5,0.7c-0.6,0-1.1-0.2-1.5-0.7c-0.4-0.4-0.6-1-0.6-1.7V128z M111.3,128.1
				c0,0.6,0.1,1,0.4,1.4s0.7,0.6,1.2,0.6c0.5,0,0.9-0.2,1.2-0.6c0.3-0.4,0.4-0.8,0.4-1.4V128c0-0.5-0.1-1-0.4-1.4s-0.7-0.6-1.2-0.6
				s-0.9,0.2-1.2,0.6s-0.4,0.8-0.4,1.4V128.1z"/>
			<path id="XMLID_4202_" class="st6" d="M116.5,125.7l0,0.8c0.2-0.3,0.4-0.5,0.6-0.7c0.3-0.2,0.6-0.2,0.9-0.2
				c0.5,0,0.9,0.2,1.2,0.5s0.4,0.8,0.4,1.5v2.9h-0.5v-2.9c0-0.5-0.1-0.9-0.3-1.2c-0.2-0.2-0.5-0.3-0.9-0.3s-0.7,0.1-0.9,0.3
				c-0.2,0.2-0.4,0.4-0.5,0.7v3.4h-0.5v-4.8H116.5z"/>
			<path id="XMLID_4200_" class="st6" d="M121.9,124.5v1.2h1v0.4h-1v3.1c0,0.3,0.1,0.5,0.2,0.7c0.1,0.1,0.3,0.2,0.5,0.2
				c0.1,0,0.1,0,0.2,0s0.1,0,0.2,0l0.1,0.4c-0.1,0-0.2,0.1-0.3,0.1c-0.1,0-0.2,0-0.3,0c-0.3,0-0.6-0.1-0.8-0.3
				c-0.2-0.2-0.3-0.5-0.3-1v-3.1h-0.8v-0.4h0.8v-1.2H121.9z"/>
			<path id="XMLID_4197_" class="st6" d="M125.8,130.5c-0.6,0-1.1-0.2-1.5-0.7c-0.4-0.4-0.6-1-0.6-1.7V128c0-0.7,0.2-1.3,0.6-1.7
				c0.4-0.4,0.9-0.7,1.4-0.7c0.6,0,1,0.2,1.3,0.6c0.3,0.4,0.5,0.9,0.5,1.5v0.4h-3.3v0.1c0,0.5,0.1,1,0.4,1.3s0.7,0.5,1.1,0.5
				c0.3,0,0.6,0,0.8-0.1s0.4-0.2,0.6-0.4l0.2,0.4c-0.2,0.2-0.4,0.3-0.7,0.4C126.5,130.5,126.1,130.5,125.8,130.5z M125.7,126.1
				c-0.4,0-0.7,0.1-1,0.4s-0.4,0.7-0.5,1.1l0,0h2.7v-0.1c0-0.4-0.1-0.8-0.3-1S126.1,126.1,125.7,126.1z"/>
			<path id="XMLID_4195_" class="st6" d="M130.8,126.1l-0.4,0c-0.3,0-0.6,0.1-0.8,0.3c-0.2,0.2-0.4,0.4-0.5,0.8v3.3h-0.5v-4.8h0.5
				l0.1,0.8v0.1c0.1-0.3,0.3-0.5,0.6-0.7s0.5-0.2,0.8-0.2c0.1,0,0.1,0,0.2,0s0.1,0,0.1,0L130.8,126.1z"/>
			<path id="XMLID_4192_" class="st6" d="M131.3,128c0-0.7,0.2-1.3,0.6-1.7s0.9-0.7,1.5-0.7c0.6,0,1.1,0.2,1.5,0.7s0.6,1,0.6,1.7
				v0.1c0,0.7-0.2,1.3-0.6,1.7c-0.4,0.4-0.9,0.7-1.5,0.7c-0.6,0-1.1-0.2-1.5-0.7c-0.4-0.4-0.6-1-0.6-1.7V128z M131.8,128.1
				c0,0.6,0.1,1,0.4,1.4s0.7,0.6,1.2,0.6c0.5,0,0.9-0.2,1.2-0.6c0.3-0.4,0.4-0.8,0.4-1.4V128c0-0.5-0.1-1-0.4-1.4s-0.7-0.6-1.2-0.6
				s-0.9,0.2-1.2,0.6s-0.4,0.8-0.4,1.4V128.1z"/>
			<path id="XMLID_4190_" class="st6" d="M35.3,142.2l0.2,0.9h0l0.2-0.9l1-3.2h0.5l1,3.2l0.2,0.9h0l0.2-0.9l0.8-3.2h0.6l-1.4,4.8
				h-0.4l-1.1-3.3l-0.2-0.8h0l-0.2,0.8l-1.1,3.3h-0.5l-1.4-4.8h0.6L35.3,142.2z"/>
			<path id="XMLID_4188_" class="st6" d="M42.1,142.2l0.2,0.9h0l0.2-0.9l1-3.2H44l1,3.2l0.2,0.9h0l0.2-0.9l0.8-3.2h0.6l-1.4,4.8
				h-0.4l-1.1-3.3l-0.2-0.8h0l-0.2,0.8l-1.1,3.3h-0.5l-1.4-4.8h0.6L42.1,142.2z"/>
			<path id="XMLID_4186_" class="st6" d="M48.9,142.2l0.2,0.9h0l0.2-0.9l1-3.2h0.5l1,3.2l0.2,0.9h0l0.2-0.9l0.8-3.2h0.6l-1.4,4.8
				h-0.4l-1.1-3.3l-0.2-0.8h0l-0.2,0.8l-1.1,3.3h-0.5l-1.4-4.8h0.6L48.9,142.2z"/>
			<path id="XMLID_4184_" class="st6" d="M54.8,143.8h-0.6v-0.7h0.6V143.8z"/>
			<path id="XMLID_4181_" class="st6" d="M58.1,143.9c-0.6,0-1.1-0.2-1.5-0.7c-0.4-0.4-0.6-1-0.6-1.7v-0.2c0-0.7,0.2-1.3,0.6-1.7
				c0.4-0.4,0.9-0.7,1.4-0.7c0.6,0,1,0.2,1.3,0.6c0.3,0.4,0.5,0.9,0.5,1.5v0.4h-3.3v0.1c0,0.5,0.1,1,0.4,1.3s0.7,0.5,1.1,0.5
				c0.3,0,0.6,0,0.8-0.1s0.4-0.2,0.6-0.4l0.2,0.4c-0.2,0.2-0.4,0.3-0.7,0.4C58.8,143.8,58.5,143.9,58.1,143.9z M58.1,139.4
				c-0.4,0-0.7,0.1-1,0.4s-0.4,0.7-0.5,1.1l0,0h2.7v-0.1c0-0.4-0.1-0.8-0.3-1S58.5,139.4,58.1,139.4z"/>
			<path id="XMLID_4179_" class="st6" d="M61.4,139l0,0.8c0.2-0.3,0.4-0.5,0.6-0.7c0.3-0.2,0.6-0.2,0.9-0.2c0.5,0,0.9,0.2,1.2,0.5
				s0.4,0.8,0.4,1.5v2.9h-0.5v-2.9c0-0.5-0.1-0.9-0.3-1.2c-0.2-0.2-0.5-0.3-0.9-0.3s-0.7,0.1-0.9,0.3c-0.2,0.2-0.4,0.4-0.5,0.7v3.4
				H61V139H61.4z"/>
			<path id="XMLID_4177_" class="st6" d="M69.1,143c-0.2,0.3-0.4,0.5-0.6,0.6s-0.6,0.2-0.9,0.2c-0.5,0-0.9-0.2-1.2-0.5
				s-0.4-0.9-0.4-1.6V139h0.5v2.8c0,0.6,0.1,1,0.3,1.2c0.2,0.3,0.5,0.4,0.8,0.4c0.4,0,0.7-0.1,0.9-0.3c0.2-0.2,0.4-0.4,0.5-0.7V139
				h0.5v4.8h-0.5L69.1,143z"/>
			<path id="XMLID_4175_" class="st6" d="M71.5,139l0,0.8c0.2-0.3,0.4-0.5,0.6-0.7c0.3-0.2,0.6-0.2,0.9-0.2c0.5,0,0.9,0.2,1.2,0.5
				s0.4,0.8,0.4,1.5v2.9h-0.5v-2.9c0-0.5-0.1-0.9-0.3-1.2c-0.2-0.2-0.5-0.3-0.9-0.3s-0.7,0.1-0.9,0.3c-0.2,0.2-0.4,0.4-0.5,0.7v3.4
				H71V139H71.5z"/>
			<path id="XMLID_4173_" class="st6" d="M76.6,143.8h-0.5v-6.9h0.5V143.8z"/>
			<path id="XMLID_4171_" class="st6" d="M81.2,143c-0.2,0.3-0.4,0.5-0.6,0.6s-0.6,0.2-0.9,0.2c-0.5,0-0.9-0.2-1.2-0.5
				s-0.4-0.9-0.4-1.6V139h0.5v2.8c0,0.6,0.1,1,0.3,1.2c0.2,0.3,0.5,0.4,0.8,0.4c0.4,0,0.7-0.1,0.9-0.3c0.2-0.2,0.4-0.4,0.5-0.7V139
				h0.5v4.8h-0.5L81.2,143z"/>
			<path id="XMLID_4168_" class="st6" d="M82.9,141.4c0-0.8,0.2-1.4,0.5-1.8c0.3-0.5,0.8-0.7,1.3-0.7c0.3,0,0.6,0.1,0.9,0.2
				c0.2,0.1,0.5,0.4,0.6,0.6l0.1-0.7h0.4v4.8c0,0.6-0.2,1.1-0.5,1.4s-0.8,0.5-1.4,0.5c-0.2,0-0.5,0-0.7-0.1
				c-0.3-0.1-0.5-0.1-0.7-0.2l0.1-0.4c0.2,0.1,0.4,0.2,0.6,0.2c0.2,0,0.4,0.1,0.7,0.1c0.5,0,0.8-0.1,1.1-0.4s0.3-0.6,0.3-1.1v-0.7
				c-0.2,0.2-0.4,0.4-0.6,0.5c-0.2,0.1-0.5,0.2-0.9,0.2c-0.6,0-1-0.2-1.3-0.6C83,142.8,82.9,142.2,82.9,141.4L82.9,141.4z
				 M83.4,141.5c0,0.6,0.1,1,0.3,1.4s0.6,0.5,1,0.5c0.3,0,0.6-0.1,0.8-0.2s0.4-0.4,0.5-0.6v-2.3c-0.1-0.3-0.3-0.5-0.5-0.7
				s-0.5-0.3-0.9-0.3c-0.5,0-0.8,0.2-1,0.6S83.4,140.8,83.4,141.5L83.4,141.5z"/>
			<path id="XMLID_4165_" class="st6" d="M91.1,143.8c0-0.2-0.1-0.3-0.1-0.4s0-0.2,0-0.4c-0.2,0.3-0.4,0.5-0.7,0.6
				c-0.3,0.2-0.6,0.3-1,0.3c-0.5,0-0.8-0.1-1.1-0.4c-0.3-0.2-0.4-0.6-0.4-1s0.2-0.8,0.6-1s0.9-0.4,1.5-0.4H91v-0.6
				c0-0.3-0.1-0.6-0.3-0.8c-0.2-0.2-0.5-0.3-0.9-0.3c-0.4,0-0.7,0.1-0.9,0.3c-0.2,0.2-0.3,0.4-0.3,0.7h-0.5l0,0
				c0-0.4,0.1-0.7,0.5-0.9c0.3-0.3,0.7-0.4,1.3-0.4s0.9,0.1,1.3,0.4s0.5,0.6,0.5,1.1v2.3c0,0.2,0,0.3,0,0.5s0.1,0.3,0.1,0.5H91.1z
				 M89.3,143.4c0.4,0,0.8-0.1,1.1-0.3s0.5-0.4,0.6-0.7v-0.9h-1.2c-0.4,0-0.8,0.1-1.1,0.3s-0.4,0.4-0.4,0.7c0,0.3,0.1,0.5,0.3,0.7
				S89,143.4,89.3,143.4z"/>
			<path id="XMLID_4163_" class="st6" d="M95.1,139.5l-0.4,0c-0.3,0-0.6,0.1-0.8,0.3c-0.2,0.2-0.4,0.4-0.5,0.8v3.3h-0.5V139h0.5
				l0.1,0.8v0.1c0.1-0.3,0.3-0.5,0.6-0.7s0.5-0.2,0.8-0.2c0.1,0,0.1,0,0.2,0s0.1,0,0.1,0L95.1,139.5z"/>
			<path id="XMLID_4160_" class="st6" d="M95.7,141.4c0-0.8,0.2-1.4,0.5-1.8c0.3-0.5,0.8-0.7,1.3-0.7c0.3,0,0.6,0.1,0.9,0.2
				s0.4,0.3,0.6,0.6v-2.8h0.5v6.9h-0.4l-0.1-0.7c-0.2,0.3-0.4,0.4-0.6,0.6s-0.5,0.2-0.9,0.2c-0.6,0-1-0.2-1.3-0.6
				C95.8,142.8,95.7,142.2,95.7,141.4L95.7,141.4z M96.2,141.5c0,0.6,0.1,1,0.3,1.4c0.2,0.3,0.6,0.5,1,0.5c0.3,0,0.6-0.1,0.8-0.2
				s0.4-0.4,0.5-0.6v-2.3c-0.1-0.3-0.3-0.5-0.5-0.7s-0.5-0.3-0.9-0.3c-0.5,0-0.8,0.2-1,0.6C96.3,140.3,96.2,140.8,96.2,141.5
				L96.2,141.5z"/>
			<path id="XMLID_4157_" class="st6" d="M102.7,143.9c-0.6,0-1.1-0.2-1.5-0.7c-0.4-0.4-0.6-1-0.6-1.7v-0.2c0-0.7,0.2-1.3,0.6-1.7
				c0.4-0.4,0.9-0.7,1.4-0.7c0.6,0,1,0.2,1.3,0.6c0.3,0.4,0.5,0.9,0.5,1.5v0.4h-3.3v0.1c0,0.5,0.1,1,0.4,1.3s0.7,0.5,1.1,0.5
				c0.3,0,0.6,0,0.8-0.1s0.4-0.2,0.6-0.4l0.2,0.4c-0.2,0.2-0.4,0.3-0.7,0.4C103.4,143.8,103.1,143.9,102.7,143.9z M102.7,139.4
				c-0.4,0-0.7,0.1-1,0.4s-0.4,0.7-0.5,1.1l0,0h2.7v-0.1c0-0.4-0.1-0.8-0.3-1S103.1,139.4,102.7,139.4z"/>
			<path id="XMLID_4155_" class="st6" d="M106.1,143.8h-0.5v-6.9h0.5V143.8z"/>
			<path id="XMLID_4152_" class="st6" d="M110.6,143.8c0-0.2-0.1-0.3-0.1-0.4s0-0.2,0-0.4c-0.2,0.3-0.4,0.5-0.7,0.6
				c-0.3,0.2-0.6,0.3-1,0.3c-0.5,0-0.8-0.1-1.1-0.4c-0.3-0.2-0.4-0.6-0.4-1s0.2-0.8,0.6-1s0.9-0.4,1.5-0.4h1.2v-0.6
				c0-0.3-0.1-0.6-0.3-0.8c-0.2-0.2-0.5-0.3-0.9-0.3c-0.4,0-0.7,0.1-0.9,0.3c-0.2,0.2-0.3,0.4-0.3,0.7h-0.5l0,0
				c0-0.4,0.1-0.7,0.5-0.9c0.3-0.3,0.7-0.4,1.3-0.4s0.9,0.1,1.3,0.4s0.5,0.6,0.5,1.1v2.3c0,0.2,0,0.3,0,0.5s0.1,0.3,0.1,0.5H110.6z
				 M108.8,143.4c0.4,0,0.8-0.1,1.1-0.3s0.5-0.4,0.6-0.7v-0.9h-1.2c-0.4,0-0.8,0.1-1.1,0.3s-0.4,0.4-0.4,0.7c0,0.3,0.1,0.5,0.3,0.7
				S108.5,143.4,108.8,143.4z"/>
			<path id="XMLID_4150_" class="st6" d="M113.4,142.2l0.2,0.9h0l0.2-0.9l1-3.2h0.5l1,3.2l0.2,0.9h0l0.2-0.9l0.8-3.2h0.6l-1.4,4.8
				h-0.4l-1.1-3.3l-0.2-0.8h0l-0.2,0.8l-1.1,3.3h-0.5L112,139h0.6L113.4,142.2z"/>
			<path id="XMLID_4147_" class="st6" d="M121,143.9c-0.6,0-1.1-0.2-1.5-0.7c-0.4-0.4-0.6-1-0.6-1.7v-0.2c0-0.7,0.2-1.3,0.6-1.7
				c0.4-0.4,0.9-0.7,1.4-0.7c0.6,0,1,0.2,1.3,0.6c0.3,0.4,0.5,0.9,0.5,1.5v0.4h-3.3v0.1c0,0.5,0.1,1,0.4,1.3s0.7,0.5,1.1,0.5
				c0.3,0,0.6,0,0.8-0.1s0.4-0.2,0.6-0.4l0.2,0.4c-0.2,0.2-0.4,0.3-0.7,0.4C121.7,143.8,121.4,143.9,121,143.9z M121,139.4
				c-0.4,0-0.7,0.1-1,0.4s-0.4,0.7-0.5,1.1l0,0h2.7v-0.1c0-0.4-0.1-0.8-0.3-1S121.4,139.4,121,139.4z"/>
			<path id="XMLID_4144_" class="st6" d="M127.7,141.5c0,0.7-0.2,1.3-0.5,1.7c-0.3,0.4-0.8,0.6-1.3,0.6c-0.3,0-0.6-0.1-0.9-0.2
				c-0.3-0.1-0.5-0.3-0.6-0.6l-0.1,0.7h-0.4v-6.9h0.5v2.8c0.2-0.3,0.4-0.5,0.6-0.6c0.2-0.1,0.5-0.2,0.9-0.2c0.6,0,1,0.2,1.3,0.7
				S127.7,140.7,127.7,141.5L127.7,141.5z M127.2,141.4c0-0.6-0.1-1.1-0.4-1.5s-0.6-0.6-1-0.6c-0.4,0-0.7,0.1-0.9,0.3
				c-0.2,0.2-0.4,0.4-0.5,0.7v2.2c0.1,0.3,0.3,0.5,0.5,0.7c0.2,0.2,0.5,0.2,0.9,0.2c0.5,0,0.8-0.2,1-0.5S127.2,142.1,127.2,141.4
				L127.2,141.4z"/>
			<path id="XMLID_4142_" class="st6" d="M129.5,143.8h-0.6v-0.7h0.6V143.8z"/>
			<path id="XMLID_4139_" class="st6" d="M132.8,143.9c-0.6,0-1.1-0.2-1.5-0.7c-0.4-0.4-0.6-1-0.6-1.7v-0.2c0-0.7,0.2-1.3,0.6-1.7
				c0.4-0.4,0.9-0.7,1.4-0.7c0.6,0,1,0.2,1.3,0.6c0.3,0.4,0.5,0.9,0.5,1.5v0.4h-3.3v0.1c0,0.5,0.1,1,0.4,1.3s0.7,0.5,1.1,0.5
				c0.3,0,0.6,0,0.8-0.1s0.4-0.2,0.6-0.4l0.2,0.4c-0.2,0.2-0.4,0.3-0.7,0.4C133.5,143.8,133.2,143.9,132.8,143.9z M132.8,139.4
				c-0.4,0-0.7,0.1-1,0.4s-0.4,0.7-0.5,1.1l0,0h2.7v-0.1c0-0.4-0.1-0.8-0.3-1S133.2,139.4,132.8,139.4z"/>
			<path id="XMLID_4137_" class="st6" d="M138.5,142.6c0-0.2-0.1-0.4-0.3-0.6c-0.2-0.2-0.5-0.3-1-0.4c-0.6-0.1-1-0.3-1.3-0.5
				c-0.3-0.2-0.4-0.5-0.4-0.9c0-0.4,0.2-0.7,0.5-0.9c0.3-0.3,0.7-0.4,1.2-0.4c0.5,0,1,0.1,1.3,0.4c0.3,0.3,0.5,0.6,0.5,1l0,0h-0.5
				c0-0.3-0.1-0.5-0.3-0.7c-0.2-0.2-0.5-0.3-0.9-0.3c-0.4,0-0.7,0.1-0.9,0.3s-0.3,0.4-0.3,0.6c0,0.2,0.1,0.4,0.2,0.5
				c0.2,0.1,0.5,0.3,1,0.4c0.6,0.1,1,0.3,1.3,0.5c0.3,0.2,0.4,0.5,0.4,0.9c0,0.4-0.2,0.7-0.5,1c-0.3,0.2-0.7,0.4-1.3,0.4
				c-0.6,0-1-0.1-1.4-0.4c-0.3-0.3-0.5-0.6-0.5-1l0,0h0.5c0,0.3,0.2,0.6,0.4,0.7c0.3,0.2,0.6,0.2,0.9,0.2c0.4,0,0.7-0.1,0.9-0.3
				S138.5,142.8,138.5,142.6z"/>
		</g>
		<path id="XMLID_4248_" class="st6" d="M149.1,135.1H23.8c-0.3,0-0.5-0.2-0.5-0.5s0.2-0.5,0.5-0.5h125.2c0.3,0,0.5,0.2,0.5,0.5
			S149.3,135.1,149.1,135.1z"/>
	</g>
</g>
</svg>
