<?xml version="1.0" encoding="utf-8"?>
<!-- Generator: Adobe Illustrator 19.0.0, SVG Export Plug-In . SVG Version: 6.00 Build 0)  -->
<svg version="1.1" id="Capa_1" xmlns="http://www.w3.org/2000/svg" xmlns:xlink="http://www.w3.org/1999/xlink" x="0px" y="0px"
	 viewBox="0 0 172.9 269.3" style="enable-background:new 0 0 172.9 269.3;" xml:space="preserve">
<style type="text/css">
	.st0{fill:#FFFFFF;}
	.st1{fill:url(#XMLID_2_);}
	.st2{fill:#F07E1A;}
	.st3{fill:url(#XMLID_3_);}
	.st4{fill:url(#XMLID_4_);}
	.st5{fill:url(#XMLID_5_);}
	.st6{fill:#010202;}
	.st7{fill:#929293;}
</style>
<rect id="XMLID_8546_" x="0" y="0" class="st0" width="172.9" height="269.3"/>
<g id="XMLID_5761_">
	<g id="XMLID_4828_">
		<polygon id="XMLID_4836_" points="76.3,57.9 79.3,56.2 76.3,54.4 79,52.3 75.8,51 78.3,48.6 74.9,47.7 77,44.9 73.6,44.5 
			75.3,41.5 71.9,41.5 73.2,38.3 69.8,38.8 70.7,35.4 67.3,36.3 67.8,32.9 64.6,34.2 64.6,30.8 61.6,32.5 61.2,29.1 58.4,31.2 
			57.5,27.8 55.1,30.3 53.8,27.1 51.7,29.8 49.9,26.8 48.2,29.8 46.1,27.1 44.8,30.3 42.4,27.8 41.5,31.2 38.7,29.1 38.3,32.5 
			35.3,30.8 35.3,34.2 32.1,32.9 32.6,36.3 29.2,35.4 30.1,38.8 26.7,38.3 28,41.5 24.6,41.5 26.3,44.5 22.9,44.9 25,47.7 
			21.6,48.6 24.1,51 20.9,52.3 23.6,54.4 20.6,56.2 23.6,57.9 20.9,60 24.1,61.3 21.6,63.7 25,64.6 22.9,67.4 26.3,67.8 24.6,70.8 
			28,70.8 26.7,74 30.1,73.6 29.2,76.9 32.6,76 32.1,79.4 35.3,78.1 35.3,81.5 38.3,79.8 38.7,83.2 41.5,81.1 42.4,84.5 44.8,82 
			46.1,85.2 48.2,82.5 49.9,85.5 51.7,82.5 53.8,85.2 55.1,82 57.5,84.5 58.4,81.1 61.2,83.2 61.6,79.8 64.6,81.5 64.6,78.1 
			67.8,79.4 67.3,76 70.7,76.9 69.8,73.6 73.2,74 71.9,70.8 75.3,70.8 73.6,67.8 77,67.4 74.9,64.6 78.3,63.7 75.8,61.3 79,60 		"/>
		<radialGradient id="XMLID_2_" cx="49.9468" cy="56.1539" r="25.1756" gradientUnits="userSpaceOnUse">
			<stop  offset="0" style="stop-color:#F7A516"/>
			<stop  offset="1" style="stop-color:#F0E400"/>
		</radialGradient>
		<circle id="XMLID_4835_" class="st1" cx="49.9" cy="56.2" r="25.2"/>
		<g id="XMLID_4829_">
			<path id="XMLID_4830_" class="st2" d="M64.9,44.9c0,0,1.4-0.6,0.6-2.1c0,0,0.3,1.4-0.8,1.4c0,0-0.8,0-0.9-0.5c0,0,1.2,0,0.8-1.3
				c0,0,0.2,0.8-0.9,0.8c0,0-0.6,0-1-0.5c0,0,1.6-0.3,0.6-1.8c0,0,0.1,1-0.7,1.1c0,0-0.9-0.2-1.3,0.5c0,0-1.8-1.6-3.9,0
				c0,0-2.1,1.6-2,4.3c0,0,0,1.2,0.4,2.4c0,0,0.4,1.7,1,2.2l0.4,0.2c0,0-2.4-0.6-2.6,1.2c0,0-0.1,0.7,0.4,1.3c0,0-0.2-0.9,0.5-1.1
				c0,0,0.7-0.2,0.8,0.2c0,0-0.9,0.6-0.2,1.6c0,0-0.3-1.3,1.2-0.9c0,0-1,0.7-0.1,1.5c0,0-0.2-1.1,0.5-1.2c0,0,0.2,0.4,0.9,0.1
				l0.7,1.5c0,0-1.3,0.1-1.3,1.6c0,0,0.3-0.5,0.8-0.4c0,0-0.2,0.9-1.8,0.8c0,0-0.9-0.1-0.5-1.6c0,0-0.7,0.4-0.6,1.8c0,0-0.2,1,1.3,1
				c0,0,0.7,0,1.2-0.1c0,0,1.1,0.1,0.9,1.2c0,0-0.3,1.2-2.2,1.2c0,0-2.1,0.2-2.2-1.3c0,0-0.1-1-0.6-1.7c0,0-1.2-2.4-1.8-5.5
				c0,0-0.7,0.4-1.1-0.3c0,0,1.4,0.7,1.7-0.8c0,0,0.2-1-0.5-1.2l0-0.5c0,0-0.6-0.4-0.7-1.5c0,0,0.2,1.5,1.7,1.5c0,0,0.7-0.1,0.8-0.7
				c0,0-1,0.6-1.2-0.3c0,0-0.1-0.4,0-0.8c0,0,0.2-0.6-0.2-1.1c0,0-0.5-0.3-0.3-1.4c0,0,0.2,2.1,1.7,2c0,0-0.3-0.1-0.3-0.7l0-0.9
				c0,0-0.3,0-0.4-0.2c0,0,1.1,0.2,1.3-0.5c0,0,0.4-0.8-0.6-1.4c0,0,0.3,0.1,0.7-0.1c0,0-0.8-0.6-0.8-1.6c0,0,0.4,0.2,1.1-0.2
				c0,0-1,0.1-1.2-1c0,0,0.6,0.1,0.9-0.1c0,0-0.5-0.3-0.6-0.6c0,0,0-0.4-0.7-0.4c0,0,0.6-0.5,0.1-1.1c0,0,0,0.6-0.7,0.7
				c0,0,0.5-0.9-0.2-1.4c0,0,0.5,1-0.6,1.2c0,0,0.5-1.1-0.5-1.5c0,0,0.5,0.7-0.1,1.1c0,0-2-0.2-2.4-0.1l-0.7,0.7c0,0-1.8,0-2,0.4
				c0,0,0.1,1.3,0.4,1.8c-0.2,0-0.5,0-0.7,0c0,0-1.4-0.2-0.7-0.9l0.1-0.1c0,0-1.2-0.9-1.6,0.2c0,0-0.3,1.2,1.1,1.3c0,0,0,0,0,0
				c1.4,0.1,2-0.4,2-0.4s0.5-0.2,1.2,0c0,0,0.3,0.6-0.2,0.6c0,0-0.3,0.1-0.3-0.4c0,0-0.1-0.1-0.3,0.2c0,0-0.4,0.3-0.4-0.2
				c0,0-0.6,0.1-0.5,1.4c0,0,2.3-0.9,2.4,0.7c0,0-0.3-0.7-1-0.6c0,0-0.1,0.8-0.9,0.7c0,0-1.8-0.7-2.4,0.5c0,0-0.4,0.5-0.5,1.2
				c0,0,0,0.4-0.5,0.4c0,0-0.3,0-0.4-0.4c0,0-0.2,0.3,0.3,0.9c0,0-0.8-0.4-0.2-1.2c0,0-0.1,0.6,0.3,0.7c0,0,0.3,0,0.3-0.3
				c0,0,0.1-0.8,0.6-1.3l0-0.2l-0.1-0.1l-0.2,0L44,44.2l-0.2,0.2L43.5,44l-0.1,0l-0.1-0.3l-0.1,0l-0.1-0.1L43,43.4l0-0.1L42.9,43
				l-0.2,0v-0.3l-0.1,0l-0.1-0.1v-0.5l-0.2,0.2L42,42v-0.4l-0.2,0.1l-0.3-0.4c0,0,0.5-3.2-0.3-4.2c0,0,0.1-0.8-0.7-0.8
				c0,0,0.3,0.2,0.3,0.6c0,0-0.5-0.2-0.6,0c0,0,0.4,0.3,0.2,1c0,0,0-0.6-0.4-1.1c0,0,0-0.9-0.9-0.5c0,0,0.5,0,0.5,0.4c0,0,0,0,0,0
				c0,0-0.3,0.3-0.4,0.5c0,0,0.4,0.3,0.3,0.8c0,0-0.2-0.7-0.8-0.9c0,0-0.6-0.4-0.9,0.2c0,0,0.7-0.2,0.7,0.2c0,0-0.6,0.8,0.9,1.7
				c0,0-0.2,0.2-0.2,0.9c0,0-0.1-0.2-0.5,0c0,0-0.1-0.4,0.2-0.7c0,0-0.9,0-0.5,1.2c0,0-0.2,1,0.9,1.5c0,0-1.2-0.2-1.2,0.6
				c0,0,0.5-0.5,1,0.1c0,0,0.2,0.3,0.7,0.3c0,0-1.1,0.9,0.1,1.5c0,0,0-0.8,0.9-0.6c0,0-0.3,0.6,0.3,1.2c0,0-0.4,0.4,0.2,1.1
				c0,0,0-0.5,0.2-0.5c0,0,0.3,0,0.3,0.6c0,0-1.2,1.7-1.3,0.3c0,0-0.6,0.9,0.5,1c0,0,0.3,0,0.9-0.5c0,0,0.4-0.3,0.5,0.1c0,0,0,0,0,0
				c0,0.5-0.2,0.4-0.7,0.4c0,0,0,0.9,1.5,0.5c0,0,0.3,0.2-0.4,0.2c0,0-0.8,0-0.8,0.8c0,0,0.4-0.6,0.7-0.2c0,0,0.2,0.4-0.6,0.6
				c0,0-0.7,0.2-1-0.6c0,0-0.3,0.8,0.8,0.9c0,0,0,0.2-1.1,0.2l0.3,0.2l-0.6-0.1c0,0-0.2-0.1,0,0.2c0,0-0.2-0.2-0.5,0
				c0,0,0.5,0.2-0.2,0.3c0,0-2.6-0.4-3.1-1c0,0-0.6-0.4-1.4-0.1c0,0-0.9-0.5-0.9,0.5c0,0,0.1-0.2,0.6-0.2c0,0-0.1,0.3,0.2,0.3
				c0,0,0.4,0,0.6,0.1c0,0-0.6-0.1-1.1,0.1c0,0-0.6-0.1-0.5,1c0,0,0-0.4,0.5-0.5c0,0,0.3,0.2,0,0.5c0,0-0.7,0.7,0.2,1.2
				c0,0-0.2-0.6,0.1-0.7c0,0,0.3,0.5,1,0c0,0,0.7,0.1,0.9-0.1c0,0,0.4-0.3,0.5,0.1c0,0,0,0,0,0.1c0,0-0.6-0.1-0.6,0.2
				c0,0-0.3,0.7-0.8,0.1c0,0,0,0.9,0.9,0.5c0,0,1.3,0.3,1.9-0.8c0,0,0.2,0.6-0.5,1.1c0,0,0.6,0.1,1.3-0.6c0,0-0.4,1,1.5,0.6
				c0,0-0.6-0.1-0.6-0.8c0,0,0.1-0.6,0.6,0c0,0,0.6,0.7,1.2,0.5c0,0-0.2-0.1-0.2-0.6c0,0,0-0.3,0.5-0.3c0,0,0.4,0,0.3,0.4
				c0,0,0,0.4-0.4,0.6c0,0,0.8,0.4,1-0.5c0,0,0-0.4,0.5-0.4c0,0,0.5,0.1,0,0.7c0,0,0.4,0,0.5-0.9c0,0,0.1-0.6,0.4-0.1l0,0.1
				c0.1,0.3-0.3,0.4-0.3,0.4c0.4,0,0.5-0.3,0.5-0.3c0.3-0.2,0-0.7,0-0.7c0.4,0.3,0.1,0.7,0.1,0.7c0.6,1.6,2.6,3.3,2.6,3.3
				c1.8,1.3,2,2.7,2,2.7c0.2,1.3-0.4,2-0.4,2c0.4-0.6,0.2-1.5,0.2-1.5c-0.7-0.2-1.9-1.3-1.9-1.3l0.1,0.3c-0.7-0.4-1.7-0.2-1.7-0.2
				c-0.6,0.1-1.4-0.1-1.4-0.1c0.9,0.4-0.4,0.6-0.4,0.6c-0.8,0.1-1.7-0.3-1.7-0.3c0.2,0.5,1.1,0.5,1.1,0.5c-1,0.3-1.1,0.8-1.1,0.8
				c-0.5,0.8-1.2,0.8-1.2,0.8c-0.7,0-0.6-0.8-0.6-0.8c-0.2,0.2-0.2,0.5-0.2,0.5c-0.2,0-0.4-0.4-0.4-0.4c0,0.9,1.3,1.4,1.3,1.4
				c-0.1,1-1.2,1-1.2,1c1.3,0.5,2-0.1,2-0.1c-0.1,0.6-0.8,1.1-0.8,1.1c0.5,0,0.8-0.5,0.8-0.5c0,1-0.5,1.3-0.5,1.3
				c0.3,0,0.6-0.4,0.6-0.4c-0.2,0.6-0.4,0.7-0.4,0.7c0.3,0.1,0.5-0.1,0.5-0.1c0,0.5-0.3,0.6-0.3,0.6c0.5,0,0.9-0.4,0.9-0.4
				c0.3,0.1,0.2,0.5,0.2,0.5c-0.2,1-1.6,0.9-1.6,0.9c-1.5,0.1-2,1.1-2,1.1c-0.7,0.8-0.4,1.3-0.4,1.3c0.3-0.7,1.2-1.1,1.2-1.1
				c-0.6,0.3-0.8,0.9-0.8,0.9c-0.3,0.8,0.2,1,0.2,1c0-0.4,0.2-0.6,0.2-0.6c0.3,0.1,0.4-0.1,0.4-0.1c0.2-0.9,0.8-0.8,0.8-0.8
				c-0.6,0.2-0.7,0.9-0.7,0.9c-0.1,1.2,0.7,1.2,0.7,1.2c-0.4-0.3-0.2-0.6-0.2-0.6c1-0.1,1.2-0.8,1.2-0.8c0-0.3,0.6-0.4,0.6-0.4
				c-0.4,0.3,0,0.8,0,0.8c-0.1,0.5-0.8,0.5-0.8,0.5c0.8,0.4,1.3-0.2,1.3-0.2c1-0.1,1.2-1.3,1.2-1.3c0.1-0.6,0.7-0.9,0.7-0.9
				c-0.4,1.2,0.4,1.6,0.4,1.6c-0.1-0.8,0.4-1,0.4-1c0.8-0.2,0.7-0.9,0.7-0.9c0.2,0.5,0.6,0.3,0.6,0.3c-0.2-0.2-0.1-0.5-0.1-0.5
				c0-1.1-0.8-1.3-0.8-1.3c-0.5-0.1-0.7-0.6-0.7-0.6c0.9,0.7,1.4,0.4,1.4,0.4c-0.4,0-0.3-0.2-0.3-0.2c0.1-0.5-0.1-1-0.1-1
				c-0.5-0.4-0.3-0.7-0.3-0.7c0.8-0.1,0.6,0.8,0.6,0.8c0.9-0.1,0.7-1,0.7-1c0.4,0.5,0.7,0.2,0.7,0.2c0.2-0.4,0.5-0.7,0.5-0.7
				c-0.7,0.9-1,2.4-1,2.4c0.6-0.5-0.2,1.2-0.2,1.2c0.8-0.4,0,1.1,0,1.1c0.5-0.3,0.3,0.3,0.3,0.3l-0.4,0.6c0.2-0.2,0.4-0.1,0.4-0.1
				c-0.2,1-1.2,1-1.2,1c0.5,0.2,0.9,0,0.9,0c0,0.3-0.5,0.8-0.5,0.8c0.5-0.2,0.9-0.8,0.9-0.8c0.5-0.2,1.2-1.2,1.2-1.2
				c0,0.3,0.2,0.4,0.2,0.4l0.1,0.2h0.2l0,0.6c0-0.2,0.3-0.1,0.3-0.1l0,0.5c0.2-0.4,0.5-0.2,0.5-0.2l0,0.5l0.3-0.1l0.1,0.6l0.2-0.1
				l0,0.5l0.2,0c-0.1,1.7-0.9,2.1-0.9,2.1c-2.3,1.1-2.1,1.8-2.1,1.8c-0.7,0.7-0.1,1.3-0.1,1.3c0-0.5,0.5-0.9,0.5-0.9l0,0
				c0.1-0.2,0.6-0.4,0.6-0.4c-0.6,0.4-0.6,0.8-0.6,0.8c0,0.2,0.1,0.3,0.1,0.3c-0.5,0.7,0.4,1.1,0.4,1.1c-0.2-0.4,0-0.8,0-0.8
				c0.2,0,0.3,0,0.3,0V75c0-0.8,0.5-1,0.5-1c-0.6,0.5-0.4,1-0.4,1s0.2,1.3,1.3,1c0,0-0.5-0.1-0.6-0.5l0,0c0.6-0.2,0.9-1.1,0.9-1.1
				c0.9,0,0.8-0.7,0.8-0.7c0-0.5,0.6-0.7,0.6-0.7c-0.3,0.8,0,0.9,0,0.9c0,0.7-0.4,0.8-0.4,0.8c0.8,0,0.9-0.8,0.9-0.8
				c0.9-0.4,0.5-1.6,0.5-1.6c0.7-0.1,0.6,0.7,0.6,0.7c0.9-0.6,0.7-1.4,0.7-1.4c-0.5-0.6,0-0.7,0-0.7c0.8,0,0.4,1,0.4,1
				c0.7-0.2,0.7-1.1,0.7-1.1c1-0.3,0.9-1.4,0.9-1.4s-0.5,0.9-1.2,0.1c0,0-0.3-0.4,0.7-0.5c0,0,0-0.7-1.3-0.7c0,0-0.7,0-0.6-0.6
				c0,0,0-0.5,0.8,0.2c0,0,0.1-1-1-1c0,0-0.3,0.1-0.3-0.2c0,0,0.7-0.2,0.8-1.2c0,0-1.4,1.1-1.6-0.4c0,0-0.1-0.5,0.4-0.5
				c0,0,0.4-0.1,0.4,0.6c0,0,0.7-0.7,0.1-1.1c0,0,0.7-0.3,0.5-1c0,0-0.6,1.1-1,0.2c0,0-0.2-0.2,0.2-0.5c0,0,0.5-0.5,0.6-1.2
				c0,0,0.1,0,0.1,0.5c0,0,0.9,1.1,2.9,0.7c0,0,2-0.4,2.7-2c0,0,1,0.2,1.7-0.3c0,0-0.4-0.2,0.1-0.5c0,0,0.5-0.2,0.7-0.6
				c0,0-0.5,0.4-0.5,0c0,0,0.3-1.5-0.7-1.8c0,0-0.4-1.4-1.8-1.3c0,0,0.2-0.1,0.4-0.2c0,0-1.5-2-0.6-3.3c0,0-0.8-0.3-0.7-1
				c0,0,0-0.9,1-0.9c0,0,0.7,0,0.7,0.8c0,0,0,0.5-0.5,0.8c0,0,0.8,0,1-1.2c0,0,0.2-1.5-1.6-1.5c0,0-1.6,0-2.1,1.7l0-0.8
				c0,0-0.6-1.6-0.7-3c0,0-0.7-4.8,3.7-4.5c0,0-0.3,1.4-1,1.8c0,0-0.7,0.2-0.6-0.9c0,0-0.9,1.2,0.6,1.4c0,0,0.7,0.2,1.4-0.7
				c0,0,0.5,0.5,0.4,1.3c0,0-0.2,0.7-0.8,0.7c0,0-0.4-0.1-0.2-0.9c0,0-0.6,0.2-0.6,1c0,0-0.1,0.8,1.3,0.7c0,0-0.7,2.2,1.3,2.3
				c0,0-1-0.4-0.3-1.6v0c0,0,0.8-0.4,0.7-1.5c0,0,0.7,0.2,0.7,0.9c0,0-0.1,0.7-1,0.7c0,0,1.3,1.2,2.2-1.1c0,0,0.3-0.8-0.3-1.2
				c0,0,0.5,0,0.7-0.4c0,0,0.6,0.1,0.6,0.7c0,0-0.1,0.6-0.5,0.7c0,0,0.9,0.1,0.7-1.5C65.5,45.5,65.4,45,64.9,44.9z M46.8,42.1
				c0.1-0.1,0.2-0.4,0.6-0.1c0,0,0-0.7,0.5-0.7c0,0,0.2,0,0.3,0.6C48.2,42,47.5,42.1,46.8,42.1z M48.9,40.1l0.1-0.5
				c0.4-0.1,0.7,0.4,0.7,0.4C49.4,40.2,48.9,40.1,48.9,40.1z M50.8,41.4c1.3,0.3,2.1-0.8,2.1-0.8c-0.6,0-1.1-0.3-1.1-0.3
				c-0.6-0.6-1.3,0.3-1.3,0.3c0.6-1,1.4-0.4,1.4-0.4c0.4,0.3,1.2,0.3,1.2,0.3C52.1,42.1,50.8,41.4,50.8,41.4z"/>
		</g>
	</g>
	<g id="XMLID_4819_">
		<polygon id="XMLID_4827_" points="149.3,57.9 152.3,56.2 149.3,54.4 152,52.3 148.8,51 151.3,48.6 147.9,47.7 150.1,44.9 
			146.6,44.5 148.4,41.5 144.9,41.5 146.2,38.3 142.8,38.8 143.7,35.4 140.4,36.3 140.8,32.9 137.6,34.2 137.6,30.8 134.6,32.5 
			134.2,29.1 131.4,31.2 130.6,27.8 128.1,30.3 126.8,27.1 124.7,29.8 123,26.8 121.2,29.8 119.1,27.1 117.8,30.3 115.4,27.8 
			114.5,31.2 111.7,29.1 111.3,32.5 108.3,30.8 108.3,34.2 105.1,32.9 105.6,36.3 102.2,35.4 103.1,38.8 99.7,38.3 101,41.5 
			97.6,41.5 99.3,44.5 95.9,44.9 98,47.7 94.6,48.6 97.1,51 93.9,52.3 96.6,54.4 93.7,56.2 96.6,57.9 93.9,60 97.1,61.3 94.6,63.7 
			98,64.6 95.9,67.4 99.3,67.8 97.6,70.8 101,70.8 99.7,74 103.1,73.6 102.2,76.9 105.6,76 105.1,79.4 108.3,78.1 108.3,81.5 
			111.3,79.8 111.7,83.2 114.5,81.1 115.4,84.5 117.8,82 119.1,85.2 121.2,82.5 123,85.5 124.7,82.5 126.8,85.2 128.1,82 
			130.6,84.5 131.4,81.1 134.2,83.2 134.6,79.8 137.6,81.5 137.6,78.1 140.8,79.4 140.4,76 143.7,76.9 142.8,73.6 146.2,74 
			144.9,70.8 148.4,70.8 146.6,67.8 150.1,67.4 147.9,64.6 151.3,63.7 148.8,61.3 152,60 		"/>
		<radialGradient id="XMLID_3_" cx="122.9663" cy="56.1539" r="25.1756" gradientUnits="userSpaceOnUse">
			<stop  offset="0" style="stop-color:#F7A516"/>
			<stop  offset="1" style="stop-color:#F0E400"/>
		</radialGradient>
		<circle id="XMLID_4826_" class="st3" cx="123" cy="56.2" r="25.2"/>
		<g id="XMLID_4820_">
			<path id="XMLID_4821_" class="st2" d="M137.9,44.9c0,0,1.4-0.6,0.6-2.1c0,0,0.3,1.4-0.8,1.4c0,0-0.8,0-0.9-0.5c0,0,1.2,0,0.8-1.3
				c0,0,0.2,0.8-0.9,0.8c0,0-0.6,0-1-0.5c0,0,1.6-0.3,0.6-1.8c0,0,0.1,1-0.7,1.1c0,0-0.9-0.2-1.3,0.5c0,0-1.8-1.6-3.9,0
				c0,0-2.1,1.6-2,4.3c0,0,0,1.2,0.4,2.4c0,0,0.4,1.7,1,2.2l0.4,0.2c0,0-2.4-0.6-2.6,1.2c0,0-0.1,0.7,0.4,1.3c0,0-0.2-0.9,0.5-1.1
				c0,0,0.7-0.2,0.8,0.2c0,0-0.9,0.6-0.2,1.6c0,0-0.3-1.3,1.2-0.9c0,0-1,0.7-0.1,1.5c0,0-0.2-1.1,0.5-1.2c0,0,0.2,0.4,0.9,0.1
				l0.7,1.5c0,0-1.3,0.1-1.3,1.6c0,0,0.3-0.5,0.8-0.4c0,0-0.2,0.9-1.8,0.8c0,0-0.9-0.1-0.5-1.6c0,0-0.7,0.4-0.6,1.8c0,0-0.2,1,1.3,1
				c0,0,0.7,0,1.2-0.1c0,0,1.1,0.1,0.9,1.2c0,0-0.3,1.2-2.2,1.2c0,0-2.1,0.2-2.2-1.3c0,0-0.1-1-0.6-1.7c0,0-1.2-2.4-1.8-5.5
				c0,0-0.7,0.4-1.1-0.3c0,0,1.4,0.7,1.7-0.8c0,0,0.2-1-0.5-1.2l0-0.5c0,0-0.6-0.4-0.7-1.5c0,0,0.2,1.5,1.7,1.5c0,0,0.7-0.1,0.8-0.7
				c0,0-1,0.6-1.2-0.3c0,0-0.1-0.4,0-0.8c0,0,0.2-0.6-0.2-1.1c0,0-0.5-0.3-0.3-1.4c0,0,0.2,2.1,1.7,2c0,0-0.3-0.1-0.3-0.7l0-0.9
				c0,0-0.3,0-0.4-0.2c0,0,1.1,0.2,1.3-0.5c0,0,0.4-0.8-0.6-1.4c0,0,0.3,0.1,0.7-0.1c0,0-0.8-0.6-0.8-1.6c0,0,0.4,0.2,1.1-0.2
				c0,0-1,0.1-1.2-1c0,0,0.6,0.1,0.9-0.1c0,0-0.5-0.3-0.6-0.6c0,0,0-0.4-0.7-0.4c0,0,0.6-0.5,0.1-1.1c0,0,0,0.6-0.7,0.7
				c0,0,0.5-0.9-0.2-1.4c0,0,0.5,1-0.6,1.2c0,0,0.5-1.1-0.5-1.5c0,0,0.5,0.7-0.1,1.1c0,0-2-0.2-2.4-0.1l-0.7,0.7c0,0-1.8,0-2,0.4
				c0,0,0.1,1.3,0.4,1.8c-0.2,0-0.5,0-0.7,0c0,0-1.4-0.2-0.7-0.9l0.1-0.1c0,0-1.2-0.9-1.6,0.2c0,0-0.3,1.2,1.1,1.3c0,0,0,0,0,0
				c1.4,0.1,2-0.4,2-0.4s0.5-0.2,1.2,0c0,0,0.3,0.6-0.2,0.6c0,0-0.3,0.1-0.3-0.4c0,0-0.1-0.1-0.3,0.2c0,0-0.4,0.3-0.4-0.2
				c0,0-0.6,0.1-0.5,1.4c0,0,2.3-0.9,2.4,0.7c0,0-0.3-0.7-1-0.6c0,0-0.1,0.8-0.9,0.7c0,0-1.8-0.7-2.4,0.5c0,0-0.4,0.5-0.5,1.2
				c0,0,0,0.4-0.5,0.4c0,0-0.3,0-0.4-0.4c0,0-0.2,0.3,0.3,0.9c0,0-0.8-0.4-0.2-1.2c0,0-0.1,0.6,0.3,0.7c0,0,0.3,0,0.3-0.3
				c0,0,0.1-0.8,0.6-1.3l0-0.2l-0.1-0.1l-0.2,0l-0.1-0.5l-0.2,0.2l-0.3-0.4l-0.1,0l-0.1-0.3l-0.1,0l-0.1-0.1l-0.1-0.1l0-0.1
				l-0.1-0.3l-0.2,0v-0.3l-0.1,0l-0.1-0.1v-0.5l-0.2,0.2L115,42v-0.4l-0.2,0.1l-0.3-0.4c0,0,0.5-3.2-0.3-4.2c0,0,0.1-0.8-0.7-0.8
				c0,0,0.3,0.2,0.3,0.6c0,0-0.5-0.2-0.6,0c0,0,0.4,0.3,0.2,1c0,0,0-0.6-0.4-1.1c0,0,0-0.9-0.9-0.5c0,0,0.5,0,0.5,0.4c0,0,0,0,0,0
				c0,0-0.3,0.3-0.4,0.5c0,0,0.4,0.3,0.3,0.8c0,0-0.2-0.7-0.8-0.9c0,0-0.6-0.4-0.9,0.2c0,0,0.7-0.2,0.7,0.2c0,0-0.6,0.8,0.9,1.7
				c0,0-0.2,0.2-0.2,0.9c0,0-0.1-0.2-0.5,0c0,0-0.1-0.4,0.2-0.7c0,0-0.9,0-0.5,1.2c0,0-0.2,1,0.9,1.5c0,0-1.2-0.2-1.2,0.6
				c0,0,0.5-0.5,1,0.1c0,0,0.2,0.3,0.7,0.3c0,0-1.1,0.9,0.1,1.5c0,0,0-0.8,0.9-0.6c0,0-0.3,0.6,0.3,1.2c0,0-0.4,0.4,0.2,1.1
				c0,0,0-0.5,0.2-0.5c0,0,0.3,0,0.3,0.6c0,0-1.2,1.7-1.3,0.3c0,0-0.6,0.9,0.5,1c0,0,0.3,0,0.9-0.5c0,0,0.4-0.3,0.5,0.1c0,0,0,0,0,0
				c0,0.5-0.2,0.4-0.7,0.4c0,0,0,0.9,1.5,0.5c0,0,0.3,0.2-0.4,0.2c0,0-0.8,0-0.8,0.8c0,0,0.4-0.6,0.7-0.2c0,0,0.2,0.4-0.6,0.6
				c0,0-0.7,0.2-1-0.6c0,0-0.3,0.8,0.8,0.9c0,0,0,0.2-1.1,0.2l0.3,0.2l-0.6-0.1c0,0-0.2-0.1,0,0.2c0,0-0.2-0.2-0.5,0
				c0,0,0.5,0.2-0.2,0.3c0,0-2.6-0.4-3.1-1c0,0-0.6-0.4-1.4-0.1c0,0-0.9-0.5-0.9,0.5c0,0,0.1-0.2,0.6-0.2c0,0-0.1,0.3,0.2,0.3
				c0,0,0.4,0,0.6,0.1c0,0-0.6-0.1-1.1,0.1c0,0-0.6-0.1-0.5,1c0,0,0-0.4,0.5-0.5c0,0,0.3,0.2,0,0.5c0,0-0.7,0.7,0.2,1.2
				c0,0-0.2-0.6,0.1-0.7c0,0,0.3,0.5,1,0c0,0,0.7,0.1,0.9-0.1c0,0,0.4-0.3,0.5,0.1c0,0,0,0,0,0.1c0,0-0.6-0.1-0.6,0.2
				c0,0-0.3,0.7-0.8,0.1c0,0,0,0.9,0.9,0.5c0,0,1.3,0.3,1.9-0.8c0,0,0.2,0.6-0.5,1.1c0,0,0.6,0.1,1.3-0.6c0,0-0.4,1,1.5,0.6
				c0,0-0.6-0.1-0.6-0.8c0,0,0.1-0.6,0.6,0c0,0,0.6,0.7,1.2,0.5c0,0-0.2-0.1-0.2-0.6c0,0,0-0.3,0.5-0.3c0,0,0.4,0,0.3,0.4
				c0,0,0,0.4-0.4,0.6c0,0,0.8,0.4,1-0.5c0,0,0-0.4,0.5-0.4c0,0,0.5,0.1,0,0.7c0,0,0.4,0,0.5-0.9c0,0,0.1-0.6,0.4-0.1l0,0.1
				c0.1,0.3-0.3,0.4-0.3,0.4c0.4,0,0.5-0.3,0.5-0.3c0.3-0.2,0-0.7,0-0.7c0.4,0.3,0.1,0.7,0.1,0.7c0.6,1.6,2.6,3.3,2.6,3.3
				c1.8,1.3,2,2.7,2,2.7c0.2,1.3-0.4,2-0.4,2c0.4-0.6,0.2-1.5,0.2-1.5c-0.7-0.2-1.9-1.3-1.9-1.3l0.1,0.3c-0.7-0.4-1.7-0.2-1.7-0.2
				c-0.6,0.1-1.4-0.1-1.4-0.1c0.9,0.4-0.4,0.6-0.4,0.6c-0.8,0.1-1.7-0.3-1.7-0.3c0.2,0.5,1.1,0.5,1.1,0.5c-1,0.3-1.1,0.8-1.1,0.8
				c-0.5,0.8-1.2,0.8-1.2,0.8c-0.7,0-0.6-0.8-0.6-0.8c-0.2,0.2-0.2,0.5-0.2,0.5c-0.2,0-0.4-0.4-0.4-0.4c0,0.9,1.3,1.4,1.3,1.4
				c-0.1,1-1.2,1-1.2,1c1.3,0.5,2-0.1,2-0.1c-0.1,0.6-0.8,1.1-0.8,1.1c0.5,0,0.8-0.5,0.8-0.5c0,1-0.5,1.3-0.5,1.3
				c0.3,0,0.6-0.4,0.6-0.4c-0.2,0.6-0.4,0.7-0.4,0.7c0.3,0.1,0.5-0.1,0.5-0.1c0,0.5-0.3,0.6-0.3,0.6c0.5,0,0.9-0.4,0.9-0.4
				c0.3,0.1,0.2,0.5,0.2,0.5c-0.2,1-1.6,0.9-1.6,0.9c-1.5,0.1-2,1.1-2,1.1c-0.7,0.8-0.4,1.3-0.4,1.3c0.3-0.7,1.2-1.1,1.2-1.1
				c-0.6,0.3-0.8,0.9-0.8,0.9c-0.3,0.8,0.2,1,0.2,1c0-0.4,0.2-0.6,0.2-0.6c0.3,0.1,0.4-0.1,0.4-0.1c0.2-0.9,0.8-0.8,0.8-0.8
				c-0.6,0.2-0.7,0.9-0.7,0.9c-0.1,1.2,0.7,1.2,0.7,1.2c-0.4-0.3-0.2-0.6-0.2-0.6c1-0.1,1.2-0.8,1.2-0.8c0-0.3,0.6-0.4,0.6-0.4
				c-0.4,0.3,0,0.8,0,0.8c-0.1,0.5-0.8,0.5-0.8,0.5c0.8,0.4,1.3-0.2,1.3-0.2c1-0.1,1.2-1.3,1.2-1.3c0.1-0.6,0.7-0.9,0.7-0.9
				c-0.4,1.2,0.4,1.6,0.4,1.6c-0.1-0.8,0.4-1,0.4-1c0.8-0.2,0.7-0.9,0.7-0.9c0.2,0.5,0.6,0.3,0.6,0.3c-0.2-0.2-0.1-0.5-0.1-0.5
				c0-1.1-0.8-1.3-0.8-1.3c-0.5-0.1-0.7-0.6-0.7-0.6c0.9,0.7,1.4,0.4,1.4,0.4c-0.4,0-0.3-0.2-0.3-0.2c0.1-0.5-0.1-1-0.1-1
				c-0.5-0.4-0.3-0.7-0.3-0.7c0.8-0.1,0.6,0.8,0.6,0.8c0.9-0.1,0.7-1,0.7-1c0.4,0.5,0.7,0.2,0.7,0.2c0.2-0.4,0.5-0.7,0.5-0.7
				c-0.7,0.9-1,2.4-1,2.4c0.6-0.5-0.2,1.2-0.2,1.2c0.8-0.4,0,1.1,0,1.1c0.5-0.3,0.3,0.3,0.3,0.3l-0.4,0.6c0.2-0.2,0.4-0.1,0.4-0.1
				c-0.2,1-1.2,1-1.2,1c0.5,0.2,0.9,0,0.9,0c0,0.3-0.5,0.8-0.5,0.8c0.5-0.2,0.9-0.8,0.9-0.8c0.5-0.2,1.2-1.2,1.2-1.2
				c0,0.3,0.2,0.4,0.2,0.4l0.1,0.2h0.2l0,0.6c0-0.2,0.3-0.1,0.3-0.1l0,0.5c0.2-0.4,0.5-0.2,0.5-0.2l0,0.5l0.3-0.1l0.1,0.6l0.2-0.1
				l0,0.5l0.2,0c-0.1,1.7-0.9,2.1-0.9,2.1c-2.3,1.1-2.1,1.8-2.1,1.8c-0.7,0.7-0.1,1.3-0.1,1.3c0-0.5,0.5-0.9,0.5-0.9l0,0
				c0.1-0.2,0.6-0.4,0.6-0.4c-0.6,0.4-0.6,0.8-0.6,0.8c0,0.2,0.1,0.3,0.1,0.3c-0.5,0.7,0.4,1.1,0.4,1.1c-0.2-0.4,0-0.8,0-0.8
				c0.2,0,0.3,0,0.3,0V75c0-0.8,0.5-1,0.5-1c-0.6,0.5-0.4,1-0.4,1s0.2,1.3,1.3,1c0,0-0.5-0.1-0.6-0.5l0,0c0.6-0.2,0.9-1.1,0.9-1.1
				c0.9,0,0.8-0.7,0.8-0.7c0-0.5,0.6-0.7,0.6-0.7c-0.3,0.8,0,0.9,0,0.9c0,0.7-0.4,0.8-0.4,0.8c0.8,0,0.9-0.8,0.9-0.8
				c0.9-0.4,0.5-1.6,0.5-1.6c0.7-0.1,0.6,0.7,0.6,0.7c0.9-0.6,0.7-1.4,0.7-1.4c-0.5-0.6,0-0.7,0-0.7c0.8,0,0.4,1,0.4,1
				c0.7-0.2,0.7-1.1,0.7-1.1c1-0.3,0.9-1.4,0.9-1.4s-0.5,0.9-1.2,0.1c0,0-0.3-0.4,0.7-0.5c0,0,0-0.7-1.3-0.7c0,0-0.7,0-0.6-0.6
				c0,0,0-0.5,0.8,0.2c0,0,0.1-1-1-1c0,0-0.3,0.1-0.3-0.2c0,0,0.7-0.2,0.8-1.2c0,0-1.4,1.1-1.6-0.4c0,0-0.1-0.5,0.4-0.5
				c0,0,0.4-0.1,0.4,0.6c0,0,0.7-0.7,0.1-1.1c0,0,0.7-0.3,0.5-1c0,0-0.6,1.1-1,0.2c0,0-0.2-0.2,0.2-0.5c0,0,0.5-0.5,0.6-1.2
				c0,0,0.1,0,0.1,0.5c0,0,0.9,1.1,2.9,0.7c0,0,2-0.4,2.7-2c0,0,1,0.2,1.7-0.3c0,0-0.4-0.2,0.1-0.5c0,0,0.5-0.2,0.7-0.6
				c0,0-0.5,0.4-0.5,0c0,0,0.3-1.5-0.7-1.8c0,0-0.4-1.4-1.8-1.3c0,0,0.2-0.1,0.4-0.2c0,0-1.5-2-0.6-3.3c0,0-0.8-0.3-0.7-1
				c0,0,0-0.9,1-0.9c0,0,0.7,0,0.7,0.8c0,0,0,0.5-0.5,0.8c0,0,0.8,0,1-1.2c0,0,0.2-1.5-1.6-1.5c0,0-1.6,0-2.1,1.7l0-0.8
				c0,0-0.6-1.6-0.7-3c0,0-0.7-4.8,3.7-4.5c0,0-0.3,1.4-1,1.8c0,0-0.7,0.2-0.6-0.9c0,0-0.9,1.2,0.6,1.4c0,0,0.7,0.2,1.4-0.7
				c0,0,0.5,0.5,0.4,1.3c0,0-0.2,0.7-0.8,0.7c0,0-0.4-0.1-0.2-0.9c0,0-0.6,0.2-0.6,1c0,0-0.1,0.8,1.3,0.7c0,0-0.7,2.2,1.3,2.3
				c0,0-1-0.4-0.3-1.6v0c0,0,0.8-0.4,0.7-1.5c0,0,0.7,0.2,0.7,0.9c0,0-0.1,0.7-1,0.7c0,0,1.3,1.2,2.2-1.1c0,0,0.3-0.8-0.3-1.2
				c0,0,0.5,0,0.7-0.4c0,0,0.6,0.1,0.6,0.7c0,0-0.1,0.6-0.5,0.7c0,0,0.9,0.1,0.7-1.5C138.5,45.5,138.5,45,137.9,44.9z M119.8,42.1
				c0.1-0.1,0.2-0.4,0.6-0.1c0,0,0-0.7,0.5-0.7c0,0,0.2,0,0.3,0.6C121.2,42,120.5,42.1,119.8,42.1z M121.9,40.1l0.1-0.5
				c0.4-0.1,0.7,0.4,0.7,0.4C122.4,40.2,121.9,40.1,121.9,40.1z M123.8,41.4c1.3,0.3,2.1-0.8,2.1-0.8c-0.6,0-1.1-0.3-1.1-0.3
				c-0.6-0.6-1.3,0.3-1.3,0.3c0.6-1,1.4-0.4,1.4-0.4c0.4,0.3,1.2,0.3,1.2,0.3C125.1,42.1,123.8,41.4,123.8,41.4z"/>
		</g>
	</g>
	<g id="XMLID_4810_">
		<polygon id="XMLID_4818_" points="76.3,214.9 79.3,213.1 76.3,211.4 79,209.3 75.8,208 78.3,205.6 74.9,204.7 77,201.9 
			73.6,201.5 75.3,198.5 71.9,198.5 73.2,195.3 69.8,195.7 70.7,192.4 67.3,193.3 67.8,189.9 64.6,191.2 64.6,187.7 61.6,189.5 
			61.2,186.1 58.4,188.2 57.5,184.8 55.1,187.3 53.8,184.1 51.7,186.8 49.9,183.8 48.2,186.8 46.1,184.1 44.8,187.3 42.4,184.8 
			41.5,188.2 38.7,186.1 38.3,189.5 35.3,187.7 35.3,191.2 32.1,189.9 32.6,193.3 29.2,192.4 30.1,195.7 26.7,195.3 28,198.5 
			24.6,198.5 26.3,201.5 22.9,201.9 25,204.7 21.6,205.5 24.1,208 20.9,209.3 23.6,211.4 20.6,213.1 23.6,214.9 20.9,217 
			24.1,218.3 21.6,220.7 25,221.6 22.9,224.4 26.3,224.8 24.6,227.8 28,227.8 26.7,231 30.1,230.5 29.2,233.9 32.6,233 32.1,236.4 
			35.3,235.1 35.3,238.5 38.3,236.8 38.7,240.2 41.5,238.1 42.4,241.5 44.8,239 46.1,242.2 48.2,239.5 49.9,242.5 51.7,239.5 
			53.8,242.2 55.1,239 57.5,241.5 58.4,238.1 61.2,240.2 61.6,236.8 64.6,238.5 64.6,235.1 67.8,236.4 67.3,233 70.7,233.9 
			69.8,230.5 73.2,231 71.9,227.8 75.3,227.8 73.6,224.8 77,224.4 74.9,221.6 78.3,220.7 75.8,218.3 79,217 		"/>
		<radialGradient id="XMLID_4_" cx="49.9468" cy="213.1378" r="25.1756" gradientUnits="userSpaceOnUse">
			<stop  offset="0" style="stop-color:#F7A516"/>
			<stop  offset="1" style="stop-color:#F0E400"/>
		</radialGradient>
		<circle id="XMLID_4817_" class="st4" cx="49.9" cy="213.1" r="25.2"/>
		<g id="XMLID_4811_">
			<path id="XMLID_4812_" class="st2" d="M64.9,201.9c0,0,1.4-0.6,0.6-2.1c0,0,0.3,1.4-0.8,1.4c0,0-0.8,0-0.9-0.5c0,0,1.2,0,0.8-1.3
				c0,0,0.2,0.8-0.9,0.8c0,0-0.6,0-1-0.5c0,0,1.6-0.3,0.6-1.8c0,0,0.1,1-0.7,1.1c0,0-0.9-0.2-1.3,0.5c0,0-1.8-1.6-3.9,0
				c0,0-2.1,1.6-2,4.3c0,0,0,1.2,0.4,2.4c0,0,0.4,1.7,1,2.2l0.4,0.2c0,0-2.4-0.6-2.6,1.2c0,0-0.1,0.7,0.4,1.3c0,0-0.2-0.9,0.5-1.1
				c0,0,0.7-0.2,0.8,0.2c0,0-0.9,0.6-0.2,1.6c0,0-0.3-1.3,1.2-0.9c0,0-1,0.7-0.1,1.5c0,0-0.2-1.1,0.5-1.2c0,0,0.2,0.4,0.9,0.1
				l0.7,1.5c0,0-1.3,0.1-1.3,1.6c0,0,0.3-0.5,0.8-0.4c0,0-0.2,0.9-1.8,0.8c0,0-0.9-0.1-0.5-1.6c0,0-0.7,0.4-0.6,1.8c0,0-0.2,1,1.3,1
				c0,0,0.7,0,1.2-0.1c0,0,1.1,0.1,0.9,1.2c0,0-0.3,1.2-2.2,1.2c0,0-2.1,0.2-2.2-1.3c0,0-0.1-1-0.6-1.7c0,0-1.2-2.4-1.8-5.5
				c0,0-0.7,0.4-1.1-0.3c0,0,1.4,0.7,1.7-0.8c0,0,0.2-1-0.5-1.2l0-0.5c0,0-0.6-0.4-0.7-1.5c0,0,0.2,1.5,1.7,1.5c0,0,0.7-0.1,0.8-0.7
				c0,0-1,0.6-1.2-0.3c0,0-0.1-0.4,0-0.8c0,0,0.2-0.6-0.2-1.1c0,0-0.5-0.3-0.3-1.4c0,0,0.2,2.1,1.7,2c0,0-0.3-0.1-0.3-0.7l0-0.9
				c0,0-0.3,0-0.4-0.2c0,0,1.1,0.2,1.3-0.5c0,0,0.4-0.8-0.6-1.4c0,0,0.3,0.1,0.7-0.1c0,0-0.8-0.6-0.8-1.6c0,0,0.4,0.2,1.1-0.2
				c0,0-1,0.1-1.2-1c0,0,0.6,0.1,0.9-0.1c0,0-0.5-0.3-0.6-0.6c0,0,0-0.4-0.7-0.4c0,0,0.6-0.5,0.1-1.1c0,0,0,0.6-0.7,0.7
				c0,0,0.5-0.9-0.2-1.4c0,0,0.5,1-0.6,1.2c0,0,0.5-1.1-0.5-1.5c0,0,0.5,0.7-0.1,1.1c0,0-2-0.2-2.4-0.1l-0.7,0.7c0,0-1.8,0-2,0.4
				c0,0,0.1,1.3,0.4,1.8c-0.2,0-0.5,0-0.7,0c0,0-1.4-0.2-0.7-0.9l0.1-0.1c0,0-1.2-0.9-1.6,0.2c0,0-0.3,1.2,1.1,1.3c0,0,0,0,0,0
				c1.4,0.1,2-0.4,2-0.4s0.5-0.2,1.2,0c0,0,0.3,0.6-0.2,0.6c0,0-0.3,0.1-0.3-0.4c0,0-0.1-0.1-0.3,0.2c0,0-0.4,0.3-0.4-0.2
				c0,0-0.6,0.1-0.5,1.4c0,0,2.3-0.9,2.4,0.7c0,0-0.3-0.7-1-0.6c0,0-0.1,0.8-0.9,0.7c0,0-1.8-0.7-2.4,0.5c0,0-0.4,0.5-0.5,1.2
				c0,0,0,0.4-0.5,0.4c0,0-0.3,0-0.4-0.4c0,0-0.2,0.3,0.3,0.9c0,0-0.8-0.4-0.2-1.2c0,0-0.1,0.6,0.3,0.7c0,0,0.3,0,0.3-0.3
				c0,0,0.1-0.8,0.6-1.3l0-0.2l-0.1-0.1l-0.2,0l-0.1-0.5l-0.2,0.2l-0.3-0.4l-0.1,0l-0.1-0.3l-0.1,0l-0.1-0.1l-0.1-0.1l0-0.1
				l-0.1-0.3l-0.2,0v-0.3l-0.1,0l-0.1-0.1v-0.5l-0.2,0.2L42,199v-0.4l-0.2,0.1l-0.3-0.4c0,0,0.5-3.2-0.3-4.2c0,0,0.1-0.8-0.7-0.8
				c0,0,0.3,0.2,0.3,0.6c0,0-0.5-0.2-0.6,0c0,0,0.4,0.3,0.2,1c0,0,0-0.6-0.4-1.1c0,0,0-0.9-0.9-0.5c0,0,0.5,0,0.5,0.4c0,0,0,0,0,0
				c0,0-0.3,0.3-0.4,0.5c0,0,0.4,0.3,0.3,0.8c0,0-0.2-0.7-0.8-0.9c0,0-0.6-0.4-0.9,0.2c0,0,0.7-0.2,0.7,0.2c0,0-0.6,0.8,0.9,1.7
				c0,0-0.2,0.2-0.2,0.9c0,0-0.1-0.2-0.5,0c0,0-0.1-0.4,0.2-0.7c0,0-0.9,0-0.5,1.2c0,0-0.2,1,0.9,1.5c0,0-1.2-0.2-1.2,0.6
				c0,0,0.5-0.5,1,0.1c0,0,0.2,0.3,0.7,0.3c0,0-1.1,0.9,0.1,1.5c0,0,0-0.8,0.9-0.6c0,0-0.3,0.6,0.3,1.2c0,0-0.4,0.4,0.2,1.1
				c0,0,0-0.5,0.2-0.5c0,0,0.3,0,0.3,0.6c0,0-1.2,1.7-1.3,0.3c0,0-0.6,0.9,0.5,1c0,0,0.3,0,0.9-0.5c0,0,0.4-0.3,0.5,0.1c0,0,0,0,0,0
				c0,0.5-0.2,0.4-0.7,0.4c0,0,0,0.9,1.5,0.5c0,0,0.3,0.2-0.4,0.2c0,0-0.8,0-0.8,0.8c0,0,0.4-0.6,0.7-0.2c0,0,0.2,0.4-0.6,0.6
				c0,0-0.7,0.2-1-0.6c0,0-0.3,0.8,0.8,0.9c0,0,0,0.2-1.1,0.2l0.3,0.2l-0.6-0.1c0,0-0.2-0.1,0,0.2c0,0-0.2-0.2-0.5,0
				c0,0,0.5,0.2-0.2,0.3c0,0-2.6-0.4-3.1-1c0,0-0.6-0.4-1.4-0.1c0,0-0.9-0.5-0.9,0.5c0,0,0.1-0.2,0.6-0.2c0,0-0.1,0.3,0.2,0.3
				c0,0,0.4,0,0.6,0.1c0,0-0.6-0.1-1.1,0.1c0,0-0.6-0.1-0.5,1c0,0,0-0.4,0.5-0.5c0,0,0.3,0.2,0,0.5c0,0-0.7,0.7,0.2,1.2
				c0,0-0.2-0.6,0.1-0.7c0,0,0.3,0.5,1,0c0,0,0.7,0.1,0.9-0.1c0,0,0.4-0.3,0.5,0.1c0,0,0,0,0,0.1c0,0-0.6-0.1-0.6,0.2
				c0,0-0.3,0.7-0.8,0.1c0,0,0,0.9,0.9,0.5c0,0,1.3,0.3,1.9-0.8c0,0,0.2,0.6-0.5,1.1c0,0,0.6,0.1,1.3-0.6c0,0-0.4,1,1.5,0.6
				c0,0-0.6-0.1-0.6-0.8c0,0,0.1-0.6,0.6,0c0,0,0.6,0.7,1.2,0.5c0,0-0.2-0.1-0.2-0.6c0,0,0-0.3,0.5-0.3c0,0,0.4,0,0.3,0.4
				c0,0,0,0.4-0.4,0.6c0,0,0.8,0.4,1-0.5c0,0,0-0.4,0.5-0.4c0,0,0.5,0.1,0,0.7c0,0,0.4,0,0.5-0.9c0,0,0.1-0.6,0.4-0.1l0,0.1
				c0.1,0.3-0.3,0.4-0.3,0.4c0.4,0,0.5-0.3,0.5-0.3c0.3-0.2,0-0.7,0-0.7c0.4,0.3,0.1,0.7,0.1,0.7c0.6,1.6,2.6,3.3,2.6,3.3
				c1.8,1.3,2,2.7,2,2.7c0.2,1.3-0.4,2-0.4,2c0.4-0.6,0.2-1.5,0.2-1.5c-0.7-0.2-1.9-1.3-1.9-1.3l0.1,0.3c-0.7-0.4-1.7-0.2-1.7-0.2
				c-0.6,0.1-1.4-0.1-1.4-0.1c0.9,0.4-0.4,0.6-0.4,0.6c-0.8,0.1-1.7-0.3-1.7-0.3c0.2,0.5,1.1,0.5,1.1,0.5c-1,0.3-1.1,0.8-1.1,0.8
				c-0.5,0.8-1.2,0.8-1.2,0.8c-0.7,0-0.6-0.8-0.6-0.8c-0.2,0.2-0.2,0.5-0.2,0.5c-0.2,0-0.4-0.4-0.4-0.4c0,0.9,1.3,1.4,1.3,1.4
				c-0.1,1-1.2,1-1.2,1c1.3,0.5,2-0.1,2-0.1c-0.1,0.6-0.8,1.1-0.8,1.1c0.5,0,0.8-0.5,0.8-0.5c0,1-0.5,1.3-0.5,1.3
				c0.3,0,0.6-0.4,0.6-0.4c-0.2,0.6-0.4,0.7-0.4,0.7c0.3,0.1,0.5-0.1,0.5-0.1c0,0.5-0.3,0.6-0.3,0.6c0.5,0,0.9-0.4,0.9-0.4
				c0.3,0.1,0.2,0.5,0.2,0.5c-0.2,1-1.6,0.9-1.6,0.9c-1.5,0.1-2,1.1-2,1.1c-0.7,0.8-0.4,1.3-0.4,1.3c0.3-0.7,1.2-1.1,1.2-1.1
				c-0.6,0.3-0.8,0.9-0.8,0.9c-0.3,0.8,0.2,1,0.2,1c0-0.4,0.2-0.6,0.2-0.6c0.3,0.1,0.4-0.1,0.4-0.1c0.2-0.9,0.8-0.8,0.8-0.8
				c-0.6,0.2-0.7,0.9-0.7,0.9c-0.1,1.2,0.7,1.2,0.7,1.2c-0.4-0.3-0.2-0.6-0.2-0.6c1-0.1,1.2-0.8,1.2-0.8c0-0.3,0.6-0.4,0.6-0.4
				c-0.4,0.3,0,0.8,0,0.8c-0.1,0.5-0.8,0.5-0.8,0.5c0.8,0.4,1.3-0.2,1.3-0.2c1-0.1,1.2-1.3,1.2-1.3c0.1-0.6,0.7-0.9,0.7-0.9
				c-0.4,1.2,0.4,1.6,0.4,1.6c-0.1-0.8,0.4-1,0.4-1c0.8-0.2,0.7-0.9,0.7-0.9c0.2,0.5,0.6,0.3,0.6,0.3c-0.2-0.2-0.1-0.5-0.1-0.5
				c0-1.1-0.8-1.3-0.8-1.3c-0.5-0.1-0.7-0.6-0.7-0.6c0.9,0.7,1.4,0.4,1.4,0.4c-0.4,0-0.3-0.2-0.3-0.2c0.1-0.5-0.1-1-0.1-1
				c-0.5-0.4-0.3-0.7-0.3-0.7c0.8-0.1,0.6,0.8,0.6,0.8c0.9-0.1,0.7-1,0.7-1c0.4,0.5,0.7,0.2,0.7,0.2c0.2-0.4,0.5-0.7,0.5-0.7
				c-0.7,0.9-1,2.4-1,2.4c0.6-0.5-0.2,1.2-0.2,1.2c0.8-0.4,0,1.1,0,1.1c0.5-0.3,0.3,0.3,0.3,0.3l-0.4,0.6c0.2-0.2,0.4-0.1,0.4-0.1
				c-0.2,1-1.2,1-1.2,1c0.5,0.2,0.9,0,0.9,0c0,0.3-0.5,0.8-0.5,0.8c0.5-0.2,0.9-0.8,0.9-0.8c0.5-0.2,1.2-1.2,1.2-1.2
				c0,0.3,0.2,0.4,0.2,0.4l0.1,0.2h0.2l0,0.6c0-0.2,0.3-0.1,0.3-0.1l0,0.5c0.2-0.4,0.5-0.2,0.5-0.2l0,0.5l0.3-0.1l0.1,0.6l0.2-0.1
				l0,0.5l0.2,0c-0.1,1.7-0.9,2.1-0.9,2.1c-2.3,1.1-2.1,1.8-2.1,1.8c-0.7,0.7-0.1,1.3-0.1,1.3c0-0.5,0.5-0.9,0.5-0.9l0,0
				c0.1-0.2,0.6-0.4,0.6-0.4c-0.6,0.4-0.6,0.8-0.6,0.8c0,0.2,0.1,0.3,0.1,0.3c-0.5,0.7,0.4,1.1,0.4,1.1c-0.2-0.4,0-0.8,0-0.8
				c0.2,0,0.3,0,0.3,0v-0.1c0-0.8,0.5-1,0.5-1c-0.6,0.5-0.4,1-0.4,1s0.2,1.3,1.3,1c0,0-0.5-0.1-0.6-0.5l0,0c0.6-0.2,0.9-1.1,0.9-1.1
				c0.9,0,0.8-0.7,0.8-0.7c0-0.5,0.6-0.7,0.6-0.7c-0.3,0.8,0,0.9,0,0.9c0,0.7-0.4,0.8-0.4,0.8c0.8,0,0.9-0.8,0.9-0.8
				c0.9-0.4,0.5-1.6,0.5-1.6c0.7-0.1,0.6,0.7,0.6,0.7c0.9-0.6,0.7-1.4,0.7-1.4c-0.5-0.6,0-0.7,0-0.7c0.8,0,0.4,1,0.4,1
				c0.7-0.2,0.7-1.1,0.7-1.1c1-0.3,0.9-1.4,0.9-1.4s-0.5,0.9-1.2,0.1c0,0-0.3-0.4,0.7-0.5c0,0,0-0.7-1.3-0.7c0,0-0.7,0-0.6-0.6
				c0,0,0-0.5,0.8,0.2c0,0,0.1-1-1-1c0,0-0.3,0.1-0.3-0.2c0,0,0.7-0.2,0.8-1.2c0,0-1.4,1.1-1.6-0.4c0,0-0.1-0.5,0.4-0.5
				c0,0,0.4-0.1,0.4,0.6c0,0,0.7-0.7,0.1-1.1c0,0,0.7-0.3,0.5-1c0,0-0.6,1.1-1,0.2c0,0-0.2-0.2,0.2-0.5c0,0,0.5-0.5,0.6-1.2
				c0,0,0.1,0,0.1,0.5c0,0,0.9,1.1,2.9,0.7c0,0,2-0.4,2.7-2c0,0,1,0.2,1.7-0.3c0,0-0.4-0.2,0.1-0.5c0,0,0.5-0.2,0.7-0.6
				c0,0-0.5,0.4-0.5,0c0,0,0.3-1.5-0.7-1.8c0,0-0.4-1.4-1.8-1.3c0,0,0.2-0.1,0.4-0.2c0,0-1.5-2-0.6-3.3c0,0-0.8-0.3-0.7-1
				c0,0,0-0.9,1-0.9c0,0,0.7,0,0.7,0.8c0,0,0,0.5-0.5,0.8c0,0,0.8,0,1-1.2c0,0,0.2-1.5-1.6-1.5c0,0-1.6,0-2.1,1.7l0-0.8
				c0,0-0.6-1.6-0.7-3c0,0-0.7-4.8,3.7-4.5c0,0-0.3,1.4-1,1.8c0,0-0.7,0.2-0.6-0.9c0,0-0.9,1.2,0.6,1.4c0,0,0.7,0.2,1.4-0.7
				c0,0,0.5,0.5,0.4,1.3c0,0-0.2,0.7-0.8,0.7c0,0-0.4-0.1-0.2-0.9c0,0-0.6,0.2-0.6,1c0,0-0.1,0.8,1.3,0.7c0,0-0.7,2.2,1.3,2.3
				c0,0-1-0.4-0.3-1.6v0c0,0,0.8-0.4,0.7-1.5c0,0,0.7,0.2,0.7,0.9c0,0-0.1,0.7-1,0.7c0,0,1.3,1.2,2.2-1.1c0,0,0.3-0.8-0.3-1.2
				c0,0,0.5,0,0.7-0.4c0,0,0.6,0.1,0.6,0.7c0,0-0.1,0.6-0.5,0.7c0,0,0.9,0.1,0.7-1.5C65.5,202.5,65.4,202,64.9,201.9z M46.8,199.1
				c0.1-0.1,0.2-0.4,0.6-0.1c0,0,0-0.7,0.5-0.7c0,0,0.2,0,0.3,0.6C48.2,198.9,47.5,199.1,46.8,199.1z M48.9,197.1l0.1-0.5
				c0.4-0.1,0.7,0.4,0.7,0.4C49.4,197.2,48.9,197.1,48.9,197.1z M50.8,198.4c1.3,0.3,2.1-0.8,2.1-0.8c-0.6,0-1.1-0.3-1.1-0.3
				c-0.6-0.6-1.3,0.3-1.3,0.3c0.6-1,1.4-0.4,1.4-0.4c0.4,0.3,1.2,0.3,1.2,0.3C52.1,199.1,50.8,198.4,50.8,198.4z"/>
		</g>
	</g>
	<g id="XMLID_4801_">
		<polygon id="XMLID_4809_" points="149.3,214.9 152.3,213.1 149.3,211.4 152,209.3 148.8,208 151.3,205.6 147.9,204.7 150.1,201.9 
			146.6,201.5 148.4,198.5 144.9,198.5 146.2,195.3 142.8,195.7 143.7,192.4 140.4,193.3 140.8,189.9 137.6,191.2 137.6,187.7 
			134.6,189.5 134.2,186.1 131.4,188.2 130.6,184.8 128.1,187.3 126.8,184.1 124.7,186.8 123,183.8 121.2,186.8 119.1,184.1 
			117.8,187.3 115.4,184.8 114.5,188.2 111.7,186.1 111.3,189.5 108.3,187.7 108.3,191.2 105.1,189.9 105.6,193.3 102.2,192.4 
			103.1,195.7 99.7,195.3 101,198.5 97.6,198.5 99.3,201.5 95.9,201.9 98,204.7 94.6,205.5 97.1,208 93.9,209.3 96.6,211.4 
			93.7,213.1 96.6,214.9 93.9,217 97.1,218.3 94.6,220.7 98,221.6 95.9,224.4 99.3,224.8 97.6,227.8 101,227.8 99.7,231 
			103.1,230.5 102.2,233.9 105.6,233 105.1,236.4 108.3,235.1 108.3,238.5 111.3,236.8 111.7,240.2 114.5,238.1 115.4,241.5 
			117.8,239 119.1,242.2 121.2,239.5 123,242.5 124.7,239.5 126.8,242.2 128.1,239 130.6,241.5 131.4,238.1 134.2,240.2 
			134.6,236.8 137.6,238.5 137.6,235.1 140.8,236.4 140.4,233 143.7,233.9 142.8,230.5 146.2,231 144.9,227.8 148.4,227.8 
			146.6,224.8 150.1,224.4 147.9,221.6 151.3,220.7 148.8,218.3 152,217 		"/>
		<radialGradient id="XMLID_5_" cx="122.9663" cy="213.1378" r="25.1756" gradientUnits="userSpaceOnUse">
			<stop  offset="0" style="stop-color:#F7A516"/>
			<stop  offset="1" style="stop-color:#F0E400"/>
		</radialGradient>
		<circle id="XMLID_4808_" class="st5" cx="123" cy="213.1" r="25.2"/>
		<g id="XMLID_4802_">
			<path id="XMLID_4803_" class="st2" d="M137.9,201.9c0,0,1.4-0.6,0.6-2.1c0,0,0.3,1.4-0.8,1.4c0,0-0.8,0-0.9-0.5
				c0,0,1.2,0,0.8-1.3c0,0,0.2,0.8-0.9,0.8c0,0-0.6,0-1-0.5c0,0,1.6-0.3,0.6-1.8c0,0,0.1,1-0.7,1.1c0,0-0.9-0.2-1.3,0.5
				c0,0-1.8-1.6-3.9,0c0,0-2.1,1.6-2,4.3c0,0,0,1.2,0.4,2.4c0,0,0.4,1.7,1,2.2l0.4,0.2c0,0-2.4-0.6-2.6,1.2c0,0-0.1,0.7,0.4,1.3
				c0,0-0.2-0.9,0.5-1.1c0,0,0.7-0.2,0.8,0.2c0,0-0.9,0.6-0.2,1.6c0,0-0.3-1.3,1.2-0.9c0,0-1,0.7-0.1,1.5c0,0-0.2-1.1,0.5-1.2
				c0,0,0.2,0.4,0.9,0.1l0.7,1.5c0,0-1.3,0.1-1.3,1.6c0,0,0.3-0.5,0.8-0.4c0,0-0.2,0.9-1.8,0.8c0,0-0.9-0.1-0.5-1.6
				c0,0-0.7,0.4-0.6,1.8c0,0-0.2,1,1.3,1c0,0,0.7,0,1.2-0.1c0,0,1.1,0.1,0.9,1.2c0,0-0.3,1.2-2.2,1.2c0,0-2.1,0.2-2.2-1.3
				c0,0-0.1-1-0.6-1.7c0,0-1.2-2.4-1.8-5.5c0,0-0.7,0.4-1.1-0.3c0,0,1.4,0.7,1.7-0.8c0,0,0.2-1-0.5-1.2l0-0.5c0,0-0.6-0.4-0.7-1.5
				c0,0,0.2,1.5,1.7,1.5c0,0,0.7-0.1,0.8-0.7c0,0-1,0.6-1.2-0.3c0,0-0.1-0.4,0-0.8c0,0,0.2-0.6-0.2-1.1c0,0-0.5-0.3-0.3-1.4
				c0,0,0.2,2.1,1.7,2c0,0-0.3-0.1-0.3-0.7l0-0.9c0,0-0.3,0-0.4-0.2c0,0,1.1,0.2,1.3-0.5c0,0,0.4-0.8-0.6-1.4c0,0,0.3,0.1,0.7-0.1
				c0,0-0.8-0.6-0.8-1.6c0,0,0.4,0.2,1.1-0.2c0,0-1,0.1-1.2-1c0,0,0.6,0.1,0.9-0.1c0,0-0.5-0.3-0.6-0.6c0,0,0-0.4-0.7-0.4
				c0,0,0.6-0.5,0.1-1.1c0,0,0,0.6-0.7,0.7c0,0,0.5-0.9-0.2-1.4c0,0,0.5,1-0.6,1.2c0,0,0.5-1.1-0.5-1.5c0,0,0.5,0.7-0.1,1.1
				c0,0-2-0.2-2.4-0.1l-0.7,0.7c0,0-1.8,0-2,0.4c0,0,0.1,1.3,0.4,1.8c-0.2,0-0.5,0-0.7,0c0,0-1.4-0.2-0.7-0.9l0.1-0.1
				c0,0-1.2-0.9-1.6,0.2c0,0-0.3,1.2,1.1,1.3c0,0,0,0,0,0c1.4,0.1,2-0.4,2-0.4s0.5-0.2,1.2,0c0,0,0.3,0.6-0.2,0.6
				c0,0-0.3,0.1-0.3-0.4c0,0-0.1-0.1-0.3,0.2c0,0-0.4,0.3-0.4-0.2c0,0-0.6,0.1-0.5,1.4c0,0,2.3-0.9,2.4,0.7c0,0-0.3-0.7-1-0.6
				c0,0-0.1,0.8-0.9,0.7c0,0-1.8-0.7-2.4,0.5c0,0-0.4,0.5-0.5,1.2c0,0,0,0.4-0.5,0.4c0,0-0.3,0-0.4-0.4c0,0-0.2,0.3,0.3,0.9
				c0,0-0.8-0.4-0.2-1.2c0,0-0.1,0.6,0.3,0.7c0,0,0.3,0,0.3-0.3c0,0,0.1-0.8,0.6-1.3l0-0.2l-0.1-0.1l-0.2,0l-0.1-0.5l-0.2,0.2
				l-0.3-0.4l-0.1,0l-0.1-0.3l-0.1,0l-0.1-0.1l-0.1-0.1l0-0.1l-0.1-0.3l-0.2,0v-0.3l-0.1,0l-0.1-0.1v-0.5l-0.2,0.2L115,199v-0.4
				l-0.2,0.1l-0.3-0.4c0,0,0.5-3.2-0.3-4.2c0,0,0.1-0.8-0.7-0.8c0,0,0.3,0.2,0.3,0.6c0,0-0.5-0.2-0.6,0c0,0,0.4,0.3,0.2,1
				c0,0,0-0.6-0.4-1.1c0,0,0-0.9-0.9-0.5c0,0,0.5,0,0.5,0.4c0,0,0,0,0,0c0,0-0.3,0.3-0.4,0.5c0,0,0.4,0.3,0.3,0.8
				c0,0-0.2-0.7-0.8-0.9c0,0-0.6-0.4-0.9,0.2c0,0,0.7-0.2,0.7,0.2c0,0-0.6,0.8,0.9,1.7c0,0-0.2,0.2-0.2,0.9c0,0-0.1-0.2-0.5,0
				c0,0-0.1-0.4,0.2-0.7c0,0-0.9,0-0.5,1.2c0,0-0.2,1,0.9,1.5c0,0-1.2-0.2-1.2,0.6c0,0,0.5-0.5,1,0.1c0,0,0.2,0.3,0.7,0.3
				c0,0-1.1,0.9,0.1,1.5c0,0,0-0.8,0.9-0.6c0,0-0.3,0.6,0.3,1.2c0,0-0.4,0.4,0.2,1.1c0,0,0-0.5,0.2-0.5c0,0,0.3,0,0.3,0.6
				c0,0-1.2,1.7-1.3,0.3c0,0-0.6,0.9,0.5,1c0,0,0.3,0,0.9-0.5c0,0,0.4-0.3,0.5,0.1c0,0,0,0,0,0c0,0.5-0.2,0.4-0.7,0.4
				c0,0,0,0.9,1.5,0.5c0,0,0.3,0.2-0.4,0.2c0,0-0.8,0-0.8,0.8c0,0,0.4-0.6,0.7-0.2c0,0,0.2,0.4-0.6,0.6c0,0-0.7,0.2-1-0.6
				c0,0-0.3,0.8,0.8,0.9c0,0,0,0.2-1.1,0.2l0.3,0.2l-0.6-0.1c0,0-0.2-0.1,0,0.2c0,0-0.2-0.2-0.5,0c0,0,0.5,0.2-0.2,0.3
				c0,0-2.6-0.4-3.1-1c0,0-0.6-0.4-1.4-0.1c0,0-0.9-0.5-0.9,0.5c0,0,0.1-0.2,0.6-0.2c0,0-0.1,0.3,0.2,0.3c0,0,0.4,0,0.6,0.1
				c0,0-0.6-0.1-1.1,0.1c0,0-0.6-0.1-0.5,1c0,0,0-0.4,0.5-0.5c0,0,0.3,0.2,0,0.5c0,0-0.7,0.7,0.2,1.2c0,0-0.2-0.6,0.1-0.7
				c0,0,0.3,0.5,1,0c0,0,0.7,0.1,0.9-0.1c0,0,0.4-0.3,0.5,0.1c0,0,0,0,0,0.1c0,0-0.6-0.1-0.6,0.2c0,0-0.3,0.7-0.8,0.1
				c0,0,0,0.9,0.9,0.5c0,0,1.3,0.3,1.9-0.8c0,0,0.2,0.6-0.5,1.1c0,0,0.6,0.1,1.3-0.6c0,0-0.4,1,1.5,0.6c0,0-0.6-0.1-0.6-0.8
				c0,0,0.1-0.6,0.6,0c0,0,0.6,0.7,1.2,0.5c0,0-0.2-0.1-0.2-0.6c0,0,0-0.3,0.5-0.3c0,0,0.4,0,0.3,0.4c0,0,0,0.4-0.4,0.6
				c0,0,0.8,0.4,1-0.5c0,0,0-0.4,0.5-0.4c0,0,0.5,0.1,0,0.7c0,0,0.4,0,0.5-0.9c0,0,0.1-0.6,0.4-0.1l0,0.1c0.1,0.3-0.3,0.4-0.3,0.4
				c0.4,0,0.5-0.3,0.5-0.3c0.3-0.2,0-0.7,0-0.7c0.4,0.3,0.1,0.7,0.1,0.7c0.6,1.6,2.6,3.3,2.6,3.3c1.8,1.3,2,2.7,2,2.7
				c0.2,1.3-0.4,2-0.4,2c0.4-0.6,0.2-1.5,0.2-1.5c-0.7-0.2-1.9-1.3-1.9-1.3l0.1,0.3c-0.7-0.4-1.7-0.2-1.7-0.2
				c-0.6,0.1-1.4-0.1-1.4-0.1c0.9,0.4-0.4,0.6-0.4,0.6c-0.8,0.1-1.7-0.3-1.7-0.3c0.2,0.5,1.1,0.5,1.1,0.5c-1,0.3-1.1,0.8-1.1,0.8
				c-0.5,0.8-1.2,0.8-1.2,0.8c-0.7,0-0.6-0.8-0.6-0.8c-0.2,0.2-0.2,0.5-0.2,0.5c-0.2,0-0.4-0.4-0.4-0.4c0,0.9,1.3,1.4,1.3,1.4
				c-0.1,1-1.2,1-1.2,1c1.3,0.5,2-0.1,2-0.1c-0.1,0.6-0.8,1.1-0.8,1.1c0.5,0,0.8-0.5,0.8-0.5c0,1-0.5,1.3-0.5,1.3
				c0.3,0,0.6-0.4,0.6-0.4c-0.2,0.6-0.4,0.7-0.4,0.7c0.3,0.1,0.5-0.1,0.5-0.1c0,0.5-0.3,0.6-0.3,0.6c0.5,0,0.9-0.4,0.9-0.4
				c0.3,0.1,0.2,0.5,0.2,0.5c-0.2,1-1.6,0.9-1.6,0.9c-1.5,0.1-2,1.1-2,1.1c-0.7,0.8-0.4,1.3-0.4,1.3c0.3-0.7,1.2-1.1,1.2-1.1
				c-0.6,0.3-0.8,0.9-0.8,0.9c-0.3,0.8,0.2,1,0.2,1c0-0.4,0.2-0.6,0.2-0.6c0.3,0.1,0.4-0.1,0.4-0.1c0.2-0.9,0.8-0.8,0.8-0.8
				c-0.6,0.2-0.7,0.9-0.7,0.9c-0.1,1.2,0.7,1.2,0.7,1.2c-0.4-0.3-0.2-0.6-0.2-0.6c1-0.1,1.2-0.8,1.2-0.8c0-0.3,0.6-0.4,0.6-0.4
				c-0.4,0.3,0,0.8,0,0.8c-0.1,0.5-0.8,0.5-0.8,0.5c0.8,0.4,1.3-0.2,1.3-0.2c1-0.1,1.2-1.3,1.2-1.3c0.1-0.6,0.7-0.9,0.7-0.9
				c-0.4,1.2,0.4,1.6,0.4,1.6c-0.1-0.8,0.4-1,0.4-1c0.8-0.2,0.7-0.9,0.7-0.9c0.2,0.5,0.6,0.3,0.6,0.3c-0.2-0.2-0.1-0.5-0.1-0.5
				c0-1.1-0.8-1.3-0.8-1.3c-0.5-0.1-0.7-0.6-0.7-0.6c0.9,0.7,1.4,0.4,1.4,0.4c-0.4,0-0.3-0.2-0.3-0.2c0.1-0.5-0.1-1-0.1-1
				c-0.5-0.4-0.3-0.7-0.3-0.7c0.8-0.1,0.6,0.8,0.6,0.8c0.9-0.1,0.7-1,0.7-1c0.4,0.5,0.7,0.2,0.7,0.2c0.2-0.4,0.5-0.7,0.5-0.7
				c-0.7,0.9-1,2.4-1,2.4c0.6-0.5-0.2,1.2-0.2,1.2c0.8-0.4,0,1.1,0,1.1c0.5-0.3,0.3,0.3,0.3,0.3l-0.4,0.6c0.2-0.2,0.4-0.1,0.4-0.1
				c-0.2,1-1.2,1-1.2,1c0.5,0.2,0.9,0,0.9,0c0,0.3-0.5,0.8-0.5,0.8c0.5-0.2,0.9-0.8,0.9-0.8c0.5-0.2,1.2-1.2,1.2-1.2
				c0,0.3,0.2,0.4,0.2,0.4l0.1,0.2h0.2l0,0.6c0-0.2,0.3-0.1,0.3-0.1l0,0.5c0.2-0.4,0.5-0.2,0.5-0.2l0,0.5l0.3-0.1l0.1,0.6l0.2-0.1
				l0,0.5l0.2,0c-0.1,1.7-0.9,2.1-0.9,2.1c-2.3,1.1-2.1,1.8-2.1,1.8c-0.7,0.7-0.1,1.3-0.1,1.3c0-0.5,0.5-0.9,0.5-0.9l0,0
				c0.1-0.2,0.6-0.4,0.6-0.4c-0.6,0.4-0.6,0.8-0.6,0.8c0,0.2,0.1,0.3,0.1,0.3c-0.5,0.7,0.4,1.1,0.4,1.1c-0.2-0.4,0-0.8,0-0.8
				c0.2,0,0.3,0,0.3,0v-0.1c0-0.8,0.5-1,0.5-1c-0.6,0.5-0.4,1-0.4,1s0.2,1.3,1.3,1c0,0-0.5-0.1-0.6-0.5l0,0c0.6-0.2,0.9-1.1,0.9-1.1
				c0.9,0,0.8-0.7,0.8-0.7c0-0.5,0.6-0.7,0.6-0.7c-0.3,0.8,0,0.9,0,0.9c0,0.7-0.4,0.8-0.4,0.8c0.8,0,0.9-0.8,0.9-0.8
				c0.9-0.4,0.5-1.6,0.5-1.6c0.7-0.1,0.6,0.7,0.6,0.7c0.9-0.6,0.7-1.4,0.7-1.4c-0.5-0.6,0-0.7,0-0.7c0.8,0,0.4,1,0.4,1
				c0.7-0.2,0.7-1.1,0.7-1.1c1-0.3,0.9-1.4,0.9-1.4s-0.5,0.9-1.2,0.1c0,0-0.3-0.4,0.7-0.5c0,0,0-0.7-1.3-0.7c0,0-0.7,0-0.6-0.6
				c0,0,0-0.5,0.8,0.2c0,0,0.1-1-1-1c0,0-0.3,0.1-0.3-0.2c0,0,0.7-0.2,0.8-1.2c0,0-1.4,1.1-1.6-0.4c0,0-0.1-0.5,0.4-0.5
				c0,0,0.4-0.1,0.4,0.6c0,0,0.7-0.7,0.1-1.1c0,0,0.7-0.3,0.5-1c0,0-0.6,1.1-1,0.2c0,0-0.2-0.2,0.2-0.5c0,0,0.5-0.5,0.6-1.2
				c0,0,0.1,0,0.1,0.5c0,0,0.9,1.1,2.9,0.7c0,0,2-0.4,2.7-2c0,0,1,0.2,1.7-0.3c0,0-0.4-0.2,0.1-0.5c0,0,0.5-0.2,0.7-0.6
				c0,0-0.5,0.4-0.5,0c0,0,0.3-1.5-0.7-1.8c0,0-0.4-1.4-1.8-1.3c0,0,0.2-0.1,0.4-0.2c0,0-1.5-2-0.6-3.3c0,0-0.8-0.3-0.7-1
				c0,0,0-0.9,1-0.9c0,0,0.7,0,0.7,0.8c0,0,0,0.5-0.5,0.8c0,0,0.8,0,1-1.2c0,0,0.2-1.5-1.6-1.5c0,0-1.6,0-2.1,1.7l0-0.8
				c0,0-0.6-1.6-0.7-3c0,0-0.7-4.8,3.7-4.5c0,0-0.3,1.4-1,1.8c0,0-0.7,0.2-0.6-0.9c0,0-0.9,1.2,0.6,1.4c0,0,0.7,0.2,1.4-0.7
				c0,0,0.5,0.5,0.4,1.3c0,0-0.2,0.7-0.8,0.7c0,0-0.4-0.1-0.2-0.9c0,0-0.6,0.2-0.6,1c0,0-0.1,0.8,1.3,0.7c0,0-0.7,2.2,1.3,2.3
				c0,0-1-0.4-0.3-1.6v0c0,0,0.8-0.4,0.7-1.5c0,0,0.7,0.2,0.7,0.9c0,0-0.1,0.7-1,0.7c0,0,1.3,1.2,2.2-1.1c0,0,0.3-0.8-0.3-1.2
				c0,0,0.5,0,0.7-0.4c0,0,0.6,0.1,0.6,0.7c0,0-0.1,0.6-0.5,0.7c0,0,0.9,0.1,0.7-1.5C138.5,202.5,138.5,202,137.9,201.9z
				 M119.8,199.1c0.1-0.1,0.2-0.4,0.6-0.1c0,0,0-0.7,0.5-0.7c0,0,0.2,0,0.3,0.6C121.2,198.9,120.5,199.1,119.8,199.1z M121.9,197.1
				l0.1-0.5c0.4-0.1,0.7,0.4,0.7,0.4C122.4,197.2,121.9,197.1,121.9,197.1z M123.8,198.4c1.3,0.3,2.1-0.8,2.1-0.8
				c-0.6,0-1.1-0.3-1.1-0.3c-0.6-0.6-1.3,0.3-1.3,0.3c0.6-1,1.4-0.4,1.4-0.4c0.4,0.3,1.2,0.3,1.2,0.3
				C125.1,199.1,123.8,198.4,123.8,198.4z"/>
		</g>
	</g>
	<path id="XMLID_4798_" class="st6" d="M164,258.6H9V10.7h155V258.6z M11,256.6h151V12.7H11V256.6z"/>
	<g id="XMLID_4794_">
		<path id="XMLID_4795_" d="M20.9,24.7h1.2c0.4,0,0.6-0.2,0.7-0.2c0.1,0,0.1,0.1,0.1,0.2c0,0.1-0.1,0.5-0.1,0.6
			c-0.1,0.2-0.1,0.2-0.3,0.2h-1.5c0,0.5,0,1.8,0,2.5c0,0.5,0.2,0.8,0.7,0.9c0.2,0,0.5,0.1,0.7,0.1c0.1,0,0.1,0.1,0.1,0.1
			c0,0.1-0.1,0.1-0.3,0.1c-0.9,0-1.9,0-2,0s-1,0-1.9,0c-0.2,0-0.3,0-0.3-0.1c0-0.1,0-0.1,0.1-0.1c0.1,0,0.5,0,0.8,0
			c0.5-0.1,0.6-0.4,0.7-0.9c0.1-0.7,0-2,0-2.5h-4.9c-0.2,0-0.3,0-0.3-0.2c0-0.1,0.1-0.3,0.1-0.3c0.1-0.1,5.3-7.2,5.9-7.9
			c0.1-0.2,0.2-0.3,0.3-0.3s0.2,0.1,0.2,0.3c0,0.2,0,1.5,0,2.4V24.7z M19.7,19L19.7,19c-0.3,0.4-3.8,5.3-4.1,5.7h4.1V19z"/>
	</g>
	<g id="XMLID_4790_">
		<path id="XMLID_4791_" d="M152,244.6h-1.2c-0.4,0-0.6,0.2-0.7,0.2c-0.1,0-0.1-0.1-0.1-0.2c0-0.1,0.1-0.5,0.1-0.6
			c0.1-0.2,0.1-0.2,0.3-0.2h1.5c0-0.5,0-1.8,0-2.5c0-0.5-0.2-0.8-0.7-0.9c-0.2,0-0.5-0.1-0.7-0.1c-0.1,0-0.1-0.1-0.1-0.1
			c0-0.1,0.1-0.1,0.3-0.1c0.9,0,1.9,0,2,0s1,0,1.9,0c0.2,0,0.3,0,0.3,0.1c0,0.1,0,0.1-0.1,0.1c-0.1,0-0.5,0-0.8,0
			c-0.5,0.1-0.6,0.4-0.7,0.9c-0.1,0.7,0,2,0,2.5h4.9c0.2,0,0.3,0,0.3,0.2c0,0.1-0.1,0.3-0.1,0.3c-0.1,0.1-5.3,7.2-5.9,7.9
			c-0.1,0.2-0.2,0.3-0.3,0.3s-0.2-0.1-0.2-0.3c0-0.2,0-1.5,0-2.4V244.6z M153.2,250.3L153.2,250.3c0.3-0.4,3.8-5.3,4.1-5.7h-4.1
			V250.3z"/>
	</g>
	<g id="XMLID_4247_">
		<g id="XMLID_4249_">
			<path id="XMLID_4358_" class="st7" d="M41.4,128.7h-2.8l-0.6,1.8h-0.5l2.4-6.4h0.5l2.3,6.4h-0.5L41.4,128.7z M38.8,128.2h2.5
				l-1.2-3.4h0L38.8,128.2z"/>
			<path id="XMLID_4356_" class="st7" d="M44.1,130.4h-0.5v-6.9h0.5V130.4z"/>
			<path id="XMLID_4353_" class="st7" d="M49.3,128.2c0,0.7-0.2,1.3-0.5,1.7c-0.3,0.4-0.8,0.6-1.3,0.6c-0.3,0-0.6-0.1-0.9-0.2
				c-0.3-0.1-0.5-0.3-0.6-0.6l-0.1,0.7h-0.4v-6.9H46v2.8c0.2-0.3,0.4-0.5,0.6-0.6c0.2-0.1,0.5-0.2,0.9-0.2c0.6,0,1,0.2,1.3,0.7
				S49.3,127.3,49.3,128.2L49.3,128.2z M48.8,128.1c0-0.6-0.1-1.1-0.4-1.5s-0.6-0.6-1-0.6c-0.4,0-0.7,0.1-0.9,0.3
				c-0.2,0.2-0.4,0.4-0.5,0.7v2.2c0.1,0.3,0.3,0.5,0.5,0.7c0.2,0.2,0.5,0.2,0.9,0.2c0.5,0,0.8-0.2,1-0.5S48.8,128.8,48.8,128.1
				L48.8,128.1z"/>
			<path id="XMLID_4350_" class="st7" d="M52.3,130.5c-0.6,0-1.1-0.2-1.5-0.7c-0.4-0.4-0.6-1-0.6-1.7V128c0-0.7,0.2-1.3,0.6-1.7
				c0.4-0.4,0.9-0.7,1.4-0.7c0.6,0,1,0.2,1.3,0.6c0.3,0.4,0.5,0.9,0.5,1.5v0.4h-3.3v0.1c0,0.5,0.1,1,0.4,1.3s0.7,0.5,1.1,0.5
				c0.3,0,0.6,0,0.8-0.1s0.4-0.2,0.6-0.4l0.2,0.4c-0.2,0.2-0.4,0.3-0.7,0.4C53,130.5,52.7,130.5,52.3,130.5z M52.3,126.1
				c-0.4,0-0.7,0.1-1,0.4s-0.4,0.7-0.5,1.1l0,0h2.7v-0.1c0-0.4-0.1-0.8-0.3-1S52.7,126.1,52.3,126.1z"/>
			<path id="XMLID_4348_" class="st7" d="M57.3,126.1l-0.4,0c-0.3,0-0.6,0.1-0.8,0.3c-0.2,0.2-0.4,0.4-0.5,0.8v3.3h-0.5v-4.8h0.5
				l0.1,0.8v0.1c0.1-0.3,0.3-0.5,0.6-0.7s0.5-0.2,0.8-0.2c0.1,0,0.1,0,0.2,0s0.1,0,0.1,0L57.3,126.1z"/>
			<path id="XMLID_4346_" class="st7" d="M59.1,124.5v1.2h1v0.4h-1v3.1c0,0.3,0.1,0.5,0.2,0.7c0.1,0.1,0.3,0.2,0.5,0.2
				c0.1,0,0.1,0,0.2,0s0.1,0,0.2,0l0.1,0.4c-0.1,0-0.2,0.1-0.3,0.1c-0.1,0-0.2,0-0.3,0c-0.3,0-0.6-0.1-0.8-0.3
				c-0.2-0.2-0.3-0.5-0.3-1v-3.1h-0.8v-0.4h0.8v-1.2H59.1z"/>
			<path id="XMLID_4343_" class="st7" d="M60.9,128c0-0.7,0.2-1.3,0.6-1.7s0.9-0.7,1.5-0.7c0.6,0,1.1,0.2,1.5,0.7s0.6,1,0.6,1.7v0.1
				c0,0.7-0.2,1.3-0.6,1.7c-0.4,0.4-0.9,0.7-1.5,0.7c-0.6,0-1.1-0.2-1.5-0.7c-0.4-0.4-0.6-1-0.6-1.7V128z M61.4,128.1
				c0,0.6,0.1,1,0.4,1.4s0.7,0.6,1.2,0.6c0.5,0,0.9-0.2,1.2-0.6c0.3-0.4,0.4-0.8,0.4-1.4V128c0-0.5-0.1-1-0.4-1.4
				c-0.3-0.4-0.7-0.6-1.2-0.6s-0.9,0.2-1.2,0.6s-0.4,0.8-0.4,1.4V128.1z"/>
			<path id="XMLID_4341_" class="st7" d="M71.6,129.7L71.6,129.7L74,124h0.6v6.4h-0.5v-5.4l0,0l-2.3,5.4h-0.4l-2.3-5.5l0,0v5.5h-0.5
				V124h0.7L71.6,129.7z"/>
			<path id="XMLID_4338_" class="st7" d="M79.2,130.4c0-0.2-0.1-0.3-0.1-0.4s0-0.2,0-0.4c-0.2,0.3-0.4,0.5-0.7,0.6
				c-0.3,0.2-0.6,0.3-1,0.3c-0.5,0-0.8-0.1-1.1-0.4c-0.3-0.2-0.4-0.6-0.4-1s0.2-0.8,0.6-1s0.9-0.4,1.5-0.4h1.2v-0.6
				c0-0.3-0.1-0.6-0.3-0.8c-0.2-0.2-0.5-0.3-0.9-0.3c-0.4,0-0.7,0.1-0.9,0.3c-0.2,0.2-0.3,0.4-0.3,0.7h-0.5l0,0
				c0-0.4,0.1-0.7,0.5-0.9c0.3-0.3,0.7-0.4,1.3-0.4s0.9,0.1,1.3,0.4s0.5,0.6,0.5,1.1v2.3c0,0.2,0,0.3,0,0.5s0.1,0.3,0.1,0.5H79.2z
				 M77.4,130.1c0.4,0,0.8-0.1,1.1-0.3s0.5-0.4,0.6-0.7v-0.9h-1.2c-0.4,0-0.8,0.1-1.1,0.3s-0.4,0.4-0.4,0.7c0,0.3,0.1,0.5,0.3,0.7
				S77.1,130.1,77.4,130.1z"/>
			<path id="XMLID_4335_" class="st7" d="M82.8,130.5c-0.6,0-1.1-0.2-1.5-0.7c-0.4-0.4-0.6-1-0.6-1.7V128c0-0.7,0.2-1.3,0.6-1.7
				c0.4-0.4,0.9-0.7,1.4-0.7c0.6,0,1,0.2,1.3,0.6c0.3,0.4,0.5,0.9,0.5,1.5v0.4h-3.3v0.1c0,0.5,0.1,1,0.4,1.3s0.7,0.5,1.1,0.5
				c0.3,0,0.6,0,0.8-0.1s0.4-0.2,0.6-0.4l0.2,0.4c-0.2,0.2-0.4,0.3-0.7,0.4C83.5,130.5,83.2,130.5,82.8,130.5z M82.8,126.1
				c-0.4,0-0.7,0.1-1,0.4s-0.4,0.7-0.5,1.1l0,0H84v-0.1c0-0.4-0.1-0.8-0.3-1S83.2,126.1,82.8,126.1z"/>
			<path id="XMLID_4333_" class="st7" d="M88.5,129.2c0-0.2-0.1-0.4-0.3-0.6c-0.2-0.2-0.5-0.3-1-0.4c-0.6-0.1-1-0.3-1.3-0.5
				c-0.3-0.2-0.4-0.5-0.4-0.9c0-0.4,0.2-0.7,0.5-0.9c0.3-0.3,0.7-0.4,1.2-0.4c0.5,0,1,0.1,1.3,0.4c0.3,0.3,0.5,0.6,0.5,1l0,0h-0.5
				c0-0.3-0.1-0.5-0.3-0.7c-0.2-0.2-0.5-0.3-0.9-0.3c-0.4,0-0.7,0.1-0.9,0.3s-0.3,0.4-0.3,0.6c0,0.2,0.1,0.4,0.2,0.5
				c0.2,0.1,0.5,0.3,1,0.4c0.6,0.1,1,0.3,1.3,0.5c0.3,0.2,0.4,0.5,0.4,0.9c0,0.4-0.2,0.7-0.5,1c-0.3,0.2-0.7,0.4-1.3,0.4
				c-0.6,0-1-0.1-1.4-0.4c-0.3-0.3-0.5-0.6-0.5-1l0,0h0.5c0,0.3,0.2,0.6,0.4,0.7c0.3,0.2,0.6,0.2,0.9,0.2c0.4,0,0.7-0.1,0.9-0.3
				S88.5,129.5,88.5,129.2z"/>
			<path id="XMLID_4331_" class="st7" d="M91,124.5v1.2h1v0.4h-1v3.1c0,0.3,0.1,0.5,0.2,0.7c0.1,0.1,0.3,0.2,0.5,0.2
				c0.1,0,0.1,0,0.2,0s0.1,0,0.2,0l0.1,0.4c-0.1,0-0.2,0.1-0.3,0.1c-0.1,0-0.2,0-0.3,0c-0.3,0-0.6-0.1-0.8-0.3
				c-0.2-0.2-0.3-0.5-0.3-1v-3.1h-0.8v-0.4h0.8v-1.2H91z"/>
			<path id="XMLID_4329_" class="st7" d="M95.3,126.1l-0.4,0c-0.3,0-0.6,0.1-0.8,0.3c-0.2,0.2-0.4,0.4-0.5,0.8v3.3h-0.5v-4.8h0.5
				l0.1,0.8v0.1c0.1-0.3,0.3-0.5,0.6-0.7s0.5-0.2,0.8-0.2c0.1,0,0.1,0,0.2,0s0.1,0,0.1,0L95.3,126.1z"/>
			<path id="XMLID_4326_" class="st7" d="M95.8,128c0-0.7,0.2-1.3,0.6-1.7s0.9-0.7,1.5-0.7c0.6,0,1.1,0.2,1.5,0.7s0.6,1,0.6,1.7v0.1
				c0,0.7-0.2,1.3-0.6,1.7c-0.4,0.4-0.9,0.7-1.5,0.7c-0.6,0-1.1-0.2-1.5-0.7c-0.4-0.4-0.6-1-0.6-1.7V128z M96.3,128.1
				c0,0.6,0.1,1,0.4,1.4s0.7,0.6,1.2,0.6c0.5,0,0.9-0.2,1.2-0.6c0.3-0.4,0.4-0.8,0.4-1.4V128c0-0.5-0.1-1-0.4-1.4s-0.7-0.6-1.2-0.6
				s-0.9,0.2-1.2,0.6s-0.4,0.8-0.4,1.4V128.1z"/>
			<path id="XMLID_4324_" class="st7" d="M106.5,129.7L106.5,129.7l2.4-5.6h0.6v6.4H109v-5.4l0,0l-2.3,5.4h-0.4l-2.3-5.5l0,0v5.5
				h-0.5V124h0.7L106.5,129.7z"/>
			<path id="XMLID_4321_" class="st7" d="M110.8,128c0-0.7,0.2-1.3,0.6-1.7s0.9-0.7,1.5-0.7c0.6,0,1.1,0.2,1.5,0.7s0.6,1,0.6,1.7
				v0.1c0,0.7-0.2,1.3-0.6,1.7c-0.4,0.4-0.9,0.7-1.5,0.7c-0.6,0-1.1-0.2-1.5-0.7c-0.4-0.4-0.6-1-0.6-1.7V128z M111.3,128.1
				c0,0.6,0.1,1,0.4,1.4s0.7,0.6,1.2,0.6c0.5,0,0.9-0.2,1.2-0.6c0.3-0.4,0.4-0.8,0.4-1.4V128c0-0.5-0.1-1-0.4-1.4s-0.7-0.6-1.2-0.6
				s-0.9,0.2-1.2,0.6s-0.4,0.8-0.4,1.4V128.1z"/>
			<path id="XMLID_4319_" class="st7" d="M116.5,125.7l0,0.8c0.2-0.3,0.4-0.5,0.6-0.7c0.3-0.2,0.6-0.2,0.9-0.2
				c0.5,0,0.9,0.2,1.2,0.5s0.4,0.8,0.4,1.5v2.9h-0.5v-2.9c0-0.5-0.1-0.9-0.3-1.2c-0.2-0.2-0.5-0.3-0.9-0.3s-0.7,0.1-0.9,0.3
				c-0.2,0.2-0.4,0.4-0.5,0.7v3.4h-0.5v-4.8H116.5z"/>
			<path id="XMLID_4317_" class="st7" d="M121.9,124.5v1.2h1v0.4h-1v3.1c0,0.3,0.1,0.5,0.2,0.7c0.1,0.1,0.3,0.2,0.5,0.2
				c0.1,0,0.1,0,0.2,0s0.1,0,0.2,0l0.1,0.4c-0.1,0-0.2,0.1-0.3,0.1c-0.1,0-0.2,0-0.3,0c-0.3,0-0.6-0.1-0.8-0.3
				c-0.2-0.2-0.3-0.5-0.3-1v-3.1h-0.8v-0.4h0.8v-1.2H121.9z"/>
			<path id="XMLID_4314_" class="st7" d="M125.8,130.5c-0.6,0-1.1-0.2-1.5-0.7c-0.4-0.4-0.6-1-0.6-1.7V128c0-0.7,0.2-1.3,0.6-1.7
				c0.4-0.4,0.9-0.7,1.4-0.7c0.6,0,1,0.2,1.3,0.6c0.3,0.4,0.5,0.9,0.5,1.5v0.4h-3.3v0.1c0,0.5,0.1,1,0.4,1.3s0.7,0.5,1.1,0.5
				c0.3,0,0.6,0,0.8-0.1s0.4-0.2,0.6-0.4l0.2,0.4c-0.2,0.2-0.4,0.3-0.7,0.4C126.5,130.5,126.1,130.5,125.8,130.5z M125.7,126.1
				c-0.4,0-0.7,0.1-1,0.4s-0.4,0.7-0.5,1.1l0,0h2.7v-0.1c0-0.4-0.1-0.8-0.3-1S126.1,126.1,125.7,126.1z"/>
			<path id="XMLID_4312_" class="st7" d="M130.8,126.1l-0.4,0c-0.3,0-0.6,0.1-0.8,0.3c-0.2,0.2-0.4,0.4-0.5,0.8v3.3h-0.5v-4.8h0.5
				l0.1,0.8v0.1c0.1-0.3,0.3-0.5,0.6-0.7s0.5-0.2,0.8-0.2c0.1,0,0.1,0,0.2,0s0.1,0,0.1,0L130.8,126.1z"/>
			<path id="XMLID_4309_" class="st7" d="M131.3,128c0-0.7,0.2-1.3,0.6-1.7s0.9-0.7,1.5-0.7c0.6,0,1.1,0.2,1.5,0.7s0.6,1,0.6,1.7
				v0.1c0,0.7-0.2,1.3-0.6,1.7c-0.4,0.4-0.9,0.7-1.5,0.7c-0.6,0-1.1-0.2-1.5-0.7c-0.4-0.4-0.6-1-0.6-1.7V128z M131.8,128.1
				c0,0.6,0.1,1,0.4,1.4s0.7,0.6,1.2,0.6c0.5,0,0.9-0.2,1.2-0.6c0.3-0.4,0.4-0.8,0.4-1.4V128c0-0.5-0.1-1-0.4-1.4s-0.7-0.6-1.2-0.6
				s-0.9,0.2-1.2,0.6s-0.4,0.8-0.4,1.4V128.1z"/>
			<path id="XMLID_4307_" class="st7" d="M35.3,142.2l0.2,0.9h0l0.2-0.9l1-3.2h0.5l1,3.2l0.2,0.9h0l0.2-0.9l0.8-3.2h0.6l-1.4,4.8
				h-0.4l-1.1-3.3l-0.2-0.8h0l-0.2,0.8l-1.1,3.3h-0.5l-1.4-4.8h0.6L35.3,142.2z"/>
			<path id="XMLID_4305_" class="st7" d="M42.1,142.2l0.2,0.9h0l0.2-0.9l1-3.2H44l1,3.2l0.2,0.9h0l0.2-0.9l0.8-3.2h0.6l-1.4,4.8
				h-0.4l-1.1-3.3l-0.2-0.8h0l-0.2,0.8l-1.1,3.3h-0.5l-1.4-4.8h0.6L42.1,142.2z"/>
			<path id="XMLID_4303_" class="st7" d="M48.9,142.2l0.2,0.9h0l0.2-0.9l1-3.2h0.5l1,3.2l0.2,0.9h0l0.2-0.9l0.8-3.2h0.6l-1.4,4.8
				h-0.4l-1.1-3.3l-0.2-0.8h0l-0.2,0.8l-1.1,3.3h-0.5l-1.4-4.8h0.6L48.9,142.2z"/>
			<path id="XMLID_4299_" class="st7" d="M54.8,143.8h-0.6v-0.7h0.6V143.8z"/>
			<path id="XMLID_4296_" class="st7" d="M58.1,143.9c-0.6,0-1.1-0.2-1.5-0.7c-0.4-0.4-0.6-1-0.6-1.7v-0.2c0-0.7,0.2-1.3,0.6-1.7
				c0.4-0.4,0.9-0.7,1.4-0.7c0.6,0,1,0.2,1.3,0.6c0.3,0.4,0.5,0.9,0.5,1.5v0.4h-3.3v0.1c0,0.5,0.1,1,0.4,1.3s0.7,0.5,1.1,0.5
				c0.3,0,0.6,0,0.8-0.1s0.4-0.2,0.6-0.4l0.2,0.4c-0.2,0.2-0.4,0.3-0.7,0.4C58.8,143.8,58.5,143.9,58.1,143.9z M58.1,139.4
				c-0.4,0-0.7,0.1-1,0.4s-0.4,0.7-0.5,1.1l0,0h2.7v-0.1c0-0.4-0.1-0.8-0.3-1S58.5,139.4,58.1,139.4z"/>
			<path id="XMLID_4294_" class="st7" d="M61.4,139l0,0.8c0.2-0.3,0.4-0.5,0.6-0.7c0.3-0.2,0.6-0.2,0.9-0.2c0.5,0,0.9,0.2,1.2,0.5
				c0.3,0.3,0.4,0.8,0.4,1.5v2.9h-0.5v-2.9c0-0.5-0.1-0.9-0.3-1.2c-0.2-0.2-0.5-0.3-0.9-0.3s-0.7,0.1-0.9,0.3
				c-0.2,0.2-0.4,0.4-0.5,0.7v3.4H61V139H61.4z"/>
			<path id="XMLID_4292_" class="st7" d="M69.1,143c-0.2,0.3-0.4,0.5-0.6,0.6s-0.6,0.2-0.9,0.2c-0.5,0-0.9-0.2-1.2-0.5
				s-0.4-0.9-0.4-1.6V139h0.5v2.8c0,0.6,0.1,1,0.3,1.2c0.2,0.3,0.5,0.4,0.8,0.4c0.4,0,0.7-0.1,0.9-0.3c0.2-0.2,0.4-0.4,0.5-0.7V139
				h0.5v4.8h-0.5L69.1,143z"/>
			<path id="XMLID_4290_" class="st7" d="M71.5,139l0,0.8c0.2-0.3,0.4-0.5,0.6-0.7c0.3-0.2,0.6-0.2,0.9-0.2c0.5,0,0.9,0.2,1.2,0.5
				s0.4,0.8,0.4,1.5v2.9h-0.5v-2.9c0-0.5-0.1-0.9-0.3-1.2c-0.2-0.2-0.5-0.3-0.9-0.3s-0.7,0.1-0.9,0.3c-0.2,0.2-0.4,0.4-0.5,0.7v3.4
				H71V139H71.5z"/>
			<path id="XMLID_4288_" class="st7" d="M76.6,143.8h-0.5v-6.9h0.5V143.8z"/>
			<path id="XMLID_4286_" class="st7" d="M81.2,143c-0.2,0.3-0.4,0.5-0.6,0.6s-0.6,0.2-0.9,0.2c-0.5,0-0.9-0.2-1.2-0.5
				s-0.4-0.9-0.4-1.6V139h0.5v2.8c0,0.6,0.1,1,0.3,1.2c0.2,0.3,0.5,0.4,0.8,0.4c0.4,0,0.7-0.1,0.9-0.3c0.2-0.2,0.4-0.4,0.5-0.7V139
				h0.5v4.8h-0.5L81.2,143z"/>
			<path id="XMLID_4283_" class="st7" d="M82.9,141.4c0-0.8,0.2-1.4,0.5-1.8c0.3-0.5,0.8-0.7,1.3-0.7c0.3,0,0.6,0.1,0.9,0.2
				c0.2,0.1,0.5,0.4,0.6,0.6l0.1-0.7h0.4v4.8c0,0.6-0.2,1.1-0.5,1.4s-0.8,0.5-1.4,0.5c-0.2,0-0.5,0-0.7-0.1
				c-0.3-0.1-0.5-0.1-0.7-0.2l0.1-0.4c0.2,0.1,0.4,0.2,0.6,0.2c0.2,0,0.4,0.1,0.7,0.1c0.5,0,0.8-0.1,1.1-0.4s0.3-0.6,0.3-1.1v-0.7
				c-0.2,0.2-0.4,0.4-0.6,0.5c-0.2,0.1-0.5,0.2-0.9,0.2c-0.6,0-1-0.2-1.3-0.6C83,142.8,82.9,142.2,82.9,141.4L82.9,141.4z
				 M83.4,141.5c0,0.6,0.1,1,0.3,1.4s0.6,0.5,1,0.5c0.3,0,0.6-0.1,0.8-0.2s0.4-0.4,0.5-0.6v-2.3c-0.1-0.3-0.3-0.5-0.5-0.7
				s-0.5-0.3-0.9-0.3c-0.5,0-0.8,0.2-1,0.6S83.4,140.8,83.4,141.5L83.4,141.5z"/>
			<path id="XMLID_4280_" class="st7" d="M91.1,143.8c0-0.2-0.1-0.3-0.1-0.4s0-0.2,0-0.4c-0.2,0.3-0.4,0.5-0.7,0.6
				c-0.3,0.2-0.6,0.3-1,0.3c-0.5,0-0.8-0.1-1.1-0.4c-0.3-0.2-0.4-0.6-0.4-1s0.2-0.8,0.6-1s0.9-0.4,1.5-0.4H91v-0.6
				c0-0.3-0.1-0.6-0.3-0.8c-0.2-0.2-0.5-0.3-0.9-0.3c-0.4,0-0.7,0.1-0.9,0.3c-0.2,0.2-0.3,0.4-0.3,0.7h-0.5l0,0
				c0-0.4,0.1-0.7,0.5-0.9c0.3-0.3,0.7-0.4,1.3-0.4s0.9,0.1,1.3,0.4s0.5,0.6,0.5,1.1v2.3c0,0.2,0,0.3,0,0.5s0.1,0.3,0.1,0.5H91.1z
				 M89.3,143.4c0.4,0,0.8-0.1,1.1-0.3s0.5-0.4,0.6-0.7v-0.9h-1.2c-0.4,0-0.8,0.1-1.1,0.3s-0.4,0.4-0.4,0.7c0,0.3,0.1,0.5,0.3,0.7
				S89,143.4,89.3,143.4z"/>
			<path id="XMLID_4278_" class="st7" d="M95.1,139.5l-0.4,0c-0.3,0-0.6,0.1-0.8,0.3c-0.2,0.2-0.4,0.4-0.5,0.8v3.3h-0.5V139h0.5
				l0.1,0.8v0.1c0.1-0.3,0.3-0.5,0.6-0.7s0.5-0.2,0.8-0.2c0.1,0,0.1,0,0.2,0s0.1,0,0.1,0L95.1,139.5z"/>
			<path id="XMLID_4275_" class="st7" d="M95.7,141.4c0-0.8,0.2-1.4,0.5-1.8c0.3-0.5,0.8-0.7,1.3-0.7c0.3,0,0.6,0.1,0.9,0.2
				s0.4,0.3,0.6,0.6v-2.8h0.5v6.9h-0.4l-0.1-0.7c-0.2,0.3-0.4,0.4-0.6,0.6s-0.5,0.2-0.9,0.2c-0.6,0-1-0.2-1.3-0.6
				C95.8,142.8,95.7,142.2,95.7,141.4L95.7,141.4z M96.2,141.5c0,0.6,0.1,1,0.3,1.4c0.2,0.3,0.6,0.5,1,0.5c0.3,0,0.6-0.1,0.8-0.2
				s0.4-0.4,0.5-0.6v-2.3c-0.1-0.3-0.3-0.5-0.5-0.7s-0.5-0.3-0.9-0.3c-0.5,0-0.8,0.2-1,0.6C96.3,140.3,96.2,140.8,96.2,141.5
				L96.2,141.5z"/>
			<path id="XMLID_4272_" class="st7" d="M102.7,143.9c-0.6,0-1.1-0.2-1.5-0.7c-0.4-0.4-0.6-1-0.6-1.7v-0.2c0-0.7,0.2-1.3,0.6-1.7
				c0.4-0.4,0.9-0.7,1.4-0.7c0.6,0,1,0.2,1.3,0.6c0.3,0.4,0.5,0.9,0.5,1.5v0.4h-3.3v0.1c0,0.5,0.1,1,0.4,1.3s0.7,0.5,1.1,0.5
				c0.3,0,0.6,0,0.8-0.1s0.4-0.2,0.6-0.4l0.2,0.4c-0.2,0.2-0.4,0.3-0.7,0.4C103.4,143.8,103.1,143.9,102.7,143.9z M102.7,139.4
				c-0.4,0-0.7,0.1-1,0.4s-0.4,0.7-0.5,1.1l0,0h2.7v-0.1c0-0.4-0.1-0.8-0.3-1S103.1,139.4,102.7,139.4z"/>
			<path id="XMLID_4270_" class="st7" d="M106.1,143.8h-0.5v-6.9h0.5V143.8z"/>
			<path id="XMLID_4267_" class="st7" d="M110.6,143.8c0-0.2-0.1-0.3-0.1-0.4s0-0.2,0-0.4c-0.2,0.3-0.4,0.5-0.7,0.6
				c-0.3,0.2-0.6,0.3-1,0.3c-0.5,0-0.8-0.1-1.1-0.4c-0.3-0.2-0.4-0.6-0.4-1s0.2-0.8,0.6-1s0.9-0.4,1.5-0.4h1.2v-0.6
				c0-0.3-0.1-0.6-0.3-0.8c-0.2-0.2-0.5-0.3-0.9-0.3c-0.4,0-0.7,0.1-0.9,0.3c-0.2,0.2-0.3,0.4-0.3,0.7h-0.5l0,0
				c0-0.4,0.1-0.7,0.5-0.9c0.3-0.3,0.7-0.4,1.3-0.4s0.9,0.1,1.3,0.4s0.5,0.6,0.5,1.1v2.3c0,0.2,0,0.3,0,0.5s0.1,0.3,0.1,0.5H110.6z
				 M108.8,143.4c0.4,0,0.8-0.1,1.1-0.3s0.5-0.4,0.6-0.7v-0.9h-1.2c-0.4,0-0.8,0.1-1.1,0.3s-0.4,0.4-0.4,0.7c0,0.3,0.1,0.5,0.3,0.7
				S108.5,143.4,108.8,143.4z"/>
			<path id="XMLID_4265_" class="st7" d="M113.4,142.2l0.2,0.9h0l0.2-0.9l1-3.2h0.5l1,3.2l0.2,0.9h0l0.2-0.9l0.8-3.2h0.6l-1.4,4.8
				h-0.4l-1.1-3.3l-0.2-0.8h0l-0.2,0.8l-1.1,3.3h-0.5L112,139h0.6L113.4,142.2z"/>
			<path id="XMLID_4261_" class="st7" d="M121,143.9c-0.6,0-1.1-0.2-1.5-0.7c-0.4-0.4-0.6-1-0.6-1.7v-0.2c0-0.7,0.2-1.3,0.6-1.7
				c0.4-0.4,0.9-0.7,1.4-0.7c0.6,0,1,0.2,1.3,0.6c0.3,0.4,0.5,0.9,0.5,1.5v0.4h-3.3v0.1c0,0.5,0.1,1,0.4,1.3s0.7,0.5,1.1,0.5
				c0.3,0,0.6,0,0.8-0.1s0.4-0.2,0.6-0.4l0.2,0.4c-0.2,0.2-0.4,0.3-0.7,0.4C121.7,143.8,121.4,143.9,121,143.9z M121,139.4
				c-0.4,0-0.7,0.1-1,0.4s-0.4,0.7-0.5,1.1l0,0h2.7v-0.1c0-0.4-0.1-0.8-0.3-1S121.4,139.4,121,139.4z"/>
			<path id="XMLID_4257_" class="st7" d="M127.7,141.5c0,0.7-0.2,1.3-0.5,1.7c-0.3,0.4-0.8,0.6-1.3,0.6c-0.3,0-0.6-0.1-0.9-0.2
				c-0.3-0.1-0.5-0.3-0.6-0.6l-0.1,0.7h-0.4v-6.9h0.5v2.8c0.2-0.3,0.4-0.5,0.6-0.6c0.2-0.1,0.5-0.2,0.9-0.2c0.6,0,1,0.2,1.3,0.7
				S127.7,140.7,127.7,141.5L127.7,141.5z M127.2,141.4c0-0.6-0.1-1.1-0.4-1.5s-0.6-0.6-1-0.6c-0.4,0-0.7,0.1-0.9,0.3
				c-0.2,0.2-0.4,0.4-0.5,0.7v2.2c0.1,0.3,0.3,0.5,0.5,0.7c0.2,0.2,0.5,0.2,0.9,0.2c0.5,0,0.8-0.2,1-0.5S127.2,142.1,127.2,141.4
				L127.2,141.4z"/>
			<path id="XMLID_4255_" class="st7" d="M129.5,143.8h-0.6v-0.7h0.6V143.8z"/>
			<path id="XMLID_4252_" class="st7" d="M132.8,143.9c-0.6,0-1.1-0.2-1.5-0.7c-0.4-0.4-0.6-1-0.6-1.7v-0.2c0-0.7,0.2-1.3,0.6-1.7
				c0.4-0.4,0.9-0.7,1.4-0.7c0.6,0,1,0.2,1.3,0.6c0.3,0.4,0.5,0.9,0.5,1.5v0.4h-3.3v0.1c0,0.5,0.1,1,0.4,1.3s0.7,0.5,1.1,0.5
				c0.3,0,0.6,0,0.8-0.1s0.4-0.2,0.6-0.4l0.2,0.4c-0.2,0.2-0.4,0.3-0.7,0.4C133.5,143.8,133.2,143.9,132.8,143.9z M132.8,139.4
				c-0.4,0-0.7,0.1-1,0.4s-0.4,0.7-0.5,1.1l0,0h2.7v-0.1c0-0.4-0.1-0.8-0.3-1S133.2,139.4,132.8,139.4z"/>
			<path id="XMLID_4250_" class="st7" d="M138.5,142.6c0-0.2-0.1-0.4-0.3-0.6c-0.2-0.2-0.5-0.3-1-0.4c-0.6-0.1-1-0.3-1.3-0.5
				c-0.3-0.2-0.4-0.5-0.4-0.9c0-0.4,0.2-0.7,0.5-0.9c0.3-0.3,0.7-0.4,1.2-0.4c0.5,0,1,0.1,1.3,0.4c0.3,0.3,0.5,0.6,0.5,1l0,0h-0.5
				c0-0.3-0.1-0.5-0.3-0.7c-0.2-0.2-0.5-0.3-0.9-0.3c-0.4,0-0.7,0.1-0.9,0.3s-0.3,0.4-0.3,0.6c0,0.2,0.1,0.4,0.2,0.5
				c0.2,0.1,0.5,0.3,1,0.4c0.6,0.1,1,0.3,1.3,0.5c0.3,0.2,0.4,0.5,0.4,0.9c0,0.4-0.2,0.7-0.5,1c-0.3,0.2-0.7,0.4-1.3,0.4
				c-0.6,0-1-0.1-1.4-0.4c-0.3-0.3-0.5-0.6-0.5-1l0,0h0.5c0,0.3,0.2,0.6,0.4,0.7c0.3,0.2,0.6,0.2,0.9,0.2c0.4,0,0.7-0.1,0.9-0.3
				S138.5,142.8,138.5,142.6z"/>
		</g>
		<path id="XMLID_5391_" class="st7" d="M149.1,135.1H23.8c-0.3,0-0.5-0.2-0.5-0.5s0.2-0.5,0.5-0.5h125.2c0.3,0,0.5,0.2,0.5,0.5
			S149.3,135.1,149.1,135.1z"/>
	</g>
</g>
</svg>
