<?xml version="1.0" encoding="utf-8"?>
<!-- Generator: Adobe Illustrator 19.0.0, SVG Export Plug-In . SVG Version: 6.00 Build 0)  -->
<svg version="1.1" id="Capa_1" xmlns="http://www.w3.org/2000/svg" xmlns:xlink="http://www.w3.org/1999/xlink" x="0px" y="0px"
	 viewBox="0 0 172.9 269.3" style="enable-background:new 0 0 172.9 269.3;" xml:space="preserve">
<style type="text/css">
	.st0{fill:#FFFFFF;}
	.st1{fill:#929293;}
	.st2{fill:#010202;}
	.st3{fill:#E94C30;}
	.st4{fill:#83CCF1;}
	.st5{fill:#CBE7E9;}
	.st6{fill:#FAEA26;}
</style>
<rect id="XMLID_4653_" x="0" y="0" class="st0" width="172.9" height="269.3"/>
<g id="XMLID_2943_">
	<g id="XMLID_2328_">
		<path id="XMLID_2329_" d="M20.9,24.7h1.2c0.4,0,0.6-0.2,0.7-0.2c0.1,0,0.1,0.1,0.1,0.2c0,0.1-0.1,0.5-0.1,0.6
			c-0.1,0.2-0.1,0.2-0.3,0.2h-1.5c0,0.5,0,1.8,0,2.5c0,0.5,0.2,0.8,0.7,0.9c0.2,0,0.5,0.1,0.7,0.1c0.1,0,0.1,0.1,0.1,0.1
			c0,0.1-0.1,0.1-0.3,0.1c-0.9,0-1.9,0-2,0s-1,0-1.9,0c-0.2,0-0.3,0-0.3-0.1c0-0.1,0-0.1,0.1-0.1c0.1,0,0.5,0,0.8,0
			c0.5-0.1,0.6-0.4,0.7-0.9c0.1-0.7,0-2,0-2.5h-4.9c-0.2,0-0.3,0-0.3-0.2c0-0.1,0.1-0.3,0.1-0.3c0.1-0.1,5.3-7.2,5.9-7.9
			c0.1-0.2,0.2-0.3,0.3-0.3s0.2,0.1,0.2,0.3c0,0.2,0,1.5,0,2.4V24.7z M19.7,19L19.7,19c-0.3,0.4-3.8,5.3-4.1,5.7h4.1V19z"/>
	</g>
	<g id="XMLID_2324_">
		<path id="XMLID_2325_" d="M152,244.6h-1.2c-0.4,0-0.6,0.2-0.7,0.2c-0.1,0-0.1-0.1-0.1-0.2c0-0.1,0.1-0.5,0.1-0.6
			c0.1-0.2,0.1-0.2,0.3-0.2h1.5c0-0.5,0-1.8,0-2.5c0-0.5-0.2-0.8-0.7-0.9c-0.2,0-0.5-0.1-0.7-0.1c-0.1,0-0.1-0.1-0.1-0.1
			c0-0.1,0.1-0.1,0.3-0.1c0.9,0,1.9,0,2,0s1,0,1.9,0c0.2,0,0.3,0,0.3,0.1c0,0.1,0,0.1-0.1,0.1c-0.1,0-0.5,0-0.8,0
			c-0.5,0.1-0.6,0.4-0.7,0.9c-0.1,0.7,0,2,0,2.5h4.9c0.2,0,0.3,0,0.3,0.2c0,0.1-0.1,0.3-0.1,0.3c-0.1,0.1-5.3,7.2-5.9,7.9
			c-0.1,0.2-0.2,0.3-0.3,0.3s-0.2-0.1-0.2-0.3c0-0.2,0-1.5,0-2.4V244.6z M153.2,250.3L153.2,250.3c0.3-0.4,3.8-5.3,4.1-5.7h-4.1
			V250.3z"/>
	</g>
	<g id="XMLID_2188_">
		<g id="XMLID_2190_">
			<path id="XMLID_2295_" class="st1" d="M41.4,128.7h-2.8l-0.6,1.8h-0.5l2.4-6.4h0.5l2.3,6.4h-0.5L41.4,128.7z M38.8,128.2h2.5
				l-1.2-3.4h0L38.8,128.2z"/>
			<path id="XMLID_2293_" class="st1" d="M44.1,130.4h-0.5v-6.9h0.5V130.4z"/>
			<path id="XMLID_2290_" class="st1" d="M49.3,128.2c0,0.7-0.2,1.3-0.5,1.7c-0.3,0.4-0.8,0.6-1.3,0.6c-0.3,0-0.6-0.1-0.9-0.2
				c-0.3-0.1-0.5-0.3-0.6-0.6l-0.1,0.7h-0.4v-6.9H46v2.8c0.2-0.3,0.4-0.5,0.6-0.6c0.2-0.1,0.5-0.2,0.9-0.2c0.6,0,1,0.2,1.3,0.7
				S49.3,127.3,49.3,128.2L49.3,128.2z M48.8,128.1c0-0.6-0.1-1.1-0.4-1.5s-0.6-0.6-1-0.6c-0.4,0-0.7,0.1-0.9,0.3
				c-0.2,0.2-0.4,0.4-0.5,0.7v2.2c0.1,0.3,0.3,0.5,0.5,0.7c0.2,0.2,0.5,0.2,0.9,0.2c0.5,0,0.8-0.2,1-0.5S48.8,128.8,48.8,128.1
				L48.8,128.1z"/>
			<path id="XMLID_2287_" class="st1" d="M52.3,130.5c-0.6,0-1.1-0.2-1.5-0.7c-0.4-0.4-0.6-1-0.6-1.7V128c0-0.7,0.2-1.3,0.6-1.7
				c0.4-0.4,0.9-0.7,1.4-0.7c0.6,0,1,0.2,1.3,0.6c0.3,0.4,0.5,0.9,0.5,1.5v0.4h-3.3v0.1c0,0.5,0.1,1,0.4,1.3s0.7,0.5,1.1,0.5
				c0.3,0,0.6,0,0.8-0.1s0.4-0.2,0.6-0.4l0.2,0.4c-0.2,0.2-0.4,0.3-0.7,0.4C53,130.5,52.7,130.5,52.3,130.5z M52.3,126.1
				c-0.4,0-0.7,0.1-1,0.4s-0.4,0.7-0.5,1.1l0,0h2.7v-0.1c0-0.4-0.1-0.8-0.3-1S52.7,126.1,52.3,126.1z"/>
			<path id="XMLID_2285_" class="st1" d="M57.3,126.1l-0.4,0c-0.3,0-0.6,0.1-0.8,0.3c-0.2,0.2-0.4,0.4-0.5,0.8v3.3h-0.5v-4.8h0.5
				l0.1,0.8v0.1c0.1-0.3,0.3-0.5,0.6-0.7s0.5-0.2,0.8-0.2c0.1,0,0.1,0,0.2,0s0.1,0,0.1,0L57.3,126.1z"/>
			<path id="XMLID_2283_" class="st1" d="M59.1,124.5v1.2h1v0.4h-1v3.1c0,0.3,0.1,0.5,0.2,0.7c0.1,0.1,0.3,0.2,0.5,0.2
				c0.1,0,0.1,0,0.2,0s0.1,0,0.2,0l0.1,0.4c-0.1,0-0.2,0.1-0.3,0.1c-0.1,0-0.2,0-0.3,0c-0.3,0-0.6-0.1-0.8-0.3
				c-0.2-0.2-0.3-0.5-0.3-1v-3.1h-0.8v-0.4h0.8v-1.2H59.1z"/>
			<path id="XMLID_2280_" class="st1" d="M60.9,128c0-0.7,0.2-1.3,0.6-1.7s0.9-0.7,1.5-0.7c0.6,0,1.1,0.2,1.5,0.7s0.6,1,0.6,1.7v0.1
				c0,0.7-0.2,1.3-0.6,1.7c-0.4,0.4-0.9,0.7-1.5,0.7c-0.6,0-1.1-0.2-1.5-0.7c-0.4-0.4-0.6-1-0.6-1.7V128z M61.4,128.1
				c0,0.6,0.1,1,0.4,1.4s0.7,0.6,1.2,0.6c0.5,0,0.9-0.2,1.2-0.6c0.3-0.4,0.4-0.8,0.4-1.4V128c0-0.5-0.1-1-0.4-1.4s-0.7-0.6-1.2-0.6
				s-0.9,0.2-1.2,0.6s-0.4,0.8-0.4,1.4V128.1z"/>
			<path id="XMLID_2278_" class="st1" d="M71.6,129.7L71.6,129.7L74,124h0.6v6.4h-0.5v-5.4l0,0l-2.3,5.4h-0.4l-2.3-5.5l0,0v5.5h-0.5
				V124h0.7L71.6,129.7z"/>
			<path id="XMLID_2275_" class="st1" d="M79.2,130.4c0-0.2-0.1-0.3-0.1-0.4s0-0.2,0-0.4c-0.2,0.3-0.4,0.5-0.7,0.6
				c-0.3,0.2-0.6,0.3-1,0.3c-0.5,0-0.8-0.1-1.1-0.4c-0.3-0.2-0.4-0.6-0.4-1s0.2-0.8,0.6-1c0.4-0.3,0.9-0.4,1.5-0.4h1.2v-0.6
				c0-0.3-0.1-0.6-0.3-0.8c-0.2-0.2-0.5-0.3-0.9-0.3c-0.4,0-0.7,0.1-0.9,0.3c-0.2,0.2-0.3,0.4-0.3,0.7h-0.5l0,0
				c0-0.4,0.1-0.7,0.5-0.9c0.3-0.3,0.7-0.4,1.3-0.4s0.9,0.1,1.3,0.4s0.5,0.6,0.5,1.1v2.3c0,0.2,0,0.3,0,0.5s0.1,0.3,0.1,0.5H79.2z
				 M77.4,130.1c0.4,0,0.8-0.1,1.1-0.3s0.5-0.4,0.6-0.7v-0.9h-1.2c-0.4,0-0.8,0.1-1.1,0.3s-0.4,0.4-0.4,0.7c0,0.3,0.1,0.5,0.3,0.7
				S77.1,130.1,77.4,130.1z"/>
			<path id="XMLID_2272_" class="st1" d="M82.8,130.5c-0.6,0-1.1-0.2-1.5-0.7c-0.4-0.4-0.6-1-0.6-1.7V128c0-0.7,0.2-1.3,0.6-1.7
				c0.4-0.4,0.9-0.7,1.4-0.7c0.6,0,1,0.2,1.3,0.6c0.3,0.4,0.5,0.9,0.5,1.5v0.4h-3.3v0.1c0,0.5,0.1,1,0.4,1.3s0.7,0.5,1.1,0.5
				c0.3,0,0.6,0,0.8-0.1s0.4-0.2,0.6-0.4l0.2,0.4c-0.2,0.2-0.4,0.3-0.7,0.4C83.5,130.5,83.2,130.5,82.8,130.5z M82.8,126.1
				c-0.4,0-0.7,0.1-1,0.4s-0.4,0.7-0.5,1.1l0,0H84v-0.1c0-0.4-0.1-0.8-0.3-1S83.2,126.1,82.8,126.1z"/>
			<path id="XMLID_2270_" class="st1" d="M88.5,129.2c0-0.2-0.1-0.4-0.3-0.6c-0.2-0.2-0.5-0.3-1-0.4c-0.6-0.1-1-0.3-1.3-0.5
				c-0.3-0.2-0.4-0.5-0.4-0.9c0-0.4,0.2-0.7,0.5-0.9c0.3-0.3,0.7-0.4,1.2-0.4c0.5,0,1,0.1,1.3,0.4c0.3,0.3,0.5,0.6,0.5,1l0,0h-0.5
				c0-0.3-0.1-0.5-0.3-0.7c-0.2-0.2-0.5-0.3-0.9-0.3c-0.4,0-0.7,0.1-0.9,0.3s-0.3,0.4-0.3,0.6c0,0.2,0.1,0.4,0.2,0.5
				c0.2,0.1,0.5,0.3,1,0.4c0.6,0.1,1,0.3,1.3,0.5c0.3,0.2,0.4,0.5,0.4,0.9c0,0.4-0.2,0.7-0.5,1c-0.3,0.2-0.7,0.4-1.3,0.4
				c-0.6,0-1-0.1-1.4-0.4c-0.3-0.3-0.5-0.6-0.5-1l0,0h0.5c0,0.3,0.2,0.6,0.4,0.7c0.3,0.2,0.6,0.2,0.9,0.2c0.4,0,0.7-0.1,0.9-0.3
				S88.5,129.5,88.5,129.2z"/>
			<path id="XMLID_2268_" class="st1" d="M91,124.5v1.2h1v0.4h-1v3.1c0,0.3,0.1,0.5,0.2,0.7c0.1,0.1,0.3,0.2,0.5,0.2
				c0.1,0,0.1,0,0.2,0s0.1,0,0.2,0l0.1,0.4c-0.1,0-0.2,0.1-0.3,0.1c-0.1,0-0.2,0-0.3,0c-0.3,0-0.6-0.1-0.8-0.3
				c-0.2-0.2-0.3-0.5-0.3-1v-3.1h-0.8v-0.4h0.8v-1.2H91z"/>
			<path id="XMLID_2266_" class="st1" d="M95.3,126.1l-0.4,0c-0.3,0-0.6,0.1-0.8,0.3c-0.2,0.2-0.4,0.4-0.5,0.8v3.3h-0.5v-4.8h0.5
				l0.1,0.8v0.1c0.1-0.3,0.3-0.5,0.6-0.7s0.5-0.2,0.8-0.2c0.1,0,0.1,0,0.2,0s0.1,0,0.1,0L95.3,126.1z"/>
			<path id="XMLID_2263_" class="st1" d="M95.8,128c0-0.7,0.2-1.3,0.6-1.7s0.9-0.7,1.5-0.7c0.6,0,1.1,0.2,1.5,0.7s0.6,1,0.6,1.7v0.1
				c0,0.7-0.2,1.3-0.6,1.7c-0.4,0.4-0.9,0.7-1.5,0.7c-0.6,0-1.1-0.2-1.5-0.7c-0.4-0.4-0.6-1-0.6-1.7V128z M96.3,128.1
				c0,0.6,0.1,1,0.4,1.4s0.7,0.6,1.2,0.6c0.5,0,0.9-0.2,1.2-0.6c0.3-0.4,0.4-0.8,0.4-1.4V128c0-0.5-0.1-1-0.4-1.4s-0.7-0.6-1.2-0.6
				s-0.9,0.2-1.2,0.6s-0.4,0.8-0.4,1.4V128.1z"/>
			<path id="XMLID_2261_" class="st1" d="M106.5,129.7L106.5,129.7l2.4-5.6h0.6v6.4H109v-5.4l0,0l-2.3,5.4h-0.4l-2.3-5.5l0,0v5.5
				h-0.5V124h0.7L106.5,129.7z"/>
			<path id="XMLID_2258_" class="st1" d="M110.8,128c0-0.7,0.2-1.3,0.6-1.7s0.9-0.7,1.5-0.7c0.6,0,1.1,0.2,1.5,0.7s0.6,1,0.6,1.7
				v0.1c0,0.7-0.2,1.3-0.6,1.7c-0.4,0.4-0.9,0.7-1.5,0.7c-0.6,0-1.1-0.2-1.5-0.7c-0.4-0.4-0.6-1-0.6-1.7V128z M111.3,128.1
				c0,0.6,0.1,1,0.4,1.4s0.7,0.6,1.2,0.6c0.5,0,0.9-0.2,1.2-0.6c0.3-0.4,0.4-0.8,0.4-1.4V128c0-0.5-0.1-1-0.4-1.4s-0.7-0.6-1.2-0.6
				s-0.9,0.2-1.2,0.6s-0.4,0.8-0.4,1.4V128.1z"/>
			<path id="XMLID_2256_" class="st1" d="M116.5,125.7l0,0.8c0.2-0.3,0.4-0.5,0.6-0.7c0.3-0.2,0.6-0.2,0.9-0.2
				c0.5,0,0.9,0.2,1.2,0.5s0.4,0.8,0.4,1.5v2.9h-0.5v-2.9c0-0.5-0.1-0.9-0.3-1.2c-0.2-0.2-0.5-0.3-0.9-0.3s-0.7,0.1-0.9,0.3
				c-0.2,0.2-0.4,0.4-0.5,0.7v3.4h-0.5v-4.8H116.5z"/>
			<path id="XMLID_2254_" class="st1" d="M121.9,124.5v1.2h1v0.4h-1v3.1c0,0.3,0.1,0.5,0.2,0.7c0.1,0.1,0.3,0.2,0.5,0.2
				c0.1,0,0.1,0,0.2,0s0.1,0,0.2,0l0.1,0.4c-0.1,0-0.2,0.1-0.3,0.1c-0.1,0-0.2,0-0.3,0c-0.3,0-0.6-0.1-0.8-0.3
				c-0.2-0.2-0.3-0.5-0.3-1v-3.1h-0.8v-0.4h0.8v-1.2H121.9z"/>
			<path id="XMLID_2251_" class="st1" d="M125.8,130.5c-0.6,0-1.1-0.2-1.5-0.7c-0.4-0.4-0.6-1-0.6-1.7V128c0-0.7,0.2-1.3,0.6-1.7
				c0.4-0.4,0.9-0.7,1.4-0.7c0.6,0,1,0.2,1.3,0.6c0.3,0.4,0.5,0.9,0.5,1.5v0.4h-3.3v0.1c0,0.5,0.1,1,0.4,1.3s0.7,0.5,1.1,0.5
				c0.3,0,0.6,0,0.8-0.1s0.4-0.2,0.6-0.4l0.2,0.4c-0.2,0.2-0.4,0.3-0.7,0.4C126.5,130.5,126.1,130.5,125.8,130.5z M125.7,126.1
				c-0.4,0-0.7,0.1-1,0.4s-0.4,0.7-0.5,1.1l0,0h2.7v-0.1c0-0.4-0.1-0.8-0.3-1S126.1,126.1,125.7,126.1z"/>
			<path id="XMLID_2249_" class="st1" d="M130.8,126.1l-0.4,0c-0.3,0-0.6,0.1-0.8,0.3c-0.2,0.2-0.4,0.4-0.5,0.8v3.3h-0.5v-4.8h0.5
				l0.1,0.8v0.1c0.1-0.3,0.3-0.5,0.6-0.7s0.5-0.2,0.8-0.2c0.1,0,0.1,0,0.2,0s0.1,0,0.1,0L130.8,126.1z"/>
			<path id="XMLID_2246_" class="st1" d="M131.3,128c0-0.7,0.2-1.3,0.6-1.7s0.9-0.7,1.5-0.7c0.6,0,1.1,0.2,1.5,0.7s0.6,1,0.6,1.7
				v0.1c0,0.7-0.2,1.3-0.6,1.7c-0.4,0.4-0.9,0.7-1.5,0.7c-0.6,0-1.1-0.2-1.5-0.7c-0.4-0.4-0.6-1-0.6-1.7V128z M131.8,128.1
				c0,0.6,0.1,1,0.4,1.4s0.7,0.6,1.2,0.6c0.5,0,0.9-0.2,1.2-0.6c0.3-0.4,0.4-0.8,0.4-1.4V128c0-0.5-0.1-1-0.4-1.4s-0.7-0.6-1.2-0.6
				s-0.9,0.2-1.2,0.6s-0.4,0.8-0.4,1.4V128.1z"/>
			<path id="XMLID_2244_" class="st1" d="M35.3,142.2l0.2,0.9h0l0.2-0.9l1-3.2h0.5l1,3.2l0.2,0.9h0l0.2-0.9l0.8-3.2h0.6l-1.4,4.8
				h-0.4l-1.1-3.3l-0.2-0.8h0l-0.2,0.8l-1.1,3.3h-0.5l-1.4-4.8h0.6L35.3,142.2z"/>
			<path id="XMLID_2242_" class="st1" d="M42.1,142.2l0.2,0.9h0l0.2-0.9l1-3.2H44l1,3.2l0.2,0.9h0l0.2-0.9l0.8-3.2h0.6l-1.4,4.8
				h-0.4l-1.1-3.3l-0.2-0.8h0l-0.2,0.8l-1.1,3.3h-0.5l-1.4-4.8h0.6L42.1,142.2z"/>
			<path id="XMLID_2240_" class="st1" d="M48.9,142.2l0.2,0.9h0l0.2-0.9l1-3.2h0.5l1,3.2l0.2,0.9h0l0.2-0.9l0.8-3.2h0.6l-1.4,4.8
				h-0.4l-1.1-3.3l-0.2-0.8h0l-0.2,0.8l-1.1,3.3h-0.5l-1.4-4.8h0.6L48.9,142.2z"/>
			<path id="XMLID_2238_" class="st1" d="M54.8,143.8h-0.6v-0.7h0.6V143.8z"/>
			<path id="XMLID_2235_" class="st1" d="M58.1,143.9c-0.6,0-1.1-0.2-1.5-0.7c-0.4-0.4-0.6-1-0.6-1.7v-0.2c0-0.7,0.2-1.3,0.6-1.7
				c0.4-0.4,0.9-0.7,1.4-0.7c0.6,0,1,0.2,1.3,0.6c0.3,0.4,0.5,0.9,0.5,1.5v0.4h-3.3v0.1c0,0.5,0.1,1,0.4,1.3s0.7,0.5,1.1,0.5
				c0.3,0,0.6,0,0.8-0.1s0.4-0.2,0.6-0.4l0.2,0.4c-0.2,0.2-0.4,0.3-0.7,0.4C58.8,143.8,58.5,143.9,58.1,143.9z M58.1,139.4
				c-0.4,0-0.7,0.1-1,0.4s-0.4,0.7-0.5,1.1l0,0h2.7v-0.1c0-0.4-0.1-0.8-0.3-1S58.5,139.4,58.1,139.4z"/>
			<path id="XMLID_1382_" class="st1" d="M61.4,139l0,0.8c0.2-0.3,0.4-0.5,0.6-0.7c0.3-0.2,0.6-0.2,0.9-0.2c0.5,0,0.9,0.2,1.2,0.5
				s0.4,0.8,0.4,1.5v2.9h-0.5v-2.9c0-0.5-0.1-0.9-0.3-1.2c-0.2-0.2-0.5-0.3-0.9-0.3s-0.7,0.1-0.9,0.3c-0.2,0.2-0.4,0.4-0.5,0.7v3.4
				H61V139H61.4z"/>
			<path id="XMLID_1380_" class="st1" d="M69.1,143c-0.2,0.3-0.4,0.5-0.6,0.6s-0.6,0.2-0.9,0.2c-0.5,0-0.9-0.2-1.2-0.5
				s-0.4-0.9-0.4-1.6V139h0.5v2.8c0,0.6,0.1,1,0.3,1.2c0.2,0.3,0.5,0.4,0.8,0.4c0.4,0,0.7-0.1,0.9-0.3c0.2-0.2,0.4-0.4,0.5-0.7V139
				h0.5v4.8h-0.5L69.1,143z"/>
			<path id="XMLID_1378_" class="st1" d="M71.5,139l0,0.8c0.2-0.3,0.4-0.5,0.6-0.7c0.3-0.2,0.6-0.2,0.9-0.2c0.5,0,0.9,0.2,1.2,0.5
				s0.4,0.8,0.4,1.5v2.9h-0.5v-2.9c0-0.5-0.1-0.9-0.3-1.2c-0.2-0.2-0.5-0.3-0.9-0.3s-0.7,0.1-0.9,0.3c-0.2,0.2-0.4,0.4-0.5,0.7v3.4
				H71V139H71.5z"/>
			<path id="XMLID_1376_" class="st1" d="M76.6,143.8h-0.5v-6.9h0.5V143.8z"/>
			<path id="XMLID_1374_" class="st1" d="M81.2,143c-0.2,0.3-0.4,0.5-0.6,0.6s-0.6,0.2-0.9,0.2c-0.5,0-0.9-0.2-1.2-0.5
				s-0.4-0.9-0.4-1.6V139h0.5v2.8c0,0.6,0.1,1,0.3,1.2c0.2,0.3,0.5,0.4,0.8,0.4c0.4,0,0.7-0.1,0.9-0.3c0.2-0.2,0.4-0.4,0.5-0.7V139
				h0.5v4.8h-0.5L81.2,143z"/>
			<path id="XMLID_1371_" class="st1" d="M82.9,141.4c0-0.8,0.2-1.4,0.5-1.8c0.3-0.5,0.8-0.7,1.3-0.7c0.3,0,0.6,0.1,0.9,0.2
				c0.2,0.1,0.5,0.4,0.6,0.6l0.1-0.7h0.4v4.8c0,0.6-0.2,1.1-0.5,1.4s-0.8,0.5-1.4,0.5c-0.2,0-0.5,0-0.7-0.1
				c-0.3-0.1-0.5-0.1-0.7-0.2l0.1-0.4c0.2,0.1,0.4,0.2,0.6,0.2c0.2,0,0.4,0.1,0.7,0.1c0.5,0,0.8-0.1,1.1-0.4s0.3-0.6,0.3-1.1v-0.7
				c-0.2,0.2-0.4,0.4-0.6,0.5c-0.2,0.1-0.5,0.2-0.9,0.2c-0.6,0-1-0.2-1.3-0.6C83,142.8,82.9,142.2,82.9,141.4L82.9,141.4z
				 M83.4,141.5c0,0.6,0.1,1,0.3,1.4s0.6,0.5,1,0.5c0.3,0,0.6-0.1,0.8-0.2s0.4-0.4,0.5-0.6v-2.3c-0.1-0.3-0.3-0.5-0.5-0.7
				s-0.5-0.3-0.9-0.3c-0.5,0-0.8,0.2-1,0.6S83.4,140.8,83.4,141.5L83.4,141.5z"/>
			<path id="XMLID_1368_" class="st1" d="M91.1,143.8c0-0.2-0.1-0.3-0.1-0.4s0-0.2,0-0.4c-0.2,0.3-0.4,0.5-0.7,0.6
				c-0.3,0.2-0.6,0.3-1,0.3c-0.5,0-0.8-0.1-1.1-0.4c-0.3-0.2-0.4-0.6-0.4-1s0.2-0.8,0.6-1s0.9-0.4,1.5-0.4H91v-0.6
				c0-0.3-0.1-0.6-0.3-0.8c-0.2-0.2-0.5-0.3-0.9-0.3c-0.4,0-0.7,0.1-0.9,0.3c-0.2,0.2-0.3,0.4-0.3,0.7h-0.5l0,0
				c0-0.4,0.1-0.7,0.5-0.9c0.3-0.3,0.7-0.4,1.3-0.4s0.9,0.1,1.3,0.4s0.5,0.6,0.5,1.1v2.3c0,0.2,0,0.3,0,0.5s0.1,0.3,0.1,0.5H91.1z
				 M89.3,143.4c0.4,0,0.8-0.1,1.1-0.3s0.5-0.4,0.6-0.7v-0.9h-1.2c-0.4,0-0.8,0.1-1.1,0.3s-0.4,0.4-0.4,0.7c0,0.3,0.1,0.5,0.3,0.7
				S89,143.4,89.3,143.4z"/>
			<path id="XMLID_1366_" class="st1" d="M95.1,139.5l-0.4,0c-0.3,0-0.6,0.1-0.8,0.3c-0.2,0.2-0.4,0.4-0.5,0.8v3.3h-0.5V139h0.5
				l0.1,0.8v0.1c0.1-0.3,0.3-0.5,0.6-0.7s0.5-0.2,0.8-0.2c0.1,0,0.1,0,0.2,0s0.1,0,0.1,0L95.1,139.5z"/>
			<path id="XMLID_1363_" class="st1" d="M95.7,141.4c0-0.8,0.2-1.4,0.5-1.8c0.3-0.5,0.8-0.7,1.3-0.7c0.3,0,0.6,0.1,0.9,0.2
				s0.4,0.3,0.6,0.6v-2.8h0.5v6.9h-0.4l-0.1-0.7c-0.2,0.3-0.4,0.4-0.6,0.6s-0.5,0.2-0.9,0.2c-0.6,0-1-0.2-1.3-0.6
				C95.8,142.8,95.7,142.2,95.7,141.4L95.7,141.4z M96.2,141.5c0,0.6,0.1,1,0.3,1.4c0.2,0.3,0.6,0.5,1,0.5c0.3,0,0.6-0.1,0.8-0.2
				s0.4-0.4,0.5-0.6v-2.3c-0.1-0.3-0.3-0.5-0.5-0.7s-0.5-0.3-0.9-0.3c-0.5,0-0.8,0.2-1,0.6C96.3,140.3,96.2,140.8,96.2,141.5
				L96.2,141.5z"/>
			<path id="XMLID_1360_" class="st1" d="M102.7,143.9c-0.6,0-1.1-0.2-1.5-0.7c-0.4-0.4-0.6-1-0.6-1.7v-0.2c0-0.7,0.2-1.3,0.6-1.7
				c0.4-0.4,0.9-0.7,1.4-0.7c0.6,0,1,0.2,1.3,0.6c0.3,0.4,0.5,0.9,0.5,1.5v0.4h-3.3v0.1c0,0.5,0.1,1,0.4,1.3s0.7,0.5,1.1,0.5
				c0.3,0,0.6,0,0.8-0.1s0.4-0.2,0.6-0.4l0.2,0.4c-0.2,0.2-0.4,0.3-0.7,0.4C103.4,143.8,103.1,143.9,102.7,143.9z M102.7,139.4
				c-0.4,0-0.7,0.1-1,0.4s-0.4,0.7-0.5,1.1l0,0h2.7v-0.1c0-0.4-0.1-0.8-0.3-1S103.1,139.4,102.7,139.4z"/>
			<path id="XMLID_1358_" class="st1" d="M106.1,143.8h-0.5v-6.9h0.5V143.8z"/>
			<path id="XMLID_2206_" class="st1" d="M110.6,143.8c0-0.2-0.1-0.3-0.1-0.4s0-0.2,0-0.4c-0.2,0.3-0.4,0.5-0.7,0.6
				c-0.3,0.2-0.6,0.3-1,0.3c-0.5,0-0.8-0.1-1.1-0.4c-0.3-0.2-0.4-0.6-0.4-1s0.2-0.8,0.6-1s0.9-0.4,1.5-0.4h1.2v-0.6
				c0-0.3-0.1-0.6-0.3-0.8c-0.2-0.2-0.5-0.3-0.9-0.3c-0.4,0-0.7,0.1-0.9,0.3c-0.2,0.2-0.3,0.4-0.3,0.7h-0.5l0,0
				c0-0.4,0.1-0.7,0.5-0.9c0.3-0.3,0.7-0.4,1.3-0.4s0.9,0.1,1.3,0.4s0.5,0.6,0.5,1.1v2.3c0,0.2,0,0.3,0,0.5s0.1,0.3,0.1,0.5H110.6z
				 M108.8,143.4c0.4,0,0.8-0.1,1.1-0.3s0.5-0.4,0.6-0.7v-0.9h-1.2c-0.4,0-0.8,0.1-1.1,0.3s-0.4,0.4-0.4,0.7c0,0.3,0.1,0.5,0.3,0.7
				S108.5,143.4,108.8,143.4z"/>
			<path id="XMLID_2204_" class="st1" d="M113.4,142.2l0.2,0.9h0l0.2-0.9l1-3.2h0.5l1,3.2l0.2,0.9h0l0.2-0.9l0.8-3.2h0.6l-1.4,4.8
				h-0.4l-1.1-3.3l-0.2-0.8h0l-0.2,0.8l-1.1,3.3h-0.5L112,139h0.6L113.4,142.2z"/>
			<path id="XMLID_2201_" class="st1" d="M121,143.9c-0.6,0-1.1-0.2-1.5-0.7c-0.4-0.4-0.6-1-0.6-1.7v-0.2c0-0.7,0.2-1.3,0.6-1.7
				c0.4-0.4,0.9-0.7,1.4-0.7c0.6,0,1,0.2,1.3,0.6c0.3,0.4,0.5,0.9,0.5,1.5v0.4h-3.3v0.1c0,0.5,0.1,1,0.4,1.3s0.7,0.5,1.1,0.5
				c0.3,0,0.6,0,0.8-0.1s0.4-0.2,0.6-0.4l0.2,0.4c-0.2,0.2-0.4,0.3-0.7,0.4C121.7,143.8,121.4,143.9,121,143.9z M121,139.4
				c-0.4,0-0.7,0.1-1,0.4s-0.4,0.7-0.5,1.1l0,0h2.7v-0.1c0-0.4-0.1-0.8-0.3-1S121.4,139.4,121,139.4z"/>
			<path id="XMLID_2198_" class="st1" d="M127.7,141.5c0,0.7-0.2,1.3-0.5,1.7c-0.3,0.4-0.8,0.6-1.3,0.6c-0.3,0-0.6-0.1-0.9-0.2
				c-0.3-0.1-0.5-0.3-0.6-0.6l-0.1,0.7h-0.4v-6.9h0.5v2.8c0.2-0.3,0.4-0.5,0.6-0.6c0.2-0.1,0.5-0.2,0.9-0.2c0.6,0,1,0.2,1.3,0.7
				S127.7,140.7,127.7,141.5L127.7,141.5z M127.2,141.4c0-0.6-0.1-1.1-0.4-1.5s-0.6-0.6-1-0.6c-0.4,0-0.7,0.1-0.9,0.3
				c-0.2,0.2-0.4,0.4-0.5,0.7v2.2c0.1,0.3,0.3,0.5,0.5,0.7c0.2,0.2,0.5,0.2,0.9,0.2c0.5,0,0.8-0.2,1-0.5S127.2,142.1,127.2,141.4
				L127.2,141.4z"/>
			<path id="XMLID_2196_" class="st1" d="M129.5,143.8h-0.6v-0.7h0.6V143.8z"/>
			<path id="XMLID_2193_" class="st1" d="M132.8,143.9c-0.6,0-1.1-0.2-1.5-0.7c-0.4-0.4-0.6-1-0.6-1.7v-0.2c0-0.7,0.2-1.3,0.6-1.7
				c0.4-0.4,0.9-0.7,1.4-0.7c0.6,0,1,0.2,1.3,0.6c0.3,0.4,0.5,0.9,0.5,1.5v0.4h-3.3v0.1c0,0.5,0.1,1,0.4,1.3s0.7,0.5,1.1,0.5
				c0.3,0,0.6,0,0.8-0.1s0.4-0.2,0.6-0.4l0.2,0.4c-0.2,0.2-0.4,0.3-0.7,0.4C133.5,143.8,133.2,143.9,132.8,143.9z M132.8,139.4
				c-0.4,0-0.7,0.1-1,0.4s-0.4,0.7-0.5,1.1l0,0h2.7v-0.1c0-0.4-0.1-0.8-0.3-1S133.2,139.4,132.8,139.4z"/>
			<path id="XMLID_2191_" class="st1" d="M138.5,142.6c0-0.2-0.1-0.4-0.3-0.6c-0.2-0.2-0.5-0.3-1-0.4c-0.6-0.1-1-0.3-1.3-0.5
				c-0.3-0.2-0.4-0.5-0.4-0.9c0-0.4,0.2-0.7,0.5-0.9c0.3-0.3,0.7-0.4,1.2-0.4c0.5,0,1,0.1,1.3,0.4c0.3,0.3,0.5,0.6,0.5,1l0,0h-0.5
				c0-0.3-0.1-0.5-0.3-0.7c-0.2-0.2-0.5-0.3-0.9-0.3c-0.4,0-0.7,0.1-0.9,0.3s-0.3,0.4-0.3,0.6c0,0.2,0.1,0.4,0.2,0.5
				c0.2,0.1,0.5,0.3,1,0.4c0.6,0.1,1,0.3,1.3,0.5c0.3,0.2,0.4,0.5,0.4,0.9c0,0.4-0.2,0.7-0.5,1c-0.3,0.2-0.7,0.4-1.3,0.4
				c-0.6,0-1-0.1-1.4-0.4c-0.3-0.3-0.5-0.6-0.5-1l0,0h0.5c0,0.3,0.2,0.6,0.4,0.7c0.3,0.2,0.6,0.2,0.9,0.2c0.4,0,0.7-0.1,0.9-0.3
				S138.5,142.8,138.5,142.6z"/>
		</g>
		<path id="XMLID_2765_" class="st1" d="M149.1,135.1H23.8c-0.3,0-0.5-0.2-0.5-0.5s0.2-0.5,0.5-0.5h125.2c0.3,0,0.5,0.2,0.5,0.5
			S149.3,135.1,149.1,135.1z"/>
	</g>
	<path id="XMLID_1714_" class="st2" d="M164,258.6H9V10.7h155V258.6z M11,256.6h151V12.7H11V256.6z"/>
	<g id="XMLID_2153_">
		<g id="XMLID_1758_">
			<g id="XMLID_1430_">
				<g id="XMLID_2454_">
					<path id="XMLID_1669_" class="st3" d="M67.3,42.2l-5.1-5.9l-2.4,5.5L56,34l-3.9-2.4l-1.9,10.2l-4.9-7.2l-5.6,3.7L35.4,34
						c-0.6,1.7-1.2,3.4-1.6,5.1c-1.1,4.4-1.9,8.9-1.4,13.5c1,9.2,9,18.6,20,17.2c9-1.2,15.8-10.1,15.8-20.4
						C68.2,47,67.9,44.6,67.3,42.2"/>
					<path id="XMLID_1684_" class="st2" d="M50.1,70.2c-3.7,0-7.2-1.2-10.3-3.6c-4.2-3.3-7-8.5-7.6-13.8c-0.5-5,0.4-9.7,1.4-13.6
						c0.5-1.8,1-3.5,1.6-5.2l0.1-0.2l4.4,4.4l5.6-3.7l4.8,7.1L52,31.5l4.1,2.5l0,0l3.8,7.6l2.4-5.5l0.1,0.2l5.1,5.9
						c0.6,2.6,0.9,5,0.9,7.3c0,5-1.6,9.9-4.6,13.7c-3,3.8-7,6.3-11.4,6.8C51.6,70.1,50.9,70.2,50.1,70.2z M35.4,34.3
						c-0.6,1.6-1.1,3.2-1.5,4.9c-1,3.9-1.9,8.5-1.4,13.5c0.6,5.3,3.4,10.4,7.5,13.6c3.6,2.8,7.9,4,12.3,3.4
						c9-1.2,15.7-9.9,15.7-20.3c0-2.2-0.3-4.6-0.9-7.2l-4.9-5.7l-2.4,5.6l-4-8l-3.7-2.3l-1.9,10.3l-5-7.4l-5.6,3.7L35.4,34.3z"/>
				</g>
				<polygon id="XMLID_1691_" class="st4" points="69.3,51.1 67.2,51.1 68.2,47.9 				"/>
				<polygon id="XMLID_1690_" class="st5" points="67.7,54.3 67.2,51.1 69.3,51.1 				"/>
				<polygon id="XMLID_1689_" class="st4" points="33.3,51.1 31.2,51.1 32.2,47.9 				"/>
				<polygon id="XMLID_1688_" class="st4" points="42,51.1 36.7,51.1 39.4,47.9 				"/>
				<polygon id="XMLID_1687_" class="st5" points="39.4,54.3 36.7,51.1 42,51.1 				"/>
				<polygon id="XMLID_1686_" class="st4" points="63.8,51.1 58.4,51.1 61.1,47.9 				"/>
				<polygon id="XMLID_1685_" class="st5" points="61.1,54.3 58.4,51.1 63.8,51.1 				"/>
				<polygon id="XMLID_1683_" class="st2" points="53.8,54.9 50.9,48.3 50.9,48.3 51.7,45.5 50.1,41.9 50.3,41.8 52,45.5 51.2,48.3 
					54,54.8 				"/>
				<polygon id="XMLID_1682_" class="st2" points="39.5,47.5 39.3,47.4 40.3,46 36.5,44.3 36.6,44.2 39.6,38.3 39.9,38.4 36.8,44.2 
					40.7,45.9 				"/>
				<polygon id="XMLID_1678_" class="st2" points="59.9,46 57,44.6 59.8,41.8 60,41.9 57.5,44.6 60,45.8 				"/>
				<g id="XMLID_1679_">
					<polygon id="XMLID_1681_" class="st5" points="50.2,56.1 46.5,51.1 53.9,51.1 					"/>
					<polygon id="XMLID_1680_" class="st4" points="53.9,51.1 46.5,51.1 50.2,46.2 					"/>
				</g>
				<path id="XMLID_1676_" class="st2" d="M50.2,56.3l-3.8-5.1l0.1-0.1l3.8-5.1l3.8,5.1L54,51.2L50.2,56.3z M46.7,51.1l3.5,4.7
					l3.5-4.7l-3.5-4.7L46.7,51.1z"/>
				<g id="XMLID_1675_">
					<polygon id="XMLID_1677_" class="st5" points="32.7,54.3 31.2,51.1 33.3,51.1 					"/>
					<path id="XMLID_1673_" class="st2" d="M32.7,54.7L31,51.1l0,0l1.2-3.6l1.2,3.6l0,0L32.7,54.7z M31.3,51.1l1.3,2.8l0.6-2.8
						l-0.9-2.8L31.3,51.1z"/>
				</g>
				<g id="XMLID_1672_">
					<polygon id="XMLID_1674_" class="st5" points="67.7,54.3 69.2,51.1 67.1,51.1 					"/>
					<path id="XMLID_1671_" class="st2" d="M67.7,54.7l-0.7-3.6l0,0l1.2-3.6l1.2,3.6l0,0L67.7,54.7z M67.2,51.1l0.6,2.8l1.3-2.8
						l-0.9-2.8L67.2,51.1z"/>
				</g>
				<path id="XMLID_1670_" class="st2" d="M39.4,54.5l-2.8-3.4l2.8-3.4l2.8,3.4L39.4,54.5z M36.8,51.1l2.5,3l2.5-3l-2.5-3L36.8,51.1
					z"/>
				<path id="XMLID_2441_" class="st2" d="M61.1,54.5l-2.8-3.4l2.8-3.4l2.8,3.4L61.1,54.5z M58.6,51.1l2.5,3l2.5-3l-2.5-3L58.6,51.1
					z"/>
				<g id="XMLID_1667_">
					<g id="XMLID_2440_">
						<ellipse id="XMLID_1668_" class="st6" cx="44.4" cy="51.1" rx="0.7" ry="2"/>
						<path id="XMLID_2437_" class="st2" d="M44.4,53.2c-0.4,0-0.7-0.9-0.7-2.1s0.3-2.1,0.7-2.1s0.7,0.9,0.7,2.1
							S44.8,53.2,44.4,53.2z M44.4,49.2c-0.3,0-0.6,0.8-0.6,2s0.3,2,0.6,2s0.6-0.8,0.6-2S44.7,49.2,44.4,49.2z"/>
					</g>
					<g id="XMLID_2436_">
						<ellipse id="XMLID_1666_" class="st6" cx="56.1" cy="51.1" rx="0.7" ry="2"/>
						<path id="XMLID_2433_" class="st2" d="M56.1,53.2c-0.4,0-0.7-0.9-0.7-2.1s0.3-2.1,0.7-2.1s0.7,0.9,0.7,2.1
							S56.5,53.2,56.1,53.2z M56.1,49.2c-0.3,0-0.6,0.8-0.6,2s0.3,2,0.6,2s0.6-0.8,0.6-2S56.3,49.2,56.1,49.2z"/>
					</g>
				</g>
				<g id="XMLID_1664_">
					<g id="XMLID_2432_">
						<ellipse id="XMLID_1665_" class="st6" cx="65.7" cy="51.1" rx="0.5" ry="1.4"/>
						<path id="XMLID_2429_" class="st2" d="M65.7,52.6c-0.3,0-0.5-0.7-0.5-1.4s0.2-1.4,0.5-1.4s0.5,0.7,0.5,1.4S66,52.6,65.7,52.6z
							 M65.7,49.8c-0.2,0-0.4,0.6-0.4,1.3c0,0.8,0.2,1.3,0.4,1.3s0.4-0.6,0.4-1.3C66.1,50.3,65.9,49.8,65.7,49.8z"/>
					</g>
					<g id="XMLID_2428_">
						<ellipse id="XMLID_1663_" class="st6" cx="34.7" cy="51.1" rx="0.5" ry="1.4"/>
						<path id="XMLID_2425_" class="st2" d="M34.7,52.6c-0.3,0-0.5-0.7-0.5-1.4s0.2-1.4,0.5-1.4s0.5,0.7,0.5,1.4
							S35.1,52.6,34.7,52.6z M34.7,49.8c-0.2,0-0.4,0.6-0.4,1.3c0,0.8,0.2,1.3,0.4,1.3s0.4-0.6,0.4-1.3
							C35.2,50.3,34.9,49.8,34.7,49.8z"/>
					</g>
				</g>
				<g id="XMLID_2424_">
					<rect id="XMLID_1662_" x="35.3" y="85" class="st6" width="29.8" height="3.3"/>
					<path id="XMLID_2421_" class="st2" d="M65.3,88.5H35.2v-3.6h30.1V88.5z M35.4,88.2H65v-3.1H35.4V88.2z"/>
				</g>
				<g id="XMLID_2420_">
					<rect id="XMLID_1661_" x="37.6" y="82.1" class="st5" width="25.2" height="2.9"/>
					<path id="XMLID_2417_" class="st2" d="M63,85.1H37.5v-3.2H63V85.1z M37.7,84.9h25v-2.7h-25V84.9z"/>
				</g>
				<g id="XMLID_2416_">
					<path id="XMLID_1651_" class="st6" d="M50.2,70.6c-4.4,0.5-10.4,11.5-10.4,11.5h10.4h10.4C60.6,82.1,54.6,71.1,50.2,70.6z"/>
					<path id="XMLID_2413_" class="st2" d="M60.8,82.2H39.6l0.1-0.2c0.2-0.4,6.1-11,10.5-11.5l0,0l0,0C54.6,71,60.5,81.6,60.7,82
						L60.8,82.2z M40,81.9h20.3c-0.8-1.4-6.2-10.7-10.2-11.2C46.3,71.2,40.9,80.5,40,81.9z"/>
				</g>
				<g id="XMLID_2412_">
					<path id="XMLID_1615_" class="st6" d="M49.1,69c-2.2-1.3-3.6-6.9-3.6-6.9s3.2,5.6,6,6.1L49.1,69z"/>
					<path id="XMLID_2409_" class="st2" d="M49.1,69.2L49.1,69.2c-2.3-1.4-3.6-6.8-3.7-7.1l-0.2-0.9l0.4,0.8c0,0.1,3.2,5.6,5.9,6.1
						l0.5,0.1L49.1,69.2z M45.9,62.9c0.5,1.6,1.6,5,3.2,6l2-0.7C49,67.5,46.8,64.4,45.9,62.9z"/>
				</g>
				<g id="XMLID_2408_">
					<path id="XMLID_1614_" class="st6" d="M51,69c2.2-1.3,3.6-6.9,3.6-6.9s-3.2,5.6-6,6.1L51,69z"/>
					<path id="XMLID_2405_" class="st2" d="M51,69.2l-3-1l0.5-0.1c2.7-0.5,5.9-6,5.9-6.1l0.4-0.8l-0.2,0.9
						C54.6,62.4,53.3,67.8,51,69.2L51,69.2z M49,68.3l2,0.7c1.6-1,2.8-4.4,3.2-6C53.3,64.4,51.1,67.5,49,68.3z"/>
				</g>
				<g id="XMLID_2404_">
					<path id="XMLID_1613_" class="st6" d="M51.9,69.8c3-0.1,8.2-6,8.2-6s-6.9,4.6-9.9,3.4L51.9,69.8z"/>
					<path id="XMLID_2401_" class="st2" d="M51.9,69.9l-2-2.9l0.4,0.2c2.9,1.2,9.7-3.4,9.8-3.4l0.8-0.6l-0.7,0.7
						C60,64.2,54.9,69.8,51.9,69.9L51.9,69.9z M50.5,67.5l1.5,2.2c2.3-0.2,5.9-3.7,7.4-5.2C57.5,65.6,53,68.1,50.5,67.5z"/>
				</g>
				<g id="XMLID_2400_">
					<path id="XMLID_1612_" class="st6" d="M47.4,69.8c-3-0.1-8.2-6-8.2-6s6.9,4.6,9.9,3.4L47.4,69.8z"/>
					<path id="XMLID_2397_" class="st2" d="M47.4,69.9L47.4,69.9c-3.1-0.2-8.1-5.8-8.4-6l-0.7-0.7l0.8,0.6c0.1,0,6.9,4.6,9.8,3.4
						l0.4-0.2L47.4,69.9z M40,64.5c1.5,1.5,5.1,5,7.4,5.2l1.5-2.2C46.3,68.1,41.8,65.6,40,64.5z"/>
				</g>
				<g id="XMLID_2396_">
					<path id="XMLID_1611_" class="st6" d="M58.4,76.8c-0.9-3.3-5.5-6.2-8.1-6.2s-7.2,2.9-8.1,6.2c1.5,1.6,3.7,1.9,5.3,0.2
						c-0.4,3.3,2.8,4.3,2.8,4.3s3.3-1,2.8-4.3C54.6,78.7,56.8,78.4,58.4,76.8z"/>
					<path id="XMLID_2393_" class="st2" d="M50.2,81.4L50.2,81.4c-0.1,0-3.2-1-3-4.1c-0.6,0.6-1.4,0.9-2.2,0.9c0,0,0,0,0,0
						c-1,0-2.1-0.5-2.9-1.4l0-0.1l0-0.1c0.9-3.5,5.7-6.3,8.3-6.3c2.6,0,7.3,2.8,8.3,6.3l0,0.1l0,0.1c-0.9,0.9-1.9,1.4-2.9,1.4
						c0,0,0,0,0,0c-0.8,0-1.6-0.3-2.2-0.9C53.4,80.4,50.3,81.4,50.2,81.4L50.2,81.4z M47.5,76.6l0,0.4c-0.4,3,2.4,4,2.7,4.2
						c0.4-0.1,3.1-1.1,2.7-4.2l0-0.4l0.3,0.3c0.6,0.7,1.4,1.1,2.3,1.1c0,0,0,0,0,0c1,0,1.9-0.4,2.7-1.2c-1-3.3-5.5-6-8-6s-7,2.7-8,6
						C43,77.6,44,78,44.9,78c0,0,0,0,0,0c0.9,0,1.7-0.4,2.3-1.1L47.5,76.6z"/>
				</g>
				<g id="XMLID_1609_">
					<g id="XMLID_2392_">
						<path id="XMLID_1610_" class="st6" d="M43.3,75.5c-0.2,0.4-0.4,0.7-0.5,1.1c0.3,0.3,0.6,0.6,1,0.8"/>
						<path id="XMLID_2391_" class="st2" d="M43.8,77.4c-0.4-0.2-0.7-0.5-1-0.8l0-0.1l0-0.1c0.1-0.4,0.3-0.8,0.5-1.1l0.2,0.1
							c-0.2,0.3-0.3,0.7-0.4,1c0.3,0.3,0.6,0.5,0.9,0.7L43.8,77.4z"/>
					</g>
					<g id="XMLID_2390_">
						<path id="XMLID_1454_" class="st6" d="M57.1,75.5c0.2,0.4,0.4,0.7,0.5,1.1c-0.3,0.3-0.6,0.6-1,0.8"/>
						<path id="XMLID_2389_" class="st2" d="M56.6,77.4l-0.1-0.2c0.3-0.2,0.6-0.4,0.9-0.7c-0.1-0.3-0.2-0.7-0.4-1l0.2-0.1
							c0.2,0.4,0.4,0.8,0.5,1.1l0,0.1l0,0.1C57.3,77,57,77.2,56.6,77.4z"/>
					</g>
				</g>
				<g id="XMLID_2388_">
					<ellipse id="XMLID_1452_" class="st5" cx="50.2" cy="70.6" rx="2.8" ry="3.6"/>
					<path id="XMLID_2385_" class="st2" d="M50.2,74.4c-1.6,0-3-1.7-3-3.8s1.3-3.8,3-3.8c1.6,0,3,1.7,3,3.8S51.9,74.4,50.2,74.4z
						 M50.2,67.1c-1.5,0-2.7,1.6-2.7,3.5s1.2,3.5,2.7,3.5s2.7-1.6,2.7-3.5S51.7,67.1,50.2,67.1z"/>
				</g>
				<g id="XMLID_2384_">
					<ellipse id="XMLID_1431_" class="st4" cx="50.2" cy="70.6" rx="1.5" ry="2"/>
					<path id="XMLID_2381_" class="st2" d="M50.2,72.7c-0.9,0-1.7-0.9-1.7-2.1s0.8-2.1,1.7-2.1c0.9,0,1.7,0.9,1.7,2.1
						S51.1,72.7,50.2,72.7z M50.2,68.7c-0.8,0-1.4,0.8-1.4,1.9s0.6,1.9,1.4,1.9s1.4-0.8,1.4-1.9S51,68.7,50.2,68.7z"/>
				</g>
				<g id="XMLID_2380_">
					<path id="XMLID_2152_" class="st6" d="M49.1,80c0.6,0.4,1.1,0.6,1.1,0.6s0.5-0.2,1.1-0.6"/>
					<path id="XMLID_2379_" class="st2" d="M50.2,80.7L50.2,80.7c-0.1,0-0.6-0.2-1.2-0.6l0.1-0.2c0.5,0.3,0.9,0.5,1.1,0.5
						c0.1,0,0.6-0.2,1.1-0.5l0.1,0.2C50.8,80.5,50.3,80.6,50.2,80.7L50.2,80.7z"/>
				</g>
			</g>
			<g id="XMLID_1759_">
				<g id="XMLID_2378_">
					<path id="XMLID_2088_" class="st3" d="M139.8,42.2l-5.1-5.9l-2.4,5.5l-3.9-7.8l-3.9-2.4l-1.9,10.2l-4.9-7.2l-5.6,3.7l-4.4-4.3
						c-0.6,1.7-1.2,3.4-1.6,5.1c-1.1,4.4-1.9,8.9-1.4,13.5c1,9.2,9,18.6,20,17.2c9-1.2,15.8-10.1,15.8-20.4
						C140.7,47,140.3,44.6,139.8,42.2"/>
					<path id="XMLID_2144_" class="st2" d="M122.6,70.2c-3.7,0-7.2-1.2-10.3-3.6c-4.2-3.3-7-8.5-7.6-13.8c-0.5-5,0.4-9.7,1.4-13.6
						c0.5-1.8,1-3.5,1.6-5.2l0.1-0.2l4.4,4.4l5.6-3.7l4.8,7.1l1.9-10.1l4.1,2.5l0,0l3.8,7.6l2.4-5.5l0.1,0.2l5.1,5.9l-0.1,0.1l0.1,0
						c0.6,2.6,0.9,5,0.9,7.3c0,5-1.6,9.9-4.6,13.7c-3,3.8-7,6.3-11.4,6.8C124.1,70.1,123.4,70.2,122.6,70.2z M107.9,34.3
						c-0.6,1.6-1.1,3.2-1.5,4.9c-1,3.9-1.9,8.5-1.4,13.5c0.6,5.3,3.4,10.4,7.5,13.6c3.6,2.8,7.9,4,12.3,3.4
						c9-1.2,15.7-9.9,15.7-20.3c0-2.2-0.3-4.6-0.9-7.2l-4.9-5.7l-2.4,5.6l-4-8l-3.7-2.3l-1.9,10.3l-5-7.4l-5.6,3.7L107.9,34.3z"/>
				</g>
				<polygon id="XMLID_2151_" class="st4" points="141.7,51.1 139.6,51.1 140.7,47.9 				"/>
				<polygon id="XMLID_2150_" class="st5" points="140.2,54.3 139.6,51.1 141.7,51.1 				"/>
				<polygon id="XMLID_2149_" class="st4" points="105.8,51.1 103.6,51.1 104.7,47.9 				"/>
				<polygon id="XMLID_2148_" class="st4" points="114.5,51.1 109.1,51.1 111.8,47.9 				"/>
				<polygon id="XMLID_2147_" class="st5" points="111.8,54.3 109.1,51.1 114.5,51.1 				"/>
				<polygon id="XMLID_2146_" class="st4" points="136.2,51.1 130.9,51.1 133.6,47.9 				"/>
				<polygon id="XMLID_2145_" class="st5" points="133.6,54.3 130.9,51.1 136.2,51.1 				"/>
				<polygon id="XMLID_2143_" class="st2" points="126.3,54.9 123.4,48.3 123.4,48.3 124.2,45.5 122.6,41.9 122.8,41.8 124.4,45.5 
					123.6,48.3 126.5,54.8 				"/>
				<polygon id="XMLID_2142_" class="st2" points="111.9,47.5 111.7,47.4 112.8,46 109,44.3 109,44.2 112.1,38.3 112.3,38.4 
					109.3,44.2 113.2,45.9 				"/>
				<polygon id="XMLID_2112_" class="st2" points="132.3,46 129.5,44.6 132.3,41.8 132.5,41.9 129.9,44.6 132.4,45.8 				"/>
				<g id="XMLID_2113_">
					<polygon id="XMLID_2141_" class="st5" points="122.7,56.1 119,51.1 126.4,51.1 					"/>
					<polygon id="XMLID_2114_" class="st4" points="126.4,51.1 119,51.1 122.7,46.2 					"/>
				</g>
				<path id="XMLID_2110_" class="st2" d="M122.7,56.3l-3.8-5.1l0.1-0.1l3.8-5.1l3.8,5.1l-0.1,0.1L122.7,56.3z M119.2,51.1l3.5,4.7
					l3.5-4.7l-3.5-4.7L119.2,51.1z"/>
				<g id="XMLID_2109_">
					<polygon id="XMLID_2111_" class="st5" points="105.1,54.3 103.6,51.1 105.8,51.1 					"/>
					<path id="XMLID_2107_" class="st2" d="M105.2,54.7l-1.7-3.6l0,0l1.2-3.6l1.2,3.6l0,0L105.2,54.7z M103.8,51.1l1.3,2.8l0.6-2.8
						l-0.9-2.8L103.8,51.1z"/>
				</g>
				<g id="XMLID_2106_">
					<polygon id="XMLID_2108_" class="st5" points="140.2,54.3 141.7,51.1 139.5,51.1 					"/>
					<path id="XMLID_2105_" class="st2" d="M140.1,54.7l-0.7-3.6l0,0l1.2-3.6l1.2,3.6l0,0L140.1,54.7z M139.7,51.1l0.6,2.8l1.3-2.8
						l-0.9-2.8L139.7,51.1z"/>
				</g>
				<path id="XMLID_2103_" class="st2" d="M111.8,54.5l-2.8-3.4l2.8-3.4l2.8,3.4L111.8,54.5z M109.3,51.1l2.5,3l2.5-3l-2.5-3
					L109.3,51.1z"/>
				<path id="XMLID_2365_" class="st2" d="M133.6,54.5l-2.8-3.4l2.8-3.4l2.8,3.4L133.6,54.5z M131,51.1l2.5,3l2.5-3l-2.5-3L131,51.1
					z"/>
				<g id="XMLID_1812_">
					<g id="XMLID_2364_">
						<ellipse id="XMLID_1937_" class="st6" cx="116.9" cy="51.1" rx="0.7" ry="2"/>
						<path id="XMLID_2361_" class="st2" d="M116.9,53.2c-0.4,0-0.7-0.9-0.7-2.1s0.3-2.1,0.7-2.1s0.7,0.9,0.7,2.1
							S117.3,53.2,116.9,53.2z M116.9,49.2c-0.3,0-0.6,0.8-0.6,2s0.3,2,0.6,2s0.6-0.8,0.6-2S117.2,49.2,116.9,49.2z"/>
					</g>
					<g id="XMLID_2360_">
						<ellipse id="XMLID_1811_" class="st6" cx="128.5" cy="51.1" rx="0.7" ry="2"/>
						<path id="XMLID_2357_" class="st2" d="M128.5,53.2c-0.4,0-0.7-0.9-0.7-2.1s0.3-2.1,0.7-2.1s0.7,0.9,0.7,2.1
							S128.9,53.2,128.5,53.2z M128.5,49.2c-0.3,0-0.6,0.8-0.6,2s0.3,2,0.6,2s0.6-0.8,0.6-2S128.8,49.2,128.5,49.2z"/>
					</g>
				</g>
				<g id="XMLID_1774_">
					<g id="XMLID_2356_">
						<ellipse id="XMLID_1810_" class="st6" cx="138.2" cy="51.1" rx="0.5" ry="1.4"/>
						<path id="XMLID_2353_" class="st2" d="M138.2,52.6c-0.3,0-0.5-0.7-0.5-1.4s0.2-1.4,0.5-1.4s0.5,0.7,0.5,1.4
							S138.5,52.6,138.2,52.6z M138.2,49.8c-0.2,0-0.4,0.6-0.4,1.3c0,0.8,0.2,1.3,0.4,1.3s0.4-0.6,0.4-1.3
							C138.6,50.3,138.4,49.8,138.2,49.8z"/>
					</g>
					<g id="XMLID_2352_">
						<ellipse id="XMLID_1773_" class="st6" cx="107.2" cy="51.1" rx="0.5" ry="1.4"/>
						<path id="XMLID_2349_" class="st2" d="M107.2,52.6c-0.3,0-0.5-0.7-0.5-1.4s0.2-1.4,0.5-1.4s0.5,0.7,0.5,1.4
							S107.5,52.6,107.2,52.6z M107.2,49.8c-0.2,0-0.4,0.6-0.4,1.3c0,0.8,0.2,1.3,0.4,1.3s0.4-0.6,0.4-1.3
							C107.6,50.3,107.4,49.8,107.2,49.8z"/>
					</g>
				</g>
				<g id="XMLID_2348_">
					<rect id="XMLID_1772_" x="107.8" y="85" class="st6" width="29.8" height="3.3"/>
					<path id="XMLID_2345_" class="st2" d="M137.7,88.5h-30.1v-3.6h30.1V88.5z M107.9,88.2h29.6v-3.1h-29.6V88.2z"/>
				</g>
				<g id="XMLID_2344_">
					<rect id="XMLID_1771_" x="110.1" y="82.1" class="st5" width="25.2" height="2.9"/>
					<path id="XMLID_2341_" class="st2" d="M135.4,85.1H110v-3.2h25.5V85.1z M110.2,84.9h25v-2.7h-25V84.9z"/>
				</g>
				<g id="XMLID_2340_">
					<path id="XMLID_1770_" class="st6" d="M122.7,70.6c-4.4,0.5-10.4,11.5-10.4,11.5h10.4h10.4C133.1,82.1,127.1,71.1,122.7,70.6z"
						/>
					<path id="XMLID_2337_" class="st2" d="M133.3,82.2h-21.2l0.1-0.2c0.2-0.4,6.1-11,10.5-11.5l0,0l0,0
						c4.4,0.5,10.2,11.1,10.5,11.5L133.3,82.2z M112.5,81.9h20.3c-0.8-1.4-6.2-10.7-10.2-11.2C118.8,71.2,113.3,80.5,112.5,81.9z"/>
				</g>
				<g id="XMLID_2336_">
					<path id="XMLID_1769_" class="st6" d="M121.6,69c-2.2-1.3-3.6-6.9-3.6-6.9s3.2,5.6,6,6.1L121.6,69z"/>
					<path id="XMLID_2333_" class="st2" d="M121.6,69.2L121.6,69.2c-2.3-1.4-3.6-6.8-3.7-7.1l-0.2-0.9l0.4,0.8
						c0,0.1,3.2,5.6,5.9,6.1l0.5,0.1L121.6,69.2z M118.4,62.9c0.5,1.6,1.6,5,3.2,6l2-0.7C121.5,67.5,119.3,64.4,118.4,62.9z"/>
				</g>
				<g id="XMLID_2332_">
					<path id="XMLID_1768_" class="st6" d="M123.5,69c2.2-1.3,3.6-6.9,3.6-6.9s-3.2,5.6-6,6.1L123.5,69z"/>
					<path id="XMLID_2321_" class="st2" d="M123.5,69.2l-3-1l0.5-0.1c2.7-0.5,5.9-6,5.9-6.1l0.4-0.8l-0.2,0.9
						C127.1,62.4,125.7,67.8,123.5,69.2L123.5,69.2z M121.5,68.3l2,0.7c1.6-1,2.8-4.4,3.2-6C125.7,64.4,123.6,67.5,121.5,68.3z"/>
				</g>
				<g id="XMLID_2320_">
					<path id="XMLID_1767_" class="st6" d="M124.4,69.8c3-0.1,8.2-6,8.2-6s-6.9,4.6-9.9,3.4L124.4,69.8z"/>
					<path id="XMLID_2317_" class="st2" d="M124.3,69.9l-2-2.9l0.4,0.2c2.9,1.2,9.7-3.4,9.8-3.4l0.8-0.6l-0.7,0.7
						C132.5,64.2,127.4,69.8,124.3,69.9L124.3,69.9z M123,67.5l1.5,2.2c2.3-0.2,5.9-3.7,7.4-5.2C130,65.6,125.5,68.1,123,67.5z"/>
				</g>
				<g id="XMLID_2316_">
					<path id="XMLID_1766_" class="st6" d="M119.8,69.8c-3-0.1-8.2-6-8.2-6s6.9,4.6,9.9,3.4L119.8,69.8z"/>
					<path id="XMLID_2313_" class="st2" d="M119.9,69.9L119.9,69.9c-3.1-0.2-8.1-5.8-8.4-6l-0.7-0.7l0.8,0.6c0.1,0,6.9,4.6,9.8,3.4
						l0.4-0.2L119.9,69.9z M112.4,64.5c1.5,1.5,5.1,5,7.4,5.2l1.5-2.2C118.7,68.1,114.3,65.6,112.4,64.5z"/>
				</g>
				<g id="XMLID_2312_">
					<path id="XMLID_1765_" class="st6" d="M130.8,76.8c-0.9-3.3-5.5-6.2-8.1-6.2s-7.2,2.9-8.1,6.2c1.5,1.6,3.7,1.9,5.3,0.2
						c-0.4,3.3,2.8,4.3,2.8,4.3s3.3-1,2.8-4.3C127.1,78.7,129.3,78.4,130.8,76.8z"/>
					<path id="XMLID_2309_" class="st2" d="M122.7,81.4L122.7,81.4c-0.1,0-3.2-1-3-4.1c-0.6,0.6-1.4,0.9-2.2,0.9c0,0,0,0,0,0
						c-1,0-2.1-0.5-2.9-1.4l0-0.1l0-0.1c0.9-3.5,5.7-6.3,8.3-6.3s7.3,2.8,8.3,6.3l0,0.1l0,0.1c-0.9,0.9-1.9,1.4-2.9,1.4c0,0,0,0,0,0
						c-0.8,0-1.6-0.3-2.2-0.9C125.9,80.4,122.8,81.4,122.7,81.4L122.7,81.4z M120,76.6l0,0.4c-0.4,3,2.4,4,2.7,4.2
						c0.4-0.1,3.1-1.1,2.7-4.2l0-0.4l0.3,0.3c0.6,0.7,1.4,1.1,2.3,1.1c0,0,0,0,0,0c1,0,1.9-0.4,2.7-1.2c-1-3.3-5.5-6-8-6
						c-2.5,0-7,2.7-8,6c0.8,0.8,1.8,1.2,2.7,1.2c0,0,0,0,0,0c0.9,0,1.7-0.4,2.3-1.1L120,76.6z"/>
				</g>
				<g id="XMLID_1763_">
					<g id="XMLID_2308_">
						<path id="XMLID_1764_" class="st6" d="M115.8,75.5c-0.2,0.4-0.4,0.7-0.5,1.1c0.3,0.3,0.6,0.6,1,0.8"/>
						<path id="XMLID_2307_" class="st2" d="M116.3,77.4c-0.4-0.2-0.7-0.5-1-0.8l0-0.1l0-0.1c0.1-0.4,0.3-0.8,0.5-1.1l0.2,0.1
							c-0.2,0.3-0.3,0.7-0.4,1c0.3,0.3,0.6,0.5,0.9,0.7L116.3,77.4z"/>
					</g>
					<g id="XMLID_2306_">
						<path id="XMLID_1762_" class="st6" d="M129.6,75.5c0.2,0.4,0.4,0.7,0.5,1.1c-0.3,0.3-0.6,0.6-1,0.8"/>
						<path id="XMLID_2305_" class="st2" d="M129.1,77.4l-0.1-0.2c0.3-0.2,0.6-0.4,0.9-0.7c-0.1-0.3-0.2-0.7-0.4-1l0.2-0.1
							c0.2,0.4,0.4,0.8,0.5,1.1l0,0.1l0,0.1C129.8,77,129.5,77.2,129.1,77.4z"/>
					</g>
				</g>
				<g id="XMLID_2304_">
					<ellipse id="XMLID_1761_" class="st5" cx="122.7" cy="70.6" rx="2.8" ry="3.6"/>
					<path id="XMLID_2301_" class="st2" d="M122.7,74.4c-1.6,0-3-1.7-3-3.8s1.3-3.8,3-3.8c1.6,0,3,1.7,3,3.8S124.3,74.4,122.7,74.4z
						 M122.7,67.1c-1.5,0-2.7,1.6-2.7,3.5s1.2,3.5,2.7,3.5s2.7-1.6,2.7-3.5S124.2,67.1,122.7,67.1z"/>
				</g>
				<g id="XMLID_2300_">
					<ellipse id="XMLID_1760_" class="st4" cx="122.7" cy="70.6" rx="1.5" ry="2"/>
					<path id="XMLID_2187_" class="st2" d="M122.7,72.7c-0.9,0-1.7-0.9-1.7-2.1s0.8-2.1,1.7-2.1c0.9,0,1.7,0.9,1.7,2.1
						S123.6,72.7,122.7,72.7z M122.7,68.7c-0.8,0-1.4,0.8-1.4,1.9s0.6,1.9,1.4,1.9s1.4-0.8,1.4-1.9S123.5,68.7,122.7,68.7z"/>
				</g>
				<g id="XMLID_2186_">
					<path id="XMLID_2184_" class="st6" d="M121.6,80c0.6,0.4,1.1,0.6,1.1,0.6s0.5-0.2,1.1-0.6"/>
					<path id="XMLID_2185_" class="st2" d="M122.7,80.7L122.7,80.7c-0.1,0-0.6-0.2-1.2-0.6l0.1-0.2c0.5,0.3,0.9,0.5,1.1,0.5
						c0.1,0,0.6-0.2,1.1-0.5l0.1,0.2C123.3,80.5,122.8,80.6,122.7,80.7L122.7,80.7z"/>
				</g>
			</g>
		</g>
		<g id="XMLID_2154_">
			<g id="XMLID_3696_">
				<g id="XMLID_2183_">
					<path id="XMLID_2161_" class="st3" d="M67.3,191.5l-5.1-5.9l-2.4,5.5l-3.9-7.8l-3.9-2.4l-1.9,10.2l-4.9-7.2l-5.6,3.7l-4.4-4.3
						c-0.6,1.7-1.2,3.4-1.6,5.1c-1.1,4.4-1.9,8.9-1.4,13.5c1,9.2,9,18.6,20,17.2c9-1.2,15.8-10.1,15.8-20.4
						C68.2,196.3,67.9,193.8,67.3,191.5"/>
					<path id="XMLID_2180_" class="st2" d="M50.1,219.4c-3.7,0-7.2-1.2-10.3-3.6c-4.2-3.3-7-8.5-7.6-13.8c-0.5-5,0.4-9.7,1.4-13.6
						c0.5-1.8,1-3.5,1.6-5.2l0.1-0.2l4.4,4.4l5.6-3.7l4.8,7.1l1.9-10.1l4.1,2.5l0,0l3.8,7.6l2.4-5.5l0.1,0.2l5.1,5.9l-0.1,0.1l0.1,0
						c0.6,2.6,0.9,5,0.9,7.3c0,5-1.6,9.9-4.6,13.7c-3,3.8-7,6.3-11.4,6.8C51.6,219.4,50.9,219.4,50.1,219.4z M35.4,183.5
						c-0.6,1.6-1.1,3.2-1.5,4.9c-1,3.9-1.9,8.5-1.4,13.5c0.6,5.3,3.4,10.4,7.5,13.6c3.6,2.8,7.9,4,12.3,3.4
						c9-1.2,15.7-9.9,15.7-20.3c0-2.2-0.3-4.6-0.9-7.2l-4.9-5.7l-2.4,5.6l-4-8l-3.7-2.3l-1.9,10.3l-5-7.4l-5.6,3.7L35.4,183.5z"/>
				</g>
				<polygon id="XMLID_3778_" class="st4" points="69.3,200.4 67.2,200.4 68.2,197.2 				"/>
				<polygon id="XMLID_3777_" class="st5" points="67.7,203.6 67.2,200.4 69.3,200.4 				"/>
				<polygon id="XMLID_3776_" class="st4" points="33.3,200.4 31.2,200.4 32.2,197.2 				"/>
				<polygon id="XMLID_3775_" class="st4" points="42,200.4 36.7,200.4 39.4,197.2 				"/>
				<polygon id="XMLID_3774_" class="st5" points="39.4,203.6 36.7,200.4 42,200.4 				"/>
				<polygon id="XMLID_3767_" class="st4" points="63.8,200.4 58.4,200.4 61.1,197.2 				"/>
				<polygon id="XMLID_3766_" class="st5" points="61.1,203.6 58.4,200.4 63.8,200.4 				"/>
				<polygon id="XMLID_2179_" class="st2" points="53.8,204.2 50.9,197.6 50.9,197.6 51.7,194.8 50.1,191.2 50.3,191.1 52,194.7 
					51.2,197.6 54,204.1 				"/>
				<polygon id="XMLID_2178_" class="st2" points="39.5,196.8 39.3,196.6 40.3,195.2 36.5,193.6 36.6,193.4 39.6,187.5 39.9,187.7 
					36.8,193.4 40.7,195.1 				"/>
				<polygon id="XMLID_2177_" class="st2" points="59.9,195.3 57,193.9 59.8,191 60,191.2 57.5,193.8 60,195.1 				"/>
				<g id="XMLID_3760_">
					<polygon id="XMLID_3762_" class="st5" points="50.2,205.3 46.5,200.4 53.9,200.4 					"/>
					<polygon id="XMLID_3761_" class="st4" points="53.9,200.4 46.5,200.4 50.2,195.5 					"/>
				</g>
				<path id="XMLID_2174_" class="st2" d="M50.2,205.5l-3.8-5.1l0.1-0.1l3.8-5.1l3.8,5.1l-0.1,0.1L50.2,205.5z M46.7,200.4l3.5,4.7
					l3.5-4.7l-3.5-4.7L46.7,200.4z"/>
				<g id="XMLID_3756_">
					<polygon id="XMLID_3758_" class="st5" points="32.7,203.6 31.2,200.4 33.3,200.4 					"/>
					<path id="XMLID_2171_" class="st2" d="M32.7,204l-1.7-3.6l0,0l1.2-3.6l1.2,3.6l0,0L32.7,204z M31.3,200.4l1.3,2.8l0.6-2.8
						l-0.9-2.8L31.3,200.4z"/>
				</g>
				<g id="XMLID_3753_">
					<polygon id="XMLID_3755_" class="st5" points="67.7,203.6 69.2,200.4 67.1,200.4 					"/>
					<path id="XMLID_2168_" class="st2" d="M67.7,204l-0.7-3.6l0,0l1.2-3.6l1.2,3.6l0,0L67.7,204z M67.2,200.4l0.6,2.8l1.3-2.8
						l-0.9-2.8L67.2,200.4z"/>
				</g>
				<path id="XMLID_2165_" class="st2" d="M39.4,203.8l-2.8-3.4l2.8-3.4l2.8,3.4L39.4,203.8z M36.8,200.4l2.5,3l2.5-3l-2.5-3
					L36.8,200.4z"/>
				<path id="XMLID_2162_" class="st2" d="M61.1,203.8l-2.8-3.4l2.8-3.4l2.8,3.4L61.1,203.8z M58.6,200.4l2.5,3l2.5-3l-2.5-3
					L58.6,200.4z"/>
				<g id="XMLID_3748_">
					<g id="XMLID_2160_">
						<ellipse id="XMLID_2140_" class="st6" cx="44.4" cy="200.4" rx="0.7" ry="2"/>
						<path id="XMLID_2156_" class="st2" d="M44.4,202.5c-0.4,0-0.7-0.9-0.7-2.1s0.3-2.1,0.7-2.1s0.7,0.9,0.7,2.1
							S44.8,202.5,44.4,202.5z M44.4,198.4c-0.3,0-0.6,0.8-0.6,2s0.3,2,0.6,2s0.6-0.8,0.6-2S44.7,198.4,44.4,198.4z"/>
					</g>
					<g id="XMLID_2139_">
						<ellipse id="XMLID_2135_" class="st6" cx="56.1" cy="200.4" rx="0.7" ry="2"/>
						<path id="XMLID_2136_" class="st2" d="M56.1,202.5c-0.4,0-0.7-0.9-0.7-2.1s0.3-2.1,0.7-2.1s0.7,0.9,0.7,2.1
							S56.5,202.5,56.1,202.5z M56.1,198.4c-0.3,0-0.6,0.8-0.6,2s0.3,2,0.6,2s0.6-0.8,0.6-2S56.3,198.4,56.1,198.4z"/>
					</g>
				</g>
				<g id="XMLID_3745_">
					<g id="XMLID_2134_">
						<ellipse id="XMLID_2130_" class="st6" cx="65.7" cy="200.4" rx="0.5" ry="1.4"/>
						<path id="XMLID_2131_" class="st2" d="M65.7,201.9c-0.3,0-0.5-0.7-0.5-1.4s0.2-1.4,0.5-1.4s0.5,0.7,0.5,1.4
							S66,201.9,65.7,201.9z M65.7,199.1c-0.2,0-0.4,0.6-0.4,1.3s0.2,1.3,0.4,1.3s0.4-0.6,0.4-1.3S65.9,199.1,65.7,199.1z"/>
					</g>
					<g id="XMLID_2129_">
						<ellipse id="XMLID_2125_" class="st6" cx="34.7" cy="200.4" rx="0.5" ry="1.4"/>
						<path id="XMLID_2126_" class="st2" d="M34.7,201.9c-0.3,0-0.5-0.7-0.5-1.4s0.2-1.4,0.5-1.4s0.5,0.7,0.5,1.4
							S35.1,201.9,34.7,201.9z M34.7,199.1c-0.2,0-0.4,0.6-0.4,1.3s0.2,1.3,0.4,1.3s0.4-0.6,0.4-1.3S34.9,199.1,34.7,199.1z"/>
					</g>
				</g>
				<g id="XMLID_2124_">
					<rect id="XMLID_2120_" x="35.3" y="234.3" class="st6" width="29.8" height="3.3"/>
					<path id="XMLID_2121_" class="st2" d="M65.3,237.7H35.2v-3.6h30.1V237.7z M35.4,237.5H65v-3.1H35.4V237.5z"/>
				</g>
				<g id="XMLID_2119_">
					<rect id="XMLID_2115_" x="37.6" y="231.3" class="st5" width="25.2" height="2.9"/>
					<path id="XMLID_2116_" class="st2" d="M63,234.4H37.5v-3.2H63V234.4z M37.7,234.2h25v-2.7h-25V234.2z"/>
				</g>
				<g id="XMLID_2104_">
					<path id="XMLID_2099_" class="st6" d="M50.2,219.9c-4.4,0.5-10.4,11.5-10.4,11.5h10.4h10.4C60.6,231.3,54.6,220.4,50.2,219.9z"
						/>
					<path id="XMLID_2100_" class="st2" d="M60.8,231.5H39.6l0.1-0.2c0.2-0.4,6.1-11,10.5-11.5l0,0l0,0c4.4,0.5,10.2,11.1,10.5,11.5
						L60.8,231.5z M40,231.2h20.3c-0.8-1.4-6.2-10.7-10.2-11.2C46.3,220.5,40.9,229.8,40,231.2z"/>
				</g>
				<g id="XMLID_2098_">
					<path id="XMLID_2094_" class="st6" d="M49.1,218.3c-2.2-1.3-3.6-6.9-3.6-6.9s3.2,5.6,6,6.1L49.1,218.3z"/>
					<path id="XMLID_2095_" class="st2" d="M49.1,218.4L49.1,218.4c-2.3-1.4-3.6-6.8-3.7-7.1l-0.2-0.9l0.4,0.8
						c0,0.1,3.2,5.6,5.9,6.1l0.5,0.1L49.1,218.4z M45.9,212.2c0.5,1.6,1.6,5,3.2,6l2-0.7C49,216.8,46.8,213.7,45.9,212.2z"/>
				</g>
				<g id="XMLID_2093_">
					<path id="XMLID_2089_" class="st6" d="M51,218.3c2.2-1.3,3.6-6.9,3.6-6.9s-3.2,5.6-6,6.1L51,218.3z"/>
					<path id="XMLID_2090_" class="st2" d="M51,218.4l-3-1l0.5-0.1c2.7-0.5,5.9-6,5.9-6.1l0.4-0.8l-0.2,0.9
						C54.6,211.6,53.3,217.1,51,218.4L51,218.4z M49,217.5l2,0.7c1.6-1,2.8-4.4,3.2-6C53.3,213.7,51.1,216.8,49,217.5z"/>
				</g>
				<g id="XMLID_2087_">
					<path id="XMLID_2083_" class="st6" d="M51.9,219.1c3-0.1,8.2-6,8.2-6s-6.9,4.6-9.9,3.4L51.9,219.1z"/>
					<path id="XMLID_2084_" class="st2" d="M51.9,219.2l-2-2.9l0.4,0.2c2.9,1.2,9.7-3.4,9.8-3.4l0.8-0.6l-0.7,0.7
						C60,213.4,54.9,219,51.9,219.2L51.9,219.2z M50.5,216.8l1.5,2.2c2.3-0.2,5.9-3.7,7.4-5.2C57.5,214.9,53,217.4,50.5,216.8z"/>
				</g>
				<g id="XMLID_2082_">
					<path id="XMLID_2078_" class="st6" d="M47.4,219.1c-3-0.1-8.2-6-8.2-6s6.9,4.6,9.9,3.4L47.4,219.1z"/>
					<path id="XMLID_2079_" class="st2" d="M47.4,219.2L47.4,219.2c-3.1-0.2-8.1-5.8-8.4-6l-0.7-0.7l0.8,0.6c0.1,0,6.9,4.6,9.8,3.4
						l0.4-0.2L47.4,219.2z M40,213.7c1.5,1.5,5.1,5,7.4,5.2l1.5-2.2C46.3,217.4,41.8,214.9,40,213.7z"/>
				</g>
				<g id="XMLID_2077_">
					<path id="XMLID_2073_" class="st6" d="M58.4,226.1c-0.9-3.3-5.5-6.2-8.1-6.2s-7.2,2.9-8.1,6.2c1.5,1.6,3.7,1.9,5.3,0.2
						c-0.4,3.3,2.8,4.3,2.8,4.3s3.3-1,2.8-4.3C54.6,228,56.8,227.6,58.4,226.1z"/>
					<path id="XMLID_2074_" class="st2" d="M50.2,230.7L50.2,230.7c-0.1,0-3.2-1-3-4.1c-0.6,0.6-1.4,0.9-2.2,0.9c0,0,0,0,0,0
						c-1,0-2.1-0.5-2.9-1.4l0-0.1l0-0.1c0.9-3.5,5.7-6.3,8.3-6.3c2.6,0,7.3,2.8,8.3,6.3l0,0.1l0,0.1c-0.9,0.9-1.9,1.4-2.9,1.4
						c0,0,0,0,0,0c-0.8,0-1.6-0.3-2.2-0.9C53.4,229.7,50.3,230.7,50.2,230.7L50.2,230.7z M47.5,225.9l0,0.4c-0.4,3,2.4,4,2.7,4.2
						c0.4-0.1,3.1-1.1,2.7-4.2l0-0.4l0.3,0.3c0.6,0.7,1.4,1.1,2.3,1.1c0,0,0,0,0,0c1,0,1.9-0.4,2.7-1.2c-1-3.3-5.5-6-8-6s-7,2.7-8,6
						c0.8,0.8,1.8,1.3,2.8,1.2c0.9,0,1.7-0.4,2.3-1.1L47.5,225.9z"/>
				</g>
				<g id="XMLID_3700_">
					<g id="XMLID_2072_">
						<path id="XMLID_2070_" class="st6" d="M43.3,224.7c-0.2,0.4-0.4,0.7-0.5,1.1c0.3,0.3,0.6,0.6,1,0.8"/>
						<path id="XMLID_2071_" class="st2" d="M43.8,226.7c-0.4-0.2-0.7-0.5-1-0.8l0-0.1l0-0.1c0.1-0.4,0.3-0.8,0.5-1.1l0.2,0.1
							c-0.2,0.3-0.3,0.7-0.4,1c0.3,0.3,0.6,0.5,0.9,0.7L43.8,226.7z"/>
					</g>
					<g id="XMLID_2069_">
						<path id="XMLID_2067_" class="st6" d="M57.1,224.7c0.2,0.4,0.4,0.7,0.5,1.1c-0.3,0.3-0.6,0.6-1,0.8"/>
						<path id="XMLID_2068_" class="st2" d="M56.6,226.7l-0.1-0.2c0.3-0.2,0.6-0.4,0.9-0.7c-0.1-0.3-0.2-0.7-0.4-1l0.2-0.1
							c0.2,0.4,0.4,0.8,0.5,1.1l0,0.1l0,0.1C57.3,226.2,57,226.5,56.6,226.7z"/>
					</g>
				</g>
				<g id="XMLID_2066_">
					<ellipse id="XMLID_2062_" class="st5" cx="50.2" cy="219.9" rx="2.8" ry="3.6"/>
					<path id="XMLID_2063_" class="st2" d="M50.2,223.6c-1.6,0-3-1.7-3-3.8s1.3-3.8,3-3.8c1.6,0,3,1.7,3,3.8S51.9,223.6,50.2,223.6z
						 M50.2,216.4c-1.5,0-2.7,1.6-2.7,3.5s1.2,3.5,2.7,3.5s2.7-1.6,2.7-3.5S51.7,216.4,50.2,216.4z"/>
				</g>
				<g id="XMLID_2061_">
					<ellipse id="XMLID_2057_" class="st4" cx="50.2" cy="219.9" rx="1.5" ry="2"/>
					<path id="XMLID_2058_" class="st2" d="M50.2,222c-0.9,0-1.7-0.9-1.7-2.1c0-1.2,0.8-2.1,1.7-2.1c0.9,0,1.7,0.9,1.7,2.1
						C51.9,221,51.1,222,50.2,222z M50.2,218c-0.8,0-1.4,0.8-1.4,1.9s0.6,1.9,1.4,1.9s1.4-0.8,1.4-1.9S51,218,50.2,218z"/>
				</g>
				<g id="XMLID_2056_">
					<path id="XMLID_2054_" class="st6" d="M49.1,229.2c0.6,0.4,1.1,0.6,1.1,0.6s0.5-0.2,1.1-0.6"/>
					<path id="XMLID_2055_" class="st2" d="M50.2,229.9L50.2,229.9c-0.1,0-0.6-0.2-1.2-0.6l0.1-0.2c0.5,0.3,0.9,0.5,1.1,0.5
						c0.1,0,0.6-0.2,1.1-0.5l0.1,0.2C50.8,229.7,50.3,229.9,50.2,229.9L50.2,229.9z"/>
				</g>
			</g>
			<g id="XMLID_2155_">
				<g id="XMLID_2053_">
					<path id="XMLID_2031_" class="st3" d="M139.8,191.5l-5.1-5.9l-2.4,5.5l-3.9-7.8l-3.9-2.4l-1.9,10.2l-4.9-7.2l-5.6,3.7l-4.4-4.3
						c-0.6,1.7-1.2,3.4-1.6,5.1c-1.1,4.4-1.9,8.9-1.4,13.5c1,9.2,9,18.6,20,17.2c9-1.2,15.8-10.1,15.8-20.4
						C140.7,196.3,140.3,193.8,139.8,191.5"/>
					<path id="XMLID_2050_" class="st2" d="M122.6,219.4c-3.7,0-7.2-1.2-10.3-3.6c-4.2-3.3-7-8.5-7.6-13.8c-0.5-5,0.4-9.7,1.4-13.6
						c0.5-1.8,1-3.5,1.6-5.2l0.1-0.2l4.4,4.4l5.6-3.7l4.8,7.1l1.9-10.1l4.1,2.5l0,0l3.8,7.6l2.4-5.5l0.1,0.2l5.1,5.9l-0.1,0.1l0.1,0
						c0.6,2.6,0.9,5,0.9,7.3c0,5-1.6,9.9-4.6,13.7c-3,3.8-7,6.3-11.4,6.8C124.1,219.4,123.4,219.4,122.6,219.4z M107.9,183.5
						c-0.6,1.6-1.1,3.2-1.5,4.9c-1,3.9-1.9,8.5-1.4,13.5c0.6,5.3,3.4,10.4,7.5,13.6c3.6,2.8,7.9,4,12.3,3.4
						c9-1.2,15.7-9.9,15.7-20.3c0-2.2-0.3-4.6-0.9-7.2l-4.9-5.7l-2.4,5.6l-4-8l-3.7-2.3l-1.9,10.3l-5-7.4l-5.6,3.7L107.9,183.5z"/>
				</g>
				<polygon id="XMLID_3694_" class="st4" points="141.7,200.4 139.6,200.4 140.7,197.2 				"/>
				<polygon id="XMLID_3693_" class="st5" points="140.2,203.6 139.6,200.4 141.7,200.4 				"/>
				<polygon id="XMLID_3692_" class="st4" points="105.8,200.4 103.6,200.4 104.7,197.2 				"/>
				<polygon id="XMLID_3691_" class="st4" points="114.5,200.4 109.1,200.4 111.8,197.2 				"/>
				<polygon id="XMLID_3690_" class="st5" points="111.8,203.6 109.1,200.4 114.5,200.4 				"/>
				<polygon id="XMLID_2899_" class="st4" points="136.2,200.4 130.9,200.4 133.6,197.2 				"/>
				<polygon id="XMLID_2898_" class="st5" points="133.6,203.6 130.9,200.4 136.2,200.4 				"/>
				<polygon id="XMLID_2049_" class="st2" points="126.3,204.2 123.4,197.6 123.4,197.6 124.2,194.8 122.6,191.2 122.8,191.1 
					124.4,194.7 123.6,197.6 126.5,204.1 				"/>
				<polygon id="XMLID_2048_" class="st2" points="111.9,196.8 111.7,196.6 112.8,195.2 109,193.6 109,193.4 112.1,187.5 
					112.3,187.7 109.3,193.4 113.2,195.1 				"/>
				<polygon id="XMLID_2047_" class="st2" points="132.3,195.3 129.5,193.9 132.3,191 132.5,191.2 129.9,193.8 132.4,195.1 				"/>
				<g id="XMLID_2892_">
					<polygon id="XMLID_2894_" class="st5" points="122.7,205.3 119,200.4 126.4,200.4 					"/>
					<polygon id="XMLID_2893_" class="st4" points="126.4,200.4 119,200.4 122.7,195.5 					"/>
				</g>
				<path id="XMLID_2044_" class="st2" d="M122.7,205.5l-3.8-5.1l0.1-0.1l3.8-5.1l3.8,5.1l-0.1,0.1L122.7,205.5z M119.2,200.4
					l3.5,4.7l3.5-4.7l-3.5-4.7L119.2,200.4z"/>
				<g id="XMLID_2874_">
					<polygon id="XMLID_2890_" class="st5" points="105.1,203.6 103.6,200.4 105.8,200.4 					"/>
					<path id="XMLID_2041_" class="st2" d="M105.2,204l-1.7-3.6l0,0l1.2-3.6l1.2,3.6l0,0L105.2,204z M103.8,200.4l1.3,2.8l0.6-2.8
						l-0.9-2.8L103.8,200.4z"/>
				</g>
				<g id="XMLID_2775_">
					<polygon id="XMLID_2873_" class="st5" points="140.2,203.6 141.7,200.4 139.5,200.4 					"/>
					<path id="XMLID_2038_" class="st2" d="M140.1,204l-0.7-3.6l0,0l1.2-3.6l1.2,3.6l0,0L140.1,204z M139.7,200.4l0.6,2.8l1.3-2.8
						l-0.9-2.8L139.7,200.4z"/>
				</g>
				<path id="XMLID_2035_" class="st2" d="M111.8,203.8l-2.8-3.4l2.8-3.4l2.8,3.4L111.8,203.8z M109.3,200.4l2.5,3l2.5-3l-2.5-3
					L109.3,200.4z"/>
				<path id="XMLID_2032_" class="st2" d="M133.6,203.8l-2.8-3.4l2.8-3.4l2.8,3.4L133.6,203.8z M131,200.4l2.5,3l2.5-3l-2.5-3
					L131,200.4z"/>
				<g id="XMLID_2703_">
					<g id="XMLID_2030_">
						<ellipse id="XMLID_2026_" class="st6" cx="116.9" cy="200.4" rx="0.7" ry="2"/>
						<path id="XMLID_2027_" class="st2" d="M116.9,202.5c-0.4,0-0.7-0.9-0.7-2.1s0.3-2.1,0.7-2.1s0.7,0.9,0.7,2.1
							S117.3,202.5,116.9,202.5z M116.9,198.4c-0.3,0-0.6,0.8-0.6,2s0.3,2,0.6,2s0.6-0.8,0.6-2S117.2,198.4,116.9,198.4z"/>
					</g>
					<g id="XMLID_2025_">
						<ellipse id="XMLID_2021_" class="st6" cx="128.5" cy="200.4" rx="0.7" ry="2"/>
						<path id="XMLID_2022_" class="st2" d="M128.5,202.5c-0.4,0-0.7-0.9-0.7-2.1s0.3-2.1,0.7-2.1s0.7,0.9,0.7,2.1
							S128.9,202.5,128.5,202.5z M128.5,198.4c-0.3,0-0.6,0.8-0.6,2s0.3,2,0.6,2s0.6-0.8,0.6-2S128.8,198.4,128.5,198.4z"/>
					</g>
				</g>
				<g id="XMLID_2700_">
					<g id="XMLID_2020_">
						<ellipse id="XMLID_2016_" class="st6" cx="138.2" cy="200.4" rx="0.5" ry="1.4"/>
						<path id="XMLID_2017_" class="st2" d="M138.2,201.9c-0.3,0-0.5-0.7-0.5-1.4s0.2-1.4,0.5-1.4s0.5,0.7,0.5,1.4
							S138.5,201.9,138.2,201.9z M138.2,199.1c-0.2,0-0.4,0.6-0.4,1.3s0.2,1.3,0.4,1.3s0.4-0.6,0.4-1.3S138.4,199.1,138.2,199.1z"/>
					</g>
					<g id="XMLID_2015_">
						<ellipse id="XMLID_2011_" class="st6" cx="107.2" cy="200.4" rx="0.5" ry="1.4"/>
						<path id="XMLID_2012_" class="st2" d="M107.2,201.9c-0.3,0-0.5-0.7-0.5-1.4s0.2-1.4,0.5-1.4s0.5,0.7,0.5,1.4
							S107.5,201.9,107.2,201.9z M107.2,199.1c-0.2,0-0.4,0.6-0.4,1.3s0.2,1.3,0.4,1.3s0.4-0.6,0.4-1.3S107.4,199.1,107.2,199.1z"/>
					</g>
				</g>
				<g id="XMLID_2010_">
					<rect id="XMLID_2006_" x="107.8" y="234.3" class="st6" width="29.8" height="3.3"/>
					<path id="XMLID_2007_" class="st2" d="M137.7,237.7h-30.1v-3.6h30.1V237.7z M107.9,237.5h29.6v-3.1h-29.6V237.5z"/>
				</g>
				<g id="XMLID_2005_">
					<rect id="XMLID_2001_" x="110.1" y="231.3" class="st5" width="25.2" height="2.9"/>
					<path id="XMLID_2002_" class="st2" d="M135.4,234.4H110v-3.2h25.5V234.4z M110.2,234.2h25v-2.7h-25V234.2z"/>
				</g>
				<g id="XMLID_2000_">
					<path id="XMLID_1996_" class="st6" d="M122.7,219.9c-4.4,0.5-10.4,11.5-10.4,11.5h10.4h10.4
						C133.1,231.3,127.1,220.4,122.7,219.9z"/>
					<path id="XMLID_1997_" class="st2" d="M133.3,231.5h-21.2l0.1-0.2c0.2-0.4,6.1-11,10.5-11.5l0,0l0,0
						c4.4,0.5,10.2,11.1,10.5,11.5L133.3,231.5z M112.5,231.2h20.3c-0.8-1.4-6.2-10.7-10.2-11.2
						C118.8,220.5,113.3,229.8,112.5,231.2z"/>
				</g>
				<g id="XMLID_1995_">
					<path id="XMLID_1991_" class="st6" d="M121.6,218.3c-2.2-1.3-3.6-6.9-3.6-6.9s3.2,5.6,6,6.1L121.6,218.3z"/>
					<path id="XMLID_1992_" class="st2" d="M121.6,218.4L121.6,218.4c-2.3-1.4-3.6-6.8-3.7-7.1l-0.2-0.9l0.4,0.8
						c0,0.1,3.2,5.6,5.9,6.1l0.5,0.1L121.6,218.4z M118.4,212.2c0.5,1.6,1.6,5,3.2,6l2-0.7C121.5,216.8,119.3,213.7,118.4,212.2z"/>
				</g>
				<g id="XMLID_1990_">
					<path id="XMLID_1986_" class="st6" d="M123.5,218.3c2.2-1.3,3.6-6.9,3.6-6.9s-3.2,5.6-6,6.1L123.5,218.3z"/>
					<path id="XMLID_1987_" class="st2" d="M123.5,218.4l-3-1l0.5-0.1c2.7-0.5,5.9-6,5.9-6.1l0.4-0.8l-0.2,0.9
						C127.1,211.6,125.7,217.1,123.5,218.4L123.5,218.4z M121.5,217.5l2,0.7c1.6-1,2.8-4.4,3.2-6
						C125.7,213.7,123.6,216.8,121.5,217.5z"/>
				</g>
				<g id="XMLID_1985_">
					<path id="XMLID_1981_" class="st6" d="M124.4,219.1c3-0.1,8.2-6,8.2-6s-6.9,4.6-9.9,3.4L124.4,219.1z"/>
					<path id="XMLID_1982_" class="st2" d="M124.3,219.2l-2-2.9l0.4,0.2c2.9,1.2,9.7-3.4,9.8-3.4l0.8-0.6l-0.7,0.7
						C132.5,213.4,127.4,219,124.3,219.2L124.3,219.2z M123,216.8l1.5,2.2c2.3-0.2,5.9-3.7,7.4-5.2C130,214.9,125.5,217.4,123,216.8
						z"/>
				</g>
				<g id="XMLID_1980_">
					<path id="XMLID_1976_" class="st6" d="M119.8,219.1c-3-0.1-8.2-6-8.2-6s6.9,4.6,9.9,3.4L119.8,219.1z"/>
					<path id="XMLID_1977_" class="st2" d="M119.9,219.2L119.9,219.2c-3.1-0.2-8.1-5.8-8.4-6l-0.7-0.7l0.8,0.6
						c0.1,0,6.9,4.6,9.8,3.4l0.4-0.2L119.9,219.2z M112.4,213.7c1.5,1.5,5.1,5,7.4,5.2l1.5-2.2C118.7,217.4,114.3,214.9,112.4,213.7
						z"/>
				</g>
				<g id="XMLID_1975_">
					<path id="XMLID_1971_" class="st6" d="M130.8,226.1c-0.9-3.3-5.5-6.2-8.1-6.2s-7.2,2.9-8.1,6.2c1.5,1.6,3.7,1.9,5.3,0.2
						c-0.4,3.3,2.8,4.3,2.8,4.3s3.3-1,2.8-4.3C127.1,228,129.3,227.6,130.8,226.1z"/>
					<path id="XMLID_1972_" class="st2" d="M122.7,230.7L122.7,230.7c-0.1,0-3.2-1-3-4.1c-0.6,0.6-1.4,0.9-2.2,0.9c0,0,0,0,0,0
						c-1,0-2.1-0.5-2.9-1.4l0-0.1l0-0.1c0.9-3.5,5.7-6.3,8.3-6.3s7.3,2.8,8.3,6.3l0,0.1l0,0.1c-0.9,0.9-1.9,1.4-2.9,1.4c0,0,0,0,0,0
						c-0.8,0-1.6-0.3-2.2-0.9C125.9,229.7,122.8,230.7,122.7,230.7L122.7,230.7z M120,225.9l0,0.4c-0.4,3,2.4,4,2.7,4.2
						c0.4-0.1,3.1-1.1,2.7-4.2l0-0.4l0.3,0.3c0.6,0.7,1.4,1.1,2.3,1.1c0,0,0,0,0,0c1,0,1.9-0.4,2.7-1.2c-1-3.3-5.5-6-8-6
						c-2.5,0-7,2.7-8,6c0.8,0.8,1.8,1.2,2.7,1.2c0,0,0,0,0,0c0.9,0,1.7-0.4,2.3-1.1L120,225.9z"/>
				</g>
				<g id="XMLID_2159_">
					<g id="XMLID_1970_">
						<path id="XMLID_1968_" class="st6" d="M115.8,224.7c-0.2,0.4-0.4,0.7-0.5,1.1c0.3,0.3,0.6,0.6,1,0.8"/>
						<path id="XMLID_1969_" class="st2" d="M116.3,226.7c-0.4-0.2-0.7-0.5-1-0.8l0-0.1l0-0.1c0.1-0.4,0.3-0.8,0.5-1.1l0.2,0.1
							c-0.2,0.3-0.3,0.7-0.4,1c0.3,0.3,0.6,0.5,0.9,0.7L116.3,226.7z"/>
					</g>
					<g id="XMLID_1967_">
						<path id="XMLID_1965_" class="st6" d="M129.6,224.7c0.2,0.4,0.4,0.7,0.5,1.1c-0.3,0.3-0.6,0.6-1,0.8"/>
						<path id="XMLID_1966_" class="st2" d="M129.1,226.7l-0.1-0.2c0.3-0.2,0.6-0.4,0.9-0.7c-0.1-0.3-0.2-0.7-0.4-1l0.2-0.1
							c0.2,0.4,0.4,0.8,0.5,1.1l0,0.1l0,0.1C129.8,226.2,129.5,226.5,129.1,226.7z"/>
					</g>
				</g>
				<g id="XMLID_1964_">
					<ellipse id="XMLID_1960_" class="st5" cx="122.7" cy="219.9" rx="2.8" ry="3.6"/>
					<path id="XMLID_1961_" class="st2" d="M122.7,223.6c-1.6,0-3-1.7-3-3.8s1.3-3.8,3-3.8c1.6,0,3,1.7,3,3.8
						S124.3,223.6,122.7,223.6z M122.7,216.4c-1.5,0-2.7,1.6-2.7,3.5s1.2,3.5,2.7,3.5s2.7-1.6,2.7-3.5S124.2,216.4,122.7,216.4z"/>
				</g>
				<g id="XMLID_1959_">
					<ellipse id="XMLID_1955_" class="st4" cx="122.7" cy="219.9" rx="1.5" ry="2"/>
					<path id="XMLID_1956_" class="st2" d="M122.7,222c-0.9,0-1.7-0.9-1.7-2.1c0-1.2,0.8-2.1,1.7-2.1c0.9,0,1.7,0.9,1.7,2.1
						C124.4,221,123.6,222,122.7,222z M122.7,218c-0.8,0-1.4,0.8-1.4,1.9s0.6,1.9,1.4,1.9s1.4-0.8,1.4-1.9S123.5,218,122.7,218z"/>
				</g>
				<g id="XMLID_1954_">
					<path id="XMLID_1952_" class="st6" d="M121.6,229.2c0.6,0.4,1.1,0.6,1.1,0.6s0.5-0.2,1.1-0.6"/>
					<path id="XMLID_1953_" class="st2" d="M122.7,229.9L122.7,229.9c-0.1,0-0.6-0.2-1.2-0.6l0.1-0.2c0.5,0.3,0.9,0.5,1.1,0.5
						c0.1,0,0.6-0.2,1.1-0.5l0.1,0.2C123.3,229.7,122.8,229.9,122.7,229.9L122.7,229.9z"/>
				</g>
			</g>
		</g>
	</g>
</g>
</svg>
