<?xml version="1.0" encoding="utf-8"?>
<!-- Generator: Adobe Illustrator 19.0.0, SVG Export Plug-In . SVG Version: 6.00 Build 0)  -->
<svg version="1.1" id="Capa_1" xmlns="http://www.w3.org/2000/svg" xmlns:xlink="http://www.w3.org/1999/xlink" x="0px" y="0px"
	 viewBox="0 0 172.9 269.3" style="enable-background:new 0 0 172.9 269.3;" xml:space="preserve">
<style type="text/css">
	.st0{fill:#FFFFFF;}
	.st1{fill:#83CCF1;}
	.st2{fill:#CBE7E9;}
	.st3{fill:#FAEA26;}
	.st4{fill:#EA572D;}
	.st5{fill:#010202;}
</style>
<rect id="XMLID_5965_" x="0" y="0" class="st0" width="172.9" height="269.3"/>
<g id="XMLID_5961_">
	<g id="XMLID_5246_">
		<g id="XMLID_5264_">
			<path id="XMLID_5267_" class="st1" d="M124.8,221.9c0,0-0.3-2.1-0.1-2.3c1.6-1.3,0.6,0.8,1.4,0c0.8-0.8,1.1-2.6,0.9-3.7l-1,0.7
				c0,0-0.9,0.7-1-0.5l0.1-2c0.2-1.2,0.6-0.9,1.8-0.4c-0.2-1.1-0.6-1.6-1.3-3.6c-0.7-2,0.4-1.7,1.6-0.4c1.2,1.2,2.2,3,2.2,3
				c0.2-1.3-0.2-5.5-1-7.6l-0.3,0.8c-0.3,0.8-0.6,1-1.2,0c-0.5-1-1.2-3.5-1.5-4.7c-0.1-0.7,0.2-1,0.7-0.9c0.5,0.1,1.2,0.5,1.2,0.5
				c-1.7-3.3-2-6.8-2.2-9.8c-0.2-3-0.3-8.8,0.2-11.4c0.5-2.7,0.7-9.6,0.6-14.3c-0.1-6.3-2.3-11.5-3-14.4v69.4L124.8,221.9z"/>
			<path id="XMLID_5265_" class="st2" d="M116.6,212.6c0,0,1-1.7,2.2-3c1.2-1.2,2.2-1.6,1.6,0.4c-0.7,2-1.1,2.5-1.3,3.6
				c1.3-0.5,1.7-0.8,1.8,0.4l0.1,2c-0.1,1.2-1,0.5-1,0.5l-1-0.7c-0.2,1.1,0.1,3,0.9,3.7c0.8,0.8-0.2-1.3,1.4,0
				c0.2,0.1-0.1,2.3-0.1,2.3l1.8-1.7v-69.4c-0.6,3-2.9,8.1-3,14.4c-0.2,4.7,0.1,11.7,0.6,14.3c0.5,2.7,0.4,8.4,0.2,11.4
				c-0.2,3-0.4,6.5-2.2,9.8c0,0,0.7-0.4,1.2-0.5c0.5-0.1,0.9,0.2,0.7,0.9c-0.2,1.2-1,3.7-1.5,4.7c-0.5,1-0.9,0.8-1.2,0l-0.3-0.8
				C116.8,207.1,116.3,211.3,116.6,212.6z"/>
		</g>
		<path id="XMLID_5262_" class="st3" d="M114.6,222.7c1.9-1.5,2,0.3,1.9,1.1c-1.9,1.1-1,2.8-0.5,3.2c-0.1-2.1,4.3-4.5,5.8-1.8
			c0,0.1,0.1,0.3,0,0.5c0.8-0.3,1.6-0.3,2.5,0c0-0.2,0-0.4,0-0.5c1.4-2.7,5.8-0.3,5.8,1.8c0.5-0.3,1.4-2.1-0.5-3.2
			c-0.1-0.8,0-2.7,1.9-1.1c0.4-2.9-0.5-8.6-4-11.2c1.4,3.5,1,7.1-0.8,8.9c2.4-0.4,1.8,2.3-0.5,2.3c-0.5,0-1.3-0.9-1.3-0.9l-1.8-1.7
			l-1.8,1.7c0,0-0.8,0.8-1.3,0.9c-2.2,0-2.8-2.7-0.5-2.3c-1.8-1.8-2.2-5.4-0.8-8.9C115.1,214.1,114.2,219.8,114.6,222.7z"/>
		<path id="XMLID_5261_" class="st3" d="M121.8,238.4c0,0,0.1,0.6-0.6,1.1c0,0,0.7,0.3,0.9,0.7c0.1,0.2-1.2,0.2-1.5,1.6
			c-0.1,0.7,0.7,2.7,1,2.7c-0.1-0.7-0.2-1.3,0.2-1.6c0.4-0.3,0.7,0,0.9,0.2c0.1,0.2,0.4,1.2,0.4,1.2s0.3-1.1,0.4-1.2
			c0.1-0.2,0.4-0.4,0.9-0.2c0.4,0.3,0.3,0.9,0.2,1.6c0.3,0,1.1-2,1-2.7c-0.3-1.3-1.5-1.4-1.5-1.6c0.1-0.4,0.9-0.7,0.9-0.7
			c-0.7-0.6-0.6-1.1-0.6-1.1C123.4,238.7,122.6,238.7,121.8,238.4z"/>
		<path id="XMLID_5260_" class="st4" d="M121.8,225.7c0,0.6-0.2,1.5-0.2,1.5c-0.6,3.2-0.3,9.1,0.2,11.2c0.8,0.4,1.6,0.4,2.4,0
			c0.5-2.1,0.8-8.1,0.2-11.2c0,0-0.2-0.9-0.2-1.5C123.4,225.4,122.6,225.4,121.8,225.7z"/>
		<g id="XMLID_5247_">
			<path id="XMLID_5257_" class="st5" d="M123,150.5l0,0.2c0.2,0.8,0.5,1.8,0.8,2.9c0.9,2.9,2.1,7,2.2,11.5
				c0.2,4.6-0.1,11.6-0.6,14.3c-0.4,2.7-0.4,8.4-0.2,11.4l0,0.2c0.2,3,0.5,6.4,2.2,9.7l0.1,0.2l-0.1-0.1c0,0-0.7-0.4-1.2-0.5
				c-0.2,0-0.4,0-0.6,0.1c-0.1,0.1-0.2,0.4-0.1,0.7c0.2,1.2,0.9,3.7,1.5,4.7c0.2,0.4,0.4,0.7,0.6,0.7c0.2,0,0.3-0.2,0.5-0.7l0.3-0.9
				l0,0.1c0.8,2.1,1.2,6.3,1,7.7l0,0.1l-0.1-0.1c0,0-1-1.7-2.1-2.9c-0.7-0.7-1.3-1.1-1.6-1c-0.1,0.1-0.3,0.3,0.1,1.3
				c0.3,0.9,0.6,1.5,0.8,2c0.2,0.6,0.4,1,0.5,1.6l0,0.1l-0.3-0.1c-0.7-0.3-1.1-0.4-1.3-0.3c-0.1,0.1-0.2,0.3-0.3,0.7l-0.1,2
				c0,0.4,0.1,0.6,0.3,0.6c0.3,0.1,0.7-0.2,0.7-0.2l1-0.8l0,0.1c0.2,1.2-0.1,3-0.9,3.8c-0.2,0.2-0.3,0.2-0.3,0.2c0,0,0,0,0,0
				c-0.1,0-0.1-0.1-0.1-0.3c0-0.1,0-0.3-0.1-0.3c-0.1,0-0.3,0-0.8,0.4c-0.1,0.1,0,1.2,0.2,2.2l0,0.1l-1.9-1.8l-1.9,1.8l0-0.1
				c0.1-1,0.2-2.1,0.2-2.2c-0.5-0.4-0.7-0.4-0.8-0.4c-0.1,0-0.1,0.2-0.1,0.3c0,0.1,0,0.2-0.1,0.3c-0.1,0-0.2,0-0.3-0.2
				c-0.8-0.8-1.1-2.6-0.9-3.8l0-0.1l1,0.8c0,0,0.4,0.3,0.7,0.2c0.2-0.1,0.3-0.3,0.3-0.7l-0.1-2c-0.1-0.4-0.1-0.7-0.3-0.7
				c-0.2-0.1-0.6,0-1.3,0.3l-0.3,0.1l0-0.1c0.1-0.6,0.3-1,0.5-1.6c0.2-0.5,0.5-1.1,0.8-2c0.3-1,0.2-1.3,0.1-1.3
				c-0.3-0.2-0.9,0.2-1.6,1c-1.2,1.2-2.1,2.9-2.1,2.9l-0.1,0.1l0-0.1c-0.2-1.3,0.2-5.5,1-7.7l0-0.1l0.3,0.9c0.2,0.4,0.3,0.6,0.5,0.7
				c0.2,0,0.4-0.2,0.6-0.7c0.5-1,1.2-3.5,1.5-4.7c0.1-0.3,0-0.6-0.1-0.7c-0.1-0.1-0.3-0.2-0.6-0.1c-0.5,0.1-1.2,0.5-1.2,0.5
				l-0.1,0.1l0.1-0.2c1.7-3.2,2-6.6,2.2-9.7l0-0.2c0.2-3,0.3-8.8-0.2-11.4c-0.5-2.7-0.7-9.7-0.6-14.3c0-4.6,1.3-8.6,2.2-11.5
				c0.3-1.1,0.6-2.1,0.8-2.9L123,150.5z M127.3,200.6c-1.6-3.2-1.9-6.6-2.1-9.5l0-0.2c-0.2-3-0.3-8.8,0.2-11.5
				c0.5-2.7,0.7-9.7,0.6-14.3c0-4.5-1.3-8.6-2.2-11.5c-0.3-1-0.6-1.9-0.8-2.7c-0.2,0.8-0.5,1.7-0.8,2.7c-0.9,2.9-2.1,6.9-2.2,11.5
				l0,0c-0.2,4.6,0.1,11.6,0.6,14.3c0.5,2.7,0.4,8.5,0.2,11.5l0,0.2c-0.2,3-0.5,6.4-2.1,9.5c0.2-0.1,0.7-0.4,1.1-0.4
				c0.3-0.1,0.5,0,0.6,0.1c0.2,0.2,0.2,0.5,0.1,0.8c-0.2,1.2-1,3.7-1.5,4.7c-0.2,0.5-0.5,0.7-0.7,0.7c-0.2,0-0.4-0.2-0.6-0.7
				l-0.2-0.7c-0.7,2.1-1.1,5.9-0.9,7.3c0.2-0.4,1.1-1.8,2.1-2.8c0.6-0.6,1.3-1.2,1.7-1c0.3,0.2,0.3,0.6,0,1.5
				c-0.3,0.9-0.6,1.5-0.8,2c-0.2,0.5-0.4,0.9-0.5,1.5l0.1,0c0.7-0.3,1.1-0.5,1.4-0.3c0.2,0.1,0.3,0.3,0.3,0.8l0.1,2
				c0,0.4-0.1,0.7-0.3,0.7c-0.3,0.1-0.7-0.2-0.8-0.2l-0.9-0.7c-0.2,1.1,0.2,2.9,0.9,3.6c0.2,0.2,0.2,0.2,0.2,0.2c0,0,0-0.1,0.1-0.2
				c0-0.1,0-0.3,0.2-0.4c0.2-0.1,0.5,0.1,0.9,0.4c0.2,0.1,0,1.6-0.1,2.2l1.8-1.7l1.8,1.7c-0.1-0.6-0.3-2-0.1-2.2
				c0.5-0.4,0.7-0.5,0.9-0.4c0.1,0.1,0.2,0.2,0.2,0.4c0,0.1,0,0.2,0.1,0.2c0,0,0,0,0,0c0,0,0.1,0,0.2-0.2c0.8-0.7,1.1-2.5,0.9-3.6
				l-0.9,0.7c0,0-0.4,0.3-0.8,0.2c-0.2-0.1-0.3-0.3-0.3-0.7l0.1-2c0.1-0.5,0.2-0.7,0.3-0.8c0.3-0.2,0.7,0,1.4,0.3l0.1,0
				c-0.1-0.6-0.3-1-0.5-1.5c-0.2-0.5-0.5-1.1-0.8-2c-0.3-0.8-0.3-1.3,0-1.5c0.4-0.2,1.1,0.4,1.7,1c1,1,1.8,2.4,2.1,2.8
				c0.2-1.4-0.2-5.2-0.9-7.3l-0.3,0.7c-0.2,0.5-0.4,0.7-0.6,0.7c-0.2,0-0.4-0.2-0.7-0.7c-0.5-1-1.2-3.5-1.5-4.7
				c-0.1-0.4,0-0.7,0.1-0.8c0.1-0.1,0.4-0.2,0.6-0.1C126.6,200.2,127.1,200.5,127.3,200.6z"/>
			<path id="XMLID_5254_" class="st5" d="M127.3,211.3l0.1,0.1c3.5,2.6,4.5,8.3,4.1,11.3l0,0.1l-0.1-0.1c-0.7-0.5-1.1-0.7-1.5-0.5
				c-0.4,0.3-0.4,1.1-0.4,1.6c0.9,0.5,1.1,1.2,1.2,1.7c0,0.7-0.4,1.4-0.7,1.6l-0.1,0.1l0-0.1c0-1.2-1.4-2.4-2.8-2.8
				c-1.3-0.3-2.3,0-2.9,1.1c0,0.1,0,0.2,0,0.4l0,0.1l-0.1,0c-0.8-0.3-1.6-0.3-2.4,0l-0.1,0l0-0.1c0-0.2,0-0.4,0-0.5
				c-0.5-1-1.6-1.4-2.9-1c-1.4,0.4-2.8,1.6-2.8,2.8l0,0.1l-0.1-0.1c-0.3-0.2-0.7-0.8-0.7-1.6c0-0.5,0.2-1.1,1.2-1.7
				c0.1-0.4,0.1-1.3-0.4-1.6c-0.3-0.2-0.8,0-1.5,0.5l-0.1,0.1l0-0.1c-0.4-3,0.5-8.6,4.1-11.3l0.1-0.1l-0.1,0.2c-1.4,3.4-1,7,0.8,8.9
				l0.1,0.1l-0.1,0c-0.6-0.1-1.1,0-1.3,0.3c-0.2,0.2-0.2,0.6,0,0.9c0.2,0.5,0.8,1,1.8,1c0.5,0,1.3-0.8,1.3-0.9l1.9-1.8l1.9,1.8
				c0,0,0.8,0.8,1.3,0.9c1,0,1.6-0.5,1.8-1c0.2-0.3,0.2-0.7,0-0.9c-0.2-0.3-0.7-0.4-1.3-0.3l-0.1,0l0.1-0.1c1.8-1.8,2.1-5.5,0.8-8.9
				L127.3,211.3z M131.4,222.6c0.4-2.9-0.6-8.4-3.9-11c1.3,3.3,1,6.9-0.7,8.7c0.6-0.1,1,0.1,1.3,0.4c0.2,0.3,0.2,0.7,0,1
				c-0.2,0.5-0.9,1-1.9,1c-0.5,0-1.3-0.8-1.4-0.9l-1.8-1.7l-1.8,1.7c0,0-0.9,0.9-1.4,0.9c-1,0-1.7-0.5-1.9-1c-0.2-0.4-0.2-0.8,0-1
				c0.2-0.3,0.7-0.4,1.3-0.4c-1.7-1.9-2-5.4-0.7-8.7c-3.3,2.6-4.3,8-3.9,11c0.7-0.5,1.2-0.7,1.5-0.5c0.5,0.3,0.5,1.2,0.4,1.7l0,0
				l0,0c-0.7,0.4-1.1,1-1.1,1.6c0,0.6,0.3,1.2,0.6,1.4c0-1.2,1.5-2.4,2.9-2.8c1.3-0.4,2.4,0,3,1.1c0,0.1,0.1,0.2,0.1,0.4
				c0.8-0.3,1.6-0.3,2.4,0c0-0.2,0-0.3,0.1-0.4c0.6-1.1,1.6-1.5,3-1.1c1.4,0.4,2.8,1.6,2.9,2.8c0.3-0.2,0.6-0.8,0.6-1.4
				c0-0.6-0.4-1.2-1.1-1.6l0,0l0,0c-0.1-0.5-0.1-1.4,0.4-1.7C130.2,221.9,130.7,222.1,131.4,222.6z"/>
			<path id="XMLID_5251_" class="st5" d="M124.2,238.3L124.2,238.3c0,0.1-0.1,0.7,0.6,1.2l0.1,0.1l-0.1,0c0,0-0.7,0.3-0.8,0.7
				c0,0,0.1,0.1,0.2,0.1c0.4,0.2,1.1,0.5,1.3,1.5c0.1,0.7-0.5,2.2-0.8,2.6c-0.1,0.1-0.1,0.1-0.2,0.1l-0.1,0l0-0.1
				c0.1-0.7,0.2-1.3-0.2-1.5c-0.4-0.3-0.7,0-0.8,0.1c-0.1,0.1-0.3,0.8-0.4,1.2l0,0.2l0-0.2c-0.1-0.4-0.3-1.1-0.4-1.2
				c-0.1-0.1-0.4-0.4-0.8-0.1c-0.4,0.2-0.3,0.9-0.2,1.5l0,0.1l-0.1,0c-0.1,0-0.1,0-0.2-0.1c-0.4-0.4-0.9-2-0.8-2.6
				c0.2-1,0.9-1.3,1.3-1.5c0.1,0,0.2-0.1,0.2-0.1c-0.1-0.4-0.8-0.7-0.8-0.7l-0.1,0l0.1-0.1c0.7-0.5,0.6-1.1,0.6-1.1l0-0.1l0.1,0
				C122.6,238.7,123.4,238.7,124.2,238.3L124.2,238.3z M124.7,239.5c-0.5-0.4-0.6-0.9-0.6-1c-0.8,0.3-1.6,0.3-2.3,0
				c0,0.2,0,0.6-0.6,1c0.2,0.1,0.7,0.3,0.8,0.7l0,0c0,0.1-0.1,0.1-0.2,0.2c-0.4,0.2-1.1,0.5-1.2,1.4c-0.1,0.6,0.5,2.1,0.8,2.5
				c0,0,0,0.1,0.1,0.1c-0.1-0.7-0.2-1.3,0.2-1.5c0.5-0.3,0.8,0,0.9,0.2c0.1,0.1,0.3,0.7,0.4,1.1c0.1-0.3,0.3-0.9,0.4-1.1
				c0.1-0.1,0.4-0.5,0.9-0.2c0.4,0.3,0.3,0.9,0.2,1.5c0,0,0,0,0.1-0.1c0.3-0.4,0.9-1.9,0.8-2.5c-0.2-0.9-0.9-1.2-1.2-1.4
				c-0.2-0.1-0.3-0.1-0.2-0.2C124,239.8,124.5,239.6,124.7,239.5z"/>
			<path id="XMLID_5248_" class="st5" d="M123.8,225.5c0.1,0,0.3,0.1,0.4,0.1l0,0l0,0c0,0.6,0.2,1.4,0.2,1.4
				c0.6,3.1,0.3,9.1-0.2,11.2l0,0l0,0c-0.8,0.4-1.7,0.4-2.5,0l0,0l0,0c-0.5-2.1-0.8-8.1-0.2-11.2c0,0,0.2-0.9,0.2-1.4l0,0l0,0
				C122.4,225.4,123.1,225.3,123.8,225.5z M124.1,225.7c-0.8-0.3-1.6-0.3-2.4,0c0,0.6-0.2,1.4-0.2,1.4l0,0
				c-0.6,3.1-0.3,9.1,0.2,11.2c0.8,0.4,1.6,0.4,2.4,0c0.5-2.1,0.8-8,0.2-11.2C124.3,227.2,124.2,226.3,124.1,225.7z"/>
		</g>
	</g>
	<g id="XMLID_5226_">
		<g id="XMLID_5243_">
			<path id="XMLID_5245_" class="st1" d="M88.3,221.9c0,0-0.3-2.1-0.1-2.3c1.6-1.3,0.6,0.8,1.4,0c0.8-0.8,1.1-2.6,0.9-3.7l-1,0.7
				c0,0-0.9,0.7-1-0.5l0.1-2c0.2-1.2,0.6-0.9,1.8-0.4c-0.2-1.1-0.6-1.6-1.3-3.6c-0.7-2,0.4-1.7,1.6-0.4c1.2,1.2,2.2,3,2.2,3
				c0.2-1.3-0.2-5.5-1-7.6l-0.3,0.8c-0.3,0.8-0.6,1-1.2,0c-0.5-1-1.2-3.5-1.5-4.7c-0.1-0.7,0.2-1,0.7-0.9c0.5,0.1,1.2,0.5,1.2,0.5
				c-1.7-3.3-2-6.8-2.2-9.8c-0.2-3-0.3-8.8,0.2-11.4c0.5-2.7,0.7-9.6,0.6-14.3c-0.1-6.3-2.3-11.5-3-14.4v69.4L88.3,221.9z"/>
			<path id="XMLID_5244_" class="st2" d="M80.1,212.6c0,0,1-1.7,2.2-3c1.2-1.2,2.2-1.6,1.6,0.4c-0.7,2-1.1,2.5-1.3,3.6
				c1.3-0.5,1.7-0.8,1.8,0.4l0.1,2c-0.1,1.2-1,0.5-1,0.5l-1-0.7c-0.2,1.1,0.1,3,0.9,3.7c0.8,0.8-0.2-1.3,1.4,0
				c0.2,0.1-0.1,2.3-0.1,2.3l1.8-1.7v-69.4c-0.6,3-2.9,8.1-3,14.4c-0.2,4.7,0.1,11.7,0.6,14.3c0.5,2.7,0.4,8.4,0.2,11.4
				c-0.2,3-0.4,6.5-2.2,9.8c0,0,0.7-0.4,1.2-0.5c0.5-0.1,0.9,0.2,0.7,0.9c-0.2,1.2-1,3.7-1.5,4.7c-0.5,1-0.9,0.8-1.2,0l-0.3-0.8
				C80.3,207.1,79.8,211.3,80.1,212.6z"/>
		</g>
		<path id="XMLID_5242_" class="st3" d="M78.1,222.7c1.9-1.5,2,0.3,1.9,1.1c-1.9,1.1-1,2.8-0.5,3.2c-0.1-2.1,4.3-4.5,5.8-1.8
			c0,0.1,0.1,0.3,0,0.5c0.8-0.3,1.6-0.3,2.5,0c0-0.2,0-0.4,0-0.5c1.4-2.7,5.8-0.3,5.8,1.8c0.5-0.3,1.4-2.1-0.5-3.2
			c-0.1-0.8,0-2.7,1.9-1.1c0.4-2.9-0.5-8.6-4-11.2c1.4,3.5,1,7.1-0.8,8.9c2.4-0.4,1.8,2.3-0.5,2.3c-0.5,0-1.3-0.9-1.3-0.9l-1.8-1.7
			l-1.8,1.7c0,0-0.8,0.8-1.3,0.9c-2.2,0-2.8-2.7-0.5-2.3c-1.8-1.8-2.2-5.4-0.8-8.9C78.5,214.1,77.6,219.8,78.1,222.7z"/>
		<path id="XMLID_5241_" class="st3" d="M85.3,238.4c0,0,0.1,0.6-0.6,1.1c0,0,0.7,0.3,0.9,0.7c0.1,0.2-1.2,0.2-1.5,1.6
			c-0.1,0.7,0.7,2.7,1,2.7c-0.1-0.7-0.2-1.3,0.2-1.6c0.4-0.3,0.7,0,0.9,0.2c0.1,0.2,0.4,1.2,0.4,1.2s0.3-1.1,0.4-1.2
			c0.1-0.2,0.4-0.4,0.9-0.2c0.4,0.3,0.3,0.9,0.2,1.6c0.3,0,1.1-2,1-2.7c-0.3-1.3-1.5-1.4-1.5-1.6c0.1-0.4,0.9-0.7,0.9-0.7
			c-0.7-0.6-0.6-1.1-0.6-1.1C86.9,238.7,86.1,238.7,85.3,238.4z"/>
		<path id="XMLID_5240_" class="st4" d="M85.3,225.7c0,0.6-0.2,1.5-0.2,1.5c-0.6,3.2-0.3,9.1,0.2,11.2c0.8,0.4,1.6,0.4,2.4,0
			c0.5-2.1,0.8-8.1,0.2-11.2c0,0-0.2-0.9-0.2-1.5C86.9,225.4,86.1,225.4,85.3,225.7z"/>
		<g id="XMLID_5227_">
			<path id="XMLID_5237_" class="st5" d="M86.5,150.5l0,0.2c0.2,0.8,0.5,1.8,0.8,2.9c0.9,2.9,2.1,7,2.2,11.5
				c0.2,4.6-0.1,11.6-0.6,14.3c-0.4,2.7-0.4,8.4-0.2,11.4l0,0.2c0.2,3,0.5,6.4,2.2,9.7l0.1,0.2l-0.1-0.1c0,0-0.7-0.4-1.2-0.5
				c-0.2,0-0.4,0-0.6,0.1c-0.1,0.1-0.2,0.4-0.1,0.7c0.2,1.2,0.9,3.7,1.5,4.7c0.2,0.4,0.4,0.7,0.6,0.7c0.2,0,0.3-0.2,0.5-0.7l0.3-0.9
				l0,0.1c0.8,2.1,1.2,6.3,1,7.7l0,0.1l-0.1-0.1c0,0-1-1.7-2.1-2.9c-0.7-0.7-1.3-1.1-1.6-1c-0.1,0.1-0.3,0.3,0.1,1.3
				c0.3,0.9,0.6,1.5,0.8,2c0.2,0.6,0.4,1,0.5,1.6l0,0.1l-0.3-0.1c-0.7-0.3-1.1-0.4-1.3-0.3c-0.1,0.1-0.2,0.3-0.3,0.7l-0.1,2
				c0,0.4,0.1,0.6,0.3,0.6c0.3,0.1,0.7-0.2,0.7-0.2l1-0.8l0,0.1c0.2,1.2-0.1,3-0.9,3.8c-0.2,0.2-0.3,0.2-0.3,0.2c0,0,0,0,0,0
				c-0.1,0-0.1-0.1-0.1-0.3c0-0.1,0-0.3-0.1-0.3c-0.1,0-0.3,0-0.8,0.4c-0.1,0.1,0,1.2,0.2,2.2l0,0.1l-1.9-1.8l-1.9,1.8l0-0.1
				c0.1-1,0.2-2.1,0.2-2.2c-0.5-0.4-0.7-0.4-0.8-0.4c-0.1,0-0.1,0.2-0.1,0.3c0,0.1,0,0.2-0.1,0.3c-0.1,0-0.2,0-0.3-0.2
				c-0.8-0.8-1.1-2.6-0.9-3.8l0-0.1l1,0.8c0,0,0.4,0.3,0.7,0.2c0.2-0.1,0.3-0.3,0.3-0.7l-0.1-2c-0.1-0.4-0.1-0.7-0.3-0.7
				c-0.2-0.1-0.6,0-1.3,0.3l-0.3,0.1l0-0.1c0.1-0.6,0.3-1,0.5-1.6c0.2-0.5,0.5-1.1,0.8-2c0.3-1,0.2-1.3,0.1-1.3
				c-0.3-0.2-0.9,0.2-1.6,1c-1.2,1.2-2.1,2.9-2.1,2.9l-0.1,0.1l0-0.1c-0.2-1.3,0.2-5.5,1-7.7l0-0.1l0.3,0.9c0.2,0.4,0.3,0.6,0.5,0.7
				c0.2,0,0.4-0.2,0.6-0.7c0.5-1,1.2-3.5,1.5-4.7c0.1-0.3,0-0.6-0.1-0.7c-0.1-0.1-0.3-0.2-0.6-0.1c-0.5,0.1-1.2,0.5-1.2,0.5
				l-0.1,0.1l0.1-0.2c1.7-3.2,2-6.6,2.2-9.7l0-0.2c0.2-3,0.3-8.8-0.2-11.4c-0.5-2.7-0.7-9.7-0.6-14.3c0-4.6,1.3-8.6,2.2-11.5
				c0.3-1.1,0.6-2.1,0.8-2.9L86.5,150.5z M90.8,200.6c-1.6-3.2-1.9-6.6-2.1-9.5l0-0.2c-0.2-3-0.3-8.8,0.2-11.5
				c0.5-2.7,0.7-9.7,0.6-14.3c0-4.5-1.3-8.6-2.2-11.5c-0.3-1-0.6-1.9-0.8-2.7c-0.2,0.8-0.5,1.7-0.8,2.7c-0.9,2.9-2.1,6.9-2.2,11.5
				l0,0c-0.2,4.6,0.1,11.6,0.6,14.3c0.5,2.7,0.4,8.5,0.2,11.5l0,0.2c-0.2,3-0.5,6.4-2.1,9.5c0.2-0.1,0.7-0.4,1.1-0.4
				c0.3-0.1,0.5,0,0.6,0.1c0.2,0.2,0.2,0.5,0.1,0.8c-0.2,1.2-1,3.7-1.5,4.7c-0.2,0.5-0.5,0.7-0.7,0.7c-0.2,0-0.4-0.2-0.6-0.7
				l-0.2-0.7c-0.7,2.1-1.1,5.9-0.9,7.3c0.2-0.4,1.1-1.8,2.1-2.8c0.6-0.6,1.3-1.2,1.7-1c0.3,0.2,0.3,0.6,0,1.5
				c-0.3,0.9-0.6,1.5-0.8,2c-0.2,0.5-0.4,0.9-0.5,1.5l0.1,0c0.7-0.3,1.1-0.5,1.4-0.3c0.2,0.1,0.3,0.3,0.3,0.8l0.1,2
				c0,0.4-0.1,0.7-0.3,0.7c-0.3,0.1-0.7-0.2-0.8-0.2l-0.9-0.7c-0.2,1.1,0.2,2.9,0.9,3.6c0.2,0.2,0.2,0.2,0.2,0.2c0,0,0-0.1,0.1-0.2
				c0-0.1,0-0.3,0.2-0.4c0.2-0.1,0.5,0.1,0.9,0.4c0.2,0.1,0,1.6-0.1,2.2l1.8-1.7l1.8,1.7c-0.1-0.6-0.3-2-0.1-2.2
				c0.5-0.4,0.7-0.5,0.9-0.4c0.1,0.1,0.2,0.2,0.2,0.4c0,0.1,0,0.2,0.1,0.2c0,0,0,0,0,0c0,0,0.1,0,0.2-0.2c0.8-0.7,1.1-2.5,0.9-3.6
				l-0.9,0.7c0,0-0.4,0.3-0.8,0.2c-0.2-0.1-0.3-0.3-0.3-0.7l0.1-2c0.1-0.5,0.2-0.7,0.3-0.8c0.3-0.2,0.7,0,1.4,0.3l0.1,0
				c-0.1-0.6-0.3-1-0.5-1.5c-0.2-0.5-0.5-1.1-0.8-2c-0.3-0.8-0.3-1.3,0-1.5c0.4-0.2,1.1,0.4,1.7,1c1,1,1.8,2.4,2.1,2.8
				c0.2-1.4-0.2-5.2-0.9-7.3l-0.3,0.7c-0.2,0.5-0.4,0.7-0.6,0.7c-0.2,0-0.4-0.2-0.7-0.7c-0.5-1-1.2-3.5-1.5-4.7
				c-0.1-0.4,0-0.7,0.1-0.8c0.1-0.1,0.4-0.2,0.6-0.1C90.1,200.2,90.6,200.5,90.8,200.6z"/>
			<path id="XMLID_5234_" class="st5" d="M90.7,211.3l0.1,0.1c3.5,2.6,4.5,8.3,4.1,11.3l0,0.1l-0.1-0.1c-0.7-0.5-1.1-0.7-1.5-0.5
				c-0.4,0.3-0.4,1.1-0.4,1.6c0.9,0.5,1.1,1.2,1.2,1.7c0,0.7-0.4,1.4-0.7,1.6l-0.1,0.1l0-0.1c0-1.2-1.4-2.4-2.8-2.8
				c-1.3-0.3-2.3,0-2.9,1.1c0,0.1,0,0.2,0,0.4l0,0.1l-0.1,0c-0.8-0.3-1.6-0.3-2.4,0l-0.1,0l0-0.1c0-0.2,0-0.4,0-0.5
				c-0.5-1-1.6-1.4-2.9-1c-1.4,0.4-2.8,1.6-2.8,2.8l0,0.1l-0.1-0.1c-0.3-0.2-0.7-0.8-0.7-1.6c0-0.5,0.2-1.1,1.2-1.7
				c0.1-0.4,0.1-1.3-0.4-1.6c-0.3-0.2-0.8,0-1.5,0.5l-0.1,0.1l0-0.1c-0.4-3,0.5-8.6,4.1-11.3l0.1-0.1l-0.1,0.2c-1.4,3.4-1,7,0.8,8.9
				l0.1,0.1l-0.1,0c-0.6-0.1-1.1,0-1.3,0.3c-0.2,0.2-0.2,0.6,0,0.9c0.2,0.5,0.8,1,1.8,1c0.5,0,1.3-0.8,1.3-0.9l1.9-1.8l1.9,1.8
				c0,0,0.8,0.8,1.3,0.9c1,0,1.6-0.5,1.8-1c0.2-0.3,0.2-0.7,0-0.9c-0.2-0.3-0.7-0.4-1.3-0.3l-0.1,0l0.1-0.1c1.8-1.8,2.1-5.5,0.8-8.9
				L90.7,211.3z M94.9,222.6c0.4-2.9-0.6-8.4-3.9-11c1.3,3.3,1,6.9-0.7,8.7c0.6-0.1,1,0.1,1.3,0.4c0.2,0.3,0.2,0.7,0,1
				c-0.2,0.5-0.9,1-1.9,1c-0.5,0-1.3-0.8-1.4-0.9l-1.8-1.7l-1.8,1.7c0,0-0.9,0.9-1.4,0.9c-1,0-1.7-0.5-1.9-1c-0.2-0.4-0.2-0.8,0-1
				c0.2-0.3,0.7-0.4,1.3-0.4c-1.7-1.9-2-5.4-0.7-8.7c-3.3,2.6-4.3,8-3.9,11c0.7-0.5,1.2-0.7,1.5-0.5c0.5,0.3,0.5,1.2,0.4,1.7l0,0
				l0,0c-0.7,0.4-1.1,1-1.1,1.6c0,0.6,0.3,1.2,0.6,1.4c0-1.2,1.5-2.4,2.9-2.8c1.3-0.4,2.4,0,3,1.1c0,0.1,0.1,0.2,0.1,0.4
				c0.8-0.3,1.6-0.3,2.4,0c0-0.2,0-0.3,0.1-0.4c0.6-1.1,1.6-1.5,3-1.1c1.4,0.4,2.8,1.6,2.9,2.8c0.3-0.2,0.6-0.8,0.6-1.4
				c0-0.6-0.4-1.2-1.1-1.6l0,0l0,0c-0.1-0.5-0.1-1.4,0.4-1.7C93.7,221.9,94.2,222.1,94.9,222.6z"/>
			<path id="XMLID_5231_" class="st5" d="M87.7,238.3L87.7,238.3c0,0.1-0.1,0.7,0.6,1.2l0.1,0.1l-0.1,0c0,0-0.7,0.3-0.8,0.7
				c0,0,0.1,0.1,0.2,0.1c0.4,0.2,1.1,0.5,1.3,1.5c0.1,0.7-0.5,2.2-0.8,2.6c-0.1,0.1-0.1,0.1-0.2,0.1l-0.1,0l0-0.1
				c0.1-0.7,0.2-1.3-0.2-1.5c-0.4-0.3-0.7,0-0.8,0.1c-0.1,0.1-0.3,0.8-0.4,1.2l0,0.2l0-0.2c-0.1-0.4-0.3-1.1-0.4-1.2
				c-0.1-0.1-0.4-0.4-0.8-0.1c-0.4,0.2-0.3,0.9-0.2,1.5l0,0.1l-0.1,0c-0.1,0-0.1,0-0.2-0.1c-0.4-0.4-0.9-2-0.8-2.6
				c0.2-1,0.9-1.3,1.3-1.5c0.1,0,0.2-0.1,0.2-0.1c-0.1-0.4-0.8-0.7-0.8-0.7l-0.1,0l0.1-0.1c0.7-0.5,0.6-1.1,0.6-1.1l0-0.1l0.1,0
				C86.1,238.7,86.9,238.7,87.7,238.3L87.7,238.3z M88.2,239.5c-0.5-0.4-0.6-0.9-0.6-1c-0.8,0.3-1.6,0.3-2.3,0c0,0.2,0,0.6-0.6,1
				c0.2,0.1,0.7,0.3,0.8,0.7l0,0c0,0.1-0.1,0.1-0.2,0.2c-0.4,0.2-1.1,0.5-1.2,1.4c-0.1,0.6,0.5,2.1,0.8,2.5c0,0,0,0.1,0.1,0.1
				c-0.1-0.7-0.2-1.3,0.2-1.5c0.5-0.3,0.8,0,0.9,0.2c0.1,0.1,0.3,0.7,0.4,1.1c0.1-0.3,0.3-0.9,0.4-1.1c0.1-0.1,0.4-0.5,0.9-0.2
				c0.4,0.3,0.3,0.9,0.2,1.5c0,0,0,0,0.1-0.1c0.3-0.4,0.9-1.9,0.8-2.5c-0.2-0.9-0.9-1.2-1.2-1.4c-0.2-0.1-0.3-0.1-0.2-0.2
				C87.5,239.8,88,239.6,88.2,239.5z"/>
			<path id="XMLID_5228_" class="st5" d="M87.3,225.5c0.1,0,0.3,0.1,0.4,0.1l0,0l0,0c0,0.6,0.2,1.4,0.2,1.4
				c0.6,3.1,0.3,9.1-0.2,11.2l0,0l0,0c-0.8,0.4-1.7,0.4-2.5,0l0,0l0,0c-0.5-2.1-0.8-8.1-0.2-11.2c0,0,0.2-0.9,0.2-1.4l0,0l0,0
				C85.9,225.4,86.6,225.3,87.3,225.5z M87.6,225.7c-0.8-0.3-1.6-0.3-2.4,0c0,0.6-0.2,1.4-0.2,1.4l0,0c-0.6,3.1-0.3,9.1,0.2,11.2
				c0.8,0.4,1.6,0.4,2.4,0c0.5-2.1,0.8-8,0.2-11.2C87.8,227.2,87.7,226.3,87.6,225.7z"/>
		</g>
	</g>
	<g id="XMLID_5206_">
		<g id="XMLID_5223_">
			<path id="XMLID_5225_" class="st1" d="M51.8,221.9c0,0-0.3-2.1-0.1-2.3c1.6-1.3,0.6,0.8,1.4,0c0.8-0.8,1.1-2.6,0.9-3.7l-1,0.7
				c0,0-0.9,0.7-1-0.5l0.1-2c0.2-1.2,0.6-0.9,1.8-0.4c-0.2-1.1-0.6-1.6-1.3-3.6c-0.7-2,0.4-1.7,1.6-0.4c1.2,1.2,2.2,3,2.2,3
				c0.2-1.3-0.2-5.5-1-7.6l-0.3,0.8c-0.3,0.8-0.6,1-1.2,0c-0.5-1-1.2-3.5-1.5-4.7c-0.1-0.7,0.2-1,0.7-0.9c0.5,0.1,1.2,0.5,1.2,0.5
				c-1.7-3.3-2-6.8-2.2-9.8c-0.2-3-0.3-8.8,0.2-11.4c0.5-2.7,0.7-9.6,0.6-14.3c-0.1-6.3-2.3-11.5-3-14.4v69.4L51.8,221.9z"/>
			<path id="XMLID_5224_" class="st2" d="M43.6,212.6c0,0,1-1.7,2.2-3c1.2-1.2,2.2-1.6,1.6,0.4c-0.7,2-1.1,2.5-1.3,3.6
				c1.3-0.5,1.7-0.8,1.8,0.4l0.1,2c-0.1,1.2-1,0.5-1,0.5l-1-0.7c-0.2,1.1,0.1,3,0.9,3.7c0.8,0.8-0.2-1.3,1.4,0
				c0.2,0.1-0.1,2.3-0.1,2.3l1.8-1.7v-69.4c-0.6,3-2.9,8.1-3,14.4c-0.2,4.7,0.1,11.7,0.6,14.3c0.5,2.7,0.4,8.4,0.2,11.4
				c-0.2,3-0.4,6.5-2.2,9.8c0,0,0.7-0.4,1.2-0.5c0.5-0.1,0.9,0.2,0.7,0.9c-0.2,1.2-1,3.7-1.5,4.7c-0.5,1-0.9,0.8-1.2,0l-0.3-0.8
				C43.8,207.1,43.3,211.3,43.6,212.6z"/>
		</g>
		<path id="XMLID_5222_" class="st3" d="M41.6,222.7c1.9-1.5,2,0.3,1.9,1.1c-1.9,1.1-1,2.8-0.5,3.2c-0.1-2.1,4.3-4.5,5.8-1.8
			c0,0.1,0.1,0.3,0,0.5c0.8-0.3,1.6-0.3,2.5,0c0-0.2,0-0.4,0-0.5c1.4-2.7,5.8-0.3,5.8,1.8c0.5-0.3,1.4-2.1-0.5-3.2
			c-0.1-0.8,0-2.7,1.9-1.1c0.4-2.9-0.5-8.6-4-11.2c1.4,3.5,1,7.1-0.8,8.9c2.4-0.4,1.8,2.3-0.5,2.3c-0.5,0-1.3-0.9-1.3-0.9l-1.8-1.7
			l-1.8,1.7c0,0-0.8,0.8-1.3,0.9c-2.2,0-2.8-2.7-0.5-2.3c-1.8-1.8-2.2-5.4-0.8-8.9C42,214.1,41.1,219.8,41.6,222.7z"/>
		<path id="XMLID_5221_" class="st3" d="M48.8,238.4c0,0,0.1,0.6-0.6,1.1c0,0,0.7,0.3,0.9,0.7c0.1,0.2-1.2,0.2-1.5,1.6
			c-0.1,0.7,0.7,2.7,1,2.7c-0.1-0.7-0.2-1.3,0.2-1.6c0.4-0.3,0.7,0,0.9,0.2c0.1,0.2,0.4,1.2,0.4,1.2s0.3-1.1,0.4-1.2
			c0.1-0.2,0.4-0.4,0.9-0.2c0.4,0.3,0.3,0.9,0.2,1.6c0.3,0,1.1-2,1-2.7c-0.3-1.3-1.5-1.4-1.5-1.6c0.1-0.4,0.9-0.7,0.9-0.7
			c-0.7-0.6-0.6-1.1-0.6-1.1C50.4,238.7,49.6,238.7,48.8,238.4z"/>
		<path id="XMLID_5220_" class="st4" d="M48.8,225.7c0,0.6-0.2,1.5-0.2,1.5c-0.6,3.2-0.3,9.1,0.2,11.2c0.8,0.4,1.6,0.4,2.4,0
			c0.5-2.1,0.8-8.1,0.2-11.2c0,0-0.2-0.9-0.2-1.5C50.4,225.4,49.6,225.4,48.8,225.7z"/>
		<g id="XMLID_5207_">
			<path id="XMLID_5217_" class="st5" d="M49.9,150.5l0,0.2c0.2,0.8,0.5,1.8,0.8,2.9c0.9,2.9,2.1,7,2.2,11.5
				c0.2,4.6-0.1,11.6-0.6,14.3c-0.4,2.7-0.4,8.4-0.2,11.4l0,0.2c0.2,3,0.5,6.4,2.2,9.7l0.1,0.2l-0.1-0.1c0,0-0.7-0.4-1.2-0.5
				c-0.2,0-0.4,0-0.6,0.1c-0.1,0.1-0.2,0.4-0.1,0.7c0.2,1.2,0.9,3.7,1.5,4.7c0.2,0.4,0.4,0.7,0.6,0.7c0.2,0,0.3-0.2,0.5-0.7l0.3-0.9
				l0,0.1c0.8,2.1,1.2,6.3,1,7.7l0,0.1l-0.1-0.1c0,0-1-1.7-2.1-2.9c-0.7-0.7-1.3-1.1-1.6-1c-0.1,0.1-0.3,0.3,0.1,1.3
				c0.3,0.9,0.6,1.5,0.8,2c0.2,0.6,0.4,1,0.5,1.6l0,0.1l-0.3-0.1c-0.7-0.3-1.1-0.4-1.3-0.3c-0.1,0.1-0.2,0.3-0.3,0.7l-0.1,2
				c0,0.4,0.1,0.6,0.3,0.6c0.3,0.1,0.7-0.2,0.7-0.2l1-0.8l0,0.1c0.2,1.2-0.1,3-0.9,3.8c-0.2,0.2-0.3,0.2-0.3,0.2c0,0,0,0,0,0
				c-0.1,0-0.1-0.1-0.1-0.3c0-0.1,0-0.3-0.1-0.3c-0.1,0-0.3,0-0.8,0.4c-0.1,0.1,0,1.2,0.2,2.2l0,0.1l-1.9-1.8l-1.9,1.8l0-0.1
				c0.1-1,0.2-2.1,0.2-2.2c-0.5-0.4-0.7-0.4-0.8-0.4c-0.1,0-0.1,0.2-0.1,0.3c0,0.1,0,0.2-0.1,0.3c-0.1,0-0.2,0-0.3-0.2
				c-0.8-0.8-1.1-2.6-0.9-3.8l0-0.1l1,0.8c0,0,0.4,0.3,0.7,0.2c0.2-0.1,0.3-0.3,0.3-0.7l-0.1-2c-0.1-0.4-0.1-0.7-0.3-0.7
				c-0.2-0.1-0.6,0-1.3,0.3l-0.3,0.1l0-0.1c0.1-0.6,0.3-1,0.5-1.6c0.2-0.5,0.5-1.1,0.8-2c0.3-1,0.2-1.3,0.1-1.3
				c-0.3-0.2-0.9,0.2-1.6,1c-1.2,1.2-2.1,2.9-2.1,2.9l-0.1,0.1l0-0.1c-0.2-1.3,0.2-5.5,1-7.7l0-0.1l0.3,0.9c0.2,0.4,0.3,0.6,0.5,0.7
				c0.2,0,0.4-0.2,0.6-0.7c0.5-1,1.2-3.5,1.5-4.7c0.1-0.3,0-0.6-0.1-0.7c-0.1-0.1-0.3-0.2-0.6-0.1c-0.5,0.1-1.2,0.5-1.2,0.5
				l-0.1,0.1l0.1-0.2c1.7-3.2,2-6.6,2.2-9.7l0-0.2c0.2-3,0.3-8.8-0.2-11.4c-0.5-2.7-0.7-9.7-0.6-14.3c0-4.6,1.3-8.6,2.2-11.5
				c0.3-1.1,0.6-2.1,0.8-2.9L49.9,150.5z M54.3,200.6c-1.6-3.2-1.9-6.6-2.1-9.5l0-0.2c-0.2-3-0.3-8.8,0.2-11.5
				c0.5-2.7,0.7-9.7,0.6-14.3c0-4.5-1.3-8.6-2.2-11.5c-0.3-1-0.6-1.9-0.8-2.7c-0.2,0.8-0.5,1.7-0.8,2.7c-0.9,2.9-2.1,6.9-2.2,11.5
				l0,0c-0.2,4.6,0.1,11.6,0.6,14.3c0.5,2.7,0.4,8.5,0.2,11.5l0,0.2c-0.2,3-0.5,6.4-2.1,9.5c0.2-0.1,0.7-0.4,1.1-0.4
				c0.3-0.1,0.5,0,0.6,0.1c0.2,0.2,0.2,0.5,0.1,0.8c-0.2,1.2-1,3.7-1.5,4.7c-0.2,0.5-0.5,0.7-0.7,0.7c-0.2,0-0.4-0.2-0.6-0.7
				l-0.2-0.7c-0.7,2.1-1.1,5.9-0.9,7.3c0.2-0.4,1.1-1.8,2.1-2.8c0.6-0.6,1.3-1.2,1.7-1c0.3,0.2,0.3,0.6,0,1.5
				c-0.3,0.9-0.6,1.5-0.8,2c-0.2,0.5-0.4,0.9-0.5,1.5l0.1,0c0.7-0.3,1.1-0.5,1.4-0.3c0.2,0.1,0.3,0.3,0.3,0.8l0.1,2
				c0,0.4-0.1,0.7-0.3,0.7c-0.3,0.1-0.7-0.2-0.8-0.2l-0.9-0.7c-0.2,1.1,0.2,2.9,0.9,3.6c0.2,0.2,0.2,0.2,0.2,0.2c0,0,0-0.1,0.1-0.2
				c0-0.1,0-0.3,0.2-0.4c0.2-0.1,0.5,0.1,0.9,0.4c0.2,0.1,0,1.6-0.1,2.2l1.8-1.7l1.8,1.7c-0.1-0.6-0.3-2-0.1-2.2
				c0.5-0.4,0.7-0.5,0.9-0.4c0.1,0.1,0.2,0.2,0.2,0.4c0,0.1,0,0.2,0.1,0.2c0,0,0,0,0,0c0,0,0.1,0,0.2-0.2c0.8-0.7,1.1-2.5,0.9-3.6
				l-0.9,0.7c0,0-0.4,0.3-0.8,0.2c-0.2-0.1-0.3-0.3-0.3-0.7l0.1-2c0.1-0.5,0.2-0.7,0.3-0.8c0.3-0.2,0.7,0,1.4,0.3l0.1,0
				c-0.1-0.6-0.3-1-0.5-1.5c-0.2-0.5-0.5-1.1-0.8-2c-0.3-0.8-0.3-1.3,0-1.5c0.4-0.2,1.1,0.4,1.7,1c1,1,1.8,2.4,2.1,2.8
				c0.2-1.4-0.2-5.2-0.9-7.3l-0.3,0.7c-0.2,0.5-0.4,0.7-0.6,0.7c-0.2,0-0.4-0.2-0.7-0.7c-0.5-1-1.2-3.5-1.5-4.7
				c-0.1-0.4,0-0.7,0.1-0.8c0.1-0.1,0.4-0.2,0.6-0.1C53.6,200.2,54.1,200.5,54.3,200.6z"/>
			<path id="XMLID_5214_" class="st5" d="M54.2,211.3l0.1,0.1c3.5,2.6,4.5,8.3,4.1,11.3l0,0.1l-0.1-0.1c-0.7-0.5-1.1-0.7-1.5-0.5
				c-0.4,0.3-0.4,1.1-0.4,1.6c0.9,0.5,1.1,1.2,1.2,1.7c0,0.7-0.4,1.4-0.7,1.6l-0.1,0.1l0-0.1c0-1.2-1.4-2.4-2.8-2.8
				c-1.3-0.3-2.3,0-2.9,1.1c0,0.1,0,0.2,0,0.4l0,0.1l-0.1,0c-0.8-0.3-1.6-0.3-2.4,0l-0.1,0l0-0.1c0-0.2,0-0.4,0-0.5
				c-0.5-1-1.6-1.4-2.9-1c-1.4,0.4-2.8,1.6-2.8,2.8l0,0.1l-0.1-0.1c-0.3-0.2-0.7-0.8-0.7-1.6c0-0.5,0.2-1.1,1.2-1.7
				c0.1-0.4,0.1-1.3-0.4-1.6c-0.3-0.2-0.8,0-1.5,0.5l-0.1,0.1l0-0.1c-0.4-3,0.5-8.6,4.1-11.3l0.1-0.1l-0.1,0.2c-1.4,3.4-1,7,0.8,8.9
				l0.1,0.1l-0.1,0c-0.6-0.1-1.1,0-1.3,0.3c-0.2,0.2-0.2,0.6,0,0.9c0.2,0.5,0.8,1,1.8,1c0.5,0,1.3-0.8,1.3-0.9l1.9-1.8l1.9,1.8
				c0,0,0.8,0.8,1.3,0.9c1,0,1.6-0.5,1.8-1c0.2-0.3,0.2-0.7,0-0.9c-0.2-0.3-0.7-0.4-1.3-0.3l-0.1,0l0.1-0.1c1.8-1.8,2.1-5.5,0.8-8.9
				L54.2,211.3z M58.3,222.6c0.4-2.9-0.6-8.4-3.9-11c1.3,3.3,1,6.9-0.7,8.7c0.6-0.1,1,0.1,1.3,0.4c0.2,0.3,0.2,0.7,0,1
				c-0.2,0.5-0.9,1-1.9,1c-0.5,0-1.3-0.8-1.4-0.9l-1.8-1.7l-1.8,1.7c0,0-0.9,0.9-1.4,0.9c-1,0-1.7-0.5-1.9-1c-0.2-0.4-0.2-0.8,0-1
				c0.2-0.3,0.7-0.4,1.3-0.4c-1.7-1.9-2-5.4-0.7-8.7c-3.3,2.6-4.3,8-3.9,11c0.7-0.5,1.2-0.7,1.5-0.5c0.5,0.3,0.5,1.2,0.4,1.7l0,0
				l0,0c-0.7,0.4-1.1,1-1.1,1.6c0,0.6,0.3,1.2,0.6,1.4c0-1.2,1.5-2.4,2.9-2.8c1.3-0.4,2.4,0,3,1.1c0,0.1,0.1,0.2,0.1,0.4
				c0.8-0.3,1.6-0.3,2.4,0c0-0.2,0-0.3,0.1-0.4c0.6-1.1,1.6-1.5,3-1.1c1.4,0.4,2.8,1.6,2.9,2.8c0.3-0.2,0.6-0.8,0.6-1.4
				c0-0.6-0.4-1.2-1.1-1.6l0,0l0,0c-0.1-0.5-0.1-1.4,0.4-1.7C57.2,221.9,57.7,222.1,58.3,222.6z"/>
			<path id="XMLID_5211_" class="st5" d="M51.2,238.3L51.2,238.3c0,0.1-0.1,0.7,0.6,1.2l0.1,0.1l-0.1,0c0,0-0.7,0.3-0.8,0.7
				c0,0,0.1,0.1,0.2,0.1c0.4,0.2,1.1,0.5,1.3,1.5c0.1,0.7-0.5,2.2-0.8,2.6c-0.1,0.1-0.1,0.1-0.2,0.1l-0.1,0l0-0.1
				c0.1-0.7,0.2-1.3-0.2-1.5c-0.4-0.3-0.7,0-0.8,0.1c-0.1,0.1-0.3,0.8-0.4,1.2l0,0.2l0-0.2c-0.1-0.4-0.3-1.1-0.4-1.2
				c-0.1-0.1-0.4-0.4-0.8-0.1c-0.4,0.2-0.3,0.9-0.2,1.5l0,0.1l-0.1,0c-0.1,0-0.1,0-0.2-0.1c-0.4-0.4-0.9-2-0.8-2.6
				c0.2-1,0.9-1.3,1.3-1.5c0.1,0,0.2-0.1,0.2-0.1c-0.1-0.4-0.8-0.7-0.8-0.7l-0.1,0l0.1-0.1c0.7-0.5,0.6-1.1,0.6-1.1l0-0.1l0.1,0
				C49.5,238.7,50.3,238.7,51.2,238.3L51.2,238.3z M51.7,239.5c-0.5-0.4-0.6-0.9-0.6-1c-0.8,0.3-1.6,0.3-2.3,0c0,0.2,0,0.6-0.6,1
				c0.2,0.1,0.7,0.3,0.8,0.7l0,0c0,0.1-0.1,0.1-0.2,0.2c-0.4,0.2-1.1,0.5-1.2,1.4c-0.1,0.6,0.5,2.1,0.8,2.5c0,0,0,0.1,0.1,0.1
				c-0.1-0.7-0.2-1.3,0.2-1.5c0.5-0.3,0.8,0,0.9,0.2c0.1,0.1,0.3,0.7,0.4,1.1c0.1-0.3,0.3-0.9,0.4-1.1c0.1-0.1,0.4-0.5,0.9-0.2
				c0.4,0.3,0.3,0.9,0.2,1.5c0,0,0,0,0.1-0.1c0.3-0.4,0.9-1.9,0.8-2.5c-0.2-0.9-0.9-1.2-1.2-1.4c-0.2-0.1-0.3-0.1-0.2-0.2
				C51,239.8,51.5,239.6,51.7,239.5z"/>
			<path id="XMLID_5208_" class="st5" d="M50.8,225.5c0.1,0,0.3,0.1,0.4,0.1l0,0l0,0c0,0.6,0.2,1.4,0.2,1.4
				c0.6,3.1,0.3,9.1-0.2,11.2l0,0l0,0c-0.8,0.4-1.7,0.4-2.5,0l0,0l0,0c-0.5-2.1-0.8-8.1-0.2-11.2c0,0,0.2-0.9,0.2-1.4l0,0l0,0
				C49.4,225.4,50.1,225.3,50.8,225.5z M51.1,225.7c-0.8-0.3-1.6-0.3-2.4,0c0,0.6-0.2,1.4-0.2,1.4l0,0c-0.6,3.1-0.3,9.1,0.2,11.2
				c0.8,0.4,1.6,0.4,2.4,0c0.5-2.1,0.8-8,0.2-11.2C51.3,227.2,51.1,226.3,51.1,225.7z"/>
		</g>
	</g>
	<g id="XMLID_5004_">
		<g id="XMLID_5021_">
			<path id="XMLID_5023_" class="st1" d="M48.1,47.4c0,0,0.3,2.1,0.1,2.3c-1.6,1.3-0.6-0.8-1.4,0c-0.8,0.8-1.1,2.6-0.9,3.7l1-0.7
				c0,0,0.9-0.7,1,0.5l-0.1,2c-0.2,1.2-0.6,0.9-1.8,0.4c0.2,1.1,0.6,1.6,1.3,3.6c0.7,2-0.4,1.7-1.6,0.4c-1.2-1.2-2.2-3-2.2-3
				c-0.2,1.3,0.2,5.5,1,7.6l0.3-0.8c0.3-0.8,0.6-1,1.2,0c0.5,1,1.2,3.5,1.5,4.7c0.1,0.7-0.2,1-0.7,0.9c-0.5-0.1-1.2-0.5-1.2-0.5
				c1.7,3.3,2,6.8,2.2,9.8c0.2,3,0.3,8.8-0.2,11.4c-0.5,2.7-0.7,9.6-0.6,14.3c0.1,6.3,2.3,11.5,3,14.4V49.2L48.1,47.4z"/>
			<path id="XMLID_5022_" class="st2" d="M56.3,56.6c0,0-1,1.7-2.2,3c-1.2,1.2-2.2,1.6-1.6-0.4c0.7-2,1.1-2.5,1.3-3.6
				c-1.3,0.5-1.7,0.8-1.8-0.4l-0.1-2c0.1-1.2,1-0.5,1-0.5l1,0.7c0.2-1.1-0.1-3-0.9-3.7c-0.8-0.8,0.2,1.3-1.4,0
				c-0.2-0.1,0.1-2.3,0.1-2.3l-1.8,1.7v69.4c0.6-3,2.9-8.1,3-14.4c0.2-4.7-0.1-11.7-0.6-14.3c-0.5-2.7-0.4-8.4-0.2-11.4
				c0.2-3,0.4-6.5,2.2-9.8c0,0-0.7,0.4-1.2,0.5c-0.5,0.1-0.9-0.2-0.7-0.9c0.2-1.2,1-3.7,1.5-4.7c0.5-1,0.9-0.8,1.2,0l0.3,0.8
				C56.1,62.1,56.6,58,56.3,56.6z"/>
		</g>
		<path id="XMLID_5020_" class="st3" d="M58.3,46.6c-1.9,1.5-2-0.3-1.9-1.1c1.9-1.1,1-2.8,0.5-3.2c0.1,2.1-4.3,4.5-5.8,1.8
			c0-0.1-0.1-0.3,0-0.5c-0.8,0.3-1.6,0.3-2.5,0c0,0.2,0,0.4,0,0.5c-1.4,2.7-5.8,0.3-5.8-1.8c-0.5,0.3-1.4,2.1,0.5,3.2
			c0.1,0.8,0,2.7-1.9,1.1c-0.4,2.9,0.5,8.6,4,11.2c-1.4-3.5-1-7.1,0.8-8.9c-2.4,0.4-1.8-2.3,0.5-2.3c0.5,0,1.3,0.9,1.3,0.9l1.8,1.7
			l1.8-1.7c0,0,0.8-0.8,1.3-0.9c2.2,0,2.8,2.7,0.5,2.3c1.8,1.8,2.2,5.4,0.8,8.9C57.9,55.1,58.8,49.5,58.3,46.6z"/>
		<path id="XMLID_5019_" class="st3" d="M51.1,30.9c0,0-0.1-0.6,0.6-1.1c0,0-0.7-0.3-0.9-0.7c-0.1-0.2,1.2-0.2,1.5-1.6
			c0.1-0.7-0.7-2.7-1-2.7c0.1,0.7,0.2,1.3-0.2,1.6c-0.4,0.3-0.7,0-0.9-0.2c-0.1-0.2-0.4-1.2-0.4-1.2s-0.3,1.1-0.4,1.2
			c-0.1,0.2-0.4,0.4-0.9,0.2c-0.4-0.3-0.3-0.9-0.2-1.6c-0.3,0-1.1,2-1,2.7c0.3,1.3,1.5,1.4,1.5,1.6c-0.1,0.4-0.9,0.7-0.9,0.7
			c0.7,0.6,0.6,1.1,0.6,1.1C49.5,30.5,50.3,30.5,51.1,30.9z"/>
		<path id="XMLID_5018_" class="st4" d="M51.1,43.6c0-0.6,0.2-1.5,0.2-1.5c0.6-3.2,0.3-9.1-0.2-11.2c-0.8-0.4-1.6-0.4-2.4,0
			c-0.5,2.1-0.8,8.1-0.2,11.2c0,0,0.2,0.9,0.2,1.5C49.5,43.9,50.3,43.9,51.1,43.6z"/>
		<g id="XMLID_5005_">
			<path id="XMLID_5015_" class="st5" d="M49.9,118.8l0-0.2c-0.2-0.8-0.5-1.8-0.8-2.9c-0.9-2.9-2.1-7-2.2-11.5
				c-0.2-4.6,0.1-11.6,0.6-14.3c0.4-2.7,0.4-8.4,0.2-11.4l0-0.2c-0.2-3-0.5-6.4-2.2-9.7l-0.1-0.2l0.1,0.1c0,0,0.7,0.4,1.2,0.5
				c0.2,0,0.4,0,0.6-0.1c0.1-0.1,0.2-0.4,0.1-0.7c-0.2-1.2-0.9-3.7-1.5-4.7c-0.2-0.4-0.4-0.7-0.6-0.7c-0.2,0-0.3,0.2-0.5,0.7
				l-0.3,0.9l0-0.1c-0.8-2.1-1.2-6.3-1-7.7l0-0.1l0.1,0.1c0,0,1,1.7,2.1,2.9c0.7,0.7,1.3,1.1,1.6,1c0.1-0.1,0.3-0.3-0.1-1.3
				c-0.3-0.9-0.6-1.5-0.8-2c-0.2-0.6-0.4-1-0.5-1.6l0-0.1l0.3,0.1c0.7,0.3,1.1,0.4,1.3,0.3c0.1-0.1,0.2-0.3,0.3-0.7l0.1-2
				c0-0.4-0.1-0.6-0.3-0.6c-0.3-0.1-0.7,0.2-0.7,0.2l-1,0.8l0-0.1c-0.2-1.2,0.1-3,0.9-3.8c0.2-0.2,0.3-0.2,0.3-0.2c0,0,0,0,0,0
				c0.1,0,0.1,0.1,0.1,0.3c0,0.1,0,0.3,0.1,0.3c0.1,0,0.3,0,0.8-0.4c0.1-0.1,0-1.2-0.2-2.2l0-0.1l1.9,1.8l1.9-1.8l0,0.1
				c-0.1,1-0.2,2.1-0.2,2.2c0.5,0.4,0.7,0.4,0.8,0.4c0.1,0,0.1-0.2,0.1-0.3c0-0.1,0-0.2,0.1-0.3c0.1,0,0.2,0,0.3,0.2
				c0.8,0.8,1.1,2.6,0.9,3.8l0,0.1l-1-0.8c0,0-0.4-0.3-0.7-0.2c-0.2,0.1-0.3,0.3-0.3,0.7l0.1,2c0.1,0.4,0.1,0.7,0.3,0.7
				c0.2,0.1,0.6,0,1.3-0.3l0.3-0.1l0,0.1c-0.1,0.6-0.3,1-0.5,1.6c-0.2,0.5-0.5,1.1-0.8,2c-0.3,1-0.2,1.3-0.1,1.3
				c0.3,0.2,0.9-0.2,1.6-1c1.2-1.2,2.1-2.9,2.1-2.9l0.1-0.1l0,0.1c0.2,1.3-0.2,5.5-1,7.7l0,0.1l-0.3-0.9c-0.2-0.4-0.3-0.6-0.5-0.7
				c-0.2,0-0.4,0.2-0.6,0.7c-0.5,1-1.2,3.5-1.5,4.7c-0.1,0.3,0,0.6,0.1,0.7c0.1,0.1,0.3,0.2,0.6,0.1c0.5-0.1,1.2-0.5,1.2-0.5
				l0.1-0.1l-0.1,0.2c-1.7,3.2-2,6.6-2.2,9.7l0,0.2c-0.2,3-0.3,8.8,0.2,11.4c0.5,2.7,0.7,9.7,0.6,14.3c0,4.6-1.3,8.6-2.2,11.5
				c-0.3,1.1-0.6,2.1-0.8,2.9L49.9,118.8z M45.6,68.7c1.6,3.2,1.9,6.6,2.1,9.5l0,0.2c0.2,3,0.3,8.8-0.2,11.5
				c-0.5,2.7-0.7,9.7-0.6,14.3c0,4.5,1.3,8.6,2.2,11.5c0.3,1,0.6,1.9,0.8,2.7c0.2-0.8,0.5-1.7,0.8-2.7c0.9-2.9,2.1-6.9,2.2-11.5l0,0
				c0.2-4.6-0.1-11.6-0.6-14.3c-0.5-2.7-0.4-8.5-0.2-11.5l0-0.2c0.2-3,0.5-6.4,2.1-9.5c-0.2,0.1-0.7,0.4-1.1,0.4
				c-0.3,0.1-0.5,0-0.6-0.1c-0.2-0.2-0.2-0.5-0.1-0.8c0.2-1.2,1-3.7,1.5-4.7c0.2-0.5,0.5-0.7,0.7-0.7c0.2,0,0.4,0.2,0.6,0.7l0.2,0.7
				c0.7-2.1,1.1-5.9,0.9-7.3c-0.2,0.4-1.1,1.8-2.1,2.8c-0.6,0.6-1.3,1.2-1.7,1c-0.3-0.2-0.3-0.6,0-1.5c0.3-0.9,0.6-1.5,0.8-2
				c0.2-0.5,0.4-0.9,0.5-1.5l-0.1,0c-0.7,0.3-1.1,0.5-1.4,0.3c-0.2-0.1-0.3-0.3-0.3-0.8l-0.1-2c0-0.4,0.1-0.7,0.3-0.7
				c0.3-0.1,0.7,0.2,0.8,0.2l0.9,0.7c0.2-1.1-0.2-2.9-0.9-3.6c-0.2-0.2-0.2-0.2-0.2-0.2c0,0,0,0.1-0.1,0.2c0,0.1,0,0.3-0.2,0.4
				c-0.2,0.1-0.5-0.1-0.9-0.4c-0.2-0.1,0-1.6,0.1-2.2l-1.8,1.7l-1.8-1.7c0.1,0.6,0.3,2,0.1,2.2c-0.5,0.4-0.7,0.5-0.9,0.4
				c-0.1-0.1-0.2-0.2-0.2-0.4c0-0.1,0-0.2-0.1-0.2c0,0,0,0,0,0c0,0-0.1,0-0.2,0.2c-0.8,0.7-1.1,2.5-0.9,3.6l0.9-0.7
				c0,0,0.4-0.3,0.8-0.2c0.2,0.1,0.3,0.3,0.3,0.7l-0.1,2c-0.1,0.5-0.2,0.7-0.3,0.8c-0.3,0.2-0.7,0-1.4-0.3l-0.1,0
				c0.1,0.6,0.3,1,0.5,1.5c0.2,0.5,0.5,1.1,0.8,2c0.3,0.8,0.3,1.3,0,1.5c-0.4,0.2-1.1-0.4-1.7-1c-1-1-1.8-2.4-2.1-2.8
				c-0.2,1.4,0.2,5.2,0.9,7.3l0.3-0.7c0.2-0.5,0.4-0.7,0.6-0.7c0.2,0,0.4,0.2,0.7,0.7c0.5,1,1.2,3.5,1.5,4.7c0.1,0.4,0,0.7-0.1,0.8
				c-0.1,0.1-0.4,0.2-0.6,0.1C46.3,69,45.8,68.8,45.6,68.7z"/>
			<path id="XMLID_5012_" class="st5" d="M45.7,58l-0.1-0.1c-3.5-2.6-4.5-8.3-4.1-11.3l0-0.1l0.1,0.1c0.7,0.5,1.1,0.7,1.5,0.5
				c0.4-0.3,0.4-1.1,0.4-1.6c-0.9-0.5-1.1-1.2-1.2-1.7c0-0.7,0.4-1.4,0.7-1.6l0.1-0.1l0,0.1c0,1.2,1.4,2.4,2.8,2.8
				c1.3,0.3,2.3,0,2.9-1.1c0-0.1,0-0.2,0-0.4l0-0.1l0.1,0c0.8,0.3,1.6,0.3,2.4,0l0.1,0l0,0.1c0,0.2,0,0.4,0,0.5c0.5,1,1.6,1.4,2.9,1
				c1.4-0.4,2.8-1.6,2.8-2.8l0-0.1l0.1,0.1c0.3,0.2,0.7,0.8,0.7,1.6c0,0.5-0.2,1.1-1.2,1.7c-0.1,0.4-0.1,1.3,0.4,1.6
				c0.3,0.2,0.8,0,1.5-0.5l0.1-0.1l0,0.1c0.4,3-0.5,8.6-4.1,11.3L54.2,58l0.1-0.2c1.4-3.4,1-7-0.8-8.9l-0.1-0.1l0.1,0
				c0.6,0.1,1.1,0,1.3-0.3c0.2-0.2,0.2-0.6,0-0.9c-0.2-0.5-0.8-1-1.8-1c-0.5,0-1.3,0.8-1.3,0.9l-1.9,1.8l-1.9-1.8
				c0,0-0.8-0.8-1.3-0.9c-1,0-1.6,0.5-1.8,1c-0.2,0.3-0.2,0.7,0,0.9c0.2,0.3,0.7,0.4,1.3,0.3l0.1,0l-0.1,0.1
				c-1.8,1.8-2.1,5.5-0.8,8.9L45.7,58z M41.5,46.7c-0.4,2.9,0.6,8.4,3.9,11c-1.3-3.3-1-6.9,0.7-8.7c-0.6,0.1-1-0.1-1.3-0.4
				c-0.2-0.3-0.2-0.7,0-1c0.2-0.5,0.9-1,1.9-1c0.5,0,1.3,0.8,1.4,0.9l1.8,1.7l1.8-1.7c0,0,0.9-0.9,1.4-0.9c1,0,1.7,0.5,1.9,1
				c0.2,0.4,0.2,0.8,0,1c-0.2,0.3-0.7,0.4-1.3,0.4c1.7,1.9,2,5.4,0.7,8.7c3.3-2.6,4.3-8,3.9-11c-0.7,0.5-1.2,0.7-1.5,0.5
				c-0.5-0.3-0.5-1.2-0.4-1.7l0,0l0,0c0.7-0.4,1.1-1,1.1-1.6c0-0.6-0.3-1.2-0.6-1.4c0,1.2-1.5,2.4-2.9,2.8c-1.3,0.4-2.4,0-3-1.1
				c0-0.1-0.1-0.2-0.1-0.4c-0.8,0.3-1.6,0.3-2.4,0c0,0.2,0,0.3-0.1,0.4c-0.6,1.1-1.6,1.5-3,1.1c-1.4-0.4-2.8-1.6-2.9-2.8
				c-0.3,0.2-0.6,0.8-0.6,1.4c0,0.6,0.4,1.2,1.1,1.6l0,0l0,0c0.1,0.5,0.1,1.4-0.4,1.7C42.7,47.4,42.2,47.2,41.5,46.7z"/>
			<path id="XMLID_5009_" class="st5" d="M48.7,31L48.7,31c0-0.1,0.1-0.7-0.6-1.2L48,29.8l0.1,0c0,0,0.7-0.3,0.8-0.7
				c0,0-0.1-0.1-0.2-0.1c-0.4-0.2-1.1-0.5-1.3-1.5c-0.1-0.7,0.5-2.2,0.8-2.6c0.1-0.1,0.1-0.1,0.2-0.1l0.1,0l0,0.1
				c-0.1,0.7-0.2,1.3,0.2,1.5c0.4,0.3,0.7,0,0.8-0.1c0.1-0.1,0.3-0.8,0.4-1.2l0-0.2l0,0.2c0.1,0.4,0.3,1.1,0.4,1.2
				c0.1,0.1,0.4,0.4,0.8,0.1c0.4-0.2,0.3-0.9,0.2-1.5l0-0.1l0.1,0c0.1,0,0.1,0,0.2,0.1c0.4,0.4,0.9,2,0.8,2.6
				c-0.2,1-0.9,1.3-1.3,1.5c-0.1,0-0.2,0.1-0.2,0.1c0.1,0.4,0.8,0.7,0.8,0.7l0.1,0l-0.1,0.1c-0.7,0.5-0.6,1.1-0.6,1.1l0,0.1l-0.1,0
				C50.4,30.6,49.5,30.6,48.7,31L48.7,31z M48.2,29.8c0.5,0.4,0.6,0.9,0.6,1c0.8-0.3,1.6-0.3,2.3,0c0-0.2,0-0.6,0.6-1
				c-0.2-0.1-0.7-0.3-0.8-0.7l0,0c0-0.1,0.1-0.1,0.2-0.2c0.4-0.2,1.1-0.5,1.2-1.4c0.1-0.6-0.5-2.1-0.8-2.5c0,0,0-0.1-0.1-0.1
				c0.1,0.7,0.2,1.3-0.2,1.5c-0.5,0.3-0.8,0-0.9-0.2c-0.1-0.1-0.3-0.7-0.4-1.1c-0.1,0.3-0.3,0.9-0.4,1.1c-0.1,0.1-0.4,0.5-0.9,0.2
				c-0.4-0.3-0.3-0.9-0.2-1.5c0,0,0,0-0.1,0.1c-0.3,0.4-0.9,1.9-0.8,2.5c0.2,0.9,0.9,1.2,1.2,1.4C49,29,49.1,29,49,29.1
				C48.9,29.5,48.4,29.7,48.2,29.8z"/>
			<path id="XMLID_5006_" class="st5" d="M49.1,43.8c-0.1,0-0.3-0.1-0.4-0.1l0,0l0,0c0-0.6-0.2-1.4-0.2-1.4
				c-0.6-3.1-0.3-9.1,0.2-11.2l0,0l0,0c0.8-0.4,1.7-0.4,2.5,0l0,0l0,0C51.7,33,52,39,51.4,42.1c0,0-0.2,0.9-0.2,1.4l0,0l0,0
				C50.5,43.9,49.8,44,49.1,43.8z M48.8,43.6c0.8,0.3,1.6,0.3,2.4,0c0-0.6,0.2-1.4,0.2-1.4l0,0c0.6-3.1,0.3-9.1-0.2-11.2
				c-0.8-0.4-1.6-0.4-2.4,0c-0.5,2.1-0.8,8-0.2,11.2C48.6,42.1,48.7,43,48.8,43.6z"/>
		</g>
	</g>
	<g id="XMLID_4984_">
		<g id="XMLID_5001_">
			<path id="XMLID_5003_" class="st1" d="M84.6,47.4c0,0,0.3,2.1,0.1,2.3c-1.6,1.3-0.6-0.8-1.4,0c-0.8,0.8-1.1,2.6-0.9,3.7l1-0.7
				c0,0,0.9-0.7,1,0.5l-0.1,2c-0.2,1.2-0.6,0.9-1.8,0.4c0.2,1.1,0.6,1.6,1.3,3.6c0.7,2-0.4,1.7-1.6,0.4c-1.2-1.2-2.2-3-2.2-3
				c-0.2,1.3,0.2,5.5,1,7.6l0.3-0.8c0.3-0.8,0.6-1,1.2,0c0.5,1,1.2,3.5,1.5,4.7c0.1,0.7-0.2,1-0.7,0.9C82.6,69,82,68.5,82,68.5
				c1.7,3.3,2,6.8,2.2,9.8c0.2,3,0.3,8.8-0.2,11.4c-0.5,2.7-0.7,9.6-0.6,14.3c0.1,6.3,2.3,11.5,3,14.4V49.2L84.6,47.4z"/>
			<path id="XMLID_5002_" class="st2" d="M92.8,56.6c0,0-1,1.7-2.2,3c-1.2,1.2-2.2,1.6-1.6-0.4c0.7-2,1.1-2.5,1.3-3.6
				c-1.3,0.5-1.7,0.8-1.8-0.4l-0.1-2c0.1-1.2,1-0.5,1-0.5l1,0.7c0.2-1.1-0.1-3-0.9-3.7c-0.8-0.8,0.2,1.3-1.4,0
				c-0.2-0.1,0.1-2.3,0.1-2.3l-1.8,1.7v69.4c0.6-3,2.9-8.1,3-14.4c0.2-4.7-0.1-11.7-0.6-14.3c-0.5-2.7-0.4-8.4-0.2-11.4
				c0.2-3,0.4-6.5,2.2-9.8c0,0-0.7,0.4-1.2,0.5c-0.5,0.1-0.9-0.2-0.7-0.9c0.2-1.2,1-3.7,1.5-4.7c0.5-1,0.9-0.8,1.2,0l0.3,0.8
				C92.6,62.1,93.1,58,92.8,56.6z"/>
		</g>
		<path id="XMLID_5000_" class="st3" d="M94.8,46.6c-1.9,1.5-2-0.3-1.9-1.1c1.9-1.1,1-2.8,0.5-3.2c0.1,2.1-4.3,4.5-5.8,1.8
			c0-0.1-0.1-0.3,0-0.5c-0.8,0.3-1.6,0.3-2.5,0c0,0.2,0,0.4,0,0.5c-1.4,2.7-5.8,0.3-5.8-1.8c-0.5,0.3-1.4,2.1,0.5,3.2
			c0.1,0.8,0,2.7-1.9,1.1c-0.4,2.9,0.5,8.6,4,11.2c-1.4-3.5-1-7.1,0.8-8.9c-2.4,0.4-1.8-2.3,0.5-2.3c0.5,0,1.3,0.9,1.3,0.9l1.8,1.7
			l1.8-1.7c0,0,0.8-0.8,1.3-0.9c2.2,0,2.8,2.7,0.5,2.3c1.8,1.8,2.2,5.4,0.8,8.9C94.4,55.1,95.3,49.5,94.8,46.6z"/>
		<path id="XMLID_4999_" class="st3" d="M87.6,30.9c0,0-0.1-0.6,0.6-1.1c0,0-0.7-0.3-0.9-0.7c-0.1-0.2,1.2-0.2,1.5-1.6
			c0.1-0.7-0.7-2.7-1-2.7c0.1,0.7,0.2,1.3-0.2,1.6c-0.4,0.3-0.7,0-0.9-0.2c-0.1-0.2-0.4-1.2-0.4-1.2s-0.3,1.1-0.4,1.2
			c-0.1,0.2-0.4,0.4-0.9,0.2c-0.4-0.3-0.3-0.9-0.2-1.6c-0.3,0-1.1,2-1,2.7c0.3,1.3,1.5,1.4,1.5,1.6c-0.1,0.4-0.9,0.7-0.9,0.7
			c0.7,0.6,0.6,1.1,0.6,1.1C86,30.5,86.8,30.5,87.6,30.9z"/>
		<path id="XMLID_4998_" class="st4" d="M87.6,43.6c0-0.6,0.2-1.5,0.2-1.5c0.6-3.2,0.3-9.1-0.2-11.2c-0.8-0.4-1.6-0.4-2.4,0
			C84.7,33,84.4,39,85,42.1c0,0,0.2,0.9,0.2,1.5C86,43.9,86.8,43.9,87.6,43.6z"/>
		<g id="XMLID_4985_">
			<path id="XMLID_4995_" class="st5" d="M86.5,118.8l0-0.2c-0.2-0.8-0.5-1.8-0.8-2.9c-0.9-2.9-2.1-7-2.2-11.5
				c-0.2-4.6,0.1-11.6,0.6-14.3c0.4-2.7,0.4-8.4,0.2-11.4l0-0.2c-0.2-3-0.5-6.4-2.2-9.7l-0.1-0.2l0.1,0.1c0,0,0.7,0.4,1.2,0.5
				c0.2,0,0.4,0,0.6-0.1c0.1-0.1,0.2-0.4,0.1-0.7c-0.2-1.2-0.9-3.7-1.5-4.7c-0.2-0.4-0.4-0.7-0.6-0.7c-0.2,0-0.3,0.2-0.5,0.7
				L81,64.4l0-0.1c-0.8-2.1-1.2-6.3-1-7.7l0-0.1l0.1,0.1c0,0,1,1.7,2.1,2.9c0.7,0.7,1.3,1.1,1.6,1c0.1-0.1,0.3-0.3-0.1-1.3
				c-0.3-0.9-0.6-1.5-0.8-2c-0.2-0.6-0.4-1-0.5-1.6l0-0.1l0.3,0.1c0.7,0.3,1.1,0.4,1.3,0.3c0.1-0.1,0.2-0.3,0.3-0.7l0.1-2
				c0-0.4-0.1-0.6-0.3-0.6c-0.3-0.1-0.7,0.2-0.7,0.2l-1,0.8l0-0.1c-0.2-1.2,0.1-3,0.9-3.8c0.2-0.2,0.3-0.2,0.3-0.2c0,0,0,0,0,0
				c0.1,0,0.1,0.1,0.1,0.3c0,0.1,0,0.3,0.1,0.3c0.1,0,0.3,0,0.8-0.4c0.1-0.1,0-1.2-0.2-2.2l0-0.1l1.9,1.8l1.9-1.8l0,0.1
				c-0.1,1-0.2,2.1-0.2,2.2c0.5,0.4,0.7,0.4,0.8,0.4c0.1,0,0.1-0.2,0.1-0.3c0-0.1,0-0.2,0.1-0.3c0.1,0,0.2,0,0.3,0.2
				c0.8,0.8,1.1,2.6,0.9,3.8l0,0.1l-1-0.8c0,0-0.4-0.3-0.7-0.2c-0.2,0.1-0.3,0.3-0.3,0.7l0.1,2c0.1,0.4,0.1,0.7,0.3,0.7
				c0.2,0.1,0.6,0,1.3-0.3l0.3-0.1l0,0.1c-0.1,0.6-0.3,1-0.5,1.6c-0.2,0.5-0.5,1.1-0.8,2c-0.3,1-0.2,1.3-0.1,1.3
				c0.3,0.2,0.9-0.2,1.6-1c1.2-1.2,2.1-2.9,2.1-2.9l0.1-0.1l0,0.1c0.2,1.3-0.2,5.5-1,7.7l0,0.1l-0.3-0.9c-0.2-0.4-0.3-0.6-0.5-0.7
				c-0.2,0-0.4,0.2-0.6,0.7c-0.5,1-1.2,3.5-1.5,4.7c-0.1,0.3,0,0.6,0.1,0.7c0.1,0.1,0.3,0.2,0.6,0.1c0.5-0.1,1.2-0.5,1.2-0.5
				l0.1-0.1L91,68.6c-1.7,3.2-2,6.6-2.2,9.7l0,0.2c-0.2,3-0.3,8.8,0.2,11.4c0.5,2.7,0.7,9.7,0.6,14.3c0,4.6-1.3,8.6-2.2,11.5
				c-0.3,1.1-0.6,2.1-0.8,2.9L86.5,118.8z M82.1,68.7c1.6,3.2,1.9,6.6,2.1,9.5l0,0.2c0.2,3,0.3,8.8-0.2,11.5
				c-0.5,2.7-0.7,9.7-0.6,14.3c0,4.5,1.3,8.6,2.2,11.5c0.3,1,0.6,1.9,0.8,2.7c0.2-0.8,0.5-1.7,0.8-2.7c0.9-2.9,2.1-6.9,2.2-11.5l0,0
				c0.2-4.6-0.1-11.6-0.6-14.3c-0.5-2.7-0.4-8.5-0.2-11.5l0-0.2c0.2-3,0.5-6.4,2.1-9.5c-0.2,0.1-0.7,0.4-1.1,0.4
				c-0.3,0.1-0.5,0-0.6-0.1c-0.2-0.2-0.2-0.5-0.1-0.8c0.2-1.2,1-3.7,1.5-4.7c0.2-0.5,0.5-0.7,0.7-0.7c0.2,0,0.4,0.2,0.6,0.7l0.2,0.7
				c0.7-2.1,1.1-5.9,0.9-7.3c-0.2,0.4-1.1,1.8-2.1,2.8c-0.6,0.6-1.3,1.2-1.7,1c-0.3-0.2-0.3-0.6,0-1.5c0.3-0.9,0.6-1.5,0.8-2
				c0.2-0.5,0.4-0.9,0.5-1.5l-0.1,0c-0.7,0.3-1.1,0.5-1.4,0.3c-0.2-0.1-0.3-0.3-0.3-0.8l-0.1-2c0-0.4,0.1-0.7,0.3-0.7
				c0.3-0.1,0.7,0.2,0.8,0.2l0.9,0.7c0.2-1.1-0.2-2.9-0.9-3.6c-0.2-0.2-0.2-0.2-0.2-0.2c0,0,0,0.1-0.1,0.2c0,0.1,0,0.3-0.2,0.4
				c-0.2,0.1-0.5-0.1-0.9-0.4c-0.2-0.1,0-1.6,0.1-2.2l-1.8,1.7l-1.8-1.7c0.1,0.6,0.3,2,0.1,2.2c-0.5,0.4-0.7,0.5-0.9,0.4
				c-0.1-0.1-0.2-0.2-0.2-0.4c0-0.1,0-0.2-0.1-0.2c0,0,0,0,0,0c0,0-0.1,0-0.2,0.2c-0.8,0.7-1.1,2.5-0.9,3.6l0.9-0.7
				c0,0,0.4-0.3,0.8-0.2c0.2,0.1,0.3,0.3,0.3,0.7l-0.1,2c-0.1,0.5-0.2,0.7-0.3,0.8c-0.3,0.2-0.7,0-1.4-0.3l-0.1,0
				c0.1,0.6,0.3,1,0.5,1.5c0.2,0.5,0.5,1.1,0.8,2c0.3,0.8,0.3,1.3,0,1.5c-0.4,0.2-1.1-0.4-1.7-1c-1-1-1.8-2.4-2.1-2.8
				c-0.2,1.4,0.2,5.2,0.9,7.3l0.3-0.7c0.2-0.5,0.4-0.7,0.6-0.7c0.2,0,0.4,0.2,0.7,0.7c0.5,1,1.2,3.5,1.5,4.7c0.1,0.4,0,0.7-0.1,0.8
				c-0.1,0.1-0.4,0.2-0.6,0.1C82.8,69,82.4,68.8,82.1,68.7z"/>
			<path id="XMLID_4992_" class="st5" d="M82.2,58L82,57.9c-3.5-2.6-4.5-8.3-4.1-11.3l0-0.1l0.1,0.1c0.7,0.5,1.1,0.7,1.5,0.5
				c0.4-0.3,0.4-1.1,0.4-1.6c-0.9-0.5-1.1-1.2-1.2-1.7c0-0.7,0.4-1.4,0.7-1.6l0.1-0.1l0,0.1c0,1.2,1.4,2.4,2.8,2.8
				c1.3,0.3,2.3,0,2.9-1.1c0-0.1,0-0.2,0-0.4l0-0.1l0.1,0c0.8,0.3,1.6,0.3,2.4,0l0.1,0l0,0.1c0,0.2,0,0.4,0,0.5c0.5,1,1.6,1.4,2.9,1
				c1.4-0.4,2.8-1.6,2.8-2.8l0-0.1l0.1,0.1c0.3,0.2,0.7,0.8,0.7,1.6c0,0.5-0.2,1.1-1.2,1.7c-0.1,0.4-0.1,1.3,0.4,1.6
				c0.3,0.2,0.8,0,1.5-0.5l0.1-0.1l0,0.1c0.4,3-0.5,8.6-4.1,11.3L90.7,58l0.1-0.2c1.4-3.4,1-7-0.8-8.9L90,48.8l0.1,0
				c0.6,0.1,1.1,0,1.3-0.3c0.2-0.2,0.2-0.6,0-0.9c-0.2-0.5-0.8-1-1.8-1c-0.5,0-1.3,0.8-1.3,0.9l-1.9,1.8l-1.9-1.8
				c0,0-0.8-0.8-1.3-0.9c-1,0-1.6,0.5-1.8,1c-0.2,0.3-0.2,0.7,0,0.9c0.2,0.3,0.7,0.4,1.3,0.3l0.1,0l-0.1,0.1
				c-1.8,1.8-2.1,5.5-0.8,8.9L82.2,58z M78.1,46.7c-0.4,2.9,0.6,8.4,3.9,11c-1.3-3.3-1-6.9,0.7-8.7c-0.6,0.1-1-0.1-1.3-0.4
				c-0.2-0.3-0.2-0.7,0-1c0.2-0.5,0.9-1,1.9-1c0.5,0,1.3,0.8,1.4,0.9l1.8,1.7l1.8-1.7c0,0,0.9-0.9,1.4-0.9c1,0,1.7,0.5,1.9,1
				c0.2,0.4,0.2,0.8,0,1c-0.2,0.3-0.7,0.4-1.3,0.4c1.7,1.9,2,5.4,0.7,8.7c3.3-2.6,4.3-8,3.9-11c-0.7,0.5-1.2,0.7-1.5,0.5
				c-0.5-0.3-0.5-1.2-0.4-1.7l0,0l0,0c0.7-0.4,1.1-1,1.1-1.6c0-0.6-0.3-1.2-0.6-1.4c0,1.2-1.5,2.4-2.9,2.8c-1.3,0.4-2.4,0-3-1.1
				c0-0.1-0.1-0.2-0.1-0.4c-0.8,0.3-1.6,0.3-2.4,0c0,0.2,0,0.3-0.1,0.4c-0.6,1.1-1.6,1.5-3,1.1c-1.4-0.4-2.8-1.6-2.9-2.8
				c-0.3,0.2-0.6,0.8-0.6,1.4c0,0.6,0.4,1.2,1.1,1.6l0,0l0,0c0.1,0.5,0.1,1.4-0.4,1.7C79.2,47.4,78.7,47.2,78.1,46.7z"/>
			<path id="XMLID_4989_" class="st5" d="M85.2,31L85.2,31c0-0.1,0.1-0.7-0.6-1.2l-0.1-0.1l0.1,0c0,0,0.7-0.3,0.8-0.7
				c0,0-0.1-0.1-0.2-0.1c-0.4-0.2-1.1-0.5-1.3-1.5c-0.1-0.7,0.5-2.2,0.8-2.6c0.1-0.1,0.1-0.1,0.2-0.1l0.1,0l0,0.1
				c-0.1,0.7-0.2,1.3,0.2,1.5c0.4,0.3,0.7,0,0.8-0.1c0.1-0.1,0.3-0.8,0.4-1.2l0-0.2l0,0.2c0.1,0.4,0.3,1.1,0.4,1.2
				c0.1,0.1,0.4,0.4,0.8,0.1c0.4-0.2,0.3-0.9,0.2-1.5l0-0.1l0.1,0c0.1,0,0.1,0,0.2,0.1c0.4,0.4,0.9,2,0.8,2.6
				c-0.2,1-0.9,1.3-1.3,1.5c-0.1,0-0.2,0.1-0.2,0.1c0.1,0.4,0.8,0.7,0.8,0.7l0.1,0l-0.1,0.1c-0.7,0.5-0.6,1.1-0.6,1.1l0,0.1l-0.1,0
				C86.9,30.6,86.1,30.6,85.2,31L85.2,31z M84.7,29.8c0.5,0.4,0.6,0.9,0.6,1c0.8-0.3,1.6-0.3,2.3,0c0-0.2,0-0.6,0.6-1
				c-0.2-0.1-0.7-0.3-0.8-0.7l0,0c0-0.1,0.1-0.1,0.2-0.2c0.4-0.2,1.1-0.5,1.2-1.4c0.1-0.6-0.5-2.1-0.8-2.5c0,0,0-0.1-0.1-0.1
				c0.1,0.7,0.2,1.3-0.2,1.5c-0.5,0.3-0.8,0-0.9-0.2c-0.1-0.1-0.3-0.7-0.4-1.1c-0.1,0.3-0.3,0.9-0.4,1.1c-0.1,0.1-0.4,0.5-0.9,0.2
				c-0.4-0.3-0.3-0.9-0.2-1.5c0,0,0,0-0.1,0.1c-0.3,0.4-0.9,1.9-0.8,2.5c0.2,0.9,0.9,1.2,1.2,1.4c0.2,0.1,0.3,0.1,0.2,0.2
				C85.4,29.5,84.9,29.7,84.7,29.8z"/>
			<path id="XMLID_4986_" class="st5" d="M85.6,43.8c-0.1,0-0.3-0.1-0.4-0.1l0,0l0,0c0-0.6-0.2-1.4-0.2-1.4
				c-0.6-3.1-0.3-9.1,0.2-11.2l0,0l0,0c0.8-0.4,1.7-0.4,2.5,0l0,0l0,0c0.5,2.1,0.8,8.1,0.2,11.2c0,0-0.2,0.9-0.2,1.4l0,0l0,0
				C87,43.9,86.3,44,85.6,43.8z M85.3,43.6c0.8,0.3,1.6,0.3,2.4,0c0-0.6,0.2-1.4,0.2-1.4l0,0c0.6-3.1,0.3-9.1-0.2-11.2
				c-0.8-0.4-1.6-0.4-2.4,0c-0.5,2.1-0.8,8-0.2,11.2C85.1,42.1,85.3,43,85.3,43.6z"/>
		</g>
	</g>
	<g id="XMLID_4964_">
		<g id="XMLID_4981_">
			<path id="XMLID_4983_" class="st1" d="M121.1,47.4c0,0,0.3,2.1,0.1,2.3c-1.6,1.3-0.6-0.8-1.4,0c-0.8,0.8-1.1,2.6-0.9,3.7l1-0.7
				c0,0,0.9-0.7,1,0.5l-0.1,2c-0.2,1.2-0.6,0.9-1.8,0.4c0.2,1.1,0.6,1.6,1.3,3.6c0.7,2-0.4,1.7-1.6,0.4c-1.2-1.2-2.2-3-2.2-3
				c-0.2,1.3,0.2,5.5,1,7.6l0.3-0.8c0.3-0.8,0.6-1,1.2,0c0.5,1,1.2,3.5,1.5,4.7c0.1,0.7-0.2,1-0.7,0.9c-0.5-0.1-1.2-0.5-1.2-0.5
				c1.7,3.3,2,6.8,2.2,9.8c0.2,3,0.3,8.8-0.2,11.4c-0.5,2.7-0.7,9.6-0.6,14.3c0.1,6.3,2.3,11.5,3,14.4V49.2L121.1,47.4z"/>
			<path id="XMLID_4982_" class="st2" d="M129.3,56.6c0,0-1,1.7-2.2,3c-1.2,1.2-2.2,1.6-1.6-0.4c0.7-2,1.1-2.5,1.3-3.6
				c-1.3,0.5-1.7,0.8-1.8-0.4l-0.1-2c0.1-1.2,1-0.5,1-0.5l1,0.7c0.2-1.1-0.1-3-0.9-3.7c-0.8-0.8,0.2,1.3-1.4,0
				c-0.2-0.1,0.1-2.3,0.1-2.3l-1.8,1.7v69.4c0.6-3,2.9-8.1,3-14.4c0.2-4.7-0.1-11.7-0.6-14.3c-0.5-2.7-0.4-8.4-0.2-11.4
				c0.2-3,0.4-6.5,2.2-9.8c0,0-0.7,0.4-1.2,0.5c-0.5,0.1-0.9-0.2-0.7-0.9c0.2-1.2,1-3.7,1.5-4.7c0.5-1,0.9-0.8,1.2,0l0.3,0.8
				C129.1,62.1,129.6,58,129.3,56.6z"/>
		</g>
		<path id="XMLID_4980_" class="st3" d="M131.4,46.6c-1.9,1.5-2-0.3-1.9-1.1c1.9-1.1,1-2.8,0.5-3.2c0.1,2.1-4.3,4.5-5.8,1.8
			c0-0.1-0.1-0.3,0-0.5c-0.8,0.3-1.6,0.3-2.5,0c0,0.2,0,0.4,0,0.5c-1.4,2.7-5.8,0.3-5.8-1.8c-0.5,0.3-1.4,2.1,0.5,3.2
			c0.1,0.8,0,2.7-1.9,1.1c-0.4,2.9,0.5,8.6,4,11.2c-1.4-3.5-1-7.1,0.8-8.9c-2.4,0.4-1.8-2.3,0.5-2.3c0.5,0,1.3,0.9,1.3,0.9l1.8,1.7
			l1.8-1.7c0,0,0.8-0.8,1.3-0.9c2.2,0,2.8,2.7,0.5,2.3c1.8,1.8,2.2,5.4,0.8,8.9C130.9,55.1,131.8,49.5,131.4,46.6z"/>
		<path id="XMLID_4979_" class="st3" d="M124.1,30.9c0,0-0.1-0.6,0.6-1.1c0,0-0.7-0.3-0.9-0.7c-0.1-0.2,1.2-0.2,1.5-1.6
			c0.1-0.7-0.7-2.7-1-2.7c0.1,0.7,0.2,1.3-0.2,1.6c-0.4,0.3-0.7,0-0.9-0.2c-0.1-0.2-0.4-1.2-0.4-1.2s-0.3,1.1-0.4,1.2
			c-0.1,0.2-0.4,0.4-0.9,0.2c-0.4-0.3-0.3-0.9-0.2-1.6c-0.3,0-1.1,2-1,2.7c0.3,1.3,1.5,1.4,1.5,1.6c-0.1,0.4-0.9,0.7-0.9,0.7
			c0.7,0.6,0.6,1.1,0.6,1.1C122.5,30.5,123.3,30.5,124.1,30.9z"/>
		<path id="XMLID_4978_" class="st4" d="M124.1,43.6c0-0.6,0.2-1.5,0.2-1.5c0.6-3.2,0.3-9.1-0.2-11.2c-0.8-0.4-1.6-0.4-2.4,0
			c-0.5,2.1-0.8,8.1-0.2,11.2c0,0,0.2,0.9,0.2,1.5C122.5,43.9,123.3,43.9,124.1,43.6z"/>
		<g id="XMLID_4965_">
			<path id="XMLID_4975_" class="st5" d="M123,118.8l0-0.2c-0.2-0.8-0.5-1.8-0.8-2.9c-0.9-2.9-2.1-7-2.2-11.5
				c-0.2-4.6,0.1-11.6,0.6-14.3c0.4-2.7,0.4-8.4,0.2-11.4l0-0.2c-0.2-3-0.5-6.4-2.2-9.7l-0.1-0.2l0.1,0.1c0,0,0.7,0.4,1.2,0.5
				c0.2,0,0.4,0,0.6-0.1c0.1-0.1,0.2-0.4,0.1-0.7c-0.2-1.2-0.9-3.7-1.5-4.7c-0.2-0.4-0.4-0.7-0.6-0.7c-0.2,0-0.3,0.2-0.5,0.7
				l-0.3,0.9l0-0.1c-0.8-2.1-1.2-6.3-1-7.7l0-0.1l0.1,0.1c0,0,1,1.7,2.1,2.9c0.7,0.7,1.3,1.1,1.6,1c0.1-0.1,0.3-0.3-0.1-1.3
				c-0.3-0.9-0.6-1.5-0.8-2c-0.2-0.6-0.4-1-0.5-1.6l0-0.1l0.3,0.1c0.7,0.3,1.1,0.4,1.3,0.3c0.1-0.1,0.2-0.3,0.3-0.7l0.1-2
				c0-0.4-0.1-0.6-0.3-0.6c-0.3-0.1-0.7,0.2-0.7,0.2l-1,0.8l0-0.1c-0.2-1.2,0.1-3,0.9-3.8c0.2-0.2,0.3-0.2,0.3-0.2c0,0,0,0,0,0
				c0.1,0,0.1,0.1,0.1,0.3c0,0.1,0,0.3,0.1,0.3c0.1,0,0.3,0,0.8-0.4c0.1-0.1,0-1.2-0.2-2.2l0-0.1l1.9,1.8l1.9-1.8l0,0.1
				c-0.1,1-0.2,2.1-0.2,2.2c0.5,0.4,0.7,0.4,0.8,0.4c0.1,0,0.1-0.2,0.1-0.3c0-0.1,0-0.2,0.1-0.3c0.1,0,0.2,0,0.3,0.2
				c0.8,0.8,1.1,2.6,0.9,3.8l0,0.1l-1-0.8c0,0-0.4-0.3-0.7-0.2c-0.2,0.1-0.3,0.3-0.3,0.7l0.1,2c0.1,0.4,0.1,0.7,0.3,0.7
				c0.2,0.1,0.6,0,1.3-0.3l0.3-0.1l0,0.1c-0.1,0.6-0.3,1-0.5,1.6c-0.2,0.5-0.5,1.1-0.8,2c-0.3,1-0.2,1.3-0.1,1.3
				c0.3,0.2,0.9-0.2,1.6-1c1.2-1.2,2.1-2.9,2.1-2.9l0.1-0.1l0,0.1c0.2,1.3-0.2,5.5-1,7.7l0,0.1l-0.3-0.9c-0.2-0.4-0.3-0.6-0.5-0.7
				c-0.2,0-0.4,0.2-0.6,0.7c-0.5,1-1.2,3.5-1.5,4.7c-0.1,0.3,0,0.6,0.1,0.7c0.1,0.1,0.3,0.2,0.6,0.1c0.5-0.1,1.2-0.5,1.2-0.5
				l0.1-0.1l-0.1,0.2c-1.7,3.2-2,6.6-2.2,9.7l0,0.2c-0.2,3-0.3,8.8,0.2,11.4c0.5,2.7,0.7,9.7,0.6,14.3c0,4.6-1.3,8.6-2.2,11.5
				c-0.3,1.1-0.6,2.1-0.8,2.9L123,118.8z M118.6,68.7c1.6,3.2,1.9,6.6,2.1,9.5l0,0.2c0.2,3,0.3,8.8-0.2,11.5
				c-0.5,2.7-0.7,9.7-0.6,14.3c0,4.5,1.3,8.6,2.2,11.5c0.3,1,0.6,1.9,0.8,2.7c0.2-0.8,0.5-1.7,0.8-2.7c0.9-2.9,2.1-6.9,2.2-11.5l0,0
				c0.2-4.6-0.1-11.6-0.6-14.3c-0.5-2.7-0.4-8.5-0.2-11.5l0-0.2c0.2-3,0.5-6.4,2.1-9.5c-0.2,0.1-0.7,0.4-1.1,0.4
				c-0.3,0.1-0.5,0-0.6-0.1c-0.2-0.2-0.2-0.5-0.1-0.8c0.2-1.2,1-3.7,1.5-4.7c0.2-0.5,0.5-0.7,0.7-0.7c0.2,0,0.4,0.2,0.6,0.7l0.2,0.7
				c0.7-2.1,1.1-5.9,0.9-7.3c-0.2,0.4-1.1,1.8-2.1,2.8c-0.6,0.6-1.3,1.2-1.7,1c-0.3-0.2-0.3-0.6,0-1.5c0.3-0.9,0.6-1.5,0.8-2
				c0.2-0.5,0.4-0.9,0.5-1.5l-0.1,0c-0.7,0.3-1.1,0.5-1.4,0.3c-0.2-0.1-0.3-0.3-0.3-0.8l-0.1-2c0-0.4,0.1-0.7,0.3-0.7
				c0.3-0.1,0.7,0.2,0.8,0.2l0.9,0.7c0.2-1.1-0.2-2.9-0.9-3.6c-0.2-0.2-0.2-0.2-0.2-0.2c0,0,0,0.1-0.1,0.2c0,0.1,0,0.3-0.2,0.4
				c-0.2,0.1-0.5-0.1-0.9-0.4c-0.2-0.1,0-1.6,0.1-2.2l-1.8,1.7l-1.8-1.7c0.1,0.6,0.3,2,0.1,2.2c-0.5,0.4-0.7,0.5-0.9,0.4
				c-0.1-0.1-0.2-0.2-0.2-0.4c0-0.1,0-0.2-0.1-0.2c0,0,0,0,0,0c0,0-0.1,0-0.2,0.2c-0.8,0.7-1.1,2.5-0.9,3.6l0.9-0.7
				c0,0,0.4-0.3,0.8-0.2c0.2,0.1,0.3,0.3,0.3,0.7l-0.1,2c-0.1,0.5-0.2,0.7-0.3,0.8c-0.3,0.2-0.7,0-1.4-0.3l-0.1,0
				c0.1,0.6,0.3,1,0.5,1.5c0.2,0.5,0.5,1.1,0.8,2c0.3,0.8,0.3,1.3,0,1.5c-0.4,0.2-1.1-0.4-1.7-1c-1-1-1.8-2.4-2.1-2.8
				c-0.2,1.4,0.2,5.2,0.9,7.3l0.3-0.7c0.2-0.5,0.4-0.7,0.6-0.7c0.2,0,0.4,0.2,0.7,0.7c0.5,1,1.2,3.5,1.5,4.7c0.1,0.4,0,0.7-0.1,0.8
				c-0.1,0.1-0.4,0.2-0.6,0.1C119.3,69,118.9,68.8,118.6,68.7z"/>
			<path id="XMLID_4972_" class="st5" d="M118.7,58l-0.1-0.1c-3.5-2.6-4.5-8.3-4.1-11.3l0-0.1l0.1,0.1c0.7,0.5,1.1,0.7,1.5,0.5
				c0.4-0.3,0.4-1.1,0.4-1.6c-0.9-0.5-1.1-1.2-1.2-1.7c0-0.7,0.4-1.4,0.7-1.6l0.1-0.1l0,0.1c0,1.2,1.4,2.4,2.8,2.8
				c1.3,0.3,2.3,0,2.9-1.1c0-0.1,0-0.2,0-0.4l0-0.1l0.1,0c0.8,0.3,1.6,0.3,2.4,0l0.1,0l0,0.1c0,0.2,0,0.4,0,0.5c0.5,1,1.6,1.4,2.9,1
				c1.4-0.4,2.8-1.6,2.8-2.8l0-0.1l0.1,0.1c0.3,0.2,0.7,0.8,0.7,1.6c0,0.5-0.2,1.1-1.2,1.7c-0.1,0.4-0.1,1.3,0.4,1.6
				c0.3,0.2,0.8,0,1.5-0.5l0.1-0.1l0,0.1c0.4,3-0.5,8.6-4.1,11.3l-0.1,0.1l0.1-0.2c1.4-3.4,1-7-0.8-8.9l-0.1-0.1l0.1,0
				c0.6,0.1,1.1,0,1.3-0.3c0.2-0.2,0.2-0.6,0-0.9c-0.2-0.5-0.8-1-1.8-1c-0.5,0-1.3,0.8-1.3,0.9l-1.9,1.8l-1.9-1.8
				c0,0-0.8-0.8-1.3-0.9c-1,0-1.6,0.5-1.8,1c-0.2,0.3-0.2,0.7,0,0.9c0.2,0.3,0.7,0.4,1.3,0.3l0.1,0l-0.1,0.1
				c-1.8,1.8-2.1,5.5-0.8,8.9L118.7,58z M114.6,46.7c-0.4,2.9,0.6,8.4,3.9,11c-1.3-3.3-1-6.9,0.7-8.7c-0.6,0.1-1-0.1-1.3-0.4
				c-0.2-0.3-0.2-0.7,0-1c0.2-0.5,0.9-1,1.9-1c0.5,0,1.3,0.8,1.4,0.9l1.8,1.7l1.8-1.7c0,0,0.9-0.9,1.4-0.9c1,0,1.7,0.5,1.9,1
				c0.2,0.4,0.2,0.8,0,1c-0.2,0.3-0.7,0.4-1.3,0.4c1.7,1.9,2,5.4,0.7,8.7c3.3-2.6,4.3-8,3.9-11c-0.7,0.5-1.2,0.7-1.5,0.5
				c-0.5-0.3-0.5-1.2-0.4-1.7l0,0l0,0c0.7-0.4,1.1-1,1.1-1.6c0-0.6-0.3-1.2-0.6-1.4c0,1.2-1.5,2.4-2.9,2.8c-1.3,0.4-2.4,0-3-1.1
				c0-0.1-0.1-0.2-0.1-0.4c-0.8,0.3-1.6,0.3-2.4,0c0,0.2,0,0.3-0.1,0.4c-0.6,1.1-1.6,1.5-3,1.1c-1.4-0.4-2.8-1.6-2.9-2.8
				c-0.3,0.2-0.6,0.8-0.6,1.4c0,0.6,0.4,1.2,1.1,1.6l0,0l0,0c0.1,0.5,0.1,1.4-0.4,1.7C115.7,47.4,115.2,47.2,114.6,46.7z"/>
			<path id="XMLID_4969_" class="st5" d="M121.7,31L121.7,31c0-0.1,0.1-0.7-0.6-1.2l-0.1-0.1l0.1,0c0,0,0.7-0.3,0.8-0.7
				c0,0-0.1-0.1-0.2-0.1c-0.4-0.2-1.1-0.5-1.3-1.5c-0.1-0.7,0.5-2.2,0.8-2.6c0.1-0.1,0.1-0.1,0.2-0.1l0.1,0l0,0.1
				c-0.1,0.7-0.2,1.3,0.2,1.5c0.4,0.3,0.7,0,0.8-0.1c0.1-0.1,0.3-0.8,0.4-1.2l0-0.2l0,0.2c0.1,0.4,0.3,1.1,0.4,1.2
				c0.1,0.1,0.4,0.4,0.8,0.1c0.4-0.2,0.3-0.9,0.2-1.5l0-0.1l0.1,0c0.1,0,0.1,0,0.2,0.1c0.4,0.4,0.9,2,0.8,2.6
				c-0.2,1-0.9,1.3-1.3,1.5c-0.1,0-0.2,0.1-0.2,0.1c0.1,0.4,0.8,0.7,0.8,0.7l0.1,0l-0.1,0.1c-0.7,0.5-0.6,1.1-0.6,1.1l0,0.1l-0.1,0
				C123.4,30.6,122.6,30.6,121.7,31L121.7,31z M121.3,29.8c0.5,0.4,0.6,0.9,0.6,1c0.8-0.3,1.6-0.3,2.3,0c0-0.2,0-0.6,0.6-1
				c-0.2-0.1-0.7-0.3-0.8-0.7l0,0c0-0.1,0.1-0.1,0.2-0.2c0.4-0.2,1.1-0.5,1.2-1.4c0.1-0.6-0.5-2.1-0.8-2.5c0,0,0-0.1-0.1-0.1
				c0.1,0.7,0.2,1.3-0.2,1.5c-0.5,0.3-0.8,0-0.9-0.2c-0.1-0.1-0.3-0.7-0.4-1.1c-0.1,0.3-0.3,0.9-0.4,1.1c-0.1,0.1-0.4,0.5-0.9,0.2
				c-0.4-0.3-0.3-0.9-0.2-1.5c0,0,0,0-0.1,0.1c-0.3,0.4-0.9,1.9-0.8,2.5c0.2,0.9,0.9,1.2,1.2,1.4c0.2,0.1,0.3,0.1,0.2,0.2
				C122,29.5,121.4,29.7,121.3,29.8z"/>
			<path id="XMLID_4966_" class="st5" d="M122.1,43.8c-0.1,0-0.3-0.1-0.4-0.1l0,0l0,0c0-0.6-0.2-1.4-0.2-1.4
				c-0.6-3.1-0.3-9.1,0.2-11.2l0,0l0,0c0.8-0.4,1.7-0.4,2.5,0l0,0l0,0c0.5,2.1,0.8,8.1,0.2,11.2c0,0-0.2,0.9-0.2,1.4l0,0l0,0
				C123.5,43.9,122.8,44,122.1,43.8z M121.8,43.6c0.8,0.3,1.6,0.3,2.4,0c0-0.6,0.2-1.4,0.2-1.4l0,0c0.6-3.1,0.3-9.1-0.2-11.2
				c-0.8-0.4-1.6-0.4-2.4,0c-0.5,2.1-0.8,8-0.2,11.2C121.6,42.1,121.8,43,121.8,43.6z"/>
		</g>
	</g>
	<path id="XMLID_4551_" class="st5" d="M164,258.6H9V10.7h155V258.6z M11,256.6h151V12.7H11V256.6z"/>
	<path id="XMLID_4549_" d="M18.8,22.5c-0.4,0-0.8,0-1.2,0.2c0,0-0.2,0.1-0.2,0.1c0,0-0.1,0-0.1-0.1c0-0.1,0-0.1,0.1-0.2
		c0.3-0.2,1-0.6,1.8-0.6c2.2,0,3.2,1.8,3.2,3.2c0,1.3-0.4,2.3-1.1,3c-0.7,0.7-1.6,1.1-2.7,1.1c-2.2,0-3.7-1.7-3.7-4.6
		c0-3.1,2.4-6.4,5.5-7.8c0.1-0.1,0.3-0.1,0.3-0.1s0.1,0,0.1,0.1c0,0.1-0.1,0.2-0.3,0.3c-2,1.1-4.3,3.7-4.3,7.4c0,1.9,0.8,4,2.7,4
		c1.3,0,2.3-1,2.3-2.8C21.2,23.7,19.7,22.5,18.8,22.5z"/>
	<path id="XMLID_4547_" d="M154.1,246.7c0.4,0,0.8,0,1.2-0.2c0,0,0.2-0.1,0.2-0.1c0,0,0.1,0,0.1,0.1c0,0.1,0,0.1-0.1,0.2
		c-0.3,0.2-1,0.6-1.8,0.6c-2.2,0-3.2-1.8-3.2-3.2c0-1.3,0.4-2.3,1.1-3c0.7-0.7,1.6-1.1,2.7-1.1c2.2,0,3.7,1.7,3.7,4.6
		c0,3.1-2.4,6.4-5.5,7.8c-0.1,0.1-0.3,0.1-0.3,0.1s-0.1,0-0.1-0.1c0-0.1,0.1-0.2,0.3-0.3c2-1.1,4.3-3.7,4.3-7.4c0-1.9-0.8-4-2.7-4
		c-1.3,0-2.3,1-2.3,2.8C151.7,245.6,153.2,246.7,154.1,246.7z"/>
</g>
</svg>
