<?xml version="1.0" encoding="utf-8"?>
<!-- Generator: Adobe Illustrator 19.0.0, SVG Export Plug-In . SVG Version: 6.00 Build 0)  -->
<svg version="1.1" id="Capa_1" xmlns="http://www.w3.org/2000/svg" xmlns:xlink="http://www.w3.org/1999/xlink" x="0px" y="0px"
	 viewBox="0 0 172.9 269.3" style="enable-background:new 0 0 172.9 269.3;" xml:space="preserve">
<style type="text/css">
	.st0{fill:#FFFFFF;}
	.st1{fill:url(#XMLID_2_);}
	.st2{fill:#F07E1A;}
	.st3{fill:url(#XMLID_3_);}
	.st4{fill:url(#XMLID_4_);}
	.st5{fill:url(#XMLID_5_);}
	.st6{fill:url(#XMLID_6_);}
	.st7{fill:url(#XMLID_7_);}
	.st8{fill:#010202;}
</style>
<rect id="XMLID_7249_" x="0" y="0" class="st0" width="172.9" height="269.3"/>
<g id="XMLID_5733_">
	<g id="XMLID_4725_">
		<polygon id="XMLID_4733_" points="76.3,57.9 79.3,56.2 76.3,54.4 79,52.3 75.8,51 78.3,48.6 74.9,47.7 77,44.9 73.6,44.5 
			75.3,41.5 71.9,41.5 73.2,38.3 69.8,38.8 70.7,35.4 67.3,36.3 67.8,32.9 64.6,34.2 64.6,30.8 61.6,32.5 61.2,29.1 58.4,31.2 
			57.5,27.8 55.1,30.3 53.8,27.1 51.7,29.8 49.9,26.8 48.2,29.8 46.1,27.1 44.8,30.3 42.4,27.8 41.5,31.2 38.7,29.1 38.3,32.5 
			35.3,30.8 35.3,34.2 32.1,32.9 32.6,36.3 29.2,35.4 30.1,38.8 26.7,38.3 28,41.5 24.6,41.5 26.3,44.5 22.9,44.9 25,47.7 
			21.6,48.6 24.1,51 20.9,52.3 23.6,54.4 20.6,56.2 23.6,57.9 20.9,60 24.1,61.3 21.6,63.7 25,64.6 22.9,67.4 26.3,67.8 24.6,70.8 
			28,70.8 26.7,74 30.1,73.6 29.2,76.9 32.6,76 32.1,79.4 35.3,78.1 35.3,81.5 38.3,79.8 38.7,83.2 41.5,81.1 42.4,84.5 44.8,82 
			46.1,85.2 48.2,82.5 49.9,85.5 51.7,82.5 53.8,85.2 55.1,82 57.5,84.5 58.4,81.1 61.2,83.2 61.6,79.8 64.6,81.5 64.6,78.1 
			67.8,79.4 67.3,76 70.7,76.9 69.8,73.6 73.2,74 71.9,70.8 75.3,70.8 73.6,67.8 77,67.4 74.9,64.6 78.3,63.7 75.8,61.3 79,60 		"/>
		<radialGradient id="XMLID_2_" cx="49.9468" cy="56.1539" r="25.1756" gradientUnits="userSpaceOnUse">
			<stop  offset="0" style="stop-color:#F7A516"/>
			<stop  offset="1" style="stop-color:#F0E400"/>
		</radialGradient>
		<circle id="XMLID_4732_" class="st1" cx="49.9" cy="56.2" r="25.2"/>
		<g id="XMLID_4726_">
			<path id="XMLID_4727_" class="st2" d="M64.9,44.9c0,0,1.4-0.6,0.6-2.1c0,0,0.3,1.4-0.8,1.4c0,0-0.8,0-0.9-0.5c0,0,1.2,0,0.8-1.3
				c0,0,0.2,0.8-0.9,0.8c0,0-0.6,0-1-0.5c0,0,1.6-0.3,0.6-1.8c0,0,0.1,1-0.7,1.1c0,0-0.9-0.2-1.3,0.5c0,0-1.8-1.6-3.9,0
				c0,0-2.1,1.6-2,4.3c0,0,0,1.2,0.4,2.4c0,0,0.4,1.7,1,2.2l0.4,0.2c0,0-2.4-0.6-2.6,1.2c0,0-0.1,0.7,0.4,1.3c0,0-0.2-0.9,0.5-1.1
				c0,0,0.7-0.2,0.8,0.2c0,0-0.9,0.6-0.2,1.6c0,0-0.3-1.3,1.2-0.9c0,0-1,0.7-0.1,1.5c0,0-0.2-1.1,0.5-1.2c0,0,0.2,0.4,0.9,0.1
				l0.7,1.5c0,0-1.3,0.1-1.3,1.6c0,0,0.3-0.5,0.8-0.4c0,0-0.2,0.9-1.8,0.8c0,0-0.9-0.1-0.5-1.6c0,0-0.7,0.4-0.6,1.8c0,0-0.2,1,1.3,1
				c0,0,0.7,0,1.2-0.1c0,0,1.1,0.1,0.9,1.2c0,0-0.3,1.2-2.2,1.2c0,0-2.1,0.2-2.2-1.3c0,0-0.1-1-0.6-1.7c0,0-1.2-2.4-1.8-5.5
				c0,0-0.7,0.4-1.1-0.3c0,0,1.4,0.7,1.7-0.8c0,0,0.2-1-0.5-1.2l0-0.5c0,0-0.6-0.4-0.7-1.5c0,0,0.2,1.5,1.7,1.5c0,0,0.7-0.1,0.8-0.7
				c0,0-1,0.6-1.2-0.3c0,0-0.1-0.4,0-0.8c0,0,0.2-0.6-0.2-1.1c0,0-0.5-0.3-0.3-1.4c0,0,0.2,2.1,1.7,2c0,0-0.3-0.1-0.3-0.7l0-0.9
				c0,0-0.3,0-0.4-0.2c0,0,1.1,0.2,1.3-0.5c0,0,0.4-0.8-0.6-1.4c0,0,0.3,0.1,0.7-0.1c0,0-0.8-0.6-0.8-1.6c0,0,0.4,0.2,1.1-0.2
				c0,0-1,0.1-1.2-1c0,0,0.6,0.1,0.9-0.1c0,0-0.5-0.3-0.6-0.6c0,0,0-0.4-0.7-0.4c0,0,0.6-0.5,0.1-1.1c0,0,0,0.6-0.7,0.7
				c0,0,0.5-0.9-0.2-1.4c0,0,0.5,1-0.6,1.2c0,0,0.5-1.1-0.5-1.5c0,0,0.5,0.7-0.1,1.1c0,0-2-0.2-2.4-0.1l-0.7,0.7c0,0-1.8,0-2,0.4
				c0,0,0.1,1.3,0.4,1.8c-0.2,0-0.5,0-0.7,0c0,0-1.4-0.2-0.7-0.9l0.1-0.1c0,0-1.2-0.9-1.6,0.2c0,0-0.3,1.2,1.1,1.3c0,0,0,0,0,0
				c1.4,0.1,2-0.4,2-0.4s0.5-0.2,1.2,0c0,0,0.3,0.6-0.2,0.6c0,0-0.3,0.1-0.3-0.4c0,0-0.1-0.1-0.3,0.2c0,0-0.4,0.3-0.4-0.2
				c0,0-0.6,0.1-0.5,1.4c0,0,2.3-0.9,2.4,0.7c0,0-0.3-0.7-1-0.6c0,0-0.1,0.8-0.9,0.7c0,0-1.8-0.7-2.4,0.5c0,0-0.4,0.5-0.5,1.2
				c0,0,0,0.4-0.5,0.4c0,0-0.3,0-0.4-0.4c0,0-0.2,0.3,0.3,0.9c0,0-0.8-0.4-0.2-1.2c0,0-0.1,0.6,0.3,0.7c0,0,0.3,0,0.3-0.3
				c0,0,0.1-0.8,0.6-1.3l0-0.2l-0.1-0.1l-0.2,0L44,44.2l-0.2,0.2L43.5,44l-0.1,0l-0.1-0.3l-0.1,0l-0.1-0.1L43,43.4l0-0.1L42.9,43
				l-0.2,0v-0.3l-0.1,0l-0.1-0.1v-0.5l-0.2,0.2L42,42v-0.4l-0.2,0.1l-0.3-0.4c0,0,0.5-3.2-0.3-4.2c0,0,0.1-0.8-0.7-0.8
				c0,0,0.3,0.2,0.3,0.6c0,0-0.5-0.2-0.6,0c0,0,0.4,0.3,0.2,1c0,0,0-0.6-0.4-1.1c0,0,0-0.9-0.9-0.5c0,0,0.5,0,0.5,0.4c0,0,0,0,0,0
				c0,0-0.3,0.3-0.4,0.5c0,0,0.4,0.3,0.3,0.8c0,0-0.2-0.7-0.8-0.9c0,0-0.6-0.4-0.9,0.2c0,0,0.7-0.2,0.7,0.2c0,0-0.6,0.8,0.9,1.7
				c0,0-0.2,0.2-0.2,0.9c0,0-0.1-0.2-0.5,0c0,0-0.1-0.4,0.2-0.7c0,0-0.9,0-0.5,1.2c0,0-0.2,1,0.9,1.5c0,0-1.2-0.2-1.2,0.6
				c0,0,0.5-0.5,1,0.1c0,0,0.2,0.3,0.7,0.3c0,0-1.1,0.9,0.1,1.5c0,0,0-0.8,0.9-0.6c0,0-0.3,0.6,0.3,1.2c0,0-0.4,0.4,0.2,1.1
				c0,0,0-0.5,0.2-0.5c0,0,0.3,0,0.3,0.6c0,0-1.2,1.7-1.3,0.3c0,0-0.6,0.9,0.5,1c0,0,0.3,0,0.9-0.5c0,0,0.4-0.3,0.5,0.1c0,0,0,0,0,0
				c0,0.5-0.2,0.4-0.7,0.4c0,0,0,0.9,1.5,0.5c0,0,0.3,0.2-0.4,0.2c0,0-0.8,0-0.8,0.8c0,0,0.4-0.6,0.7-0.2c0,0,0.2,0.4-0.6,0.6
				c0,0-0.7,0.2-1-0.6c0,0-0.3,0.8,0.8,0.9c0,0,0,0.2-1.1,0.2l0.3,0.2l-0.6-0.1c0,0-0.2-0.1,0,0.2c0,0-0.2-0.2-0.5,0
				c0,0,0.5,0.2-0.2,0.3c0,0-2.6-0.4-3.1-1c0,0-0.6-0.4-1.4-0.1c0,0-0.9-0.5-0.9,0.5c0,0,0.1-0.2,0.6-0.2c0,0-0.1,0.3,0.2,0.3
				c0,0,0.4,0,0.6,0.1c0,0-0.6-0.1-1.1,0.1c0,0-0.6-0.1-0.5,1c0,0,0-0.4,0.5-0.5c0,0,0.3,0.2,0,0.5c0,0-0.7,0.7,0.2,1.2
				c0,0-0.2-0.6,0.1-0.7c0,0,0.3,0.5,1,0c0,0,0.7,0.1,0.9-0.1c0,0,0.4-0.3,0.5,0.1c0,0,0,0,0,0.1c0,0-0.6-0.1-0.6,0.2
				c0,0-0.3,0.7-0.8,0.1c0,0,0,0.9,0.9,0.5c0,0,1.3,0.3,1.9-0.8c0,0,0.2,0.6-0.5,1.1c0,0,0.6,0.1,1.3-0.6c0,0-0.4,1,1.5,0.6
				c0,0-0.6-0.1-0.6-0.8c0,0,0.1-0.6,0.6,0c0,0,0.6,0.7,1.2,0.5c0,0-0.2-0.1-0.2-0.6c0,0,0-0.3,0.5-0.3c0,0,0.4,0,0.3,0.4
				c0,0,0,0.4-0.4,0.6c0,0,0.8,0.4,1-0.5c0,0,0-0.4,0.5-0.4c0,0,0.5,0.1,0,0.7c0,0,0.4,0,0.5-0.9c0,0,0.1-0.6,0.4-0.1l0,0.1
				c0.1,0.3-0.3,0.4-0.3,0.4c0.4,0,0.5-0.3,0.5-0.3c0.3-0.2,0-0.7,0-0.7c0.4,0.3,0.1,0.7,0.1,0.7c0.6,1.6,2.6,3.3,2.6,3.3
				c1.8,1.3,2,2.7,2,2.7c0.2,1.3-0.4,2-0.4,2c0.4-0.6,0.2-1.5,0.2-1.5c-0.7-0.2-1.9-1.3-1.9-1.3l0.1,0.3c-0.7-0.4-1.7-0.2-1.7-0.2
				c-0.6,0.1-1.4-0.1-1.4-0.1c0.9,0.4-0.4,0.6-0.4,0.6c-0.8,0.1-1.7-0.3-1.7-0.3c0.2,0.5,1.1,0.5,1.1,0.5c-1,0.3-1.1,0.8-1.1,0.8
				c-0.5,0.8-1.2,0.8-1.2,0.8c-0.7,0-0.6-0.8-0.6-0.8c-0.2,0.2-0.2,0.5-0.2,0.5c-0.2,0-0.4-0.4-0.4-0.4c0,0.9,1.3,1.4,1.3,1.4
				c-0.1,1-1.2,1-1.2,1c1.3,0.5,2-0.1,2-0.1c-0.1,0.6-0.8,1.1-0.8,1.1c0.5,0,0.8-0.5,0.8-0.5c0,1-0.5,1.3-0.5,1.3
				c0.3,0,0.6-0.4,0.6-0.4c-0.2,0.6-0.4,0.7-0.4,0.7c0.3,0.1,0.5-0.1,0.5-0.1c0,0.5-0.3,0.6-0.3,0.6c0.5,0,0.9-0.4,0.9-0.4
				c0.3,0.1,0.2,0.5,0.2,0.5c-0.2,1-1.6,0.9-1.6,0.9c-1.5,0.1-2,1.1-2,1.1c-0.7,0.8-0.4,1.3-0.4,1.3c0.3-0.7,1.2-1.1,1.2-1.1
				c-0.6,0.3-0.8,0.9-0.8,0.9c-0.3,0.8,0.2,1,0.2,1c0-0.4,0.2-0.6,0.2-0.6c0.3,0.1,0.4-0.1,0.4-0.1c0.2-0.9,0.8-0.8,0.8-0.8
				c-0.6,0.2-0.7,0.9-0.7,0.9c-0.1,1.2,0.7,1.2,0.7,1.2c-0.4-0.3-0.2-0.6-0.2-0.6c1-0.1,1.2-0.8,1.2-0.8c0-0.3,0.6-0.4,0.6-0.4
				c-0.4,0.3,0,0.8,0,0.8c-0.1,0.5-0.8,0.5-0.8,0.5c0.8,0.4,1.3-0.2,1.3-0.2c1-0.1,1.2-1.3,1.2-1.3c0.1-0.6,0.7-0.9,0.7-0.9
				c-0.4,1.2,0.4,1.6,0.4,1.6c-0.1-0.8,0.4-1,0.4-1c0.8-0.2,0.7-0.9,0.7-0.9c0.2,0.5,0.6,0.3,0.6,0.3c-0.2-0.2-0.1-0.5-0.1-0.5
				c0-1.1-0.8-1.3-0.8-1.3c-0.5-0.1-0.7-0.6-0.7-0.6c0.9,0.7,1.4,0.4,1.4,0.4c-0.4,0-0.3-0.2-0.3-0.2c0.1-0.5-0.1-1-0.1-1
				c-0.5-0.4-0.3-0.7-0.3-0.7c0.8-0.1,0.6,0.8,0.6,0.8c0.9-0.1,0.7-1,0.7-1c0.4,0.5,0.7,0.2,0.7,0.2c0.2-0.4,0.5-0.7,0.5-0.7
				c-0.7,0.9-1,2.4-1,2.4c0.6-0.5-0.2,1.2-0.2,1.2c0.8-0.4,0,1.1,0,1.1c0.5-0.3,0.3,0.3,0.3,0.3l-0.4,0.6c0.2-0.2,0.4-0.1,0.4-0.1
				c-0.2,1-1.2,1-1.2,1c0.5,0.2,0.9,0,0.9,0c0,0.3-0.5,0.8-0.5,0.8c0.5-0.2,0.9-0.8,0.9-0.8c0.5-0.2,1.2-1.2,1.2-1.2
				c0,0.3,0.2,0.4,0.2,0.4l0.1,0.2h0.2l0,0.6c0-0.2,0.3-0.1,0.3-0.1l0,0.5c0.2-0.4,0.5-0.2,0.5-0.2l0,0.5l0.3-0.1l0.1,0.6l0.2-0.1
				l0,0.5l0.2,0c-0.1,1.7-0.9,2.1-0.9,2.1c-2.3,1.1-2.1,1.8-2.1,1.8c-0.7,0.7-0.1,1.3-0.1,1.3c0-0.5,0.5-0.9,0.5-0.9l0,0
				c0.1-0.2,0.6-0.4,0.6-0.4c-0.6,0.4-0.6,0.8-0.6,0.8c0,0.2,0.1,0.3,0.1,0.3c-0.5,0.7,0.4,1.1,0.4,1.1c-0.2-0.4,0-0.8,0-0.8
				c0.2,0,0.3,0,0.3,0V75c0-0.8,0.5-1,0.5-1c-0.6,0.5-0.4,1-0.4,1s0.2,1.3,1.3,1c0,0-0.5-0.1-0.6-0.5l0,0c0.6-0.2,0.9-1.1,0.9-1.1
				c0.9,0,0.8-0.7,0.8-0.7c0-0.5,0.6-0.7,0.6-0.7c-0.3,0.8,0,0.9,0,0.9c0,0.7-0.4,0.8-0.4,0.8c0.8,0,0.9-0.8,0.9-0.8
				c0.9-0.4,0.5-1.6,0.5-1.6c0.7-0.1,0.6,0.7,0.6,0.7c0.9-0.6,0.7-1.4,0.7-1.4c-0.5-0.6,0-0.7,0-0.7c0.8,0,0.4,1,0.4,1
				c0.7-0.2,0.7-1.1,0.7-1.1c1-0.3,0.9-1.4,0.9-1.4s-0.5,0.9-1.2,0.1c0,0-0.3-0.4,0.7-0.5c0,0,0-0.7-1.3-0.7c0,0-0.7,0-0.6-0.6
				c0,0,0-0.5,0.8,0.2c0,0,0.1-1-1-1c0,0-0.3,0.1-0.3-0.2c0,0,0.7-0.2,0.8-1.2c0,0-1.4,1.1-1.6-0.4c0,0-0.1-0.5,0.4-0.5
				c0,0,0.4-0.1,0.4,0.6c0,0,0.7-0.7,0.1-1.1c0,0,0.7-0.3,0.5-1c0,0-0.6,1.1-1,0.2c0,0-0.2-0.2,0.2-0.5c0,0,0.5-0.5,0.6-1.2
				c0,0,0.1,0,0.1,0.5c0,0,0.9,1.1,2.9,0.7c0,0,2-0.4,2.7-2c0,0,1,0.2,1.7-0.3c0,0-0.4-0.2,0.1-0.5c0,0,0.5-0.2,0.7-0.6
				c0,0-0.5,0.4-0.5,0c0,0,0.3-1.5-0.7-1.8c0,0-0.4-1.4-1.8-1.3c0,0,0.2-0.1,0.4-0.2c0,0-1.5-2-0.6-3.3c0,0-0.8-0.3-0.7-1
				c0,0,0-0.9,1-0.9c0,0,0.7,0,0.7,0.8c0,0,0,0.5-0.5,0.8c0,0,0.8,0,1-1.2c0,0,0.2-1.5-1.6-1.5c0,0-1.6,0-2.1,1.7l0-0.8
				c0,0-0.6-1.6-0.7-3c0,0-0.7-4.8,3.7-4.5c0,0-0.3,1.4-1,1.8c0,0-0.7,0.2-0.6-0.9c0,0-0.9,1.2,0.6,1.4c0,0,0.7,0.2,1.4-0.7
				c0,0,0.5,0.5,0.4,1.3c0,0-0.2,0.7-0.8,0.7c0,0-0.4-0.1-0.2-0.9c0,0-0.6,0.2-0.6,1c0,0-0.1,0.8,1.3,0.7c0,0-0.7,2.2,1.3,2.3
				c0,0-1-0.4-0.3-1.6v0c0,0,0.8-0.4,0.7-1.5c0,0,0.7,0.2,0.7,0.9c0,0-0.1,0.7-1,0.7c0,0,1.3,1.2,2.2-1.1c0,0,0.3-0.8-0.3-1.2
				c0,0,0.5,0,0.7-0.4c0,0,0.6,0.1,0.6,0.7c0,0-0.1,0.6-0.5,0.7c0,0,0.9,0.1,0.7-1.5C65.5,45.5,65.4,45,64.9,44.9z M46.8,42.1
				c0.1-0.1,0.2-0.4,0.6-0.1c0,0,0-0.7,0.5-0.7c0,0,0.2,0,0.3,0.6C48.2,42,47.5,42.1,46.8,42.1z M48.9,40.1l0.1-0.5
				c0.4-0.1,0.7,0.4,0.7,0.4C49.4,40.2,48.9,40.1,48.9,40.1z M50.8,41.4c1.3,0.3,2.1-0.8,2.1-0.8c-0.6,0-1.1-0.3-1.1-0.3
				c-0.6-0.6-1.3,0.3-1.3,0.3c0.6-1,1.4-0.4,1.4-0.4c0.4,0.3,1.2,0.3,1.2,0.3C52.1,42.1,50.8,41.4,50.8,41.4z"/>
		</g>
	</g>
	<g id="XMLID_4716_">
		<polygon id="XMLID_4724_" points="149.3,57.9 152.3,56.2 149.3,54.4 152,52.3 148.8,51 151.3,48.6 147.9,47.7 150.1,44.9 
			146.6,44.5 148.4,41.5 144.9,41.5 146.2,38.3 142.8,38.8 143.7,35.4 140.4,36.3 140.8,32.9 137.6,34.2 137.6,30.8 134.6,32.5 
			134.2,29.1 131.4,31.2 130.6,27.8 128.1,30.3 126.8,27.1 124.7,29.8 123,26.8 121.2,29.8 119.1,27.1 117.8,30.3 115.4,27.8 
			114.5,31.2 111.7,29.1 111.3,32.5 108.3,30.8 108.3,34.2 105.1,32.9 105.6,36.3 102.2,35.4 103.1,38.8 99.7,38.3 101,41.5 
			97.6,41.5 99.3,44.5 95.9,44.9 98,47.7 94.6,48.6 97.1,51 93.9,52.3 96.6,54.4 93.7,56.2 96.6,57.9 93.9,60 97.1,61.3 94.6,63.7 
			98,64.6 95.9,67.4 99.3,67.8 97.6,70.8 101,70.8 99.7,74 103.1,73.6 102.2,76.9 105.6,76 105.1,79.4 108.3,78.1 108.3,81.5 
			111.3,79.8 111.7,83.2 114.5,81.1 115.4,84.5 117.8,82 119.1,85.2 121.2,82.5 123,85.5 124.7,82.5 126.8,85.2 128.1,82 
			130.6,84.5 131.4,81.1 134.2,83.2 134.6,79.8 137.6,81.5 137.6,78.1 140.8,79.4 140.4,76 143.7,76.9 142.8,73.6 146.2,74 
			144.9,70.8 148.4,70.8 146.6,67.8 150.1,67.4 147.9,64.6 151.3,63.7 148.8,61.3 152,60 		"/>
		<radialGradient id="XMLID_3_" cx="122.9664" cy="56.1539" r="25.1756" gradientUnits="userSpaceOnUse">
			<stop  offset="0" style="stop-color:#F7A516"/>
			<stop  offset="1" style="stop-color:#F0E400"/>
		</radialGradient>
		<circle id="XMLID_4723_" class="st3" cx="123" cy="56.2" r="25.2"/>
		<g id="XMLID_4717_">
			<path id="XMLID_4718_" class="st2" d="M137.9,44.9c0,0,1.4-0.6,0.6-2.1c0,0,0.3,1.4-0.8,1.4c0,0-0.8,0-0.9-0.5c0,0,1.2,0,0.8-1.3
				c0,0,0.2,0.8-0.9,0.8c0,0-0.6,0-1-0.5c0,0,1.6-0.3,0.6-1.8c0,0,0.1,1-0.7,1.1c0,0-0.9-0.2-1.3,0.5c0,0-1.8-1.6-3.9,0
				c0,0-2.1,1.6-2,4.3c0,0,0,1.2,0.4,2.4c0,0,0.4,1.7,1,2.2l0.4,0.2c0,0-2.4-0.6-2.6,1.2c0,0-0.1,0.7,0.4,1.3c0,0-0.2-0.9,0.5-1.1
				c0,0,0.7-0.2,0.8,0.2c0,0-0.9,0.6-0.2,1.6c0,0-0.3-1.3,1.2-0.9c0,0-1,0.7-0.1,1.5c0,0-0.2-1.1,0.5-1.2c0,0,0.2,0.4,0.9,0.1
				l0.7,1.5c0,0-1.3,0.1-1.3,1.6c0,0,0.3-0.5,0.8-0.4c0,0-0.2,0.9-1.8,0.8c0,0-0.9-0.1-0.5-1.6c0,0-0.7,0.4-0.6,1.8c0,0-0.2,1,1.3,1
				c0,0,0.7,0,1.2-0.1c0,0,1.1,0.1,0.9,1.2c0,0-0.3,1.2-2.2,1.2c0,0-2.1,0.2-2.2-1.3c0,0-0.1-1-0.6-1.7c0,0-1.2-2.4-1.8-5.5
				c0,0-0.7,0.4-1.1-0.3c0,0,1.4,0.7,1.7-0.8c0,0,0.2-1-0.5-1.2l0-0.5c0,0-0.6-0.4-0.7-1.5c0,0,0.2,1.5,1.7,1.5c0,0,0.7-0.1,0.8-0.7
				c0,0-1,0.6-1.2-0.3c0,0-0.1-0.4,0-0.8c0,0,0.2-0.6-0.2-1.1c0,0-0.5-0.3-0.3-1.4c0,0,0.2,2.1,1.7,2c0,0-0.3-0.1-0.3-0.7l0-0.9
				c0,0-0.3,0-0.4-0.2c0,0,1.1,0.2,1.3-0.5c0,0,0.4-0.8-0.6-1.4c0,0,0.3,0.1,0.7-0.1c0,0-0.8-0.6-0.8-1.6c0,0,0.4,0.2,1.1-0.2
				c0,0-1,0.1-1.2-1c0,0,0.6,0.1,0.9-0.1c0,0-0.5-0.3-0.6-0.6c0,0,0-0.4-0.7-0.4c0,0,0.6-0.5,0.1-1.1c0,0,0,0.6-0.7,0.7
				c0,0,0.5-0.9-0.2-1.4c0,0,0.5,1-0.6,1.2c0,0,0.5-1.1-0.5-1.5c0,0,0.5,0.7-0.1,1.1c0,0-2-0.2-2.4-0.1l-0.7,0.7c0,0-1.8,0-2,0.4
				c0,0,0.1,1.3,0.4,1.8c-0.2,0-0.5,0-0.7,0c0,0-1.4-0.2-0.7-0.9l0.1-0.1c0,0-1.2-0.9-1.6,0.2c0,0-0.3,1.2,1.1,1.3c0,0,0,0,0,0
				c1.4,0.1,2-0.4,2-0.4s0.5-0.2,1.2,0c0,0,0.3,0.6-0.2,0.6c0,0-0.3,0.1-0.3-0.4c0,0-0.1-0.1-0.3,0.2c0,0-0.4,0.3-0.4-0.2
				c0,0-0.6,0.1-0.5,1.4c0,0,2.3-0.9,2.4,0.7c0,0-0.3-0.7-1-0.6c0,0-0.1,0.8-0.9,0.7c0,0-1.8-0.7-2.4,0.5c0,0-0.4,0.5-0.5,1.2
				c0,0,0,0.4-0.5,0.4c0,0-0.3,0-0.4-0.4c0,0-0.2,0.3,0.3,0.9c0,0-0.8-0.4-0.2-1.2c0,0-0.1,0.6,0.3,0.7c0,0,0.3,0,0.3-0.3
				c0,0,0.1-0.8,0.6-1.3l0-0.2l-0.1-0.1l-0.2,0l-0.1-0.5l-0.2,0.2l-0.3-0.4l-0.1,0l-0.1-0.3l-0.1,0l-0.1-0.1l-0.1-0.1l0-0.1
				l-0.1-0.3l-0.2,0v-0.3l-0.1,0l-0.1-0.1v-0.5l-0.2,0.2L115,42v-0.4l-0.2,0.1l-0.3-0.4c0,0,0.5-3.2-0.3-4.2c0,0,0.1-0.8-0.7-0.8
				c0,0,0.3,0.2,0.3,0.6c0,0-0.5-0.2-0.6,0c0,0,0.4,0.3,0.2,1c0,0,0-0.6-0.4-1.1c0,0,0-0.9-0.9-0.5c0,0,0.5,0,0.5,0.4c0,0,0,0,0,0
				c0,0-0.3,0.3-0.4,0.5c0,0,0.4,0.3,0.3,0.8c0,0-0.2-0.7-0.8-0.9c0,0-0.6-0.4-0.9,0.2c0,0,0.7-0.2,0.7,0.2c0,0-0.6,0.8,0.9,1.7
				c0,0-0.2,0.2-0.2,0.9c0,0-0.1-0.2-0.5,0c0,0-0.1-0.4,0.2-0.7c0,0-0.9,0-0.5,1.2c0,0-0.2,1,0.9,1.5c0,0-1.2-0.2-1.2,0.6
				c0,0,0.5-0.5,1,0.1c0,0,0.2,0.3,0.7,0.3c0,0-1.1,0.9,0.1,1.5c0,0,0-0.8,0.9-0.6c0,0-0.3,0.6,0.3,1.2c0,0-0.4,0.4,0.2,1.1
				c0,0,0-0.5,0.2-0.5c0,0,0.3,0,0.3,0.6c0,0-1.2,1.7-1.3,0.3c0,0-0.6,0.9,0.5,1c0,0,0.3,0,0.9-0.5c0,0,0.4-0.3,0.5,0.1c0,0,0,0,0,0
				c0,0.5-0.2,0.4-0.7,0.4c0,0,0,0.9,1.5,0.5c0,0,0.3,0.2-0.4,0.2c0,0-0.8,0-0.8,0.8c0,0,0.4-0.6,0.7-0.2c0,0,0.2,0.4-0.6,0.6
				c0,0-0.7,0.2-1-0.6c0,0-0.3,0.8,0.8,0.9c0,0,0,0.2-1.1,0.2l0.3,0.2l-0.6-0.1c0,0-0.2-0.1,0,0.2c0,0-0.2-0.2-0.5,0
				c0,0,0.5,0.2-0.2,0.3c0,0-2.6-0.4-3.1-1c0,0-0.6-0.4-1.4-0.1c0,0-0.9-0.5-0.9,0.5c0,0,0.1-0.2,0.6-0.2c0,0-0.1,0.3,0.2,0.3
				c0,0,0.4,0,0.6,0.1c0,0-0.6-0.1-1.1,0.1c0,0-0.6-0.1-0.5,1c0,0,0-0.4,0.5-0.5c0,0,0.3,0.2,0,0.5c0,0-0.7,0.7,0.2,1.2
				c0,0-0.2-0.6,0.1-0.7c0,0,0.3,0.5,1,0c0,0,0.7,0.1,0.9-0.1c0,0,0.4-0.3,0.5,0.1c0,0,0,0,0,0.1c0,0-0.6-0.1-0.6,0.2
				c0,0-0.3,0.7-0.8,0.1c0,0,0,0.9,0.9,0.5c0,0,1.3,0.3,1.9-0.8c0,0,0.2,0.6-0.5,1.1c0,0,0.6,0.1,1.3-0.6c0,0-0.4,1,1.5,0.6
				c0,0-0.6-0.1-0.6-0.8c0,0,0.1-0.6,0.6,0c0,0,0.6,0.7,1.2,0.5c0,0-0.2-0.1-0.2-0.6c0,0,0-0.3,0.5-0.3c0,0,0.4,0,0.3,0.4
				c0,0,0,0.4-0.4,0.6c0,0,0.8,0.4,1-0.5c0,0,0-0.4,0.5-0.4c0,0,0.5,0.1,0,0.7c0,0,0.4,0,0.5-0.9c0,0,0.1-0.6,0.4-0.1l0,0.1
				c0.1,0.3-0.3,0.4-0.3,0.4c0.4,0,0.5-0.3,0.5-0.3c0.3-0.2,0-0.7,0-0.7c0.4,0.3,0.1,0.7,0.1,0.7c0.6,1.6,2.6,3.3,2.6,3.3
				c1.8,1.3,2,2.7,2,2.7c0.2,1.3-0.4,2-0.4,2c0.4-0.6,0.2-1.5,0.2-1.5c-0.7-0.2-1.9-1.3-1.9-1.3l0.1,0.3c-0.7-0.4-1.7-0.2-1.7-0.2
				c-0.6,0.1-1.4-0.1-1.4-0.1c0.9,0.4-0.4,0.6-0.4,0.6c-0.8,0.1-1.7-0.3-1.7-0.3c0.2,0.5,1.1,0.5,1.1,0.5c-1,0.3-1.1,0.8-1.1,0.8
				c-0.5,0.8-1.2,0.8-1.2,0.8c-0.7,0-0.6-0.8-0.6-0.8c-0.2,0.2-0.2,0.5-0.2,0.5c-0.2,0-0.4-0.4-0.4-0.4c0,0.9,1.3,1.4,1.3,1.4
				c-0.1,1-1.2,1-1.2,1c1.3,0.5,2-0.1,2-0.1c-0.1,0.6-0.8,1.1-0.8,1.1c0.5,0,0.8-0.5,0.8-0.5c0,1-0.5,1.3-0.5,1.3
				c0.3,0,0.6-0.4,0.6-0.4c-0.2,0.6-0.4,0.7-0.4,0.7c0.3,0.1,0.5-0.1,0.5-0.1c0,0.5-0.3,0.6-0.3,0.6c0.5,0,0.9-0.4,0.9-0.4
				c0.3,0.1,0.2,0.5,0.2,0.5c-0.2,1-1.6,0.9-1.6,0.9c-1.5,0.1-2,1.1-2,1.1c-0.7,0.8-0.4,1.3-0.4,1.3c0.3-0.7,1.2-1.1,1.2-1.1
				c-0.6,0.3-0.8,0.9-0.8,0.9c-0.3,0.8,0.2,1,0.2,1c0-0.4,0.2-0.6,0.2-0.6c0.3,0.1,0.4-0.1,0.4-0.1c0.2-0.9,0.8-0.8,0.8-0.8
				c-0.6,0.2-0.7,0.9-0.7,0.9c-0.1,1.2,0.7,1.2,0.7,1.2c-0.4-0.3-0.2-0.6-0.2-0.6c1-0.1,1.2-0.8,1.2-0.8c0-0.3,0.6-0.4,0.6-0.4
				c-0.4,0.3,0,0.8,0,0.8c-0.1,0.5-0.8,0.5-0.8,0.5c0.8,0.4,1.3-0.2,1.3-0.2c1-0.1,1.2-1.3,1.2-1.3c0.1-0.6,0.7-0.9,0.7-0.9
				c-0.4,1.2,0.4,1.6,0.4,1.6c-0.1-0.8,0.4-1,0.4-1c0.8-0.2,0.7-0.9,0.7-0.9c0.2,0.5,0.6,0.3,0.6,0.3c-0.2-0.2-0.1-0.5-0.1-0.5
				c0-1.1-0.8-1.3-0.8-1.3c-0.5-0.1-0.7-0.6-0.7-0.6c0.9,0.7,1.4,0.4,1.4,0.4c-0.4,0-0.3-0.2-0.3-0.2c0.1-0.5-0.1-1-0.1-1
				c-0.5-0.4-0.3-0.7-0.3-0.7c0.8-0.1,0.6,0.8,0.6,0.8c0.9-0.1,0.7-1,0.7-1c0.4,0.5,0.7,0.2,0.7,0.2c0.2-0.4,0.5-0.7,0.5-0.7
				c-0.7,0.9-1,2.4-1,2.4c0.6-0.5-0.2,1.2-0.2,1.2c0.8-0.4,0,1.1,0,1.1c0.5-0.3,0.3,0.3,0.3,0.3l-0.4,0.6c0.2-0.2,0.4-0.1,0.4-0.1
				c-0.2,1-1.2,1-1.2,1c0.5,0.2,0.9,0,0.9,0c0,0.3-0.5,0.8-0.5,0.8c0.5-0.2,0.9-0.8,0.9-0.8c0.5-0.2,1.2-1.2,1.2-1.2
				c0,0.3,0.2,0.4,0.2,0.4l0.1,0.2h0.2l0,0.6c0-0.2,0.3-0.1,0.3-0.1l0,0.5c0.2-0.4,0.5-0.2,0.5-0.2l0,0.5l0.3-0.1l0.1,0.6l0.2-0.1
				l0,0.5l0.2,0c-0.1,1.7-0.9,2.1-0.9,2.1c-2.3,1.1-2.1,1.8-2.1,1.8c-0.7,0.7-0.1,1.3-0.1,1.3c0-0.5,0.5-0.9,0.5-0.9l0,0
				c0.1-0.2,0.6-0.4,0.6-0.4c-0.6,0.4-0.6,0.8-0.6,0.8c0,0.2,0.1,0.3,0.1,0.3c-0.5,0.7,0.4,1.1,0.4,1.1c-0.2-0.4,0-0.8,0-0.8
				c0.2,0,0.3,0,0.3,0V75c0-0.8,0.5-1,0.5-1c-0.6,0.5-0.4,1-0.4,1s0.2,1.3,1.3,1c0,0-0.5-0.1-0.6-0.5l0,0c0.6-0.2,0.9-1.1,0.9-1.1
				c0.9,0,0.8-0.7,0.8-0.7c0-0.5,0.6-0.7,0.6-0.7c-0.3,0.8,0,0.9,0,0.9c0,0.7-0.4,0.8-0.4,0.8c0.8,0,0.9-0.8,0.9-0.8
				c0.9-0.4,0.5-1.6,0.5-1.6c0.7-0.1,0.6,0.7,0.6,0.7c0.9-0.6,0.7-1.4,0.7-1.4c-0.5-0.6,0-0.7,0-0.7c0.8,0,0.4,1,0.4,1
				c0.7-0.2,0.7-1.1,0.7-1.1c1-0.3,0.9-1.4,0.9-1.4s-0.5,0.9-1.2,0.1c0,0-0.3-0.4,0.7-0.5c0,0,0-0.7-1.3-0.7c0,0-0.7,0-0.6-0.6
				c0,0,0-0.5,0.8,0.2c0,0,0.1-1-1-1c0,0-0.3,0.1-0.3-0.2c0,0,0.7-0.2,0.8-1.2c0,0-1.4,1.1-1.6-0.4c0,0-0.1-0.5,0.4-0.5
				c0,0,0.4-0.1,0.4,0.6c0,0,0.7-0.7,0.1-1.1c0,0,0.7-0.3,0.5-1c0,0-0.6,1.1-1,0.2c0,0-0.2-0.2,0.2-0.5c0,0,0.5-0.5,0.6-1.2
				c0,0,0.1,0,0.1,0.5c0,0,0.9,1.1,2.9,0.7c0,0,2-0.4,2.7-2c0,0,1,0.2,1.7-0.3c0,0-0.4-0.2,0.1-0.5c0,0,0.5-0.2,0.7-0.6
				c0,0-0.5,0.4-0.5,0c0,0,0.3-1.5-0.7-1.8c0,0-0.4-1.4-1.8-1.3c0,0,0.2-0.1,0.4-0.2c0,0-1.5-2-0.6-3.3c0,0-0.8-0.3-0.7-1
				c0,0,0-0.9,1-0.9c0,0,0.7,0,0.7,0.8c0,0,0,0.5-0.5,0.8c0,0,0.8,0,1-1.2c0,0,0.2-1.5-1.6-1.5c0,0-1.6,0-2.1,1.7l0-0.8
				c0,0-0.6-1.6-0.7-3c0,0-0.7-4.8,3.7-4.5c0,0-0.3,1.4-1,1.8c0,0-0.7,0.2-0.6-0.9c0,0-0.9,1.2,0.6,1.4c0,0,0.7,0.2,1.4-0.7
				c0,0,0.5,0.5,0.4,1.3c0,0-0.2,0.7-0.8,0.7c0,0-0.4-0.1-0.2-0.9c0,0-0.6,0.2-0.6,1c0,0-0.1,0.8,1.3,0.7c0,0-0.7,2.2,1.3,2.3
				c0,0-1-0.4-0.3-1.6v0c0,0,0.8-0.4,0.7-1.5c0,0,0.7,0.2,0.7,0.9c0,0-0.1,0.7-1,0.7c0,0,1.3,1.2,2.2-1.1c0,0,0.3-0.8-0.3-1.2
				c0,0,0.5,0,0.7-0.4c0,0,0.6,0.1,0.6,0.7c0,0-0.1,0.6-0.5,0.7c0,0,0.9,0.1,0.7-1.5C138.5,45.5,138.5,45,137.9,44.9z M119.8,42.1
				c0.1-0.1,0.2-0.4,0.6-0.1c0,0,0-0.7,0.5-0.7c0,0,0.2,0,0.3,0.6C121.2,42,120.5,42.1,119.8,42.1z M121.9,40.1l0.1-0.5
				c0.4-0.1,0.7,0.4,0.7,0.4C122.4,40.2,121.9,40.1,121.9,40.1z M123.8,41.4c1.3,0.3,2.1-0.8,2.1-0.8c-0.6,0-1.1-0.3-1.1-0.3
				c-0.6-0.6-1.3,0.3-1.3,0.3c0.6-1,1.4-0.4,1.4-0.4c0.4,0.3,1.2,0.3,1.2,0.3C125.1,42.1,123.8,41.4,123.8,41.4z"/>
		</g>
	</g>
	<g id="XMLID_4707_">
		<polygon id="XMLID_4715_" points="76.3,136.4 79.3,134.6 76.3,132.9 79,130.8 75.8,129.5 78.3,127.1 74.9,126.2 77,123.4 
			73.6,123 75.3,120 71.9,120 73.2,116.8 69.8,117.2 70.7,113.9 67.3,114.8 67.8,111.4 64.6,112.7 64.6,109.3 61.6,111 61.2,107.6 
			58.4,109.7 57.5,106.3 55.1,108.8 53.8,105.6 51.7,108.3 49.9,105.3 48.2,108.3 46.1,105.6 44.8,108.8 42.4,106.3 41.5,109.7 
			38.7,107.6 38.3,111 35.3,109.3 35.3,112.7 32.1,111.4 32.6,114.8 29.2,113.9 30.1,117.2 26.7,116.8 28,120 24.6,120 26.3,123 
			22.9,123.4 25,126.2 21.6,127.1 24.1,129.5 20.9,130.8 23.6,132.9 20.6,134.6 23.6,136.4 20.9,138.5 24.1,139.8 21.6,142.2 
			25,143.1 22.9,145.9 26.3,146.3 24.6,149.3 28,149.3 26.7,152.5 30.1,152 29.2,155.4 32.6,154.5 32.1,157.9 35.3,156.6 35.3,160 
			38.3,158.3 38.7,161.7 41.5,159.6 42.4,163 44.8,160.5 46.1,163.7 48.2,161 49.9,164 51.7,161 53.8,163.7 55.1,160.5 57.5,163 
			58.4,159.6 61.2,161.7 61.6,158.3 64.6,160 64.6,156.6 67.8,157.9 67.3,154.5 70.7,155.4 69.8,152 73.2,152.5 71.9,149.3 
			75.3,149.3 73.6,146.3 77,145.9 74.9,143.1 78.3,142.2 75.8,139.8 79,138.5 		"/>
		<radialGradient id="XMLID_4_" cx="49.9468" cy="134.6458" r="25.1756" gradientUnits="userSpaceOnUse">
			<stop  offset="0" style="stop-color:#F7A516"/>
			<stop  offset="1" style="stop-color:#F0E400"/>
		</radialGradient>
		<circle id="XMLID_4714_" class="st4" cx="49.9" cy="134.6" r="25.2"/>
		<g id="XMLID_4708_">
			<path id="XMLID_4709_" class="st2" d="M64.9,123.4c0,0,1.4-0.6,0.6-2.1c0,0,0.3,1.4-0.8,1.4c0,0-0.8,0-0.9-0.5c0,0,1.2,0,0.8-1.3
				c0,0,0.2,0.8-0.9,0.8c0,0-0.6,0-1-0.5c0,0,1.6-0.3,0.6-1.8c0,0,0.1,1-0.7,1.1c0,0-0.9-0.2-1.3,0.5c0,0-1.8-1.6-3.9,0
				c0,0-2.1,1.6-2,4.3c0,0,0,1.2,0.4,2.4c0,0,0.4,1.7,1,2.2l0.4,0.2c0,0-2.4-0.6-2.6,1.2c0,0-0.1,0.7,0.4,1.3c0,0-0.2-0.9,0.5-1.1
				c0,0,0.7-0.2,0.8,0.2c0,0-0.9,0.6-0.2,1.6c0,0-0.3-1.3,1.2-0.9c0,0-1,0.7-0.1,1.5c0,0-0.2-1.1,0.5-1.2c0,0,0.2,0.4,0.9,0.1
				l0.7,1.5c0,0-1.3,0.1-1.3,1.6c0,0,0.3-0.5,0.8-0.4c0,0-0.2,0.9-1.8,0.8c0,0-0.9-0.1-0.5-1.6c0,0-0.7,0.4-0.6,1.8c0,0-0.2,1,1.3,1
				c0,0,0.7,0,1.2-0.1c0,0,1.1,0.1,0.9,1.2c0,0-0.3,1.2-2.2,1.2c0,0-2.1,0.2-2.2-1.3c0,0-0.1-1-0.6-1.7c0,0-1.2-2.4-1.8-5.5
				c0,0-0.7,0.4-1.1-0.3c0,0,1.4,0.7,1.7-0.8c0,0,0.2-1-0.5-1.2l0-0.5c0,0-0.6-0.4-0.7-1.5c0,0,0.2,1.5,1.7,1.5c0,0,0.7-0.1,0.8-0.7
				c0,0-1,0.6-1.2-0.3c0,0-0.1-0.4,0-0.8c0,0,0.2-0.6-0.2-1.1c0,0-0.5-0.3-0.3-1.4c0,0,0.2,2.1,1.7,2c0,0-0.3-0.1-0.3-0.7l0-0.9
				c0,0-0.3,0-0.4-0.2c0,0,1.1,0.2,1.3-0.5c0,0,0.4-0.8-0.6-1.4c0,0,0.3,0.1,0.7-0.1c0,0-0.8-0.6-0.8-1.6c0,0,0.4,0.2,1.1-0.2
				c0,0-1,0.1-1.2-1c0,0,0.6,0.1,0.9-0.1c0,0-0.5-0.3-0.6-0.6c0,0,0-0.4-0.7-0.4c0,0,0.6-0.5,0.1-1.1c0,0,0,0.6-0.7,0.7
				c0,0,0.5-0.9-0.2-1.4c0,0,0.5,1-0.6,1.2c0,0,0.5-1.1-0.5-1.5c0,0,0.5,0.7-0.1,1.1c0,0-2-0.2-2.4-0.1l-0.7,0.7c0,0-1.8,0-2,0.4
				c0,0,0.1,1.3,0.4,1.8c-0.2,0-0.5,0-0.7,0c0,0-1.4-0.2-0.7-0.9l0.1-0.1c0,0-1.2-0.9-1.6,0.2c0,0-0.3,1.2,1.1,1.3c0,0,0,0,0,0
				c1.4,0.1,2-0.4,2-0.4s0.5-0.2,1.2,0c0,0,0.3,0.6-0.2,0.6c0,0-0.3,0.1-0.3-0.4c0,0-0.1-0.1-0.3,0.2c0,0-0.4,0.3-0.4-0.2
				c0,0-0.6,0.1-0.5,1.4c0,0,2.3-0.9,2.4,0.7c0,0-0.3-0.7-1-0.6c0,0-0.1,0.8-0.9,0.7c0,0-1.8-0.7-2.4,0.5c0,0-0.4,0.5-0.5,1.2
				c0,0,0,0.4-0.5,0.4c0,0-0.3,0-0.4-0.4c0,0-0.2,0.3,0.3,0.9c0,0-0.8-0.4-0.2-1.2c0,0-0.1,0.6,0.3,0.7c0,0,0.3,0,0.3-0.3
				c0,0,0.1-0.8,0.6-1.3l0-0.2l-0.1-0.1l-0.2,0l-0.1-0.5l-0.2,0.2l-0.3-0.4l-0.1,0l-0.1-0.3l-0.1,0l-0.1-0.1l-0.1-0.1l0-0.1
				l-0.1-0.3l-0.2,0v-0.3l-0.1,0l-0.1-0.1v-0.5l-0.2,0.2l-0.2-0.4v-0.4l-0.2,0.1l-0.3-0.4c0,0,0.5-3.2-0.3-4.2c0,0,0.1-0.8-0.7-0.8
				c0,0,0.3,0.2,0.3,0.6c0,0-0.5-0.2-0.6,0c0,0,0.4,0.3,0.2,1c0,0,0-0.6-0.4-1.1c0,0,0-0.9-0.9-0.5c0,0,0.5,0,0.5,0.4c0,0,0,0,0,0
				c0,0-0.3,0.3-0.4,0.5c0,0,0.4,0.3,0.3,0.8c0,0-0.2-0.7-0.8-0.9c0,0-0.6-0.4-0.9,0.2c0,0,0.7-0.2,0.7,0.2c0,0-0.6,0.8,0.9,1.7
				c0,0-0.2,0.2-0.2,0.9c0,0-0.1-0.2-0.5,0c0,0-0.1-0.4,0.2-0.7c0,0-0.9,0-0.5,1.2c0,0-0.2,1,0.9,1.5c0,0-1.2-0.2-1.2,0.6
				c0,0,0.5-0.5,1,0.1c0,0,0.2,0.3,0.7,0.3c0,0-1.1,0.9,0.1,1.5c0,0,0-0.8,0.9-0.6c0,0-0.3,0.6,0.3,1.2c0,0-0.4,0.4,0.2,1.1
				c0,0,0-0.5,0.2-0.5c0,0,0.3,0,0.3,0.6c0,0-1.2,1.7-1.3,0.3c0,0-0.6,0.9,0.5,1c0,0,0.3,0,0.9-0.5c0,0,0.4-0.3,0.5,0.1c0,0,0,0,0,0
				c0,0.5-0.2,0.4-0.7,0.4c0,0,0,0.9,1.5,0.5c0,0,0.3,0.2-0.4,0.2c0,0-0.8,0-0.8,0.8c0,0,0.4-0.6,0.7-0.2c0,0,0.2,0.4-0.6,0.6
				c0,0-0.7,0.2-1-0.6c0,0-0.3,0.8,0.8,0.9c0,0,0,0.2-1.1,0.2l0.3,0.2l-0.6-0.1c0,0-0.2-0.1,0,0.2c0,0-0.2-0.2-0.5,0
				c0,0,0.5,0.2-0.2,0.3c0,0-2.6-0.4-3.1-1c0,0-0.6-0.4-1.4-0.1c0,0-0.9-0.5-0.9,0.5c0,0,0.1-0.2,0.6-0.2c0,0-0.1,0.3,0.2,0.3
				c0,0,0.4,0,0.6,0.1c0,0-0.6-0.1-1.1,0.1c0,0-0.6-0.1-0.5,1c0,0,0-0.4,0.5-0.5c0,0,0.3,0.2,0,0.5c0,0-0.7,0.7,0.2,1.2
				c0,0-0.2-0.6,0.1-0.7c0,0,0.3,0.5,1,0c0,0,0.7,0.1,0.9-0.1c0,0,0.4-0.3,0.5,0.1c0,0,0,0,0,0.1c0,0-0.6-0.1-0.6,0.2
				c0,0-0.3,0.7-0.8,0.1c0,0,0,0.9,0.9,0.5c0,0,1.3,0.3,1.9-0.8c0,0,0.2,0.6-0.5,1.1c0,0,0.6,0.1,1.3-0.6c0,0-0.4,1,1.5,0.6
				c0,0-0.6-0.1-0.6-0.8c0,0,0.1-0.6,0.6,0c0,0,0.6,0.7,1.2,0.5c0,0-0.2-0.1-0.2-0.6c0,0,0-0.3,0.5-0.3c0,0,0.4,0,0.3,0.4
				c0,0,0,0.4-0.4,0.6c0,0,0.8,0.4,1-0.5c0,0,0-0.4,0.5-0.4c0,0,0.5,0.1,0,0.7c0,0,0.4,0,0.5-0.9c0,0,0.1-0.6,0.4-0.1l0,0.1
				c0.1,0.3-0.3,0.4-0.3,0.4c0.4,0,0.5-0.3,0.5-0.3c0.3-0.2,0-0.7,0-0.7c0.4,0.3,0.1,0.7,0.1,0.7c0.6,1.6,2.6,3.3,2.6,3.3
				c1.8,1.3,2,2.7,2,2.7c0.2,1.3-0.4,2-0.4,2c0.4-0.6,0.2-1.5,0.2-1.5c-0.7-0.2-1.9-1.3-1.9-1.3l0.1,0.3c-0.7-0.4-1.7-0.2-1.7-0.2
				c-0.6,0.1-1.4-0.1-1.4-0.1c0.9,0.4-0.4,0.6-0.4,0.6c-0.8,0.1-1.7-0.3-1.7-0.3c0.2,0.5,1.1,0.5,1.1,0.5c-1,0.3-1.1,0.8-1.1,0.8
				c-0.5,0.8-1.2,0.8-1.2,0.8c-0.7,0-0.6-0.8-0.6-0.8c-0.2,0.2-0.2,0.5-0.2,0.5c-0.2,0-0.4-0.4-0.4-0.4c0,0.9,1.3,1.4,1.3,1.4
				c-0.1,1-1.2,1-1.2,1c1.3,0.5,2-0.1,2-0.1c-0.1,0.6-0.8,1.1-0.8,1.1c0.5,0,0.8-0.5,0.8-0.5c0,1-0.5,1.3-0.5,1.3
				c0.3,0,0.6-0.4,0.6-0.4c-0.2,0.6-0.4,0.7-0.4,0.7c0.3,0.1,0.5-0.1,0.5-0.1c0,0.5-0.3,0.6-0.3,0.6c0.5,0,0.9-0.4,0.9-0.4
				c0.3,0.1,0.2,0.5,0.2,0.5c-0.2,1-1.6,0.9-1.6,0.9c-1.5,0.1-2,1.1-2,1.1c-0.7,0.8-0.4,1.3-0.4,1.3c0.3-0.7,1.2-1.1,1.2-1.1
				c-0.6,0.3-0.8,0.9-0.8,0.9c-0.3,0.8,0.2,1,0.2,1c0-0.4,0.2-0.6,0.2-0.6c0.3,0.1,0.4-0.1,0.4-0.1c0.2-0.9,0.8-0.8,0.8-0.8
				c-0.6,0.2-0.7,0.9-0.7,0.9c-0.1,1.2,0.7,1.2,0.7,1.2c-0.4-0.3-0.2-0.6-0.2-0.6c1-0.1,1.2-0.8,1.2-0.8c0-0.3,0.6-0.4,0.6-0.4
				c-0.4,0.3,0,0.8,0,0.8c-0.1,0.5-0.8,0.5-0.8,0.5c0.8,0.4,1.3-0.2,1.3-0.2c1-0.1,1.2-1.3,1.2-1.3c0.1-0.6,0.7-0.9,0.7-0.9
				c-0.4,1.2,0.4,1.6,0.4,1.6c-0.1-0.8,0.4-1,0.4-1c0.8-0.2,0.7-0.9,0.7-0.9c0.2,0.5,0.6,0.3,0.6,0.3c-0.2-0.2-0.1-0.5-0.1-0.5
				c0-1.1-0.8-1.3-0.8-1.3c-0.5-0.1-0.7-0.6-0.7-0.6c0.9,0.7,1.4,0.4,1.4,0.4c-0.4,0-0.3-0.2-0.3-0.2c0.1-0.5-0.1-1-0.1-1
				c-0.5-0.4-0.3-0.7-0.3-0.7c0.8-0.1,0.6,0.8,0.6,0.8c0.9-0.1,0.7-1,0.7-1c0.4,0.5,0.7,0.2,0.7,0.2c0.2-0.4,0.5-0.7,0.5-0.7
				c-0.7,0.9-1,2.4-1,2.4c0.6-0.5-0.2,1.2-0.2,1.2c0.8-0.4,0,1.1,0,1.1c0.5-0.3,0.3,0.3,0.3,0.3l-0.4,0.6c0.2-0.2,0.4-0.1,0.4-0.1
				c-0.2,1-1.2,1-1.2,1c0.5,0.2,0.9,0,0.9,0c0,0.3-0.5,0.8-0.5,0.8c0.5-0.2,0.9-0.8,0.9-0.8c0.5-0.2,1.2-1.2,1.2-1.2
				c0,0.3,0.2,0.4,0.2,0.4l0.1,0.2h0.2l0,0.6c0-0.2,0.3-0.1,0.3-0.1l0,0.5c0.2-0.4,0.5-0.2,0.5-0.2l0,0.5l0.3-0.1l0.1,0.6l0.2-0.1
				l0,0.5l0.2,0c-0.1,1.7-0.9,2.1-0.9,2.1c-2.3,1.1-2.1,1.8-2.1,1.8c-0.7,0.7-0.1,1.3-0.1,1.3c0-0.5,0.5-0.9,0.5-0.9l0,0
				c0.1-0.2,0.6-0.4,0.6-0.4c-0.6,0.4-0.6,0.8-0.6,0.8c0,0.2,0.1,0.3,0.1,0.3c-0.5,0.7,0.4,1.1,0.4,1.1c-0.2-0.4,0-0.8,0-0.8
				c0.2,0,0.3,0,0.3,0v-0.1c0-0.8,0.5-1,0.5-1c-0.6,0.5-0.4,1-0.4,1s0.2,1.3,1.3,1c0,0-0.5-0.1-0.6-0.5l0,0c0.6-0.2,0.9-1.1,0.9-1.1
				c0.9,0,0.8-0.7,0.8-0.7c0-0.5,0.6-0.7,0.6-0.7c-0.3,0.8,0,0.9,0,0.9c0,0.7-0.4,0.8-0.4,0.8c0.8,0,0.9-0.8,0.9-0.8
				c0.9-0.4,0.5-1.6,0.5-1.6c0.7-0.1,0.6,0.7,0.6,0.7c0.9-0.6,0.7-1.4,0.7-1.4c-0.5-0.6,0-0.7,0-0.7c0.8,0,0.4,1,0.4,1
				c0.7-0.2,0.7-1.1,0.7-1.1c1-0.3,0.9-1.4,0.9-1.4s-0.5,0.9-1.2,0.1c0,0-0.3-0.4,0.7-0.5c0,0,0-0.7-1.3-0.7c0,0-0.7,0-0.6-0.6
				c0,0,0-0.5,0.8,0.2c0,0,0.1-1-1-1c0,0-0.3,0.1-0.3-0.2c0,0,0.7-0.2,0.8-1.2c0,0-1.4,1.1-1.6-0.4c0,0-0.1-0.5,0.4-0.5
				c0,0,0.4-0.1,0.4,0.6c0,0,0.7-0.7,0.1-1.1c0,0,0.7-0.3,0.5-1c0,0-0.6,1.1-1,0.2c0,0-0.2-0.2,0.2-0.5c0,0,0.5-0.5,0.6-1.2
				c0,0,0.1,0,0.1,0.5c0,0,0.9,1.1,2.9,0.7c0,0,2-0.4,2.7-2c0,0,1,0.2,1.7-0.3c0,0-0.4-0.2,0.1-0.5c0,0,0.5-0.2,0.7-0.6
				c0,0-0.5,0.4-0.5,0c0,0,0.3-1.5-0.7-1.8c0,0-0.4-1.4-1.8-1.3c0,0,0.2-0.1,0.4-0.2c0,0-1.5-2-0.6-3.3c0,0-0.8-0.3-0.7-1
				c0,0,0-0.9,1-0.9c0,0,0.7,0,0.7,0.8c0,0,0,0.5-0.5,0.8c0,0,0.8,0,1-1.2c0,0,0.2-1.5-1.6-1.5c0,0-1.6,0-2.1,1.7l0-0.8
				c0,0-0.6-1.6-0.7-3c0,0-0.7-4.8,3.7-4.5c0,0-0.3,1.4-1,1.8c0,0-0.7,0.2-0.6-0.9c0,0-0.9,1.2,0.6,1.4c0,0,0.7,0.2,1.4-0.7
				c0,0,0.5,0.5,0.4,1.3c0,0-0.2,0.7-0.8,0.7c0,0-0.4-0.1-0.2-0.9c0,0-0.6,0.2-0.6,1c0,0-0.1,0.8,1.3,0.7c0,0-0.7,2.2,1.3,2.3
				c0,0-1-0.4-0.3-1.6v0c0,0,0.8-0.4,0.7-1.5c0,0,0.7,0.2,0.7,0.9c0,0-0.1,0.7-1,0.7c0,0,1.3,1.2,2.2-1.1c0,0,0.3-0.8-0.3-1.2
				c0,0,0.5,0,0.7-0.4c0,0,0.6,0.1,0.6,0.7c0,0-0.1,0.6-0.5,0.7c0,0,0.9,0.1,0.7-1.5C65.5,124,65.4,123.5,64.9,123.4z M46.8,120.6
				c0.1-0.1,0.2-0.4,0.6-0.1c0,0,0-0.7,0.5-0.7c0,0,0.2,0,0.3,0.6C48.2,120.4,47.5,120.6,46.8,120.6z M48.9,118.6l0.1-0.5
				c0.4-0.1,0.7,0.4,0.7,0.4C49.4,118.7,48.9,118.6,48.9,118.6z M50.8,119.9c1.3,0.3,2.1-0.8,2.1-0.8c-0.6,0-1.1-0.3-1.1-0.3
				c-0.6-0.6-1.3,0.3-1.3,0.3c0.6-1,1.4-0.4,1.4-0.4c0.4,0.3,1.2,0.3,1.2,0.3C52.1,120.6,50.8,119.9,50.8,119.9z"/>
		</g>
	</g>
	<g id="XMLID_4698_">
		<polygon id="XMLID_4706_" points="149.3,136.4 152.3,134.6 149.3,132.9 152,130.8 148.8,129.5 151.3,127.1 147.9,126.2 
			150.1,123.4 146.6,123 148.4,120 144.9,120 146.2,116.8 142.8,117.2 143.7,113.9 140.4,114.8 140.8,111.4 137.6,112.7 
			137.6,109.3 134.6,111 134.2,107.6 131.4,109.7 130.6,106.3 128.1,108.8 126.8,105.6 124.7,108.3 123,105.3 121.2,108.3 
			119.1,105.6 117.8,108.8 115.4,106.3 114.5,109.7 111.7,107.6 111.3,111 108.3,109.3 108.3,112.7 105.1,111.4 105.6,114.8 
			102.2,113.9 103.1,117.2 99.7,116.8 101,120 97.6,120 99.3,123 95.9,123.4 98,126.2 94.6,127.1 97.1,129.5 93.9,130.8 96.6,132.9 
			93.7,134.6 96.6,136.4 93.9,138.5 97.1,139.8 94.6,142.2 98,143.1 95.9,145.9 99.3,146.3 97.6,149.3 101,149.3 99.7,152.5 
			103.1,152 102.2,155.4 105.6,154.5 105.1,157.9 108.3,156.6 108.3,160 111.3,158.3 111.7,161.7 114.5,159.6 115.4,163 
			117.8,160.5 119.1,163.7 121.2,161 123,164 124.7,161 126.8,163.7 128.1,160.5 130.6,163 131.4,159.6 134.2,161.7 134.6,158.3 
			137.6,160 137.6,156.6 140.8,157.9 140.4,154.5 143.7,155.4 142.8,152 146.2,152.5 144.9,149.3 148.4,149.3 146.6,146.3 
			150.1,145.9 147.9,143.1 151.3,142.2 148.8,139.8 152,138.5 		"/>
		<radialGradient id="XMLID_5_" cx="122.9664" cy="134.6458" r="25.1756" gradientUnits="userSpaceOnUse">
			<stop  offset="0" style="stop-color:#F7A516"/>
			<stop  offset="1" style="stop-color:#F0E400"/>
		</radialGradient>
		<circle id="XMLID_4705_" class="st5" cx="123" cy="134.6" r="25.2"/>
		<g id="XMLID_4699_">
			<path id="XMLID_4700_" class="st2" d="M137.9,123.4c0,0,1.4-0.6,0.6-2.1c0,0,0.3,1.4-0.8,1.4c0,0-0.8,0-0.9-0.5
				c0,0,1.2,0,0.8-1.3c0,0,0.2,0.8-0.9,0.8c0,0-0.6,0-1-0.5c0,0,1.6-0.3,0.6-1.8c0,0,0.1,1-0.7,1.1c0,0-0.9-0.2-1.3,0.5
				c0,0-1.8-1.6-3.9,0c0,0-2.1,1.6-2,4.3c0,0,0,1.2,0.4,2.4c0,0,0.4,1.7,1,2.2l0.4,0.2c0,0-2.4-0.6-2.6,1.2c0,0-0.1,0.7,0.4,1.3
				c0,0-0.2-0.9,0.5-1.1c0,0,0.7-0.2,0.8,0.2c0,0-0.9,0.6-0.2,1.6c0,0-0.3-1.3,1.2-0.9c0,0-1,0.7-0.1,1.5c0,0-0.2-1.1,0.5-1.2
				c0,0,0.2,0.4,0.9,0.1l0.7,1.5c0,0-1.3,0.1-1.3,1.6c0,0,0.3-0.5,0.8-0.4c0,0-0.2,0.9-1.8,0.8c0,0-0.9-0.1-0.5-1.6
				c0,0-0.7,0.4-0.6,1.8c0,0-0.2,1,1.3,1c0,0,0.7,0,1.2-0.1c0,0,1.1,0.1,0.9,1.2c0,0-0.3,1.2-2.2,1.2c0,0-2.1,0.2-2.2-1.3
				c0,0-0.1-1-0.6-1.7c0,0-1.2-2.4-1.8-5.5c0,0-0.7,0.4-1.1-0.3c0,0,1.4,0.7,1.7-0.8c0,0,0.2-1-0.5-1.2l0-0.5c0,0-0.6-0.4-0.7-1.5
				c0,0,0.2,1.5,1.7,1.5c0,0,0.7-0.1,0.8-0.7c0,0-1,0.6-1.2-0.3c0,0-0.1-0.4,0-0.8c0,0,0.2-0.6-0.2-1.1c0,0-0.5-0.3-0.3-1.4
				c0,0,0.2,2.1,1.7,2c0,0-0.3-0.1-0.3-0.7l0-0.9c0,0-0.3,0-0.4-0.2c0,0,1.1,0.2,1.3-0.5c0,0,0.4-0.8-0.6-1.4c0,0,0.3,0.1,0.7-0.1
				c0,0-0.8-0.6-0.8-1.6c0,0,0.4,0.2,1.1-0.2c0,0-1,0.1-1.2-1c0,0,0.6,0.1,0.9-0.1c0,0-0.5-0.3-0.6-0.6c0,0,0-0.4-0.7-0.4
				c0,0,0.6-0.5,0.1-1.1c0,0,0,0.6-0.7,0.7c0,0,0.5-0.9-0.2-1.4c0,0,0.5,1-0.6,1.2c0,0,0.5-1.1-0.5-1.5c0,0,0.5,0.7-0.1,1.1
				c0,0-2-0.2-2.4-0.1l-0.7,0.7c0,0-1.8,0-2,0.4c0,0,0.1,1.3,0.4,1.8c-0.2,0-0.5,0-0.7,0c0,0-1.4-0.2-0.7-0.9l0.1-0.1
				c0,0-1.2-0.9-1.6,0.2c0,0-0.3,1.2,1.1,1.3c0,0,0,0,0,0c1.4,0.1,2-0.4,2-0.4s0.5-0.2,1.2,0c0,0,0.3,0.6-0.2,0.6
				c0,0-0.3,0.1-0.3-0.4c0,0-0.1-0.1-0.3,0.2c0,0-0.4,0.3-0.4-0.2c0,0-0.6,0.1-0.5,1.4c0,0,2.3-0.9,2.4,0.7c0,0-0.3-0.7-1-0.6
				c0,0-0.1,0.8-0.9,0.7c0,0-1.8-0.7-2.4,0.5c0,0-0.4,0.5-0.5,1.2c0,0,0,0.4-0.5,0.4c0,0-0.3,0-0.4-0.4c0,0-0.2,0.3,0.3,0.9
				c0,0-0.8-0.4-0.2-1.2c0,0-0.1,0.6,0.3,0.7c0,0,0.3,0,0.3-0.3c0,0,0.1-0.8,0.6-1.3l0-0.2l-0.1-0.1l-0.2,0l-0.1-0.5l-0.2,0.2
				l-0.3-0.4l-0.1,0l-0.1-0.3l-0.1,0l-0.1-0.1l-0.1-0.1l0-0.1l-0.1-0.3l-0.2,0v-0.3l-0.1,0l-0.1-0.1v-0.5l-0.2,0.2l-0.2-0.4v-0.4
				l-0.2,0.1l-0.3-0.4c0,0,0.5-3.2-0.3-4.2c0,0,0.1-0.8-0.7-0.8c0,0,0.3,0.2,0.3,0.6c0,0-0.5-0.2-0.6,0c0,0,0.4,0.3,0.2,1
				c0,0,0-0.6-0.4-1.1c0,0,0-0.9-0.9-0.5c0,0,0.5,0,0.5,0.4c0,0,0,0,0,0c0,0-0.3,0.3-0.4,0.5c0,0,0.4,0.3,0.3,0.8
				c0,0-0.2-0.7-0.8-0.9c0,0-0.6-0.4-0.9,0.2c0,0,0.7-0.2,0.7,0.2c0,0-0.6,0.8,0.9,1.7c0,0-0.2,0.2-0.2,0.9c0,0-0.1-0.2-0.5,0
				c0,0-0.1-0.4,0.2-0.7c0,0-0.9,0-0.5,1.2c0,0-0.2,1,0.9,1.5c0,0-1.2-0.2-1.2,0.6c0,0,0.5-0.5,1,0.1c0,0,0.2,0.3,0.7,0.3
				c0,0-1.1,0.9,0.1,1.5c0,0,0-0.8,0.9-0.6c0,0-0.3,0.6,0.3,1.2c0,0-0.4,0.4,0.2,1.1c0,0,0-0.5,0.2-0.5c0,0,0.3,0,0.3,0.6
				c0,0-1.2,1.7-1.3,0.3c0,0-0.6,0.9,0.5,1c0,0,0.3,0,0.9-0.5c0,0,0.4-0.3,0.5,0.1c0,0,0,0,0,0c0,0.5-0.2,0.4-0.7,0.4
				c0,0,0,0.9,1.5,0.5c0,0,0.3,0.2-0.4,0.2c0,0-0.8,0-0.8,0.8c0,0,0.4-0.6,0.7-0.2c0,0,0.2,0.4-0.6,0.6c0,0-0.7,0.2-1-0.6
				c0,0-0.3,0.8,0.8,0.9c0,0,0,0.2-1.1,0.2l0.3,0.2l-0.6-0.1c0,0-0.2-0.1,0,0.2c0,0-0.2-0.2-0.5,0c0,0,0.5,0.2-0.2,0.3
				c0,0-2.6-0.4-3.1-1c0,0-0.6-0.4-1.4-0.1c0,0-0.9-0.5-0.9,0.5c0,0,0.1-0.2,0.6-0.2c0,0-0.1,0.3,0.2,0.3c0,0,0.4,0,0.6,0.1
				c0,0-0.6-0.1-1.1,0.1c0,0-0.6-0.1-0.5,1c0,0,0-0.4,0.5-0.5c0,0,0.3,0.2,0,0.5c0,0-0.7,0.7,0.2,1.2c0,0-0.2-0.6,0.1-0.7
				c0,0,0.3,0.5,1,0c0,0,0.7,0.1,0.9-0.1c0,0,0.4-0.3,0.5,0.1c0,0,0,0,0,0.1c0,0-0.6-0.1-0.6,0.2c0,0-0.3,0.7-0.8,0.1
				c0,0,0,0.9,0.9,0.5c0,0,1.3,0.3,1.9-0.8c0,0,0.2,0.6-0.5,1.1c0,0,0.6,0.1,1.3-0.6c0,0-0.4,1,1.5,0.6c0,0-0.6-0.1-0.6-0.8
				c0,0,0.1-0.6,0.6,0c0,0,0.6,0.7,1.2,0.5c0,0-0.2-0.1-0.2-0.6c0,0,0-0.3,0.5-0.3c0,0,0.4,0,0.3,0.4c0,0,0,0.4-0.4,0.6
				c0,0,0.8,0.4,1-0.5c0,0,0-0.4,0.5-0.4c0,0,0.5,0.1,0,0.7c0,0,0.4,0,0.5-0.9c0,0,0.1-0.6,0.4-0.1l0,0.1c0.1,0.3-0.3,0.4-0.3,0.4
				c0.4,0,0.5-0.3,0.5-0.3c0.3-0.2,0-0.7,0-0.7c0.4,0.3,0.1,0.7,0.1,0.7c0.6,1.6,2.6,3.3,2.6,3.3c1.8,1.3,2,2.7,2,2.7
				c0.2,1.3-0.4,2-0.4,2c0.4-0.6,0.2-1.5,0.2-1.5c-0.7-0.2-1.9-1.3-1.9-1.3l0.1,0.3c-0.7-0.4-1.7-0.2-1.7-0.2
				c-0.6,0.1-1.4-0.1-1.4-0.1c0.9,0.4-0.4,0.6-0.4,0.6c-0.8,0.1-1.7-0.3-1.7-0.3c0.2,0.5,1.1,0.5,1.1,0.5c-1,0.3-1.1,0.8-1.1,0.8
				c-0.5,0.8-1.2,0.8-1.2,0.8c-0.7,0-0.6-0.8-0.6-0.8c-0.2,0.2-0.2,0.5-0.2,0.5c-0.2,0-0.4-0.4-0.4-0.4c0,0.9,1.3,1.4,1.3,1.4
				c-0.1,1-1.2,1-1.2,1c1.3,0.5,2-0.1,2-0.1c-0.1,0.6-0.8,1.1-0.8,1.1c0.5,0,0.8-0.5,0.8-0.5c0,1-0.5,1.3-0.5,1.3
				c0.3,0,0.6-0.4,0.6-0.4c-0.2,0.6-0.4,0.7-0.4,0.7c0.3,0.1,0.5-0.1,0.5-0.1c0,0.5-0.3,0.6-0.3,0.6c0.5,0,0.9-0.4,0.9-0.4
				c0.3,0.1,0.2,0.5,0.2,0.5c-0.2,1-1.6,0.9-1.6,0.9c-1.5,0.1-2,1.1-2,1.1c-0.7,0.8-0.4,1.3-0.4,1.3c0.3-0.7,1.2-1.1,1.2-1.1
				c-0.6,0.3-0.8,0.9-0.8,0.9c-0.3,0.8,0.2,1,0.2,1c0-0.4,0.2-0.6,0.2-0.6c0.3,0.1,0.4-0.1,0.4-0.1c0.2-0.9,0.8-0.8,0.8-0.8
				c-0.6,0.2-0.7,0.9-0.7,0.9c-0.1,1.2,0.7,1.2,0.7,1.2c-0.4-0.3-0.2-0.6-0.2-0.6c1-0.1,1.2-0.8,1.2-0.8c0-0.3,0.6-0.4,0.6-0.4
				c-0.4,0.3,0,0.8,0,0.8c-0.1,0.5-0.8,0.5-0.8,0.5c0.8,0.4,1.3-0.2,1.3-0.2c1-0.1,1.2-1.3,1.2-1.3c0.1-0.6,0.7-0.9,0.7-0.9
				c-0.4,1.2,0.4,1.6,0.4,1.6c-0.1-0.8,0.4-1,0.4-1c0.8-0.2,0.7-0.9,0.7-0.9c0.2,0.5,0.6,0.3,0.6,0.3c-0.2-0.2-0.1-0.5-0.1-0.5
				c0-1.1-0.8-1.3-0.8-1.3c-0.5-0.1-0.7-0.6-0.7-0.6c0.9,0.7,1.4,0.4,1.4,0.4c-0.4,0-0.3-0.2-0.3-0.2c0.1-0.5-0.1-1-0.1-1
				c-0.5-0.4-0.3-0.7-0.3-0.7c0.8-0.1,0.6,0.8,0.6,0.8c0.9-0.1,0.7-1,0.7-1c0.4,0.5,0.7,0.2,0.7,0.2c0.2-0.4,0.5-0.7,0.5-0.7
				c-0.7,0.9-1,2.4-1,2.4c0.6-0.5-0.2,1.2-0.2,1.2c0.8-0.4,0,1.1,0,1.1c0.5-0.3,0.3,0.3,0.3,0.3l-0.4,0.6c0.2-0.2,0.4-0.1,0.4-0.1
				c-0.2,1-1.2,1-1.2,1c0.5,0.2,0.9,0,0.9,0c0,0.3-0.5,0.8-0.5,0.8c0.5-0.2,0.9-0.8,0.9-0.8c0.5-0.2,1.2-1.2,1.2-1.2
				c0,0.3,0.2,0.4,0.2,0.4l0.1,0.2h0.2l0,0.6c0-0.2,0.3-0.1,0.3-0.1l0,0.5c0.2-0.4,0.5-0.2,0.5-0.2l0,0.5l0.3-0.1l0.1,0.6l0.2-0.1
				l0,0.5l0.2,0c-0.1,1.7-0.9,2.1-0.9,2.1c-2.3,1.1-2.1,1.8-2.1,1.8c-0.7,0.7-0.1,1.3-0.1,1.3c0-0.5,0.5-0.9,0.5-0.9l0,0
				c0.1-0.2,0.6-0.4,0.6-0.4c-0.6,0.4-0.6,0.8-0.6,0.8c0,0.2,0.1,0.3,0.1,0.3c-0.5,0.7,0.4,1.1,0.4,1.1c-0.2-0.4,0-0.8,0-0.8
				c0.2,0,0.3,0,0.3,0v-0.1c0-0.8,0.5-1,0.5-1c-0.6,0.5-0.4,1-0.4,1s0.2,1.3,1.3,1c0,0-0.5-0.1-0.6-0.5l0,0c0.6-0.2,0.9-1.1,0.9-1.1
				c0.9,0,0.8-0.7,0.8-0.7c0-0.5,0.6-0.7,0.6-0.7c-0.3,0.8,0,0.9,0,0.9c0,0.7-0.4,0.8-0.4,0.8c0.8,0,0.9-0.8,0.9-0.8
				c0.9-0.4,0.5-1.6,0.5-1.6c0.7-0.1,0.6,0.7,0.6,0.7c0.9-0.6,0.7-1.4,0.7-1.4c-0.5-0.6,0-0.7,0-0.7c0.8,0,0.4,1,0.4,1
				c0.7-0.2,0.7-1.1,0.7-1.1c1-0.3,0.9-1.4,0.9-1.4s-0.5,0.9-1.2,0.1c0,0-0.3-0.4,0.7-0.5c0,0,0-0.7-1.3-0.7c0,0-0.7,0-0.6-0.6
				c0,0,0-0.5,0.8,0.2c0,0,0.1-1-1-1c0,0-0.3,0.1-0.3-0.2c0,0,0.7-0.2,0.8-1.2c0,0-1.4,1.1-1.6-0.4c0,0-0.1-0.5,0.4-0.5
				c0,0,0.4-0.1,0.4,0.6c0,0,0.7-0.7,0.1-1.1c0,0,0.7-0.3,0.5-1c0,0-0.6,1.1-1,0.2c0,0-0.2-0.2,0.2-0.5c0,0,0.5-0.5,0.6-1.2
				c0,0,0.1,0,0.1,0.5c0,0,0.9,1.1,2.9,0.7c0,0,2-0.4,2.7-2c0,0,1,0.2,1.7-0.3c0,0-0.4-0.2,0.1-0.5c0,0,0.5-0.2,0.7-0.6
				c0,0-0.5,0.4-0.5,0c0,0,0.3-1.5-0.7-1.8c0,0-0.4-1.4-1.8-1.3c0,0,0.2-0.1,0.4-0.2c0,0-1.5-2-0.6-3.3c0,0-0.8-0.3-0.7-1
				c0,0,0-0.9,1-0.9c0,0,0.7,0,0.7,0.8c0,0,0,0.5-0.5,0.8c0,0,0.8,0,1-1.2c0,0,0.2-1.5-1.6-1.5c0,0-1.6,0-2.1,1.7l0-0.8
				c0,0-0.6-1.6-0.7-3c0,0-0.7-4.8,3.7-4.5c0,0-0.3,1.4-1,1.8c0,0-0.7,0.2-0.6-0.9c0,0-0.9,1.2,0.6,1.4c0,0,0.7,0.2,1.4-0.7
				c0,0,0.5,0.5,0.4,1.3c0,0-0.2,0.7-0.8,0.7c0,0-0.4-0.1-0.2-0.9c0,0-0.6,0.2-0.6,1c0,0-0.1,0.8,1.3,0.7c0,0-0.7,2.2,1.3,2.3
				c0,0-1-0.4-0.3-1.6v0c0,0,0.8-0.4,0.7-1.5c0,0,0.7,0.2,0.7,0.9c0,0-0.1,0.7-1,0.7c0,0,1.3,1.2,2.2-1.1c0,0,0.3-0.8-0.3-1.2
				c0,0,0.5,0,0.7-0.4c0,0,0.6,0.1,0.6,0.7c0,0-0.1,0.6-0.5,0.7c0,0,0.9,0.1,0.7-1.5C138.5,124,138.5,123.5,137.9,123.4z
				 M119.8,120.6c0.1-0.1,0.2-0.4,0.6-0.1c0,0,0-0.7,0.5-0.7c0,0,0.2,0,0.3,0.6C121.2,120.4,120.5,120.6,119.8,120.6z M121.9,118.6
				l0.1-0.5c0.4-0.1,0.7,0.4,0.7,0.4C122.4,118.7,121.9,118.6,121.9,118.6z M123.8,119.9c1.3,0.3,2.1-0.8,2.1-0.8
				c-0.6,0-1.1-0.3-1.1-0.3c-0.6-0.6-1.3,0.3-1.3,0.3c0.6-1,1.4-0.4,1.4-0.4c0.4,0.3,1.2,0.3,1.2,0.3
				C125.1,120.6,123.8,119.9,123.8,119.9z"/>
		</g>
	</g>
	<g id="XMLID_4634_">
		<polygon id="XMLID_4642_" points="76.3,214.9 79.3,213.1 76.3,211.4 79,209.3 75.8,208 78.3,205.6 74.9,204.7 77,201.9 
			73.6,201.5 75.3,198.5 71.9,198.5 73.2,195.3 69.8,195.7 70.7,192.4 67.3,193.3 67.8,189.9 64.6,191.2 64.6,187.7 61.6,189.5 
			61.2,186.1 58.4,188.2 57.5,184.8 55.1,187.3 53.8,184.1 51.7,186.8 49.9,183.8 48.2,186.8 46.1,184.1 44.8,187.3 42.4,184.8 
			41.5,188.2 38.7,186.1 38.3,189.5 35.3,187.7 35.3,191.2 32.1,189.9 32.6,193.3 29.2,192.4 30.1,195.7 26.7,195.3 28,198.5 
			24.6,198.5 26.3,201.5 22.9,201.9 25,204.7 21.6,205.5 24.1,208 20.9,209.3 23.6,211.4 20.6,213.1 23.6,214.9 20.9,217 
			24.1,218.3 21.6,220.7 25,221.6 22.9,224.4 26.3,224.8 24.6,227.8 28,227.8 26.7,231 30.1,230.5 29.2,233.9 32.6,233 32.1,236.4 
			35.3,235.1 35.3,238.5 38.3,236.8 38.7,240.2 41.5,238.1 42.4,241.5 44.8,239 46.1,242.2 48.2,239.5 49.9,242.5 51.7,239.5 
			53.8,242.2 55.1,239 57.5,241.5 58.4,238.1 61.2,240.2 61.6,236.8 64.6,238.5 64.6,235.1 67.8,236.4 67.3,233 70.7,233.9 
			69.8,230.5 73.2,231 71.9,227.8 75.3,227.8 73.6,224.8 77,224.4 74.9,221.6 78.3,220.7 75.8,218.3 79,217 		"/>
		<radialGradient id="XMLID_6_" cx="49.9468" cy="213.1377" r="25.1756" gradientUnits="userSpaceOnUse">
			<stop  offset="0" style="stop-color:#F7A516"/>
			<stop  offset="1" style="stop-color:#F0E400"/>
		</radialGradient>
		<circle id="XMLID_4641_" class="st6" cx="49.9" cy="213.1" r="25.2"/>
		<g id="XMLID_4635_">
			<path id="XMLID_4636_" class="st2" d="M64.9,201.9c0,0,1.4-0.6,0.6-2.1c0,0,0.3,1.4-0.8,1.4c0,0-0.8,0-0.9-0.5c0,0,1.2,0,0.8-1.3
				c0,0,0.2,0.8-0.9,0.8c0,0-0.6,0-1-0.5c0,0,1.6-0.3,0.6-1.8c0,0,0.1,1-0.7,1.1c0,0-0.9-0.2-1.3,0.5c0,0-1.8-1.6-3.9,0
				c0,0-2.1,1.6-2,4.3c0,0,0,1.2,0.4,2.4c0,0,0.4,1.7,1,2.2l0.4,0.2c0,0-2.4-0.6-2.6,1.2c0,0-0.1,0.7,0.4,1.3c0,0-0.2-0.9,0.5-1.1
				c0,0,0.7-0.2,0.8,0.2c0,0-0.9,0.6-0.2,1.6c0,0-0.3-1.3,1.2-0.9c0,0-1,0.7-0.1,1.5c0,0-0.2-1.1,0.5-1.2c0,0,0.2,0.4,0.9,0.1
				l0.7,1.5c0,0-1.3,0.1-1.3,1.6c0,0,0.3-0.5,0.8-0.4c0,0-0.2,0.9-1.8,0.8c0,0-0.9-0.1-0.5-1.6c0,0-0.7,0.4-0.6,1.8c0,0-0.2,1,1.3,1
				c0,0,0.7,0,1.2-0.1c0,0,1.1,0.1,0.9,1.2c0,0-0.3,1.2-2.2,1.2c0,0-2.1,0.2-2.2-1.3c0,0-0.1-1-0.6-1.7c0,0-1.2-2.4-1.8-5.5
				c0,0-0.7,0.4-1.1-0.3c0,0,1.4,0.7,1.7-0.8c0,0,0.2-1-0.5-1.2l0-0.5c0,0-0.6-0.4-0.7-1.5c0,0,0.2,1.5,1.7,1.5c0,0,0.7-0.1,0.8-0.7
				c0,0-1,0.6-1.2-0.3c0,0-0.1-0.4,0-0.8c0,0,0.2-0.6-0.2-1.1c0,0-0.5-0.3-0.3-1.4c0,0,0.2,2.1,1.7,2c0,0-0.3-0.1-0.3-0.7l0-0.9
				c0,0-0.3,0-0.4-0.2c0,0,1.1,0.2,1.3-0.5c0,0,0.4-0.8-0.6-1.4c0,0,0.3,0.1,0.7-0.1c0,0-0.8-0.6-0.8-1.6c0,0,0.4,0.2,1.1-0.2
				c0,0-1,0.1-1.2-1c0,0,0.6,0.1,0.9-0.1c0,0-0.5-0.3-0.6-0.6c0,0,0-0.4-0.7-0.4c0,0,0.6-0.5,0.1-1.1c0,0,0,0.6-0.7,0.7
				c0,0,0.5-0.9-0.2-1.4c0,0,0.5,1-0.6,1.2c0,0,0.5-1.1-0.5-1.5c0,0,0.5,0.7-0.1,1.1c0,0-2-0.2-2.4-0.1l-0.7,0.7c0,0-1.8,0-2,0.4
				c0,0,0.1,1.3,0.4,1.8c-0.2,0-0.5,0-0.7,0c0,0-1.4-0.2-0.7-0.9l0.1-0.1c0,0-1.2-0.9-1.6,0.2c0,0-0.3,1.2,1.1,1.3c0,0,0,0,0,0
				c1.4,0.1,2-0.4,2-0.4s0.5-0.2,1.2,0c0,0,0.3,0.6-0.2,0.6c0,0-0.3,0.1-0.3-0.4c0,0-0.1-0.1-0.3,0.2c0,0-0.4,0.3-0.4-0.2
				c0,0-0.6,0.1-0.5,1.4c0,0,2.3-0.9,2.4,0.7c0,0-0.3-0.7-1-0.6c0,0-0.1,0.8-0.9,0.7c0,0-1.8-0.7-2.4,0.5c0,0-0.4,0.5-0.5,1.2
				c0,0,0,0.4-0.5,0.4c0,0-0.3,0-0.4-0.4c0,0-0.2,0.3,0.3,0.9c0,0-0.8-0.4-0.2-1.2c0,0-0.1,0.6,0.3,0.7c0,0,0.3,0,0.3-0.3
				c0,0,0.1-0.8,0.6-1.3l0-0.2l-0.1-0.1l-0.2,0l-0.1-0.5l-0.2,0.2l-0.3-0.4l-0.1,0l-0.1-0.3l-0.1,0l-0.1-0.1l-0.1-0.1l0-0.1
				l-0.1-0.3l-0.2,0v-0.3l-0.1,0l-0.1-0.1v-0.5l-0.2,0.2L42,199v-0.4l-0.2,0.1l-0.3-0.4c0,0,0.5-3.2-0.3-4.2c0,0,0.1-0.8-0.7-0.8
				c0,0,0.3,0.2,0.3,0.6c0,0-0.5-0.2-0.6,0c0,0,0.4,0.3,0.2,1c0,0,0-0.6-0.4-1.1c0,0,0-0.9-0.9-0.5c0,0,0.5,0,0.5,0.4c0,0,0,0,0,0
				c0,0-0.3,0.3-0.4,0.5c0,0,0.4,0.3,0.3,0.8c0,0-0.2-0.7-0.8-0.9c0,0-0.6-0.4-0.9,0.2c0,0,0.7-0.2,0.7,0.2c0,0-0.6,0.8,0.9,1.7
				c0,0-0.2,0.2-0.2,0.9c0,0-0.1-0.2-0.5,0c0,0-0.1-0.4,0.2-0.7c0,0-0.9,0-0.5,1.2c0,0-0.2,1,0.9,1.5c0,0-1.2-0.2-1.2,0.6
				c0,0,0.5-0.5,1,0.1c0,0,0.2,0.3,0.7,0.3c0,0-1.1,0.9,0.1,1.5c0,0,0-0.8,0.9-0.6c0,0-0.3,0.6,0.3,1.2c0,0-0.4,0.4,0.2,1.1
				c0,0,0-0.5,0.2-0.5c0,0,0.3,0,0.3,0.6c0,0-1.2,1.7-1.3,0.3c0,0-0.6,0.9,0.5,1c0,0,0.3,0,0.9-0.5c0,0,0.4-0.3,0.5,0.1c0,0,0,0,0,0
				c0,0.5-0.2,0.4-0.7,0.4c0,0,0,0.9,1.5,0.5c0,0,0.3,0.2-0.4,0.2c0,0-0.8,0-0.8,0.8c0,0,0.4-0.6,0.7-0.2c0,0,0.2,0.4-0.6,0.6
				c0,0-0.7,0.2-1-0.6c0,0-0.3,0.8,0.8,0.9c0,0,0,0.2-1.1,0.2l0.3,0.2l-0.6-0.1c0,0-0.2-0.1,0,0.2c0,0-0.2-0.2-0.5,0
				c0,0,0.5,0.2-0.2,0.3c0,0-2.6-0.4-3.1-1c0,0-0.6-0.4-1.4-0.1c0,0-0.9-0.5-0.9,0.5c0,0,0.1-0.2,0.6-0.2c0,0-0.1,0.3,0.2,0.3
				c0,0,0.4,0,0.6,0.1c0,0-0.6-0.1-1.1,0.1c0,0-0.6-0.1-0.5,1c0,0,0-0.4,0.5-0.5c0,0,0.3,0.2,0,0.5c0,0-0.7,0.7,0.2,1.2
				c0,0-0.2-0.6,0.1-0.7c0,0,0.3,0.5,1,0c0,0,0.7,0.1,0.9-0.1c0,0,0.4-0.3,0.5,0.1c0,0,0,0,0,0.1c0,0-0.6-0.1-0.6,0.2
				c0,0-0.3,0.7-0.8,0.1c0,0,0,0.9,0.9,0.5c0,0,1.3,0.3,1.9-0.8c0,0,0.2,0.6-0.5,1.1c0,0,0.6,0.1,1.3-0.6c0,0-0.4,1,1.5,0.6
				c0,0-0.6-0.1-0.6-0.8c0,0,0.1-0.6,0.6,0c0,0,0.6,0.7,1.2,0.5c0,0-0.2-0.1-0.2-0.6c0,0,0-0.3,0.5-0.3c0,0,0.4,0,0.3,0.4
				c0,0,0,0.4-0.4,0.6c0,0,0.8,0.4,1-0.5c0,0,0-0.4,0.5-0.4c0,0,0.5,0.1,0,0.7c0,0,0.4,0,0.5-0.9c0,0,0.1-0.6,0.4-0.1l0,0.1
				c0.1,0.3-0.3,0.4-0.3,0.4c0.4,0,0.5-0.3,0.5-0.3c0.3-0.2,0-0.7,0-0.7c0.4,0.3,0.1,0.7,0.1,0.7c0.6,1.6,2.6,3.3,2.6,3.3
				c1.8,1.3,2,2.7,2,2.7c0.2,1.3-0.4,2-0.4,2c0.4-0.6,0.2-1.5,0.2-1.5c-0.7-0.2-1.9-1.3-1.9-1.3l0.1,0.3c-0.7-0.4-1.7-0.2-1.7-0.2
				c-0.6,0.1-1.4-0.1-1.4-0.1c0.9,0.4-0.4,0.6-0.4,0.6c-0.8,0.1-1.7-0.3-1.7-0.3c0.2,0.5,1.1,0.5,1.1,0.5c-1,0.3-1.1,0.8-1.1,0.8
				c-0.5,0.8-1.2,0.8-1.2,0.8c-0.7,0-0.6-0.8-0.6-0.8c-0.2,0.2-0.2,0.5-0.2,0.5c-0.2,0-0.4-0.4-0.4-0.4c0,0.9,1.3,1.4,1.3,1.4
				c-0.1,1-1.2,1-1.2,1c1.3,0.5,2-0.1,2-0.1c-0.1,0.6-0.8,1.1-0.8,1.1c0.5,0,0.8-0.5,0.8-0.5c0,1-0.5,1.3-0.5,1.3
				c0.3,0,0.6-0.4,0.6-0.4c-0.2,0.6-0.4,0.7-0.4,0.7c0.3,0.1,0.5-0.1,0.5-0.1c0,0.5-0.3,0.6-0.3,0.6c0.5,0,0.9-0.4,0.9-0.4
				c0.3,0.1,0.2,0.5,0.2,0.5c-0.2,1-1.6,0.9-1.6,0.9c-1.5,0.1-2,1.1-2,1.1c-0.7,0.8-0.4,1.3-0.4,1.3c0.3-0.7,1.2-1.1,1.2-1.1
				c-0.6,0.3-0.8,0.9-0.8,0.9c-0.3,0.8,0.2,1,0.2,1c0-0.4,0.2-0.6,0.2-0.6c0.3,0.1,0.4-0.1,0.4-0.1c0.2-0.9,0.8-0.8,0.8-0.8
				c-0.6,0.2-0.7,0.9-0.7,0.9c-0.1,1.2,0.7,1.2,0.7,1.2c-0.4-0.3-0.2-0.6-0.2-0.6c1-0.1,1.2-0.8,1.2-0.8c0-0.3,0.6-0.4,0.6-0.4
				c-0.4,0.3,0,0.8,0,0.8c-0.1,0.5-0.8,0.5-0.8,0.5c0.8,0.4,1.3-0.2,1.3-0.2c1-0.1,1.2-1.3,1.2-1.3c0.1-0.6,0.7-0.9,0.7-0.9
				c-0.4,1.2,0.4,1.6,0.4,1.6c-0.1-0.8,0.4-1,0.4-1c0.8-0.2,0.7-0.9,0.7-0.9c0.2,0.5,0.6,0.3,0.6,0.3c-0.2-0.2-0.1-0.5-0.1-0.5
				c0-1.1-0.8-1.3-0.8-1.3c-0.5-0.1-0.7-0.6-0.7-0.6c0.9,0.7,1.4,0.4,1.4,0.4c-0.4,0-0.3-0.2-0.3-0.2c0.1-0.5-0.1-1-0.1-1
				c-0.5-0.4-0.3-0.7-0.3-0.7c0.8-0.1,0.6,0.8,0.6,0.8c0.9-0.1,0.7-1,0.7-1c0.4,0.5,0.7,0.2,0.7,0.2c0.2-0.4,0.5-0.7,0.5-0.7
				c-0.7,0.9-1,2.4-1,2.4c0.6-0.5-0.2,1.2-0.2,1.2c0.8-0.4,0,1.1,0,1.1c0.5-0.3,0.3,0.3,0.3,0.3l-0.4,0.6c0.2-0.2,0.4-0.1,0.4-0.1
				c-0.2,1-1.2,1-1.2,1c0.5,0.2,0.9,0,0.9,0c0,0.3-0.5,0.8-0.5,0.8c0.5-0.2,0.9-0.8,0.9-0.8c0.5-0.2,1.2-1.2,1.2-1.2
				c0,0.3,0.2,0.4,0.2,0.4l0.1,0.2h0.2l0,0.6c0-0.2,0.3-0.1,0.3-0.1l0,0.5c0.2-0.4,0.5-0.2,0.5-0.2l0,0.5l0.3-0.1l0.1,0.6l0.2-0.1
				l0,0.5l0.2,0c-0.1,1.7-0.9,2.1-0.9,2.1c-2.3,1.1-2.1,1.8-2.1,1.8c-0.7,0.7-0.1,1.3-0.1,1.3c0-0.5,0.5-0.9,0.5-0.9l0,0
				c0.1-0.2,0.6-0.4,0.6-0.4c-0.6,0.4-0.6,0.8-0.6,0.8c0,0.2,0.1,0.3,0.1,0.3c-0.5,0.7,0.4,1.1,0.4,1.1c-0.2-0.4,0-0.8,0-0.8
				c0.2,0,0.3,0,0.3,0v-0.1c0-0.8,0.5-1,0.5-1c-0.6,0.5-0.4,1-0.4,1s0.2,1.3,1.3,1c0,0-0.5-0.1-0.6-0.5l0,0c0.6-0.2,0.9-1.1,0.9-1.1
				c0.9,0,0.8-0.7,0.8-0.7c0-0.5,0.6-0.7,0.6-0.7c-0.3,0.8,0,0.9,0,0.9c0,0.7-0.4,0.8-0.4,0.8c0.8,0,0.9-0.8,0.9-0.8
				c0.9-0.4,0.5-1.6,0.5-1.6c0.7-0.1,0.6,0.7,0.6,0.7c0.9-0.6,0.7-1.4,0.7-1.4c-0.5-0.6,0-0.7,0-0.7c0.8,0,0.4,1,0.4,1
				c0.7-0.2,0.7-1.1,0.7-1.1c1-0.3,0.9-1.4,0.9-1.4s-0.5,0.9-1.2,0.1c0,0-0.3-0.4,0.7-0.5c0,0,0-0.7-1.3-0.7c0,0-0.7,0-0.6-0.6
				c0,0,0-0.5,0.8,0.2c0,0,0.1-1-1-1c0,0-0.3,0.1-0.3-0.2c0,0,0.7-0.2,0.8-1.2c0,0-1.4,1.1-1.6-0.4c0,0-0.1-0.5,0.4-0.5
				c0,0,0.4-0.1,0.4,0.6c0,0,0.7-0.7,0.1-1.1c0,0,0.7-0.3,0.5-1c0,0-0.6,1.1-1,0.2c0,0-0.2-0.2,0.2-0.5c0,0,0.5-0.5,0.6-1.2
				c0,0,0.1,0,0.1,0.5c0,0,0.9,1.1,2.9,0.7c0,0,2-0.4,2.7-2c0,0,1,0.2,1.7-0.3c0,0-0.4-0.2,0.1-0.5c0,0,0.5-0.2,0.7-0.6
				c0,0-0.5,0.4-0.5,0c0,0,0.3-1.5-0.7-1.8c0,0-0.4-1.4-1.8-1.3c0,0,0.2-0.1,0.4-0.2c0,0-1.5-2-0.6-3.3c0,0-0.8-0.3-0.7-1
				c0,0,0-0.9,1-0.9c0,0,0.7,0,0.7,0.8c0,0,0,0.5-0.5,0.8c0,0,0.8,0,1-1.2c0,0,0.2-1.5-1.6-1.5c0,0-1.6,0-2.1,1.7l0-0.8
				c0,0-0.6-1.6-0.7-3c0,0-0.7-4.8,3.7-4.5c0,0-0.3,1.4-1,1.8c0,0-0.7,0.2-0.6-0.9c0,0-0.9,1.2,0.6,1.4c0,0,0.7,0.2,1.4-0.7
				c0,0,0.5,0.5,0.4,1.3c0,0-0.2,0.7-0.8,0.7c0,0-0.4-0.1-0.2-0.9c0,0-0.6,0.2-0.6,1c0,0-0.1,0.8,1.3,0.7c0,0-0.7,2.2,1.3,2.3
				c0,0-1-0.4-0.3-1.6v0c0,0,0.8-0.4,0.7-1.5c0,0,0.7,0.2,0.7,0.9c0,0-0.1,0.7-1,0.7c0,0,1.3,1.2,2.2-1.1c0,0,0.3-0.8-0.3-1.2
				c0,0,0.5,0,0.7-0.4c0,0,0.6,0.1,0.6,0.7c0,0-0.1,0.6-0.5,0.7c0,0,0.9,0.1,0.7-1.5C65.5,202.5,65.4,202,64.9,201.9z M46.8,199.1
				c0.1-0.1,0.2-0.4,0.6-0.1c0,0,0-0.7,0.5-0.7c0,0,0.2,0,0.3,0.6C48.2,198.9,47.5,199.1,46.8,199.1z M48.9,197.1l0.1-0.5
				c0.4-0.1,0.7,0.4,0.7,0.4C49.4,197.2,48.9,197.1,48.9,197.1z M50.8,198.4c1.3,0.3,2.1-0.8,2.1-0.8c-0.6,0-1.1-0.3-1.1-0.3
				c-0.6-0.6-1.3,0.3-1.3,0.3c0.6-1,1.4-0.4,1.4-0.4c0.4,0.3,1.2,0.3,1.2,0.3C52.1,199.1,50.8,198.4,50.8,198.4z"/>
		</g>
	</g>
	<g id="XMLID_4625_">
		<polygon id="XMLID_4633_" points="149.3,214.9 152.3,213.1 149.3,211.4 152,209.3 148.8,208 151.3,205.6 147.9,204.7 150.1,201.9 
			146.6,201.5 148.4,198.5 144.9,198.5 146.2,195.3 142.8,195.7 143.7,192.4 140.4,193.3 140.8,189.9 137.6,191.2 137.6,187.7 
			134.6,189.5 134.2,186.1 131.4,188.2 130.6,184.8 128.1,187.3 126.8,184.1 124.7,186.8 123,183.8 121.2,186.8 119.1,184.1 
			117.8,187.3 115.4,184.8 114.5,188.2 111.7,186.1 111.3,189.5 108.3,187.7 108.3,191.2 105.1,189.9 105.6,193.3 102.2,192.4 
			103.1,195.7 99.7,195.3 101,198.5 97.6,198.5 99.3,201.5 95.9,201.9 98,204.7 94.6,205.5 97.1,208 93.9,209.3 96.6,211.4 
			93.7,213.1 96.6,214.9 93.9,217 97.1,218.3 94.6,220.7 98,221.6 95.9,224.4 99.3,224.8 97.6,227.8 101,227.8 99.7,231 
			103.1,230.5 102.2,233.9 105.6,233 105.1,236.4 108.3,235.1 108.3,238.5 111.3,236.8 111.7,240.2 114.5,238.1 115.4,241.5 
			117.8,239 119.1,242.2 121.2,239.5 123,242.5 124.7,239.5 126.8,242.2 128.1,239 130.6,241.5 131.4,238.1 134.2,240.2 
			134.6,236.8 137.6,238.5 137.6,235.1 140.8,236.4 140.4,233 143.7,233.9 142.8,230.5 146.2,231 144.9,227.8 148.4,227.8 
			146.6,224.8 150.1,224.4 147.9,221.6 151.3,220.7 148.8,218.3 152,217 		"/>
		<radialGradient id="XMLID_7_" cx="122.9664" cy="213.1377" r="25.1756" gradientUnits="userSpaceOnUse">
			<stop  offset="0" style="stop-color:#F7A516"/>
			<stop  offset="1" style="stop-color:#F0E400"/>
		</radialGradient>
		<circle id="XMLID_4632_" class="st7" cx="123" cy="213.1" r="25.2"/>
		<g id="XMLID_4626_">
			<path id="XMLID_4627_" class="st2" d="M137.9,201.9c0,0,1.4-0.6,0.6-2.1c0,0,0.3,1.4-0.8,1.4c0,0-0.8,0-0.9-0.5
				c0,0,1.2,0,0.8-1.3c0,0,0.2,0.8-0.9,0.8c0,0-0.6,0-1-0.5c0,0,1.6-0.3,0.6-1.8c0,0,0.1,1-0.7,1.1c0,0-0.9-0.2-1.3,0.5
				c0,0-1.8-1.6-3.9,0c0,0-2.1,1.6-2,4.3c0,0,0,1.2,0.4,2.4c0,0,0.4,1.7,1,2.2l0.4,0.2c0,0-2.4-0.6-2.6,1.2c0,0-0.1,0.7,0.4,1.3
				c0,0-0.2-0.9,0.5-1.1c0,0,0.7-0.2,0.8,0.2c0,0-0.9,0.6-0.2,1.6c0,0-0.3-1.3,1.2-0.9c0,0-1,0.7-0.1,1.5c0,0-0.2-1.1,0.5-1.2
				c0,0,0.2,0.4,0.9,0.1l0.7,1.5c0,0-1.3,0.1-1.3,1.6c0,0,0.3-0.5,0.8-0.4c0,0-0.2,0.9-1.8,0.8c0,0-0.9-0.1-0.5-1.6
				c0,0-0.7,0.4-0.6,1.8c0,0-0.2,1,1.3,1c0,0,0.7,0,1.2-0.1c0,0,1.1,0.1,0.9,1.2c0,0-0.3,1.2-2.2,1.2c0,0-2.1,0.2-2.2-1.3
				c0,0-0.1-1-0.6-1.7c0,0-1.2-2.4-1.8-5.5c0,0-0.7,0.4-1.1-0.3c0,0,1.4,0.7,1.7-0.8c0,0,0.2-1-0.5-1.2l0-0.5c0,0-0.6-0.4-0.7-1.5
				c0,0,0.2,1.5,1.7,1.5c0,0,0.7-0.1,0.8-0.7c0,0-1,0.6-1.2-0.3c0,0-0.1-0.4,0-0.8c0,0,0.2-0.6-0.2-1.1c0,0-0.5-0.3-0.3-1.4
				c0,0,0.2,2.1,1.7,2c0,0-0.3-0.1-0.3-0.7l0-0.9c0,0-0.3,0-0.4-0.2c0,0,1.1,0.2,1.3-0.5c0,0,0.4-0.8-0.6-1.4c0,0,0.3,0.1,0.7-0.1
				c0,0-0.8-0.6-0.8-1.6c0,0,0.4,0.2,1.1-0.2c0,0-1,0.1-1.2-1c0,0,0.6,0.1,0.9-0.1c0,0-0.5-0.3-0.6-0.6c0,0,0-0.4-0.7-0.4
				c0,0,0.6-0.5,0.1-1.1c0,0,0,0.6-0.7,0.7c0,0,0.5-0.9-0.2-1.4c0,0,0.5,1-0.6,1.2c0,0,0.5-1.1-0.5-1.5c0,0,0.5,0.7-0.1,1.1
				c0,0-2-0.2-2.4-0.1l-0.7,0.7c0,0-1.8,0-2,0.4c0,0,0.1,1.3,0.4,1.8c-0.2,0-0.5,0-0.7,0c0,0-1.4-0.2-0.7-0.9l0.1-0.1
				c0,0-1.2-0.9-1.6,0.2c0,0-0.3,1.2,1.1,1.3c0,0,0,0,0,0c1.4,0.1,2-0.4,2-0.4s0.5-0.2,1.2,0c0,0,0.3,0.6-0.2,0.6
				c0,0-0.3,0.1-0.3-0.4c0,0-0.1-0.1-0.3,0.2c0,0-0.4,0.3-0.4-0.2c0,0-0.6,0.1-0.5,1.4c0,0,2.3-0.9,2.4,0.7c0,0-0.3-0.7-1-0.6
				c0,0-0.1,0.8-0.9,0.7c0,0-1.8-0.7-2.4,0.5c0,0-0.4,0.5-0.5,1.2c0,0,0,0.4-0.5,0.4c0,0-0.3,0-0.4-0.4c0,0-0.2,0.3,0.3,0.9
				c0,0-0.8-0.4-0.2-1.2c0,0-0.1,0.6,0.3,0.7c0,0,0.3,0,0.3-0.3c0,0,0.1-0.8,0.6-1.3l0-0.2l-0.1-0.1l-0.2,0l-0.1-0.5l-0.2,0.2
				l-0.3-0.4l-0.1,0l-0.1-0.3l-0.1,0l-0.1-0.1l-0.1-0.1l0-0.1l-0.1-0.3l-0.2,0v-0.3l-0.1,0l-0.1-0.1v-0.5l-0.2,0.2L115,199v-0.4
				l-0.2,0.1l-0.3-0.4c0,0,0.5-3.2-0.3-4.2c0,0,0.1-0.8-0.7-0.8c0,0,0.3,0.2,0.3,0.6c0,0-0.5-0.2-0.6,0c0,0,0.4,0.3,0.2,1
				c0,0,0-0.6-0.4-1.1c0,0,0-0.9-0.9-0.5c0,0,0.5,0,0.5,0.4c0,0,0,0,0,0c0,0-0.3,0.3-0.4,0.5c0,0,0.4,0.3,0.3,0.8
				c0,0-0.2-0.7-0.8-0.9c0,0-0.6-0.4-0.9,0.2c0,0,0.7-0.2,0.7,0.2c0,0-0.6,0.8,0.9,1.7c0,0-0.2,0.2-0.2,0.9c0,0-0.1-0.2-0.5,0
				c0,0-0.1-0.4,0.2-0.7c0,0-0.9,0-0.5,1.2c0,0-0.2,1,0.9,1.5c0,0-1.2-0.2-1.2,0.6c0,0,0.5-0.5,1,0.1c0,0,0.2,0.3,0.7,0.3
				c0,0-1.1,0.9,0.1,1.5c0,0,0-0.8,0.9-0.6c0,0-0.3,0.6,0.3,1.2c0,0-0.4,0.4,0.2,1.1c0,0,0-0.5,0.2-0.5c0,0,0.3,0,0.3,0.6
				c0,0-1.2,1.7-1.3,0.3c0,0-0.6,0.9,0.5,1c0,0,0.3,0,0.9-0.5c0,0,0.4-0.3,0.5,0.1c0,0,0,0,0,0c0,0.5-0.2,0.4-0.7,0.4
				c0,0,0,0.9,1.5,0.5c0,0,0.3,0.2-0.4,0.2c0,0-0.8,0-0.8,0.8c0,0,0.4-0.6,0.7-0.2c0,0,0.2,0.4-0.6,0.6c0,0-0.7,0.2-1-0.6
				c0,0-0.3,0.8,0.8,0.9c0,0,0,0.2-1.1,0.2l0.3,0.2l-0.6-0.1c0,0-0.2-0.1,0,0.2c0,0-0.2-0.2-0.5,0c0,0,0.5,0.2-0.2,0.3
				c0,0-2.6-0.4-3.1-1c0,0-0.6-0.4-1.4-0.1c0,0-0.9-0.5-0.9,0.5c0,0,0.1-0.2,0.6-0.2c0,0-0.1,0.3,0.2,0.3c0,0,0.4,0,0.6,0.1
				c0,0-0.6-0.1-1.1,0.1c0,0-0.6-0.1-0.5,1c0,0,0-0.4,0.5-0.5c0,0,0.3,0.2,0,0.5c0,0-0.7,0.7,0.2,1.2c0,0-0.2-0.6,0.1-0.7
				c0,0,0.3,0.5,1,0c0,0,0.7,0.1,0.9-0.1c0,0,0.4-0.3,0.5,0.1c0,0,0,0,0,0.1c0,0-0.6-0.1-0.6,0.2c0,0-0.3,0.7-0.8,0.1
				c0,0,0,0.9,0.9,0.5c0,0,1.3,0.3,1.9-0.8c0,0,0.2,0.6-0.5,1.1c0,0,0.6,0.1,1.3-0.6c0,0-0.4,1,1.5,0.6c0,0-0.6-0.1-0.6-0.8
				c0,0,0.1-0.6,0.6,0c0,0,0.6,0.7,1.2,0.5c0,0-0.2-0.1-0.2-0.6c0,0,0-0.3,0.5-0.3c0,0,0.4,0,0.3,0.4c0,0,0,0.4-0.4,0.6
				c0,0,0.8,0.4,1-0.5c0,0,0-0.4,0.5-0.4c0,0,0.5,0.1,0,0.7c0,0,0.4,0,0.5-0.9c0,0,0.1-0.6,0.4-0.1l0,0.1c0.1,0.3-0.3,0.4-0.3,0.4
				c0.4,0,0.5-0.3,0.5-0.3c0.3-0.2,0-0.7,0-0.7c0.4,0.3,0.1,0.7,0.1,0.7c0.6,1.6,2.6,3.3,2.6,3.3c1.8,1.3,2,2.7,2,2.7
				c0.2,1.3-0.4,2-0.4,2c0.4-0.6,0.2-1.5,0.2-1.5c-0.7-0.2-1.9-1.3-1.9-1.3l0.1,0.3c-0.7-0.4-1.7-0.2-1.7-0.2
				c-0.6,0.1-1.4-0.1-1.4-0.1c0.9,0.4-0.4,0.6-0.4,0.6c-0.8,0.1-1.7-0.3-1.7-0.3c0.2,0.5,1.1,0.5,1.1,0.5c-1,0.3-1.1,0.8-1.1,0.8
				c-0.5,0.8-1.2,0.8-1.2,0.8c-0.7,0-0.6-0.8-0.6-0.8c-0.2,0.2-0.2,0.5-0.2,0.5c-0.2,0-0.4-0.4-0.4-0.4c0,0.9,1.3,1.4,1.3,1.4
				c-0.1,1-1.2,1-1.2,1c1.3,0.5,2-0.1,2-0.1c-0.1,0.6-0.8,1.1-0.8,1.1c0.5,0,0.8-0.5,0.8-0.5c0,1-0.5,1.3-0.5,1.3
				c0.3,0,0.6-0.4,0.6-0.4c-0.2,0.6-0.4,0.7-0.4,0.7c0.3,0.1,0.5-0.1,0.5-0.1c0,0.5-0.3,0.6-0.3,0.6c0.5,0,0.9-0.4,0.9-0.4
				c0.3,0.1,0.2,0.5,0.2,0.5c-0.2,1-1.6,0.9-1.6,0.9c-1.5,0.1-2,1.1-2,1.1c-0.7,0.8-0.4,1.3-0.4,1.3c0.3-0.7,1.2-1.1,1.2-1.1
				c-0.6,0.3-0.8,0.9-0.8,0.9c-0.3,0.8,0.2,1,0.2,1c0-0.4,0.2-0.6,0.2-0.6c0.3,0.1,0.4-0.1,0.4-0.1c0.2-0.9,0.8-0.8,0.8-0.8
				c-0.6,0.2-0.7,0.9-0.7,0.9c-0.1,1.2,0.7,1.2,0.7,1.2c-0.4-0.3-0.2-0.6-0.2-0.6c1-0.1,1.2-0.8,1.2-0.8c0-0.3,0.6-0.4,0.6-0.4
				c-0.4,0.3,0,0.8,0,0.8c-0.1,0.5-0.8,0.5-0.8,0.5c0.8,0.4,1.3-0.2,1.3-0.2c1-0.1,1.2-1.3,1.2-1.3c0.1-0.6,0.7-0.9,0.7-0.9
				c-0.4,1.2,0.4,1.6,0.4,1.6c-0.1-0.8,0.4-1,0.4-1c0.8-0.2,0.7-0.9,0.7-0.9c0.2,0.5,0.6,0.3,0.6,0.3c-0.2-0.2-0.1-0.5-0.1-0.5
				c0-1.1-0.8-1.3-0.8-1.3c-0.5-0.1-0.7-0.6-0.7-0.6c0.9,0.7,1.4,0.4,1.4,0.4c-0.4,0-0.3-0.2-0.3-0.2c0.1-0.5-0.1-1-0.1-1
				c-0.5-0.4-0.3-0.7-0.3-0.7c0.8-0.1,0.6,0.8,0.6,0.8c0.9-0.1,0.7-1,0.7-1c0.4,0.5,0.7,0.2,0.7,0.2c0.2-0.4,0.5-0.7,0.5-0.7
				c-0.7,0.9-1,2.4-1,2.4c0.6-0.5-0.2,1.2-0.2,1.2c0.8-0.4,0,1.1,0,1.1c0.5-0.3,0.3,0.3,0.3,0.3l-0.4,0.6c0.2-0.2,0.4-0.1,0.4-0.1
				c-0.2,1-1.2,1-1.2,1c0.5,0.2,0.9,0,0.9,0c0,0.3-0.5,0.8-0.5,0.8c0.5-0.2,0.9-0.8,0.9-0.8c0.5-0.2,1.2-1.2,1.2-1.2
				c0,0.3,0.2,0.4,0.2,0.4l0.1,0.2h0.2l0,0.6c0-0.2,0.3-0.1,0.3-0.1l0,0.5c0.2-0.4,0.5-0.2,0.5-0.2l0,0.5l0.3-0.1l0.1,0.6l0.2-0.1
				l0,0.5l0.2,0c-0.1,1.7-0.9,2.1-0.9,2.1c-2.3,1.1-2.1,1.8-2.1,1.8c-0.7,0.7-0.1,1.3-0.1,1.3c0-0.5,0.5-0.9,0.5-0.9l0,0
				c0.1-0.2,0.6-0.4,0.6-0.4c-0.6,0.4-0.6,0.8-0.6,0.8c0,0.2,0.1,0.3,0.1,0.3c-0.5,0.7,0.4,1.1,0.4,1.1c-0.2-0.4,0-0.8,0-0.8
				c0.2,0,0.3,0,0.3,0v-0.1c0-0.8,0.5-1,0.5-1c-0.6,0.5-0.4,1-0.4,1s0.2,1.3,1.3,1c0,0-0.5-0.1-0.6-0.5l0,0c0.6-0.2,0.9-1.1,0.9-1.1
				c0.9,0,0.8-0.7,0.8-0.7c0-0.5,0.6-0.7,0.6-0.7c-0.3,0.8,0,0.9,0,0.9c0,0.7-0.4,0.8-0.4,0.8c0.8,0,0.9-0.8,0.9-0.8
				c0.9-0.4,0.5-1.6,0.5-1.6c0.7-0.1,0.6,0.7,0.6,0.7c0.9-0.6,0.7-1.4,0.7-1.4c-0.5-0.6,0-0.7,0-0.7c0.8,0,0.4,1,0.4,1
				c0.7-0.2,0.7-1.1,0.7-1.1c1-0.3,0.9-1.4,0.9-1.4s-0.5,0.9-1.2,0.1c0,0-0.3-0.4,0.7-0.5c0,0,0-0.7-1.3-0.7c0,0-0.7,0-0.6-0.6
				c0,0,0-0.5,0.8,0.2c0,0,0.1-1-1-1c0,0-0.3,0.1-0.3-0.2c0,0,0.7-0.2,0.8-1.2c0,0-1.4,1.1-1.6-0.4c0,0-0.1-0.5,0.4-0.5
				c0,0,0.4-0.1,0.4,0.6c0,0,0.7-0.7,0.1-1.1c0,0,0.7-0.3,0.5-1c0,0-0.6,1.1-1,0.2c0,0-0.2-0.2,0.2-0.5c0,0,0.5-0.5,0.6-1.2
				c0,0,0.1,0,0.1,0.5c0,0,0.9,1.1,2.9,0.7c0,0,2-0.4,2.7-2c0,0,1,0.2,1.7-0.3c0,0-0.4-0.2,0.1-0.5c0,0,0.5-0.2,0.7-0.6
				c0,0-0.5,0.4-0.5,0c0,0,0.3-1.5-0.7-1.8c0,0-0.4-1.4-1.8-1.3c0,0,0.2-0.1,0.4-0.2c0,0-1.5-2-0.6-3.3c0,0-0.8-0.3-0.7-1
				c0,0,0-0.9,1-0.9c0,0,0.7,0,0.7,0.8c0,0,0,0.5-0.5,0.8c0,0,0.8,0,1-1.2c0,0,0.2-1.5-1.6-1.5c0,0-1.6,0-2.1,1.7l0-0.8
				c0,0-0.6-1.6-0.7-3c0,0-0.7-4.8,3.7-4.5c0,0-0.3,1.4-1,1.8c0,0-0.7,0.2-0.6-0.9c0,0-0.9,1.2,0.6,1.4c0,0,0.7,0.2,1.4-0.7
				c0,0,0.5,0.5,0.4,1.3c0,0-0.2,0.7-0.8,0.7c0,0-0.4-0.1-0.2-0.9c0,0-0.6,0.2-0.6,1c0,0-0.1,0.8,1.3,0.7c0,0-0.7,2.2,1.3,2.3
				c0,0-1-0.4-0.3-1.6v0c0,0,0.8-0.4,0.7-1.5c0,0,0.7,0.2,0.7,0.9c0,0-0.1,0.7-1,0.7c0,0,1.3,1.2,2.2-1.1c0,0,0.3-0.8-0.3-1.2
				c0,0,0.5,0,0.7-0.4c0,0,0.6,0.1,0.6,0.7c0,0-0.1,0.6-0.5,0.7c0,0,0.9,0.1,0.7-1.5C138.5,202.5,138.5,202,137.9,201.9z
				 M119.8,199.1c0.1-0.1,0.2-0.4,0.6-0.1c0,0,0-0.7,0.5-0.7c0,0,0.2,0,0.3,0.6C121.2,198.9,120.5,199.1,119.8,199.1z M121.9,197.1
				l0.1-0.5c0.4-0.1,0.7,0.4,0.7,0.4C122.4,197.2,121.9,197.1,121.9,197.1z M123.8,198.4c1.3,0.3,2.1-0.8,2.1-0.8
				c-0.6,0-1.1-0.3-1.1-0.3c-0.6-0.6-1.3,0.3-1.3,0.3c0.6-1,1.4-0.4,1.4-0.4c0.4,0.3,1.2,0.3,1.2,0.3
				C125.1,199.1,123.8,198.4,123.8,198.4z"/>
		</g>
	</g>
	<path id="XMLID_4622_" class="st8" d="M164,258.6H9V10.7h155V258.6z M11,256.6h151V12.7H11V256.6z"/>
	<path id="XMLID_4556_" d="M18.8,22.5c-0.4,0-0.8,0-1.2,0.2c0,0-0.2,0.1-0.2,0.1c0,0-0.1,0-0.1-0.1c0-0.1,0-0.1,0.1-0.2
		c0.3-0.2,1-0.6,1.8-0.6c2.2,0,3.2,1.8,3.2,3.2c0,1.3-0.4,2.3-1.1,3c-0.7,0.7-1.6,1.1-2.7,1.1c-2.2,0-3.7-1.7-3.7-4.6
		c0-3.1,2.4-6.4,5.5-7.8c0.1-0.1,0.3-0.1,0.3-0.1s0.1,0,0.1,0.1c0,0.1-0.1,0.2-0.3,0.3c-2,1.1-4.3,3.7-4.3,7.4c0,1.9,0.8,4,2.7,4
		c1.3,0,2.3-1,2.3-2.8C21.2,23.7,19.7,22.5,18.8,22.5z"/>
	<path id="XMLID_4554_" d="M154.1,246.7c0.4,0,0.8,0,1.2-0.2c0,0,0.2-0.1,0.2-0.1c0,0,0.1,0,0.1,0.1c0,0.1,0,0.1-0.1,0.2
		c-0.3,0.2-1,0.6-1.8,0.6c-2.2,0-3.2-1.8-3.2-3.2c0-1.3,0.4-2.3,1.1-3c0.7-0.7,1.6-1.1,2.7-1.1c2.2,0,3.7,1.7,3.7,4.6
		c0,3.1-2.4,6.4-5.5,7.8c-0.1,0.1-0.3,0.1-0.3,0.1s-0.1,0-0.1-0.1c0-0.1,0.1-0.2,0.3-0.3c2-1.1,4.3-3.7,4.3-7.4c0-1.9-0.8-4-2.7-4
		c-1.3,0-2.3,1-2.3,2.8C151.7,245.6,153.2,246.7,154.1,246.7z"/>
</g>
</svg>
