<?xml version="1.0" encoding="utf-8"?>
<!-- Generator: Adobe Illustrator 19.0.0, SVG Export Plug-In . SVG Version: 6.00 Build 0)  -->
<svg version="1.1" id="Capa_1" xmlns="http://www.w3.org/2000/svg" xmlns:xlink="http://www.w3.org/1999/xlink" x="0px" y="0px"
	 viewBox="0 0 172.9 269.3" style="enable-background:new 0 0 172.9 269.3;" xml:space="preserve">
<style type="text/css">
	.st0{fill:#FFFFFF;}
	.st1{fill:#010202;}
	.st2{fill:#E94C30;}
	.st3{fill:#83CCF1;}
	.st4{fill:#CBE7E9;}
	.st5{fill:#FAEA26;}
</style>
<rect id="XMLID_742_" x="0" y="0" class="st0" width="172.9" height="269.3"/>
<g id="XMLID_741_">
	<path id="XMLID_2835_" class="st1" d="M164,258.6H9V10.7h155V258.6z M11,256.6h151V12.7H11V256.6z"/>
	<path id="XMLID_2833_" d="M150.8,252.3c-0.2,0-0.3-0.1-0.3-0.2c0-0.1,0-0.2,0.1-0.3c1.3-1.9,3.9-8.2,4.2-10.3c0-0.3,0-0.4,0-0.6
		c0-0.3,1.2-1,1.6-1c0.1,0,0.1,0,0.1,0.2c0,0.2,0,0.4-0.1,0.5c-0.6,2.1-2.4,6.4-4.8,10.6h3.9c0.5,0,1.1-0.1,1.5-0.4
		c0.3-0.3,0.6-0.8,0.6-1.2c0-0.1,0.1-0.2,0.1-0.2c0.1,0,0.1,0.1,0.1,0.3c0,0.5-0.2,2.4-0.2,2.5s-0.1,0.2-0.2,0.2
		c-0.1,0-0.5-0.2-1.5-0.2H150.8z"/>
	<path id="XMLID_2831_" d="M22.1,17c0.2,0,0.3,0.1,0.3,0.2c0,0.1,0,0.2-0.1,0.3c-1.3,1.9-3.9,8.2-4.2,10.3c0,0.3,0,0.4,0,0.6
		c0,0.3-1.2,1-1.6,1c-0.1,0-0.1,0-0.1-0.2c0-0.2,0-0.4,0.1-0.5c0.6-2.1,2.4-6.4,4.8-10.6h-3.9c-0.5,0-1.1,0.1-1.5,0.4
		c-0.3,0.3-0.6,0.8-0.6,1.2c0,0.1-0.1,0.2-0.1,0.2c-0.1,0-0.1-0.1-0.1-0.3c0-0.5,0.2-2.4,0.2-2.5s0.1-0.2,0.2-0.2
		c0.1,0,0.5,0.2,1.5,0.2H22.1z"/>
	<g id="XMLID_1444_">
		<g id="XMLID_3630_">
			<g id="XMLID_740_">
				<path id="XMLID_718_" class="st2" d="M59.8,41.8l-4.4-5.1l-2.1,4.8l-3.4-6.8l-3.4-2.1l-1.6,8.9l-4.2-6.3l-4.9,3.2l-3.8-3.8
					c-0.5,1.4-1,2.9-1.4,4.5c-1,3.9-1.7,7.7-1.2,11.8c0.9,8,7.9,16.3,17.5,15c7.9-1,13.8-8.8,13.8-17.8C60.6,46,60.3,43.9,59.8,41.8
					"/>
				<path id="XMLID_737_" class="st1" d="M44.8,66.2c-3.2,0-6.3-1.1-9-3.2c-3.7-2.9-6.2-7.4-6.7-12.1c-0.5-4.4,0.4-8.4,1.2-11.9
					c0.4-1.6,0.9-3.1,1.4-4.5l0.1-0.2l3.9,3.8l4.9-3.3l4.1,6.2l1.6-8.8l3.6,2.2l0,0l3.3,6.6l2.1-4.8l4.6,5.3
					c0.5,2.3,0.8,4.4,0.8,6.4c0,4.4-1.4,8.7-4,12c-2.6,3.3-6.1,5.5-9.9,6C46.1,66.2,45.4,66.2,44.8,66.2z M32,34.9
					c-0.5,1.4-1,2.8-1.3,4.3c-0.9,3.4-1.7,7.5-1.2,11.8c0.5,4.6,3,9.1,6.6,11.9c3.1,2.5,6.9,3.5,10.8,3c7.8-1,13.7-8.6,13.7-17.7
					c0-1.9-0.2-4-0.8-6.3l-4.3-5l-2.1,4.9l-3.5-7l-3.2-2l-1.7,9l-4.3-6.5l-4.9,3.2L32,34.9z"/>
			</g>
			<polygon id="XMLID_5291_" class="st3" points="61.5,49.6 59.7,49.6 60.6,46.8 			"/>
			<polygon id="XMLID_5290_" class="st4" points="60.1,52.4 59.7,49.6 61.5,49.6 			"/>
			<polygon id="XMLID_5288_" class="st3" points="30.1,49.6 28.2,49.6 29.1,46.8 			"/>
			<polygon id="XMLID_5287_" class="st3" points="37.7,49.6 33,49.6 35.4,46.8 			"/>
			<polygon id="XMLID_5286_" class="st4" points="35.4,52.4 33,49.6 37.7,49.6 			"/>
			<polygon id="XMLID_5285_" class="st3" points="56.7,49.6 52,49.6 54.4,46.8 			"/>
			<polygon id="XMLID_5284_" class="st4" points="54.4,52.4 52,49.6 56.7,49.6 			"/>
			<polygon id="XMLID_736_" class="st1" points="48,52.9 45.4,47.2 45.5,47.1 46.1,44.7 44.8,41.6 45,41.5 46.4,44.7 46.4,44.7 
				45.7,47.1 48.2,52.8 			"/>
			<polygon id="XMLID_735_" class="st1" points="35.5,46.5 35.3,46.3 36.2,45.1 32.8,43.6 35.6,38.4 35.8,38.5 33.2,43.5 36.6,45 
							"/>
			<polygon id="XMLID_734_" class="st1" points="53.3,45.2 50.8,43.9 53.2,41.4 53.4,41.6 51.2,43.9 53.4,44.9 			"/>
			<g id="XMLID_5278_">
				<polygon id="XMLID_5280_" class="st4" points="44.9,53.9 41.7,49.6 48.1,49.6 				"/>
				<polygon id="XMLID_5279_" class="st3" points="48.1,49.6 41.7,49.6 44.9,45.3 				"/>
			</g>
			<path id="XMLID_731_" class="st1" d="M44.9,54.1l-3.4-4.5l3.4-4.5l3.4,4.5L44.9,54.1z M41.8,49.6l3.1,4.1l3.1-4.1l-3.1-4.1
				L41.8,49.6z"/>
			<g id="XMLID_5274_">
				<polygon id="XMLID_5276_" class="st4" points="29.5,52.4 28.2,49.6 30.1,49.6 				"/>
				<path id="XMLID_728_" class="st1" d="M29.6,52.8l-1.5-3.2l0,0l1-3.1l1.1,3.2l0,0L29.6,52.8z M28.4,49.6l1.1,2.4l0.5-2.4
					l-0.8-2.4L28.4,49.6z"/>
			</g>
			<g id="XMLID_5271_">
				<polygon id="XMLID_5273_" class="st4" points="60.1,52.4 61.4,49.6 59.6,49.6 				"/>
				<path id="XMLID_725_" class="st1" d="M60.1,52.8l-0.6-3.2l0,0l1-3.1l1.1,3.2l0,0L60.1,52.8z M59.7,49.6l0.5,2.4l1.1-2.4
					l-0.8-2.4L59.7,49.6z"/>
			</g>
			<path id="XMLID_722_" class="st1" d="M35.4,52.6l-2.5-3l2.5-3l2.5,3L35.4,52.6z M33.2,49.6l2.2,2.6l2.2-2.6L35.4,47L33.2,49.6z"
				/>
			<path id="XMLID_719_" class="st1" d="M54.4,52.6l-2.5-3l2.5-3l2.5,3L54.4,52.6z M52.2,49.6l2.2,2.6l2.2-2.6L54.4,47L52.2,49.6z"
				/>
			<g id="XMLID_5266_">
				<g id="XMLID_717_">
					<ellipse id="XMLID_713_" class="st5" cx="39.8" cy="49.6" rx="0.6" ry="1.8"/>
					<path id="XMLID_714_" class="st1" d="M39.8,51.4c-0.4,0-0.6-0.9-0.6-1.8c0-0.9,0.2-1.8,0.6-1.8s0.6,0.9,0.6,1.8
						C40.4,50.5,40.2,51.4,39.8,51.4z M39.8,47.9c-0.3,0-0.5,0.7-0.5,1.7c0,1,0.3,1.7,0.5,1.7s0.5-0.7,0.5-1.7
						C40.3,48.6,40,47.9,39.8,47.9z"/>
				</g>
				<g id="XMLID_712_">
					<ellipse id="XMLID_708_" class="st5" cx="50" cy="49.6" rx="0.6" ry="1.8"/>
					<path id="XMLID_709_" class="st1" d="M50,51.4c-0.4,0-0.6-0.9-0.6-1.8c0-0.9,0.2-1.8,0.6-1.8s0.6,0.9,0.6,1.8
						C50.6,50.5,50.4,51.4,50,51.4z M50,47.9c-0.3,0-0.5,0.7-0.5,1.7c0,1,0.3,1.7,0.5,1.7s0.5-0.7,0.5-1.7
						C50.5,48.6,50.2,47.9,50,47.9z"/>
				</g>
			</g>
			<g id="XMLID_5263_">
				<g id="XMLID_707_">
					<ellipse id="XMLID_703_" class="st5" cx="58.4" cy="49.6" rx="0.4" ry="1.2"/>
					<path id="XMLID_704_" class="st1" d="M58.4,50.9c-0.3,0-0.4-0.7-0.4-1.3c0-0.6,0.2-1.3,0.4-1.3s0.4,0.7,0.4,1.3
						C58.8,50.2,58.7,50.9,58.4,50.9z M58.4,48.4c-0.2,0-0.3,0.5-0.3,1.2s0.2,1.2,0.3,1.2s0.3-0.5,0.3-1.2S58.6,48.4,58.4,48.4z"/>
				</g>
				<g id="XMLID_702_">
					<ellipse id="XMLID_698_" class="st5" cx="31.3" cy="49.6" rx="0.4" ry="1.2"/>
					<path id="XMLID_699_" class="st1" d="M31.3,50.9c-0.3,0-0.4-0.7-0.4-1.3c0-0.6,0.2-1.3,0.4-1.3s0.4,0.7,0.4,1.3
						C31.8,50.2,31.6,50.9,31.3,50.9z M31.3,48.4c-0.2,0-0.3,0.5-0.3,1.2s0.2,1.2,0.3,1.2s0.3-0.5,0.3-1.2S31.5,48.4,31.3,48.4z"/>
				</g>
			</g>
			<g id="XMLID_697_">
				<rect id="XMLID_693_" x="31.8" y="79.2" class="st5" width="26.1" height="2.9"/>
				<path id="XMLID_694_" class="st1" d="M58,82.3H31.7v-3.2H58V82.3z M32,82h25.8v-2.7H32V82z"/>
			</g>
			<g id="XMLID_692_">
				<rect id="XMLID_688_" x="33.8" y="76.6" class="st4" width="22" height="2.6"/>
				<path id="XMLID_689_" class="st1" d="M56,79.3H33.7v-2.8H56V79.3z M34,79.1h21.8v-2.3H34V79.1z"/>
			</g>
			<g id="XMLID_687_">
				<path id="XMLID_683_" class="st5" d="M44.9,66.6c-3.8,0.5-9.1,10-9.1,10h9.1h9.1C53.9,76.6,48.7,67.1,44.9,66.6z"/>
				<path id="XMLID_684_" class="st1" d="M54.2,76.8H35.6l0.1-0.2c0.2-0.4,5.3-9.6,9.2-10.1l0,0l0,0c3.8,0.5,9,9.7,9.2,10.1
					L54.2,76.8z M36,76.5h17.7c-0.8-1.3-5.5-9.3-8.9-9.8C41.5,67.2,36.8,75.2,36,76.5z"/>
			</g>
			<g id="XMLID_682_">
				<path id="XMLID_678_" class="st5" d="M43.9,65.3c-1.9-1.2-3.1-6.1-3.1-6.1s2.8,4.9,5.3,5.4L43.9,65.3z"/>
				<path id="XMLID_679_" class="st1" d="M43.9,65.4L43.9,65.4c-2-1.2-3.2-6-3.2-6.2l-0.2-0.9l0.4,0.8c0,0,2.8,4.9,5.2,5.3l0.5,0.1
					L43.9,65.4z M41.1,60c0.4,1.4,1.4,4.2,2.8,5.1l1.7-0.6C43.8,63.9,42,61.3,41.1,60z"/>
			</g>
			<g id="XMLID_677_">
				<path id="XMLID_673_" class="st5" d="M45.5,65.3c1.9-1.2,3.1-6.1,3.1-6.1s-2.8,4.9-5.3,5.4L45.5,65.3z"/>
				<path id="XMLID_674_" class="st1" d="M45.5,65.4l-2.6-0.9l0.5-0.1c2.4-0.4,5.1-5.3,5.2-5.3l0.4-0.8l-0.2,0.9
					C48.7,59.4,47.6,64.2,45.5,65.4L45.5,65.4z M43.8,64.6l1.7,0.6c1.4-0.9,2.3-3.7,2.8-5.1C47.5,61.3,45.6,63.9,43.8,64.6z"/>
			</g>
			<g id="XMLID_672_">
				<path id="XMLID_668_" class="st5" d="M46.4,65.9c2.6-0.1,7.2-5.2,7.2-5.2s-6,4-8.6,3L46.4,65.9z"/>
				<path id="XMLID_669_" class="st1" d="M46.3,66L46.3,66l-1.8-2.6l0.4,0.1c2.5,1,8.5-3,8.5-3l0.8-0.6l-0.7,0.7
					C53.4,61,49,65.9,46.3,66L46.3,66z M45.2,63.9l1.2,1.8c1.9-0.2,5-3.1,6.3-4.4C51.1,62.4,47.3,64.4,45.2,63.9z"/>
			</g>
			<g id="XMLID_667_">
				<path id="XMLID_663_" class="st5" d="M42.4,65.9c-2.6-0.1-7.2-5.2-7.2-5.2s6,4,8.6,3L42.4,65.9z"/>
				<path id="XMLID_664_" class="st1" d="M42.4,66L42.4,66c-2.7-0.1-7.1-5-7.3-5.3L34.5,60l0.8,0.6c0.1,0,6,4,8.5,3l0.4-0.1L42.4,66
					z M36,61.3c1.3,1.4,4.4,4.3,6.3,4.4l1.2-1.8C41.4,64.4,37.7,62.4,36,61.3z"/>
			</g>
			<g id="XMLID_662_">
				<path id="XMLID_658_" class="st5" d="M52,72c-0.8-2.9-4.8-5.4-7.1-5.4c-2.3,0-6.3,2.5-7.1,5.4c1.3,1.4,3.3,1.7,4.6,0.2
					C42,75.1,44.9,76,44.9,76s2.8-0.9,2.5-3.8C48.7,73.7,50.6,73.4,52,72z"/>
				<path id="XMLID_659_" class="st1" d="M44.9,76.1L44.9,76.1c-0.1,0-2.8-0.9-2.6-3.6c-0.6,0.5-1.2,0.8-1.9,0.8c0,0,0,0,0,0
					c-0.9,0-1.8-0.4-2.6-1.2l0-0.1l0-0.1c0.8-3,5-5.5,7.2-5.5s6.4,2.5,7.2,5.5l0,0.1l0,0.1c-0.8,0.8-1.7,1.2-2.6,1.2
					c-0.7,0-1.4-0.3-1.9-0.8C47.6,75.2,44.9,76.1,44.9,76.1L44.9,76.1z M42.5,71.8l0,0.4c-0.3,2.6,2,3.5,2.4,3.6
					c0.3-0.1,2.7-1,2.4-3.6l0-0.4l0.3,0.3c0.6,0.6,1.3,0.9,2,1c0,0,0,0,0,0c0.8,0,1.7-0.4,2.4-1.1c-0.8-2.9-4.8-5.3-7-5.3
					s-6.1,2.3-7,5.3c0.7,0.7,1.5,1.1,2.4,1.1c0,0,0,0,0,0c0.7,0,1.4-0.3,2-1L42.5,71.8z"/>
			</g>
			<g id="XMLID_3634_">
				<g id="XMLID_657_">
					<path id="XMLID_655_" class="st5" d="M38.9,70.9c-0.2,0.3-0.3,0.6-0.4,1c0.3,0.3,0.6,0.5,0.9,0.7"/>
					<path id="XMLID_656_" class="st1" d="M39.3,72.6c-0.3-0.2-0.6-0.4-0.9-0.7l0-0.1l0-0.1c0.1-0.3,0.2-0.7,0.4-1l0.2,0.1
						c-0.2,0.3-0.3,0.6-0.4,0.9c0.2,0.2,0.5,0.4,0.8,0.6L39.3,72.6z"/>
				</g>
				<g id="XMLID_654_">
					<path id="XMLID_652_" class="st5" d="M50.9,70.9c0.2,0.3,0.3,0.6,0.4,1c-0.3,0.3-0.6,0.5-0.9,0.7"/>
					<path id="XMLID_653_" class="st1" d="M50.5,72.6l-0.1-0.2c0.3-0.2,0.5-0.4,0.8-0.6c-0.1-0.3-0.2-0.6-0.4-0.9l0.2-0.1
						c0.2,0.3,0.3,0.7,0.4,1l0,0.1l0,0.1C51.1,72.2,50.8,72.4,50.5,72.6z"/>
				</g>
			</g>
			<g id="XMLID_651_">
				<ellipse id="XMLID_647_" class="st4" cx="44.9" cy="66.6" rx="2.5" ry="3.2"/>
				<path id="XMLID_648_" class="st1" d="M44.9,69.9c-1.4,0-2.6-1.5-2.6-3.3s1.2-3.3,2.6-3.3s2.6,1.5,2.6,3.3S46.3,69.9,44.9,69.9z
					 M44.9,63.6c-1.3,0-2.4,1.4-2.4,3s1.1,3,2.4,3s2.4-1.4,2.4-3S46.2,63.6,44.9,63.6z"/>
			</g>
			<g id="XMLID_646_">
				<ellipse id="XMLID_642_" class="st3" cx="44.9" cy="66.6" rx="1.4" ry="1.7"/>
				<path id="XMLID_643_" class="st1" d="M44.9,68.5c-0.8,0-1.5-0.8-1.5-1.9s0.7-1.9,1.5-1.9s1.5,0.8,1.5,1.9S45.7,68.5,44.9,68.5z
					 M44.9,65c-0.7,0-1.2,0.7-1.2,1.6s0.6,1.6,1.2,1.6s1.2-0.7,1.2-1.6S45.5,65,44.9,65z"/>
			</g>
			<g id="XMLID_641_">
				<path id="XMLID_639_" class="st5" d="M43.9,74.8c0.5,0.4,1,0.5,1,0.5s0.5-0.1,1-0.5"/>
				<path id="XMLID_640_" class="st1" d="M44.9,75.4L44.9,75.4c-0.1,0-0.5-0.2-1.1-0.5l0.1-0.2c0.4,0.3,0.8,0.4,0.9,0.5
					c0.1,0,0.5-0.2,0.9-0.5l0.1,0.2C45.4,75.3,44.9,75.4,44.9,75.4L44.9,75.4z"/>
			</g>
		</g>
		<g id="XMLID_3495_">
			<g id="XMLID_638_">
				<path id="XMLID_616_" class="st2" d="M143,41.8l-4.4-5.1l-2.1,4.8l-3.4-6.8l-3.4-2.1l-1.6,8.9l-4.2-6.3l-4.9,3.2l-3.8-3.8
					c-0.5,1.4-1,2.9-1.4,4.5c-1,3.9-1.7,7.7-1.2,11.8c0.9,8,7.9,16.3,17.5,15c7.9-1,13.8-8.8,13.8-17.8
					C143.8,46,143.5,43.9,143,41.8"/>
				<path id="XMLID_635_" class="st1" d="M128,66.2c-3.2,0-6.3-1.1-9-3.2c-3.7-2.9-6.2-7.4-6.7-12.1c-0.5-4.4,0.4-8.4,1.2-11.9
					c0.4-1.6,0.9-3.1,1.4-4.5l0.1-0.2l3.9,3.8l4.9-3.3l4.1,6.2l1.6-8.8l3.6,2.2l0,0l3.3,6.6l2.1-4.8l4.6,5.3
					c0.5,2.3,0.8,4.4,0.8,6.4c0,4.4-1.4,8.7-4,12c-2.6,3.3-6.1,5.5-9.9,6C129.3,66.2,128.6,66.2,128,66.2z M115.1,34.9
					c-0.5,1.4-1,2.8-1.3,4.3c-0.9,3.4-1.7,7.5-1.2,11.8c0.5,4.6,3,9.1,6.6,11.9c3.1,2.5,6.9,3.5,10.8,3c7.8-1,13.7-8.6,13.7-17.7
					c0-1.9-0.2-4-0.8-6.3l-4.3-5l-2.1,4.9l-3.5-7l-3.2-2l-1.7,9l-4.3-6.5l-4.9,3.2L115.1,34.9z"/>
			</g>
			<polygon id="XMLID_3628_" class="st3" points="144.7,49.6 142.8,49.6 143.8,46.8 			"/>
			<polygon id="XMLID_3627_" class="st4" points="143.3,52.4 142.8,49.6 144.7,49.6 			"/>
			<polygon id="XMLID_3626_" class="st3" points="113.2,49.6 111.4,49.6 112.3,46.8 			"/>
			<polygon id="XMLID_3625_" class="st3" points="120.9,49.6 116.2,49.6 118.5,46.8 			"/>
			<polygon id="XMLID_3624_" class="st4" points="118.5,52.4 116.2,49.6 120.9,49.6 			"/>
			<polygon id="XMLID_3623_" class="st3" points="139.9,49.6 135.2,49.6 137.5,46.8 			"/>
			<polygon id="XMLID_3622_" class="st4" points="137.5,52.4 135.2,49.6 139.9,49.6 			"/>
			<polygon id="XMLID_634_" class="st1" points="131.1,52.9 128.6,47.2 128.6,47.1 129.3,44.7 127.9,41.6 128.2,41.5 129.6,44.7 
				129.6,44.7 128.9,47.1 131.4,52.8 			"/>
			<polygon id="XMLID_633_" class="st1" points="118.6,46.5 118.4,46.3 119.4,45.1 116,43.6 118.8,38.4 119,38.5 116.4,43.5 
				119.8,45 			"/>
			<polygon id="XMLID_632_" class="st1" points="136.5,45.2 134,43.9 136.4,41.4 136.6,41.6 134.4,43.9 136.6,44.9 			"/>
			<g id="XMLID_3616_">
				<polygon id="XMLID_3618_" class="st4" points="128,53.9 124.8,49.6 131.3,49.6 				"/>
				<polygon id="XMLID_3617_" class="st3" points="131.3,49.6 124.8,49.6 128,45.3 				"/>
			</g>
			<path id="XMLID_629_" class="st1" d="M128,54.1l-3.4-4.5l3.4-4.5l3.4,4.5L128,54.1z M125,49.6l3.1,4.1l3.1-4.1l-3.1-4.1L125,49.6
				z"/>
			<g id="XMLID_3611_">
				<polygon id="XMLID_3613_" class="st4" points="112.7,52.4 111.4,49.6 113.2,49.6 				"/>
				<path id="XMLID_626_" class="st1" d="M112.7,52.8l-1.5-3.2l0,0l1-3.1l1.1,3.2l0,0L112.7,52.8z M111.5,49.6l1.1,2.4l0.5-2.4
					l-0.8-2.4L111.5,49.6z"/>
			</g>
			<g id="XMLID_3608_">
				<polygon id="XMLID_3610_" class="st4" points="143.3,52.4 144.6,49.6 142.8,49.6 				"/>
				<path id="XMLID_623_" class="st1" d="M143.3,52.8l-0.6-3.2l0,0l1-3.1l1.1,3.2l0,0L143.3,52.8z M142.9,49.6l0.5,2.4l1.1-2.4
					l-0.8-2.4L142.9,49.6z"/>
			</g>
			<path id="XMLID_620_" class="st1" d="M118.5,52.6l-2.5-3l2.5-3l2.5,3L118.5,52.6z M116.4,49.6l2.2,2.6l2.2-2.6l-2.2-2.6
				L116.4,49.6z"/>
			<path id="XMLID_617_" class="st1" d="M137.5,52.6l-2.5-3l2.5-3l2.5,3L137.5,52.6z M135.4,49.6l2.2,2.6l2.2-2.6l-2.2-2.6
				L135.4,49.6z"/>
			<g id="XMLID_3514_">
				<g id="XMLID_615_">
					<ellipse id="XMLID_611_" class="st5" cx="122.9" cy="49.6" rx="0.6" ry="1.8"/>
					<path id="XMLID_612_" class="st1" d="M122.9,51.4c-0.4,0-0.6-0.9-0.6-1.8c0-0.9,0.2-1.8,0.6-1.8s0.6,0.9,0.6,1.8
						C123.6,50.5,123.3,51.4,122.9,51.4z M122.9,47.9c-0.3,0-0.5,0.7-0.5,1.7c0,1,0.3,1.7,0.5,1.7s0.5-0.7,0.5-1.7
						C123.5,48.6,123.2,47.9,122.9,47.9z"/>
				</g>
				<g id="XMLID_610_">
					<ellipse id="XMLID_606_" class="st5" cx="133.1" cy="49.6" rx="0.6" ry="1.8"/>
					<path id="XMLID_607_" class="st1" d="M133.1,51.4c-0.4,0-0.6-0.9-0.6-1.8c0-0.9,0.2-1.8,0.6-1.8s0.6,0.9,0.6,1.8
						C133.8,50.5,133.5,51.4,133.1,51.4z M133.1,47.9c-0.3,0-0.5,0.7-0.5,1.7c0,1,0.3,1.7,0.5,1.7s0.5-0.7,0.5-1.7
						C133.7,48.6,133.4,47.9,133.1,47.9z"/>
				</g>
			</g>
			<g id="XMLID_3511_">
				<g id="XMLID_605_">
					<ellipse id="XMLID_601_" class="st5" cx="141.6" cy="49.6" rx="0.4" ry="1.2"/>
					<path id="XMLID_602_" class="st1" d="M141.6,50.9c-0.3,0-0.4-0.7-0.4-1.3c0-0.6,0.2-1.3,0.4-1.3s0.4,0.7,0.4,1.3
						C142,50.2,141.9,50.9,141.6,50.9z M141.6,48.4c-0.2,0-0.3,0.5-0.3,1.2s0.2,1.2,0.3,1.2s0.3-0.5,0.3-1.2S141.7,48.4,141.6,48.4z
						"/>
				</g>
				<g id="XMLID_600_">
					<ellipse id="XMLID_596_" class="st5" cx="114.5" cy="49.6" rx="0.4" ry="1.2"/>
					<path id="XMLID_597_" class="st1" d="M114.5,50.9c-0.3,0-0.4-0.7-0.4-1.3c0-0.6,0.2-1.3,0.4-1.3s0.4,0.7,0.4,1.3
						C115,50.2,114.8,50.9,114.5,50.9z M114.5,48.4c-0.2,0-0.3,0.5-0.3,1.2s0.2,1.2,0.3,1.2s0.3-0.5,0.3-1.2S114.7,48.4,114.5,48.4z
						"/>
				</g>
			</g>
			<g id="XMLID_595_">
				<rect id="XMLID_591_" x="115" y="79.2" class="st5" width="26.1" height="2.9"/>
				<path id="XMLID_592_" class="st1" d="M141.2,82.3h-26.3v-3.2h26.3V82.3z M115.1,82H141v-2.7h-25.8V82z"/>
			</g>
			<g id="XMLID_590_">
				<rect id="XMLID_586_" x="117" y="76.6" class="st4" width="22" height="2.6"/>
				<path id="XMLID_587_" class="st1" d="M139.2,79.3h-22.3v-2.8h22.3V79.3z M117.2,79.1h21.8v-2.3h-21.8V79.1z"/>
			</g>
			<g id="XMLID_585_">
				<path id="XMLID_581_" class="st5" d="M128,66.6c-3.8,0.5-9.1,10-9.1,10h9.1h9.1C137.1,76.6,131.9,67.1,128,66.6z"/>
				<path id="XMLID_582_" class="st1" d="M137.3,76.8h-18.6l0.1-0.2c0.2-0.4,5.3-9.6,9.2-10.1l0,0l0,0c3.8,0.5,9,9.7,9.2,10.1
					L137.3,76.8z M119.2,76.5h17.7c-0.8-1.3-5.5-9.3-8.9-9.8C124.6,67.2,119.9,75.2,119.2,76.5z"/>
			</g>
			<g id="XMLID_580_">
				<path id="XMLID_576_" class="st5" d="M127.1,65.3c-1.9-1.2-3.1-6.1-3.1-6.1s2.8,4.9,5.3,5.4L127.1,65.3z"/>
				<path id="XMLID_577_" class="st1" d="M127.1,65.4L127.1,65.4c-2-1.2-3.2-6-3.2-6.2l-0.2-0.9l0.4,0.8c0,0,2.8,4.9,5.2,5.3
					l0.5,0.1L127.1,65.4z M124.3,60c0.4,1.4,1.4,4.2,2.8,5.1l1.7-0.6C127,63.9,125.2,61.3,124.3,60z"/>
			</g>
			<g id="XMLID_575_">
				<path id="XMLID_571_" class="st5" d="M128.7,65.3c1.9-1.2,3.1-6.1,3.1-6.1s-2.8,4.9-5.3,5.4L128.7,65.3z"/>
				<path id="XMLID_572_" class="st1" d="M128.7,65.4l-2.6-0.9l0.5-0.1c2.4-0.4,5.1-5.3,5.2-5.3l0.4-0.8l-0.2,0.9
					C131.9,59.4,130.7,64.2,128.7,65.4L128.7,65.4z M127,64.6l1.7,0.6c1.4-0.9,2.3-3.7,2.8-5.1C130.6,61.3,128.8,63.9,127,64.6z"/>
			</g>
			<g id="XMLID_570_">
				<path id="XMLID_566_" class="st5" d="M129.5,65.9c2.6-0.1,7.2-5.2,7.2-5.2s-6,4-8.6,3L129.5,65.9z"/>
				<path id="XMLID_567_" class="st1" d="M129.5,66L129.5,66l-1.8-2.6l0.4,0.1c2.5,1,8.5-3,8.5-3l0.8-0.6l-0.7,0.7
					C136.6,61,132.2,65.9,129.5,66L129.5,66z M128.3,63.9l1.2,1.8c1.9-0.2,5-3.1,6.3-4.4C134.2,62.4,130.5,64.4,128.3,63.9z"/>
			</g>
			<g id="XMLID_565_">
				<path id="XMLID_561_" class="st5" d="M125.6,65.9c-2.6-0.1-7.2-5.2-7.2-5.2s6,4,8.6,3L125.6,65.9z"/>
				<path id="XMLID_562_" class="st1" d="M125.6,66L125.6,66c-2.7-0.1-7.1-5-7.3-5.3l-0.7-0.7l0.8,0.6c0.1,0,6,4,8.5,3l0.4-0.1
					L125.6,66z M119.2,61.3c1.3,1.4,4.4,4.3,6.3,4.4l1.2-1.8C124.6,64.4,120.8,62.4,119.2,61.3z"/>
			</g>
			<g id="XMLID_560_">
				<path id="XMLID_556_" class="st5" d="M135.2,72c-0.8-2.9-4.8-5.4-7.1-5.4s-6.3,2.5-7.1,5.4c1.3,1.4,3.3,1.7,4.6,0.2
					c-0.4,2.9,2.5,3.8,2.5,3.8s2.8-0.9,2.5-3.8C131.9,73.7,133.8,73.4,135.2,72z"/>
				<path id="XMLID_557_" class="st1" d="M128,76.1L128,76.1c-0.1,0-2.8-0.9-2.6-3.6c-0.6,0.5-1.2,0.8-1.9,0.8c0,0,0,0,0,0
					c-0.9,0-1.8-0.4-2.6-1.2l0-0.1l0-0.1c0.8-3,5-5.5,7.2-5.5s6.4,2.5,7.2,5.5l0,0.1l0,0.1c-0.8,0.8-1.7,1.2-2.6,1.2
					c-0.7,0-1.4-0.3-1.9-0.8C130.8,75.2,128.1,76.1,128,76.1L128,76.1z M125.7,71.8l0,0.4c-0.3,2.6,2,3.5,2.4,3.6
					c0.3-0.1,2.7-1,2.4-3.6l0-0.4l0.3,0.3c0.6,0.6,1.3,0.9,2,1c0,0,0,0,0,0c0.8,0,1.7-0.4,2.4-1.1c-0.8-2.9-4.8-5.3-7-5.3
					s-6.1,2.3-7,5.3c0.7,0.7,1.5,1.1,2.4,1.1c0,0,0,0,0,0c0.7,0,1.4-0.3,2-1L125.7,71.8z"/>
			</g>
			<g id="XMLID_3499_">
				<g id="XMLID_555_">
					<path id="XMLID_553_" class="st5" d="M122,70.9c-0.2,0.3-0.3,0.6-0.4,1c0.3,0.3,0.6,0.5,0.9,0.7"/>
					<path id="XMLID_554_" class="st1" d="M122.4,72.6c-0.3-0.2-0.6-0.4-0.9-0.7l0-0.1l0-0.1c0.1-0.3,0.2-0.7,0.4-1l0.2,0.1
						c-0.2,0.3-0.3,0.6-0.4,0.9c0.2,0.2,0.5,0.4,0.8,0.6L122.4,72.6z"/>
				</g>
				<g id="XMLID_552_">
					<path id="XMLID_550_" class="st5" d="M134.1,70.9c0.2,0.3,0.3,0.6,0.4,1c-0.3,0.3-0.6,0.5-0.9,0.7"/>
					<path id="XMLID_551_" class="st1" d="M133.6,72.6l-0.1-0.2c0.3-0.2,0.5-0.4,0.8-0.6c-0.1-0.3-0.2-0.6-0.4-0.9l0.2-0.1
						c0.2,0.3,0.3,0.7,0.4,1l0,0.1l0,0.1C134.3,72.2,134,72.4,133.6,72.6z"/>
				</g>
			</g>
			<g id="XMLID_549_">
				<ellipse id="XMLID_545_" class="st4" cx="128" cy="66.6" rx="2.5" ry="3.2"/>
				<path id="XMLID_546_" class="st1" d="M128,69.9c-1.4,0-2.6-1.5-2.6-3.3s1.2-3.3,2.6-3.3s2.6,1.5,2.6,3.3S129.5,69.9,128,69.9z
					 M128,63.6c-1.3,0-2.4,1.4-2.4,3s1.1,3,2.4,3s2.4-1.4,2.4-3S129.3,63.6,128,63.6z"/>
			</g>
			<g id="XMLID_544_">
				<ellipse id="XMLID_540_" class="st3" cx="128" cy="66.6" rx="1.4" ry="1.7"/>
				<path id="XMLID_541_" class="st1" d="M128,68.5c-0.8,0-1.5-0.8-1.5-1.9s0.7-1.9,1.5-1.9s1.5,0.8,1.5,1.9S128.9,68.5,128,68.5z
					 M128,65c-0.7,0-1.2,0.7-1.2,1.6s0.6,1.6,1.2,1.6s1.2-0.7,1.2-1.6S128.7,65,128,65z"/>
			</g>
			<g id="XMLID_539_">
				<path id="XMLID_537_" class="st5" d="M127.1,74.8c0.5,0.4,1,0.5,1,0.5s0.5-0.1,1-0.5"/>
				<path id="XMLID_538_" class="st1" d="M128,75.4L128,75.4c-0.1,0-0.5-0.2-1.1-0.5l0.1-0.2c0.4,0.3,0.8,0.4,0.9,0.5
					c0.1,0,0.5-0.2,0.9-0.5l0.1,0.2C128.6,75.3,128.1,75.4,128,75.4L128,75.4z"/>
			</g>
		</g>
		<g id="XMLID_3404_">
			<g id="XMLID_536_">
				<path id="XMLID_514_" class="st2" d="M101.4,82.6L97,77.5l-2.1,4.8l-3.4-6.8l-3.4-2.1l-1.6,8.9L82.2,76l-4.9,3.2l-3.8-3.8
					c-0.5,1.4-1,2.9-1.4,4.5c-1,3.9-1.7,7.7-1.2,11.8c0.9,8,7.9,16.3,17.5,15c7.9-1,13.8-8.8,13.8-17.8
					C102.2,86.8,101.9,84.7,101.4,82.6"/>
				<path id="XMLID_533_" class="st1" d="M86.4,107c-3.2,0-6.3-1.1-9-3.2c-3.7-2.9-6.2-7.4-6.7-12.1c-0.5-4.4,0.4-8.4,1.2-11.9
					c0.4-1.6,0.9-3.1,1.4-4.5l0.1-0.2l3.9,3.8l4.9-3.3l4.1,6.2l1.6-8.8l3.6,2.2l0,0l3.3,6.6l2.1-4.8l4.6,5.3
					c0.5,2.3,0.8,4.4,0.8,6.4c0,4.4-1.4,8.7-4,12c-2.6,3.3-6.1,5.5-9.9,6C87.7,107,87,107,86.4,107z M73.6,75.7
					c-0.5,1.4-1,2.8-1.3,4.3c-0.9,3.4-1.7,7.5-1.2,11.8c0.5,4.6,3,9.1,6.6,11.9c3.1,2.5,6.9,3.5,10.8,3c7.8-1,13.7-8.6,13.7-17.7
					c0-1.9-0.2-4-0.8-6.3l-4.3-5l-2.1,4.9l-3.5-7l-3.2-2l-1.7,9l-4.3-6.5l-4.9,3.2L73.6,75.7z"/>
			</g>
			<polygon id="XMLID_5362_" class="st3" points="103.1,90.4 101.3,90.4 102.2,87.6 			"/>
			<polygon id="XMLID_5361_" class="st4" points="101.7,93.2 101.3,90.4 103.1,90.4 			"/>
			<polygon id="XMLID_5360_" class="st3" points="71.7,90.4 69.8,90.4 70.7,87.6 			"/>
			<polygon id="XMLID_5359_" class="st3" points="79.3,90.4 74.6,90.4 77,87.6 			"/>
			<polygon id="XMLID_5358_" class="st4" points="77,93.2 74.6,90.4 79.3,90.4 			"/>
			<polygon id="XMLID_5357_" class="st3" points="98.3,90.4 93.6,90.4 96,87.6 			"/>
			<polygon id="XMLID_5356_" class="st4" points="96,93.2 93.6,90.4 98.3,90.4 			"/>
			<polygon id="XMLID_532_" class="st1" points="89.5,93.7 87,87.9 87,87.9 87.7,85.5 86.3,82.3 86.6,82.2 88,85.4 88,85.5 
				87.3,87.9 89.8,93.6 			"/>
			<polygon id="XMLID_531_" class="st1" points="77.1,87.2 76.9,87.1 77.8,85.9 74.4,84.4 77.2,79.2 77.4,79.3 74.8,84.3 78.2,85.8 
							"/>
			<polygon id="XMLID_530_" class="st1" points="94.9,85.9 92.4,84.7 94.8,82.2 95,82.4 92.8,84.7 95,85.7 			"/>
			<g id="XMLID_5350_">
				<polygon id="XMLID_5352_" class="st4" points="86.5,94.7 83.2,90.4 89.7,90.4 				"/>
				<polygon id="XMLID_5351_" class="st3" points="89.7,90.4 83.2,90.4 86.5,86.1 				"/>
			</g>
			<path id="XMLID_527_" class="st1" d="M86.5,94.9l-3.4-4.5l3.4-4.5l3.4,4.5L86.5,94.9z M83.4,90.4l3.1,4.1l3.1-4.1l-3.1-4.1
				L83.4,90.4z"/>
			<g id="XMLID_5346_">
				<polygon id="XMLID_5348_" class="st4" points="71.1,93.2 69.8,90.4 71.7,90.4 				"/>
				<path id="XMLID_524_" class="st1" d="M71.1,93.6l-1.5-3.2l0,0l1-3.2l1.1,3.2l0,0L71.1,93.6z M69.9,90.4l1.1,2.4l0.5-2.4L70.7,88
					L69.9,90.4z"/>
			</g>
			<g id="XMLID_5343_">
				<polygon id="XMLID_5345_" class="st4" points="101.7,93.2 103,90.4 101.2,90.4 				"/>
				<path id="XMLID_521_" class="st1" d="M101.7,93.6l-0.6-3.2l0,0l1-3.2l1.1,3.2l0,0L101.7,93.6z M101.3,90.4l0.5,2.4l1.1-2.4
					l-0.8-2.4L101.3,90.4z"/>
			</g>
			<path id="XMLID_518_" class="st1" d="M77,93.4l-2.5-3l2.5-3l2.5,3L77,93.4z M74.8,90.4L77,93l2.2-2.6L77,87.8L74.8,90.4z"/>
			<path id="XMLID_515_" class="st1" d="M96,93.4l-2.5-3l2.5-3l2.5,3L96,93.4z M93.8,90.4L96,93l2.2-2.6L96,87.8L93.8,90.4z"/>
			<g id="XMLID_5338_">
				<g id="XMLID_513_">
					<ellipse id="XMLID_509_" class="st5" cx="81.4" cy="90.4" rx="0.6" ry="1.8"/>
					<path id="XMLID_510_" class="st1" d="M81.4,92.2c-0.4,0-0.6-0.9-0.6-1.8s0.2-1.8,0.6-1.8s0.6,0.9,0.6,1.8S81.7,92.2,81.4,92.2z
						 M81.4,88.7c-0.3,0-0.5,0.7-0.5,1.7s0.3,1.7,0.5,1.7s0.5-0.7,0.5-1.7S81.6,88.7,81.4,88.7z"/>
				</g>
				<g id="XMLID_508_">
					<ellipse id="XMLID_504_" class="st5" cx="91.6" cy="90.4" rx="0.6" ry="1.8"/>
					<path id="XMLID_505_" class="st1" d="M91.6,92.2c-0.4,0-0.6-0.9-0.6-1.8s0.2-1.8,0.6-1.8s0.6,0.9,0.6,1.8S91.9,92.2,91.6,92.2z
						 M91.6,88.7c-0.3,0-0.5,0.7-0.5,1.7s0.3,1.7,0.5,1.7s0.5-0.7,0.5-1.7S91.8,88.7,91.6,88.7z"/>
				</g>
			</g>
			<g id="XMLID_5335_">
				<g id="XMLID_503_">
					<ellipse id="XMLID_499_" class="st5" cx="100" cy="90.4" rx="0.4" ry="1.2"/>
					<path id="XMLID_500_" class="st1" d="M100,91.7c-0.3,0-0.4-0.7-0.4-1.3c0-0.6,0.2-1.3,0.4-1.3s0.4,0.7,0.4,1.3
						C100.4,91,100.3,91.7,100,91.7z M100,89.2c-0.2,0-0.3,0.5-0.3,1.2s0.2,1.2,0.3,1.2s0.3-0.5,0.3-1.2S100.1,89.2,100,89.2z"/>
				</g>
				<g id="XMLID_498_">
					<ellipse id="XMLID_494_" class="st5" cx="72.9" cy="90.4" rx="0.4" ry="1.2"/>
					<path id="XMLID_495_" class="st1" d="M72.9,91.7c-0.3,0-0.4-0.7-0.4-1.3c0-0.6,0.2-1.3,0.4-1.3s0.4,0.7,0.4,1.3
						C73.4,91,73.2,91.7,72.9,91.7z M72.9,89.2c-0.2,0-0.3,0.5-0.3,1.2s0.2,1.2,0.3,1.2s0.3-0.5,0.3-1.2S73.1,89.2,72.9,89.2z"/>
				</g>
			</g>
			<g id="XMLID_493_">
				<rect id="XMLID_489_" x="73.4" y="120" class="st5" width="26.1" height="2.9"/>
				<path id="XMLID_490_" class="st1" d="M99.6,123H73.3v-3.2h26.3V123z M73.5,122.8h25.8v-2.7H73.5V122.8z"/>
			</g>
			<g id="XMLID_488_">
				<rect id="XMLID_484_" x="75.4" y="117.4" class="st4" width="22" height="2.6"/>
				<path id="XMLID_485_" class="st1" d="M97.6,120.1H75.3v-2.8h22.3V120.1z M75.6,119.9h21.8v-2.3H75.6V119.9z"/>
			</g>
			<g id="XMLID_483_">
				<path id="XMLID_479_" class="st5" d="M86.5,107.4c-3.8,0.5-9.1,10-9.1,10h9.1h9.1C95.5,117.4,90.3,107.9,86.5,107.4z"/>
				<path id="XMLID_480_" class="st1" d="M95.7,117.5H77.2l0.1-0.2c0.2-0.4,5.3-9.6,9.2-10.1l0,0l0,0c3.8,0.5,9,9.7,9.2,10.1
					L95.7,117.5z M77.6,117.3h17.7c-0.8-1.3-5.5-9.3-8.9-9.8C83,108,78.3,116,77.6,117.3z"/>
			</g>
			<g id="XMLID_478_">
				<path id="XMLID_474_" class="st5" d="M85.5,106c-1.9-1.2-3.1-6.1-3.1-6.1s2.8,4.9,5.3,5.4L85.5,106z"/>
				<path id="XMLID_475_" class="st1" d="M85.5,106.2L85.5,106.2c-2-1.2-3.2-6-3.2-6.2L82,99.1l0.4,0.8c0,0,2.8,4.9,5.2,5.3l0.5,0.1
					L85.5,106.2z M82.7,100.8c0.4,1.4,1.4,4.2,2.8,5.1l1.7-0.6C85.4,104.7,83.6,102.1,82.7,100.8z"/>
			</g>
			<g id="XMLID_473_">
				<path id="XMLID_469_" class="st5" d="M87.1,106c1.9-1.2,3.1-6.1,3.1-6.1s-2.8,4.9-5.3,5.4L87.1,106z"/>
				<path id="XMLID_470_" class="st1" d="M87.1,106.2l-2.6-0.9l0.5-0.1c2.4-0.4,5.1-5.3,5.2-5.3l0.4-0.8l-0.2,0.9
					C90.3,100.2,89.1,105,87.1,106.2L87.1,106.2z M85.4,105.4l1.7,0.6c1.4-0.9,2.3-3.7,2.8-5.1C89,102.1,87.2,104.7,85.4,105.4z"/>
			</g>
			<g id="XMLID_468_">
				<path id="XMLID_464_" class="st5" d="M87.9,106.7c2.6-0.1,7.2-5.2,7.2-5.2s-6,4-8.6,3L87.9,106.7z"/>
				<path id="XMLID_465_" class="st1" d="M87.9,106.8L87.9,106.8l-1.8-2.6l0.4,0.2c2.5,1,8.5-3,8.5-3l0.8-0.6l-0.7,0.7
					C95,101.8,90.6,106.7,87.9,106.8L87.9,106.8z M86.8,104.7l1.2,1.8c1.9-0.2,5-3.1,6.3-4.4C92.7,103.1,88.9,105.2,86.8,104.7z"/>
			</g>
			<g id="XMLID_463_">
				<path id="XMLID_459_" class="st5" d="M84,106.7c-2.6-0.1-7.2-5.2-7.2-5.2s6,4,8.6,3L84,106.7z"/>
				<path id="XMLID_460_" class="st1" d="M84,106.8L84,106.8c-2.7-0.1-7.1-5-7.3-5.3l-0.7-0.7l0.8,0.6c0.1,0,6,4,8.5,3l0.4-0.1
					L84,106.8z M77.6,102.1c1.3,1.4,4.4,4.3,6.3,4.4l1.2-1.8C83,105.2,79.3,103.1,77.6,102.1z"/>
			</g>
			<g id="XMLID_458_">
				<path id="XMLID_454_" class="st5" d="M93.6,112.8c-0.8-2.9-4.8-5.4-7.1-5.4c-2.3,0-6.3,2.5-7.1,5.4c1.3,1.4,3.3,1.7,4.6,0.2
					c-0.4,2.9,2.5,3.8,2.5,3.8s2.8-0.9,2.5-3.8C90.3,114.5,92.2,114.2,93.6,112.8z"/>
				<path id="XMLID_455_" class="st1" d="M86.5,116.9L86.5,116.9c-0.1,0-2.8-0.9-2.6-3.6c-0.6,0.5-1.2,0.8-1.9,0.8c0,0,0,0,0,0
					c-0.9,0-1.8-0.4-2.6-1.2l0-0.1l0-0.1c0.8-3,5-5.5,7.2-5.5s6.4,2.5,7.2,5.5l0,0.1l0,0.1c-0.8,0.8-1.7,1.2-2.6,1.2c0,0,0,0,0,0
					c-0.7,0-1.4-0.3-1.9-0.8C89.2,116,86.5,116.9,86.5,116.9L86.5,116.9z M84.1,112.6l0,0.4c-0.3,2.6,2,3.5,2.4,3.6
					c0.3-0.1,2.7-1,2.4-3.6l0-0.4l0.3,0.3c0.6,0.6,1.3,0.9,2,1c0,0,0,0,0,0c0.8,0,1.7-0.4,2.4-1.1c-0.8-2.9-4.8-5.3-7-5.3
					s-6.1,2.3-7,5.3c0.7,0.7,1.5,1.1,2.4,1.1c0,0,0,0,0,0c0.7,0,1.4-0.3,2-1L84.1,112.6z"/>
			</g>
			<g id="XMLID_5324_">
				<g id="XMLID_453_">
					<path id="XMLID_451_" class="st5" d="M80.4,111.6c-0.2,0.3-0.3,0.6-0.4,1c0.3,0.3,0.6,0.5,0.9,0.7"/>
					<path id="XMLID_452_" class="st1" d="M80.9,113.4c-0.3-0.2-0.6-0.4-0.9-0.7l0-0.1l0-0.1c0.1-0.3,0.2-0.7,0.4-1l0.2,0.1
						c-0.2,0.3-0.3,0.6-0.4,0.9c0.2,0.2,0.5,0.4,0.8,0.6L80.9,113.4z"/>
				</g>
				<g id="XMLID_450_">
					<path id="XMLID_448_" class="st5" d="M92.5,111.6c0.2,0.3,0.3,0.6,0.4,1c-0.3,0.3-0.6,0.5-0.9,0.7"/>
					<path id="XMLID_449_" class="st1" d="M92.1,113.4l-0.1-0.2c0.3-0.2,0.5-0.4,0.8-0.6c-0.1-0.3-0.2-0.6-0.4-0.9l0.2-0.1
						c0.2,0.3,0.3,0.7,0.4,1l0,0.1l0,0.1C92.7,113,92.4,113.2,92.1,113.4z"/>
				</g>
			</g>
			<g id="XMLID_447_">
				<ellipse id="XMLID_443_" class="st4" cx="86.5" cy="107.4" rx="2.5" ry="3.2"/>
				<path id="XMLID_444_" class="st1" d="M86.5,110.7c-1.4,0-2.6-1.5-2.6-3.3c0-1.8,1.2-3.3,2.6-3.3s2.6,1.5,2.6,3.3
					C89.1,109.2,87.9,110.7,86.5,110.7z M86.5,104.4c-1.3,0-2.4,1.4-2.4,3c0,1.7,1.1,3,2.4,3s2.4-1.4,2.4-3
					C88.8,105.7,87.8,104.4,86.5,104.4z"/>
			</g>
			<g id="XMLID_442_">
				<ellipse id="XMLID_438_" class="st3" cx="86.5" cy="107.4" rx="1.4" ry="1.7"/>
				<path id="XMLID_439_" class="st1" d="M86.5,109.3c-0.8,0-1.5-0.8-1.5-1.9c0-1,0.7-1.9,1.5-1.9s1.5,0.8,1.5,1.9
					C87.9,108.4,87.3,109.3,86.5,109.3z M86.5,105.8c-0.7,0-1.2,0.7-1.2,1.6c0,0.9,0.6,1.6,1.2,1.6s1.2-0.7,1.2-1.6
					C87.7,106.5,87.1,105.8,86.5,105.8z"/>
			</g>
			<g id="XMLID_437_">
				<path id="XMLID_435_" class="st5" d="M85.5,115.6c0.5,0.4,1,0.5,1,0.5s0.5-0.1,1-0.5"/>
				<path id="XMLID_436_" class="st1" d="M86.5,116.2L86.5,116.2c-0.1,0-0.5-0.2-1.1-0.5l0.1-0.2c0.4,0.3,0.8,0.4,0.9,0.5
					c0.1,0,0.5-0.2,0.9-0.5l0.1,0.2C87,116,86.5,116.2,86.5,116.2L86.5,116.2z"/>
			</g>
		</g>
		<g id="XMLID_3450_">
			<g id="XMLID_434_">
				<path id="XMLID_412_" class="st2" d="M59.8,201.7l-4.4-5.1l-2.1,4.8l-3.4-6.8l-3.4-2.1l-1.6,8.9l-4.2-6.3l-4.9,3.2l-3.8-3.8
					c-0.5,1.4-1,2.9-1.4,4.5c-1,3.9-1.7,7.7-1.2,11.8c0.9,8,7.9,16.3,17.5,15c7.9-1,13.8-8.8,13.8-17.8
					C60.6,205.9,60.3,203.8,59.8,201.7"/>
				<path id="XMLID_431_" class="st1" d="M44.8,226.2c-3.2,0-6.3-1.1-9-3.2c-3.7-2.9-6.2-7.4-6.7-12.1c-0.5-4.4,0.4-8.4,1.2-11.9
					c0.4-1.6,0.9-3.1,1.4-4.5l0.1-0.2l3.9,3.8l4.9-3.3l4.1,6.2l1.6-8.8l3.6,2.2l0,0l3.3,6.6l2.1-4.8l0.1,0.2l4.4,5.1l-0.1,0.1l0.1,0
					c0.5,2.3,0.8,4.4,0.8,6.4c0,4.4-1.4,8.7-4,12c-2.6,3.3-6.1,5.5-9.9,6C46.1,226.1,45.4,226.2,44.8,226.2z M32,194.8
					c-0.5,1.4-1,2.8-1.3,4.3c-0.9,3.4-1.7,7.5-1.2,11.8c0.5,4.6,3,9.1,6.6,11.9c3.1,2.5,6.9,3.5,10.8,3c7.8-1,13.7-8.6,13.7-17.7
					c0-1.9-0.2-4-0.8-6.3l-4.3-5l-2.1,4.9l-3.5-7l-3.2-2l-1.7,9l-4.3-6.5l-4.9,3.2L32,194.8z"/>
			</g>
			<polygon id="XMLID_3492_" class="st3" points="61.5,209.5 59.7,209.5 60.6,206.7 			"/>
			<polygon id="XMLID_3491_" class="st4" points="60.1,212.3 59.7,209.5 61.5,209.5 			"/>
			<polygon id="XMLID_3490_" class="st3" points="30.1,209.5 28.2,209.5 29.1,206.7 			"/>
			<polygon id="XMLID_3489_" class="st3" points="37.7,209.5 33,209.5 35.4,206.7 			"/>
			<polygon id="XMLID_3488_" class="st4" points="35.4,212.3 33,209.5 37.7,209.5 			"/>
			<polygon id="XMLID_3487_" class="st3" points="56.7,209.5 52,209.5 54.4,206.7 			"/>
			<polygon id="XMLID_3486_" class="st4" points="54.4,212.3 52,209.5 56.7,209.5 			"/>
			<polygon id="XMLID_430_" class="st1" points="48,212.8 45.4,207.1 45.5,207 46.1,204.6 44.8,201.5 45,201.4 46.4,204.6 
				45.7,207.1 48.2,212.7 			"/>
			<polygon id="XMLID_429_" class="st1" points="35.5,206.4 35.3,206.2 36.2,205 32.8,203.6 32.9,203.4 35.6,198.3 35.8,198.4 
				33.2,203.4 36.6,204.9 			"/>
			<polygon id="XMLID_428_" class="st1" points="53.3,205.1 50.8,203.9 53.2,201.3 53.4,201.5 51.2,203.8 53.4,204.9 			"/>
			<g id="XMLID_3480_">
				<polygon id="XMLID_3482_" class="st4" points="44.9,213.8 41.7,209.5 48.1,209.5 				"/>
				<polygon id="XMLID_3481_" class="st3" points="48.1,209.5 41.7,209.5 44.9,205.2 				"/>
			</g>
			<path id="XMLID_425_" class="st1" d="M44.9,214.1l-3.4-4.5l0.1-0.1l3.3-4.4l3.4,4.5l-0.1,0.1L44.9,214.1z M41.8,209.5l3.1,4.1
				l3.1-4.1l-3.1-4.1L41.8,209.5z"/>
			<g id="XMLID_3476_">
				<polygon id="XMLID_3478_" class="st4" points="29.5,212.3 28.2,209.5 30.1,209.5 				"/>
				<path id="XMLID_422_" class="st1" d="M29.6,212.7l-1.5-3.2l0,0l1-3.2l1.1,3.2l0,0L29.6,212.7z M28.4,209.5l1.1,2.4l0.5-2.4
					l-0.8-2.4L28.4,209.5z"/>
			</g>
			<g id="XMLID_3473_">
				<polygon id="XMLID_3475_" class="st4" points="60.1,212.3 61.4,209.5 59.6,209.5 				"/>
				<path id="XMLID_419_" class="st1" d="M60.1,212.7l-0.6-3.2l0,0l1-3.2l1.1,3.2l0,0L60.1,212.7z M59.7,209.5l0.5,2.4l1.1-2.4
					l-0.8-2.4L59.7,209.5z"/>
			</g>
			<path id="XMLID_416_" class="st1" d="M35.4,212.5l-2.5-3l2.5-3l2.5,3L35.4,212.5z M33.2,209.5l2.2,2.6l2.2-2.6l-2.2-2.6
				L33.2,209.5z"/>
			<path id="XMLID_413_" class="st1" d="M54.4,212.5l-2.5-3l2.5-3l2.5,3L54.4,212.5z M52.2,209.5l2.2,2.6l2.2-2.6l-2.2-2.6
				L52.2,209.5z"/>
			<g id="XMLID_3468_">
				<g id="XMLID_411_">
					<ellipse id="XMLID_407_" class="st5" cx="39.8" cy="209.5" rx="0.6" ry="1.8"/>
					<path id="XMLID_408_" class="st1" d="M39.8,211.3c-0.4,0-0.6-0.9-0.6-1.8s0.2-1.8,0.6-1.8s0.6,0.9,0.6,1.8
						S40.2,211.3,39.8,211.3z M39.8,207.8c-0.3,0-0.5,0.7-0.5,1.7s0.3,1.7,0.5,1.7s0.5-0.7,0.5-1.7S40,207.8,39.8,207.8z"/>
				</g>
				<g id="XMLID_406_">
					<ellipse id="XMLID_402_" class="st5" cx="50" cy="209.5" rx="0.6" ry="1.8"/>
					<path id="XMLID_403_" class="st1" d="M50,211.3c-0.4,0-0.6-0.9-0.6-1.8s0.2-1.8,0.6-1.8s0.6,0.9,0.6,1.8S50.4,211.3,50,211.3z
						 M50,207.8c-0.3,0-0.5,0.7-0.5,1.7s0.3,1.7,0.5,1.7s0.5-0.7,0.5-1.7S50.2,207.8,50,207.8z"/>
				</g>
			</g>
			<g id="XMLID_3465_">
				<g id="XMLID_401_">
					<ellipse id="XMLID_397_" class="st5" cx="58.4" cy="209.5" rx="0.4" ry="1.2"/>
					<path id="XMLID_398_" class="st1" d="M58.4,210.8c-0.3,0-0.4-0.7-0.4-1.3s0.2-1.3,0.4-1.3s0.4,0.7,0.4,1.3
						S58.7,210.8,58.4,210.8z M58.4,208.4c-0.2,0-0.3,0.5-0.3,1.2s0.2,1.2,0.3,1.2s0.3-0.5,0.3-1.2S58.6,208.4,58.4,208.4z"/>
				</g>
				<g id="XMLID_396_">
					<ellipse id="XMLID_392_" class="st5" cx="31.3" cy="209.5" rx="0.4" ry="1.2"/>
					<path id="XMLID_393_" class="st1" d="M31.3,210.8c-0.3,0-0.4-0.7-0.4-1.3s0.2-1.3,0.4-1.3s0.4,0.7,0.4,1.3
						S31.6,210.8,31.3,210.8z M31.3,208.4c-0.2,0-0.3,0.5-0.3,1.2s0.2,1.2,0.3,1.2s0.3-0.5,0.3-1.2S31.5,208.4,31.3,208.4z"/>
				</g>
			</g>
			<g id="XMLID_391_">
				<rect id="XMLID_387_" x="31.8" y="239.1" class="st5" width="26.1" height="2.9"/>
				<path id="XMLID_388_" class="st1" d="M58,242.2H31.7V239H58V242.2z M32,241.9h25.8v-2.7H32V241.9z"/>
			</g>
			<g id="XMLID_386_">
				<rect id="XMLID_382_" x="33.8" y="236.6" class="st4" width="22" height="2.6"/>
				<path id="XMLID_383_" class="st1" d="M56,239.3H33.7v-2.8H56V239.3z M34,239h21.8v-2.3H34V239z"/>
			</g>
			<g id="XMLID_381_">
				<path id="XMLID_377_" class="st5" d="M44.9,226.5c-3.8,0.5-9.1,10-9.1,10h9.1h9.1C53.9,236.6,48.7,227,44.9,226.5z"/>
				<path id="XMLID_378_" class="st1" d="M54.2,236.7H35.6l0.1-0.2c0.2-0.4,5.3-9.6,9.2-10.1l0,0l0,0c3.8,0.5,9,9.7,9.2,10.1
					L54.2,236.7z M36,236.4h17.7c-0.8-1.3-5.5-9.3-8.9-9.8C41.5,227.1,36.8,235.1,36,236.4z"/>
			</g>
			<g id="XMLID_376_">
				<path id="XMLID_372_" class="st5" d="M43.9,225.2c-1.9-1.2-3.1-6.1-3.1-6.1s2.8,4.9,5.3,5.4L43.9,225.2z"/>
				<path id="XMLID_373_" class="st1" d="M43.9,225.3L43.9,225.3c-2-1.2-3.2-6-3.2-6.2l-0.2-0.9l0.4,0.8c0,0,2.8,4.9,5.2,5.3
					l0.5,0.1L43.9,225.3z M41.1,219.9c0.4,1.4,1.4,4.2,2.8,5.1l1.7-0.6C43.8,223.8,42,221.3,41.1,219.9z"/>
			</g>
			<g id="XMLID_371_">
				<path id="XMLID_367_" class="st5" d="M45.5,225.2c1.9-1.2,3.1-6.1,3.1-6.1s-2.8,4.9-5.3,5.4L45.5,225.2z"/>
				<path id="XMLID_368_" class="st1" d="M45.5,225.3l-2.6-0.9l0.5-0.1c2.4-0.4,5.1-5.3,5.2-5.3l0.4-0.8l-0.2,0.9
					C48.7,219.3,47.6,224.1,45.5,225.3L45.5,225.3z M43.8,224.5l1.7,0.6c1.4-0.9,2.3-3.7,2.8-5.1C47.5,221.3,45.6,223.8,43.8,224.5z
					"/>
			</g>
			<g id="XMLID_366_">
				<path id="XMLID_362_" class="st5" d="M46.4,225.8c2.6-0.1,7.2-5.2,7.2-5.2s-6,4-8.6,3L46.4,225.8z"/>
				<path id="XMLID_363_" class="st1" d="M46.3,226l-1.8-2.6l0.4,0.2c2.5,1,8.5-3,8.5-3l0.8-0.6l-0.7,0.7
					C53.4,220.9,49,225.8,46.3,226L46.3,226z M45.2,223.9l1.2,1.8c1.9-0.2,5-3.1,6.3-4.4C51.1,222.3,47.3,224.3,45.2,223.9z"/>
			</g>
			<g id="XMLID_361_">
				<path id="XMLID_357_" class="st5" d="M42.4,225.8c-2.6-0.1-7.2-5.2-7.2-5.2s6,4,8.6,3L42.4,225.8z"/>
				<path id="XMLID_358_" class="st1" d="M42.4,226L42.4,226c-2.7-0.1-7.1-5-7.3-5.3l-0.7-0.7l0.8,0.6c0.1,0,6,4,8.5,3l0.4-0.2
					L42.4,226z M36,221.3c1.3,1.4,4.4,4.3,6.3,4.4l1.2-1.8C41.4,224.3,37.7,222.3,36,221.3z"/>
			</g>
			<g id="XMLID_356_">
				<path id="XMLID_352_" class="st5" d="M52,232c-0.8-2.9-4.8-5.4-7.1-5.4c-2.3,0-6.3,2.5-7.1,5.4c1.3,1.4,3.3,1.7,4.6,0.2
					c-0.4,2.9,2.5,3.8,2.5,3.8s2.8-0.9,2.5-3.8C48.7,233.6,50.6,233.3,52,232z"/>
				<path id="XMLID_353_" class="st1" d="M44.9,236L44.9,236c-0.1,0-2.8-0.9-2.6-3.6c-0.6,0.5-1.2,0.8-1.9,0.8
					c-0.9,0-1.9-0.4-2.6-1.2l0-0.1l0-0.1c0.8-3,5-5.5,7.2-5.5s6.4,2.5,7.2,5.5l0,0.1l0,0.1c-0.8,0.8-1.7,1.2-2.6,1.2
					c-0.7,0-1.4-0.3-1.9-0.8C47.6,235.1,44.9,236,44.9,236L44.9,236z M42.5,231.8l0,0.4c-0.3,2.6,2,3.5,2.4,3.6
					c0.3-0.1,2.7-1,2.4-3.6l0-0.4l0.3,0.3c0.6,0.6,1.3,0.9,2,1c0,0,0,0,0,0c0.8,0,1.7-0.4,2.4-1.1c-0.8-2.9-4.8-5.3-7-5.3
					s-6.1,2.3-7,5.3c0.7,0.7,1.5,1.1,2.4,1.1c0,0,0,0,0,0c0.7,0,1.4-0.3,2-1L42.5,231.8z"/>
			</g>
			<g id="XMLID_3454_">
				<g id="XMLID_351_">
					<path id="XMLID_349_" class="st5" d="M38.9,230.8c-0.2,0.3-0.3,0.6-0.4,1c0.3,0.3,0.6,0.5,0.9,0.7"/>
					<path id="XMLID_350_" class="st1" d="M39.3,232.5c-0.3-0.2-0.6-0.4-0.9-0.7l0-0.1l0-0.1c0.1-0.3,0.2-0.7,0.4-1l0.2,0.1
						c-0.2,0.3-0.3,0.6-0.4,0.9c0.2,0.2,0.5,0.4,0.8,0.6L39.3,232.5z"/>
				</g>
				<g id="XMLID_348_">
					<path id="XMLID_346_" class="st5" d="M50.9,230.8c0.2,0.3,0.3,0.6,0.4,1c-0.3,0.3-0.6,0.5-0.9,0.7"/>
					<path id="XMLID_347_" class="st1" d="M50.5,232.5l-0.1-0.2c0.3-0.2,0.5-0.4,0.8-0.6c-0.1-0.3-0.2-0.6-0.4-0.9l0.2-0.1
						c0.2,0.3,0.3,0.7,0.4,1l0,0.1l0,0.1C51.1,232.1,50.8,232.4,50.5,232.5z"/>
				</g>
			</g>
			<g id="XMLID_345_">
				<ellipse id="XMLID_341_" class="st4" cx="44.9" cy="226.5" rx="2.5" ry="3.2"/>
				<path id="XMLID_342_" class="st1" d="M44.9,229.8c-1.4,0-2.6-1.5-2.6-3.3s1.2-3.3,2.6-3.3s2.6,1.5,2.6,3.3
					S46.3,229.8,44.9,229.8z M44.9,223.5c-1.3,0-2.4,1.4-2.4,3s1.1,3,2.4,3s2.4-1.4,2.4-3S46.2,223.5,44.9,223.5z"/>
			</g>
			<g id="XMLID_340_">
				<ellipse id="XMLID_336_" class="st3" cx="44.9" cy="226.5" rx="1.4" ry="1.7"/>
				<path id="XMLID_337_" class="st1" d="M44.9,228.4c-0.8,0-1.5-0.8-1.5-1.9s0.7-1.9,1.5-1.9s1.5,0.8,1.5,1.9
					S45.7,228.4,44.9,228.4z M44.9,224.9c-0.7,0-1.2,0.7-1.2,1.6s0.6,1.6,1.2,1.6s1.2-0.7,1.2-1.6S45.5,224.9,44.9,224.9z"/>
			</g>
			<g id="XMLID_335_">
				<path id="XMLID_333_" class="st5" d="M43.9,234.7c0.5,0.4,1,0.5,1,0.5s0.5-0.1,1-0.5"/>
				<path id="XMLID_334_" class="st1" d="M44.9,235.3L44.9,235.3c-0.1,0-0.5-0.2-1.1-0.5l0.1-0.2c0.4,0.3,0.8,0.4,0.9,0.5
					c0.1,0,0.5-0.2,0.9-0.5l0.1,0.2C45.4,235.2,44.9,235.3,44.9,235.3L44.9,235.3z"/>
			</g>
		</g>
		<g id="XMLID_3405_">
			<g id="XMLID_332_">
				<path id="XMLID_310_" class="st2" d="M143,201.7l-4.4-5.1l-2.1,4.8l-3.4-6.8l-3.4-2.1l-1.6,8.9l-4.2-6.3l-4.9,3.2l-3.8-3.8
					c-0.5,1.4-1,2.9-1.4,4.5c-1,3.9-1.7,7.7-1.2,11.8c0.9,8,7.9,16.3,17.5,15c7.9-1,13.8-8.8,13.8-17.8
					C143.8,205.9,143.5,203.8,143,201.7"/>
				<path id="XMLID_329_" class="st1" d="M128,226.2c-3.2,0-6.3-1.1-9-3.2c-3.7-2.9-6.2-7.4-6.7-12.1c-0.5-4.4,0.4-8.4,1.2-11.9
					c0.4-1.6,0.9-3.1,1.4-4.5l0.1-0.2l3.9,3.8l4.9-3.3l4.1,6.2l1.6-8.8l3.6,2.2l0,0l3.3,6.6l2.1-4.8l0.1,0.2l4.4,5.1l-0.1,0.1l0.1,0
					c0.5,2.3,0.8,4.4,0.8,6.4c0,4.4-1.4,8.7-4,12c-2.6,3.3-6.1,5.5-9.9,6C129.3,226.1,128.6,226.2,128,226.2z M115.1,194.8
					c-0.5,1.4-1,2.8-1.3,4.3c-0.9,3.4-1.7,7.5-1.2,11.8c0.5,4.6,3,9.1,6.6,11.9c3.1,2.5,6.9,3.5,10.8,3c7.8-1,13.7-8.6,13.7-17.7
					c0-1.9-0.2-4-0.8-6.3l-4.3-5l-2.1,4.9l-3.5-7l-3.2-2l-1.7,9l-4.3-6.5l-4.9,3.2L115.1,194.8z"/>
			</g>
			<polygon id="XMLID_3448_" class="st3" points="144.7,209.5 142.8,209.5 143.8,206.7 			"/>
			<polygon id="XMLID_3447_" class="st4" points="143.3,212.3 142.8,209.5 144.7,209.5 			"/>
			<polygon id="XMLID_3446_" class="st3" points="113.2,209.5 111.4,209.5 112.3,206.7 			"/>
			<polygon id="XMLID_3445_" class="st3" points="120.9,209.5 116.2,209.5 118.5,206.7 			"/>
			<polygon id="XMLID_3444_" class="st4" points="118.5,212.3 116.2,209.5 120.9,209.5 			"/>
			<polygon id="XMLID_3443_" class="st3" points="139.9,209.5 135.2,209.5 137.5,206.7 			"/>
			<polygon id="XMLID_3442_" class="st4" points="137.5,212.3 135.2,209.5 139.9,209.5 			"/>
			<polygon id="XMLID_328_" class="st1" points="131.1,212.8 128.6,207.1 128.6,207 129.3,204.6 127.9,201.5 128.2,201.4 
				129.6,204.6 128.9,207.1 131.4,212.7 			"/>
			<polygon id="XMLID_327_" class="st1" points="118.6,206.4 118.4,206.2 119.4,205 116,203.6 116.1,203.4 118.8,198.3 119,198.4 
				116.4,203.4 119.8,204.9 			"/>
			<polygon id="XMLID_326_" class="st1" points="136.5,205.1 134,203.9 136.4,201.3 136.6,201.5 134.4,203.8 136.6,204.9 			"/>
			<g id="XMLID_3436_">
				<polygon id="XMLID_3438_" class="st4" points="128,213.8 124.8,209.5 131.3,209.5 				"/>
				<polygon id="XMLID_3437_" class="st3" points="131.3,209.5 124.8,209.5 128,205.2 				"/>
			</g>
			<path id="XMLID_323_" class="st1" d="M128,214.1l-3.4-4.5l0.1-0.1l3.3-4.4l3.4,4.5l-0.1,0.1L128,214.1z M125,209.5l3.1,4.1
				l3.1-4.1l-3.1-4.1L125,209.5z"/>
			<g id="XMLID_3432_">
				<polygon id="XMLID_3434_" class="st4" points="112.7,212.3 111.4,209.5 113.2,209.5 				"/>
				<path id="XMLID_320_" class="st1" d="M112.7,212.7l-1.5-3.2l0,0l1-3.2l1.1,3.2l0,0L112.7,212.7z M111.5,209.5l1.1,2.4l0.5-2.4
					l-0.8-2.4L111.5,209.5z"/>
			</g>
			<g id="XMLID_3429_">
				<polygon id="XMLID_3431_" class="st4" points="143.3,212.3 144.6,209.5 142.8,209.5 				"/>
				<path id="XMLID_317_" class="st1" d="M143.3,212.7l-0.6-3.2l0,0l1-3.2l1.1,3.2l0,0L143.3,212.7z M142.9,209.5l0.5,2.4l1.1-2.4
					l-0.8-2.4L142.9,209.5z"/>
			</g>
			<path id="XMLID_314_" class="st1" d="M118.5,212.5l-2.5-3l2.5-3l2.5,3L118.5,212.5z M116.4,209.5l2.2,2.6l2.2-2.6l-2.2-2.6
				L116.4,209.5z"/>
			<path id="XMLID_311_" class="st1" d="M137.5,212.5l-2.5-3l2.5-3l2.5,3L137.5,212.5z M135.4,209.5l2.2,2.6l2.2-2.6l-2.2-2.6
				L135.4,209.5z"/>
			<g id="XMLID_3423_">
				<g id="XMLID_309_">
					<ellipse id="XMLID_305_" class="st5" cx="122.9" cy="209.5" rx="0.6" ry="1.8"/>
					<path id="XMLID_306_" class="st1" d="M122.9,211.3c-0.4,0-0.6-0.9-0.6-1.8s0.2-1.8,0.6-1.8s0.6,0.9,0.6,1.8
						S123.3,211.3,122.9,211.3z M122.9,207.8c-0.3,0-0.5,0.7-0.5,1.7s0.3,1.7,0.5,1.7s0.5-0.7,0.5-1.7S123.2,207.8,122.9,207.8z"/>
				</g>
				<g id="XMLID_304_">
					<ellipse id="XMLID_300_" class="st5" cx="133.1" cy="209.5" rx="0.6" ry="1.8"/>
					<path id="XMLID_301_" class="st1" d="M133.1,211.3c-0.4,0-0.6-0.9-0.6-1.8s0.2-1.8,0.6-1.8s0.6,0.9,0.6,1.8
						S133.5,211.3,133.1,211.3z M133.1,207.8c-0.3,0-0.5,0.7-0.5,1.7s0.3,1.7,0.5,1.7s0.5-0.7,0.5-1.7S133.4,207.8,133.1,207.8z"/>
				</g>
			</g>
			<g id="XMLID_3420_">
				<g id="XMLID_299_">
					<ellipse id="XMLID_295_" class="st5" cx="141.6" cy="209.5" rx="0.4" ry="1.2"/>
					<path id="XMLID_296_" class="st1" d="M141.6,210.8c-0.3,0-0.4-0.7-0.4-1.3s0.2-1.3,0.4-1.3s0.4,0.7,0.4,1.3
						S141.9,210.8,141.6,210.8z M141.6,208.4c-0.2,0-0.3,0.5-0.3,1.2s0.2,1.2,0.3,1.2s0.3-0.5,0.3-1.2S141.7,208.4,141.6,208.4z"/>
				</g>
				<g id="XMLID_294_">
					<ellipse id="XMLID_290_" class="st5" cx="114.5" cy="209.5" rx="0.4" ry="1.2"/>
					<path id="XMLID_291_" class="st1" d="M114.5,210.8c-0.3,0-0.4-0.7-0.4-1.3s0.2-1.3,0.4-1.3s0.4,0.7,0.4,1.3
						S114.8,210.8,114.5,210.8z M114.5,208.4c-0.2,0-0.3,0.5-0.3,1.2s0.2,1.2,0.3,1.2s0.3-0.5,0.3-1.2S114.7,208.4,114.5,208.4z"/>
				</g>
			</g>
			<g id="XMLID_289_">
				<rect id="XMLID_285_" x="115" y="239.1" class="st5" width="26.1" height="2.9"/>
				<path id="XMLID_286_" class="st1" d="M141.2,242.2h-26.3V239h26.3V242.2z M115.1,241.9H141v-2.7h-25.8V241.9z"/>
			</g>
			<g id="XMLID_284_">
				<rect id="XMLID_280_" x="117" y="236.6" class="st4" width="22" height="2.6"/>
				<path id="XMLID_281_" class="st1" d="M139.2,239.3h-22.3v-2.8h22.3V239.3z M117.2,239h21.8v-2.3h-21.8V239z"/>
			</g>
			<g id="XMLID_279_">
				<path id="XMLID_275_" class="st5" d="M128,226.5c-3.8,0.5-9.1,10-9.1,10h9.1h9.1C137.1,236.6,131.9,227,128,226.5z"/>
				<path id="XMLID_276_" class="st1" d="M137.3,236.7h-18.6l0.1-0.2c0.2-0.4,5.3-9.6,9.2-10.1l0,0l0,0c3.8,0.5,9,9.7,9.2,10.1
					L137.3,236.7z M119.2,236.4h17.7c-0.8-1.3-5.5-9.3-8.9-9.8C124.6,227.1,119.9,235.1,119.2,236.4z"/>
			</g>
			<g id="XMLID_274_">
				<path id="XMLID_270_" class="st5" d="M127.1,225.2c-1.9-1.2-3.1-6.1-3.1-6.1s2.8,4.9,5.3,5.4L127.1,225.2z"/>
				<path id="XMLID_271_" class="st1" d="M127.1,225.3L127.1,225.3c-2-1.2-3.2-6-3.2-6.2l-0.2-0.9l0.4,0.8c0,0,2.8,4.9,5.2,5.3
					l0.5,0.1L127.1,225.3z M124.3,219.9c0.4,1.4,1.4,4.2,2.8,5.1l1.7-0.6C127,223.8,125.2,221.3,124.3,219.9z"/>
			</g>
			<g id="XMLID_269_">
				<path id="XMLID_265_" class="st5" d="M128.7,225.2c1.9-1.2,3.1-6.1,3.1-6.1s-2.8,4.9-5.3,5.4L128.7,225.2z"/>
				<path id="XMLID_266_" class="st1" d="M128.7,225.3l-2.6-0.9l0.5-0.1c2.4-0.4,5.1-5.3,5.2-5.3l0.4-0.8l-0.2,0.9
					C131.9,219.3,130.7,224.1,128.7,225.3L128.7,225.3z M127,224.5l1.7,0.6c1.4-0.9,2.3-3.7,2.8-5.1
					C130.6,221.3,128.8,223.8,127,224.5z"/>
			</g>
			<g id="XMLID_264_">
				<path id="XMLID_260_" class="st5" d="M129.5,225.8c2.6-0.1,7.2-5.2,7.2-5.2s-6,4-8.6,3L129.5,225.8z"/>
				<path id="XMLID_261_" class="st1" d="M129.5,226l-1.8-2.6l0.4,0.2c2.5,1,8.5-3,8.5-3l0.8-0.6l-0.7,0.7
					C136.6,220.9,132.2,225.8,129.5,226L129.5,226z M128.3,223.9l1.2,1.8c1.9-0.2,5-3.1,6.3-4.4
					C134.2,222.3,130.5,224.3,128.3,223.9z"/>
			</g>
			<g id="XMLID_259_">
				<path id="XMLID_255_" class="st5" d="M125.6,225.8c-2.6-0.1-7.2-5.2-7.2-5.2s6,4,8.6,3L125.6,225.8z"/>
				<path id="XMLID_256_" class="st1" d="M125.6,226L125.6,226c-2.7-0.1-7.1-5-7.3-5.3l-0.7-0.7l0.8,0.6c0.1,0,6,4,8.5,3l0.4-0.2
					L125.6,226z M119.2,221.3c1.3,1.4,4.4,4.3,6.3,4.4l1.2-1.8C124.6,224.3,120.8,222.3,119.2,221.3z"/>
			</g>
			<g id="XMLID_254_">
				<path id="XMLID_250_" class="st5" d="M135.2,232c-0.8-2.9-4.8-5.4-7.1-5.4s-6.3,2.5-7.1,5.4c1.3,1.4,3.3,1.7,4.6,0.2
					c-0.4,2.9,2.5,3.8,2.5,3.8s2.8-0.9,2.5-3.8C131.9,233.6,133.8,233.3,135.2,232z"/>
				<path id="XMLID_251_" class="st1" d="M128,236L128,236c-0.1,0-2.8-0.9-2.6-3.6c-0.6,0.5-1.2,0.8-1.9,0.8c-0.9,0-1.9-0.4-2.6-1.2
					l0-0.1l0-0.1c0.8-3,5-5.5,7.2-5.5s6.4,2.5,7.2,5.5l0,0.1l0,0.1c-0.8,0.8-1.7,1.2-2.6,1.2c-0.7,0-1.4-0.3-1.9-0.8
					C130.8,235.1,128.1,236,128,236L128,236z M125.7,231.8l0,0.4c-0.3,2.6,2,3.5,2.4,3.6c0.3-0.1,2.7-1,2.4-3.6l0-0.4l0.3,0.3
					c0.6,0.6,1.3,0.9,2,1c0,0,0,0,0,0c0.8,0,1.7-0.4,2.4-1.1c-0.8-2.9-4.8-5.3-7-5.3s-6.1,2.3-7,5.3c0.7,0.7,1.5,1.1,2.4,1.1
					c0,0,0,0,0,0c0.7,0,1.4-0.3,2-1L125.7,231.8z"/>
			</g>
			<g id="XMLID_3409_">
				<g id="XMLID_249_">
					<path id="XMLID_247_" class="st5" d="M122,230.8c-0.2,0.3-0.3,0.6-0.4,1c0.3,0.3,0.6,0.5,0.9,0.7"/>
					<path id="XMLID_248_" class="st1" d="M122.4,232.5c-0.3-0.2-0.6-0.4-0.9-0.7l0-0.1l0-0.1c0.1-0.3,0.2-0.7,0.4-1l0.2,0.1
						c-0.2,0.3-0.3,0.6-0.4,0.9c0.2,0.2,0.5,0.4,0.8,0.6L122.4,232.5z"/>
				</g>
				<g id="XMLID_246_">
					<path id="XMLID_244_" class="st5" d="M134.1,230.8c0.2,0.3,0.3,0.6,0.4,1c-0.3,0.3-0.6,0.5-0.9,0.7"/>
					<path id="XMLID_245_" class="st1" d="M133.6,232.5l-0.1-0.2c0.3-0.2,0.5-0.4,0.8-0.6c-0.1-0.3-0.2-0.6-0.4-0.9l0.2-0.1
						c0.2,0.3,0.3,0.7,0.4,1l0,0.1l0,0.1C134.3,232.1,134,232.4,133.6,232.5z"/>
				</g>
			</g>
			<g id="XMLID_243_">
				<ellipse id="XMLID_239_" class="st4" cx="128" cy="226.5" rx="2.5" ry="3.2"/>
				<path id="XMLID_240_" class="st1" d="M128,229.8c-1.4,0-2.6-1.5-2.6-3.3s1.2-3.3,2.6-3.3s2.6,1.5,2.6,3.3S129.5,229.8,128,229.8
					z M128,223.5c-1.3,0-2.4,1.4-2.4,3s1.1,3,2.4,3s2.4-1.4,2.4-3S129.3,223.5,128,223.5z"/>
			</g>
			<g id="XMLID_238_">
				<ellipse id="XMLID_234_" class="st3" cx="128" cy="226.5" rx="1.4" ry="1.7"/>
				<path id="XMLID_235_" class="st1" d="M128,228.4c-0.8,0-1.5-0.8-1.5-1.9s0.7-1.9,1.5-1.9s1.5,0.8,1.5,1.9S128.9,228.4,128,228.4
					z M128,224.9c-0.7,0-1.2,0.7-1.2,1.6s0.6,1.6,1.2,1.6s1.2-0.7,1.2-1.6S128.7,224.9,128,224.9z"/>
			</g>
			<g id="XMLID_233_">
				<path id="XMLID_231_" class="st5" d="M127.1,234.7c0.5,0.4,1,0.5,1,0.5s0.5-0.1,1-0.5"/>
				<path id="XMLID_232_" class="st1" d="M128,235.3L128,235.3c-0.1,0-0.5-0.2-1.1-0.5l0.1-0.2c0.4,0.3,0.8,0.4,0.9,0.5
					c0.1,0,0.5-0.2,0.9-0.5l0.1,0.2C128.6,235.2,128.1,235.3,128,235.3L128,235.3z"/>
			</g>
		</g>
		<g id="XMLID_3349_">
			<g id="XMLID_230_">
				<path id="XMLID_208_" class="st2" d="M59.8,139.7l-4.4-5.1l-2.1,4.8l-3.4-6.8l-3.4-2.1l-1.6,8.9l-4.2-6.3l-4.9,3.2l-3.8-3.8
					c-0.5,1.4-1,2.9-1.4,4.5c-1,3.9-1.7,7.7-1.2,11.8c0.9,8,7.9,16.3,17.5,15c7.9-1,13.8-8.8,13.8-17.8
					C60.6,143.8,60.3,141.7,59.8,139.7"/>
				<path id="XMLID_227_" class="st1" d="M44.8,164.1c-3.2,0-6.3-1.1-9-3.2c-3.7-2.9-6.2-7.4-6.7-12.1c-0.5-4.4,0.4-8.4,1.2-11.9
					c0.4-1.6,0.9-3.1,1.4-4.5l0.1-0.2l3.9,3.8l4.9-3.3l4.1,6.2l1.6-8.8l3.6,2.2l0,0l3.3,6.6l2.1-4.8l4.5,5.3l-0.1,0.1l0.1,0
					c0.5,2.3,0.8,4.4,0.8,6.4c0,4.4-1.4,8.7-4,12c-2.6,3.3-6.1,5.5-9.9,6C46.1,164,45.4,164.1,44.8,164.1z M32,132.7
					c-0.5,1.4-1,2.8-1.3,4.3c-0.9,3.4-1.7,7.5-1.2,11.8c0.5,4.6,3,9.1,6.6,11.9c3.1,2.5,6.9,3.5,10.8,3c7.8-1,13.7-8.6,13.7-17.7
					c0-1.9-0.2-4-0.8-6.3l-4.3-5l-2.1,4.9l-3.5-7l-3.2-2l-1.7,9l-4.3-6.5l-4.9,3.2L32,132.7z"/>
			</g>
			<polygon id="XMLID_3402_" class="st3" points="61.5,147.5 59.7,147.5 60.6,144.7 			"/>
			<polygon id="XMLID_3401_" class="st4" points="60.1,150.2 59.7,147.5 61.5,147.5 			"/>
			<polygon id="XMLID_3400_" class="st3" points="30.1,147.5 28.2,147.5 29.1,144.7 			"/>
			<polygon id="XMLID_3399_" class="st3" points="37.7,147.5 33,147.5 35.4,144.7 			"/>
			<polygon id="XMLID_3398_" class="st4" points="35.4,150.2 33,147.5 37.7,147.5 			"/>
			<polygon id="XMLID_3397_" class="st3" points="56.7,147.5 52,147.5 54.4,144.7 			"/>
			<polygon id="XMLID_3396_" class="st4" points="54.4,150.2 52,147.5 56.7,147.5 			"/>
			<polygon id="XMLID_226_" class="st1" points="48,150.8 45.4,145 45.5,145 46.1,142.5 44.8,139.4 45,139.3 46.4,142.5 46.4,142.5 
				45.7,145 48.2,150.7 			"/>
			<polygon id="XMLID_225_" class="st1" points="35.5,144.3 35.3,144.1 36.2,142.9 32.8,141.5 35.6,136.2 35.8,136.3 33.2,141.4 
				36.6,142.8 			"/>
			<polygon id="XMLID_224_" class="st1" points="53.3,143 50.8,141.8 53.2,139.3 53.4,139.4 51.2,141.7 53.4,142.8 			"/>
			<g id="XMLID_3390_">
				<polygon id="XMLID_3392_" class="st4" points="44.9,151.8 41.7,147.5 48.1,147.5 				"/>
				<polygon id="XMLID_3391_" class="st3" points="48.1,147.5 41.7,147.5 44.9,143.1 				"/>
			</g>
			<path id="XMLID_221_" class="st1" d="M44.9,152l-3.4-4.5l3.4-4.5l3.4,4.5L44.9,152z M41.8,147.5l3.1,4.1l3.1-4.1l-3.1-4.1
				L41.8,147.5z"/>
			<g id="XMLID_3386_">
				<polygon id="XMLID_3388_" class="st4" points="29.5,150.2 28.2,147.5 30.1,147.5 				"/>
				<path id="XMLID_218_" class="st1" d="M29.6,150.6l-1.5-3.2l0,0l1-3.2l1.1,3.2l0,0L29.6,150.6z M28.4,147.4l1.1,2.4l0.5-2.4
					l-0.8-2.4L28.4,147.4z"/>
			</g>
			<g id="XMLID_3383_">
				<polygon id="XMLID_3385_" class="st4" points="60.1,150.2 61.4,147.5 59.6,147.5 				"/>
				<path id="XMLID_215_" class="st1" d="M60.1,150.6l-0.6-3.2l0,0l1-3.2l1.1,3.2l0,0L60.1,150.6z M59.7,147.5l0.5,2.4l1.1-2.4
					l-0.8-2.4L59.7,147.5z"/>
			</g>
			<path id="XMLID_212_" class="st1" d="M35.4,150.4l-2.5-3l2.5-3l2.5,3L35.4,150.4z M33.2,147.5l2.2,2.6l2.2-2.6l-2.2-2.6
				L33.2,147.5z"/>
			<path id="XMLID_209_" class="st1" d="M54.4,150.4l-2.5-3l2.5-3l2.5,3L54.4,150.4z M52.2,147.5l2.2,2.6l2.2-2.6l-2.2-2.6
				L52.2,147.5z"/>
			<g id="XMLID_3378_">
				<g id="XMLID_207_">
					<ellipse id="XMLID_203_" class="st5" cx="39.8" cy="147.5" rx="0.6" ry="1.8"/>
					<path id="XMLID_204_" class="st1" d="M39.8,149.3c-0.4,0-0.6-0.9-0.6-1.8s0.2-1.8,0.6-1.8s0.6,0.9,0.6,1.8
						S40.2,149.3,39.8,149.3z M39.8,145.7c-0.3,0-0.5,0.7-0.5,1.7s0.3,1.7,0.5,1.7s0.5-0.7,0.5-1.7S40,145.7,39.8,145.7z"/>
				</g>
				<g id="XMLID_202_">
					<ellipse id="XMLID_198_" class="st5" cx="50" cy="147.5" rx="0.6" ry="1.8"/>
					<path id="XMLID_199_" class="st1" d="M50,149.3c-0.4,0-0.6-0.9-0.6-1.8s0.2-1.8,0.6-1.8s0.6,0.9,0.6,1.8S50.4,149.3,50,149.3z
						 M50,145.7c-0.3,0-0.5,0.7-0.5,1.7s0.3,1.7,0.5,1.7s0.5-0.7,0.5-1.7S50.2,145.7,50,145.7z"/>
				</g>
			</g>
			<g id="XMLID_3375_">
				<g id="XMLID_197_">
					<ellipse id="XMLID_193_" class="st5" cx="58.4" cy="147.5" rx="0.4" ry="1.2"/>
					<path id="XMLID_194_" class="st1" d="M58.4,148.7c-0.3,0-0.4-0.7-0.4-1.3s0.2-1.3,0.4-1.3s0.4,0.7,0.4,1.3
						S58.7,148.7,58.4,148.7z M58.4,146.3c-0.2,0-0.3,0.5-0.3,1.2s0.2,1.2,0.3,1.2s0.3-0.5,0.3-1.2S58.6,146.3,58.4,146.3z"/>
				</g>
				<g id="XMLID_192_">
					<ellipse id="XMLID_188_" class="st5" cx="31.3" cy="147.5" rx="0.4" ry="1.2"/>
					<path id="XMLID_189_" class="st1" d="M31.3,148.7c-0.3,0-0.4-0.7-0.4-1.3s0.2-1.3,0.4-1.3s0.4,0.7,0.4,1.3
						S31.6,148.7,31.3,148.7z M31.3,146.3c-0.2,0-0.3,0.5-0.3,1.2s0.2,1.2,0.3,1.2s0.3-0.5,0.3-1.2S31.5,146.3,31.3,146.3z"/>
				</g>
			</g>
			<g id="XMLID_187_">
				<rect id="XMLID_183_" x="31.8" y="177" class="st5" width="26.1" height="2.9"/>
				<path id="XMLID_184_" class="st1" d="M58,180.1H31.7v-3.2H58V180.1z M32,179.8h25.8v-2.7H32V179.8z"/>
			</g>
			<g id="XMLID_182_">
				<rect id="XMLID_178_" x="33.8" y="174.5" class="st4" width="22" height="2.6"/>
				<path id="XMLID_179_" class="st1" d="M56,177.2H33.7v-2.8H56V177.2z M34,176.9h21.8v-2.3H34V176.9z"/>
			</g>
			<g id="XMLID_177_">
				<path id="XMLID_173_" class="st5" d="M44.9,164.5c-3.8,0.5-9.1,10-9.1,10h9.1h9.1C53.9,174.5,48.7,164.9,44.9,164.5z"/>
				<path id="XMLID_174_" class="st1" d="M54.2,174.6H35.6l0.1-0.2c0.2-0.4,5.3-9.6,9.2-10.1l0,0l0,0c3.8,0.5,9,9.7,9.2,10.1
					L54.2,174.6z M36,174.4h17.7c-0.8-1.3-5.5-9.3-8.9-9.8C41.5,165,36.8,173,36,174.4z"/>
			</g>
			<g id="XMLID_172_">
				<path id="XMLID_168_" class="st5" d="M43.9,163.1c-1.9-1.2-3.1-6.1-3.1-6.1s2.8,4.9,5.3,5.4L43.9,163.1z"/>
				<path id="XMLID_169_" class="st1" d="M43.9,163.2L43.9,163.2c-2-1.2-3.2-6-3.2-6.2l-0.2-0.9l0.4,0.8c0,0,2.8,4.9,5.2,5.3
					l0.5,0.1L43.9,163.2z M41.1,157.9c0.4,1.4,1.4,4.2,2.8,5.1l1.7-0.6C43.8,161.8,42,159.2,41.1,157.9z"/>
			</g>
			<g id="XMLID_167_">
				<path id="XMLID_163_" class="st5" d="M45.5,163.1c1.9-1.2,3.1-6.1,3.1-6.1s-2.8,4.9-5.3,5.4L45.5,163.1z"/>
				<path id="XMLID_164_" class="st1" d="M45.5,163.2l-2.6-0.9l0.5-0.1c2.4-0.4,5.1-5.3,5.2-5.3l0.4-0.8l-0.2,0.9
					C48.7,157.3,47.6,162,45.5,163.2L45.5,163.2z M43.8,162.4l1.7,0.6c1.4-0.9,2.3-3.7,2.8-5.1C47.5,159.2,45.6,161.8,43.8,162.4z"
					/>
			</g>
			<g id="XMLID_162_">
				<path id="XMLID_158_" class="st5" d="M46.4,163.7c2.6-0.1,7.2-5.2,7.2-5.2s-6,4-8.6,3L46.4,163.7z"/>
				<path id="XMLID_159_" class="st1" d="M46.3,163.9l-1.8-2.6l0.4,0.2c2.5,1,8.5-3,8.5-3l0.8-0.6l-0.7,0.7
					C53.4,158.8,49,163.7,46.3,163.9L46.3,163.9z M45.2,161.8l1.2,1.8c1.9-0.2,5-3.1,6.3-4.4C51.1,160.2,47.3,162.3,45.2,161.8z"/>
			</g>
			<g id="XMLID_157_">
				<path id="XMLID_153_" class="st5" d="M42.4,163.7c-2.6-0.1-7.2-5.2-7.2-5.2s6,4,8.6,3L42.4,163.7z"/>
				<path id="XMLID_154_" class="st1" d="M42.4,163.9L42.4,163.9c-2.7-0.1-7.1-5-7.3-5.3l-0.7-0.7l0.8,0.6c0.1,0,6,4,8.5,3l0.4-0.2
					L42.4,163.9z M36,159.2c1.3,1.4,4.4,4.3,6.3,4.4l1.2-1.8C41.4,162.3,37.7,160.2,36,159.2z"/>
			</g>
			<g id="XMLID_152_">
				<path id="XMLID_148_" class="st5" d="M52,169.9c-0.8-2.9-4.8-5.4-7.1-5.4c-2.3,0-6.3,2.5-7.1,5.4c1.3,1.4,3.3,1.7,4.6,0.2
					c-0.4,2.9,2.5,3.8,2.5,3.8s2.8-0.9,2.5-3.8C48.7,171.5,50.6,171.3,52,169.9z"/>
				<path id="XMLID_149_" class="st1" d="M44.9,173.9L44.9,173.9c-0.1,0-2.8-0.9-2.6-3.6c-0.6,0.5-1.2,0.8-1.9,0.8
					c-0.9,0-1.9-0.4-2.6-1.2l0-0.1l0-0.1c0.8-3,5-5.5,7.2-5.5s6.4,2.5,7.2,5.5l0,0.1l0,0.1c-0.8,0.8-1.7,1.2-2.6,1.2
					c-0.7,0-1.4-0.3-1.9-0.8C47.6,173.1,44.9,173.9,44.9,173.9L44.9,173.9z M42.5,169.7l0,0.4c-0.3,2.6,2,3.5,2.4,3.6
					c0.3-0.1,2.7-1,2.4-3.6l0-0.4l0.3,0.3c0.6,0.6,1.3,0.9,2,1c0,0,0,0,0,0c0.8,0,1.7-0.4,2.4-1.1c-0.8-2.9-4.8-5.3-7-5.3
					s-6.1,2.3-7,5.3c0.7,0.7,1.5,1.1,2.4,1.1c0,0,0,0,0,0c0.7,0,1.4-0.3,2-1L42.5,169.7z"/>
			</g>
			<g id="XMLID_3353_">
				<g id="XMLID_147_">
					<path id="XMLID_145_" class="st5" d="M38.9,168.7c-0.2,0.3-0.3,0.6-0.4,1c0.3,0.3,0.6,0.5,0.9,0.7"/>
					<path id="XMLID_146_" class="st1" d="M39.3,170.4c-0.3-0.2-0.6-0.4-0.9-0.7l0-0.1l0-0.1c0.1-0.3,0.2-0.7,0.4-1l0.2,0.1
						c-0.2,0.3-0.3,0.6-0.4,0.9c0.2,0.2,0.5,0.4,0.8,0.6L39.3,170.4z"/>
				</g>
				<g id="XMLID_144_">
					<path id="XMLID_142_" class="st5" d="M50.9,168.7c0.2,0.3,0.3,0.6,0.4,1c-0.3,0.3-0.6,0.5-0.9,0.7"/>
					<path id="XMLID_143_" class="st1" d="M50.5,170.4l-0.1-0.2c0.3-0.2,0.5-0.4,0.8-0.6c-0.1-0.3-0.2-0.6-0.4-0.9l0.2-0.1
						c0.2,0.3,0.3,0.7,0.4,1l0,0.1l0,0.1C51.1,170,50.8,170.3,50.5,170.4z"/>
				</g>
			</g>
			<g id="XMLID_141_">
				<ellipse id="XMLID_137_" class="st4" cx="44.9" cy="164.5" rx="2.5" ry="3.2"/>
				<path id="XMLID_138_" class="st1" d="M44.9,167.8c-1.4,0-2.6-1.5-2.6-3.3s1.2-3.3,2.6-3.3s2.6,1.5,2.6,3.3
					S46.3,167.8,44.9,167.8z M44.9,161.4c-1.3,0-2.4,1.4-2.4,3c0,1.7,1.1,3,2.4,3s2.4-1.4,2.4-3C47.2,162.8,46.2,161.4,44.9,161.4z"
					/>
			</g>
			<g id="XMLID_136_">
				<ellipse id="XMLID_132_" class="st3" cx="44.9" cy="164.5" rx="1.4" ry="1.7"/>
				<path id="XMLID_133_" class="st1" d="M44.9,166.3c-0.8,0-1.5-0.8-1.5-1.9s0.7-1.9,1.5-1.9s1.5,0.8,1.5,1.9
					S45.7,166.3,44.9,166.3z M44.9,162.9c-0.7,0-1.2,0.7-1.2,1.6s0.6,1.6,1.2,1.6s1.2-0.7,1.2-1.6S45.5,162.9,44.9,162.9z"/>
			</g>
			<g id="XMLID_131_">
				<path id="XMLID_129_" class="st5" d="M43.9,172.6c0.5,0.4,1,0.5,1,0.5s0.5-0.1,1-0.5"/>
				<path id="XMLID_130_" class="st1" d="M44.9,173.3L44.9,173.3c-0.1,0-0.5-0.2-1.1-0.5l0.1-0.2c0.4,0.3,0.8,0.4,0.9,0.5
					c0.1,0,0.5-0.2,0.9-0.5l0.1,0.2C45.4,173.1,44.9,173.2,44.9,173.3L44.9,173.3z"/>
			</g>
		</g>
		<g id="XMLID_1446_">
			<g id="XMLID_128_">
				<path id="XMLID_106_" class="st2" d="M143,139.7l-4.4-5.1l-2.1,4.8l-3.4-6.8l-3.4-2.1l-1.6,8.9l-4.2-6.3l-4.9,3.2l-3.8-3.8
					c-0.5,1.4-1,2.9-1.4,4.5c-1,3.9-1.7,7.7-1.2,11.8c0.9,8,7.9,16.3,17.5,15c7.9-1,13.8-8.8,13.8-17.8
					C143.8,143.8,143.5,141.7,143,139.7"/>
				<path id="XMLID_125_" class="st1" d="M128,164.1c-3.2,0-6.3-1.1-9-3.2c-3.7-2.9-6.2-7.4-6.7-12.1c-0.5-4.4,0.4-8.4,1.2-11.9
					c0.4-1.6,0.9-3.1,1.4-4.5l0.1-0.2l3.9,3.8l4.9-3.3l4.1,6.2l1.6-8.8l3.6,2.2l0,0l3.3,6.6l2.1-4.8l4.5,5.3l-0.1,0.1l0.1,0
					c0.5,2.3,0.8,4.4,0.8,6.4c0,4.4-1.4,8.7-4,12c-2.6,3.3-6.1,5.5-9.9,6C129.3,164,128.6,164.1,128,164.1z M115.1,132.7
					c-0.5,1.4-1,2.8-1.3,4.3c-0.9,3.4-1.7,7.5-1.2,11.8c0.5,4.6,3,9.1,6.6,11.9c3.1,2.5,6.9,3.5,10.8,3c7.8-1,13.7-8.6,13.7-17.7
					c0-1.9-0.2-4-0.8-6.3l-4.3-5l-2.1,4.9l-3.5-7l-3.2-2l-1.7,9l-4.3-6.5l-4.9,3.2L115.1,132.7z"/>
			</g>
			<polygon id="XMLID_2887_" class="st3" points="144.7,147.5 142.8,147.5 143.8,144.7 			"/>
			<polygon id="XMLID_2886_" class="st4" points="143.3,150.2 142.8,147.5 144.7,147.5 			"/>
			<polygon id="XMLID_2885_" class="st3" points="113.2,147.5 111.4,147.5 112.3,144.7 			"/>
			<polygon id="XMLID_2875_" class="st3" points="120.9,147.5 116.2,147.5 118.5,144.7 			"/>
			<polygon id="XMLID_2872_" class="st4" points="118.5,150.2 116.2,147.5 120.9,147.5 			"/>
			<polygon id="XMLID_2871_" class="st3" points="139.9,147.5 135.2,147.5 137.5,144.7 			"/>
			<polygon id="XMLID_2870_" class="st4" points="137.5,150.2 135.2,147.5 139.9,147.5 			"/>
			<polygon id="XMLID_124_" class="st1" points="131.1,150.8 128.6,145 128.6,145 129.3,142.5 127.9,139.4 128.2,139.3 129.6,142.5 
				129.6,142.5 128.9,145 131.4,150.7 			"/>
			<polygon id="XMLID_123_" class="st1" points="118.6,144.3 118.4,144.1 119.4,142.9 116,141.5 118.8,136.2 119,136.3 116.4,141.4 
				119.8,142.8 			"/>
			<polygon id="XMLID_122_" class="st1" points="136.5,143 134,141.8 136.4,139.3 136.6,139.4 134.4,141.7 136.6,142.8 			"/>
			<g id="XMLID_2864_">
				<polygon id="XMLID_2866_" class="st4" points="128,151.8 124.8,147.5 131.3,147.5 				"/>
				<polygon id="XMLID_2865_" class="st3" points="131.3,147.5 124.8,147.5 128,143.1 				"/>
			</g>
			<path id="XMLID_119_" class="st1" d="M128,152l-3.4-4.5l3.4-4.5l3.4,4.5L128,152z M125,147.5l3.1,4.1l3.1-4.1l-3.1-4.1L125,147.5
				z"/>
			<g id="XMLID_2860_">
				<polygon id="XMLID_2862_" class="st4" points="112.7,150.2 111.4,147.5 113.2,147.5 				"/>
				<path id="XMLID_116_" class="st1" d="M112.7,150.6l-1.5-3.2l0,0l1-3.2l1.1,3.2l0,0L112.7,150.6z M111.5,147.4l1.1,2.4l0.5-2.4
					l-0.8-2.4L111.5,147.4z"/>
			</g>
			<g id="XMLID_2857_">
				<polygon id="XMLID_2859_" class="st4" points="143.3,150.2 144.6,147.5 142.8,147.5 				"/>
				<path id="XMLID_113_" class="st1" d="M143.3,150.6l-0.6-3.2l0,0l1-3.2l1.1,3.2l0,0L143.3,150.6z M142.9,147.5l0.5,2.4l1.1-2.4
					l-0.8-2.4L142.9,147.5z"/>
			</g>
			<path id="XMLID_110_" class="st1" d="M118.5,150.4l-2.5-3l2.5-3l2.5,3L118.5,150.4z M116.4,147.5l2.2,2.6l2.2-2.6l-2.2-2.6
				L116.4,147.5z"/>
			<path id="XMLID_107_" class="st1" d="M137.5,150.4l-2.5-3l2.5-3l2.5,3L137.5,150.4z M135.4,147.5l2.2,2.6l2.2-2.6l-2.2-2.6
				L135.4,147.5z"/>
			<g id="XMLID_2852_">
				<g id="XMLID_105_">
					<ellipse id="XMLID_101_" class="st5" cx="122.9" cy="147.5" rx="0.6" ry="1.8"/>
					<path id="XMLID_102_" class="st1" d="M122.9,149.3c-0.4,0-0.6-0.9-0.6-1.8s0.2-1.8,0.6-1.8s0.6,0.9,0.6,1.8
						S123.3,149.3,122.9,149.3z M122.9,145.7c-0.3,0-0.5,0.7-0.5,1.7s0.3,1.7,0.5,1.7s0.5-0.7,0.5-1.7S123.2,145.7,122.9,145.7z"/>
				</g>
				<g id="XMLID_100_">
					<ellipse id="XMLID_96_" class="st5" cx="133.1" cy="147.5" rx="0.6" ry="1.8"/>
					<path id="XMLID_97_" class="st1" d="M133.1,149.3c-0.4,0-0.6-0.9-0.6-1.8s0.2-1.8,0.6-1.8s0.6,0.9,0.6,1.8
						S133.5,149.3,133.1,149.3z M133.1,145.7c-0.3,0-0.5,0.7-0.5,1.7s0.3,1.7,0.5,1.7s0.5-0.7,0.5-1.7S133.4,145.7,133.1,145.7z"/>
				</g>
			</g>
			<g id="XMLID_2849_">
				<g id="XMLID_95_">
					<ellipse id="XMLID_91_" class="st5" cx="141.6" cy="147.5" rx="0.4" ry="1.2"/>
					<path id="XMLID_92_" class="st1" d="M141.6,148.7c-0.3,0-0.4-0.7-0.4-1.3s0.2-1.3,0.4-1.3s0.4,0.7,0.4,1.3
						S141.9,148.7,141.6,148.7z M141.6,146.3c-0.2,0-0.3,0.5-0.3,1.2s0.2,1.2,0.3,1.2s0.3-0.5,0.3-1.2S141.7,146.3,141.6,146.3z"/>
				</g>
				<g id="XMLID_90_">
					<ellipse id="XMLID_86_" class="st5" cx="114.5" cy="147.5" rx="0.4" ry="1.2"/>
					<path id="XMLID_87_" class="st1" d="M114.5,148.7c-0.3,0-0.4-0.7-0.4-1.3s0.2-1.3,0.4-1.3s0.4,0.7,0.4,1.3
						S114.8,148.7,114.5,148.7z M114.5,146.3c-0.2,0-0.3,0.5-0.3,1.2s0.2,1.2,0.3,1.2s0.3-0.5,0.3-1.2S114.7,146.3,114.5,146.3z"/>
				</g>
			</g>
			<g id="XMLID_85_">
				<rect id="XMLID_81_" x="115" y="177" class="st5" width="26.1" height="2.9"/>
				<path id="XMLID_82_" class="st1" d="M141.2,180.1h-26.3v-3.2h26.3V180.1z M115.1,179.8H141v-2.7h-25.8V179.8z"/>
			</g>
			<g id="XMLID_80_">
				<rect id="XMLID_76_" x="117" y="174.5" class="st4" width="22" height="2.6"/>
				<path id="XMLID_77_" class="st1" d="M139.2,177.2h-22.3v-2.8h22.3V177.2z M117.2,176.9h21.8v-2.3h-21.8V176.9z"/>
			</g>
			<g id="XMLID_75_">
				<path id="XMLID_71_" class="st5" d="M128,164.5c-3.8,0.5-9.1,10-9.1,10h9.1h9.1C137.1,174.5,131.9,164.9,128,164.5z"/>
				<path id="XMLID_72_" class="st1" d="M137.3,174.6h-18.6l0.1-0.2c0.2-0.4,5.3-9.6,9.2-10.1l0,0l0,0c3.8,0.5,9,9.7,9.2,10.1
					L137.3,174.6z M119.2,174.4h17.7c-0.8-1.3-5.5-9.3-8.9-9.8C124.6,165,119.9,173,119.2,174.4z"/>
			</g>
			<g id="XMLID_70_">
				<path id="XMLID_66_" class="st5" d="M127.1,163.1c-1.9-1.2-3.1-6.1-3.1-6.1s2.8,4.9,5.3,5.4L127.1,163.1z"/>
				<path id="XMLID_67_" class="st1" d="M127.1,163.2L127.1,163.2c-2-1.2-3.2-6-3.2-6.2l-0.2-0.9l0.4,0.8c0,0,2.8,4.9,5.2,5.3
					l0.5,0.1L127.1,163.2z M124.3,157.9c0.4,1.4,1.4,4.2,2.8,5.1l1.7-0.6C127,161.8,125.2,159.2,124.3,157.9z"/>
			</g>
			<g id="XMLID_65_">
				<path id="XMLID_61_" class="st5" d="M128.7,163.1c1.9-1.2,3.1-6.1,3.1-6.1s-2.8,4.9-5.3,5.4L128.7,163.1z"/>
				<path id="XMLID_62_" class="st1" d="M128.7,163.2l-2.6-0.9l0.5-0.1c2.4-0.4,5.1-5.3,5.2-5.3l0.4-0.8l-0.2,0.9
					C131.9,157.3,130.7,162,128.7,163.2L128.7,163.2z M127,162.4l1.7,0.6c1.4-0.9,2.3-3.7,2.8-5.1
					C130.6,159.2,128.8,161.8,127,162.4z"/>
			</g>
			<g id="XMLID_60_">
				<path id="XMLID_56_" class="st5" d="M129.5,163.7c2.6-0.1,7.2-5.2,7.2-5.2s-6,4-8.6,3L129.5,163.7z"/>
				<path id="XMLID_57_" class="st1" d="M129.5,163.9l-1.8-2.6l0.4,0.2c2.5,1,8.5-3,8.5-3l0.8-0.6l-0.7,0.7
					C136.6,158.8,132.2,163.7,129.5,163.9L129.5,163.9z M128.3,161.8l1.2,1.8c1.9-0.2,5-3.1,6.3-4.4
					C134.2,160.2,130.5,162.3,128.3,161.8z"/>
			</g>
			<g id="XMLID_55_">
				<path id="XMLID_51_" class="st5" d="M125.6,163.7c-2.6-0.1-7.2-5.2-7.2-5.2s6,4,8.6,3L125.6,163.7z"/>
				<path id="XMLID_52_" class="st1" d="M125.6,163.9L125.6,163.9c-2.7-0.1-7.1-5-7.3-5.3l-0.7-0.7l0.8,0.6c0.1,0,6,4,8.5,3l0.4-0.2
					L125.6,163.9z M119.2,159.2c1.3,1.4,4.4,4.3,6.3,4.4l1.2-1.8C124.6,162.3,120.8,160.2,119.2,159.2z"/>
			</g>
			<g id="XMLID_50_">
				<path id="XMLID_46_" class="st5" d="M135.2,169.9c-0.8-2.9-4.8-5.4-7.1-5.4s-6.3,2.5-7.1,5.4c1.3,1.4,3.3,1.7,4.6,0.2
					c-0.4,2.9,2.5,3.8,2.5,3.8s2.8-0.9,2.5-3.8C131.9,171.5,133.8,171.3,135.2,169.9z"/>
				<path id="XMLID_47_" class="st1" d="M128,173.9L128,173.9c-0.1,0-2.8-0.9-2.6-3.6c-0.6,0.5-1.2,0.8-1.9,0.8
					c-0.9,0-1.9-0.4-2.6-1.2l0-0.1l0-0.1c0.8-3,5-5.5,7.2-5.5s6.4,2.5,7.2,5.5l0,0.1l0,0.1c-0.8,0.8-1.7,1.2-2.6,1.2
					c-0.7,0-1.4-0.3-1.9-0.8C130.8,173.1,128.1,173.9,128,173.9L128,173.9z M125.7,169.7l0,0.4c-0.3,2.6,2,3.5,2.4,3.6
					c0.3-0.1,2.7-1,2.4-3.6l0-0.4l0.3,0.3c0.6,0.6,1.3,0.9,2,1c0,0,0,0,0,0c0.8,0,1.7-0.4,2.4-1.1c-0.8-2.9-4.8-5.3-7-5.3
					s-6.1,2.3-7,5.3c0.7,0.7,1.5,1.1,2.4,1.1c0,0,0,0,0,0c0.7,0,1.4-0.3,2-1L125.7,169.7z"/>
			</g>
			<g id="XMLID_1450_">
				<g id="XMLID_45_">
					<path id="XMLID_43_" class="st5" d="M122,168.7c-0.2,0.3-0.3,0.6-0.4,1c0.3,0.3,0.6,0.5,0.9,0.7"/>
					<path id="XMLID_44_" class="st1" d="M122.4,170.4c-0.3-0.2-0.6-0.4-0.9-0.7l0-0.1l0-0.1c0.1-0.3,0.2-0.7,0.4-1l0.2,0.1
						c-0.2,0.3-0.3,0.6-0.4,0.9c0.2,0.2,0.5,0.4,0.8,0.6L122.4,170.4z"/>
				</g>
				<g id="XMLID_42_">
					<path id="XMLID_40_" class="st5" d="M134.1,168.7c0.2,0.3,0.3,0.6,0.4,1c-0.3,0.3-0.6,0.5-0.9,0.7"/>
					<path id="XMLID_41_" class="st1" d="M133.6,170.4l-0.1-0.2c0.3-0.2,0.5-0.4,0.8-0.6c-0.1-0.3-0.2-0.6-0.4-0.9l0.2-0.1
						c0.2,0.3,0.3,0.7,0.4,1l0,0.1l0,0.1C134.3,170,134,170.3,133.6,170.4z"/>
				</g>
			</g>
			<g id="XMLID_39_">
				<ellipse id="XMLID_35_" class="st4" cx="128" cy="164.5" rx="2.5" ry="3.2"/>
				<path id="XMLID_36_" class="st1" d="M128,167.8c-1.4,0-2.6-1.5-2.6-3.3s1.2-3.3,2.6-3.3s2.6,1.5,2.6,3.3S129.5,167.8,128,167.8z
					 M128,161.4c-1.3,0-2.4,1.4-2.4,3c0,1.7,1.1,3,2.4,3s2.4-1.4,2.4-3C130.4,162.8,129.3,161.4,128,161.4z"/>
			</g>
			<g id="XMLID_34_">
				<ellipse id="XMLID_30_" class="st3" cx="128" cy="164.5" rx="1.4" ry="1.7"/>
				<path id="XMLID_31_" class="st1" d="M128,166.3c-0.8,0-1.5-0.8-1.5-1.9s0.7-1.9,1.5-1.9s1.5,0.8,1.5,1.9S128.9,166.3,128,166.3z
					 M128,162.9c-0.7,0-1.2,0.7-1.2,1.6s0.6,1.6,1.2,1.6s1.2-0.7,1.2-1.6S128.7,162.9,128,162.9z"/>
			</g>
			<g id="XMLID_29_">
				<path id="XMLID_27_" class="st5" d="M127.1,172.6c0.5,0.4,1,0.5,1,0.5s0.5-0.1,1-0.5"/>
				<path id="XMLID_28_" class="st1" d="M128,173.3L128,173.3c-0.1,0-0.5-0.2-1.1-0.5l0.1-0.2c0.4,0.3,0.8,0.4,0.9,0.5
					c0.1,0,0.5-0.2,0.9-0.5l0.1,0.2C128.6,173.1,128.1,173.2,128,173.3L128,173.3z"/>
			</g>
		</g>
	</g>
</g>
</svg>
