<?xml version="1.0" encoding="utf-8"?>
<!-- Generator: Adobe Illustrator 19.0.0, SVG Export Plug-In . SVG Version: 6.00 Build 0)  -->
<svg version="1.1" id="Capa_1" xmlns="http://www.w3.org/2000/svg" xmlns:xlink="http://www.w3.org/1999/xlink" x="0px" y="0px"
	 viewBox="0 0 172.9 269.3" style="enable-background:new 0 0 172.9 269.3;" xml:space="preserve">
<style type="text/css">
	.st0{fill:#FFFFFF;}
	.st1{fill:url(#XMLID_2_);}
	.st2{fill:#F07E1A;}
	.st3{fill:url(#XMLID_3_);}
	.st4{fill:url(#XMLID_4_);}
	.st5{fill:url(#XMLID_5_);}
	.st6{fill:url(#XMLID_6_);}
	.st7{fill:url(#XMLID_7_);}
	.st8{fill:url(#XMLID_8_);}
	.st9{fill:#010202;}
</style>
<rect id="XMLID_6477_" x="0" y="0" class="st0" width="172.9" height="269.3"/>
<g id="XMLID_5706_">
	<g id="XMLID_4643_">
		<g id="XMLID_4689_">
			<polygon id="XMLID_4697_" points="72.8,159.3 75.4,157.8 72.8,156.3 75.1,154.4 72.4,153.3 74.5,151.2 71.6,150.4 73.4,148 
				70.5,147.6 72,145.1 69,145.1 70.1,142.3 67.1,142.7 67.9,139.8 65,140.6 65.4,137.6 62.7,138.7 62.7,135.8 60.1,137.2 
				59.7,134.3 57.3,136.1 56.5,133.2 54.4,135.3 53.3,132.6 51.4,134.9 49.9,132.3 48.5,134.9 46.6,132.6 45.5,135.3 43.4,133.2 
				42.6,136.1 40.2,134.3 39.8,137.2 37.2,135.8 37.2,138.7 34.5,137.6 34.9,140.6 32,139.8 32.8,142.7 29.8,142.3 30.9,145.1 
				27.9,145.1 29.4,147.6 26.5,148 28.3,150.4 25.4,151.2 27.5,153.3 24.8,154.4 27.1,156.3 24.5,157.8 27.1,159.3 24.8,161.1 
				27.5,162.2 25.4,164.3 28.3,165.1 26.5,167.5 29.4,167.9 27.9,170.5 30.9,170.5 29.8,173.2 32.8,172.8 32,175.7 34.9,174.9 
				34.5,177.9 37.2,176.8 37.2,179.8 39.8,178.3 40.2,181.2 42.6,179.4 43.4,182.3 45.5,180.2 46.6,182.9 48.5,180.6 49.9,183.2 
				51.4,180.6 53.3,182.9 54.4,180.2 56.5,182.3 57.3,179.4 59.7,181.2 60.1,178.3 62.7,179.8 62.7,176.8 65.4,177.9 65,174.9 
				67.9,175.7 67.1,172.8 70.1,173.2 69,170.5 72,170.5 70.5,167.9 73.4,167.5 71.6,165.1 74.5,164.3 72.4,162.2 75.1,161.1 			"/>
			
				<radialGradient id="XMLID_2_" cx="468.1093" cy="187.7165" r="27.8554" gradientTransform="matrix(0.7833 0 0 0.7833 -316.7197 10.7199)" gradientUnits="userSpaceOnUse">
				<stop  offset="0" style="stop-color:#F7A516"/>
				<stop  offset="1" style="stop-color:#F0E400"/>
			</radialGradient>
			<circle id="XMLID_4696_" class="st1" cx="49.9" cy="157.8" r="21.8"/>
			<g id="XMLID_4690_">
				<path id="XMLID_4691_" class="st2" d="M62.9,148c0,0,1.2-0.6,0.5-1.8c0,0,0.3,1.2-0.7,1.2c0,0-0.7,0-0.8-0.4c0,0,1.1,0,0.7-1.1
					c0,0,0.1,0.7-0.8,0.7c0,0-0.5,0-0.8-0.4c0,0,1.4-0.3,0.5-1.5c0,0,0.1,0.8-0.6,1c0,0-0.8-0.1-1.2,0.4c0,0-1.6-1.4-3.4,0
					c0,0-1.8,1.4-1.8,3.7c0,0,0,1,0.3,2.1c0,0,0.4,1.5,0.8,1.9l0.3,0.2c0,0-2.1-0.5-2.3,1.1c0,0-0.1,0.6,0.3,1.2c0,0-0.1-0.8,0.5-1
					c0,0,0.6-0.2,0.7,0.2c0,0-0.8,0.6-0.2,1.4c0,0-0.2-1.1,1.1-0.8c0,0-0.8,0.6-0.1,1.3c0,0-0.1-0.9,0.4-1c0,0,0.2,0.4,0.8,0.1
					l0.6,1.3c0,0-1.2,0.1-1.2,1.4c0,0,0.2-0.4,0.7-0.4c0,0-0.1,0.8-1.5,0.7c0,0-0.8-0.1-0.4-1.3c0,0-0.6,0.3-0.6,1.5
					c0,0-0.1,0.8,1.1,0.9c0,0,0.6,0,1-0.1c0,0,1,0.1,0.8,1.1c0,0-0.3,1-1.9,1c0,0-1.8,0.1-1.9-1.2c0,0-0.1-0.9-0.5-1.4
					c0,0-1.1-2.1-1.5-4.8c0,0-0.6,0.3-1-0.3c0,0,1.2,0.6,1.5-0.7c0,0,0.2-0.9-0.4-1l0-0.5c0,0-0.5-0.3-0.6-1.3c0,0,0.2,1.3,1.4,1.3
					c0,0,0.6,0,0.7-0.6c0,0-0.9,0.5-1.1-0.3c0,0-0.1-0.3,0-0.7c0,0,0.2-0.6-0.2-0.9c0,0-0.4-0.3-0.2-1.2c0,0,0.2,1.8,1.5,1.7
					c0,0-0.3-0.1-0.3-0.6l0-0.8c0,0-0.3,0-0.4-0.2c0,0,0.9,0.2,1.1-0.4c0,0,0.3-0.7-0.5-1.2c0,0,0.3,0.1,0.6-0.1
					c0,0-0.7-0.5-0.7-1.4c0,0,0.4,0.2,0.9-0.2c0,0-0.9,0.1-1.1-0.8c0,0,0.5,0.1,0.7-0.1c0,0-0.5-0.2-0.6-0.5c0,0,0-0.4-0.6-0.4
					c0,0,0.5-0.4,0-1c0,0,0,0.6-0.6,0.6c0,0,0.4-0.8-0.2-1.2c0,0,0.4,0.9-0.5,1c0,0,0.5-1-0.4-1.3c0,0,0.4,0.6-0.1,1
					c0,0-1.7-0.2-2.1,0l-0.6,0.6c0,0-1.5,0-1.7,0.4c0,0,0,1.1,0.4,1.6c-0.2,0-0.4,0-0.6,0c0,0-1.2-0.1-0.6-0.8l0.1-0.1
					c0,0-1-0.8-1.4,0.2c0,0-0.3,1,0.9,1.1c0,0,0,0,0,0c1.2,0.1,1.8-0.3,1.8-0.3s0.4-0.2,1.1,0c0,0,0.2,0.5-0.2,0.5
					c0,0-0.3,0.1-0.3-0.3c0,0-0.1-0.1-0.3,0.2c0,0-0.3,0.2-0.3-0.2c0,0-0.5,0.1-0.5,1.2c0,0,2-0.8,2.1,0.6c0,0-0.3-0.6-0.9-0.5
					c0,0-0.1,0.7-0.8,0.6c0,0-1.5-0.6-2.1,0.4c0,0-0.4,0.4-0.4,1c0,0,0,0.4-0.4,0.4c0,0-0.3,0-0.3-0.4c0,0-0.2,0.3,0.3,0.8
					c0,0-0.7-0.3-0.2-1.1c0,0-0.1,0.5,0.3,0.6c0,0,0.3,0,0.3-0.3c0,0,0.1-0.7,0.5-1.1l0-0.2l-0.1-0.1l-0.2,0l-0.1-0.5l-0.2,0.2
					l-0.2-0.3l-0.1,0l-0.1-0.3l-0.1,0l0-0.1l-0.1-0.1l0-0.1l-0.1-0.3l-0.2,0v-0.2l-0.1,0l-0.1-0.1v-0.4l-0.2,0.2l-0.2-0.3v-0.3
					l-0.2,0.1l-0.3-0.3c0,0,0.4-2.8-0.3-3.7c0,0,0.1-0.7-0.6-0.7c0,0,0.3,0.2,0.2,0.5c0,0-0.4-0.2-0.5,0c0,0,0.4,0.3,0.2,0.9
					c0,0,0-0.5-0.3-1c0,0,0-0.8-0.7-0.4c0,0,0.4,0,0.4,0.3c0,0,0,0,0,0c0,0-0.3,0.2-0.4,0.5c0,0,0.4,0.2,0.3,0.7
					c0,0-0.2-0.6-0.7-0.8c0,0-0.5-0.3-0.8,0.2c0,0,0.6-0.2,0.6,0.2c0,0-0.5,0.7,0.7,1.5c0,0-0.2,0.2-0.2,0.7c0,0-0.1-0.2-0.4,0
					c0,0-0.1-0.3,0.2-0.6c0,0-0.8,0-0.4,1c0,0-0.2,0.9,0.8,1.3c0,0-1.1-0.2-1,0.5c0,0,0.5-0.4,0.8,0.1c0,0,0.2,0.2,0.6,0.2
					c0,0-0.9,0.8,0.1,1.3c0,0,0-0.7,0.8-0.6c0,0-0.2,0.5,0.2,1c0,0-0.4,0.4,0.1,0.9c0,0,0-0.4,0.2-0.4c0,0,0.3,0,0.3,0.5
					c0,0-1.1,1.4-1.1,0.2c0,0-0.5,0.8,0.4,0.9c0,0,0.3,0,0.8-0.4c0,0,0.4-0.2,0.4,0.1c0,0,0,0,0,0c0,0.4-0.2,0.4-0.6,0.3
					c0,0,0,0.7,1.3,0.5c0,0,0.3,0.2-0.3,0.2c0,0-0.7,0-0.7,0.7c0,0,0.3-0.5,0.6-0.2c0,0,0.1,0.3-0.5,0.5c0,0-0.6,0.2-0.9-0.6
					c0,0-0.2,0.7,0.7,0.8c0,0,0,0.2-0.9,0.2l0.3,0.2l-0.5-0.1c0,0-0.2,0,0,0.2c0,0-0.2-0.2-0.4,0c0,0,0.4,0.2-0.2,0.3
					c0,0-2.2-0.3-2.7-0.8c0,0-0.5-0.4-1.2-0.1c0,0-0.7-0.4-0.8,0.4c0,0,0.1-0.2,0.6-0.1c0,0-0.1,0.3,0.2,0.2c0,0,0.4,0,0.5,0.1
					c0,0-0.6-0.1-0.9,0.1c0,0-0.5-0.1-0.4,0.9c0,0,0-0.4,0.4-0.4c0,0,0.2,0.2,0,0.5c0,0-0.6,0.6,0.1,1.1c0,0-0.2-0.5,0.1-0.6
					c0,0,0.2,0.5,0.9,0c0,0,0.6,0.1,0.8-0.1c0,0,0.4-0.2,0.5,0.1c0,0,0,0,0,0c0,0-0.5-0.1-0.5,0.2c0,0-0.2,0.6-0.7,0.1
					c0,0,0,0.8,0.8,0.4c0,0,1.1,0.3,1.6-0.7c0,0,0.2,0.5-0.4,0.9c0,0,0.5,0.1,1.2-0.6c0,0-0.3,0.9,1.3,0.5c0,0-0.5-0.1-0.5-0.7
					c0,0,0.1-0.5,0.5,0c0,0,0.5,0.6,1.1,0.4c0,0-0.2-0.1-0.2-0.6c0,0,0-0.3,0.4-0.3c0,0,0.3,0,0.3,0.4c0,0,0,0.4-0.3,0.6
					c0,0,0.7,0.4,0.9-0.4c0,0,0-0.4,0.5-0.4c0,0,0.4,0.1,0,0.6c0,0,0.4,0,0.5-0.8c0,0,0.1-0.5,0.4-0.1l0,0c0,0.3-0.2,0.4-0.2,0.4
					c0.3,0,0.4-0.2,0.4-0.2c0.2-0.2,0-0.6,0-0.6c0.3,0.3,0.1,0.6,0.1,0.6c0.5,1.4,2.3,2.9,2.3,2.9c1.5,1.2,1.8,2.4,1.8,2.4
					c0.2,1.2-0.3,1.7-0.3,1.7c0.3-0.5,0.2-1.3,0.2-1.3c-0.6-0.2-1.7-1.1-1.7-1.1l0.1,0.3c-0.6-0.3-1.5-0.2-1.5-0.2
					c-0.5,0.1-1.2-0.1-1.2-0.1c0.8,0.4-0.4,0.5-0.4,0.5c-0.7,0.1-1.5-0.3-1.5-0.3c0.1,0.5,1,0.4,1,0.4c-0.8,0.2-1,0.7-1,0.7
					c-0.5,0.7-1.1,0.7-1.1,0.7c-0.6,0-0.5-0.7-0.5-0.7c-0.2,0.2-0.1,0.4-0.1,0.4c-0.2,0-0.4-0.3-0.4-0.3c0,0.8,1.2,1.2,1.2,1.2
					c0,0.9-1.1,0.9-1.1,0.9c1.1,0.5,1.7-0.1,1.7-0.1c-0.1,0.5-0.7,1-0.7,1c0.4,0,0.7-0.4,0.7-0.4c0,0.8-0.5,1.2-0.5,1.2
					c0.3,0,0.5-0.4,0.5-0.4c-0.2,0.5-0.4,0.6-0.4,0.6c0.3,0.1,0.4-0.1,0.4-0.1c0,0.4-0.3,0.5-0.3,0.5c0.4,0,0.8-0.4,0.8-0.4
					c0.3,0.1,0.2,0.4,0.2,0.4c-0.2,0.9-1.4,0.8-1.4,0.8c-1.3,0.1-1.7,1-1.7,1c-0.6,0.7-0.3,1.1-0.3,1.1c0.2-0.6,1-0.9,1-0.9
					c-0.5,0.2-0.7,0.8-0.7,0.8c-0.3,0.7,0.2,0.9,0.2,0.9c0-0.4,0.2-0.5,0.2-0.5c0.3,0.1,0.4-0.1,0.4-0.1c0.2-0.8,0.7-0.7,0.7-0.7
					c-0.5,0.2-0.6,0.8-0.6,0.8c-0.1,1,0.6,1.1,0.6,1.1c-0.4-0.2-0.2-0.5-0.2-0.5c0.9-0.1,1.1-0.7,1.1-0.7c0-0.2,0.5-0.3,0.5-0.3
					c-0.3,0.3,0,0.7,0,0.7c-0.1,0.5-0.7,0.5-0.7,0.5c0.7,0.3,1.1-0.2,1.1-0.2c0.9-0.1,1.1-1.1,1.1-1.1c0.1-0.6,0.6-0.8,0.6-0.8
					c-0.3,1,0.3,1.4,0.3,1.4c-0.1-0.7,0.3-0.8,0.3-0.8c0.7-0.2,0.6-0.8,0.6-0.8c0.2,0.5,0.5,0.3,0.5,0.3c-0.1-0.1-0.1-0.4-0.1-0.4
					c0-1-0.7-1.2-0.7-1.2c-0.4-0.1-0.6-0.5-0.6-0.5c0.8,0.6,1.3,0.3,1.3,0.3c-0.3,0-0.3-0.2-0.3-0.2c0.1-0.4-0.1-0.9-0.1-0.9
					c-0.4-0.3-0.2-0.6-0.2-0.6c0.7-0.1,0.5,0.7,0.5,0.7c0.8-0.1,0.6-0.8,0.6-0.8c0.3,0.4,0.6,0.2,0.6,0.2c0.2-0.4,0.5-0.6,0.5-0.6
					c-0.6,0.8-0.8,2.1-0.8,2.1c0.5-0.4-0.2,1-0.2,1c0.7-0.3,0,1,0,1c0.4-0.3,0.3,0.3,0.3,0.3l-0.4,0.5c0.2-0.2,0.3,0,0.3,0
					c-0.2,0.8-1.1,0.8-1.1,0.8c0.4,0.2,0.7,0,0.7,0c0,0.3-0.5,0.7-0.5,0.7c0.5-0.2,0.8-0.7,0.8-0.7c0.4-0.2,1-1.1,1-1.1
					c0,0.3,0.2,0.3,0.2,0.3l0.1,0.2h0.1l0,0.5c0-0.1,0.3-0.1,0.3-0.1l0,0.5c0.2-0.4,0.4-0.2,0.4-0.2l0,0.4l0.3-0.1l0.1,0.5l0.2-0.1
					l0,0.4l0.2,0c-0.1,1.5-0.8,1.8-0.8,1.8c-2,1-1.9,1.6-1.9,1.6c-0.6,0.6-0.1,1.1-0.1,1.1c0-0.5,0.4-0.8,0.4-0.8l0,0
					c0.1-0.2,0.5-0.4,0.5-0.4c-0.6,0.4-0.5,0.7-0.5,0.7c0,0.1,0.1,0.3,0.1,0.3c-0.4,0.6,0.3,1,0.3,1c-0.2-0.3,0-0.7,0-0.7
					c0.1,0,0.2,0,0.3,0V174c0-0.7,0.4-0.9,0.4-0.9c-0.5,0.5-0.4,0.9-0.4,0.9s0.2,1.1,1.1,0.9c0,0-0.4-0.1-0.5-0.4l0,0
					c0.5-0.2,0.8-1,0.8-1c0.8,0,0.7-0.6,0.7-0.6c0-0.4,0.5-0.6,0.5-0.6c-0.3,0.7,0,0.8,0,0.8c0,0.6-0.4,0.7-0.4,0.7
					c0.7,0,0.8-0.7,0.8-0.7c0.8-0.4,0.4-1.4,0.4-1.4c0.6-0.1,0.5,0.6,0.5,0.6c0.8-0.5,0.6-1.2,0.6-1.2c-0.4-0.5,0-0.6,0-0.6
					c0.7,0,0.3,0.9,0.3,0.9c0.6-0.2,0.6-1,0.6-1c0.9-0.3,0.8-1.2,0.8-1.2s-0.5,0.8-1,0.1c0,0-0.3-0.4,0.6-0.5c0,0,0-0.6-1.1-0.6
					c0,0-0.6,0-0.5-0.5c0,0,0-0.5,0.7,0.1c0,0,0.1-0.9-0.9-0.9c0,0-0.2,0.1-0.3-0.2c0,0,0.6-0.2,0.7-1.1c0,0-1.2,0.9-1.4-0.4
					c0,0-0.1-0.4,0.3-0.4c0,0,0.3-0.1,0.3,0.5c0,0,0.6-0.6,0.1-1c0,0,0.6-0.3,0.4-0.9c0,0-0.5,0.9-0.8,0.2c0,0-0.1-0.1,0.2-0.4
					c0,0,0.5-0.4,0.5-1.1c0,0,0.1,0,0.1,0.4c0,0,0.8,0.9,2.5,0.6c0,0,1.7-0.4,2.4-1.7c0,0,0.9,0.1,1.5-0.2c0,0-0.3-0.2,0-0.4
					c0,0,0.4-0.1,0.6-0.5c0,0-0.4,0.4-0.4,0c0,0,0.3-1.3-0.6-1.6c0,0-0.4-1.3-1.6-1.1c0,0,0.1-0.1,0.4-0.2c0,0-1.3-1.8-0.5-2.9
					c0,0-0.7-0.3-0.6-0.9c0,0,0-0.8,0.8-0.8c0,0,0.6,0,0.6,0.7c0,0,0,0.5-0.5,0.7c0,0,0.7,0,0.8-1c0,0,0.2-1.3-1.4-1.3
					c0,0-1.4,0-1.8,1.4l0-0.7c0,0-0.5-1.4-0.6-2.6c0,0-0.6-4.2,3.2-3.9c0,0-0.3,1.2-0.9,1.5c0,0-0.6,0.2-0.5-0.8c0,0-0.8,1,0.5,1.2
					c0,0,0.6,0.1,1.2-0.6c0,0,0.4,0.4,0.3,1.2c0,0-0.2,0.6-0.7,0.6c0,0-0.3-0.1-0.2-0.7c0,0-0.5,0.2-0.5,0.9c0,0-0.1,0.7,1.1,0.6
					c0,0-0.6,1.9,1.1,2c0,0-0.8-0.4-0.3-1.4v0c0,0,0.7-0.3,0.6-1.3c0,0,0.6,0.2,0.6,0.8c0,0-0.1,0.6-0.9,0.6c0,0,1.2,1.1,1.9-0.9
					c0,0,0.2-0.7-0.2-1c0,0,0.4,0,0.6-0.3c0,0,0.6,0.1,0.5,0.6c0,0,0,0.6-0.4,0.6c0,0,0.8,0.1,0.6-1.3
					C63.4,148.5,63.4,148.1,62.9,148z M47.2,145.6c0-0.1,0.2-0.4,0.5-0.1c0,0,0-0.6,0.4-0.6c0,0,0.2,0,0.2,0.5
					C48.4,145.5,47.8,145.6,47.2,145.6z M49,143.9l0.1-0.4c0.3-0.1,0.6,0.3,0.6,0.3C49.5,143.9,49,143.9,49,143.9z M50.7,145
					c1.2,0.3,1.8-0.7,1.8-0.7c-0.5,0-1-0.3-1-0.3c-0.5-0.5-1.1,0.2-1.1,0.2c0.5-0.9,1.2-0.3,1.2-0.3c0.3,0.3,1.1,0.3,1.1,0.3
					C51.8,145.6,50.7,145,50.7,145z"/>
			</g>
		</g>
		<g id="XMLID_4680_">
			<polygon id="XMLID_4688_" points="147.2,159.3 149.9,157.8 147.2,156.2 149.7,154.2 146.7,153 149,150.8 145.9,150 147.8,147.5 
				144.7,147 146.3,144.3 143.1,144.3 144.3,141.4 141.2,141.8 142,138.7 138.9,139.5 139.4,136.4 136.4,137.6 136.4,134.4 
				133.7,136 133.3,132.9 130.8,134.8 129.9,131.7 127.7,134 126.5,131.1 124.6,133.6 123,130.8 121.4,133.6 119.5,131.1 118.2,134 
				116,131.7 115.2,134.8 112.7,132.9 112.2,136 109.5,134.4 109.5,137.6 106.6,136.4 107,139.5 103.9,138.7 104.7,141.8 
				101.6,141.4 102.8,144.3 99.6,144.3 101.2,147 98.1,147.5 100,150 97,150.8 99.2,153 96.3,154.2 98.8,156.2 96,157.8 98.8,159.3 
				96.3,161.3 99.2,162.5 97,164.7 100,165.5 98.1,168.1 101.2,168.5 99.6,171.2 102.8,171.2 101.6,174.2 104.7,173.7 103.9,176.8 
				107,176 106.6,179.1 109.5,177.9 109.5,181.1 112.2,179.5 112.7,182.6 115.2,180.7 116,183.8 118.2,181.5 119.5,184.5 
				121.4,181.9 123,184.7 124.6,181.9 126.5,184.5 127.7,181.5 129.9,183.8 130.8,180.7 133.3,182.6 133.7,179.5 136.4,181.1 
				136.4,177.9 139.4,179.1 138.9,176 142,176.8 141.2,173.7 144.3,174.2 143.1,171.2 146.3,171.2 144.7,168.5 147.8,168.1 
				145.9,165.5 149,164.7 146.7,162.5 149.7,161.3 			"/>
			<radialGradient id="XMLID_3_" cx="122.9665" cy="157.7569" r="23.1259" gradientUnits="userSpaceOnUse">
				<stop  offset="0" style="stop-color:#F7A516"/>
				<stop  offset="1" style="stop-color:#F0E400"/>
			</radialGradient>
			<circle id="XMLID_4687_" class="st3" cx="123" cy="157.8" r="23.1"/>
			<g id="XMLID_4681_">
				<path id="XMLID_4682_" class="st2" d="M136.7,147.4c0,0,1.3-0.6,0.6-1.9c0,0,0.3,1.3-0.8,1.3c0,0-0.7,0-0.8-0.4
					c0,0,1.1,0,0.7-1.2c0,0,0.2,0.8-0.8,0.8c0,0-0.5,0-0.9-0.4c0,0,1.5-0.3,0.6-1.6c0,0,0.1,0.9-0.6,1c0,0-0.8-0.1-1.2,0.4
					c0,0-1.7-1.5-3.6,0c0,0-1.9,1.4-1.9,3.9c0,0,0,1.1,0.3,2.2c0,0,0.4,1.6,0.9,2l0.3,0.2c0,0-2.2-0.5-2.4,1.1c0,0-0.1,0.6,0.4,1.2
					c0,0-0.2-0.8,0.5-1c0,0,0.6-0.2,0.7,0.2c0,0-0.9,0.6-0.2,1.5c0,0-0.2-1.2,1.1-0.8c0,0-0.9,0.7-0.1,1.3c0,0-0.1-1,0.4-1.1
					c0,0,0.2,0.4,0.8,0.1l0.7,1.4c0,0-1.2,0.1-1.2,1.5c0,0,0.2-0.4,0.7-0.4c0,0-0.2,0.9-1.6,0.7c0,0-0.9-0.1-0.4-1.4
					c0,0-0.6,0.3-0.6,1.6c0,0-0.2,0.9,1.2,0.9c0,0,0.6,0,1.1-0.1c0,0,1,0.1,0.9,1.1c0,0-0.3,1.1-2,1.1c0,0-1.9,0.1-2.1-1.2
					c0,0-0.1-0.9-0.6-1.5c0,0-1.1-2.2-1.6-5c0,0-0.6,0.3-1.1-0.3c0,0,1.3,0.7,1.5-0.7c0,0,0.2-0.9-0.4-1.1l0-0.5
					c0,0-0.6-0.3-0.6-1.4c0,0,0.2,1.4,1.5,1.4c0,0,0.7-0.1,0.7-0.6c0,0-0.9,0.5-1.1-0.3c0,0-0.1-0.3,0-0.8c0,0,0.2-0.6-0.2-1
					c0,0-0.4-0.3-0.3-1.2c0,0,0.2,1.9,1.6,1.8c0,0-0.3-0.1-0.3-0.6l0-0.8c0,0-0.3,0-0.4-0.2c0,0,1,0.2,1.2-0.5c0,0,0.3-0.8-0.5-1.2
					c0,0,0.3,0.1,0.6-0.1c0,0-0.7-0.6-0.7-1.5c0,0,0.4,0.2,1-0.2c0,0-0.9,0.1-1.1-0.9c0,0,0.5,0.1,0.8-0.1c0,0-0.5-0.2-0.6-0.6
					c0,0,0-0.4-0.6-0.4c0,0,0.5-0.4,0.1-1c0,0,0,0.6-0.6,0.6c0,0,0.4-0.8-0.2-1.3c0,0,0.5,0.9-0.5,1.1c0,0,0.5-1-0.4-1.4
					c0,0,0.4,0.6-0.1,1c0,0-1.8-0.2-2.2-0.1l-0.6,0.6c0,0-1.6,0-1.8,0.4c0,0,0,1.2,0.4,1.7c-0.2,0-0.4,0-0.6,0c0,0-1.3-0.2-0.7-0.8
					l0.1-0.1c0,0-1.1-0.8-1.5,0.2c0,0-0.3,1.1,1,1.2c0,0,0,0,0,0c1.3,0.1,1.9-0.3,1.9-0.3s0.4-0.2,1.1,0c0,0,0.3,0.5-0.2,0.5
					c0,0-0.3,0.1-0.3-0.4c0,0-0.1-0.1-0.3,0.2c0,0-0.3,0.3-0.4-0.2c0,0-0.5,0.1-0.5,1.3c0,0,2.1-0.8,2.2,0.6c0,0-0.3-0.6-0.9-0.6
					c0,0-0.1,0.7-0.9,0.7c0,0-1.6-0.7-2.2,0.5c0,0-0.4,0.4-0.5,1.1c0,0,0,0.4-0.4,0.4c0,0-0.3,0-0.3-0.4c0,0-0.2,0.3,0.3,0.8
					c0,0-0.7-0.4-0.2-1.1c0,0-0.1,0.6,0.3,0.6c0,0,0.3,0,0.3-0.3c0,0,0.1-0.8,0.5-1.2l0-0.2l-0.1-0.1l-0.2,0l-0.1-0.5l-0.2,0.2
					l-0.2-0.4l-0.1,0l-0.1-0.3l-0.1,0l0-0.1l-0.1-0.1l0-0.1l-0.1-0.3l-0.2,0v-0.3l-0.1,0l-0.1-0.1v-0.4l-0.2,0.2l-0.2-0.3v-0.4
					l-0.2,0.1l-0.3-0.4c0,0,0.4-3-0.3-3.9c0,0,0.1-0.7-0.6-0.7c0,0,0.3,0.2,0.3,0.5c0,0-0.4-0.2-0.5,0c0,0,0.4,0.3,0.2,1
					c0,0,0-0.6-0.4-1c0,0,0-0.8-0.8-0.4c0,0,0.4,0,0.5,0.3c0,0,0,0,0,0c0,0-0.3,0.2-0.4,0.5c0,0,0.4,0.2,0.3,0.8
					c0,0-0.2-0.7-0.8-0.9c0,0-0.6-0.3-0.8,0.2c0,0,0.6-0.2,0.6,0.2c0,0-0.6,0.8,0.8,1.6c0,0-0.2,0.2-0.2,0.8c0,0-0.1-0.2-0.5,0
					c0,0-0.1-0.4,0.2-0.6c0,0-0.9,0-0.5,1.1c0,0-0.2,0.9,0.8,1.4c0,0-1.1-0.2-1.1,0.6c0,0,0.5-0.4,0.9,0.1c0,0,0.2,0.3,0.6,0.3
					c0,0-1,0.8,0.1,1.4c0,0,0-0.7,0.8-0.6c0,0-0.2,0.5,0.3,1.1c0,0-0.4,0.4,0.2,1c0,0,0-0.4,0.2-0.4c0,0,0.3,0,0.3,0.6
					c0,0-1.1,1.5-1.2,0.2c0,0-0.6,0.8,0.4,0.9c0,0,0.3,0,0.8-0.4c0,0,0.4-0.3,0.4,0.1c0,0,0,0,0,0c0,0.4-0.2,0.4-0.7,0.3
					c0,0,0,0.8,1.4,0.5c0,0,0.3,0.2-0.3,0.2c0,0-0.8,0-0.8,0.7c0,0,0.4-0.5,0.6-0.2c0,0,0.2,0.4-0.5,0.5c0,0-0.6,0.2-1-0.6
					c0,0-0.2,0.7,0.8,0.8c0,0,0,0.2-1,0.2l0.3,0.2l-0.5-0.1c0,0-0.2,0,0,0.2c0,0-0.2-0.2-0.4,0c0,0,0.4,0.2-0.2,0.3
					c0,0-2.4-0.4-2.8-0.9c0,0-0.5-0.4-1.3-0.1c0,0-0.8-0.4-0.8,0.4c0,0,0.1-0.2,0.6-0.1c0,0-0.1,0.3,0.2,0.3c0,0,0.4,0,0.5,0.1
					c0,0-0.6-0.1-1,0.1c0,0-0.6-0.1-0.4,0.9c0,0,0-0.4,0.4-0.5c0,0,0.2,0.2,0,0.5c0,0-0.6,0.6,0.1,1.1c0,0-0.2-0.5,0.1-0.7
					c0,0,0.2,0.5,0.9,0c0,0,0.6,0.1,0.8-0.1c0,0,0.4-0.2,0.5,0.1c0,0,0,0,0,0.1c0,0-0.5-0.1-0.5,0.2c0,0-0.3,0.7-0.7,0.1
					c0,0,0,0.8,0.8,0.5c0,0,1.2,0.3,1.7-0.7c0,0,0.2,0.5-0.4,1c0,0,0.5,0.1,1.2-0.6c0,0-0.3,0.9,1.4,0.6c0,0-0.6-0.1-0.5-0.7
					c0,0,0.1-0.5,0.6,0c0,0,0.5,0.6,1.1,0.5c0,0-0.2-0.1-0.2-0.6c0,0,0-0.3,0.4-0.3c0,0,0.3,0,0.3,0.4c0,0,0,0.4-0.3,0.6
					c0,0,0.7,0.4,1-0.5c0,0,0-0.4,0.5-0.4c0,0,0.4,0.1,0,0.7c0,0,0.4,0,0.5-0.8c0,0,0.1-0.6,0.4-0.1l0,0c0.1,0.3-0.3,0.4-0.3,0.4
					c0.4,0,0.5-0.3,0.5-0.3c0.2-0.2,0-0.6,0-0.6c0.3,0.3,0.1,0.7,0.1,0.7c0.6,1.5,2.4,3,2.4,3c1.6,1.2,1.9,2.5,1.9,2.5
					c0.2,1.2-0.3,1.8-0.3,1.8c0.3-0.6,0.2-1.4,0.2-1.4c-0.7-0.2-1.8-1.1-1.8-1.1l0.1,0.3c-0.6-0.3-1.6-0.2-1.6-0.2
					c-0.6,0.1-1.3-0.1-1.3-0.1c0.8,0.4-0.4,0.5-0.4,0.5c-0.7,0.1-1.6-0.3-1.6-0.3c0.1,0.5,1,0.5,1,0.5c-0.9,0.3-1,0.8-1,0.8
					c-0.5,0.8-1.1,0.7-1.1,0.7c-0.7,0-0.6-0.8-0.6-0.8c-0.2,0.2-0.2,0.5-0.2,0.5c-0.2,0-0.4-0.4-0.4-0.4c0,0.8,1.2,1.3,1.2,1.3
					c-0.1,0.9-1.1,1-1.1,1c1.2,0.5,1.8-0.1,1.8-0.1c-0.1,0.5-0.7,1-0.7,1c0.5,0,0.8-0.5,0.8-0.5c0,0.9-0.5,1.2-0.5,1.2
					c0.3,0,0.5-0.4,0.5-0.4c-0.2,0.6-0.4,0.6-0.4,0.6c0.3,0.1,0.4-0.1,0.4-0.1c0,0.5-0.3,0.6-0.3,0.6c0.5,0,0.8-0.4,0.8-0.4
					c0.3,0.1,0.2,0.4,0.2,0.4c-0.2,0.9-1.5,0.8-1.5,0.8c-1.3,0.1-1.8,1-1.8,1c-0.6,0.7-0.4,1.2-0.4,1.2c0.3-0.6,1.1-1,1.1-1
					c-0.5,0.3-0.8,0.8-0.8,0.8c-0.3,0.8,0.2,0.9,0.2,0.9c0-0.4,0.2-0.6,0.2-0.6c0.3,0.1,0.4-0.1,0.4-0.1c0.2-0.8,0.7-0.7,0.7-0.7
					c-0.6,0.2-0.6,0.8-0.6,0.8c-0.1,1.1,0.7,1.1,0.7,1.1c-0.4-0.3-0.2-0.6-0.2-0.6c0.9-0.1,1.1-0.8,1.1-0.8c0-0.3,0.5-0.3,0.5-0.3
					c-0.3,0.3,0,0.8,0,0.8c-0.1,0.5-0.7,0.5-0.7,0.5c0.7,0.3,1.2-0.2,1.2-0.2c0.9-0.1,1.1-1.2,1.1-1.2c0.1-0.6,0.7-0.8,0.7-0.8
					c-0.4,1.1,0.3,1.5,0.3,1.5c-0.1-0.7,0.4-0.9,0.4-0.9c0.7-0.2,0.6-0.8,0.6-0.8c0.2,0.5,0.6,0.3,0.6,0.3c-0.1-0.1-0.1-0.4-0.1-0.4
					c0-1-0.8-1.2-0.8-1.2c-0.4-0.1-0.7-0.6-0.7-0.6c0.8,0.7,1.3,0.3,1.3,0.3c-0.3,0-0.3-0.2-0.3-0.2c0.1-0.5-0.1-1-0.1-1
					c-0.4-0.3-0.3-0.6-0.3-0.6c0.7-0.1,0.5,0.8,0.5,0.8c0.8-0.1,0.6-0.9,0.6-0.9c0.3,0.5,0.6,0.2,0.6,0.2c0.2-0.4,0.5-0.6,0.5-0.6
					c-0.6,0.9-0.9,2.2-0.9,2.2c0.6-0.5-0.2,1.1-0.2,1.1c0.8-0.4,0,1.1,0,1.1c0.5-0.3,0.3,0.3,0.3,0.3l-0.4,0.6
					c0.2-0.2,0.4-0.1,0.4-0.1c-0.2,0.9-1.1,0.9-1.1,0.9c0.5,0.2,0.8,0,0.8,0c0,0.3-0.5,0.7-0.5,0.7c0.5-0.2,0.8-0.8,0.8-0.8
					c0.4-0.2,1.1-1.1,1.1-1.1c0,0.3,0.2,0.3,0.2,0.3l0.1,0.2h0.2l0,0.5c0-0.2,0.3-0.1,0.3-0.1l0,0.5c0.2-0.4,0.4-0.2,0.4-0.2l0,0.4
					l0.3-0.1l0.1,0.5l0.2-0.1l0,0.4l0.2,0c-0.1,1.6-0.8,2-0.8,2c-2.1,1-2,1.7-2,1.7c-0.7,0.6-0.1,1.2-0.1,1.2c0-0.5,0.4-0.8,0.4-0.8
					l0,0c0.1-0.2,0.5-0.4,0.5-0.4c-0.6,0.4-0.6,0.7-0.6,0.7c0,0.2,0.1,0.3,0.1,0.3c-0.4,0.6,0.4,1,0.4,1c-0.2-0.3,0-0.7,0-0.7
					c0.2,0,0.3,0,0.3,0V175c0-0.8,0.5-0.9,0.5-0.9c-0.5,0.5-0.4,0.9-0.4,0.9s0.2,1.2,1.2,0.9c0,0-0.5-0.1-0.5-0.5l0,0
					c0.6-0.2,0.8-1,0.8-1c0.8,0,0.7-0.7,0.7-0.7c0-0.4,0.5-0.6,0.5-0.6c-0.3,0.8,0,0.9,0,0.9c0,0.6-0.4,0.8-0.4,0.8
					c0.8,0,0.9-0.8,0.9-0.8c0.9-0.4,0.4-1.4,0.4-1.4c0.6-0.1,0.5,0.7,0.5,0.7c0.8-0.5,0.6-1.3,0.6-1.3c-0.4-0.6,0-0.7,0-0.7
					c0.7,0,0.3,0.9,0.3,0.9c0.7-0.2,0.6-1,0.6-1c0.9-0.3,0.8-1.3,0.8-1.3s-0.5,0.8-1.1,0.1c0,0-0.3-0.4,0.6-0.5c0,0,0-0.7-1.2-0.6
					c0,0-0.6,0-0.5-0.5c0,0,0-0.5,0.8,0.2c0,0,0.1-0.9-0.9-0.9c0,0-0.2,0.1-0.3-0.2c0,0,0.7-0.2,0.7-1.1c0,0-1.3,1-1.5-0.4
					c0,0-0.1-0.4,0.4-0.5c0,0,0.4-0.1,0.4,0.6c0,0,0.6-0.6,0.1-1c0,0,0.6-0.3,0.5-0.9c0,0-0.5,1-0.9,0.2c0,0-0.2-0.2,0.2-0.5
					c0,0,0.5-0.4,0.5-1.1c0,0,0.1,0,0.1,0.5c0,0,0.8,1,2.6,0.7c0,0,1.8-0.4,2.5-1.8c0,0,0.9,0.1,1.5-0.3c0,0-0.4-0.2,0.1-0.5
					c0,0,0.4-0.1,0.6-0.6c0,0-0.4,0.4-0.4,0c0,0,0.3-1.4-0.7-1.7c0,0-0.4-1.3-1.7-1.2c0,0,0.1-0.1,0.4-0.2c0,0-1.3-1.9-0.5-3
					c0,0-0.8-0.3-0.6-0.9c0,0,0-0.8,0.9-0.8c0,0,0.7,0,0.6,0.7c0,0,0,0.5-0.5,0.7c0,0,0.8,0,0.9-1.1c0,0,0.2-1.4-1.5-1.4
					c0,0-1.5,0-1.9,1.5l0-0.7c0,0-0.6-1.4-0.6-2.7c0,0-0.7-4.4,3.4-4.1c0,0-0.3,1.3-0.9,1.6c0,0-0.7,0.2-0.6-0.8
					c0,0-0.8,1.1,0.5,1.3c0,0,0.6,0.1,1.3-0.7c0,0,0.5,0.5,0.4,1.2c0,0-0.2,0.7-0.7,0.7c0,0-0.4-0.1-0.2-0.8c0,0-0.6,0.2-0.6,0.9
					c0,0-0.1,0.7,1.2,0.7c0,0-0.6,2,1.2,2.1c0,0-0.9-0.4-0.3-1.4v0c0,0,0.8-0.4,0.6-1.4c0,0,0.7,0.2,0.6,0.9c0,0-0.1,0.7-0.9,0.6
					c0,0,1.2,1.1,2-1c0,0,0.2-0.7-0.2-1.1c0,0,0.4,0,0.7-0.4c0,0,0.6,0.1,0.6,0.6c0,0,0,0.6-0.4,0.7c0,0,0.8,0.1,0.6-1.4
					C137.2,148,137.2,147.5,136.7,147.4z M120.1,144.9c0-0.1,0.2-0.4,0.5-0.1c0,0,0-0.6,0.5-0.6c0,0,0.2,0,0.2,0.5
					C121.3,144.7,120.7,144.8,120.1,144.9z M122,143.1l0.1-0.4c0.3-0.1,0.6,0.3,0.6,0.3C122.5,143.1,122,143.1,122,143.1z
					 M123.8,144.2c1.2,0.3,1.9-0.7,1.9-0.7c-0.6,0-1-0.3-1-0.3c-0.6-0.5-1.2,0.3-1.2,0.3c0.6-0.9,1.3-0.4,1.3-0.4
					c0.4,0.3,1.1,0.3,1.1,0.3C124.9,144.8,123.8,144.2,123.8,144.2z"/>
			</g>
		</g>
		<g id="XMLID_4644_">
			<polygon id="XMLID_4652_" points="110.4,112.8 113.1,111.2 110.4,109.7 112.9,107.8 110,106.6 112.2,104.3 109.2,103.5 
				111.1,101 108,100.6 109.5,97.9 106.4,97.9 107.6,95 104.5,95.4 105.3,92.4 102.3,93.2 102.7,90.1 99.8,91.3 99.8,88.2 
				97.1,89.7 96.6,86.6 94.2,88.5 93.3,85.5 91.1,87.7 89.9,84.8 88,87.3 86.5,84.6 84.9,87.3 83,84.8 81.8,87.7 79.6,85.5 
				78.8,88.5 76.3,86.6 75.9,89.7 73.1,88.2 73.1,91.3 70.2,90.1 70.7,93.2 67.6,92.4 68.4,95.4 65.3,95 66.5,97.9 63.4,97.9 
				65,100.6 61.9,101 63.8,103.5 60.7,104.3 63,106.6 60.1,107.8 62.5,109.7 59.8,111.2 62.5,112.8 60.1,114.7 63,115.9 60.7,118.1 
				63.8,118.9 61.9,121.4 65,121.8 63.4,124.6 66.5,124.6 65.3,127.4 68.4,127 67.6,130.1 70.7,129.3 70.2,132.4 73.1,131.2 
				73.1,134.3 75.9,132.7 76.3,135.8 78.8,133.9 79.6,137 81.8,134.7 83,137.6 84.9,135.2 86.5,137.9 88,135.2 89.9,137.6 
				91.1,134.7 93.3,137 94.2,133.9 96.6,135.8 97.1,132.7 99.8,134.3 99.8,131.2 102.7,132.4 102.3,129.3 105.3,130.1 104.5,127 
				107.6,127.4 106.4,124.6 109.5,124.6 108,121.8 111.1,121.4 109.2,118.9 112.2,118.1 110,115.9 112.9,114.7 			"/>
			<radialGradient id="XMLID_4_" cx="86.4567" cy="111.2364" r="22.8697" gradientUnits="userSpaceOnUse">
				<stop  offset="0" style="stop-color:#F7A516"/>
				<stop  offset="1" style="stop-color:#F0E400"/>
			</radialGradient>
			<circle id="XMLID_4651_" class="st4" cx="86.5" cy="111.2" r="22.9"/>
			<g id="XMLID_4645_">
				<path id="XMLID_4646_" class="st2" d="M100,101c0,0,1.3-0.6,0.6-1.9c0,0,0.3,1.3-0.7,1.3c0,0-0.7,0-0.8-0.4c0,0,1.1,0,0.7-1.2
					c0,0,0.2,0.8-0.8,0.8c0,0-0.5,0-0.9-0.4c0,0,1.5-0.3,0.6-1.6c0,0,0.1,0.9-0.6,1c0,0-0.8-0.1-1.2,0.4c0,0-1.7-1.4-3.6,0
					c0,0-1.9,1.4-1.9,3.9c0,0,0,1.1,0.3,2.2c0,0,0.4,1.6,0.9,2l0.3,0.2c0,0-2.2-0.5-2.4,1.1c0,0-0.1,0.6,0.4,1.2c0,0-0.2-0.8,0.5-1
					c0,0,0.6-0.2,0.7,0.2c0,0-0.8,0.6-0.2,1.4c0,0-0.2-1.2,1.1-0.8c0,0-0.9,0.6-0.1,1.3c0,0-0.1-1,0.4-1.1c0,0,0.2,0.4,0.8,0.1
					l0.7,1.4c0,0-1.2,0.1-1.2,1.5c0,0,0.2-0.4,0.7-0.4c0,0-0.2,0.8-1.6,0.7c0,0-0.9-0.1-0.4-1.4c0,0-0.6,0.3-0.6,1.6
					c0,0-0.2,0.9,1.2,0.9c0,0,0.6,0,1.1-0.1c0,0,1,0.1,0.9,1.1c0,0-0.3,1.1-2,1.1c0,0-1.9,0.1-2-1.2c0,0-0.1-0.9-0.6-1.5
					c0,0-1.1-2.2-1.6-5c0,0-0.6,0.3-1-0.3c0,0,1.3,0.7,1.5-0.7c0,0,0.2-0.9-0.4-1.1l0-0.5c0,0-0.6-0.3-0.6-1.3c0,0,0.2,1.4,1.5,1.4
					c0,0,0.6,0,0.7-0.6c0,0-0.9,0.5-1.1-0.3c0,0-0.1-0.3,0-0.8c0,0,0.2-0.6-0.2-1c0,0-0.4-0.3-0.3-1.2c0,0,0.2,1.9,1.6,1.8
					c0,0-0.3-0.1-0.3-0.6l0-0.8c0,0-0.3,0-0.4-0.2c0,0,1,0.2,1.2-0.5c0,0,0.3-0.8-0.5-1.2c0,0,0.3,0.1,0.6-0.1c0,0-0.7-0.6-0.7-1.5
					c0,0,0.4,0.2,1-0.2c0,0-0.9,0.1-1.1-0.9c0,0,0.5,0.1,0.8-0.1c0,0-0.5-0.2-0.6-0.6c0,0,0-0.4-0.6-0.4c0,0,0.5-0.4,0-1
					c0,0,0,0.6-0.6,0.6c0,0,0.4-0.8-0.2-1.3c0,0,0.4,0.9-0.5,1.1c0,0,0.5-1-0.4-1.4c0,0,0.4,0.6-0.1,1c0,0-1.8-0.2-2.2,0L85,96.4
					c0,0-1.6,0-1.8,0.4c0,0,0,1.2,0.4,1.7c-0.2,0-0.4,0-0.6,0c0,0-1.3-0.1-0.7-0.8l0.1-0.1c0,0-1.1-0.8-1.5,0.2c0,0-0.3,1.1,1,1.2
					c0,0,0,0,0,0c1.3,0.1,1.8-0.3,1.8-0.3s0.4-0.2,1.1,0c0,0,0.2,0.5-0.2,0.5c0,0-0.3,0.1-0.3-0.3c0,0-0.1-0.1-0.3,0.2
					c0,0-0.3,0.3-0.4-0.2c0,0-0.5,0.1-0.5,1.2c0,0,2.1-0.8,2.2,0.6c0,0-0.3-0.6-0.9-0.6c0,0-0.1,0.7-0.9,0.7c0,0-1.6-0.6-2.2,0.4
					c0,0-0.4,0.4-0.5,1.1c0,0,0,0.4-0.4,0.4c0,0-0.3,0-0.3-0.4c0,0-0.2,0.3,0.3,0.8c0,0-0.7-0.4-0.2-1.1c0,0-0.1,0.6,0.3,0.6
					c0,0,0.3,0,0.3-0.3c0,0,0.1-0.8,0.5-1.2l0-0.2l-0.1-0.1l-0.2,0l-0.1-0.5l-0.2,0.2l-0.2-0.4l-0.1,0l-0.1-0.3l-0.1,0l0-0.1
					l-0.1-0.1l0-0.1L80,99.3l-0.2,0v-0.3l-0.1,0L79.7,99v-0.4l-0.2,0.2l-0.2-0.3v-0.4L79,98.2l-0.3-0.4c0,0,0.4-3-0.3-3.8
					c0,0,0.1-0.7-0.6-0.7c0,0,0.3,0.2,0.3,0.5c0,0-0.4-0.2-0.5,0c0,0,0.4,0.3,0.2,1c0,0,0-0.6-0.4-1c0,0,0-0.8-0.8-0.4
					c0,0,0.4,0,0.4,0.3c0,0,0,0,0,0c0,0-0.3,0.2-0.4,0.5c0,0,0.4,0.2,0.3,0.8c0,0-0.2-0.7-0.7-0.8c0,0-0.6-0.3-0.8,0.2
					c0,0,0.6-0.2,0.6,0.2c0,0-0.6,0.8,0.8,1.6c0,0-0.2,0.2-0.2,0.8c0,0-0.1-0.2-0.5,0c0,0-0.1-0.4,0.2-0.6c0,0-0.8,0-0.4,1.1
					c0,0-0.2,0.9,0.8,1.3c0,0-1.1-0.2-1.1,0.6c0,0,0.5-0.4,0.9,0.1c0,0,0.2,0.3,0.6,0.3c0,0-1,0.8,0.1,1.4c0,0,0-0.7,0.8-0.6
					c0,0-0.2,0.5,0.3,1.1c0,0-0.4,0.4,0.1,1c0,0,0-0.4,0.2-0.4c0,0,0.3,0,0.3,0.6c0,0-1.1,1.5-1.2,0.2c0,0-0.6,0.8,0.4,0.9
					c0,0,0.3,0,0.8-0.4c0,0,0.4-0.3,0.4,0.1c0,0,0,0,0,0c0,0.4-0.2,0.4-0.7,0.3c0,0,0,0.8,1.4,0.5c0,0,0.3,0.2-0.3,0.2
					c0,0-0.7,0-0.8,0.7c0,0,0.4-0.5,0.6-0.2c0,0,0.1,0.4-0.5,0.5c0,0-0.6,0.2-1-0.6c0,0-0.2,0.7,0.7,0.8c0,0,0,0.2-1,0.2l0.3,0.2
					l-0.5-0.1c0,0-0.2,0,0,0.2c0,0-0.2-0.2-0.4,0c0,0,0.4,0.2-0.2,0.3c0,0-2.4-0.4-2.8-0.9c0,0-0.5-0.4-1.3-0.1c0,0-0.8-0.4-0.8,0.4
					c0,0,0.1-0.2,0.6-0.1c0,0-0.1,0.3,0.2,0.3c0,0,0.4,0,0.5,0.1c0,0-0.6-0.1-1,0.1c0,0-0.6-0.1-0.4,0.9c0,0,0-0.4,0.4-0.4
					c0,0,0.2,0.2,0,0.5c0,0-0.6,0.6,0.1,1.1c0,0-0.2-0.5,0.1-0.7c0,0,0.2,0.5,0.9,0c0,0,0.6,0.1,0.8-0.1c0,0,0.4-0.2,0.5,0.1
					c0,0,0,0,0,0.1c0,0-0.5-0.1-0.5,0.2c0,0-0.3,0.7-0.7,0.1c0,0,0,0.8,0.8,0.5c0,0,1.2,0.3,1.7-0.7c0,0,0.2,0.5-0.4,1
					c0,0,0.5,0.1,1.2-0.6c0,0-0.3,0.9,1.4,0.6c0,0-0.6-0.1-0.5-0.7c0,0,0.1-0.5,0.6,0c0,0,0.5,0.6,1.1,0.5c0,0-0.2-0.1-0.2-0.6
					c0,0,0-0.3,0.4-0.3c0,0,0.3,0,0.3,0.4c0,0,0,0.4-0.3,0.6c0,0,0.7,0.4,0.9-0.4c0,0,0-0.4,0.5-0.4c0,0,0.4,0.1,0,0.7
					c0,0,0.4,0,0.5-0.8c0,0,0.1-0.6,0.4-0.1l0,0c0.1,0.3-0.3,0.4-0.3,0.4c0.4,0,0.5-0.3,0.5-0.3c0.2-0.2,0-0.6,0-0.6
					c0.3,0.3,0.1,0.7,0.1,0.7c0.5,1.5,2.4,3,2.4,3c1.6,1.2,1.9,2.5,1.9,2.5c0.2,1.2-0.3,1.8-0.3,1.8c0.3-0.5,0.2-1.4,0.2-1.4
					c-0.7-0.2-1.8-1.1-1.8-1.1l0.1,0.3c-0.6-0.3-1.5-0.2-1.5-0.2c-0.6,0.1-1.3-0.1-1.3-0.1c0.8,0.4-0.4,0.5-0.4,0.5
					c-0.7,0.1-1.5-0.3-1.5-0.3c0.1,0.5,1,0.5,1,0.5c-0.9,0.2-1,0.8-1,0.8c-0.5,0.8-1.1,0.7-1.1,0.7c-0.7,0-0.6-0.7-0.6-0.7
					c-0.2,0.2-0.2,0.5-0.2,0.5c-0.2,0-0.4-0.4-0.4-0.4c0,0.8,1.2,1.3,1.2,1.3c-0.1,0.9-1.1,0.9-1.1,0.9c1.1,0.5,1.8-0.1,1.8-0.1
					c-0.1,0.5-0.7,1-0.7,1c0.5,0,0.8-0.5,0.8-0.5c0,0.9-0.5,1.2-0.5,1.2c0.3,0,0.5-0.4,0.5-0.4c-0.2,0.6-0.4,0.6-0.4,0.6
					c0.3,0.1,0.4-0.1,0.4-0.1c0,0.5-0.3,0.6-0.3,0.6c0.5,0,0.8-0.4,0.8-0.4c0.3,0.1,0.2,0.4,0.2,0.4c-0.2,0.9-1.5,0.8-1.5,0.8
					c-1.3,0.1-1.8,1-1.8,1c-0.6,0.7-0.4,1.1-0.4,1.1c0.2-0.6,1.1-1,1.1-1c-0.5,0.3-0.7,0.8-0.7,0.8c-0.3,0.7,0.2,0.9,0.2,0.9
					c0-0.4,0.2-0.6,0.2-0.6c0.3,0.1,0.4-0.1,0.4-0.1c0.2-0.8,0.7-0.7,0.7-0.7c-0.5,0.2-0.6,0.8-0.6,0.8c-0.1,1.1,0.7,1.1,0.7,1.1
					c-0.4-0.2-0.2-0.6-0.2-0.6c0.9-0.1,1.1-0.8,1.1-0.8c0-0.3,0.5-0.3,0.5-0.3c-0.3,0.3,0,0.7,0,0.7c-0.1,0.5-0.7,0.5-0.7,0.5
					c0.7,0.3,1.1-0.2,1.1-0.2c0.9-0.1,1.1-1.1,1.1-1.1c0.1-0.6,0.7-0.8,0.7-0.8c-0.4,1.1,0.3,1.4,0.3,1.4c-0.1-0.7,0.4-0.9,0.4-0.9
					c0.7-0.2,0.6-0.8,0.6-0.8c0.2,0.5,0.5,0.3,0.5,0.3c-0.1-0.1-0.1-0.4-0.1-0.4c0-1-0.7-1.2-0.7-1.2c-0.4-0.1-0.7-0.6-0.7-0.6
					c0.8,0.7,1.3,0.3,1.3,0.3c-0.3,0-0.3-0.2-0.3-0.2c0.1-0.5-0.1-1-0.1-1c-0.4-0.3-0.3-0.6-0.3-0.6c0.7-0.1,0.5,0.7,0.5,0.7
					c0.8-0.1,0.6-0.9,0.6-0.9c0.3,0.5,0.6,0.2,0.6,0.2c0.2-0.4,0.5-0.6,0.5-0.6c-0.6,0.9-0.9,2.2-0.9,2.2c0.5-0.5-0.2,1.1-0.2,1.1
					c0.8-0.4,0,1,0,1c0.5-0.3,0.3,0.3,0.3,0.3l-0.4,0.5c0.2-0.2,0.4-0.1,0.4-0.1c-0.2,0.9-1.1,0.9-1.1,0.9c0.5,0.2,0.8,0,0.8,0
					c0,0.3-0.5,0.7-0.5,0.7c0.5-0.2,0.8-0.7,0.8-0.7c0.4-0.2,1.1-1.1,1.1-1.1c0,0.3,0.2,0.3,0.2,0.3l0.1,0.2h0.2l0,0.5
					c0-0.2,0.3-0.1,0.3-0.1l0,0.5c0.2-0.4,0.4-0.2,0.4-0.2l0,0.4l0.3-0.1l0.1,0.5l0.2-0.1l0,0.4l0.2,0c-0.1,1.6-0.8,1.9-0.8,1.9
					c-2.1,1-1.9,1.6-1.9,1.6c-0.7,0.6-0.1,1.1-0.1,1.1c0-0.5,0.4-0.8,0.4-0.8l0,0c0.1-0.2,0.5-0.4,0.5-0.4c-0.6,0.4-0.6,0.7-0.6,0.7
					c0,0.1,0.1,0.3,0.1,0.3c-0.4,0.6,0.4,1,0.4,1c-0.2-0.3,0-0.7,0-0.7c0.2,0,0.3,0,0.3,0v-0.1c0-0.8,0.5-0.9,0.5-0.9
					c-0.5,0.5-0.4,0.9-0.4,0.9s0.2,1.2,1.2,0.9c0,0-0.5-0.1-0.5-0.4l0,0c0.5-0.2,0.8-1,0.8-1c0.8,0,0.7-0.7,0.7-0.7
					c0-0.4,0.5-0.6,0.5-0.6c-0.3,0.7,0,0.9,0,0.9c0,0.6-0.4,0.7-0.4,0.7c0.8,0,0.8-0.7,0.8-0.7c0.9-0.4,0.4-1.4,0.4-1.4
					c0.6-0.1,0.5,0.7,0.5,0.7c0.8-0.5,0.6-1.3,0.6-1.3c-0.4-0.6,0-0.7,0-0.7c0.7,0,0.3,0.9,0.3,0.9c0.7-0.2,0.6-1,0.6-1
					c0.9-0.3,0.8-1.3,0.8-1.3s-0.5,0.8-1.1,0.1c0,0-0.3-0.4,0.6-0.5c0,0,0-0.7-1.1-0.6c0,0-0.6,0-0.5-0.5c0,0,0-0.5,0.8,0.2
					c0,0,0.1-0.9-0.9-0.9c0,0-0.2,0.1-0.3-0.2c0,0,0.7-0.2,0.7-1.1c0,0-1.2,1-1.5-0.4c0,0-0.1-0.4,0.3-0.5c0,0,0.3-0.1,0.4,0.6
					c0,0,0.6-0.6,0.1-1c0,0,0.6-0.3,0.5-0.9c0,0-0.5,1-0.9,0.2c0,0-0.2-0.2,0.2-0.4c0,0,0.5-0.4,0.5-1.1c0,0,0.1,0,0.1,0.5
					c0,0,0.8,1,2.6,0.7c0,0,1.8-0.4,2.5-1.8c0,0,0.9,0.1,1.5-0.3c0,0-0.3-0.2,0.1-0.5c0,0,0.4-0.1,0.6-0.6c0,0-0.4,0.4-0.4,0
					c0,0,0.3-1.4-0.7-1.7c0,0-0.4-1.3-1.6-1.2c0,0,0.1-0.1,0.4-0.2c0,0-1.3-1.8-0.5-3c0,0-0.8-0.3-0.6-0.9c0,0,0-0.8,0.9-0.8
					c0,0,0.6,0,0.6,0.7c0,0,0,0.5-0.5,0.7c0,0,0.8,0,0.9-1.1c0,0,0.2-1.4-1.5-1.4c0,0-1.5,0-1.9,1.5l0-0.7c0,0-0.5-1.4-0.6-2.7
					c0,0-0.7-4.4,3.3-4.1c0,0-0.3,1.3-0.9,1.6c0,0-0.7,0.2-0.6-0.8c0,0-0.8,1.1,0.5,1.3c0,0,0.6,0.1,1.3-0.7c0,0,0.5,0.5,0.4,1.2
					c0,0-0.2,0.7-0.7,0.7c0,0-0.3-0.1-0.2-0.8c0,0-0.6,0.2-0.6,0.9c0,0-0.1,0.7,1.2,0.7c0,0-0.6,2,1.2,2.1c0,0-0.9-0.4-0.3-1.4v0
					c0,0,0.8-0.4,0.6-1.4c0,0,0.6,0.2,0.6,0.9c0,0-0.1,0.7-0.9,0.6c0,0,1.2,1.1,2-1c0,0,0.2-0.7-0.2-1.1c0,0,0.4,0,0.7-0.3
					c0,0,0.6,0.1,0.6,0.6c0,0,0,0.6-0.4,0.7c0,0,0.8,0.1,0.6-1.4C100.5,101.6,100.5,101.1,100,101z M83.6,98.5
					c0-0.1,0.2-0.4,0.5-0.1c0,0,0-0.6,0.5-0.6c0,0,0.2,0,0.2,0.5C84.8,98.3,84.2,98.5,83.6,98.5z M85.5,96.7l0.1-0.4
					c0.3-0.1,0.6,0.3,0.6,0.3C86,96.8,85.5,96.7,85.5,96.7z M87.2,97.8c1.2,0.3,1.9-0.7,1.9-0.7c-0.6,0-1-0.3-1-0.3
					c-0.6-0.5-1.2,0.3-1.2,0.3c0.6-0.9,1.2-0.4,1.2-0.4c0.3,0.3,1.1,0.3,1.1,0.3C88.4,98.4,87.2,97.8,87.2,97.8z"/>
			</g>
		</g>
	</g>
	<g id="XMLID_4585_">
		<g id="XMLID_4613_">
			<polygon id="XMLID_4621_" points="74.1,55.4 76.9,53.8 74.1,52.2 76.6,50.3 73.7,49 76,46.8 72.9,46 74.8,43.5 71.7,43 
				73.3,40.3 70.1,40.3 71.3,37.4 68.2,37.8 69,34.7 65.9,35.5 66.3,32.4 63.4,33.6 63.4,30.4 60.7,32 60.3,28.9 57.7,30.8 
				56.9,27.8 54.7,30 53.5,27.1 51.5,29.6 49.9,26.8 48.4,29.6 46.4,27.1 45.2,30 43,27.8 42.2,30.8 39.6,28.9 39.2,32 36.5,30.4 
				36.5,33.6 33.6,32.4 34,35.5 30.9,34.7 31.7,37.8 28.6,37.4 29.8,40.3 26.6,40.3 28.2,43 25.1,43.5 27,46 23.9,46.8 26.2,49 
				23.2,50.3 25.8,52.2 23,53.8 25.8,55.4 23.2,57.3 26.2,58.5 23.9,60.7 27,61.6 25.1,64.1 28.2,64.5 26.6,67.2 29.8,67.2 
				28.6,70.2 31.7,69.7 30.9,72.8 34,72 33.6,75.1 36.5,73.9 36.5,77.1 39.2,75.5 39.6,78.6 42.2,76.7 43,79.8 45.2,77.5 46.4,80.5 
				48.4,78 49.9,80.7 51.5,78 53.5,80.5 54.7,77.5 56.9,79.8 57.7,76.7 60.3,78.6 60.7,75.5 63.4,77.1 63.4,73.9 66.3,75.1 65.9,72 
				69,72.8 68.2,69.7 71.3,70.2 70.1,67.2 73.3,67.2 71.7,64.5 74.8,64.1 72.9,61.6 76,60.7 73.7,58.5 76.6,57.3 			"/>
			<radialGradient id="XMLID_5_" cx="49.9469" cy="53.7672" r="23.1259" gradientUnits="userSpaceOnUse">
				<stop  offset="0" style="stop-color:#F7A516"/>
				<stop  offset="1" style="stop-color:#F0E400"/>
			</radialGradient>
			<circle id="XMLID_4620_" class="st5" cx="49.9" cy="53.8" r="23.1"/>
			<g id="XMLID_4614_">
				<path id="XMLID_4615_" class="st2" d="M63.7,43.4c0,0,1.3-0.6,0.6-1.9c0,0,0.3,1.3-0.8,1.3c0,0-0.7,0-0.8-0.4c0,0,1.1,0,0.7-1.2
					c0,0,0.2,0.8-0.8,0.8c0,0-0.5,0-0.9-0.4c0,0,1.5-0.3,0.6-1.6c0,0,0.1,0.9-0.6,1c0,0-0.8-0.1-1.2,0.4c0,0-1.7-1.5-3.6,0
					c0,0-1.9,1.4-1.9,3.9c0,0,0,1.1,0.3,2.2c0,0,0.4,1.6,0.9,2l0.3,0.2c0,0-2.2-0.5-2.4,1.1c0,0-0.1,0.6,0.4,1.2c0,0-0.2-0.8,0.5-1
					c0,0,0.6-0.2,0.7,0.2c0,0-0.9,0.6-0.2,1.5c0,0-0.2-1.2,1.1-0.8c0,0-0.9,0.7-0.1,1.3c0,0-0.1-1,0.4-1.1c0,0,0.2,0.4,0.8,0.1
					l0.7,1.4c0,0-1.2,0.1-1.2,1.5c0,0,0.2-0.4,0.7-0.4c0,0-0.2,0.9-1.6,0.7c0,0-0.9-0.1-0.4-1.4c0,0-0.6,0.3-0.6,1.6
					c0,0-0.2,0.9,1.2,0.9c0,0,0.6,0,1.1-0.1c0,0,1,0.1,0.9,1.1c0,0-0.3,1.1-2,1.1c0,0-1.9,0.1-2.1-1.2c0,0-0.1-0.9-0.6-1.5
					c0,0-1.1-2.2-1.6-5c0,0-0.6,0.3-1.1-0.3c0,0,1.3,0.7,1.5-0.7c0,0,0.2-0.9-0.4-1.1l0-0.5c0,0-0.6-0.3-0.6-1.4
					c0,0,0.2,1.4,1.5,1.4c0,0,0.7-0.1,0.7-0.6c0,0-0.9,0.5-1.1-0.3c0,0-0.1-0.3,0-0.8c0,0,0.2-0.6-0.2-1c0,0-0.4-0.3-0.3-1.2
					c0,0,0.2,1.9,1.6,1.8c0,0-0.3-0.1-0.3-0.6l0-0.8c0,0-0.3,0-0.4-0.2c0,0,1,0.2,1.2-0.5c0,0,0.3-0.8-0.5-1.2c0,0,0.3,0.1,0.6-0.1
					c0,0-0.7-0.6-0.7-1.5c0,0,0.4,0.2,1-0.2c0,0-0.9,0.1-1.1-0.9c0,0,0.5,0.1,0.8-0.1c0,0-0.5-0.2-0.6-0.6c0,0,0-0.4-0.6-0.4
					c0,0,0.5-0.4,0.1-1c0,0,0,0.6-0.6,0.6c0,0,0.4-0.8-0.2-1.3c0,0,0.5,0.9-0.5,1.1c0,0,0.5-1-0.4-1.4c0,0,0.4,0.6-0.1,1
					c0,0-1.8-0.2-2.2-0.1l-0.6,0.6c0,0-1.6,0-1.8,0.4c0,0,0,1.2,0.4,1.7c-0.2,0-0.4,0-0.6,0c0,0-1.3-0.2-0.7-0.8l0.1-0.1
					c0,0-1.1-0.8-1.5,0.2c0,0-0.3,1.1,1,1.2c0,0,0,0,0,0c1.3,0.1,1.9-0.3,1.9-0.3s0.4-0.2,1.1,0c0,0,0.3,0.5-0.2,0.5
					c0,0-0.3,0.1-0.3-0.4c0,0-0.1-0.1-0.3,0.2c0,0-0.3,0.3-0.4-0.2c0,0-0.5,0.1-0.5,1.3c0,0,2.1-0.8,2.2,0.6c0,0-0.3-0.6-0.9-0.6
					c0,0-0.1,0.7-0.9,0.7c0,0-1.6-0.7-2.2,0.5c0,0-0.4,0.4-0.5,1.1c0,0,0,0.4-0.4,0.4c0,0-0.3,0-0.3-0.4c0,0-0.2,0.3,0.3,0.8
					c0,0-0.7-0.4-0.2-1.1c0,0-0.1,0.6,0.3,0.6c0,0,0.3,0,0.3-0.3c0,0,0.1-0.8,0.5-1.2l0-0.2l-0.1-0.1l-0.2,0l-0.1-0.5L44.3,43
					L44,42.6l-0.1,0l-0.1-0.3l-0.1,0l0-0.1l-0.1-0.1l0-0.1l-0.1-0.3l-0.2,0v-0.3l-0.1,0l-0.1-0.1V41l-0.2,0.2l-0.2-0.3v-0.4
					l-0.2,0.1l-0.3-0.4c0,0,0.4-3-0.3-3.9c0,0,0.1-0.7-0.6-0.7c0,0,0.3,0.2,0.3,0.5c0,0-0.4-0.2-0.5,0c0,0,0.4,0.3,0.2,1
					c0,0,0-0.6-0.4-1c0,0,0-0.8-0.8-0.4c0,0,0.4,0,0.5,0.3c0,0,0,0,0,0c0,0-0.3,0.2-0.4,0.5c0,0,0.4,0.2,0.3,0.8
					c0,0-0.2-0.7-0.8-0.9c0,0-0.6-0.3-0.8,0.2c0,0,0.6-0.2,0.6,0.2c0,0-0.6,0.8,0.8,1.6c0,0-0.2,0.2-0.2,0.8c0,0-0.1-0.2-0.5,0
					c0,0-0.1-0.4,0.2-0.6c0,0-0.9,0-0.5,1.1c0,0-0.2,0.9,0.8,1.4c0,0-1.1-0.2-1.1,0.6c0,0,0.5-0.4,0.9,0.1c0,0,0.2,0.3,0.6,0.3
					c0,0-1,0.8,0.1,1.4c0,0,0-0.7,0.8-0.6c0,0-0.2,0.5,0.3,1.1c0,0-0.4,0.4,0.2,1c0,0,0-0.4,0.2-0.4c0,0,0.3,0,0.3,0.6
					c0,0-1.1,1.5-1.2,0.2c0,0-0.6,0.8,0.4,0.9c0,0,0.3,0,0.8-0.4c0,0,0.4-0.3,0.4,0.1c0,0,0,0,0,0c0,0.4-0.2,0.4-0.7,0.3
					c0,0,0,0.8,1.4,0.5c0,0,0.3,0.2-0.3,0.2c0,0-0.8,0-0.8,0.7c0,0,0.4-0.5,0.6-0.2c0,0,0.2,0.4-0.5,0.5c0,0-0.6,0.2-1-0.6
					c0,0-0.2,0.7,0.8,0.8c0,0,0,0.2-1,0.2l0.3,0.2l-0.5-0.1c0,0-0.2,0,0,0.2c0,0-0.2-0.2-0.4,0c0,0,0.4,0.2-0.2,0.3
					c0,0-2.4-0.4-2.8-0.9c0,0-0.5-0.4-1.3-0.1c0,0-0.8-0.4-0.8,0.4c0,0,0.1-0.2,0.6-0.1c0,0-0.1,0.3,0.2,0.3c0,0,0.4,0,0.5,0.1
					c0,0-0.6-0.1-1,0.1c0,0-0.6-0.1-0.4,0.9c0,0,0-0.4,0.4-0.5c0,0,0.2,0.2,0,0.5c0,0-0.6,0.6,0.1,1.1c0,0-0.2-0.5,0.1-0.7
					c0,0,0.2,0.5,0.9,0c0,0,0.6,0.1,0.8-0.1c0,0,0.4-0.2,0.5,0.1c0,0,0,0,0,0.1c0,0-0.5-0.1-0.5,0.2c0,0-0.3,0.7-0.7,0.1
					c0,0,0,0.8,0.8,0.5c0,0,1.2,0.3,1.7-0.7c0,0,0.2,0.5-0.4,1c0,0,0.5,0.1,1.2-0.6c0,0-0.3,0.9,1.4,0.6c0,0-0.6-0.1-0.5-0.7
					c0,0,0.1-0.5,0.6,0c0,0,0.5,0.6,1.1,0.5c0,0-0.2-0.1-0.2-0.6c0,0,0-0.3,0.4-0.3c0,0,0.3,0,0.3,0.4c0,0,0,0.4-0.3,0.6
					c0,0,0.7,0.4,1-0.5c0,0,0-0.4,0.5-0.4c0,0,0.4,0.1,0,0.7c0,0,0.4,0,0.5-0.8c0,0,0.1-0.6,0.4-0.1l0,0c0.1,0.3-0.3,0.4-0.3,0.4
					c0.4,0,0.5-0.3,0.5-0.3c0.2-0.2,0-0.6,0-0.6c0.3,0.3,0.1,0.7,0.1,0.7c0.6,1.5,2.4,3,2.4,3c1.6,1.2,1.9,2.5,1.9,2.5
					c0.2,1.2-0.3,1.8-0.3,1.8c0.3-0.6,0.2-1.4,0.2-1.4c-0.7-0.2-1.8-1.1-1.8-1.1l0.1,0.3c-0.6-0.3-1.6-0.2-1.6-0.2
					c-0.6,0.1-1.3-0.1-1.3-0.1c0.8,0.4-0.4,0.5-0.4,0.5c-0.7,0.1-1.6-0.3-1.6-0.3c0.1,0.5,1,0.5,1,0.5c-0.9,0.3-1,0.8-1,0.8
					c-0.5,0.8-1.1,0.7-1.1,0.7c-0.7,0-0.6-0.8-0.6-0.8c-0.2,0.2-0.2,0.5-0.2,0.5c-0.2,0-0.4-0.4-0.4-0.4c0,0.8,1.2,1.3,1.2,1.3
					c-0.1,0.9-1.1,1-1.1,1c1.2,0.5,1.8-0.1,1.8-0.1c-0.1,0.5-0.7,1-0.7,1c0.5,0,0.8-0.5,0.8-0.5c0,0.9-0.5,1.2-0.5,1.2
					c0.3,0,0.5-0.4,0.5-0.4c-0.2,0.6-0.4,0.6-0.4,0.6c0.3,0.1,0.4-0.1,0.4-0.1c0,0.5-0.3,0.6-0.3,0.6c0.5,0,0.8-0.4,0.8-0.4
					c0.3,0.1,0.2,0.4,0.2,0.4c-0.2,0.9-1.5,0.8-1.5,0.8c-1.3,0.1-1.8,1-1.8,1c-0.6,0.7-0.4,1.2-0.4,1.2c0.3-0.6,1.1-1,1.1-1
					c-0.5,0.3-0.8,0.8-0.8,0.8c-0.3,0.8,0.2,0.9,0.2,0.9c0-0.4,0.2-0.6,0.2-0.6c0.3,0.1,0.4-0.1,0.4-0.1c0.2-0.8,0.7-0.7,0.7-0.7
					c-0.6,0.2-0.6,0.8-0.6,0.8c-0.1,1.1,0.7,1.1,0.7,1.1c-0.4-0.3-0.2-0.6-0.2-0.6c0.9-0.1,1.1-0.8,1.1-0.8c0-0.3,0.5-0.3,0.5-0.3
					c-0.3,0.3,0,0.8,0,0.8c-0.1,0.5-0.7,0.5-0.7,0.5C43.6,65.6,44,65,44,65c0.9-0.1,1.1-1.2,1.1-1.2c0.1-0.6,0.7-0.8,0.7-0.8
					c-0.4,1.1,0.3,1.5,0.3,1.5c-0.1-0.7,0.4-0.9,0.4-0.9c0.7-0.2,0.6-0.8,0.6-0.8c0.2,0.5,0.6,0.3,0.6,0.3c-0.1-0.1-0.1-0.4-0.1-0.4
					c0-1-0.8-1.2-0.8-1.2c-0.4-0.1-0.7-0.6-0.7-0.6c0.8,0.7,1.3,0.3,1.3,0.3c-0.3,0-0.3-0.2-0.3-0.2c0.1-0.5-0.1-1-0.1-1
					c-0.4-0.3-0.3-0.6-0.3-0.6c0.7-0.1,0.5,0.8,0.5,0.8c0.8-0.1,0.6-0.9,0.6-0.9c0.3,0.5,0.6,0.2,0.6,0.2c0.2-0.4,0.5-0.6,0.5-0.6
					c-0.6,0.9-0.9,2.2-0.9,2.2c0.6-0.5-0.2,1.1-0.2,1.1c0.8-0.4,0,1.1,0,1.1c0.5-0.3,0.3,0.3,0.3,0.3l-0.4,0.6
					c0.2-0.2,0.4-0.1,0.4-0.1c-0.2,0.9-1.1,0.9-1.1,0.9c0.5,0.2,0.8,0,0.8,0c0,0.3-0.5,0.7-0.5,0.7c0.5-0.2,0.8-0.8,0.8-0.8
					c0.4-0.2,1.1-1.1,1.1-1.1c0,0.3,0.2,0.3,0.2,0.3l0.1,0.2h0.2l0,0.5c0-0.2,0.3-0.1,0.3-0.1l0,0.5c0.2-0.4,0.4-0.2,0.4-0.2l0,0.4
					l0.3-0.1l0.1,0.5l0.2-0.1l0,0.4l0.2,0c-0.1,1.6-0.8,2-0.8,2c-2.1,1-2,1.7-2,1.7C48,70.4,48.6,71,48.6,71c0-0.5,0.4-0.8,0.4-0.8
					l0,0c0.1-0.2,0.5-0.4,0.5-0.4c-0.6,0.4-0.6,0.7-0.6,0.7c0,0.2,0.1,0.3,0.1,0.3c-0.4,0.6,0.4,1,0.4,1c-0.2-0.3,0-0.7,0-0.7
					c0.2,0,0.3,0,0.3,0V71c0-0.8,0.5-0.9,0.5-0.9c-0.5,0.5-0.4,0.9-0.4,0.9s0.2,1.2,1.2,0.9c0,0-0.5-0.1-0.5-0.5l0,0
					c0.6-0.2,0.8-1,0.8-1c0.8,0,0.7-0.7,0.7-0.7c0-0.4,0.5-0.6,0.5-0.6c-0.3,0.8,0,0.9,0,0.9c0,0.6-0.4,0.8-0.4,0.8
					C53,70.8,53,70,53,70c0.9-0.4,0.4-1.4,0.4-1.4c0.6-0.1,0.5,0.7,0.5,0.7c0.8-0.5,0.6-1.3,0.6-1.3c-0.4-0.6,0-0.7,0-0.7
					c0.7,0,0.3,0.9,0.3,0.9c0.7-0.2,0.6-1,0.6-1c0.9-0.3,0.8-1.3,0.8-1.3s-0.5,0.8-1.1,0.1c0,0-0.3-0.4,0.6-0.5c0,0,0-0.7-1.2-0.6
					c0,0-0.6,0-0.5-0.5c0,0,0-0.5,0.8,0.2c0,0,0.1-0.9-0.9-0.9c0,0-0.2,0.1-0.3-0.2c0,0,0.7-0.2,0.7-1.1c0,0-1.3,1-1.5-0.4
					c0,0-0.1-0.4,0.4-0.5c0,0,0.4-0.1,0.4,0.6c0,0,0.6-0.6,0.1-1c0,0,0.6-0.3,0.5-0.9c0,0-0.5,1-0.9,0.2c0,0-0.2-0.2,0.2-0.5
					c0,0,0.5-0.4,0.5-1.1c0,0,0.1,0,0.1,0.5c0,0,0.8,1,2.6,0.7c0,0,1.8-0.4,2.5-1.8c0,0,0.9,0.1,1.5-0.3c0,0-0.4-0.2,0.1-0.5
					c0,0,0.4-0.1,0.6-0.6c0,0-0.4,0.4-0.4,0c0,0,0.3-1.4-0.7-1.7c0,0-0.4-1.3-1.7-1.2c0,0,0.1-0.1,0.4-0.2c0,0-1.3-1.9-0.5-3
					c0,0-0.8-0.3-0.6-0.9c0,0,0-0.8,0.9-0.8c0,0,0.7,0,0.6,0.7c0,0,0,0.5-0.5,0.7c0,0,0.8,0,0.9-1.1c0,0,0.2-1.4-1.5-1.4
					c0,0-1.5,0-1.9,1.5l0-0.7c0,0-0.6-1.4-0.6-2.7c0,0-0.7-4.4,3.4-4.1c0,0-0.3,1.3-0.9,1.6c0,0-0.7,0.2-0.6-0.8
					c0,0-0.8,1.1,0.5,1.3c0,0,0.6,0.1,1.3-0.7c0,0,0.5,0.5,0.4,1.2c0,0-0.2,0.7-0.7,0.7c0,0-0.4-0.1-0.2-0.8c0,0-0.6,0.2-0.6,0.9
					c0,0-0.1,0.7,1.2,0.7c0,0-0.6,2,1.2,2.1c0,0-0.9-0.4-0.3-1.4v0c0,0,0.8-0.4,0.6-1.4c0,0,0.7,0.2,0.6,0.9c0,0-0.1,0.7-0.9,0.6
					c0,0,1.2,1.1,2-1c0,0,0.2-0.7-0.2-1.1c0,0,0.4,0,0.7-0.4c0,0,0.6,0.1,0.6,0.6c0,0,0,0.6-0.4,0.7c0,0,0.8,0.1,0.6-1.4
					C64.2,44,64.2,43.5,63.7,43.4z M47.1,40.9c0-0.1,0.2-0.4,0.5-0.1c0,0,0-0.6,0.5-0.6c0,0,0.2,0,0.2,0.5
					C48.3,40.7,47.7,40.9,47.1,40.9z M48.9,39.1l0.1-0.4c0.3-0.1,0.6,0.3,0.6,0.3C49.5,39.1,48.9,39.1,48.9,39.1z M50.7,40.2
					c1.2,0.3,1.9-0.7,1.9-0.7c-0.6,0-1-0.3-1-0.3c-0.6-0.5-1.2,0.3-1.2,0.3c0.6-0.9,1.3-0.4,1.3-0.4c0.4,0.3,1.1,0.3,1.1,0.3
					C51.9,40.8,50.7,40.2,50.7,40.2z"/>
			</g>
		</g>
		<g id="XMLID_4604_">
			<polygon id="XMLID_4612_" points="147.2,55.4 149.9,53.8 147.2,52.2 149.7,50.3 146.7,49 149,46.8 145.9,46 147.8,43.5 144.7,43 
				146.3,40.3 143.1,40.3 144.3,37.4 141.2,37.8 142,34.7 138.9,35.5 139.4,32.4 136.4,33.6 136.4,30.4 133.7,32 133.3,28.9 
				130.8,30.8 129.9,27.8 127.7,30 126.5,27.1 124.6,29.6 123,26.8 121.4,29.6 119.5,27.1 118.2,30 116,27.8 115.2,30.8 112.7,28.9 
				112.2,32 109.5,30.4 109.5,33.6 106.6,32.4 107,35.5 103.9,34.7 104.7,37.8 101.6,37.4 102.8,40.3 99.6,40.3 101.2,43 98.1,43.5 
				100,46 97,46.8 99.2,49 96.3,50.3 98.8,52.2 96,53.8 98.8,55.4 96.3,57.3 99.2,58.5 97,60.7 100,61.6 98.1,64.1 101.2,64.5 
				99.6,67.2 102.8,67.2 101.6,70.2 104.7,69.7 103.9,72.8 107,72 106.6,75.1 109.5,73.9 109.5,77.1 112.2,75.5 112.7,78.6 
				115.2,76.7 116,79.8 118.2,77.5 119.5,80.5 121.4,78 123,80.7 124.6,78 126.5,80.5 127.7,77.5 129.9,79.8 130.8,76.7 133.3,78.6 
				133.7,75.5 136.4,77.1 136.4,73.9 139.4,75.1 138.9,72 142,72.8 141.2,69.7 144.3,70.2 143.1,67.2 146.3,67.2 144.7,64.5 
				147.8,64.1 145.9,61.6 149,60.7 146.7,58.5 149.7,57.3 			"/>
			<radialGradient id="XMLID_6_" cx="122.9665" cy="53.7672" r="23.1259" gradientUnits="userSpaceOnUse">
				<stop  offset="0" style="stop-color:#F7A516"/>
				<stop  offset="1" style="stop-color:#F0E400"/>
			</radialGradient>
			<circle id="XMLID_4611_" class="st6" cx="123" cy="53.8" r="23.1"/>
			<g id="XMLID_4605_">
				<path id="XMLID_4606_" class="st2" d="M136.7,43.4c0,0,1.3-0.6,0.6-1.9c0,0,0.3,1.3-0.8,1.3c0,0-0.7,0-0.8-0.4
					c0,0,1.1,0,0.7-1.2c0,0,0.2,0.8-0.8,0.8c0,0-0.5,0-0.9-0.4c0,0,1.5-0.3,0.6-1.6c0,0,0.1,0.9-0.6,1c0,0-0.8-0.1-1.2,0.4
					c0,0-1.7-1.5-3.6,0c0,0-1.9,1.4-1.9,3.9c0,0,0,1.1,0.3,2.2c0,0,0.4,1.6,0.9,2l0.3,0.2c0,0-2.2-0.5-2.4,1.1c0,0-0.1,0.6,0.4,1.2
					c0,0-0.2-0.8,0.5-1c0,0,0.6-0.2,0.7,0.2c0,0-0.9,0.6-0.2,1.5c0,0-0.2-1.2,1.1-0.8c0,0-0.9,0.7-0.1,1.3c0,0-0.1-1,0.4-1.1
					c0,0,0.2,0.4,0.8,0.1l0.7,1.4c0,0-1.2,0.1-1.2,1.5c0,0,0.2-0.4,0.7-0.4c0,0-0.2,0.9-1.6,0.7c0,0-0.9-0.1-0.4-1.4
					c0,0-0.6,0.3-0.6,1.6c0,0-0.2,0.9,1.2,0.9c0,0,0.6,0,1.1-0.1c0,0,1,0.1,0.9,1.1c0,0-0.3,1.1-2,1.1c0,0-1.9,0.1-2.1-1.2
					c0,0-0.1-0.9-0.6-1.5c0,0-1.1-2.2-1.6-5c0,0-0.6,0.3-1.1-0.3c0,0,1.3,0.7,1.5-0.7c0,0,0.2-0.9-0.4-1.1l0-0.5
					c0,0-0.6-0.3-0.6-1.4c0,0,0.2,1.4,1.5,1.4c0,0,0.7-0.1,0.7-0.6c0,0-0.9,0.5-1.1-0.3c0,0-0.1-0.3,0-0.8c0,0,0.2-0.6-0.2-1
					c0,0-0.4-0.3-0.3-1.2c0,0,0.2,1.9,1.6,1.8c0,0-0.3-0.1-0.3-0.6l0-0.8c0,0-0.3,0-0.4-0.2c0,0,1,0.2,1.2-0.5c0,0,0.3-0.8-0.5-1.2
					c0,0,0.3,0.1,0.6-0.1c0,0-0.7-0.6-0.7-1.5c0,0,0.4,0.2,1-0.2c0,0-0.9,0.1-1.1-0.9c0,0,0.5,0.1,0.8-0.1c0,0-0.5-0.2-0.6-0.6
					c0,0,0-0.4-0.6-0.4c0,0,0.5-0.4,0.1-1c0,0,0,0.6-0.6,0.6c0,0,0.4-0.8-0.2-1.3c0,0,0.5,0.9-0.5,1.1c0,0,0.5-1-0.4-1.4
					c0,0,0.4,0.6-0.1,1c0,0-1.8-0.2-2.2-0.1l-0.6,0.6c0,0-1.6,0-1.8,0.4c0,0,0,1.2,0.4,1.7c-0.2,0-0.4,0-0.6,0c0,0-1.3-0.2-0.7-0.8
					l0.1-0.1c0,0-1.1-0.8-1.5,0.2c0,0-0.3,1.1,1,1.2c0,0,0,0,0,0c1.3,0.1,1.9-0.3,1.9-0.3s0.4-0.2,1.1,0c0,0,0.3,0.5-0.2,0.5
					c0,0-0.3,0.1-0.3-0.4c0,0-0.1-0.1-0.3,0.2c0,0-0.3,0.3-0.4-0.2c0,0-0.5,0.1-0.5,1.3c0,0,2.1-0.8,2.2,0.6c0,0-0.3-0.6-0.9-0.6
					c0,0-0.1,0.7-0.9,0.7c0,0-1.6-0.7-2.2,0.5c0,0-0.4,0.4-0.5,1.1c0,0,0,0.4-0.4,0.4c0,0-0.3,0-0.3-0.4c0,0-0.2,0.3,0.3,0.8
					c0,0-0.7-0.4-0.2-1.1c0,0-0.1,0.6,0.3,0.6c0,0,0.3,0,0.3-0.3c0,0,0.1-0.8,0.5-1.2l0-0.2l-0.1-0.1l-0.2,0l-0.1-0.5l-0.2,0.2
					l-0.2-0.4l-0.1,0l-0.1-0.3l-0.1,0l0-0.1l-0.1-0.1l0-0.1l-0.1-0.3l-0.2,0v-0.3l-0.1,0l-0.1-0.1V41l-0.2,0.2l-0.2-0.3v-0.4
					l-0.2,0.1l-0.3-0.4c0,0,0.4-3-0.3-3.9c0,0,0.1-0.7-0.6-0.7c0,0,0.3,0.2,0.3,0.5c0,0-0.4-0.2-0.5,0c0,0,0.4,0.3,0.2,1
					c0,0,0-0.6-0.4-1c0,0,0-0.8-0.8-0.4c0,0,0.4,0,0.5,0.3c0,0,0,0,0,0c0,0-0.3,0.2-0.4,0.5c0,0,0.4,0.2,0.3,0.8
					c0,0-0.2-0.7-0.8-0.9c0,0-0.6-0.3-0.8,0.2c0,0,0.6-0.2,0.6,0.2c0,0-0.6,0.8,0.8,1.6c0,0-0.2,0.2-0.2,0.8c0,0-0.1-0.2-0.5,0
					c0,0-0.1-0.4,0.2-0.6c0,0-0.9,0-0.5,1.1c0,0-0.2,0.9,0.8,1.4c0,0-1.1-0.2-1.1,0.6c0,0,0.5-0.4,0.9,0.1c0,0,0.2,0.3,0.6,0.3
					c0,0-1,0.8,0.1,1.4c0,0,0-0.7,0.8-0.6c0,0-0.2,0.5,0.3,1.1c0,0-0.4,0.4,0.2,1c0,0,0-0.4,0.2-0.4c0,0,0.3,0,0.3,0.6
					c0,0-1.1,1.5-1.2,0.2c0,0-0.6,0.8,0.4,0.9c0,0,0.3,0,0.8-0.4c0,0,0.4-0.3,0.4,0.1c0,0,0,0,0,0c0,0.4-0.2,0.4-0.7,0.3
					c0,0,0,0.8,1.4,0.5c0,0,0.3,0.2-0.3,0.2c0,0-0.8,0-0.8,0.7c0,0,0.4-0.5,0.6-0.2c0,0,0.2,0.4-0.5,0.5c0,0-0.6,0.2-1-0.6
					c0,0-0.2,0.7,0.8,0.8c0,0,0,0.2-1,0.2l0.3,0.2l-0.5-0.1c0,0-0.2,0,0,0.2c0,0-0.2-0.2-0.4,0c0,0,0.4,0.2-0.2,0.3
					c0,0-2.4-0.4-2.8-0.9c0,0-0.5-0.4-1.3-0.1c0,0-0.8-0.4-0.8,0.4c0,0,0.1-0.2,0.6-0.1c0,0-0.1,0.3,0.2,0.3c0,0,0.4,0,0.5,0.1
					c0,0-0.6-0.1-1,0.1c0,0-0.6-0.1-0.4,0.9c0,0,0-0.4,0.4-0.5c0,0,0.2,0.2,0,0.5c0,0-0.6,0.6,0.1,1.1c0,0-0.2-0.5,0.1-0.7
					c0,0,0.2,0.5,0.9,0c0,0,0.6,0.1,0.8-0.1c0,0,0.4-0.2,0.5,0.1c0,0,0,0,0,0.1c0,0-0.5-0.1-0.5,0.2c0,0-0.3,0.7-0.7,0.1
					c0,0,0,0.8,0.8,0.5c0,0,1.2,0.3,1.7-0.7c0,0,0.2,0.5-0.4,1c0,0,0.5,0.1,1.2-0.6c0,0-0.3,0.9,1.4,0.6c0,0-0.6-0.1-0.5-0.7
					c0,0,0.1-0.5,0.6,0c0,0,0.5,0.6,1.1,0.5c0,0-0.2-0.1-0.2-0.6c0,0,0-0.3,0.4-0.3c0,0,0.3,0,0.3,0.4c0,0,0,0.4-0.3,0.6
					c0,0,0.7,0.4,1-0.5c0,0,0-0.4,0.5-0.4c0,0,0.4,0.1,0,0.7c0,0,0.4,0,0.5-0.8c0,0,0.1-0.6,0.4-0.1l0,0c0.1,0.3-0.3,0.4-0.3,0.4
					c0.4,0,0.5-0.3,0.5-0.3c0.2-0.2,0-0.6,0-0.6c0.3,0.3,0.1,0.7,0.1,0.7c0.6,1.5,2.4,3,2.4,3c1.6,1.2,1.9,2.5,1.9,2.5
					c0.2,1.2-0.3,1.8-0.3,1.8c0.3-0.6,0.2-1.4,0.2-1.4c-0.7-0.2-1.8-1.1-1.8-1.1l0.1,0.3c-0.6-0.3-1.6-0.2-1.6-0.2
					c-0.6,0.1-1.3-0.1-1.3-0.1c0.8,0.4-0.4,0.5-0.4,0.5c-0.7,0.1-1.6-0.3-1.6-0.3c0.1,0.5,1,0.5,1,0.5c-0.9,0.3-1,0.8-1,0.8
					c-0.5,0.8-1.1,0.7-1.1,0.7c-0.7,0-0.6-0.8-0.6-0.8c-0.2,0.2-0.2,0.5-0.2,0.5c-0.2,0-0.4-0.4-0.4-0.4c0,0.8,1.2,1.3,1.2,1.3
					c-0.1,0.9-1.1,1-1.1,1c1.2,0.5,1.8-0.1,1.8-0.1c-0.1,0.5-0.7,1-0.7,1c0.5,0,0.8-0.5,0.8-0.5c0,0.9-0.5,1.2-0.5,1.2
					c0.3,0,0.5-0.4,0.5-0.4c-0.2,0.6-0.4,0.6-0.4,0.6c0.3,0.1,0.4-0.1,0.4-0.1c0,0.5-0.3,0.6-0.3,0.6c0.5,0,0.8-0.4,0.8-0.4
					c0.3,0.1,0.2,0.4,0.2,0.4c-0.2,0.9-1.5,0.8-1.5,0.8c-1.3,0.1-1.8,1-1.8,1c-0.6,0.7-0.4,1.2-0.4,1.2c0.3-0.6,1.1-1,1.1-1
					c-0.5,0.3-0.8,0.8-0.8,0.8c-0.3,0.8,0.2,0.9,0.2,0.9c0-0.4,0.2-0.6,0.2-0.6c0.3,0.1,0.4-0.1,0.4-0.1c0.2-0.8,0.7-0.7,0.7-0.7
					c-0.6,0.2-0.6,0.8-0.6,0.8c-0.1,1.1,0.7,1.1,0.7,1.1c-0.4-0.3-0.2-0.6-0.2-0.6c0.9-0.1,1.1-0.8,1.1-0.8c0-0.3,0.5-0.3,0.5-0.3
					c-0.3,0.3,0,0.8,0,0.8c-0.1,0.5-0.7,0.5-0.7,0.5c0.7,0.3,1.2-0.2,1.2-0.2c0.9-0.1,1.1-1.2,1.1-1.2c0.1-0.6,0.7-0.8,0.7-0.8
					c-0.4,1.1,0.3,1.5,0.3,1.5c-0.1-0.7,0.4-0.9,0.4-0.9c0.7-0.2,0.6-0.8,0.6-0.8c0.2,0.5,0.6,0.3,0.6,0.3c-0.1-0.1-0.1-0.4-0.1-0.4
					c0-1-0.8-1.2-0.8-1.2c-0.4-0.1-0.7-0.6-0.7-0.6c0.8,0.7,1.3,0.3,1.3,0.3c-0.3,0-0.3-0.2-0.3-0.2c0.1-0.5-0.1-1-0.1-1
					c-0.4-0.3-0.3-0.6-0.3-0.6c0.7-0.1,0.5,0.8,0.5,0.8c0.8-0.1,0.6-0.9,0.6-0.9c0.3,0.5,0.6,0.2,0.6,0.2c0.2-0.4,0.5-0.6,0.5-0.6
					c-0.6,0.9-0.9,2.2-0.9,2.2c0.6-0.5-0.2,1.1-0.2,1.1c0.8-0.4,0,1.1,0,1.1c0.5-0.3,0.3,0.3,0.3,0.3l-0.4,0.6
					c0.2-0.2,0.4-0.1,0.4-0.1c-0.2,0.9-1.1,0.9-1.1,0.9c0.5,0.2,0.8,0,0.8,0c0,0.3-0.5,0.7-0.5,0.7c0.5-0.2,0.8-0.8,0.8-0.8
					c0.4-0.2,1.1-1.1,1.1-1.1c0,0.3,0.2,0.3,0.2,0.3l0.1,0.2h0.2l0,0.5c0-0.2,0.3-0.1,0.3-0.1l0,0.5c0.2-0.4,0.4-0.2,0.4-0.2l0,0.4
					l0.3-0.1l0.1,0.5l0.2-0.1l0,0.4l0.2,0c-0.1,1.6-0.8,2-0.8,2c-2.1,1-2,1.7-2,1.7c-0.7,0.6-0.1,1.2-0.1,1.2c0-0.5,0.4-0.8,0.4-0.8
					l0,0c0.1-0.2,0.5-0.4,0.5-0.4c-0.6,0.4-0.6,0.7-0.6,0.7c0,0.2,0.1,0.3,0.1,0.3c-0.4,0.6,0.4,1,0.4,1c-0.2-0.3,0-0.7,0-0.7
					c0.2,0,0.3,0,0.3,0V71c0-0.8,0.5-0.9,0.5-0.9c-0.5,0.5-0.4,0.9-0.4,0.9s0.2,1.2,1.2,0.9c0,0-0.5-0.1-0.5-0.5l0,0
					c0.6-0.2,0.8-1,0.8-1c0.8,0,0.7-0.7,0.7-0.7c0-0.4,0.5-0.6,0.5-0.6c-0.3,0.8,0,0.9,0,0.9c0,0.6-0.4,0.8-0.4,0.8
					c0.8,0,0.9-0.8,0.9-0.8c0.9-0.4,0.4-1.4,0.4-1.4c0.6-0.1,0.5,0.7,0.5,0.7c0.8-0.5,0.6-1.3,0.6-1.3c-0.4-0.6,0-0.7,0-0.7
					c0.7,0,0.3,0.9,0.3,0.9c0.7-0.2,0.6-1,0.6-1c0.9-0.3,0.8-1.3,0.8-1.3s-0.5,0.8-1.1,0.1c0,0-0.3-0.4,0.6-0.5c0,0,0-0.7-1.2-0.6
					c0,0-0.6,0-0.5-0.5c0,0,0-0.5,0.8,0.2c0,0,0.1-0.9-0.9-0.9c0,0-0.2,0.1-0.3-0.2c0,0,0.7-0.2,0.7-1.1c0,0-1.3,1-1.5-0.4
					c0,0-0.1-0.4,0.4-0.5c0,0,0.4-0.1,0.4,0.6c0,0,0.6-0.6,0.1-1c0,0,0.6-0.3,0.5-0.9c0,0-0.5,1-0.9,0.2c0,0-0.2-0.2,0.2-0.5
					c0,0,0.5-0.4,0.5-1.1c0,0,0.1,0,0.1,0.5c0,0,0.8,1,2.6,0.7c0,0,1.8-0.4,2.5-1.8c0,0,0.9,0.1,1.5-0.3c0,0-0.4-0.2,0.1-0.5
					c0,0,0.4-0.1,0.6-0.6c0,0-0.4,0.4-0.4,0c0,0,0.3-1.4-0.7-1.7c0,0-0.4-1.3-1.7-1.2c0,0,0.1-0.1,0.4-0.2c0,0-1.3-1.9-0.5-3
					c0,0-0.8-0.3-0.6-0.9c0,0,0-0.8,0.9-0.8c0,0,0.7,0,0.6,0.7c0,0,0,0.5-0.5,0.7c0,0,0.8,0,0.9-1.1c0,0,0.2-1.4-1.5-1.4
					c0,0-1.5,0-1.9,1.5l0-0.7c0,0-0.6-1.4-0.6-2.7c0,0-0.7-4.4,3.4-4.1c0,0-0.3,1.3-0.9,1.6c0,0-0.7,0.2-0.6-0.8
					c0,0-0.8,1.1,0.5,1.3c0,0,0.6,0.1,1.3-0.7c0,0,0.5,0.5,0.4,1.2c0,0-0.2,0.7-0.7,0.7c0,0-0.4-0.1-0.2-0.8c0,0-0.6,0.2-0.6,0.9
					c0,0-0.1,0.7,1.2,0.7c0,0-0.6,2,1.2,2.1c0,0-0.9-0.4-0.3-1.4v0c0,0,0.8-0.4,0.6-1.4c0,0,0.7,0.2,0.6,0.9c0,0-0.1,0.7-0.9,0.6
					c0,0,1.2,1.1,2-1c0,0,0.2-0.7-0.2-1.1c0,0,0.4,0,0.7-0.4c0,0,0.6,0.1,0.6,0.6c0,0,0,0.6-0.4,0.7c0,0,0.8,0.1,0.6-1.4
					C137.2,44,137.2,43.5,136.7,43.4z M120.1,40.9c0-0.1,0.2-0.4,0.5-0.1c0,0,0-0.6,0.5-0.6c0,0,0.2,0,0.2,0.5
					C121.3,40.7,120.7,40.9,120.1,40.9z M122,39.1l0.1-0.4c0.3-0.1,0.6,0.3,0.6,0.3C122.5,39.1,122,39.1,122,39.1z M123.8,40.2
					c1.2,0.3,1.9-0.7,1.9-0.7c-0.6,0-1-0.3-1-0.3c-0.6-0.5-1.2,0.3-1.2,0.3c0.6-0.9,1.3-0.4,1.3-0.4c0.4,0.3,1.1,0.3,1.1,0.3
					C124.9,40.8,123.8,40.2,123.8,40.2z"/>
			</g>
		</g>
		<g id="XMLID_4595_">
			<polygon id="XMLID_4603_" points="74.1,217.1 76.9,215.5 74.1,213.9 76.6,212 73.7,210.8 76,208.6 72.9,207.7 74.8,205.2 
				71.7,204.8 73.3,202.1 70.1,202.1 71.3,199.1 68.2,199.5 69,196.5 65.9,197.3 66.3,194.2 63.4,195.4 63.4,192.2 60.7,193.8 
				60.3,190.6 57.7,192.6 56.9,189.5 54.7,191.8 53.5,188.8 51.5,191.3 49.9,188.6 48.4,191.3 46.4,188.8 45.2,191.8 43,189.5 
				42.2,192.6 39.6,190.6 39.2,193.8 36.5,192.2 36.5,195.4 33.6,194.2 34,197.3 30.9,196.5 31.7,199.5 28.6,199.1 29.8,202.1 
				26.6,202.1 28.2,204.8 25.1,205.2 27,207.7 23.9,208.6 26.2,210.8 23.2,212 25.8,213.9 23,215.5 25.8,217.1 23.2,219 26.2,220.3 
				23.9,222.5 27,223.3 25.1,225.8 28.2,226.2 26.6,229 29.8,229 28.6,231.9 31.7,231.5 30.9,234.6 34,233.7 33.6,236.9 36.5,235.7 
				36.5,238.8 39.2,237.3 39.6,240.4 42.2,238.5 43,241.5 45.2,239.3 46.4,242.2 48.4,239.7 49.9,242.5 51.5,239.7 53.5,242.2 
				54.7,239.3 56.9,241.5 57.7,238.5 60.3,240.4 60.7,237.3 63.4,238.8 63.4,235.7 66.3,236.9 65.9,233.7 69,234.6 68.2,231.5 
				71.3,231.9 70.1,229 73.3,229 71.7,226.2 74.8,225.8 72.9,223.3 76,222.5 73.7,220.3 76.6,219 			"/>
			<radialGradient id="XMLID_7_" cx="49.9469" cy="215.5245" r="23.1259" gradientUnits="userSpaceOnUse">
				<stop  offset="0" style="stop-color:#F7A516"/>
				<stop  offset="1" style="stop-color:#F0E400"/>
			</radialGradient>
			<circle id="XMLID_4602_" class="st7" cx="49.9" cy="215.5" r="23.1"/>
			<g id="XMLID_4596_">
				<path id="XMLID_4597_" class="st2" d="M63.7,205.2c0,0,1.3-0.6,0.6-1.9c0,0,0.3,1.3-0.8,1.3c0,0-0.7,0-0.8-0.4
					c0,0,1.1,0,0.7-1.2c0,0,0.2,0.8-0.8,0.8c0,0-0.5,0-0.9-0.4c0,0,1.5-0.3,0.6-1.6c0,0,0.1,0.9-0.6,1c0,0-0.8-0.1-1.2,0.4
					c0,0-1.7-1.5-3.6,0c0,0-1.9,1.4-1.9,3.9c0,0,0,1.1,0.3,2.2c0,0,0.4,1.6,0.9,2l0.3,0.2c0,0-2.2-0.5-2.4,1.1c0,0-0.1,0.6,0.4,1.2
					c0,0-0.2-0.8,0.5-1c0,0,0.6-0.2,0.7,0.2c0,0-0.9,0.6-0.2,1.5c0,0-0.2-1.2,1.1-0.8c0,0-0.9,0.7-0.1,1.3c0,0-0.1-1,0.4-1.1
					c0,0,0.2,0.4,0.8,0.1l0.7,1.4c0,0-1.2,0.1-1.2,1.5c0,0,0.2-0.4,0.7-0.4c0,0-0.2,0.9-1.6,0.7c0,0-0.9-0.1-0.4-1.4
					c0,0-0.6,0.3-0.6,1.6c0,0-0.2,0.9,1.2,0.9c0,0,0.6,0,1.1-0.1c0,0,1,0.1,0.9,1.1c0,0-0.3,1.1-2,1.1c0,0-1.9,0.1-2.1-1.2
					c0,0-0.1-0.9-0.6-1.5c0,0-1.1-2.2-1.6-5c0,0-0.6,0.3-1.1-0.3c0,0,1.3,0.7,1.5-0.7c0,0,0.2-0.9-0.4-1.1l0-0.5
					c0,0-0.6-0.3-0.6-1.4c0,0,0.2,1.4,1.5,1.4c0,0,0.7-0.1,0.7-0.6c0,0-0.9,0.5-1.1-0.3c0,0-0.1-0.3,0-0.8c0,0,0.2-0.6-0.2-1
					c0,0-0.4-0.3-0.3-1.2c0,0,0.2,1.9,1.6,1.8c0,0-0.3-0.1-0.3-0.6l0-0.8c0,0-0.3,0-0.4-0.2c0,0,1,0.2,1.2-0.5c0,0,0.3-0.8-0.5-1.2
					c0,0,0.3,0.1,0.6-0.1c0,0-0.7-0.6-0.7-1.5c0,0,0.4,0.2,1-0.2c0,0-0.9,0.1-1.1-0.9c0,0,0.5,0.1,0.8-0.1c0,0-0.5-0.2-0.6-0.6
					c0,0,0-0.4-0.6-0.4c0,0,0.5-0.4,0.1-1c0,0,0,0.6-0.6,0.6c0,0,0.4-0.8-0.2-1.3c0,0,0.5,0.9-0.5,1.1c0,0,0.5-1-0.4-1.4
					c0,0,0.4,0.6-0.1,1c0,0-1.8-0.2-2.2-0.1l-0.6,0.6c0,0-1.6,0-1.8,0.4c0,0,0,1.2,0.4,1.7c-0.2,0-0.4,0-0.6,0c0,0-1.3-0.2-0.7-0.8
					l0.1-0.1c0,0-1.1-0.8-1.5,0.2c0,0-0.3,1.1,1,1.2c0,0,0,0,0,0c1.3,0.1,1.9-0.3,1.9-0.3s0.4-0.2,1.1,0c0,0,0.3,0.5-0.2,0.5
					c0,0-0.3,0.1-0.3-0.4c0,0-0.1-0.1-0.3,0.2c0,0-0.3,0.3-0.4-0.2c0,0-0.5,0.1-0.5,1.3c0,0,2.1-0.8,2.2,0.6c0,0-0.3-0.6-0.9-0.6
					c0,0-0.1,0.7-0.9,0.7c0,0-1.6-0.7-2.2,0.5c0,0-0.4,0.4-0.5,1.1c0,0,0,0.4-0.4,0.4c0,0-0.3,0-0.3-0.4c0,0-0.2,0.3,0.3,0.8
					c0,0-0.7-0.4-0.2-1.1c0,0-0.1,0.6,0.3,0.6c0,0,0.3,0,0.3-0.3c0,0,0.1-0.8,0.5-1.2l0-0.2l-0.1-0.1l-0.2,0l-0.1-0.5l-0.2,0.2
					l-0.2-0.4l-0.1,0l-0.1-0.3l-0.1,0l0-0.1l-0.1-0.1l0-0.1l-0.1-0.3l-0.2,0v-0.3l-0.1,0l-0.1-0.1v-0.4l-0.2,0.2l-0.2-0.3v-0.4
					l-0.2,0.1l-0.3-0.4c0,0,0.4-3-0.3-3.9c0,0,0.1-0.7-0.6-0.7c0,0,0.3,0.2,0.3,0.5c0,0-0.4-0.2-0.5,0c0,0,0.4,0.3,0.2,1
					c0,0,0-0.6-0.4-1c0,0,0-0.8-0.8-0.4c0,0,0.4,0,0.5,0.3c0,0,0,0,0,0c0,0-0.3,0.2-0.4,0.5c0,0,0.4,0.2,0.3,0.8
					c0,0-0.2-0.7-0.8-0.9c0,0-0.6-0.3-0.8,0.2c0,0,0.6-0.2,0.6,0.2c0,0-0.6,0.8,0.8,1.6c0,0-0.2,0.2-0.2,0.8c0,0-0.1-0.2-0.5,0
					c0,0-0.1-0.4,0.2-0.6c0,0-0.9,0-0.5,1.1c0,0-0.2,0.9,0.8,1.4c0,0-1.1-0.2-1.1,0.6c0,0,0.5-0.4,0.9,0.1c0,0,0.2,0.3,0.6,0.3
					c0,0-1,0.8,0.1,1.4c0,0,0-0.7,0.8-0.6c0,0-0.2,0.5,0.3,1.1c0,0-0.4,0.4,0.2,1c0,0,0-0.4,0.2-0.4c0,0,0.3,0,0.3,0.6
					c0,0-1.1,1.5-1.2,0.2c0,0-0.6,0.8,0.4,0.9c0,0,0.3,0,0.8-0.4c0,0,0.4-0.3,0.4,0.1c0,0,0,0,0,0c0,0.4-0.2,0.4-0.7,0.3
					c0,0,0,0.8,1.4,0.5c0,0,0.3,0.2-0.3,0.2c0,0-0.8,0-0.8,0.7c0,0,0.4-0.5,0.6-0.2c0,0,0.2,0.4-0.5,0.5c0,0-0.6,0.2-1-0.6
					c0,0-0.2,0.7,0.8,0.8c0,0,0,0.2-1,0.2l0.3,0.2l-0.5-0.1c0,0-0.2,0,0,0.2c0,0-0.2-0.2-0.4,0c0,0,0.4,0.2-0.2,0.3
					c0,0-2.4-0.4-2.8-0.9c0,0-0.5-0.4-1.3-0.1c0,0-0.8-0.4-0.8,0.4c0,0,0.1-0.2,0.6-0.1c0,0-0.1,0.3,0.2,0.3c0,0,0.4,0,0.5,0.1
					c0,0-0.6-0.1-1,0.1c0,0-0.6-0.1-0.4,0.9c0,0,0-0.4,0.4-0.5c0,0,0.2,0.2,0,0.5c0,0-0.6,0.6,0.1,1.1c0,0-0.2-0.5,0.1-0.7
					c0,0,0.2,0.5,0.9,0c0,0,0.6,0.1,0.8-0.1c0,0,0.4-0.2,0.5,0.1c0,0,0,0,0,0.1c0,0-0.5-0.1-0.5,0.2c0,0-0.3,0.7-0.7,0.1
					c0,0,0,0.8,0.8,0.5c0,0,1.2,0.3,1.7-0.7c0,0,0.2,0.5-0.4,1c0,0,0.5,0.1,1.2-0.6c0,0-0.3,0.9,1.4,0.6c0,0-0.6-0.1-0.5-0.7
					c0,0,0.1-0.5,0.6,0c0,0,0.5,0.6,1.1,0.5c0,0-0.2-0.1-0.2-0.6c0,0,0-0.3,0.4-0.3c0,0,0.3,0,0.3,0.4c0,0,0,0.4-0.3,0.6
					c0,0,0.7,0.4,1-0.5c0,0,0-0.4,0.5-0.4c0,0,0.4,0.1,0,0.7c0,0,0.4,0,0.5-0.8c0,0,0.1-0.6,0.4-0.1l0,0c0.1,0.3-0.3,0.4-0.3,0.4
					c0.4,0,0.5-0.3,0.5-0.3c0.2-0.2,0-0.6,0-0.6c0.3,0.3,0.1,0.7,0.1,0.7c0.6,1.5,2.4,3,2.4,3c1.6,1.2,1.9,2.5,1.9,2.5
					c0.2,1.2-0.3,1.8-0.3,1.8c0.3-0.6,0.2-1.4,0.2-1.4c-0.7-0.2-1.8-1.1-1.8-1.1l0.1,0.3c-0.6-0.3-1.6-0.2-1.6-0.2
					c-0.6,0.1-1.3-0.1-1.3-0.1c0.8,0.4-0.4,0.5-0.4,0.5c-0.7,0.1-1.6-0.3-1.6-0.3c0.1,0.5,1,0.5,1,0.5c-0.9,0.3-1,0.8-1,0.8
					c-0.5,0.8-1.1,0.7-1.1,0.7c-0.7,0-0.6-0.8-0.6-0.8c-0.2,0.2-0.2,0.5-0.2,0.5c-0.2,0-0.4-0.4-0.4-0.4c0,0.8,1.2,1.3,1.2,1.3
					c-0.1,0.9-1.1,1-1.1,1c1.2,0.5,1.8-0.1,1.8-0.1c-0.1,0.5-0.7,1-0.7,1c0.5,0,0.8-0.5,0.8-0.5c0,0.9-0.5,1.2-0.5,1.2
					c0.3,0,0.5-0.4,0.5-0.4c-0.2,0.6-0.4,0.6-0.4,0.6c0.3,0.1,0.4-0.1,0.4-0.1c0,0.5-0.3,0.6-0.3,0.6c0.5,0,0.8-0.4,0.8-0.4
					c0.3,0.1,0.2,0.4,0.2,0.4c-0.2,0.9-1.5,0.8-1.5,0.8c-1.3,0.1-1.8,1-1.8,1c-0.6,0.7-0.4,1.2-0.4,1.2c0.3-0.6,1.1-1,1.1-1
					c-0.5,0.3-0.8,0.8-0.8,0.8c-0.3,0.8,0.2,0.9,0.2,0.9c0-0.4,0.2-0.6,0.2-0.6c0.3,0.1,0.4-0.1,0.4-0.1c0.2-0.8,0.7-0.7,0.7-0.7
					c-0.6,0.2-0.6,0.8-0.6,0.8c-0.1,1.1,0.7,1.1,0.7,1.1c-0.4-0.3-0.2-0.6-0.2-0.6c0.9-0.1,1.1-0.8,1.1-0.8c0-0.3,0.5-0.3,0.5-0.3
					c-0.3,0.3,0,0.8,0,0.8c-0.1,0.5-0.7,0.5-0.7,0.5c0.7,0.3,1.2-0.2,1.2-0.2c0.9-0.1,1.1-1.2,1.1-1.2c0.1-0.6,0.7-0.8,0.7-0.8
					c-0.4,1.1,0.3,1.5,0.3,1.5c-0.1-0.7,0.4-0.9,0.4-0.9c0.7-0.2,0.6-0.8,0.6-0.8c0.2,0.5,0.6,0.3,0.6,0.3c-0.1-0.1-0.1-0.4-0.1-0.4
					c0-1-0.8-1.2-0.8-1.2c-0.4-0.1-0.7-0.6-0.7-0.6c0.8,0.7,1.3,0.3,1.3,0.3c-0.3,0-0.3-0.2-0.3-0.2c0.1-0.5-0.1-1-0.1-1
					c-0.4-0.3-0.3-0.6-0.3-0.6c0.7-0.1,0.5,0.8,0.5,0.8c0.8-0.1,0.6-0.9,0.6-0.9c0.3,0.5,0.6,0.2,0.6,0.2c0.2-0.4,0.5-0.6,0.5-0.6
					c-0.6,0.9-0.9,2.2-0.9,2.2c0.6-0.5-0.2,1.1-0.2,1.1c0.8-0.4,0,1.1,0,1.1c0.5-0.3,0.3,0.3,0.3,0.3l-0.4,0.6
					c0.2-0.2,0.4-0.1,0.4-0.1c-0.2,0.9-1.1,0.9-1.1,0.9c0.5,0.2,0.8,0,0.8,0c0,0.3-0.5,0.7-0.5,0.7c0.5-0.2,0.8-0.8,0.8-0.8
					c0.4-0.2,1.1-1.1,1.1-1.1c0,0.3,0.2,0.3,0.2,0.3l0.1,0.2h0.2l0,0.5c0-0.2,0.3-0.1,0.3-0.1l0,0.5c0.2-0.4,0.4-0.2,0.4-0.2l0,0.4
					l0.3-0.1l0.1,0.5l0.2-0.1l0,0.4l0.2,0c-0.1,1.6-0.8,2-0.8,2c-2.1,1-2,1.7-2,1.7c-0.7,0.6-0.1,1.2-0.1,1.2c0-0.5,0.4-0.8,0.4-0.8
					l0,0c0.1-0.2,0.5-0.4,0.5-0.4c-0.6,0.4-0.6,0.7-0.6,0.7c0,0.2,0.1,0.3,0.1,0.3c-0.4,0.6,0.4,1,0.4,1c-0.2-0.3,0-0.7,0-0.7
					c0.2,0,0.3,0,0.3,0v-0.1c0-0.8,0.5-0.9,0.5-0.9c-0.5,0.5-0.4,0.9-0.4,0.9s0.2,1.2,1.2,0.9c0,0-0.5-0.1-0.5-0.5l0,0
					c0.6-0.2,0.8-1,0.8-1c0.8,0,0.7-0.7,0.7-0.7c0-0.4,0.5-0.6,0.5-0.6c-0.3,0.8,0,0.9,0,0.9c0,0.6-0.4,0.8-0.4,0.8
					c0.8,0,0.9-0.8,0.9-0.8c0.9-0.4,0.4-1.4,0.4-1.4c0.6-0.1,0.5,0.7,0.5,0.7c0.8-0.5,0.6-1.3,0.6-1.3c-0.4-0.6,0-0.7,0-0.7
					c0.7,0,0.3,0.9,0.3,0.9c0.7-0.2,0.6-1,0.6-1c0.9-0.3,0.8-1.3,0.8-1.3s-0.5,0.8-1.1,0.1c0,0-0.3-0.4,0.6-0.5c0,0,0-0.7-1.2-0.6
					c0,0-0.6,0-0.5-0.5c0,0,0-0.5,0.8,0.2c0,0,0.1-0.9-0.9-0.9c0,0-0.2,0.1-0.3-0.2c0,0,0.7-0.2,0.7-1.1c0,0-1.3,1-1.5-0.4
					c0,0-0.1-0.4,0.4-0.5c0,0,0.4-0.1,0.4,0.6c0,0,0.6-0.6,0.1-1c0,0,0.6-0.3,0.5-0.9c0,0-0.5,1-0.9,0.2c0,0-0.2-0.2,0.2-0.5
					c0,0,0.5-0.4,0.5-1.1c0,0,0.1,0,0.1,0.5c0,0,0.8,1,2.6,0.7c0,0,1.8-0.4,2.5-1.8c0,0,0.9,0.1,1.5-0.3c0,0-0.4-0.2,0.1-0.5
					c0,0,0.4-0.1,0.6-0.6c0,0-0.4,0.4-0.4,0c0,0,0.3-1.4-0.7-1.7c0,0-0.4-1.3-1.7-1.2c0,0,0.1-0.1,0.4-0.2c0,0-1.3-1.9-0.5-3
					c0,0-0.8-0.3-0.6-0.9c0,0,0-0.8,0.9-0.8c0,0,0.7,0,0.6,0.7c0,0,0,0.5-0.5,0.7c0,0,0.8,0,0.9-1.1c0,0,0.2-1.4-1.5-1.4
					c0,0-1.5,0-1.9,1.5l0-0.7c0,0-0.6-1.4-0.6-2.7c0,0-0.7-4.4,3.4-4.1c0,0-0.3,1.3-0.9,1.6c0,0-0.7,0.2-0.6-0.8
					c0,0-0.8,1.1,0.5,1.3c0,0,0.6,0.1,1.3-0.7c0,0,0.5,0.5,0.4,1.2c0,0-0.2,0.7-0.7,0.7c0,0-0.4-0.1-0.2-0.8c0,0-0.6,0.2-0.6,0.9
					c0,0-0.1,0.7,1.2,0.7c0,0-0.6,2,1.2,2.1c0,0-0.9-0.4-0.3-1.4v0c0,0,0.8-0.4,0.6-1.4c0,0,0.7,0.2,0.6,0.9c0,0-0.1,0.7-0.9,0.6
					c0,0,1.2,1.1,2-1c0,0,0.2-0.7-0.2-1.1c0,0,0.4,0,0.7-0.4c0,0,0.6,0.1,0.6,0.6c0,0,0,0.6-0.4,0.7c0,0,0.8,0.1,0.6-1.4
					C64.2,205.8,64.2,205.3,63.7,205.2z M47.1,202.6c0-0.1,0.2-0.4,0.5-0.1c0,0,0-0.6,0.5-0.6c0,0,0.2,0,0.2,0.5
					C48.3,202.5,47.7,202.6,47.1,202.6z M48.9,200.8l0.1-0.4c0.3-0.1,0.6,0.3,0.6,0.3C49.5,200.9,48.9,200.8,48.9,200.8z M50.7,202
					c1.2,0.3,1.9-0.7,1.9-0.7c-0.6,0-1-0.3-1-0.3c-0.6-0.5-1.2,0.3-1.2,0.3c0.6-0.9,1.3-0.4,1.3-0.4c0.4,0.3,1.1,0.3,1.1,0.3
					C51.9,202.6,50.7,202,50.7,202z"/>
			</g>
		</g>
		<g id="XMLID_4586_">
			<polygon id="XMLID_4594_" points="147.2,217.1 149.9,215.5 147.2,213.9 149.7,212 146.7,210.8 149,208.6 145.9,207.7 
				147.8,205.2 144.7,204.8 146.3,202.1 143.1,202.1 144.3,199.1 141.2,199.5 142,196.5 138.9,197.3 139.4,194.2 136.4,195.4 
				136.4,192.2 133.7,193.8 133.3,190.6 130.8,192.6 129.9,189.5 127.7,191.8 126.5,188.8 124.6,191.3 123,188.6 121.4,191.3 
				119.5,188.8 118.2,191.8 116,189.5 115.2,192.6 112.7,190.6 112.2,193.8 109.5,192.2 109.5,195.4 106.6,194.2 107,197.3 
				103.9,196.5 104.7,199.5 101.6,199.1 102.8,202.1 99.6,202.1 101.2,204.8 98.1,205.2 100,207.7 97,208.6 99.2,210.8 96.3,212 
				98.8,213.9 96,215.5 98.8,217.1 96.3,219 99.2,220.3 97,222.5 100,223.3 98.1,225.8 101.2,226.2 99.6,229 102.8,229 101.6,231.9 
				104.7,231.5 103.9,234.6 107,233.7 106.6,236.9 109.5,235.7 109.5,238.8 112.2,237.3 112.7,240.4 115.2,238.5 116,241.5 
				118.2,239.3 119.5,242.2 121.4,239.7 123,242.5 124.6,239.7 126.5,242.2 127.7,239.3 129.9,241.5 130.8,238.5 133.3,240.4 
				133.7,237.3 136.4,238.8 136.4,235.7 139.4,236.9 138.9,233.7 142,234.6 141.2,231.5 144.3,231.9 143.1,229 146.3,229 
				144.7,226.2 147.8,225.8 145.9,223.3 149,222.5 146.7,220.3 149.7,219 			"/>
			<radialGradient id="XMLID_8_" cx="122.9665" cy="215.5245" r="23.1259" gradientUnits="userSpaceOnUse">
				<stop  offset="0" style="stop-color:#F7A516"/>
				<stop  offset="1" style="stop-color:#F0E400"/>
			</radialGradient>
			<circle id="XMLID_4593_" class="st8" cx="123" cy="215.5" r="23.1"/>
			<g id="XMLID_4587_">
				<path id="XMLID_4588_" class="st2" d="M136.7,205.2c0,0,1.3-0.6,0.6-1.9c0,0,0.3,1.3-0.8,1.3c0,0-0.7,0-0.8-0.4
					c0,0,1.1,0,0.7-1.2c0,0,0.2,0.8-0.8,0.8c0,0-0.5,0-0.9-0.4c0,0,1.5-0.3,0.6-1.6c0,0,0.1,0.9-0.6,1c0,0-0.8-0.1-1.2,0.4
					c0,0-1.7-1.5-3.6,0c0,0-1.9,1.4-1.9,3.9c0,0,0,1.1,0.3,2.2c0,0,0.4,1.6,0.9,2l0.3,0.2c0,0-2.2-0.5-2.4,1.1c0,0-0.1,0.6,0.4,1.2
					c0,0-0.2-0.8,0.5-1c0,0,0.6-0.2,0.7,0.2c0,0-0.9,0.6-0.2,1.5c0,0-0.2-1.2,1.1-0.8c0,0-0.9,0.7-0.1,1.3c0,0-0.1-1,0.4-1.1
					c0,0,0.2,0.4,0.8,0.1l0.7,1.4c0,0-1.2,0.1-1.2,1.5c0,0,0.2-0.4,0.7-0.4c0,0-0.2,0.9-1.6,0.7c0,0-0.9-0.1-0.4-1.4
					c0,0-0.6,0.3-0.6,1.6c0,0-0.2,0.9,1.2,0.9c0,0,0.6,0,1.1-0.1c0,0,1,0.1,0.9,1.1c0,0-0.3,1.1-2,1.1c0,0-1.9,0.1-2.1-1.2
					c0,0-0.1-0.9-0.6-1.5c0,0-1.1-2.2-1.6-5c0,0-0.6,0.3-1.1-0.3c0,0,1.3,0.7,1.5-0.7c0,0,0.2-0.9-0.4-1.1l0-0.5
					c0,0-0.6-0.3-0.6-1.4c0,0,0.2,1.4,1.5,1.4c0,0,0.7-0.1,0.7-0.6c0,0-0.9,0.5-1.1-0.3c0,0-0.1-0.3,0-0.8c0,0,0.2-0.6-0.2-1
					c0,0-0.4-0.3-0.3-1.2c0,0,0.2,1.9,1.6,1.8c0,0-0.3-0.1-0.3-0.6l0-0.8c0,0-0.3,0-0.4-0.2c0,0,1,0.2,1.2-0.5c0,0,0.3-0.8-0.5-1.2
					c0,0,0.3,0.1,0.6-0.1c0,0-0.7-0.6-0.7-1.5c0,0,0.4,0.2,1-0.2c0,0-0.9,0.1-1.1-0.9c0,0,0.5,0.1,0.8-0.1c0,0-0.5-0.2-0.6-0.6
					c0,0,0-0.4-0.6-0.4c0,0,0.5-0.4,0.1-1c0,0,0,0.6-0.6,0.6c0,0,0.4-0.8-0.2-1.3c0,0,0.5,0.9-0.5,1.1c0,0,0.5-1-0.4-1.4
					c0,0,0.4,0.6-0.1,1c0,0-1.8-0.2-2.2-0.1l-0.6,0.6c0,0-1.6,0-1.8,0.4c0,0,0,1.2,0.4,1.7c-0.2,0-0.4,0-0.6,0c0,0-1.3-0.2-0.7-0.8
					l0.1-0.1c0,0-1.1-0.8-1.5,0.2c0,0-0.3,1.1,1,1.2c0,0,0,0,0,0c1.3,0.1,1.9-0.3,1.9-0.3s0.4-0.2,1.1,0c0,0,0.3,0.5-0.2,0.5
					c0,0-0.3,0.1-0.3-0.4c0,0-0.1-0.1-0.3,0.2c0,0-0.3,0.3-0.4-0.2c0,0-0.5,0.1-0.5,1.3c0,0,2.1-0.8,2.2,0.6c0,0-0.3-0.6-0.9-0.6
					c0,0-0.1,0.7-0.9,0.7c0,0-1.6-0.7-2.2,0.5c0,0-0.4,0.4-0.5,1.1c0,0,0,0.4-0.4,0.4c0,0-0.3,0-0.3-0.4c0,0-0.2,0.3,0.3,0.8
					c0,0-0.7-0.4-0.2-1.1c0,0-0.1,0.6,0.3,0.6c0,0,0.3,0,0.3-0.3c0,0,0.1-0.8,0.5-1.2l0-0.2l-0.1-0.1l-0.2,0l-0.1-0.5l-0.2,0.2
					l-0.2-0.4l-0.1,0l-0.1-0.3l-0.1,0l0-0.1l-0.1-0.1l0-0.1l-0.1-0.3l-0.2,0v-0.3l-0.1,0l-0.1-0.1v-0.4l-0.2,0.2l-0.2-0.3v-0.4
					l-0.2,0.1l-0.3-0.4c0,0,0.4-3-0.3-3.9c0,0,0.1-0.7-0.6-0.7c0,0,0.3,0.2,0.3,0.5c0,0-0.4-0.2-0.5,0c0,0,0.4,0.3,0.2,1
					c0,0,0-0.6-0.4-1c0,0,0-0.8-0.8-0.4c0,0,0.4,0,0.5,0.3c0,0,0,0,0,0c0,0-0.3,0.2-0.4,0.5c0,0,0.4,0.2,0.3,0.8
					c0,0-0.2-0.7-0.8-0.9c0,0-0.6-0.3-0.8,0.2c0,0,0.6-0.2,0.6,0.2c0,0-0.6,0.8,0.8,1.6c0,0-0.2,0.2-0.2,0.8c0,0-0.1-0.2-0.5,0
					c0,0-0.1-0.4,0.2-0.6c0,0-0.9,0-0.5,1.1c0,0-0.2,0.9,0.8,1.4c0,0-1.1-0.2-1.1,0.6c0,0,0.5-0.4,0.9,0.1c0,0,0.2,0.3,0.6,0.3
					c0,0-1,0.8,0.1,1.4c0,0,0-0.7,0.8-0.6c0,0-0.2,0.5,0.3,1.1c0,0-0.4,0.4,0.2,1c0,0,0-0.4,0.2-0.4c0,0,0.3,0,0.3,0.6
					c0,0-1.1,1.5-1.2,0.2c0,0-0.6,0.8,0.4,0.9c0,0,0.3,0,0.8-0.4c0,0,0.4-0.3,0.4,0.1c0,0,0,0,0,0c0,0.4-0.2,0.4-0.7,0.3
					c0,0,0,0.8,1.4,0.5c0,0,0.3,0.2-0.3,0.2c0,0-0.8,0-0.8,0.7c0,0,0.4-0.5,0.6-0.2c0,0,0.2,0.4-0.5,0.5c0,0-0.6,0.2-1-0.6
					c0,0-0.2,0.7,0.8,0.8c0,0,0,0.2-1,0.2l0.3,0.2l-0.5-0.1c0,0-0.2,0,0,0.2c0,0-0.2-0.2-0.4,0c0,0,0.4,0.2-0.2,0.3
					c0,0-2.4-0.4-2.8-0.9c0,0-0.5-0.4-1.3-0.1c0,0-0.8-0.4-0.8,0.4c0,0,0.1-0.2,0.6-0.1c0,0-0.1,0.3,0.2,0.3c0,0,0.4,0,0.5,0.1
					c0,0-0.6-0.1-1,0.1c0,0-0.6-0.1-0.4,0.9c0,0,0-0.4,0.4-0.5c0,0,0.2,0.2,0,0.5c0,0-0.6,0.6,0.1,1.1c0,0-0.2-0.5,0.1-0.7
					c0,0,0.2,0.5,0.9,0c0,0,0.6,0.1,0.8-0.1c0,0,0.4-0.2,0.5,0.1c0,0,0,0,0,0.1c0,0-0.5-0.1-0.5,0.2c0,0-0.3,0.7-0.7,0.1
					c0,0,0,0.8,0.8,0.5c0,0,1.2,0.3,1.7-0.7c0,0,0.2,0.5-0.4,1c0,0,0.5,0.1,1.2-0.6c0,0-0.3,0.9,1.4,0.6c0,0-0.6-0.1-0.5-0.7
					c0,0,0.1-0.5,0.6,0c0,0,0.5,0.6,1.1,0.5c0,0-0.2-0.1-0.2-0.6c0,0,0-0.3,0.4-0.3c0,0,0.3,0,0.3,0.4c0,0,0,0.4-0.3,0.6
					c0,0,0.7,0.4,1-0.5c0,0,0-0.4,0.5-0.4c0,0,0.4,0.1,0,0.7c0,0,0.4,0,0.5-0.8c0,0,0.1-0.6,0.4-0.1l0,0c0.1,0.3-0.3,0.4-0.3,0.4
					c0.4,0,0.5-0.3,0.5-0.3c0.2-0.2,0-0.6,0-0.6c0.3,0.3,0.1,0.7,0.1,0.7c0.6,1.5,2.4,3,2.4,3c1.6,1.2,1.9,2.5,1.9,2.5
					c0.2,1.2-0.3,1.8-0.3,1.8c0.3-0.6,0.2-1.4,0.2-1.4c-0.7-0.2-1.8-1.1-1.8-1.1l0.1,0.3c-0.6-0.3-1.6-0.2-1.6-0.2
					c-0.6,0.1-1.3-0.1-1.3-0.1c0.8,0.4-0.4,0.5-0.4,0.5c-0.7,0.1-1.6-0.3-1.6-0.3c0.1,0.5,1,0.5,1,0.5c-0.9,0.3-1,0.8-1,0.8
					c-0.5,0.8-1.1,0.7-1.1,0.7c-0.7,0-0.6-0.8-0.6-0.8c-0.2,0.2-0.2,0.5-0.2,0.5c-0.2,0-0.4-0.4-0.4-0.4c0,0.8,1.2,1.3,1.2,1.3
					c-0.1,0.9-1.1,1-1.1,1c1.2,0.5,1.8-0.1,1.8-0.1c-0.1,0.5-0.7,1-0.7,1c0.5,0,0.8-0.5,0.8-0.5c0,0.9-0.5,1.2-0.5,1.2
					c0.3,0,0.5-0.4,0.5-0.4c-0.2,0.6-0.4,0.6-0.4,0.6c0.3,0.1,0.4-0.1,0.4-0.1c0,0.5-0.3,0.6-0.3,0.6c0.5,0,0.8-0.4,0.8-0.4
					c0.3,0.1,0.2,0.4,0.2,0.4c-0.2,0.9-1.5,0.8-1.5,0.8c-1.3,0.1-1.8,1-1.8,1c-0.6,0.7-0.4,1.2-0.4,1.2c0.3-0.6,1.1-1,1.1-1
					c-0.5,0.3-0.8,0.8-0.8,0.8c-0.3,0.8,0.2,0.9,0.2,0.9c0-0.4,0.2-0.6,0.2-0.6c0.3,0.1,0.4-0.1,0.4-0.1c0.2-0.8,0.7-0.7,0.7-0.7
					c-0.6,0.2-0.6,0.8-0.6,0.8c-0.1,1.1,0.7,1.1,0.7,1.1c-0.4-0.3-0.2-0.6-0.2-0.6c0.9-0.1,1.1-0.8,1.1-0.8c0-0.3,0.5-0.3,0.5-0.3
					c-0.3,0.3,0,0.8,0,0.8c-0.1,0.5-0.7,0.5-0.7,0.5c0.7,0.3,1.2-0.2,1.2-0.2c0.9-0.1,1.1-1.2,1.1-1.2c0.1-0.6,0.7-0.8,0.7-0.8
					c-0.4,1.1,0.3,1.5,0.3,1.5c-0.1-0.7,0.4-0.9,0.4-0.9c0.7-0.2,0.6-0.8,0.6-0.8c0.2,0.5,0.6,0.3,0.6,0.3c-0.1-0.1-0.1-0.4-0.1-0.4
					c0-1-0.8-1.2-0.8-1.2c-0.4-0.1-0.7-0.6-0.7-0.6c0.8,0.7,1.3,0.3,1.3,0.3c-0.3,0-0.3-0.2-0.3-0.2c0.1-0.5-0.1-1-0.1-1
					c-0.4-0.3-0.3-0.6-0.3-0.6c0.7-0.1,0.5,0.8,0.5,0.8c0.8-0.1,0.6-0.9,0.6-0.9c0.3,0.5,0.6,0.2,0.6,0.2c0.2-0.4,0.5-0.6,0.5-0.6
					c-0.6,0.9-0.9,2.2-0.9,2.2c0.6-0.5-0.2,1.1-0.2,1.1c0.8-0.4,0,1.1,0,1.1c0.5-0.3,0.3,0.3,0.3,0.3l-0.4,0.6
					c0.2-0.2,0.4-0.1,0.4-0.1c-0.2,0.9-1.1,0.9-1.1,0.9c0.5,0.2,0.8,0,0.8,0c0,0.3-0.5,0.7-0.5,0.7c0.5-0.2,0.8-0.8,0.8-0.8
					c0.4-0.2,1.1-1.1,1.1-1.1c0,0.3,0.2,0.3,0.2,0.3l0.1,0.2h0.2l0,0.5c0-0.2,0.3-0.1,0.3-0.1l0,0.5c0.2-0.4,0.4-0.2,0.4-0.2l0,0.4
					l0.3-0.1l0.1,0.5l0.2-0.1l0,0.4l0.2,0c-0.1,1.6-0.8,2-0.8,2c-2.1,1-2,1.7-2,1.7c-0.7,0.6-0.1,1.2-0.1,1.2c0-0.5,0.4-0.8,0.4-0.8
					l0,0c0.1-0.2,0.5-0.4,0.5-0.4c-0.6,0.4-0.6,0.7-0.6,0.7c0,0.2,0.1,0.3,0.1,0.3c-0.4,0.6,0.4,1,0.4,1c-0.2-0.3,0-0.7,0-0.7
					c0.2,0,0.3,0,0.3,0v-0.1c0-0.8,0.5-0.9,0.5-0.9c-0.5,0.5-0.4,0.9-0.4,0.9s0.2,1.2,1.2,0.9c0,0-0.5-0.1-0.5-0.5l0,0
					c0.6-0.2,0.8-1,0.8-1c0.8,0,0.7-0.7,0.7-0.7c0-0.4,0.5-0.6,0.5-0.6c-0.3,0.8,0,0.9,0,0.9c0,0.6-0.4,0.8-0.4,0.8
					c0.8,0,0.9-0.8,0.9-0.8c0.9-0.4,0.4-1.4,0.4-1.4c0.6-0.1,0.5,0.7,0.5,0.7c0.8-0.5,0.6-1.3,0.6-1.3c-0.4-0.6,0-0.7,0-0.7
					c0.7,0,0.3,0.9,0.3,0.9c0.7-0.2,0.6-1,0.6-1c0.9-0.3,0.8-1.3,0.8-1.3s-0.5,0.8-1.1,0.1c0,0-0.3-0.4,0.6-0.5c0,0,0-0.7-1.2-0.6
					c0,0-0.6,0-0.5-0.5c0,0,0-0.5,0.8,0.2c0,0,0.1-0.9-0.9-0.9c0,0-0.2,0.1-0.3-0.2c0,0,0.7-0.2,0.7-1.1c0,0-1.3,1-1.5-0.4
					c0,0-0.1-0.4,0.4-0.5c0,0,0.4-0.1,0.4,0.6c0,0,0.6-0.6,0.1-1c0,0,0.6-0.3,0.5-0.9c0,0-0.5,1-0.9,0.2c0,0-0.2-0.2,0.2-0.5
					c0,0,0.5-0.4,0.5-1.1c0,0,0.1,0,0.1,0.5c0,0,0.8,1,2.6,0.7c0,0,1.8-0.4,2.5-1.8c0,0,0.9,0.1,1.5-0.3c0,0-0.4-0.2,0.1-0.5
					c0,0,0.4-0.1,0.6-0.6c0,0-0.4,0.4-0.4,0c0,0,0.3-1.4-0.7-1.7c0,0-0.4-1.3-1.7-1.2c0,0,0.1-0.1,0.4-0.2c0,0-1.3-1.9-0.5-3
					c0,0-0.8-0.3-0.6-0.9c0,0,0-0.8,0.9-0.8c0,0,0.7,0,0.6,0.7c0,0,0,0.5-0.5,0.7c0,0,0.8,0,0.9-1.1c0,0,0.2-1.4-1.5-1.4
					c0,0-1.5,0-1.9,1.5l0-0.7c0,0-0.6-1.4-0.6-2.7c0,0-0.7-4.4,3.4-4.1c0,0-0.3,1.3-0.9,1.6c0,0-0.7,0.2-0.6-0.8
					c0,0-0.8,1.1,0.5,1.3c0,0,0.6,0.1,1.3-0.7c0,0,0.5,0.5,0.4,1.2c0,0-0.2,0.7-0.7,0.7c0,0-0.4-0.1-0.2-0.8c0,0-0.6,0.2-0.6,0.9
					c0,0-0.1,0.7,1.2,0.7c0,0-0.6,2,1.2,2.1c0,0-0.9-0.4-0.3-1.4v0c0,0,0.8-0.4,0.6-1.4c0,0,0.7,0.2,0.6,0.9c0,0-0.1,0.7-0.9,0.6
					c0,0,1.2,1.1,2-1c0,0,0.2-0.7-0.2-1.1c0,0,0.4,0,0.7-0.4c0,0,0.6,0.1,0.6,0.6c0,0,0,0.6-0.4,0.7c0,0,0.8,0.1,0.6-1.4
					C137.2,205.8,137.2,205.3,136.7,205.2z M120.1,202.6c0-0.1,0.2-0.4,0.5-0.1c0,0,0-0.6,0.5-0.6c0,0,0.2,0,0.2,0.5
					C121.3,202.5,120.7,202.6,120.1,202.6z M122,200.8l0.1-0.4c0.3-0.1,0.6,0.3,0.6,0.3C122.5,200.9,122,200.8,122,200.8z
					 M123.8,202c1.2,0.3,1.9-0.7,1.9-0.7c-0.6,0-1-0.3-1-0.3c-0.6-0.5-1.2,0.3-1.2,0.3c0.6-0.9,1.3-0.4,1.3-0.4
					c0.4,0.3,1.1,0.3,1.1,0.3C124.9,202.6,123.8,202,123.8,202z"/>
			</g>
		</g>
	</g>
	<path id="XMLID_4582_" class="st9" d="M164,258.6H9V10.7h155V258.6z M11,256.6h151V12.7H11V256.6z"/>
	<path id="XMLID_4538_" d="M150.8,252.3c-0.2,0-0.3-0.1-0.3-0.2c0-0.1,0-0.2,0.1-0.3c1.3-1.9,3.9-8.2,4.2-10.3c0-0.3,0-0.4,0-0.6
		c0-0.3,1.2-1,1.6-1c0.1,0,0.1,0,0.1,0.2c0,0.2,0,0.4-0.1,0.5c-0.6,2.1-2.4,6.4-4.8,10.6h3.9c0.5,0,1.1-0.1,1.5-0.4
		c0.3-0.3,0.6-0.8,0.6-1.2c0-0.1,0.1-0.2,0.1-0.2c0.1,0,0.1,0.1,0.1,0.3c0,0.5-0.2,2.4-0.2,2.5s-0.1,0.2-0.2,0.2
		c-0.1,0-0.5-0.2-1.5-0.2H150.8z"/>
	<path id="XMLID_4536_" d="M22.1,17c0.2,0,0.3,0.1,0.3,0.2c0,0.1,0,0.2-0.1,0.3c-1.3,1.9-3.9,8.2-4.2,10.3c0,0.3,0,0.4,0,0.6
		c0,0.3-1.2,1-1.6,1c-0.1,0-0.1,0-0.1-0.2c0-0.2,0-0.4,0.1-0.5c0.6-2.1,2.4-6.4,4.8-10.6h-3.9c-0.5,0-1.1,0.1-1.5,0.4
		c-0.3,0.3-0.6,0.8-0.6,1.2c0,0.1-0.1,0.2-0.1,0.2c-0.1,0-0.1-0.1-0.1-0.3c0-0.5,0.2-2.4,0.2-2.5c0-0.2,0.1-0.2,0.2-0.2
		c0.1,0,0.5,0.2,1.5,0.2H22.1z"/>
</g>
</svg>
