<?xml version="1.0" encoding="utf-8"?>
<!-- Generator: Adobe Illustrator 19.0.0, SVG Export Plug-In . SVG Version: 6.00 Build 0)  -->
<svg version="1.1" id="Capa_1" xmlns="http://www.w3.org/2000/svg" xmlns:xlink="http://www.w3.org/1999/xlink" x="0px" y="0px"
	 viewBox="0 0 172.9 269.3" style="enable-background:new 0 0 172.9 269.3;" xml:space="preserve">
<style type="text/css">
	.st0{fill:#FFFFFF;}
	.st1{fill:#E63439;}
	.st2{fill:#F2DB0C;}
	.st3{fill:#9D1915;}
	.st4{fill:#1D1D1B;}
	.st5{fill:#80B833;}
	.st6{fill:#46772E;}
	.st7{fill:#BEAC06;}
	.st8{fill:#95871A;}
</style>
<rect id="XMLID_3911_" x="0" y="0" class="st0" width="172.9" height="269.3"/>
<g id="XMLID_6588_">
	<g id="XMLID_5302_">
		<g id="XMLID_6587_">
			<path id="XMLID_5332_" class="st1" d="M96.5,60.5c1.4,1.9,0.9,12.8-0.6,14.8c1.5,4.5,2,11.4,0.2,14.3c1.5,1.6,2,11.9,0.7,14.3
				c1.4,3.2,1.1,13.2-0.1,14.5c1,2.8,2,12,0.4,13.7c1.1,2.1,1.6,13.9,0.6,15.2c-1.1,1.3,0.5,7.1,0.5,7.1l-10.5,0.1l-10.5-0.1
				c0,0,1.6-5.8,0.5-7.1c-1.1-1.3-0.6-13.1,0.5-15.2c-1.6-1.8-0.6-11,0.3-13.7c-1.2-1.3-1.6-11.3-0.1-14.5
				c-1.4-2.4-0.9-12.7,0.6-14.3c-1.7-2.9-1.3-9.9,0.2-14.3c-1.5-2-2-12.9-0.6-14.8c-2-3.8-5-14.3,0.8-17.1c1.2-1.1,8-1,8-1
				s6.8-0.2,8,1C101.5,46.1,98.5,56.7,96.5,60.5z"/>
			<path id="XMLID_6584_" d="M87.7,154.7L77,154.6l0-0.2c0-0.1,1.6-5.8,0.6-7c-1-1.2-0.6-12.9,0.5-15.2c-1.6-2-0.6-10.9,0.4-13.7
				c-1.2-1.6-1.5-11.3-0.1-14.5c-1.3-2.5-0.9-12.5,0.6-14.3c-1.7-3-1.3-9.9,0.2-14.3c-1.6-2.2-2-12.8-0.6-14.9
				c-1.4-2.5-3.6-9.1-2.1-13.6c0.6-1.7,1.6-2.9,3-3.6c1.3-1.1,7.8-1,8.1-1c0.3,0,6.8-0.2,8.1,1c1.5,0.7,2.5,1.9,3,3.5
				c1.4,4.1-0.4,10.5-2.1,13.6c1.4,2.1,1,12.6-0.6,14.9c1.5,4.4,1.9,11.3,0.2,14.3c1.5,1.8,2,11.9,0.6,14.3
				c1.4,3.3,1.1,12.9-0.1,14.5c1,2.8,2,11.8,0.4,13.7c1.1,2.4,1.6,14,0.5,15.2c-1,1.2,0.6,6.9,0.6,7l0,0.2l-0.2,0L87.7,154.7z
				 M77.4,154.4l10.4,0.1l10.3-0.1c-0.3-1-1.5-5.9-0.5-7.1c1-1.2,0.5-13-0.6-15l0-0.1l0.1-0.1c1.6-1.7,0.5-10.9-0.4-13.6l0-0.1
				l0-0.1c1.2-1.3,1.5-11.3,0.1-14.4l0-0.1l0-0.1c1.4-2.4,0.9-12.6-0.6-14.2L96,89.6l0-0.1c1.7-2.9,1.3-9.8-0.2-14.2l0-0.1l0-0.1
				c1.5-2,2-12.9,0.6-14.7l0-0.1l0-0.1c1.6-3,3.4-9.4,2.1-13.5c-0.5-1.6-1.5-2.8-2.9-3.4l0,0c-1.2-1.1-7.9-0.9-8-0.9
				c-0.1,0-6.8-0.1-8,1l0,0c-1.4,0.7-2.4,1.8-2.9,3.4c-1.3,4.1,0.5,10.5,2.1,13.5l0,0.1l0,0.1c-1.4,1.8-0.9,12.7,0.6,14.7l0,0.1
				l0,0.1c-1.5,4.4-1.9,11.3-0.2,14.2l0,0.1l-0.1,0.1c-1.5,1.6-2,11.8-0.6,14.2l0,0.1l0,0.1c-1.4,3.1-1.1,13.1,0.1,14.4l0,0.1l0,0.1
				c-0.9,2.7-2,11.9-0.4,13.6l0.1,0.1l0,0.1c-1.1,2.1-1.5,13.9-0.6,15C78.8,148.5,77.6,153.4,77.4,154.4z"/>
		</g>
		<g id="XMLID_5325_">
			<g id="XMLID_6583_">
				<path id="XMLID_5331_" class="st2" d="M80.5,132.7c0-1,14.1-0.3,14.1,0S80.5,133.7,80.5,132.7z"/>
				<path id="XMLID_6580_" d="M85.3,133.4c-1.4,0-2.6,0-3.4-0.1c-1.3-0.1-1.5-0.3-1.5-0.6s0.2-0.4,1.5-0.6c0.8-0.1,2-0.1,3.4-0.1
					c1.9,0,4.2,0.1,6.2,0.2c3.2,0.2,3.2,0.3,3.2,0.5s0,0.3-3.2,0.5C89.5,133.3,87.2,133.4,85.3,133.4z M80.7,132.7
					c0,0,0,0.1,0.2,0.1c1.7,0.6,11.3,0.2,13.4-0.1c-2-0.3-11.7-0.7-13.4-0.1C80.7,132.6,80.7,132.7,80.7,132.7z"/>
			</g>
			<g id="XMLID_6579_">
				<path id="XMLID_5330_" class="st2" d="M80.5,148c0-1,14.1-0.3,14.1,0S80.5,149,80.5,148z"/>
				<path id="XMLID_6576_" d="M85.3,148.7c-1.4,0-2.6,0-3.4-0.1c-1.3-0.1-1.5-0.3-1.5-0.6s0.2-0.4,1.5-0.6c0.8-0.1,2-0.1,3.4-0.1
					c1.9,0,4.2,0.1,6.2,0.2c3.2,0.2,3.2,0.3,3.2,0.5s0,0.3-3.2,0.5C89.5,148.6,87.2,148.7,85.3,148.7z M80.7,148c0,0,0,0.1,0.2,0.1
					c1.7,0.6,11.3,0.2,13.4-0.1c-2-0.3-11.7-0.7-13.4-0.1C80.7,147.9,80.7,148,80.7,148z"/>
			</g>
			<g id="XMLID_6575_">
				<path id="XMLID_5329_" class="st2" d="M80.5,118.4c0-1,14.1-0.3,14.1,0S80.5,119.4,80.5,118.4z"/>
				<path id="XMLID_6572_" d="M85.3,119.1c-1.4,0-2.6,0-3.4-0.1c-1.3-0.1-1.5-0.3-1.5-0.6s0.2-0.4,1.5-0.6c0.8-0.1,2-0.1,3.4-0.1
					c1.9,0,4.2,0.1,6.2,0.2c3.2,0.2,3.2,0.3,3.2,0.5s0,0.3-3.2,0.5C89.5,119,87.2,119.1,85.3,119.1z M80.7,118.4c0,0,0,0.1,0.2,0.1
					c1.7,0.6,11.3,0.2,13.4-0.1c-2-0.3-11.7-0.7-13.4-0.1C80.7,118.4,80.7,118.4,80.7,118.4z"/>
			</g>
			<g id="XMLID_6571_">
				<path id="XMLID_5328_" class="st2" d="M80.5,104c0-1,14.1-0.3,14.1,0S80.5,105,80.5,104z"/>
				<path id="XMLID_6568_" d="M85.3,104.7c-1.4,0-2.6,0-3.4-0.1c-1.3-0.1-1.5-0.3-1.5-0.6s0.2-0.4,1.5-0.6c0.8-0.1,2-0.1,3.4-0.1
					c1.9,0,4.2,0.1,6.2,0.2c3.2,0.2,3.2,0.3,3.2,0.5s0,0.3-3.2,0.5C89.5,104.6,87.2,104.7,85.3,104.7z M80.7,104c0,0,0,0.1,0.2,0.1
					c1.7,0.6,11.3,0.2,13.4-0.1c-2-0.3-11.7-0.7-13.4-0.1C80.7,103.9,80.7,104,80.7,104z"/>
			</g>
			<g id="XMLID_6567_">
				<path id="XMLID_5327_" class="st2" d="M80.5,89.8c0-1,14.1-0.3,14.1,0S80.5,90.9,80.5,89.8z"/>
				<path id="XMLID_6564_" d="M85.3,90.5c-1.4,0-2.6,0-3.4-0.1c-1.3-0.1-1.5-0.3-1.5-0.6s0.2-0.4,1.5-0.6c0.8-0.1,2-0.1,3.4-0.1
					c1.9,0,4.2,0.1,6.2,0.2c3.2,0.2,3.2,0.3,3.2,0.5s0,0.3-3.2,0.5C89.5,90.4,87.2,90.5,85.3,90.5z M80.7,89.8c0,0,0,0.1,0.2,0.1
					c1.7,0.6,11.3,0.2,13.4-0.1c-2-0.3-11.7-0.7-13.4-0.1C80.7,89.8,80.7,89.8,80.7,89.8z"/>
			</g>
			<g id="XMLID_6563_">
				<path id="XMLID_5326_" class="st2" d="M80.5,75.5c0-1,14.1-0.3,14.1,0S80.5,76.5,80.5,75.5z"/>
				<path id="XMLID_6536_" d="M85.3,76.2c-1.4,0-2.6,0-3.4-0.1c-1.3-0.1-1.5-0.3-1.5-0.6s0.2-0.4,1.5-0.6c0.8-0.1,2-0.1,3.4-0.1
					c1.9,0,4.2,0.1,6.2,0.2c3.2,0.2,3.2,0.3,3.2,0.5s0,0.3-3.2,0.5C89.5,76.1,87.2,76.2,85.3,76.2z M80.7,75.5c0,0,0,0.1,0.2,0.1
					c1.7,0.6,11.3,0.2,13.4-0.1c-2-0.3-11.7-0.7-13.4-0.1C80.7,75.4,80.7,75.5,80.7,75.5z"/>
			</g>
			<g id="XMLID_6535_">
				<path id="XMLID_5322_" class="st2" d="M80.5,60.7c0-1,14.1-0.3,14.1,0C94.6,61,80.5,61.7,80.5,60.7z"/>
				<path id="XMLID_6532_" d="M85.3,61.3c-1.4,0-2.6,0-3.4-0.1c-1.3-0.1-1.5-0.3-1.5-0.6s0.2-0.4,1.5-0.6c0.8-0.1,2-0.1,3.4-0.1
					c1.9,0,4.2,0.1,6.2,0.2c3.2,0.2,3.2,0.3,3.2,0.5s0,0.3-3.2,0.5C89.5,61.3,87.2,61.3,85.3,61.3z M80.7,60.7c0,0,0,0.1,0.2,0.1
					c1.7,0.6,11.3,0.2,13.4-0.1c-2-0.3-11.7-0.7-13.4-0.1C80.7,60.6,80.7,60.7,80.7,60.7z"/>
			</g>
		</g>
		<g id="XMLID_6531_">
			<path id="XMLID_5323_" class="st2" d="M93.5,199.9c1.7,1.2,9.9-1.5,10.5-3.4c0,0-1,5.8-1.2,6.4c-0.2,0.7-1.6,1.8-2.9,2.5
				c0.9,0.6,2.9-0.4,3.8-1.9c1-1.5,2.4-8.9,2.4-8.9s0.2,8-0.2,9.2c-0.4,1.2-2.6,1.7-2.3,2.9s3,2.4,3.6,2c2.2-1.6-0.6-8.9-0.3-15.6
				c0,0,4.6,10.6,5.1,13.4c0.9,4.1,1.3,7.3,1,8.9c-0.1,5.6-5.4,10.2-12.3,11.2c-5.5,0.8-18.5-2.8-25.2-12.9
				c-2-2.2-10.3-4.7-12.6-4.6c0,0-1.4,1.1-1.8,0.9s-0.9-0.8-1.3-2.6c-0.1-0.3-0.1-0.7-0.1-1.2l0,0c0,0,1.5-1.3,2.5-1.7
				c0.8,0.9,10.7,2.5,12.4,2.2s5.5-2.4,6.9-2.3s1.8,0.5,3.7,0.2c1.9-0.3,6.2-3.5,6.2-3.5S92.3,200.8,93.5,199.9"/>
			<path id="XMLID_6528_" d="M99,226.9c-6.1,0-17.5-3.8-23.6-13.1c-1.9-2.1-9.9-4.5-12.4-4.5c0,0-0.1,0-0.1,0
				c-0.3,0.2-1.5,1.1-1.8,0.9c-0.4-0.3-0.9-0.9-1.3-2.6c-0.1-0.3-0.1-0.7-0.1-1.2l0,0l0,0c0.1-0.1,1.5-1.3,2.6-1.7l0,0l0,0
				c0.8,1,10.6,2.5,12.3,2.1c0.7-0.1,1.7-0.6,2.8-1c1.6-0.7,3.3-1.3,4.1-1.2c0.4,0,0.7,0.1,1,0.1c0.8,0.1,1.3,0.2,2.7,0
				c1.8-0.3,6.1-3.4,6.1-3.5c0,0,0.8-0.5,2-1.4l0,0.1l0,0c0.9,0.6,3.5,0.2,5.8-0.6c2.5-0.8,4.3-1.9,4.6-2.7l0.1,0
				c0,0.2-1,5.8-1.2,6.5c-0.2,0.7-1.6,1.7-2.8,2.5c0.2,0.1,0.6,0.1,0.9,0.1c0.9-0.2,2-1,2.7-2c1-1.5,2.3-8.8,2.3-8.8l0.1-0.7l0,0.7
				c0,0.3,0.2,8-0.2,9.2c-0.2,0.6-0.8,1-1.3,1.4c-0.6,0.5-1.2,0.9-1,1.5c0.1,0.7,1.2,1.4,2.1,1.8c0.6,0.3,1.2,0.3,1.4,0.2
				c1.3-0.9,0.9-3.7,0.4-7.2c-0.4-2.6-0.8-5.5-0.6-8.3l0-0.3l0.1,0.3c0,0.1,4.6,10.7,5.1,13.4c0.9,4.4,1.3,7.4,1,8.9
				c-0.1,2.7-1.3,5.3-3.6,7.3c-2.2,2-5.3,3.4-8.7,3.9C100.2,226.9,99.7,226.9,99,226.9z M63.1,209.2c2.5,0,10.5,2.4,12.5,4.6
				c6.7,10.1,19.7,13.7,25.1,12.9c7.1-1.1,12.1-5.7,12.2-11.2c0.3-1.5,0-4.5-1-8.9c-0.5-2.5-4.2-11.4-5-13.1
				c-0.1,2.7,0.3,5.5,0.7,7.9c0.5,3.6,0.9,6.4-0.4,7.4c-0.4,0.2-1.2-0.1-1.5-0.2c-1-0.4-2.1-1.1-2.2-1.9c-0.1-0.7,0.5-1.1,1.1-1.6
				c0.5-0.4,1-0.8,1.2-1.3c0.4-1,0.3-6.5,0.2-8.5c-0.4,1.9-1.4,7-2.2,8.2c-0.7,1-1.8,1.9-2.8,2.1c-0.5,0.1-0.9,0-1.2-0.2l-0.1-0.1
				l0.1-0.1c1.2-0.7,2.7-1.8,2.9-2.4c0.2-0.6,0.9-4.6,1.1-6c-0.7,0.9-2.8,1.9-4.5,2.4c-2.1,0.7-4.9,1.3-5.9,0.6
				c-1.1,0.9-1.9,1.4-1.9,1.4c-0.2,0.1-4.3,3.2-6.2,3.5c-1.3,0.2-1.9,0.1-2.7,0c-0.3-0.1-0.6-0.1-1-0.1c-0.8-0.1-2.5,0.6-4.1,1.2
				c-1.1,0.4-2.2,0.9-2.8,1c-1.7,0.4-11.3-1.2-12.4-2.2c-0.9,0.3-2.2,1.4-2.4,1.6c0,0.5,0,0.9,0.1,1.2c0.4,1.7,0.9,2.3,1.3,2.5
				c0.2,0.1,1.1-0.4,1.7-0.9l0,0l0,0C63,209.2,63,209.2,63.1,209.2z"/>
		</g>
		<g id="XMLID_6527_">
			<path id="XMLID_5313_" class="st2" d="M67.6,197.7c0,0,0.7-0.2,0.9-0.1c0.2,0,1.2,0.8,1.5,0.8c0.3,0,1.5-1.6,1.8-1.6
				s0.8,1.3,1.1,1.5c0.3,0.2,3.5-0.9,3.8-1.2s0.5-0.7,0.4-1.1s-0.8-1-1.3-1c-0.5,0-2.1,0.6-2.1,0.6c-0.1,0,0.1-1.7,0-1.7
				s-3.9,1.8-4.1,1.8s0.6-3.1,0.3-3.3c-0.3-0.2-2.8,1.8-3,1.8c-0.2,0-0.2-2.1,0-3c-0.1,0-1.9,1.1-1,3.1c0,0,0,0,0,0.1
				c0,0-0.7,0.1-1.8,0.2c-0.7-0.8-0.7-5.9,5.6-10.2c1,0.4,1.8,2.6,2.7,5.4c0.6,1.3,3.8,2.2,3.4,1.4c-2.6-5.5-1.7-17.5-1.1-23.1
				c-1.4-2.1-1.9-11.5-0.4-17c0.4-3.7,1-8,1.8-8c0.8,0.1,1.6,3.2,1.6,3.2s2.7-2,3.5-1.1c0.2,0.3,0.2,1.6,0.2,1.6s2.5-3.8,3-3.2
				c0.5,0.6,2.2,3.5,2.2,3.5s3.4-6.7,4.2-6.2c0.8,0.5,1.7,3.1,1.7,3.1c-0.6,1.8-0.2,10.4,0,11.5s0.9,2.4,1.3,2.2
				c0.3-0.2,2.3-10.8,2.3-10.8l0.1,0c0.4-0.3,2.4-1.4,2.6-1.3c0.2,0.2,0.5,1.4,0.7,2.7c0.2,1.2,0.4,17.7,2.5,25.2
				c3.3,8.5,8.1,23.3,10.2,33.3l0,0.1c-0.5-2.8-5.1-13.4-5.1-13.4c-0.3,6.7,2.5,14,0.3,15.6c-0.6,0.4-3.4-0.9-3.6-2s1.9-1.7,2.3-2.9
				c0.4-1.2,0.2-9.2,0.2-9.2s-1.4,7.4-2.4,8.9c-1,1.5-2.9,2.5-3.8,1.9c1.3-0.7,2.7-1.8,2.9-2.5c0.2-0.7,1.2-6.4,1.2-6.4
				c-0.6,1.8-8.8,4.6-10.5,3.4l0,0c-1.1,0.9-1.9,1.3-1.9,1.3s-4.3,3.2-6.2,3.5c-1.9,0.3-2.3,0-3.7-0.2c-1.4-0.1-5.3,1.9-6.9,2.3
				c-1.7,0.4-11.5-1.2-12.4-2.2c-1,0.3-2.5,1.7-2.5,1.7l0-0.1c0-2.4,0.8-6.4,2.1-9.2c0.4-0.8,1.7-1.7,2.1-1.5
				c0.3,0.2,0.9,1.1,0.9,1.1l1.5-0.7C66.5,196,67.1,197.7,67.6,197.7c0.1,0,0.2,0,0.3-0.1"/>
			<path id="XMLID_5316_" d="M106.8,208.9c-0.4,0-0.9-0.2-1.1-0.3c-1-0.4-2.1-1.1-2.2-1.9c-0.1-0.7,0.5-1.1,1.1-1.6
				c0.5-0.4,1-0.8,1.2-1.3c0.4-1,0.3-6.5,0.2-8.5c-0.4,1.9-1.4,7-2.2,8.2c-0.7,1-1.8,1.9-2.8,2.1c-0.5,0.1-0.9,0-1.2-0.2l-0.1-0.1
				l0.1-0.1c1.2-0.7,2.7-1.8,2.9-2.4c0.2-0.6,0.9-4.6,1.1-6c-0.7,0.9-2.8,1.9-4.5,2.4c-2.1,0.7-4.9,1.3-5.9,0.6l0,0
				c-1.1,0.9-1.9,1.3-1.9,1.4c-0.2,0.1-4.3,3.2-6.2,3.5c-1.3,0.2-1.9,0.1-2.7,0c-0.3-0.1-0.6-0.1-1-0.1c0,0-0.1,0-0.1,0
				c-0.9,0-2.4,0.6-3.9,1.2c-1.1,0.4-2.2,0.9-2.8,1c-1.7,0.4-11.3-1.2-12.4-2.2c-1,0.4-2.4,1.6-2.5,1.6l-0.1,0.1l0-0.2
				c0-2.4,0.8-6.5,2.2-9.3c0.4-0.7,1.3-1.4,1.8-1.5c0.2,0,0.3,0,0.4,0c0.3,0.2,0.8,0.9,0.9,1.1l1.5-0.7l0,0.1c0.3,0.7,0.7,1.6,1,1.6
				c0,0,0,0,0,0c0,0,0,0,0,0c0.1,0,0.1,0,0.2-0.1l0,0c0.2,0,0.5-0.1,0.7-0.1c0,0,0,0,0,0c0.1,0,0.3,0.1,0.6,0.4
				c0.3,0.2,0.7,0.5,0.8,0.5c0,0,0,0,0,0c0.1,0,0.5-0.4,0.8-0.8c0.5-0.5,0.8-0.8,1-0.8c0.2,0,0.4,0.3,0.7,0.8
				c0.2,0.3,0.3,0.6,0.4,0.6c0,0,0,0,0.1,0c0.6,0,3.4-1,3.6-1.2c0.3-0.2,0.5-0.7,0.4-1c-0.1-0.4-0.8-0.9-1.3-1c0,0,0,0,0,0
				c-0.3,0-1.1,0.3-1.6,0.4c-0.4,0.1-0.4,0.2-0.5,0.1c-0.1,0-0.1,0,0-0.8c0-0.3,0-0.8,0-1c-0.2,0.1-1.2,0.5-2,0.9
				c-1.4,0.6-2,0.9-2.1,0.9h0l0,0l0,0c-0.1-0.1,0-0.4,0.1-1.4c0.1-0.6,0.3-1.7,0.2-1.9c0,0,0,0,0,0c-0.2,0-1.3,0.8-1.9,1.2
				c-0.7,0.5-0.9,0.6-1,0.6c0,0-0.1,0-0.1,0c-0.2-0.2-0.1-2.1,0-2.9c-0.2,0.1-0.6,0.5-0.9,1c-0.3,0.6-0.3,1.2,0,1.9l0.1,0.2l-0.1,0
				c0,0-0.7,0.1-1.8,0.2l0,0l0,0c-0.2-0.3-0.4-1.1-0.3-2.2c0.2-1.4,1.1-4.9,5.9-8.1l0,0l0,0c1.1,0.4,1.8,2.6,2.7,5.3l0,0.1
				c0.5,1,2.8,1.8,3.2,1.6c0,0,0.1,0,0-0.2c-2.6-5.3-1.8-16.8-1.1-23.1c-1.4-2.2-1.9-11.7-0.4-17.1c0.7-7.1,1.4-8,1.8-8c0,0,0,0,0,0
				c0.8,0.1,1.5,2.5,1.6,3.1c0.5-0.4,2.8-1.9,3.5-1.1c0.2,0.2,0.2,1,0.2,1.4c0.5-0.8,2.1-3,2.8-3c0.1,0,0.2,0,0.2,0.1
				c0.5,0.5,1.8,2.8,2.1,3.4c0.5-0.9,3.1-5.8,4-6.1c0.1,0,0.2,0,0.2,0c0.8,0.5,1.7,3.1,1.7,3.2l0,0l0,0c-0.6,1.8-0.2,10.4,0,11.4
				c0.3,1,0.8,2,1.1,2.1c0,0,0.1,0,0.1,0c0.3-0.3,1.5-6.6,2.2-10.7l0,0l0.1-0.1c2.4-1.5,2.6-1.3,2.7-1.3c0.2,0.2,0.4,1.1,0.7,2.7
				c0.1,0.3,0.1,1.4,0.2,3.1c0.2,5.3,0.7,16.4,2.3,22.1c3.2,8.2,8,23.2,10.2,33.2c0,0.1,0,0.1,0,0.2l-0.1,0l0-0.1c0,0,0,0,0-0.1
				c-0.6-2.7-4.2-11.2-5-12.9c-0.1,2.7,0.3,5.5,0.7,7.9c0.5,3.6,0.9,6.4-0.4,7.4C107.1,208.9,106.9,208.9,106.8,208.9z M106.1,193.9
				l0,0.7c0,0.3,0.2,8-0.2,9.2c-0.2,0.6-0.8,1-1.3,1.4c-0.6,0.5-1.2,0.9-1,1.5c0.1,0.7,1.2,1.4,2.1,1.8c0.6,0.3,1.2,0.3,1.4,0.2
				c1.3-0.9,0.9-3.7,0.4-7.2c-0.4-2.6-0.8-5.5-0.6-8.3l0-0.3l0.1,0.3c0,0.1,3.1,7.2,4.5,11.3c-2.3-10-6.7-23.6-9.7-31.2
				c-1.6-5.8-2.1-16.9-2.3-22.2c-0.1-1.6-0.1-2.8-0.2-3c-0.4-2.2-0.6-2.6-0.7-2.6c0,0,0,0,0,0c-0.2,0-1.2,0.5-2.5,1.3l-0.1,0
				c-0.5,2.5-2,10.6-2.3,10.8c0,0-0.1,0-0.2,0c-0.4-0.2-0.9-1.3-1.2-2.2c-0.3-1-0.7-9.6,0-11.5c-0.1-0.3-0.9-2.6-1.6-3.1
				c0,0-0.1,0-0.1,0c-0.8,0.2-3,4.1-4,6.1l-0.1,0.1l-0.1-0.1c0,0-1.6-2.9-2.2-3.5c0,0-0.1,0-0.1,0c0,0,0,0,0,0
				c-0.6,0-2.2,2.3-2.8,3.2l-0.1,0.2l0-0.3c0-0.3,0-1.3-0.2-1.5c-0.7-0.8-3.4,1.1-3.4,1.2l-0.1,0.1l0-0.1c-0.2-0.9-0.9-3.1-1.5-3.1
				c0,0,0,0,0,0c-0.4,0-1,1.4-1.7,7.9c-1.5,5.4-1.1,14.9,0.4,17l0,0l0,0c-0.7,6.3-1.5,17.8,1.1,23.1c0.1,0.2,0,0.3-0.1,0.4
				c-0.5,0.2-2.9-0.6-3.4-1.7l0-0.1c-0.8-2.6-1.6-4.8-2.6-5.2c-4.7,3.2-5.6,6.7-5.8,8c-0.1,1,0,1.8,0.2,2.1c0.8-0.1,1.4-0.2,1.6-0.2
				c-0.5-1.1-0.1-2,0.3-2.5c0.3-0.4,0.7-0.7,0.8-0.6l0.1,0l0,0.1c-0.2,0.9-0.2,2.7-0.1,2.9c0.1-0.1,0.5-0.3,0.9-0.6
				c1.3-0.9,1.9-1.3,2.1-1.2c0.2,0.1,0.1,0.6-0.1,2c-0.1,0.5-0.2,1.1-0.2,1.3c0.2-0.1,1.2-0.5,2-0.9c2-0.9,2-0.9,2.1-0.9
				c0.1,0,0.1,0.2,0,1.1c0,0.2,0,0.5,0,0.6c0.1,0,0.2-0.1,0.3-0.1c0.5-0.2,1.3-0.5,1.7-0.5c0,0,0,0,0,0c0.5,0,1.2,0.6,1.4,1.1
				c0.1,0.4-0.1,0.9-0.4,1.2c-0.3,0.2-3.6,1.4-3.9,1.2c-0.1-0.1-0.3-0.4-0.5-0.7c-0.2-0.3-0.5-0.8-0.6-0.8c-0.1,0-0.6,0.5-0.8,0.8
				c-0.5,0.5-0.8,0.8-0.9,0.8c0,0,0,0,0,0c-0.2,0-0.5-0.2-0.9-0.5c-0.2-0.2-0.5-0.3-0.6-0.3c0,0,0,0,0,0c-0.2,0-0.6,0.1-0.8,0.1
				c0,0,0,0-0.1,0c0,0,0,0,0,0c-0.4,0-1-1.2-1.1-1.6l-1.5,0.7l0-0.1c0,0-0.6-0.9-0.9-1.1c0,0-0.1,0-0.3,0c-0.5,0.1-1.4,0.8-1.7,1.4
				c-1.3,2.7-2.1,6.7-2.1,9.1c0.4-0.3,1.6-1.3,2.4-1.6l0,0l0,0c0.8,1,10.6,2.5,12.3,2.1c0.7-0.1,1.7-0.6,2.8-1
				c1.5-0.6,3.1-1.3,4-1.3c0.1,0,0.1,0,0.2,0c0.4,0,0.7,0.1,1,0.1c0.8,0.1,1.3,0.2,2.7,0c1.8-0.3,6.1-3.4,6.1-3.5
				c0,0,0.8-0.5,1.9-1.3l0.1-0.1l0,0c0.9,0.6,3.5,0.2,5.8-0.6c2.5-0.8,4.3-1.9,4.6-2.7l0.1,0c0,0.2-1,5.8-1.2,6.5
				c-0.2,0.7-1.6,1.7-2.8,2.5c0.2,0.1,0.6,0.1,0.9,0.1c0.9-0.2,2-1,2.7-2c1-1.5,2.3-8.8,2.3-8.8L106.1,193.9z"/>
		</g>
		<path id="XMLID_6524_" d="M93.6,199.9l-0.1-0.1c2.1-1.6,4.8-4.3,6.3-7.9c2.3-5.8-1.1-14-3.5-16.8c-1-1.2-2.2-2.1-3.4-3.1
			c-0.6-0.5-1.3-1.1-1.9-1.6l0.1-0.1c0.6,0.6,1.3,1.1,1.9,1.6c1.2,1,2.4,2,3.4,3.1c2.5,2.8,5.9,11.1,3.6,17
			C98.4,195.6,95.6,198.3,93.6,199.9z"/>
		<g id="XMLID_5303_">
			<g id="XMLID_6523_">
				<path id="XMLID_5312_" class="st3" d="M77.5,210.6c0-0.5,5.9-0.4,6.9,0.8s0.8,4.8,0.2,4.7c-2.2-0.4-5.2-3.4-5.2-3.4
					S77.5,211.1,77.5,210.6z"/>
				<path id="XMLID_6520_" d="M84.6,216.2C84.6,216.2,84.5,216.2,84.6,216.2c-2.3-0.4-5.2-3.3-5.3-3.4c-0.2-0.2-1.9-1.7-1.9-2.2l0,0
					c0-0.1,0.1-0.2,0.2-0.2c1-0.4,5.9-0.2,6.8,0.9c0.9,1.1,0.9,3.8,0.5,4.6C84.8,216.1,84.7,216.2,84.6,216.2z M77.5,210.6
					c0,0.3,1.1,1.4,1.8,2.1c0,0,3,2.9,5.2,3.4c0,0,0,0,0,0c0.1,0,0.2-0.1,0.2-0.2c0.4-0.8,0.4-3.4-0.4-4.4c-0.8-0.9-4.4-1.1-6.1-1
					C77.6,210.5,77.6,210.6,77.5,210.6z"/>
			</g>
			<g id="XMLID_6519_">
				<path id="XMLID_5311_" class="st3" d="M89.7,209c2.8,3.2,9.3,4.3,13.2-0.1C99.2,206.7,92.2,203.2,89.7,209z"/>
				<path id="XMLID_6476_" d="M96.4,211.9C96.4,211.9,96.4,211.9,96.4,211.9c-2.6,0-5.2-1.1-6.7-2.8l0,0l0,0c0.7-1.5,1.7-2.5,3-3
					c2.4-0.8,5.9,0.2,10.3,2.8l0.1,0L103,209C101.3,210.8,99,211.9,96.4,211.9z M89.8,209c1.5,1.7,4,2.7,6.5,2.7c0,0,0,0,0,0
					c2.5,0,4.8-1,6.4-2.8c-4.3-2.6-7.7-3.5-10.1-2.8C91.4,206.6,90.5,207.5,89.8,209z"/>
			</g>
			<g id="XMLID_6475_">
				<path id="XMLID_5310_" class="st3" d="M96,146.7c0,0-1.9,10.6-2.3,10.8c-0.3,0.2-1-1.1-1.3-2.2c-0.3-1.1-0.7-9.6,0-11.5
					c0,0,2.4-4.6,3.5-4.1c0.4,0.3,0.6,2.4,0.7,3.4C96.5,144.1,96,146.7,96,146.7z"/>
				<path id="XMLID_6472_" d="M93.6,157.6c0,0-0.1,0-0.1,0c-0.4-0.2-0.9-1.3-1.2-2.2c-0.3-1-0.7-9.7,0-11.5c0.3-0.5,2.5-4.7,3.6-4.2
					c0.4,0.3,0.7,2.6,0.7,3.5c0,1-0.5,3.5-0.5,3.6C95.6,149.2,94.1,157.4,93.6,157.6C93.7,157.5,93.7,157.6,93.6,157.6z M95.6,139.7
					c-0.9,0-2.6,2.9-3.2,4.1c-0.6,1.8-0.2,10.4,0,11.4c0.3,1,0.8,2,1.1,2.1c0,0,0.1,0,0.1,0c0.3-0.3,1.5-6.6,2.2-10.7l0,0
					c0,0,0.5-2.6,0.5-3.6c0-1.2-0.3-3.1-0.6-3.4C95.7,139.7,95.7,139.7,95.6,139.7z"/>
			</g>
			<g id="XMLID_6471_">
				<path id="XMLID_5309_" class="st3" d="M82,155c0,0,1.1-1.5,2.4-2.3c0.3-1.3,2.1-5.9,2.1-5.9s-2.4,3.9-3.8,6.4
					C82.4,153.7,82.2,154.3,82,155"/>
				<path id="XMLID_6468_" d="M82.1,155L82.1,155l-0.1-0.1c0.2-0.7,0.4-1.3,0.7-1.8c1.4-2.5,3.8-6.4,3.8-6.4l0.1,0.1
					c0,0-1.7,4.6-2.1,5.9l0,0l0,0C83.2,153.5,82.1,155,82.1,155z M86.1,147.5c-0.7,1.2-2.4,3.9-3.4,5.7c-0.2,0.4-0.4,0.8-0.5,1.4
					c0.4-0.5,1.2-1.4,2.1-2C84.6,151.7,85.6,148.9,86.1,147.5z"/>
			</g>
			<g id="XMLID_6467_">
				<path id="XMLID_5308_" class="st3" d="M79.8,184.2c0,0,4.6-17.3,4.8-20.5c0.2-3.2-0.2-11.1-0.2-11.1s1.4,8.7,2.3,10.2
					c-0.8,2.1-0.9,6.4-0.9,9.6C84.7,173.6,82.7,172.7,79.8,184.2z"/>
				<path id="XMLID_6464_" d="M79.9,184.2l-0.1,0l0,0c0.1-0.5,0.3-1,0.4-1.4c1.1-4.2,4.3-16.4,4.4-19c0.2-3.1-0.2-11-0.2-11.1l0.1,0
					c0,0.1,1.4,8.7,2.3,10.1l0,0l0,0c-0.9,2.5-0.9,7.9-0.9,9.5l0,0l0,0c-0.2,0.2-0.5,0.4-0.7,0.5c-1.1,0.7-2.7,1.7-4.9,9.8
					C80,183.7,79.9,184.2,79.9,184.2z M84.5,153.9c0.1,2.4,0.3,7.5,0.1,9.8c-0.1,2.1-2.1,10.1-3.5,15.5c1.7-5,3-5.8,3.9-6.3
					c0.2-0.2,0.5-0.3,0.7-0.5c0-1.6-0.1-7,0.9-9.5C85.9,161.6,85,156.4,84.5,153.9z"/>
			</g>
			<g id="XMLID_6463_">
				<path id="XMLID_5307_" class="st3" d="M87.1,186.7c0.6-3,2.3-8.4,3.5-11.7c-0.2-1.1-1.2-1.5-1.2-2.6c0-1,0.5-1.8,1.5-2.3l0,0
					c-1-0.9-1.9-1.8-2.8-3c-0.8,1.1-0.9,4.6,0,7.4c0.6,1.9-0.5,11-2.1,17.1"/>
				<path id="XMLID_6460_" d="M86.1,191.7l-0.1,0c1.5-6.1,2.7-15.2,2.1-17c-0.8-2.7-0.8-6.3,0-7.5l0.1-0.1l0.1,0.1
					c0.8,1,1.6,2,2.8,3l-0.1,0.1l0,0c0,0,0,0,0,0l0,0l0,0c-0.9,0.5-1.4,1.2-1.4,2.2c0,0.5,0.3,0.9,0.6,1.3c0.3,0.4,0.5,0.7,0.7,1.2
					l0,0l0,0c-1.2,3.2-2.9,8.5-3.5,11.6C86.8,188.4,86.5,190.1,86.1,191.7z M88.1,167.3c-0.7,1.1-0.8,4.4,0.1,7.2
					c0.4,1.2,0.1,5.4-0.6,9.8c0.8-3,2-6.8,3-9.4c-0.1-0.5-0.4-0.8-0.6-1.2c-0.3-0.4-0.6-0.8-0.6-1.4c0-1,0.5-1.8,1.4-2.3
					C89.7,169.2,88.8,168.3,88.1,167.3z"/>
			</g>
			<g id="XMLID_6459_">
				<path id="XMLID_5306_" class="st3" d="M93.4,173.3c0,0,0.6,0.4,1,0.9c-0.8,2-1.7,8.1-2.3,9.5c-0.6,1.4-2.8,4.8-3.5,4.7
					C88.8,187.7,92.9,178.4,93.4,173.3z"/>
				<path id="XMLID_6456_" d="M88.5,188.6C88.5,188.6,88.5,188.6,88.5,188.6l-0.1,0L88.5,188.6c0-0.2,0.1-0.6,0.3-1.1
					c1.1-2.7,4-9.9,4.4-14.2l0-0.1l0.1,0.1c0,0,0.7,0.4,1.1,1l0,0l0,0c-0.4,1-0.8,3-1.2,4.9c-0.4,2-0.8,3.9-1.1,4.6
					C91.6,184.9,89.4,188.6,88.5,188.6z M93.4,173.4c-0.5,4.3-3.3,11.4-4.4,14.1c-0.2,0.4-0.3,0.7-0.3,0.9c0.8-0.3,2.7-3.2,3.3-4.7
					c0.3-0.7,0.7-2.6,1.1-4.6c0.4-1.9,0.8-3.9,1.2-4.9C94,173.9,93.6,173.6,93.4,173.4z"/>
			</g>
			<g id="XMLID_6455_">
				<path id="XMLID_5305_" class="st3" d="M95.8,175.6c0,0,1.2,1.2,1.1,1.8c-0.1,1.6-1.5,7.1-4,11.6c-1.3,2.7-4.5,6.1-5,5.9
					C90.8,190.1,95.9,181.2,95.8,175.6z"/>
				<path id="XMLID_6452_" d="M88,195.1C87.9,195.1,87.9,195.1,88,195.1l-0.1,0l0-0.1c5.3-8.8,7.9-15.3,7.9-19.3l0-0.2l0.1,0.1
					c0,0.1,1.2,1.3,1.2,1.9c-0.1,1.7-1.5,7.3-4,11.6C91.8,191.6,88.7,195.1,88,195.1z M95.9,175.8c0,4.1-2.7,10.5-7.8,19.1
					c0.7-0.3,3.5-3.3,4.8-5.9c2.5-4.4,3.9-9.8,4-11.6C96.9,177,96.3,176.2,95.9,175.8z"/>
			</g>
			<g id="XMLID_6451_">
				<path id="XMLID_5304_" class="st3" d="M67.6,197.7c0,0,0.7-0.2,0.9-0.1c0.2,0,1.2,0.8,1.5,0.8s1.5-1.6,1.8-1.6s0.8,1.3,1.1,1.5
					c0.3,0.2,3.5-0.9,3.8-1.2s0.5-0.7,0.4-1.1s-0.8-1-1.3-1c-0.5,0-2,0.6-2.1,0.6c-0.1,0,0.1-1.7,0-1.7s-3.9,1.8-4.1,1.8
					c-0.2,0,0.6-3.1,0.3-3.3s-2.8,1.8-3,1.8c-0.2,0-0.2-2.1,0-3c-0.1,0-1.9,1.2-0.9,3.1l1.3,1.5c0,0,1.6,0.1,1.7,0.7
					c0.1,0.6-0.7,1-1.1,1.1"/>
				<path id="XMLID_6448_" d="M70,198.4c-0.2,0-0.5-0.2-0.9-0.5c-0.2-0.2-0.5-0.3-0.6-0.3c0,0,0,0,0,0c-0.2,0-0.7,0.1-0.9,0.1l0-0.1
					c0,0,0.1,0,0.1,0l0,0c0.5-0.1,1.1-0.5,1.1-1c-0.1-0.5-1.2-0.6-1.6-0.6l0,0l0,0l-1.3-1.5c-0.6-1.2-0.2-2.1,0.2-2.6
					c0.3-0.4,0.7-0.7,0.8-0.7c0,0,0,0,0,0l0.1,0l0,0.1c-0.2,0.9-0.2,2.7-0.1,2.9c0.1-0.1,0.5-0.3,0.9-0.6c1.3-0.9,1.9-1.3,2.1-1.2
					c0.2,0.1,0.1,0.6-0.1,2c-0.1,0.5-0.2,1.1-0.2,1.3c0.2-0.1,1.2-0.5,2-0.9c2-0.9,2-0.9,2.1-0.9c0.1,0,0.1,0.2,0,1.1
					c0,0.2,0,0.5,0,0.6c0.1,0,0.2-0.1,0.3-0.1c0.5-0.2,1.3-0.5,1.7-0.5c0,0,0,0,0,0c0.5,0,1.3,0.6,1.4,1.1c0.1,0.4-0.1,0.9-0.4,1.2
					c-0.3,0.2-3.6,1.4-3.9,1.2c-0.1-0.1-0.3-0.4-0.5-0.7c-0.2-0.3-0.5-0.8-0.6-0.8c-0.1,0-0.6,0.5-0.8,0.8
					C70.4,198.1,70.1,198.4,70,198.4C70,198.4,70,198.4,70,198.4z M68.5,197.4C68.5,197.4,68.5,197.4,68.5,197.4
					c0.1,0,0.3,0.1,0.7,0.4c0.3,0.2,0.7,0.5,0.8,0.5c0,0,0,0,0,0c0.1,0,0.5-0.4,0.8-0.8c0.5-0.5,0.8-0.8,1-0.8
					c0.2,0,0.4,0.3,0.7,0.8c0.2,0.3,0.3,0.6,0.4,0.6c0.3,0.1,3.5-0.9,3.7-1.2c0.3-0.2,0.5-0.7,0.4-1c-0.1-0.4-0.8-0.9-1.3-1
					c0,0,0,0,0,0c-0.3,0-1.2,0.3-1.6,0.4c-0.4,0.1-0.4,0.2-0.5,0.1c-0.1,0-0.1,0,0-0.8c0-0.3,0-0.8,0-1c-0.2,0.1-1.2,0.5-2,0.9
					c-1.4,0.6-2,0.9-2.1,0.9h0l0,0l0,0c-0.1-0.1,0-0.4,0.1-1.4c0.1-0.6,0.3-1.7,0.2-1.9c-0.2,0-1.3,0.8-1.9,1.2
					c-0.7,0.5-0.9,0.6-1,0.6c0,0-0.1,0-0.1,0c-0.2-0.2-0.1-2.1,0-2.9c-0.2,0.1-0.6,0.5-0.9,1c-0.3,0.6-0.3,1.3,0.1,2l1.3,1.5
					c0.3,0,1.7,0.1,1.7,0.8c0,0.4-0.3,0.7-0.7,1C68.4,197.4,68.4,197.4,68.5,197.4z"/>
			</g>
			<g id="XMLID_6447_">
				<path id="XMLID_3043_" class="st3" d="M85,216.5c0.7-0.8,1.7-1.5,2.4-1.8c0.7-0.2,3.1-0.2,3.2-0.3s-0.9-1.2-3.8-3.2
					c8.3,3.8,16.2,4.7,21,2.6c-1,2.6-9.5,4.2-15.4,1.5C90.6,215.1,85.8,217.3,85,216.5z"/>
				<path id="XMLID_5321_" d="M99.3,216.9c-2.3,0-4.8-0.4-7-1.4c-0.8-0.1-2.2,0.3-3.6,0.7c-1.7,0.5-3.3,0.9-3.7,0.5l-0.1-0.1
					l0.1-0.1c0.7-0.7,1.7-1.5,2.4-1.8c0.4-0.1,1.4-0.2,2.1-0.2c0.4,0,0.8,0,1-0.1c-0.1-0.2-1.1-1.2-3.8-3.1l0.1-0.1
					c8,3.7,16,4.7,21,2.6l0.2-0.1l-0.1,0.2c-0.3,0.7-1.1,1.3-2.3,1.9C103.9,216.4,101.6,216.9,99.3,216.9z M91.9,215.3
					c0.1,0,0.3,0,0.4,0l0,0c4.3,1.9,9.9,1.6,13,0.3c1.1-0.5,1.8-1,2.2-1.6c-4.8,1.9-12.5,1-20.2-2.4c2.1,1.5,3.2,2.6,3.2,2.8
					c0,0,0,0.1,0,0.1c-0.1,0.1-0.3,0.1-1.1,0.1c-0.8,0-1.7,0.1-2.1,0.2c-0.7,0.2-1.6,1-2.3,1.7c0.5,0.3,2-0.1,3.5-0.5
					C89.8,215.7,91.1,215.3,91.9,215.3z"/>
			</g>
		</g>
		<path id="XMLID_5320_" d="M59.9,206.3h-0.2c0-2.4,0.8-6.5,2.2-9.3c0.4-0.7,1.3-1.4,1.8-1.5c0.2,0,0.3,0,0.4,0
			c0.3,0.2,0.8,0.9,0.9,1.1l1.5-0.7l0,0.1c0.3,0.7,0.7,1.6,1,1.6c0,0,0,0,0,0c0,0,0.1,0,0.1,0l0,0.1c-0.1,0-0.1,0-0.2,0c0,0,0,0,0,0
			c-0.4,0-1-1.2-1.1-1.6l-1.5,0.7l0-0.1c0,0-0.6-0.9-0.9-1.1c0,0-0.1,0-0.3,0c-0.5,0.1-1.4,0.8-1.7,1.4
			C60.7,199.9,59.9,204,59.9,206.3z"/>
		<path id="XMLID_5319_" d="M64.1,194.5L64.1,194.5c-0.3-0.3-0.4-1.1-0.3-2.2c0.2-1.4,1.1-4.9,5.9-8.1l0,0l0,0
			c1.1,0.4,1.8,2.6,2.7,5.3l0,0.1c0.5,1,2.8,1.8,3.2,1.6c0,0,0.1,0,0-0.2c-2.6-5.3-1.8-16.8-1.1-23.1c-1.4-2.2-1.9-11.7-0.4-17.1
			c0.7-7.1,1.4-8,1.8-8c0,0,0,0,0,0c0.8,0.1,1.5,2.5,1.6,3.1c0.5-0.4,2.8-1.9,3.5-1.1c0.2,0.2,0.2,1,0.2,1.4c0.5-0.8,2.1-3,2.8-3
			c0.1,0,0.2,0,0.2,0.1c0.5,0.5,1.8,2.8,2.1,3.4c0.5-0.9,3.1-5.8,4-6.1c0.1,0,0.2,0,0.2,0c0.8,0.5,1.7,3.1,1.7,3.2l-0.1,0
			c0,0-0.9-2.6-1.6-3.1c0,0-0.1,0-0.1,0c-0.8,0.2-3,4.1-4,6.1l-0.1,0.1l-0.1-0.1c0,0-1.6-2.9-2.2-3.5c0,0-0.1,0-0.1,0
			c-0.6,0-2.2,2.3-2.8,3.2l-0.1,0.2l0-0.3c0-0.3,0-1.3-0.2-1.5c-0.6-0.7-2.6,0.6-3.4,1.2l-0.1,0.1l0-0.1c-0.2-0.9-0.9-3.1-1.5-3.1
			c0,0,0,0,0,0c-0.4,0-1,1.4-1.7,7.9c-1.5,5.4-1.1,14.9,0.4,17l0,0l0,0c-0.7,6.3-1.5,17.8,1.1,23.1c0.1,0.2,0,0.3-0.1,0.4
			c-0.5,0.2-2.9-0.6-3.4-1.7l0-0.1c-0.8-2.6-1.6-4.8-2.6-5.2c-4.7,3.2-5.6,6.7-5.8,8c-0.1,1,0,1.8,0.2,2.1c1-0.1,1.7-0.2,1.7-0.2
			l0,0.1C65.9,194.3,65.2,194.4,64.1,194.5L64.1,194.5z"/>
		<path id="XMLID_5318_" d="M76.7,166.4c-0.4-2.9,1.6-9.6,3.1-14.6c0.7-2.3,1.3-4.4,1.4-5.4l0.1,0c-0.2,1-0.8,3-1.4,5.4
			c-1.5,4.9-3.4,11.7-3.1,14.5L76.7,166.4z"/>
		<path id="XMLID_5317_" d="M77,179.1l-0.1-0.1c0-0.1,4.5-11.2,4.4-14c0-1.1-0.2-6.7,0.7-10.2l0.1,0c-0.9,3.4-0.7,9-0.7,10.1
			C81.5,167.9,77.2,178.7,77,179.1z"/>
		<path id="XMLID_5315_" d="M89.7,160.2c-2.5-2.9-4.2-11-3.3-13.4l0.1,0.1c-0.9,2.3,0.8,10.4,3.2,13.2L89.7,160.2z"/>
		<path id="XMLID_6440_" d="M71,203.4c-4.2,0-8.7-2.3-8.8-2.4l0.1-0.1c0.1,0,6.3,3.2,10.8,2.1c0,0,4.7-1.3,10.5-5.7
			c0.7-0.5,1.5-2.5,2.3-5.6l0.1,0c-0.6,2.2-1.4,5-2.4,5.7c-5.8,4.4-10.5,5.7-10.6,5.7C72.4,203.3,71.7,203.4,71,203.4z"/>
	</g>
	<path id="XMLID_5133_" d="M164,258.6H9V10.7h155V258.6z M11,256.6h151V12.7H11V256.6z"/>
	<g id="XMLID_5126_">
		<g id="XMLID_5130_">
			<path id="XMLID_5131_" class="st4" d="M17.9,22.7c-0.3-0.1-0.4-0.1-0.4-0.2c0-0.1,0.2-0.2,0.4-0.2c0.8-0.1,2.5-0.9,2.5-2.8
				c0-0.7-0.4-2.1-2.3-2.1c-1.2,0-2,0.7-2,1.9c0,0.2-0.1,0.2-0.1,0.2s-0.1,0-0.1-0.2c-0.1-0.5-0.1-1.2-0.1-1.6c0-0.1,0-0.2,0.2-0.3
				c0.5-0.2,1.4-0.5,2.6-0.5c2.6,0,3.1,1.6,3.1,2.4c0,1.6-1.6,2.6-2.1,2.9v0.1c1,0.2,2.6,1.2,2.6,3c0,2.2-1.9,4.1-4.7,4.1
				c-0.7,0-1.6-0.2-1.9-0.4c-0.2-0.1-0.3-0.3-0.3-0.4c0-0.7,0.1-1.6,0.1-2c0-0.2,0-0.2,0.1-0.2s0.1,0,0.1,0.2
				c0.1,1.2,0.7,2.1,2.4,2.1c1.6,0,2.9-0.9,2.9-2.8C20.8,23.6,18.9,22.9,17.9,22.7z"/>
		</g>
		<g id="XMLID_5127_">
			<path id="XMLID_5128_" class="st4" d="M155,246.6c0.3,0.1,0.4,0.1,0.4,0.2c0,0.1-0.2,0.2-0.4,0.2c-0.8,0.1-2.5,0.9-2.5,2.8
				c0,0.7,0.4,2.1,2.3,2.1c1.2,0,2-0.7,2-1.9c0-0.2,0.1-0.2,0.1-0.2c0,0,0.1,0,0.1,0.2c0.1,0.5,0.1,1.2,0.1,1.6c0,0.1,0,0.2-0.2,0.3
				c-0.5,0.2-1.4,0.5-2.6,0.5c-2.6,0-3.1-1.6-3.1-2.4c0-1.6,1.6-2.6,2.1-2.9v-0.1c-1-0.2-2.6-1.2-2.6-3c0-2.2,1.9-4.1,4.7-4.1
				c0.7,0,1.6,0.2,1.9,0.4c0.2,0.1,0.3,0.3,0.3,0.4c0,0.7-0.1,1.6-0.1,2c0,0.2,0,0.2-0.1,0.2c-0.1,0-0.1,0-0.1-0.2
				c-0.1-1.2-0.7-2.1-2.4-2.1c-1.6,0-2.9,0.9-2.9,2.8C152.1,245.7,154,246.4,155,246.6z"/>
		</g>
	</g>
	<g id="XMLID_3074_">
		<g id="XMLID_6220_">
			<path id="XMLID_3086_" class="st5" d="M34.1,201.7c-0.3-2.5,6-12.5,8.6-13.6c1-5,4.3-11.7,7.5-13.5c-0.6-2.4,4.5-12.3,7.1-13.8
				c0.4-3.8,6.1-12.9,7.9-13.5c0.6-3.1,4.6-12.3,7.1-13.1c0.1-2.5,6-13.9,7.6-14.5c1.7-0.6,3.3-6.9,3.3-6.9l9.9,5.6l9.8,5.8
				c0,0-4.6,4.6-4.3,6.4c0.3,1.8-6.6,12.6-8.7,13.9c0.6,2.5-5.3,10.6-7.8,12.7c0.4,1.9-4.6,11.4-7.7,13.7c0,3-6,12.4-8.3,13.1
				c0.1,3.7-4.1,9.9-7.9,13.3c0.3,2.7-5.1,13.2-7.4,14.2c-0.1,4.6-3,16.1-10,15.5c-1.8,0.4-8.1-3.4-8.1-3.4s-6.5-3.5-7-5.3
				C21.7,212.4,30.2,204.1,34.1,201.7z"/>
			<path id="XMLID_6217_" d="M40.5,227c-2.1,0-7.6-3.3-7.8-3.5c-0.3-0.1-6.5-3.5-7.1-5.3c-1-1.4-1.3-3.1-0.9-4.9
				c1-5.1,6.7-10,9.3-11.6c-0.2-2.7,5.9-12.3,8.6-13.6c1-4.9,4.3-11.6,7.5-13.5c-0.4-2.5,4.6-12.2,7.1-13.8c0.4-3.8,6-12.7,7.9-13.5
				c0.6-3.2,4.5-12.1,7.1-13.1c0.2-2.8,6.1-13.9,7.7-14.5c1.6-0.6,3.2-6.8,3.2-6.9l0-0.2l10,5.7l9.9,5.8l-0.1,0.1
				c0,0-4.6,4.6-4.3,6.2c0.3,1.7-6.4,12.4-8.7,14c0.4,2.7-5.3,10.5-7.8,12.7c0.3,2.1-4.7,11.4-7.7,13.7c-0.1,3-5.9,12.2-8.3,13.1
				c0,3.7-4.1,9.9-7.9,13.3c0.3,2.9-5,13.1-7.4,14.2c-0.1,3.8-1.9,10.8-5.4,13.9c-1.4,1.3-3,1.8-4.7,1.7C40.7,227,40.6,227,40.5,227
				z M83.4,113c-0.3,1-1.8,6.3-3.4,6.9c-1.5,0.6-7.5,11.9-7.6,14.4l0,0.1l-0.1,0c-2.5,0.8-6.4,9.9-7,13l0,0.1l-0.1,0
				c-1.8,0.6-7.5,9.8-7.8,13.4l0,0.1l-0.1,0c-2.6,1.5-7.6,11.3-7.1,13.6l0,0.1l-0.1,0c-3.2,1.8-6.5,8.5-7.5,13.4l0,0.1l-0.1,0
				c-2.5,1.1-8.8,11-8.5,13.4l0,0.1l-0.1,0c-3.2,2-8.3,7-9.2,11.5c-0.4,1.8-0.1,3.4,0.9,4.8l0,0c0.5,1.7,6.9,5.1,6.9,5.2
				c0.1,0,5.7,3.4,7.7,3.4c0.1,0,0.2,0,0.3,0l0,0l0,0c1.6,0.2,3.2-0.4,4.6-1.6c3.5-3.1,5.2-10,5.3-13.8l0-0.1l0.1,0
				c2.3-1,7.7-11.4,7.4-14.1l0-0.1l0,0c3.8-3.3,7.9-9.6,7.9-13.2l0-0.1l0.1,0c2.3-0.7,8.2-10,8.2-12.9v-0.1l0.1,0
				c3-2.2,8.1-11.7,7.7-13.5l0-0.1l0.1,0c2.3-2,8.3-10.1,7.7-12.6l0-0.1l0.1,0c2.1-1.3,8.9-12.1,8.7-13.8c-0.3-1.7,3.5-5.6,4.3-6.3
				l-9.7-5.7L83.4,113z"/>
		</g>
		<g id="XMLID_3117_">
			<g id="XMLID_6248_">
				<path id="XMLID_3123_" class="st2" d="M88.1,142.7c-0.6,1-13.4-7.3-13.2-7.6C75.1,134.8,88.7,141.8,88.1,142.7z"/>
				<path id="XMLID_6245_" d="M87.9,142.9L87.9,142.9c-1.8,0-12.8-7.2-13.1-7.7c0-0.1,0-0.1,0-0.2s0.1-0.1,0.1-0.1
					c0.7,0,12.3,5.9,13.2,7.5c0.1,0.1,0.1,0.2,0,0.3l0,0C88.2,142.9,88.1,142.9,87.9,142.9z M75.2,135.3c1.6,1.3,10.8,7.2,12.6,7.4
					c0.1,0,0.2,0,0.2,0c0,0,0,0-0.1-0.2C86.9,141.1,77.2,136,75.2,135.3z"/>
			</g>
			<g id="XMLID_6244_">
				<path id="XMLID_3122_" class="st2" d="M96.4,128.4c-0.6,1-13.4-7.3-13.2-7.6S96.9,127.4,96.4,128.4z"/>
				<path id="XMLID_6241_" d="M96.2,128.6c-0.4,0-1.5-0.4-4.6-2.2c-1.8-1-3.9-2.3-5.7-3.5c-2.9-1.9-2.9-2.1-2.8-2.2
					c0.1-0.1,0.2-0.3,3.3,1.3c2,1,4.2,2.2,5.9,3.2c4.5,2.6,4.3,3,4.2,3.2l0,0C96.5,128.5,96.4,128.6,96.2,128.6z M83.5,121
					c1.6,1.3,10.8,7.2,12.6,7.4c0.1,0,0.2,0,0.2,0c0,0,0,0-0.1-0.2C95.1,126.8,85.5,121.7,83.5,121z"/>
			</g>
			<g id="XMLID_6240_">
				<path id="XMLID_3121_" class="st2" d="M80.4,156.1c-0.6,1-13.4-7.3-13.2-7.6C67.4,148.1,80.9,155.1,80.4,156.1z"/>
				<path id="XMLID_6237_" d="M80.2,156.3c-1.8,0-12.8-7.2-13.1-7.7c0-0.1,0-0.1,0-0.2c0.1-0.1,0.1-0.3,3.3,1.3
					c1.9,1,4.2,2.2,5.9,3.2c4.6,2.7,4.3,3.1,4.2,3.3C80.4,156.2,80.3,156.3,80.2,156.3z M67.5,148.7c1.6,1.3,10.8,7.2,12.6,7.4
					c0.1,0,0.2,0,0.2,0c0,0,0,0-0.1-0.2C79.2,154.5,69.5,149.4,67.5,148.7z"/>
			</g>
			<g id="XMLID_6236_">
				<path id="XMLID_3120_" class="st2" d="M72.6,169.6c-0.6,1-13.4-7.3-13.2-7.6C59.6,161.6,73.2,168.6,72.6,169.6z"/>
				<path id="XMLID_6233_" d="M72.4,169.8c-0.4,0-1.5-0.4-4.6-2.2c-1.8-1-3.9-2.3-5.7-3.5c-2.9-1.9-2.9-2.1-2.8-2.2
					c0.1-0.1,0.1-0.3,3.3,1.3c1.9,1,4.2,2.2,5.9,3.2c4.6,2.6,4.3,3.1,4.2,3.3C72.7,169.7,72.6,169.8,72.4,169.8z M59.7,162.2
					c1.6,1.3,10.8,7.2,12.6,7.4c0.1,0,0.2,0,0.2,0c0,0,0,0-0.1-0.2C71.4,167.9,61.7,162.9,59.7,162.2z"/>
			</g>
			<g id="XMLID_6232_">
				<path id="XMLID_3119_" class="st2" d="M64.9,182.9c-0.6,1-13.4-7.3-13.2-7.6S65.5,181.9,64.9,182.9z"/>
				<path id="XMLID_6229_" d="M64.7,183.1L64.7,183.1c-1.8,0-12.8-7.2-13.1-7.7c0-0.1,0-0.1,0-0.2s0.1-0.1,0.1-0.1
					c0.7,0,12.3,5.9,13.2,7.5c0.1,0.1,0.1,0.2,0,0.3C65,183,64.9,183.1,64.7,183.1z M52.1,175.4c1.6,1.3,10.8,7.2,12.6,7.4
					c0.1,0,0.2,0,0.2,0c0,0,0,0-0.1-0.2C63.7,181.2,54,176.1,52.1,175.4z"/>
			</g>
			<g id="XMLID_6228_">
				<path id="XMLID_3118_" class="st2" d="M57.2,196.3c-0.6,1-13.4-7.3-13.2-7.6C44.2,188.3,57.7,195.3,57.2,196.3z"/>
				<path id="XMLID_6225_" d="M57,196.5L57,196.5c-1.8,0-12.8-7.2-13.1-7.7c0-0.1,0-0.1,0-0.2c0.1-0.1,0.1-0.3,3.3,1.3
					c1.9,1,4.2,2.2,5.9,3.2c4.6,2.7,4.3,3.1,4.2,3.3C57.2,196.4,57.1,196.5,57,196.5z M44.3,188.8c1.6,1.3,10.8,7.2,12.6,7.4
					c0.1,0,0.2,0,0.2,0c0,0,0,0-0.1-0.2C56,194.6,46.3,189.5,44.3,188.8z"/>
			</g>
			<g id="XMLID_6224_">
				<path id="XMLID_3125_" class="st2" d="M49.2,210.1c-0.6,1-13.4-7.3-13.2-7.6C36.2,202.2,49.7,209.2,49.2,210.1z"/>
				<path id="XMLID_6221_" d="M49,210.3L49,210.3c-1.8,0-12.8-7.2-13.1-7.7c0-0.1,0-0.1,0-0.2s0.1-0.1,0.1-0.1
					c0.7,0,12.3,5.9,13.2,7.5c0.1,0.1,0.1,0.2,0,0.3C49.2,210.3,49.1,210.3,49,210.3z M36.3,202.7c1.6,1.3,10.8,7.2,12.6,7.4
					c0.1,0,0.2,0,0.2,0c0,0,0,0-0.1-0.2C47.9,208.5,38.3,203.4,36.3,202.7z"/>
			</g>
		</g>
		<g id="XMLID_6252_">
			<path id="XMLID_3088_" class="st2" d="M112.3,72.8c-0.9-2.1-10.1-3.9-11.7-2.5c0,0,4-4.9,4.6-5.4s2.5-0.8,4.1-0.7
				c-0.5-1.1-2.9-1.2-4.6-0.3c-1.7,0.9-7,7-7,7s4.1-7.6,5.2-8.5c1.1-0.9,3.3-0.2,3.7-1.5s-1.5-3.9-2.3-3.9
				c-2.9,0.3-4.3,8.6-8.2,14.7c0,0,1.4-12.4,2.5-15.3c1.4-4.3,2.7-7.5,3.9-8.8c3.1-5.2,10.5-6.6,17.6-3.9
				c5.6,2.2,15.8,12.6,16.6,25.7c0.7,3.2,7.1,9.9,9.3,11.1c0,0,1.9-0.3,2.1,0.1c0.2,0.4,0.4,1.2-0.2,3.1c-0.1,0.3-0.3,0.7-0.6,1.2
				l0,0c0,0-2.1,0.4-3.3,0.2c-0.3-1.3-8.6-8.1-10.4-8.7c-1.8-0.6-6.5-0.8-7.7-1.6c-1.2-0.9-1.5-1.4-3.4-2.2s-7.6-0.1-7.6-0.1
				S113.8,72.6,112.3,72.8"/>
			<path id="XMLID_3094_" d="M144.9,85.3c-0.3,0-0.6,0-0.9-0.1l0,0l0,0c-0.3-1.3-8.6-8.1-10.4-8.7c-0.7-0.2-1.9-0.4-3.2-0.6
				c-1.9-0.3-3.8-0.5-4.6-1.1c-0.4-0.3-0.6-0.5-0.9-0.7c-0.6-0.5-1.1-0.9-2.5-1.5c-1.9-0.7-7.5-0.1-7.6-0.1c0,0-1.1,0-2.6,0.2l0-0.1
				l-0.1,0c-0.5-1.1-3.2-2.1-5.8-2.6c-2.8-0.6-5.1-0.5-5.8,0.1l-0.1-0.1c0.2-0.2,4-4.9,4.6-5.4c0.6-0.5,2.4-0.8,4-0.8l0,0
				c-0.2-0.3-0.5-0.5-0.8-0.6c-1-0.3-2.5-0.1-3.6,0.4c-1.7,0.9-6.9,6.9-7,7l-0.5,0.5l0.3-0.6c0.2-0.3,4.1-7.6,5.2-8.5
				c0.5-0.4,1.2-0.5,1.9-0.6c0.8-0.1,1.6-0.2,1.8-0.8c0.2-0.7-0.4-1.9-1-2.8c-0.5-0.6-0.9-0.9-1.2-0.9c0,0,0,0,0,0
				c-1.7,0.1-2.8,3-4.2,6.6c-1,2.6-2.2,5.5-3.9,8.1L96,72.2l0-0.3c0-0.1,1.5-12.5,2.5-15.4c1.5-4.6,2.8-7.6,3.9-8.9
				c1.5-2.5,4.1-4.2,7.4-4.9c3.2-0.7,6.8-0.3,10.3,1c5.6,2.2,15.9,12.7,16.6,25.8c0.7,3.1,7.1,9.9,9.2,11c0.4-0.1,2-0.2,2.2,0.2
				c0.2,0.5,0.4,1.3-0.2,3.2c-0.1,0.3-0.3,0.7-0.6,1.2l0,0l0,0C147.2,85.1,146,85.3,144.9,85.3z M144.1,85.1c1,0.2,2.9-0.1,3.2-0.2
				c0.3-0.4,0.4-0.8,0.5-1.1c0.6-1.8,0.4-2.6,0.2-3.1c-0.1-0.2-1.3-0.2-2-0.1l0,0l0,0c-2.2-1.1-8.6-7.9-9.3-11.1
				c-0.8-13.1-11-23.5-16.5-25.7c-7.2-2.8-14.4-1.2-17.5,3.8c-1.1,1.2-2.4,4.2-3.9,8.8c-0.9,2.6-2.2,13-2.4,15
				c1.5-2.5,2.7-5.3,3.7-7.8c1.5-3.6,2.6-6.5,4.4-6.7c0,0,0,0,0,0c0.5,0,1,0.7,1.3,1c0.7,0.9,1.3,2.2,1.1,3c-0.2,0.7-1,0.8-1.9,0.9
				c-0.7,0.1-1.4,0.2-1.9,0.6c-0.9,0.7-3.8,6-4.8,7.9c1.3-1.5,5.1-5.8,6.6-6.5c1.2-0.6,2.7-0.8,3.7-0.4c0.5,0.2,0.8,0.4,1,0.8
				l0.1,0.1l-0.1,0c0,0-0.1,0-0.1,0c-1.5,0-3.4,0.2-3.9,0.7c-0.5,0.4-3.4,3.9-4.3,5c1.1-0.5,3.6-0.3,5.5,0.1
				c2.3,0.5,5.2,1.4,5.8,2.6c1.5-0.2,2.5-0.2,2.5-0.2c0.2,0,5.8-0.7,7.7,0.1c1.4,0.5,1.9,1,2.5,1.5c0.3,0.2,0.5,0.4,0.9,0.7
				c0.7,0.5,2.6,0.8,4.5,1c1.3,0.2,2.5,0.3,3.2,0.6C135.4,77,143.6,83.7,144.1,85.1z"/>
		</g>
		<g id="XMLID_6256_">
			<path id="XMLID_3115_" class="st2" d="M135.3,88.9c0,0-0.7-0.2-0.9-0.4s-0.6-1.4-0.9-1.6c-0.3-0.1-2.2,0.7-2.5,0.5
				c-0.3-0.2-0.1-1.7-0.2-2s-3.8-1-4.2-1c-0.4,0.1-0.9,0.4-1,0.8c-0.1,0.4,0.2,1.4,0.7,1.7s2.2,0.5,2.3,0.6c0,0.1-1,1.5-1,1.6
				c0.1,0.1,4.6,0.4,4.8,0.5s-2.2,2.6-2.1,2.9c0.2,0.3,3.6-0.2,3.8-0.1c0.2,0.1-1,2.1-1.6,2.8c0.1,0.1,2.4-0.1,2.6-2.3
				c0,0,0-0.1,0-0.1c0,0,0.7,0.3,1.8,0.8c0.2,1.1-2.5,5.9-10.7,6.6c-0.8-0.9-0.2-3.4,0.4-6.5c0.1-1.5-2.3-4.1-2.4-3.1
				c-0.5,6.6-7.8,17.3-11.5,22.2c0.2,2.7-4.5,11.8-8.9,16.1c-2.3,3.3-5.2,7-6,6.5c-0.7-0.5,0.2-3.8,0.2-3.8s-3.7,0.4-3.9-0.8
				c0-0.4,0.7-1.6,0.7-1.6s-4.4,2.2-4.5,1.3s-0.1-4.4-0.1-4.4s-6.8,4.4-7.3,3.5c-0.5-0.9,0.1-3.8,0.1-3.8c1.6-1.4,5.9-9.6,6.2-10.8
				s0.4-2.7,0-2.8s-8,8.9-8,8.9l-0.1,0c-0.5,0-3,0-3.1-0.2c-0.1-0.3,0.3-1.6,0.8-2.9c0.5-1.3,9.2-16.8,11.3-24.9
				c1.5-9.7,5.1-26.2,8.4-36.6l0.1-0.2c-1,2.9-2.5,15.3-2.5,15.3c3.9-6.1,5.2-14.4,8.2-14.7c0.8,0,2.7,2.7,2.3,3.9s-2.7,0.5-3.7,1.5
				c-1.1,0.9-5.2,8.5-5.2,8.5s5.3-6.1,7-7c1.7-0.9,4.1-0.8,4.6,0.3c-1.6,0-3.5,0.2-4.1,0.7c-0.6,0.5-4.6,5.4-4.6,5.4
				c1.5-1.4,10.7,0.4,11.7,2.5l0.1,0c1.5-0.2,2.5-0.2,2.5-0.2s5.7-0.7,7.6,0.1c1.9,0.7,2.1,1.3,3.4,2.2c1.2,0.9,5.9,1.1,7.7,1.6
				s10.1,7.4,10.4,8.7c1.1,0.2,3.3-0.2,3.3-0.2l0,0.1c-1.3,2.2-4.3,5.6-7,7.5c-0.9,0.6-2.5,0.6-2.7,0.2c-0.2-0.4-0.2-1.6-0.2-1.6
				l-1.8-0.2C135.5,91,135.8,89.1,135.3,88.9c-0.1,0-0.2-0.1-0.3-0.1"/>
			<path id="XMLID_6253_" d="M97.9,135.8c-0.1,0-0.2,0-0.2-0.1c-0.7-0.5,0-3.2,0.2-3.8c-0.6,0.1-3.7,0.3-3.9-0.9
				c0-0.3,0.4-1,0.6-1.4c-0.9,0.4-3.6,1.7-4.2,1.4c-0.1,0-0.1-0.1-0.2-0.2c-0.1-0.8-0.1-3.6-0.1-4.3c-0.8,0.5-5.6,3.5-6.9,3.5
				c-0.1,0-0.1,0-0.2,0c-0.1,0-0.2-0.1-0.2-0.1c-0.5-0.9,0.1-3.8,0.1-3.9l0,0l0,0c1.6-1.4,5.8-9.6,6.1-10.7c0.3-1.1,0.3-2.3,0.1-2.6
				c0-0.1-0.1-0.1-0.1-0.1c-0.4,0.1-4.9,5.3-7.9,8.8l0,0l-0.1,0c-2,0-3.1,0-3.2-0.2c-0.1-0.3,0.4-1.8,0.8-2.9c0.1-0.3,0.7-1.4,1.5-3
				c2.7-5.1,8.2-15.7,9.8-22c1.4-9.4,5-26,8.4-36.6c0-0.1,0-0.1,0.1-0.2l0.1,0l0,0.2c0,0,0,0,0,0c-0.9,2.9-2.1,12.9-2.3,14.8
				c1.5-2.5,2.7-5.3,3.7-7.8c1.5-3.6,2.6-6.5,4.4-6.7c0,0,0,0,0,0c0.5,0,1,0.7,1.3,1c0.7,0.9,1.3,2.2,1.1,3c-0.2,0.7-1,0.8-1.9,0.9
				c-0.7,0.1-1.4,0.2-1.9,0.6c-0.9,0.8-3.8,6-4.8,7.9c1.3-1.5,5.1-5.8,6.6-6.5c1.2-0.6,2.7-0.8,3.7-0.4c0.5,0.2,0.8,0.4,1,0.8
				l0.1,0.1l-0.1,0c0,0-0.1,0-0.1,0c-1.5,0-3.4,0.2-3.9,0.7c-0.5,0.4-3.4,3.9-4.3,5c1.1-0.5,3.6-0.3,5.5,0.1
				c2.3,0.5,5.2,1.4,5.8,2.6l0,0c1.5-0.2,2.5-0.2,2.5-0.2c0.2,0,5.8-0.7,7.7,0.1c1.4,0.5,1.9,1,2.5,1.5c0.3,0.2,0.5,0.4,0.9,0.7
				c0.7,0.5,2.6,0.8,4.5,1c1.3,0.2,2.5,0.3,3.2,0.6c1.7,0.6,10,7.3,10.4,8.7c1.1,0.2,3.2-0.2,3.2-0.2l0.2,0l-0.1,0.2
				c-1.3,2.2-4.3,5.6-7,7.5c-0.7,0.4-1.9,0.6-2.5,0.4c-0.2,0-0.3-0.1-0.3-0.2c-0.2-0.4-0.2-1.3-0.2-1.5l-1.8-0.2l0-0.1
				c0.1-0.8,0.2-1.9-0.1-2c0,0,0,0-0.1,0c-0.1,0-0.1,0-0.2,0l0,0c-0.2-0.1-0.6-0.2-0.7-0.3c-0.1-0.1-0.2-0.3-0.4-0.7
				c-0.2-0.3-0.4-0.8-0.5-0.9c-0.1-0.1-0.7,0.1-1.2,0.3c-0.7,0.2-1.2,0.3-1.3,0.2c-0.2-0.1-0.2-0.5-0.2-1.2c0-0.4,0-0.7-0.1-0.8
				c-0.1-0.2-3.2-0.9-4-0.9c0,0-0.1,0-0.1,0c-0.4,0.1-0.8,0.4-0.9,0.8c-0.1,0.4,0.2,1.3,0.7,1.6c0.3,0.2,1.2,0.4,1.8,0.5
				c0.5,0.1,0.5,0.1,0.5,0.1c0,0.1,0,0.1-0.4,0.7c-0.2,0.3-0.5,0.7-0.5,0.9c0.3,0.1,1.4,0.2,2.3,0.2c1.6,0.2,2.3,0.2,2.4,0.3l0,0
				l0,0c0,0.1-0.2,0.4-0.9,1.2c-0.5,0.5-1.2,1.5-1.2,1.6c0.1,0.1,1.6,0,2.5-0.1c1-0.1,1.2-0.1,1.3,0c0,0,0,0,0.1,0.1
				c0.1,0.3-1,2-1.6,2.7c0.2,0,0.8-0.1,1.3-0.4c0.6-0.4,0.9-1,1-1.8c0,0,0-0.1,0-0.1l0-0.1l0.1,0c0,0,0.7,0.3,1.8,0.8l0,0l0,0
				c0.1,0.4-0.2,1.2-0.9,2.2c-0.9,1.2-3.7,4-9.9,4.5l0,0l0,0c-0.8-1-0.3-3.4,0.4-6.4l0-0.1c0.1-1.2-1.6-3.2-2.2-3.3
				c0,0-0.1,0-0.1,0.1c-0.5,6.4-7.4,16.7-11.5,22.2c0.2,2.8-4.6,11.9-8.9,16.2C99.8,134.7,98.5,135.8,97.9,135.8z M98.1,131.7l0,0.1
				c-0.3,0.9-0.8,3.4-0.3,3.8c0.4,0.3,1.7-0.7,5.9-6.5c4.3-4.2,9-13.4,8.9-16.1l0,0l0,0c4.1-5.6,11-15.8,11.4-22.2
				c0-0.3,0.2-0.3,0.3-0.3c0.6,0.1,2.4,2.1,2.3,3.4l0,0.1c-0.6,3-1.1,5.3-0.4,6.3c6.1-0.5,8.8-3.2,9.7-4.4c0.7-0.9,1-1.7,0.9-2
				c-0.8-0.3-1.4-0.6-1.7-0.7c-0.1,1.3-0.9,1.9-1.6,2.2c-0.5,0.2-1,0.2-1.1,0.2l-0.1,0l0-0.1c0.6-0.7,1.6-2.4,1.6-2.7
				c-0.1,0-0.7,0-1.2,0.1c-1.7,0.1-2.5,0.2-2.6,0c-0.1-0.2,0.3-0.7,1.2-1.8c0.3-0.4,0.8-0.9,0.8-1.1c-0.2-0.1-1.4-0.2-2.3-0.3
				c-2.3-0.2-2.4-0.2-2.4-0.3c0-0.1,0-0.2,0.6-1c0.1-0.2,0.3-0.4,0.3-0.5c-0.1,0-0.2,0-0.4-0.1c-0.6-0.1-1.5-0.3-1.8-0.5
				c-0.5-0.3-0.8-1.3-0.7-1.7c0.1-0.5,0.6-0.8,1-0.9c0.4-0.1,4.1,0.6,4.3,1c0.1,0.2,0.1,0.5,0.1,0.9c0,0.4,0,1,0.1,1
				c0.1,0.1,0.7-0.1,1.2-0.3c0.7-0.2,1.1-0.3,1.3-0.2c0.2,0.1,0.3,0.4,0.6,0.9c0.1,0.3,0.3,0.6,0.3,0.6c0.1,0.1,0.6,0.2,0.8,0.3
				c0,0,0.1,0,0.1,0c0.5,0.2,0.3,1.7,0.2,2.1l1.8,0.2l0,0.1c0,0,0,1.2,0.2,1.5c0,0.1,0.1,0.1,0.2,0.1c0.6,0.2,1.7,0,2.4-0.4
				c2.7-1.9,5.6-5.2,6.9-7.4c-0.5,0.1-2.2,0.4-3.1,0.2l0,0l0,0c-0.3-1.3-8.6-8.1-10.4-8.7c-0.7-0.2-1.9-0.4-3.2-0.6
				c-1.9-0.3-3.8-0.5-4.6-1.1c-0.4-0.3-0.6-0.5-0.9-0.7c-0.6-0.5-1.1-0.9-2.5-1.5c-1.9-0.7-7.5-0.1-7.6-0.1c0,0-1,0-2.5,0.2l-0.1,0
				l0-0.1c-0.5-1.1-3.2-2.1-5.8-2.6c-2.8-0.6-5.1-0.5-5.8,0.1l-0.1-0.1c0.2-0.2,4-4.9,4.6-5.4c0.6-0.5,2.4-0.8,4-0.8
				c-0.2-0.3-0.5-0.5-0.8-0.6c-1-0.3-2.5-0.1-3.6,0.4c-1.7,0.9-6.9,6.9-7,7l-0.5,0.5l0.3-0.6c0.2-0.3,4.1-7.6,5.2-8.5
				c0.5-0.4,1.2-0.5,1.9-0.6c0.8-0.1,1.6-0.2,1.8-0.8c0.2-0.7-0.4-1.9-1-2.8c-0.5-0.6-0.9-0.9-1.2-0.9c0,0,0,0,0,0
				c-1.7,0.1-2.8,3-4.2,6.6c-1,2.6-2.2,5.5-3.9,8.1L96,72.2l0-0.3c0-0.1,1-8.6,1.9-13.1c-3.2,10.6-6.5,25.8-7.8,34.6
				c-1.6,6.3-7.2,16.9-9.8,22c-0.8,1.5-1.4,2.6-1.5,2.9c-0.7,1.8-0.8,2.7-0.8,2.8c0.1,0.1,1.4,0.2,3,0.2l0.1,0
				c1.8-2.1,7.6-8.9,8-8.9c0,0,0,0,0,0c0.1,0,0.1,0,0.2,0.1c0.3,0.4,0.2,1.7-0.1,2.7c-0.3,1.1-4.6,9.3-6.2,10.8
				c-0.1,0.3-0.6,2.9-0.1,3.8c0,0,0.1,0.1,0.1,0.1c0.8,0.2,5-2.2,7.1-3.6l0.1-0.1l0,0.1c0,0,0,3.6,0.1,4.4c0,0,0,0.1,0.1,0.1
				c0.6,0.3,3.3-1,4.3-1.5l0.2-0.1l-0.1,0.2c-0.2,0.3-0.7,1.2-0.7,1.5c0.2,1.2,3.8,0.8,3.8,0.8L98.1,131.7z"/>
		</g>
		<path id="XMLID_3124_" d="M98.6,102c-0.3-0.9-0.6-1.7-0.9-2.6c-0.6-1.6-1.2-3.1-1.5-4.8c-0.5-2.2-0.2-5.7,0.6-8.8
			c0.7-2.8,2.2-6.6,5.3-9c3.3-2.6,7.4-3.7,10.2-4.1l0,0.1c-2.8,0.4-6.8,1.4-10.2,4c-5.3,4.2-6.6,13.7-5.8,17.7
			c0.3,1.7,0.9,3.2,1.5,4.8c0.3,0.8,0.6,1.7,0.9,2.6L98.6,102z"/>
		<g id="XMLID_3075_">
			<g id="XMLID_6216_">
				<path id="XMLID_3085_" class="st6" d="M133.1,71.4c-0.3,0.4-5.7-2.8-6-4.5c-0.3-1.7,1.8-4.9,2.4-4.5c1.9,1.6,3.1,6,3.1,6
					S133.3,71,133.1,71.4z"/>
				<path id="XMLID_6213_" d="M133,71.5c0,0-0.1,0-0.1,0c-1.1-0.2-5.6-3-5.9-4.5c-0.3-1.5,1.2-4,2-4.5c0.2-0.1,0.4-0.2,0.5-0.1
					c1.9,1.6,3.1,5.9,3.1,6.1c0.1,0.3,0.8,2.6,0.6,3h0C133.1,71.5,133,71.5,133,71.5z M129.3,62.5c-0.1,0-0.2,0.1-0.2,0.1
					c-0.8,0.5-2.2,3-2,4.4c0.2,1.3,3.7,3.6,5.3,4.3c0.4,0.2,0.5,0.1,0.6,0.1c0.2-0.3-0.3-1.9-0.6-2.9
					C132.4,68.4,131.2,64.1,129.3,62.5C129.4,62.5,129.4,62.5,129.3,62.5z"/>
			</g>
			<g id="XMLID_6212_">
				<path id="XMLID_3084_" class="st6" d="M120.7,66.3c-0.9-4.5-6.4-9-12.4-7C110.6,63.4,115.3,70.4,120.7,66.3z"/>
				<path id="XMLID_6209_" d="M117.4,67.6c-0.3,0-0.7,0-1-0.1c-2.7-0.6-5.4-3.3-8.1-8.2l0-0.1l0.1,0c2.6-0.8,5.4-0.5,7.8,0.9
					c2.4,1.4,4.2,3.8,4.7,6.2l0,0l0,0C119.7,67.2,118.5,67.6,117.4,67.6z M108.4,59.3c2.6,4.8,5.3,7.5,7.9,8
					c1.5,0.3,2.9-0.1,4.3-1.1c-0.5-2.4-2.3-4.7-4.7-6.1C113.7,58.8,111,58.5,108.4,59.3z"/>
			</g>
			<g id="XMLID_6208_">
				<path id="XMLID_3083_" class="st6" d="M81.2,121.3c0,0,7.6-8.9,8-8.9s0.3,1.6,0,2.8c-0.3,1.1-4.6,9.4-6.2,10.8c0,0-4.7,3-5.5,2
					c-0.2-0.4,0.7-2.6,1.2-3.6C79.3,123.4,81.2,121.3,81.2,121.3z"/>
				<path id="XMLID_6205_" d="M78.1,128.2c-0.3,0-0.5-0.1-0.6-0.2c-0.2-0.5,0.8-2.8,1.2-3.6c0.5-1,2.3-3,2.4-3.1
					c1.8-2.1,7.6-8.9,8-8.9c0,0,0,0,0,0c0.1,0,0.1,0,0.2,0.1c0.3,0.4,0.2,1.7-0.1,2.7c-0.3,1.1-4.6,9.4-6.2,10.8
					C82.7,126.3,79.6,128.2,78.1,128.2z M89.2,112.5c-0.4,0.1-4.9,5.3-7.9,8.8l0,0c0,0-1.9,2.1-2.4,3.1c-0.6,1.1-1.4,3.1-1.2,3.5
					c0.6,0.8,4.1-1.2,5.4-2c1.6-1.4,5.8-9.6,6.1-10.7C89.4,114.1,89.5,112.8,89.2,112.5C89.2,112.5,89.2,112.5,89.2,112.5z"/>
			</g>
			<g id="XMLID_6204_">
				<path id="XMLID_3082_" class="st6" d="M98.7,121.1c0,0-1.8,0.8-3.5,0.8c-1,1-5.1,4.4-5.1,4.4s4.4-2.4,7-3.9
					C97.7,122.1,98.2,121.6,98.7,121.1"/>
				<path id="XMLID_6201_" d="M90.2,126.3l-0.1-0.1c0,0,4.1-3.4,5.1-4.4l0,0l0,0c1.6,0,3.4-0.8,3.4-0.8l0,0.1l0.1,0.1
					c-0.6,0.6-1.1,1-1.6,1.3C94.6,124,90.3,126.3,90.2,126.3z M95.3,122c-0.8,0.8-3.3,2.9-4.5,3.9c1.3-0.7,4.3-2.4,6.3-3.6
					c0.4-0.2,0.8-0.6,1.3-1C97.8,121.5,96.5,121.9,95.3,122z"/>
			</g>
			<g id="XMLID_6200_">
				<path id="XMLID_3081_" class="st6" d="M116.6,94.9c0,0-13.7,13.7-15.6,16.6c-1.9,2.9-5.8,10.5-5.8,10.5s3.3-8.9,3.4-10.8
					c1.9-1.5,4.4-5.5,6-8.5C106.3,102.2,107.7,104.1,116.6,94.9z"/>
				<path id="XMLID_6197_" d="M95.4,121.9l-0.1-0.1c0-0.1,3.3-8.9,3.4-10.7l0,0l0,0c2.2-1.8,5.1-6.9,6-8.5l0,0l0,0
					c0.3-0.1,0.6-0.1,0.9-0.1c1.4,0,3.4-0.1,9.9-6.5c0.7-0.7,1.1-1.1,1.1-1.1l0.1,0.1c-0.4,0.4-0.8,0.8-1.1,1.1
					c-3.3,3.3-12.9,13.1-14.4,15.4C99.2,114.3,95.4,121.9,95.4,121.9z M98.7,111.2c0,1.5-2,7.1-2.9,9.6c1.2-2.2,3.8-7.2,5.2-9.4
					c1.3-1.9,7.6-8.4,11.7-12.7c-4.4,3.8-6,3.9-7.2,3.9c-0.3,0-0.6,0-0.9,0.1C103.8,104.3,101,109.3,98.7,111.2z"/>
			</g>
			<g id="XMLID_6196_">
				<path id="XMLID_3080_" class="st6" d="M111.2,88.6c-2.2,2.5-6.7,6.6-9.6,9c-0.4,1.2,0.3,2.1-0.3,3.1c-0.6,1-1.4,1.4-2.6,1.3
					l0-0.1c0.4,1.3,0.8,2.8,1,4.3c1.3-0.6,3.3-3.8,4-6.9c0.5-2.1,6.4-10,11.2-14.9"/>
				<path id="XMLID_6193_" d="M99.6,106.4l0-0.1c-0.1-1.3-0.4-2.7-0.9-4.2h0l0-0.1l0.1,0c0,0,0,0,0,0l0,0c0,0,0,0,0,0
					c0.1,0,0.1,0,0.2,0c1,0,1.8-0.4,2.3-1.3c0.3-0.5,0.2-1,0.2-1.6c-0.1-0.5-0.1-1,0.1-1.5l0,0l0,0c2.9-2.3,7.3-6.4,9.5-8.9
					c1.3-1.5,2.5-2.9,3.8-4.2l0.1,0.1c-1.2,1.2-2.5,2.6-3.7,4.1l0,0c0,0-0.1,0.1-0.1,0.1c-3.7,4.4-7,9.1-7.4,10.6
					C103,102.4,101.1,105.7,99.6,106.4L99.6,106.4z M98.8,102.1c0.5,1.5,0.8,2.8,0.9,4.1c1.3-0.7,3.1-3.7,3.9-6.8
					c0.3-1.4,2.9-5.1,6-8.9c-2.4,2.4-5.7,5.4-8,7.2c-0.2,0.5-0.1,1,0,1.4c0.1,0.6,0.1,1.1-0.2,1.7c-0.5,0.9-1.3,1.4-2.4,1.4
					C98.9,102.1,98.8,102.1,98.8,102.1z"/>
			</g>
			<g id="XMLID_6192_">
				<path id="XMLID_3079_" class="st6" d="M98.1,97.8c0,0-0.4-0.7-0.5-1.4c1.8-1.5,6-6.7,7.3-7.6c1.3-0.9,5.2-3,5.9-2.5
					C110.1,86.8,101.3,93.3,98.1,97.8z"/>
				<path id="XMLID_6189_" d="M98,97.9L98,97.8c0,0-0.4-0.7-0.5-1.5l0,0l0,0c0.9-0.7,2.3-2.4,3.8-4c1.5-1.7,2.9-3.2,3.6-3.7
					c1.1-0.8,5.2-3,5.9-2.5l0.1,0.1l-0.1,0.1c-0.1,0.1-0.4,0.3-0.9,0.7C107.4,88.9,100.8,94,98,97.9L98,97.9z M97.7,96.4
					c0.1,0.5,0.3,1,0.4,1.3c2.8-3.8,9.3-8.9,11.8-10.8c0.4-0.3,0.7-0.5,0.8-0.6c0,0-0.1,0-0.1,0c-1,0-4.2,1.6-5.5,2.6
					c-0.7,0.5-2.1,2-3.5,3.7C100,94,98.6,95.6,97.7,96.4z"/>
			</g>
			<g id="XMLID_6188_">
				<path id="XMLID_3077_" class="st6" d="M97,94.3c0,0-0.4-1.8-0.1-2.3c0.9-1.5,5.2-5.9,10-8.7c2.7-1.8,7.5-3.3,7.9-2.8
					C109.5,83.4,99.9,89.1,97,94.3z"/>
				<path id="XMLID_6185_" d="M97,94.5l0-0.2c0-0.1-0.5-1.9-0.1-2.4c1-1.6,5.3-6,10-8.7c2.6-1.7,7.6-3.3,8-2.8l0.1,0.1l-0.1,0
					c-9.7,5.4-15.7,10-17.8,13.9L97,94.5z M114.5,80.4c-1.1,0-5.1,1.3-7.6,2.9c-4.7,2.7-9,7.1-10,8.7c-0.3,0.4-0.1,1.5,0,2.1
					c2.2-3.8,8.2-8.4,17.7-13.7C114.6,80.4,114.6,80.4,114.5,80.4z"/>
			</g>
			<g id="XMLID_6184_">
				<path id="XMLID_3076_" class="st6" d="M135.3,88.9c0,0-0.7-0.2-0.9-0.4c-0.2-0.1-0.6-1.4-0.9-1.6c-0.3-0.1-2.2,0.7-2.5,0.5
					c-0.3-0.2-0.1-1.7-0.2-2c-0.2-0.3-3.8-1-4.2-1c-0.4,0.1-0.9,0.4-1,0.8c-0.1,0.4,0.2,1.4,0.7,1.7c0.5,0.3,2.2,0.5,2.3,0.6
					s-1,1.5-1,1.6c0.1,0.1,4.6,0.4,4.8,0.5c0.2,0.1-2.2,2.6-2.1,2.9s3.6-0.2,3.8-0.1c0.2,0.1-1,2.1-1.6,2.8c0.1,0.1,2.4-0.1,2.6-2.4
					l-0.4-2.1c0,0-1.5-1-1.2-1.6c0.2-0.6,1.2-0.6,1.7-0.4"/>
				<path id="XMLID_6181_" d="M132.6,95.5c-0.1,0-0.2,0-0.2,0l-0.1,0l0-0.1c0.6-0.7,1.6-2.4,1.6-2.7c-0.1,0-0.7,0-1.2,0.1
					c-1.7,0.1-2.5,0.2-2.6,0c-0.1-0.2,0.3-0.7,1.2-1.8c0.3-0.4,0.8-0.9,0.8-1.1c-0.2-0.1-1.4-0.2-2.3-0.3c-2.3-0.2-2.4-0.2-2.4-0.3
					c0-0.1,0-0.2,0.6-1c0.1-0.2,0.3-0.4,0.3-0.5c-0.1,0-0.2,0-0.4-0.1c-0.6-0.1-1.5-0.3-1.8-0.5c-0.5-0.3-0.8-1.3-0.7-1.7
					c0.1-0.5,0.6-0.8,1-0.9c0,0,0,0,0.1,0c0.6,0,4,0.7,4.2,1c0.1,0.2,0.1,0.5,0.1,0.9c0,0.4,0,1,0.1,1c0.1,0.1,0.7-0.1,1.2-0.3
					c0.7-0.2,1.1-0.3,1.3-0.2c0.2,0.1,0.3,0.4,0.6,0.9c0.1,0.3,0.3,0.6,0.3,0.6c0.2,0.1,0.7,0.3,0.9,0.4l0,0.1c0,0-0.1,0-0.2,0l0,0
					c-0.5-0.1-1.4-0.1-1.6,0.4c-0.2,0.5,0.8,1.2,1.2,1.5l0,0l0,0l0.4,2.1c-0.1,1.4-0.9,2-1.6,2.3C133.2,95.5,132.9,95.5,132.6,95.5z
					 M134,92.5c0.1,0,0.2,0,0.2,0c0,0,0,0,0.1,0.1c0.1,0.3-1,2-1.6,2.7c0.2,0,0.8-0.1,1.3-0.5c0.6-0.4,0.9-1.1,1-1.9l-0.4-2.1
					c-0.2-0.1-1.5-1-1.2-1.7c0.2-0.4,0.7-0.5,1.2-0.6c-0.1,0-0.2-0.1-0.2-0.1c-0.1-0.1-0.2-0.3-0.4-0.7c-0.2-0.3-0.4-0.8-0.5-0.9
					c-0.1-0.1-0.7,0.1-1.2,0.3c-0.7,0.2-1.2,0.3-1.3,0.2c-0.2-0.1-0.2-0.5-0.2-1.2c0-0.4,0-0.7-0.1-0.8c-0.1-0.2-3.6-1-4.1-0.9
					c-0.4,0.1-0.8,0.4-0.9,0.8c-0.1,0.4,0.2,1.3,0.7,1.6c0.3,0.2,1.2,0.4,1.8,0.5c0.5,0.1,0.5,0.1,0.5,0.1c0,0.1,0,0.1-0.4,0.7
					c-0.2,0.3-0.5,0.7-0.5,0.9c0.3,0.1,1.4,0.2,2.3,0.2c1.6,0.1,2.3,0.2,2.4,0.3l0,0l0,0c0,0.1-0.2,0.4-0.9,1.2
					c-0.5,0.5-1.2,1.5-1.2,1.6c0.1,0.1,1.6,0,2.5-0.1C133.5,92.5,133.8,92.5,134,92.5z"/>
			</g>
			<g id="XMLID_6180_">
				<path id="XMLID_3061_" class="st6" d="M129.3,61.8c-1.1,0.3-2.4,0.5-3.2,0.4s-3-1.5-3.1-1.4c-0.2,0,0.2,1.6,1.8,5.1
					c-5.7-8.1-12.6-13.1-18.2-13.8c2.3-1.9,11.1,1.2,15.2,6.9C123.2,60.1,128.9,60.6,129.3,61.8z"/>
				<path id="XMLID_3062_" d="M124.8,65.9c-5.5-7.8-12.5-13.1-18.2-13.8l-0.2,0l0.1-0.1c0.6-0.5,1.7-0.7,3.2-0.5
					c3.7,0.5,9.2,3.2,12.1,7.4c0.7,0.5,2.2,1,3.8,1.3c1.8,0.5,3.5,0.9,3.7,1.6l0,0.1l-0.1,0c-1,0.3-2.4,0.5-3.2,0.4
					c-0.4-0.1-1.4-0.6-2.1-1c-0.4-0.2-0.8-0.4-1-0.5c0,0.3,0.4,1.7,1.8,5L124.8,65.9z M106.8,52c5.6,0.8,12.3,5.8,17.7,13.2
					c-1.1-2.6-1.6-4.2-1.5-4.4c0,0,0-0.1,0.1-0.1c0.1,0,0.3,0.1,1.1,0.5c0.7,0.4,1.6,0.9,2.1,0.9c0.8,0.2,2.1-0.1,3-0.3
					c-0.3-0.6-2-1-3.6-1.4c-1.5-0.4-3.1-0.8-3.8-1.4l0,0c-3-4.1-8.4-6.9-12-7.3C108.4,51.5,107.4,51.6,106.8,52z"/>
			</g>
		</g>
		<path id="XMLID_3093_" d="M94.9,129.4l-0.1-0.1c0.7-0.8,2.3-2.4,4.3-4.2c4-3.8,9.5-9.1,10.7-11.9l0.1,0.1
			c-1.2,2.9-6.7,8.2-10.7,12C97.2,127,95.6,128.6,94.9,129.4z"/>
		<path id="XMLID_3091_" d="M98.8,121.1l-0.1-0.1c2.7-2.7,5.6-8.1,6.1-9.1c1.4-2.6,11.3-10.4,11.7-10.7l0.1,0.1
			c-0.1,0.1-10.2,8.1-11.6,10.7C104.4,113,101.5,118.3,98.8,121.1z"/>
		<path id="XMLID_3090_" d="M90.2,126.3l-0.1-0.1c2.1-1.7,4.9-10.2,4.1-14.2l0.1,0C95.2,116.1,92.4,124.6,90.2,126.3z"/>
		<path id="XMLID_6249_" d="M142,88.8c0-0.1-4.2-6.5-9-7.8c0,0-5.1-1.3-12.9-0.4c-0.9,0.1-2.7,1.5-5.2,4l-0.1-0.1
			c1.7-1.8,4.1-3.9,5.3-4.1c7.8-1,12.9,0.4,13,0.4c4.9,1.4,9,7.8,9.1,7.9L142,88.8z"/>
	</g>
	<g id="XMLID_2990_">
		<g id="XMLID_6439_">
			<path id="XMLID_3041_" class="st7" d="M138.8,201.7c0.3-2.5-6-12.5-8.6-13.6c-1-5-4.3-11.7-7.5-13.5c0.6-2.4-4.5-12.3-7.1-13.8
				c-0.4-3.8-6.1-12.9-7.9-13.5c-0.6-3.1-4.6-12.3-7.1-13.1c-0.1-2.5-6-13.9-7.6-14.5c-1.7-0.6-3.3-6.9-3.3-6.9l-9.9,5.6l-9.8,5.8
				c0,0,4.6,4.6,4.3,6.4c-0.3,1.8,6.6,12.6,8.7,13.9c-0.6,2.5,5.3,10.6,7.8,12.7c-0.4,1.9,4.6,11.4,7.7,13.7c0,3,6,12.4,8.3,13.1
				c-0.1,3.7,4.1,9.9,7.9,13.3c-0.3,2.7,5.1,13.2,7.4,14.2c0.1,4.6,3,16.1,10,15.5c1.8,0.4,8.1-3.4,8.1-3.4s6.5-3.5,7-5.3
				C151.2,212.4,142.7,204.1,138.8,201.7z"/>
			<path id="XMLID_6397_" d="M132.4,226.9c-0.1,0-0.2,0-0.3,0c-1.7,0.1-3.3-0.4-4.7-1.7c-3.5-3.1-5.3-10.1-5.4-13.9
				c-1.3-0.6-3.4-3.9-4.7-6.5c-1.4-2.6-2.9-6.2-2.7-7.8c-3.8-3.3-7.9-9.6-7.9-13.3c-2.4-0.8-8.3-10.1-8.3-13.1
				c-3.1-2.3-8.1-11.6-7.7-13.7c-2.4-2.1-8.2-10.1-7.8-12.7c-2.3-1.5-9-12.2-8.7-13.9c0.3-1.7-4.3-6.2-4.3-6.3l-0.1-0.1l0.1,0
				l9.8-5.8l10-5.6l0,0.1c0,0.1,1.7,6.3,3.3,6.9c1.6,0.6,7.5,11.8,7.7,14.5c2.5,0.9,6.5,10,7.1,13.1c2,0.7,7.5,9.7,7.9,13.5
				c2.6,1.6,7.6,11.3,7.1,13.8c3.2,1.8,6.5,8.6,7.5,13.5c1.4,0.6,3.8,3.8,5.3,6.2c1.6,2.5,3.4,5.9,3.2,7.3c3.2,2,8.3,7,9.3,11.6
				c0.4,1.9,0.1,3.5-0.9,4.9c-0.6,1.7-6.8,5.1-7,5.3C140,223.6,134.5,226.9,132.4,226.9z M132.1,226.7L132.1,226.7
				c1.7,0.4,8-3.4,8-3.4c0.1,0,6.5-3.5,7-5.2l0,0c1-1.4,1.3-3,0.9-4.8c-0.9-4.6-6.1-9.6-9.3-11.5l0,0l0,0c0.3-2.5-6-12.4-8.5-13.5
				l0,0l0,0c-1-4.9-4.3-11.7-7.5-13.5l0,0l0-0.1c0.6-2.3-4.5-12.2-7.1-13.7l0,0l0,0c-0.4-3.7-6.1-12.9-7.9-13.5l0,0l0,0
				c-0.6-3-4.6-12.2-7-13l-0.1,0l0-0.1c-0.1-2.6-6-13.8-7.6-14.4c-1.6-0.6-3.1-6.1-3.3-6.9l-9.8,5.5l-9.7,5.7
				c0.6,0.6,4.6,4.7,4.3,6.4c-0.3,1.7,6.4,12.4,8.7,13.8l0,0l0,0.1c-0.6,2.5,5.4,10.6,7.7,12.6l0,0l0,0c-0.4,1.9,4.7,11.4,7.7,13.6
				l0,0v0c0,3,6,12.3,8.3,13l0.1,0l0,0.1c-0.1,3.7,4.1,9.9,7.9,13.3l0,0l0,0c-0.3,2.7,5.1,13.2,7.4,14.1l0,0l0,0
				c0.1,3.7,1.9,10.7,5.3,13.8C128.9,226.3,130.4,226.9,132.1,226.7L132.1,226.7z"/>
		</g>
		<g id="XMLID_3020_">
			<g id="XMLID_6396_">
				<path id="XMLID_3039_" class="st2" d="M84.8,142.7c0.6,1,13.4-7.3,13.2-7.6C97.8,134.8,84.3,141.8,84.8,142.7z"/>
				<path id="XMLID_6393_" d="M85,142.9c-0.2,0-0.3,0-0.3-0.1c-0.1-0.2-0.4-0.6,4.2-3.2c1.8-1,4-2.2,5.9-3.2
					c3.2-1.6,3.2-1.4,3.3-1.3c0,0,0,0.1,0,0.2C97.8,135.8,86.8,142.9,85,142.9z M84.9,142.7c0,0,0,0,0.2,0c1.8-0.2,11-6,12.6-7.4
					c-2,0.7-11.6,5.8-12.7,7.2C84.9,142.6,84.9,142.7,84.9,142.7z"/>
			</g>
			<g id="XMLID_6392_">
				<path id="XMLID_3036_" class="st2" d="M76.5,128.4c0.6,1,13.4-7.3,13.2-7.6S76,127.4,76.5,128.4z"/>
				<path id="XMLID_6363_" d="M76.7,128.6c-0.2,0-0.3-0.1-0.3-0.1c-0.1-0.2-0.4-0.6,4.2-3.2c1.8-1,4-2.2,5.9-3.2
					c3.2-1.6,3.2-1.4,3.3-1.3c0.1,0.1,0.1,0.3-2.8,2.2c-1.8,1.2-4,2.5-5.7,3.5C78.3,128.2,77.1,128.6,76.7,128.6z M76.6,128.3
					c0,0,0,0,0.2,0c1.8-0.2,11-6,12.6-7.4c-2,0.7-11.6,5.8-12.7,7.2C76.6,128.3,76.6,128.3,76.6,128.3z"/>
			</g>
			<g id="XMLID_6362_">
				<path id="XMLID_3034_" class="st2" d="M92.5,156.1c0.6,1,13.4-7.3,13.2-7.6C105.5,148.1,92,155.1,92.5,156.1z"/>
				<path id="XMLID_6332_" d="M92.7,156.3L92.7,156.3c-0.2,0-0.3,0-0.3-0.1l0,0c-0.1-0.2-0.4-0.6,4.2-3.3c1.8-1,4-2.2,5.9-3.2
					c3.1-1.6,3.2-1.4,3.3-1.3c0,0,0,0.1,0,0.2C105.5,149.1,94.5,156.3,92.7,156.3z M92.6,156c0,0,0,0,0.2,0c1.8-0.2,11-6,12.6-7.4
					c-2,0.7-11.6,5.8-12.7,7.2C92.6,156,92.6,156,92.6,156z"/>
			</g>
			<g id="XMLID_6331_">
				<path id="XMLID_3026_" class="st2" d="M100.3,169.6c0.6,1,13.4-7.3,13.2-7.6C113.3,161.6,99.8,168.6,100.3,169.6z"/>
				<path id="XMLID_6328_" d="M100.5,169.8c-0.2,0-0.3-0.1-0.3-0.1c-0.1-0.2-0.4-0.6,4.2-3.3c1.8-1,4-2.2,5.9-3.2
					c3.1-1.6,3.2-1.4,3.3-1.3c0.1,0.1,0.1,0.3-2.8,2.2c-1.8,1.2-4,2.5-5.7,3.5C102,169.4,100.9,169.8,100.5,169.8z M100.4,169.5
					c0,0,0,0,0.2,0c1.8-0.2,11-6,12.6-7.4c-2,0.7-11.6,5.8-12.7,7.2C100.4,169.5,100.4,169.5,100.4,169.5z"/>
			</g>
			<g id="XMLID_6327_">
				<path id="XMLID_3025_" class="st2" d="M108,182.9c0.6,1,13.4-7.3,13.2-7.6S107.4,181.9,108,182.9z"/>
				<path id="XMLID_6324_" d="M108.2,183.1c-0.2,0-0.3,0-0.3-0.1s0-0.2,0-0.3c0.9-1.6,12.6-7.5,13.2-7.5l0,0c0.1,0,0.1,0,0.1,0.1
					s0,0.1,0,0.2C120.9,175.9,110,183.1,108.2,183.1z M108.1,182.8c0,0,0,0,0.2,0c1.8-0.2,11-6,12.6-7.4c-2,0.7-11.6,5.8-12.7,7.2
					C108.1,182.7,108.1,182.8,108.1,182.8z"/>
			</g>
			<g id="XMLID_6323_">
				<path id="XMLID_3024_" class="st2" d="M115.7,196.3c0.6,1,13.4-7.3,13.2-7.6C128.7,188.3,115.2,195.3,115.7,196.3z"/>
				<path id="XMLID_6320_" d="M115.9,196.5c-0.2,0-0.3,0-0.3-0.1c-0.1-0.2-0.4-0.6,4.2-3.3c1.8-1,4-2.2,5.9-3.2
					c3.1-1.6,3.2-1.4,3.3-1.3c0,0,0,0.1,0,0.2C128.7,189.3,117.7,196.5,115.9,196.5z M115.8,196.2c0,0,0,0,0.2,0
					c1.8-0.2,11-6,12.6-7.4c-2,0.7-11.6,5.8-12.7,7.2C115.8,196.2,115.8,196.2,115.8,196.2z"/>
			</g>
			<g id="XMLID_6319_">
				<path id="XMLID_3015_" class="st2" d="M123.7,210.1c0.6,1,13.4-7.3,13.2-7.6C136.7,202.2,123.2,209.2,123.7,210.1z"/>
				<path id="XMLID_6316_" d="M123.9,210.3c-0.2,0-0.3,0-0.3-0.1s0-0.2,0-0.3c0.9-1.6,12.6-7.5,13.2-7.5l0,0c0.1,0,0.1,0,0.1,0.1
					s0,0.1,0,0.2C136.7,203.2,125.8,210.3,123.9,210.3z M123.8,210.1c0,0,0,0,0.2,0c1.8-0.2,11-6,12.6-7.4c-2,0.7-11.6,5.8-12.7,7.2
					C123.8,210,123.8,210.1,123.8,210.1z"/>
			</g>
		</g>
		<g id="XMLID_6315_">
			<path id="XMLID_3018_" class="st2" d="M60.6,72.8c0.9-2.1,10.1-3.9,11.7-2.5c0,0-4-4.9-4.6-5.4s-2.5-0.8-4.1-0.7
				c0.5-1.1,2.9-1.2,4.6-0.3c1.7,0.9,7,7,7,7s-4.1-7.6-5.2-8.5s-3.3-0.2-3.7-1.5s1.5-3.9,2.3-3.9c2.9,0.3,4.3,8.6,8.2,14.7
				c0,0-1.4-12.4-2.5-15.3c-1.4-4.3-2.7-7.5-3.9-8.8c-3.1-5.2-10.5-6.6-17.6-3.9C47.3,46,37,56.4,36.3,69.5
				c-0.7,3.2-7.1,9.9-9.3,11.1c0,0-1.9-0.3-2.1,0.1c-0.2,0.4-0.4,1.2,0.2,3.1c0.1,0.3,0.3,0.7,0.6,1.2l0,0c0,0,2.1,0.4,3.3,0.2
				c0.3-1.3,8.6-8.1,10.4-8.7c1.8-0.6,6.5-0.8,7.7-1.6c1.2-0.9,1.5-1.4,3.4-2.2c1.9-0.7,7.6-0.1,7.6-0.1S59.1,72.6,60.6,72.8"/>
			<path id="XMLID_6312_" d="M28.1,85.3c-1.1,0-2.4-0.3-2.4-0.3l0,0l0,0c-0.3-0.5-0.5-0.9-0.6-1.2c-0.6-1.9-0.4-2.7-0.2-3.2
				c0.2-0.4,1.8-0.2,2.2-0.2c2.1-1.1,8.6-7.9,9.2-11C37,56.4,47.3,45.9,52.8,43.7c3.5-1.3,7.1-1.7,10.3-1c3.2,0.7,5.8,2.4,7.4,4.9
				c1.1,1.2,2.4,4.2,3.9,8.9c1,2.9,2.4,15.2,2.5,15.4l0,0.3l-0.2-0.3c-1.6-2.5-2.8-5.5-3.9-8.1c-1.4-3.6-2.6-6.4-4.3-6.6
				c0,0,0,0,0,0c-0.3,0-0.7,0.4-1.2,0.9c-0.7,0.9-1.3,2.1-1,2.8c0.2,0.6,0.9,0.7,1.8,0.8c0.7,0.1,1.4,0.2,1.9,0.6
				c1.1,0.9,5,8.2,5.2,8.5l0.3,0.6L75.2,71c-0.1-0.1-5.3-6.1-7-7c-1.1-0.6-2.6-0.8-3.6-0.4c-0.4,0.1-0.7,0.3-0.8,0.6l0,0
				c1.6,0,3.4,0.3,4,0.8c0.6,0.5,4.5,5.2,4.6,5.4l-0.1,0.1c-0.7-0.6-3-0.6-5.8-0.1c-2.5,0.5-5.3,1.5-5.8,2.6l-0.1,0l0,0.1
				c-1.6-0.2-2.6-0.2-2.6-0.2c-0.1,0-5.8-0.7-7.6,0.1c-1.3,0.5-1.8,0.9-2.5,1.5c-0.3,0.2-0.5,0.4-0.9,0.7c-0.7,0.5-2.7,0.8-4.6,1.1
				c-1.3,0.2-2.5,0.3-3.2,0.6c-1.7,0.6-10.1,7.3-10.4,8.7l0,0l0,0C28.7,85.3,28.4,85.3,28.1,85.3z M25.7,84.9
				c0.3,0.1,2.1,0.4,3.2,0.2c0.5-1.5,8.7-8.1,10.4-8.7c0.7-0.2,1.9-0.4,3.2-0.6c1.9-0.3,3.8-0.5,4.5-1c0.4-0.3,0.6-0.5,0.9-0.7
				c0.6-0.5,1.2-1,2.5-1.5c1.9-0.7,7.4-0.1,7.7-0.1c0,0,0,0,0,0c0,0,1,0,2.5,0.2c0.6-1.2,3.5-2.1,5.8-2.6c1.9-0.4,4.4-0.6,5.5-0.1
				c-0.9-1.1-3.8-4.6-4.3-5c-0.6-0.5-2.4-0.7-3.9-0.7c0,0-0.1,0-0.1,0l-0.1,0l0.1-0.1c0.2-0.3,0.5-0.6,1-0.8c1-0.3,2.5-0.2,3.7,0.4
				c1.4,0.7,5.2,5,6.6,6.5c-1-1.8-3.9-7.1-4.8-7.9c-0.5-0.4-1.2-0.5-1.9-0.6c-0.9-0.1-1.7-0.2-1.9-0.9c-0.2-0.8,0.4-2.1,1.1-3
				c0.2-0.3,0.8-1,1.3-1c0,0,0,0,0,0c1.8,0.2,2.9,3,4.4,6.7c1,2.5,2.1,5.3,3.7,7.8c-0.2-2-1.5-12.4-2.4-15c-1.5-4.6-2.8-7.6-3.9-8.8
				c-3.1-5.1-10.3-6.7-17.5-3.8C47.4,46,37.1,56.5,36.4,69.5c-0.7,3.2-7.1,10-9.3,11.1l0,0l0,0c-0.8-0.1-1.9-0.2-2,0.1
				c-0.2,0.4-0.4,1.3,0.2,3.1C25.2,84.1,25.4,84.5,25.7,84.9z"/>
		</g>
		<g id="XMLID_6311_">
			<path id="XMLID_3004_" class="st2" d="M37.6,88.9c0,0,0.7-0.2,0.9-0.4s0.6-1.4,0.9-1.6c0.3-0.1,2.2,0.7,2.5,0.5s0.1-1.7,0.2-2
				c0.2-0.3,3.8-1,4.2-1c0.4,0.1,0.9,0.4,1,0.8c0.1,0.4-0.2,1.4-0.7,1.7c-0.5,0.3-2.2,0.5-2.3,0.6c0,0.1,1,1.5,1,1.6
				c-0.1,0.1-4.6,0.4-4.8,0.5c-0.2,0.1,2.2,2.6,2.1,2.9c-0.2,0.3-3.6-0.2-3.8-0.1c-0.2,0.1,1,2.1,1.6,2.8c-0.1,0.1-2.4-0.1-2.6-2.3
				c0,0,0-0.1,0-0.1c0,0-0.7,0.3-1.8,0.8c-0.2,1.1,2.5,5.9,10.7,6.6c0.8-0.9,0.2-3.4-0.4-6.5c-0.1-1.5,2.3-4.1,2.4-3.1
				c0.5,6.6,7.8,17.3,11.5,22.2c-0.2,2.7,4.5,11.8,8.9,16.1c2.3,3.3,5.2,7,6,6.5c0.7-0.5-0.2-3.8-0.2-3.8s3.7,0.4,3.9-0.8
				c0-0.4-0.7-1.6-0.7-1.6s4.4,2.2,4.5,1.3s0.1-4.4,0.1-4.4s6.8,4.4,7.3,3.5c0.5-0.9-0.1-3.8-0.1-3.8c-1.6-1.4-5.9-9.6-6.2-10.8
				c-0.3-1.1-0.4-2.7,0-2.8c0.4,0,8,8.9,8,8.9l0.1,0c0.5,0,3,0,3.1-0.2c0.1-0.3-0.3-1.6-0.8-2.9c-0.5-1.3-9.2-16.8-11.3-24.9
				c-1.5-9.7-5.1-26.2-8.4-36.6l-0.1-0.2c1,2.9,2.5,15.3,2.5,15.3c-3.9-6.1-5.2-14.4-8.2-14.7c-0.8,0-2.7,2.7-2.3,3.9
				s2.7,0.5,3.7,1.5s5.2,8.5,5.2,8.5s-5.3-6.1-7-7s-4.1-0.8-4.6,0.3c1.6,0,3.5,0.2,4.1,0.7c0.6,0.5,4.6,5.4,4.6,5.4
				c-1.5-1.4-10.7,0.4-11.7,2.5l-0.1,0C59,72.6,58,72.6,58,72.6s-5.7-0.7-7.6,0.1c-1.9,0.7-2.1,1.3-3.4,2.2
				c-1.2,0.9-5.9,1.1-7.7,1.6s-10.1,7.4-10.4,8.7c-1.1,0.2-3.3-0.2-3.3-0.2l0,0.1c1.3,2.2,4.3,5.6,7,7.5c0.9,0.6,2.5,0.6,2.7,0.2
				c0.2-0.4,0.2-1.6,0.2-1.6l1.8-0.2C37.4,91,37.1,89.1,37.6,88.9c0.1,0,0.2-0.1,0.3-0.1"/>
			<path id="XMLID_3007_" d="M75,135.8c-0.5,0-1.9-1-5.9-6.6c-4.3-4.2-9-13.4-8.9-16.2c-4.1-5.6-11-15.9-11.5-22.2
				c0-0.1-0.1-0.1-0.1-0.1c-0.6,0-2.2,2-2.2,3.3l0,0.1c0.6,3,1.1,5.4,0.4,6.4l0,0l0,0c-6.2-0.5-9-3.3-9.9-4.5c-0.7-1-1-1.8-0.9-2.2
				l0,0l0,0c1-0.5,1.8-0.8,1.8-0.8l0.1,0l0,0.1c0,0,0,0,0,0.1c0.1,0.8,0.4,1.4,1,1.8c0.5,0.3,1.1,0.4,1.3,0.4
				c-0.6-0.7-1.6-2.5-1.6-2.7c0,0,0-0.1,0.1-0.1c0.1,0,0.3,0,1.3,0c0.8,0.1,2.3,0.2,2.5,0c0-0.2-0.7-1.1-1.2-1.6
				c-0.7-0.9-0.9-1.1-0.9-1.2l0,0l0,0c0.1-0.1,0.8-0.1,2.4-0.3c0.9-0.1,2-0.2,2.3-0.2c-0.1-0.2-0.4-0.6-0.5-0.9
				c-0.4-0.7-0.4-0.7-0.4-0.7c0,0,0,0,0.5-0.1c0.6-0.1,1.5-0.3,1.8-0.5c0.4-0.3,0.8-1.1,0.7-1.6c-0.1-0.4-0.5-0.7-0.9-0.8
				c-0.5-0.1-4,0.7-4.1,0.9c-0.1,0.1-0.1,0.5-0.1,0.8c0,0.7,0,1.1-0.2,1.2c-0.2,0.1-0.6,0-1.3-0.2c-0.5-0.1-1.1-0.3-1.2-0.3
				c-0.1,0.1-0.3,0.5-0.5,0.9c-0.2,0.4-0.3,0.6-0.4,0.7c-0.1,0.1-0.5,0.2-0.7,0.3l0,0c-0.1,0-0.1,0-0.2,0c0,0-0.1,0-0.1,0
				c-0.3,0.1-0.2,1.3-0.1,2l0,0.1l-0.1,0l-1.7,0.2c0,0.3-0.1,1.2-0.2,1.5c0,0.1-0.2,0.2-0.3,0.2c-0.6,0.2-1.8,0-2.5-0.4
				c-2.7-1.9-5.7-5.3-7-7.5l-0.1-0.2l0.2,0c0,0,2.1,0.4,3.2,0.2c0.5-1.5,8.7-8.1,10.4-8.7c0.7-0.2,1.9-0.4,3.2-0.6
				c1.9-0.3,3.8-0.5,4.5-1c0.4-0.3,0.6-0.5,0.9-0.7c0.6-0.5,1.2-1,2.5-1.5c1.9-0.7,7.4-0.1,7.7-0.1c0,0,0,0,0,0c0,0,1,0,2.5,0.2l0,0
				c0.6-1.2,3.5-2.1,5.8-2.6c1.9-0.4,4.4-0.6,5.5-0.1c-0.9-1.1-3.8-4.6-4.3-5c-0.6-0.5-2.4-0.7-3.9-0.7c0,0-0.1,0-0.1,0l-0.1,0
				l0.1-0.1c0.2-0.3,0.5-0.6,1-0.8c1-0.3,2.5-0.2,3.7,0.4c1.4,0.7,5.2,5,6.6,6.5c-1-1.8-3.9-7.1-4.8-7.9c-0.5-0.4-1.2-0.5-1.9-0.6
				c-0.9-0.1-1.7-0.2-1.9-0.9c-0.2-0.8,0.4-2.1,1.1-3c0.5-0.6,1-1,1.3-1c0,0,0,0,0,0c1.8,0.2,2.9,3,4.4,6.7c1,2.5,2.1,5.3,3.7,7.8
				c-0.2-1.9-1.5-11.9-2.3-14.8c0,0,0,0,0,0l0-0.2l0.1,0c0,0.1,0,0.1,0.1,0.2c3.4,10.6,7,27.2,8.4,36.6c1.6,6.2,7.2,16.8,9.8,21.9
				c0.8,1.6,1.4,2.7,1.5,3c0.4,1.2,0.9,2.6,0.8,2.9c-0.1,0.2-1.1,0.3-3.2,0.2l-0.1,0l0,0c-3-3.5-7.5-8.7-7.9-8.8c0,0,0,0-0.1,0.1
				c-0.2,0.3-0.2,1.5,0.1,2.6c0.3,1.1,4.6,9.3,6.1,10.7l0,0l0,0c0,0.1,0.6,2.9,0.1,3.9c0,0.1-0.1,0.1-0.2,0.1c0,0-0.1,0-0.2,0
				c-1.3,0-6.1-3-6.9-3.5c0,0.7,0,3.6-0.1,4.3c0,0.1-0.1,0.2-0.2,0.2c-0.6,0.3-3.4-0.9-4.2-1.4c0.2,0.4,0.6,1.1,0.6,1.4
				c-0.2,1.2-3.2,1-3.9,0.9c0.2,0.6,0.9,3.3,0.2,3.8C75.1,135.7,75.1,135.8,75,135.8z M48.6,90.5c0.1,0,0.2,0,0.3,0.3
				c0.5,6.4,7.4,16.6,11.4,22.2l0,0l0,0c-0.2,2.7,4.5,11.9,8.8,16.1c4.2,5.8,5.5,6.8,5.9,6.5c0.6-0.4,0-2.9-0.3-3.8l0-0.1l0.1,0
				c0,0,3.6,0.4,3.8-0.8c0-0.3-0.5-1.2-0.7-1.5l-0.1-0.2l0.2,0.1c1,0.5,3.8,1.8,4.3,1.5c0,0,0.1-0.1,0.1-0.1
				c0.2-0.8,0.1-4.4,0.1-4.4l0-0.1l0.1,0.1c2,1.3,5.9,3.6,6.9,3.6c0,0,0.1,0,0.1,0c0.1,0,0.1,0,0.1-0.1c0.4-0.8-0.1-3.5-0.1-3.8
				c-1.6-1.4-5.9-9.7-6.2-10.8c-0.3-1-0.4-2.4-0.1-2.7c0.1-0.1,0.1-0.1,0.2-0.1c0,0,0,0,0,0c0.4,0,6.2,6.7,8,8.9l0.1,0
				c1.7,0,2.9,0,3-0.2c0.1-0.2-0.1-1-0.8-2.8c-0.1-0.3-0.7-1.4-1.5-2.9c-2.7-5.1-8.2-15.7-9.8-22c-1.3-8.8-4.6-24-7.8-34.6
				c0.9,4.6,1.9,13,1.9,13.1l0,0.3l-0.2-0.3c-1.6-2.5-2.8-5.5-3.9-8.1c-1.4-3.6-2.6-6.4-4.2-6.6c0,0,0,0,0,0c-0.3,0-0.7,0.4-1.2,0.9
				c-0.7,0.9-1.3,2.1-1,2.8c0.2,0.6,0.9,0.7,1.8,0.8c0.7,0.1,1.4,0.2,1.9,0.6c1.1,0.9,5,8.2,5.2,8.5l0.3,0.6L75.2,71
				c-0.1-0.1-5.3-6.1-7-7c-1.1-0.6-2.6-0.8-3.6-0.4c-0.4,0.1-0.7,0.3-0.8,0.6c1.6,0,3.4,0.3,4,0.8c0.6,0.5,4.5,5.2,4.6,5.4l-0.1,0.1
				c-0.7-0.6-3-0.6-5.8-0.1c-2.5,0.5-5.3,1.5-5.8,2.6l0,0.1l-0.1,0c-1.5-0.2-2.5-0.2-2.5-0.2c-0.1,0-5.8-0.7-7.6,0.1
				c-1.3,0.5-1.8,0.9-2.5,1.5c-0.3,0.2-0.5,0.4-0.9,0.7c-0.7,0.5-2.7,0.8-4.6,1.1c-1.3,0.2-2.5,0.3-3.2,0.6
				c-1.7,0.6-10.1,7.3-10.4,8.7l0,0l0,0c-1,0.2-2.6-0.1-3.1-0.2c1.3,2.2,4.2,5.5,6.9,7.4c0.7,0.4,1.8,0.6,2.4,0.4
				c0.1,0,0.2-0.1,0.2-0.1c0.2-0.4,0.2-1.5,0.2-1.5l0-0.1l0.1,0l1.7-0.2c-0.1-0.5-0.2-2,0.2-2.1c0,0,0.1,0,0.1,0
				c0.2-0.1,0.7-0.2,0.8-0.3c0.1,0,0.2-0.4,0.3-0.6c0.2-0.5,0.4-0.9,0.6-0.9c0.2-0.1,0.6,0,1.3,0.2c0.5,0.1,1.1,0.3,1.2,0.3
				c0.1-0.1,0.1-0.7,0.1-1c0-0.4,0-0.8,0.1-0.9c0.2-0.4,3.6-1,4.2-1c0,0,0.1,0,0.1,0c0.4,0.1,0.9,0.4,1,0.9c0.1,0.5-0.3,1.4-0.7,1.7
				c-0.3,0.2-1.2,0.4-1.8,0.5c-0.1,0-0.3,0.1-0.4,0.1c0.1,0.1,0.2,0.3,0.3,0.5c0.6,0.9,0.6,1,0.6,1c0,0.1-0.1,0.1-2.4,0.3
				c-0.9,0.1-2.1,0.2-2.3,0.3c0.1,0.2,0.5,0.7,0.8,1.1c0.9,1.1,1.3,1.6,1.2,1.8c-0.1,0.2-0.9,0.2-2.6,0c-0.5,0-1.1-0.1-1.2-0.1
				c0,0.3,1,2,1.6,2.7l0,0.1l-0.1,0c-0.1,0.1-0.6,0-1.1-0.2c-0.7-0.3-1.5-0.9-1.6-2.2c-0.2,0.1-0.8,0.4-1.7,0.7c0,0.4,0.2,1.2,0.9,2
				c0.9,1.2,3.6,3.9,9.7,4.4c0.7-0.9,0.2-3.3-0.4-6.3l0-0.1C46.2,92.6,48,90.5,48.6,90.5C48.6,90.5,48.6,90.5,48.6,90.5z"/>
		</g>
		<path id="XMLID_3013_" d="M74.3,102l-0.1,0c0.3-0.9,0.6-1.7,0.9-2.6c0.6-1.6,1.2-3.1,1.5-4.8c0.8-4-0.5-13.5-5.8-17.7
			c-3.3-2.6-7.4-3.6-10.2-4l0-0.1c2.8,0.4,6.9,1.5,10.2,4.1c3.1,2.4,4.6,6.2,5.3,9c0.8,3.1,1,6.6,0.6,8.8c-0.3,1.7-0.9,3.2-1.5,4.8
			C74.9,100.3,74.6,101.1,74.3,102z"/>
		<g id="XMLID_2991_">
			<g id="XMLID_5370_">
				<path id="XMLID_2995_" class="st8" d="M61.7,88.6c2.2,2.5,6.7,6.6,9.6,9c0.4,1.2-0.3,2.1,0.3,3.1c0.6,1,1.4,1.4,2.6,1.3l0-0.1
					c-0.4,1.3-0.8,2.8-1,4.3c-1.3-0.6-3.3-3.8-4-6.9c-0.5-2.1-6.4-10-11.2-14.9"/>
				<path id="XMLID_5367_" d="M73.3,106.4L73.3,106.4c-1.5-0.7-3.4-4-4.1-7c-0.5-2.1-6.4-10-11.2-14.8l0.1-0.1
					c1.2,1.3,2.5,2.7,3.8,4.2c2.2,2.5,6.7,6.6,9.5,8.9l0,0l0,0c0.2,0.5,0.1,1,0.1,1.5c-0.1,0.5-0.1,1.1,0.2,1.6
					c0.5,0.9,1.3,1.3,2.3,1.3c0.1,0,0.1,0,0.2,0c0,0,0,0,0,0l0,0c0,0,0,0,0,0v0l0.1,0l0,0.1c-0.5,1.5-0.8,2.9-0.9,4.2L73.3,106.4z
					 M63.3,90.4c3.1,3.8,5.7,7.6,6,8.9c0.7,3.1,2.6,6.1,3.9,6.8c0.1-1.3,0.4-2.6,0.9-4.1c0,0-0.1,0-0.1,0c-1.1,0-1.9-0.5-2.4-1.4
					c-0.3-0.6-0.3-1.1-0.2-1.7c0.1-0.5,0.1-0.9,0-1.4C69,95.8,65.7,92.8,63.3,90.4z"/>
			</g>
			<g id="XMLID_5390_">
				<path id="XMLID_3002_" class="st8" d="M39.8,71.4c0.3,0.4,5.7-2.8,6-4.5c0.3-1.7-1.8-4.9-2.4-4.5c-1.9,1.6-3.1,6-3.1,6
					S39.6,71,39.8,71.4z"/>
				<path id="XMLID_5387_" d="M39.9,71.5c-0.1,0-0.1,0-0.2-0.1c-0.3-0.5,0.5-2.8,0.6-3c0-0.2,1.2-4.4,3.1-6c0.1-0.1,0.3-0.1,0.5,0.1
					c0.8,0.5,2.3,3.1,2,4.5c-0.3,1.6-4.8,4.4-5.9,4.5C40,71.5,40,71.5,39.9,71.5z M39.9,71.4c0,0,0.1,0,0.6-0.1
					c1.6-0.7,5.1-3,5.3-4.3c0.3-1.4-1.2-3.9-2-4.4c-0.1-0.1-0.2-0.1-0.3-0.1c-1.8,1.6-3,5.9-3,6C40.1,69.5,39.7,71.1,39.9,71.4z"/>
			</g>
			<g id="XMLID_5386_">
				<path id="XMLID_3000_" class="st8" d="M52.2,66.3c0.9-4.5,6.4-9,12.4-7C62.3,63.4,57.6,70.4,52.2,66.3z"/>
				<path id="XMLID_5383_" d="M55.5,67.6c-1.2,0-2.3-0.4-3.4-1.3l0,0l0,0c0.5-2.4,2.3-4.8,4.7-6.2c2.4-1.4,5.2-1.7,7.8-0.9l0.1,0
					l0,0.1c-2.7,4.9-5.4,7.6-8.1,8.2C56.2,67.6,55.9,67.6,55.5,67.6z M52.3,66.3c1.4,1,2.8,1.4,4.3,1.1c2.6-0.6,5.3-3.3,7.9-8
					c-2.6-0.8-5.2-0.5-7.6,0.9C54.6,61.6,52.8,63.9,52.3,66.3z"/>
			</g>
			<g id="XMLID_5382_">
				<path id="XMLID_2999_" class="st8" d="M91.7,121.3c0,0-7.6-8.9-8-8.9s-0.3,1.6,0,2.8c0.3,1.1,4.6,9.4,6.2,10.8c0,0,4.7,3,5.5,2
					c0.2-0.4-0.7-2.6-1.2-3.6C93.6,123.4,91.7,121.3,91.7,121.3z"/>
				<path id="XMLID_5379_" d="M94.8,128.2c-1.4,0-4.5-1.9-5-2.2c-1.6-1.4-5.9-9.7-6.2-10.8c-0.3-1-0.4-2.4-0.1-2.7
					c0.1-0.1,0.1-0.1,0.2-0.1c0,0,0,0,0,0c0.4,0,6.3,6.8,8,8.9c0.1,0.1,1.9,2.1,2.4,3.1c0.4,0.8,1.5,3.1,1.2,3.6
					C95.3,128.1,95.1,128.2,94.8,128.2z M83.7,112.5C83.7,112.5,83.7,112.5,83.7,112.5c-0.3,0.4-0.2,1.6,0.1,2.7
					c0.3,1.1,4.6,9.3,6.1,10.7c1.3,0.8,4.8,2.8,5.4,2c0.2-0.4-0.6-2.4-1.2-3.5c-0.5-1-2.4-3-2.4-3.1l0,0
					C88.7,117.8,84.1,112.6,83.7,112.5z"/>
			</g>
			<g id="XMLID_5378_">
				<path id="XMLID_2998_" class="st8" d="M74.2,121.1c0,0,1.8,0.8,3.5,0.8c1,1,5.1,4.4,5.1,4.4s-4.4-2.4-7-3.9
					C75.2,122.1,74.7,121.6,74.2,121.1"/>
				<path id="XMLID_5375_" d="M82.7,126.3c0,0-4.4-2.4-7-3.9c-0.5-0.3-1-0.7-1.6-1.3l0.1-0.1l0-0.1c0,0,1.8,0.8,3.4,0.8l0,0l0,0
					c1,1,5.1,4.3,5.1,4.4L82.7,126.3z M74.5,121.3c0.5,0.4,0.9,0.8,1.3,1c2,1.2,5,2.8,6.3,3.6c-1.2-1-3.7-3.1-4.5-3.9
					C76.4,121.9,75.1,121.5,74.5,121.3z"/>
			</g>
			<g id="XMLID_5374_">
				<path id="XMLID_2997_" class="st8" d="M56.3,94.9c0,0,13.7,13.7,15.6,16.6c1.9,2.9,5.8,10.5,5.8,10.5s-3.3-8.9-3.4-10.8
					c-1.9-1.5-4.4-5.5-6-8.5C66.6,102.2,65.2,104.1,56.3,94.9z"/>
				<path id="XMLID_5371_" d="M77.6,121.9c0-0.1-3.9-7.6-5.8-10.5c-1.6-2.3-11.1-12.1-14.4-15.4c-0.4-0.4-0.7-0.7-1.1-1.1l0.1-0.1
					c0,0,0,0,0,0l0,0c0,0,0.4,0.5,1.1,1.1c6.5,6.4,8.5,6.5,9.9,6.5c0.3,0,0.6,0,0.9,0.1l0,0l0,0c0.8,1.5,3.7,6.7,6,8.5l0,0l0,0
					c0,1.8,3.3,10.6,3.4,10.7L77.6,121.9z M60.2,98.7c4.2,4.3,10.5,10.8,11.7,12.7c1.5,2.2,4.1,7.1,5.2,9.4
					c-0.9-2.5-2.9-8.1-2.9-9.6c-2.2-1.8-5.1-6.9-6-8.5c-0.3-0.1-0.6-0.1-0.9-0.1C66.2,102.6,64.5,102.5,60.2,98.7z"/>
			</g>
			<g id="XMLID_5366_">
				<path id="XMLID_2994_" class="st8" d="M74.9,97.8c0,0,0.4-0.7,0.5-1.4c-1.8-1.5-6-6.7-7.3-7.6c-1.3-0.9-5.2-3-5.9-2.5
					C62.8,86.8,71.6,93.3,74.9,97.8z"/>
				<path id="XMLID_5363_" d="M74.9,97.9L74.9,97.9c-2.8-3.9-9.4-9-11.9-11c-0.5-0.4-0.8-0.6-0.9-0.7L62,86.2l0.1-0.1
					c0.8-0.5,4.8,1.7,5.9,2.5c0.7,0.5,2.1,2,3.6,3.7c1.4,1.6,2.9,3.2,3.8,4l0,0l0,0c-0.1,0.7-0.5,1.4-0.5,1.5L74.9,97.9z M62.3,86.2
					c0.2,0.1,0.4,0.3,0.8,0.6c2.5,1.9,9,7,11.8,10.8c0.1-0.2,0.3-0.7,0.4-1.3c-0.9-0.7-2.3-2.4-3.7-3.9c-1.5-1.6-2.9-3.2-3.5-3.7
					C66.5,87.7,63.1,86,62.3,86.2z"/>
			</g>
			<g id="XMLID_5355_">
				<path id="XMLID_2993_" class="st8" d="M75.9,94.3c0,0,0.4-1.8,0.1-2.3c-0.9-1.5-5.2-5.9-10-8.7c-2.7-1.8-7.5-3.3-7.9-2.8
					C63.4,83.4,73,89.1,75.9,94.3z"/>
				<path id="XMLID_5349_" d="M76,94.5l-0.1-0.2c-2.2-3.8-8.2-8.5-17.8-13.9l-0.1,0l0.1-0.1c0.5-0.5,5.4,1.1,8,2.8
					c4.7,2.8,9,7.1,10,8.7c0.4,0.6,0,2.3-0.1,2.4L76,94.5z M58.2,80.4c9.5,5.3,15.4,9.9,17.7,13.7c0.1-0.5,0.3-1.7,0-2.1
					c-1-1.6-5.3-5.9-10-8.7C63.4,81.6,59,80.2,58.2,80.4z"/>
			</g>
			<g id="XMLID_5347_">
				<path id="XMLID_2992_" class="st8" d="M37.6,88.9c0,0,0.7-0.2,0.9-0.4c0.2-0.1,0.6-1.4,0.9-1.6c0.3-0.1,2.2,0.7,2.5,0.5
					c0.3-0.2,0.1-1.7,0.2-2c0.2-0.3,3.8-1,4.2-1s0.9,0.4,1,0.8c0.1,0.4-0.2,1.4-0.7,1.7c-0.5,0.3-2.2,0.5-2.3,0.6c0,0.1,1,1.5,1,1.6
					c-0.1,0.1-4.6,0.4-4.8,0.5c-0.2,0.1,2.2,2.6,2.1,2.9s-3.6-0.2-3.8-0.1s1,2.1,1.6,2.8c-0.1,0.1-2.4-0.1-2.6-2.4l0.4-2.1
					c0,0,1.5-1,1.2-1.6c-0.2-0.6-1.2-0.6-1.7-0.4"/>
				<path id="XMLID_5341_" d="M40.3,95.5c-0.2,0-0.6-0.1-0.9-0.2c-0.7-0.3-1.5-0.9-1.6-2.3l0.4-2.2l0,0c0.4-0.3,1.4-1,1.2-1.5
					c-0.2-0.5-1.1-0.5-1.6-0.4l0,0c-0.1,0-0.1,0-0.2,0l0-0.1c0.2-0.1,0.8-0.3,0.9-0.4c0.1,0,0.2-0.4,0.3-0.6
					c0.2-0.5,0.4-0.8,0.6-0.9c0.2-0.1,0.6,0,1.3,0.2c0.5,0.1,1.1,0.3,1.2,0.3c0.1-0.1,0.1-0.7,0.1-1c0-0.4,0-0.8,0.1-0.9
					c0.2-0.4,3.6-1,4.2-1c0,0,0.1,0,0.1,0c0.4,0.1,0.9,0.4,1,0.9c0.1,0.5-0.3,1.4-0.7,1.7c-0.3,0.2-1.2,0.4-1.8,0.5
					c-0.1,0-0.3,0.1-0.4,0.1c0.1,0.1,0.2,0.3,0.3,0.5c0.6,0.9,0.6,1,0.6,1c0,0.1-0.1,0.1-2.4,0.3c-0.9,0.1-2.1,0.2-2.3,0.3
					c0.1,0.2,0.5,0.7,0.8,1.1c0.9,1.1,1.3,1.6,1.2,1.8c-0.1,0.2-0.9,0.2-2.6,0c-0.5,0-1.1-0.1-1.2-0.1c0,0.3,1,2,1.6,2.7l0,0.1
					l-0.1,0C40.4,95.5,40.4,95.5,40.3,95.5z M38.3,90.9L37.9,93c0.1,0.8,0.4,1.5,1,1.9c0.5,0.4,1.1,0.5,1.3,0.5
					c-0.6-0.7-1.6-2.5-1.6-2.7c0,0,0-0.1,0.1-0.1c0.1,0,0.3,0,1.3,0c0.8,0.1,2.3,0.2,2.5,0c0-0.2-0.7-1.1-1.2-1.6
					c-0.7-0.9-0.9-1.1-0.9-1.2l0,0l0,0c0.1-0.1,0.9-0.1,2.4-0.3c0.9-0.1,2.1-0.2,2.3-0.2c-0.1-0.2-0.4-0.6-0.5-0.9
					c-0.4-0.7-0.4-0.7-0.4-0.7c0,0,0,0,0.5-0.1c0.6-0.1,1.5-0.3,1.8-0.5c0.4-0.3,0.8-1.1,0.7-1.6c-0.1-0.4-0.5-0.7-0.9-0.8
					c-0.5-0.1-4,0.7-4.1,0.9c-0.1,0.1-0.1,0.5-0.1,0.8c0,0.7,0,1.1-0.2,1.2c-0.2,0.1-0.6,0-1.3-0.2c-0.5-0.1-1.1-0.3-1.2-0.3
					c-0.1,0.1-0.3,0.5-0.5,0.9c-0.2,0.4-0.3,0.6-0.4,0.7c0,0-0.1,0.1-0.2,0.1c0.5,0,1,0.1,1.2,0.6C39.8,89.9,38.5,90.8,38.3,90.9z"
					/>
			</g>
			<g id="XMLID_5340_">
				<path id="XMLID_5334_" class="st8" d="M43.6,61.8c1.1,0.3,2.4,0.5,3.2,0.4s3-1.5,3.1-1.4c0.2,0-0.2,1.6-1.8,5.1
					c5.7-8.1,12.6-13.1,18.2-13.8c-2.3-1.9-11.1,1.2-15.2,6.9C49.7,60.1,44,60.6,43.6,61.8z"/>
				<path id="XMLID_5336_" d="M48.2,65.9L48,65.8c1.5-3.3,1.9-4.7,1.8-5c-0.1,0-0.6,0.3-1,0.5c-0.7,0.4-1.7,0.9-2.1,1
					c-0.8,0.2-2.2-0.1-3.2-0.4l-0.1,0l0-0.1c0.2-0.7,1.9-1.1,3.7-1.6c1.5-0.4,3.1-0.8,3.8-1.3c3-4.2,8.5-6.9,12.1-7.4
					c1.4-0.2,2.5,0,3.2,0.5l0.1,0.1l-0.2,0C60.6,52.8,53.7,58.1,48.2,65.9z M49.9,60.7C49.9,60.7,49.9,60.7,49.9,60.7
					C50,60.7,50,60.7,49.9,60.7c0.2,0.3-0.3,2-1.4,4.5c5.4-7.4,12.1-12.4,17.7-13.2c-0.6-0.4-1.6-0.5-2.9-0.3
					c-3.6,0.5-9.1,3.2-12,7.3l0,0c-0.7,0.6-2.3,1-3.8,1.4c-1.6,0.4-3.3,0.9-3.6,1.4c1,0.3,2.3,0.5,3,0.3c0.4-0.1,1.3-0.6,2.1-0.9
					C49.6,60.8,49.8,60.7,49.9,60.7z"/>
			</g>
		</g>
		<path id="XMLID_3012_" d="M34.5,93.1c-0.6,0-1.4-0.2-1.9-0.5c-2.8-1.9-5.8-5.3-7.1-7.6l0.1-0.1c1.3,2.2,4.3,5.6,7,7.5
			c0.7,0.4,1.8,0.6,2.4,0.4c0.1,0,0.2-0.1,0.2-0.1c0.2-0.4,0.2-1.5,0.2-1.5l0-0.1l0.1,0l1.7-0.2c-0.1-0.5-0.2-2,0.2-2.1
			c0,0,0.1,0,0.2,0l0,0.1c-0.1,0-0.1,0-0.2,0c-0.3,0.1-0.2,1.3-0.1,2l0,0.1l-0.1,0l-1.7,0.2c0,0.3-0.1,1.2-0.2,1.5
			c0,0.1-0.2,0.2-0.3,0.2C35,93.1,34.8,93.1,34.5,93.1z"/>
		<path id="XMLID_3011_" d="M75,135.8c-0.5,0-1.9-1-5.9-6.6c-4.3-4.2-9-13.4-8.9-16.2c-4.1-5.6-11-15.9-11.5-22.2
			c0-0.1-0.1-0.1-0.1-0.1c-0.6,0-2.2,2-2.2,3.3l0,0.1c0.6,3,1.1,5.4,0.4,6.4l0,0l0,0c-6.2-0.5-9-3.3-9.9-4.5c-0.7-1-1-1.8-0.9-2.2
			l0,0l0,0c1-0.5,1.8-0.8,1.8-0.8l0.1,0.1c0,0-0.7,0.3-1.7,0.7c0,0.4,0.2,1.2,0.9,2c0.9,1.2,3.6,3.9,9.7,4.4
			c0.7-0.9,0.2-3.3-0.4-6.3l0-0.1c-0.1-1.3,1.7-3.4,2.3-3.4c0,0,0,0,0,0c0.1,0,0.2,0.1,0.3,0.3c0.5,6.4,7.4,16.6,11.4,22.2l0,0l0,0
			c-0.2,2.7,4.5,11.9,8.8,16.1c4.2,5.8,5.5,6.7,5.9,6.5c0.6-0.4,0-2.9-0.3-3.8l0-0.1l0.1,0c0,0,3.6,0.4,3.8-0.8
			c0-0.3-0.5-1.2-0.7-1.5l-0.1-0.2l0.2,0.1c1,0.5,3.8,1.8,4.3,1.5c0,0,0.1-0.1,0.1-0.1c0.1-0.8,0.1-4.4,0.1-4.4l0-0.1l0.1,0.1
			c2.1,1.3,6.2,3.8,7.1,3.6c0.1,0,0.1,0,0.1-0.1c0.5-0.9-0.1-3.7-0.1-3.8l0.1,0c0,0.1,0.6,2.9,0.1,3.9c0,0.1-0.1,0.1-0.2,0.1
			c0,0-0.1,0-0.2,0c-1.3,0-6.1-3-6.9-3.5c0,0.7,0,3.6-0.1,4.3c0,0.1-0.1,0.2-0.2,0.2c-0.7,0.3-3.4-0.9-4.2-1.4
			c0.2,0.4,0.6,1.1,0.6,1.4c-0.2,1.2-3.2,1-3.9,0.9c0.2,0.6,0.9,3.3,0.2,3.8C75.1,135.7,75.1,135.8,75,135.8z"/>
		<path id="XMLID_3010_" d="M78,129.4c-0.7-0.8-2.3-2.4-4.2-4.2c-4-3.8-9.5-9.1-10.7-12l0.1-0.1c1.2,2.9,6.7,8.1,10.7,11.9
			c1.9,1.8,3.6,3.4,4.3,4.2L78,129.4z"/>
		<path id="XMLID_3008_" d="M74.1,121.1c-2.7-2.8-5.6-8.1-6.1-9.1c-1.4-2.6-11.5-10.6-11.6-10.7l0.1-0.1c0.4,0.3,10.3,8.1,11.7,10.7
			c0.6,1,3.5,6.4,6.1,9.1L74.1,121.1z"/>
		<path id="XMLID_3005_" d="M82.7,126.3c-2.2-1.7-4.9-10.3-4.2-14.3l0.1,0c-0.8,4,2,12.5,4.1,14.2L82.7,126.3z"/>
		<path id="XMLID_3055_" d="M30.9,88.8l-0.1-0.1c0-0.1,4.2-6.5,9.1-7.9c0.1,0,5.2-1.3,13-0.4c1.2,0.1,3.6,2.3,5.3,4.1L58,84.6
			c-2.5-2.5-4.3-3.9-5.2-4c-7.8-1-12.9,0.4-12.9,0.4C35.1,82.3,30.9,88.7,30.9,88.8z"/>
	</g>
</g>
</svg>
