<?xml version="1.0" encoding="utf-8"?>
<!-- Generator: Adobe Illustrator 19.0.0, SVG Export Plug-In . SVG Version: 6.00 Build 0)  -->
<svg version="1.1" id="Capa_1" xmlns="http://www.w3.org/2000/svg" xmlns:xlink="http://www.w3.org/1999/xlink" x="0px" y="0px"
	 viewBox="0 0 172.9 269.3" style="enable-background:new 0 0 172.9 269.3;" xml:space="preserve">
<style type="text/css">
	.st0{fill:#FFFFFF;}
	.st1{fill:#010202;}
	.st2{fill:#83CCF1;}
	.st3{fill:#CBE7E9;}
	.st4{fill:#FAEA26;}
	.st5{fill:#EA572D;}
</style>
<rect id="XMLID_6335_" x="0" y="0" class="st0" width="172.9" height="269.3"/>
<g id="XMLID_6043_">
	<path id="XMLID_4844_" class="st1" d="M164,258.6H9V10.7h155V258.6z M11,256.6h151V12.7H11V256.6z"/>
	<g id="XMLID_4837_">
		<g id="XMLID_4841_">
			<path id="XMLID_4842_" d="M17.9,22.7c-0.3-0.1-0.4-0.1-0.4-0.2s0.2-0.2,0.4-0.2c0.8-0.1,2.5-0.9,2.5-2.8c0-0.7-0.4-2.1-2.3-2.1
				c-1.2,0-2,0.7-2,1.9c0,0.2-0.1,0.2-0.1,0.2s-0.1,0-0.1-0.2c-0.1-0.5-0.1-1.2-0.1-1.6c0-0.1,0-0.2,0.2-0.3
				c0.5-0.2,1.4-0.5,2.6-0.5c2.6,0,3.1,1.6,3.1,2.4c0,1.6-1.6,2.6-2.1,2.9v0.1c1,0.2,2.6,1.2,2.6,3c0,2.2-1.9,4.1-4.7,4.1
				c-0.7,0-1.6-0.2-1.9-0.4c-0.2-0.1-0.3-0.3-0.3-0.4c0-0.7,0.1-1.6,0.1-2c0-0.2,0-0.2,0.1-0.2s0.1,0,0.1,0.2
				c0.1,1.2,0.7,2.1,2.4,2.1c1.6,0,2.9-0.9,2.9-2.8C20.8,23.6,18.9,22.9,17.9,22.7z"/>
		</g>
		<g id="XMLID_4838_">
			<path id="XMLID_4839_" d="M155,246.6c0.3,0.1,0.4,0.1,0.4,0.2c0,0.1-0.2,0.2-0.4,0.2c-0.8,0.1-2.5,0.9-2.5,2.8
				c0,0.7,0.4,2.1,2.3,2.1c1.2,0,2-0.7,2-1.9c0-0.2,0.1-0.2,0.1-0.2c0,0,0.1,0,0.1,0.2c0.1,0.5,0.1,1.2,0.1,1.6c0,0.1,0,0.2-0.2,0.3
				c-0.5,0.2-1.4,0.5-2.6,0.5c-2.6,0-3.1-1.6-3.1-2.4c0-1.6,1.6-2.6,2.1-2.9v-0.1c-1-0.2-2.6-1.2-2.6-3c0-2.2,1.9-4.1,4.7-4.1
				c0.7,0,1.6,0.2,1.9,0.4c0.2,0.1,0.3,0.3,0.3,0.4c0,0.7-0.1,1.6-0.1,2c0,0.2,0,0.2-0.1,0.2c-0.1,0-0.1,0-0.1-0.2
				c-0.1-1.2-0.7-2.1-2.4-2.1c-1.6,0-2.9,0.9-2.9,2.8C152.1,245.7,154,246.4,155,246.6z"/>
		</g>
	</g>
	<g id="XMLID_4472_">
		<g id="XMLID_4489_">
			<path id="XMLID_4491_" class="st2" d="M137.2,190.4c0,0-0.7-4.9-0.3-5.2c3.7-2.9,1.4,1.7,3.2,0c1.8-1.8,2.5-5.9,2.1-8.5l-2.2,1.7
				c0,0-2.2,1.7-2.4-1.2l0.3-4.5c0.3-2.7,1.3-2.1,4.2-0.9c-0.5-2.6-1.5-3.6-3-8.2c-1.5-4.6,1-3.8,3.6-1c2.7,2.9,4.9,6.8,4.9,6.8
				c0.6-3-0.5-12.6-2.2-17.5l-0.7,1.9c-0.7,1.9-1.5,2.3-2.6,0c-1.2-2.3-2.8-8-3.4-10.8c-0.3-1.6,0.4-2.3,1.7-2.1
				c1.2,0.2,2.7,1.2,2.7,1.2c-4-7.5-4.5-15.6-5-22.5c-0.5-6.9-0.6-20.1,0.4-26.2c1-6.1,1.7-22,1.3-32.8c-0.1-14.3-5.4-26.2-6.8-33
				v158.8L137.2,190.4z"/>
			<path id="XMLID_4490_" class="st3" d="M118.3,169.3c0,0,2.3-3.9,4.9-6.8c2.7-2.9,5.1-3.6,3.6,1c-1.5,4.6-2.5,5.7-3,8.2
				c2.9-1.2,3.9-1.8,4.2,0.9l0.3,4.5c-0.2,2.9-2.4,1.2-2.4,1.2l-2.2-1.7c-0.5,2.6,0.2,6.8,2.1,8.5c1.8,1.8-0.4-2.9,3.2,0
				c0.4,0.3-0.3,5.2-0.3,5.2l4.2-4V27.6c-1.5,6.8-6.7,18.6-6.8,33c-0.4,10.8,0.2,26.7,1.3,32.8c1,6.1,0.9,19.3,0.4,26.2
				c-0.5,6.9-1,15-5,22.5c0,0,1.5-0.9,2.7-1.2c1.2-0.2,2,0.4,1.7,2.1c-0.5,2.8-2.2,8.5-3.4,10.8c-1.2,2.3-2,1.9-2.6,0l-0.7-1.9
				C118.8,156.7,117.7,166.3,118.3,169.3z"/>
		</g>
		<path id="XMLID_4488_" class="st4" d="M113.7,192.3c4.4-3.5,4.7,0.7,4.4,2.6c-4.4,2.5-2.3,6.5-1.2,7.3c-0.2-4.8,9.9-10.2,13.2-4.1
			c0.1,0.2,0.1,0.6,0.1,1.1c1.9-0.8,3.8-0.8,5.6,0c0-0.5,0-0.9,0.1-1.1c3.3-6.2,13.4-0.7,13.2,4.1c1.1-0.8,3.2-4.7-1.2-7.3
			c-0.3-1.9,0-6.1,4.4-2.6c1-6.6-1.1-19.6-9.2-25.7c3.2,8,2.4,16.3-1.7,20.4c5.4-0.9,4.1,5.3-1.1,5.3c-1.1-0.1-3.1-2-3.1-2l-4.2-4
			l-4.2,4c0,0-1.9,1.9-3.1,2c-5.1,0-6.5-6.2-1.1-5.3c-4.1-4.2-4.9-12.4-1.7-20.4C114.8,172.8,112.7,185.8,113.7,192.3z"/>
		<path id="XMLID_4487_" class="st4" d="M130.2,228.2c0,0,0.3,1.3-1.4,2.6c0,0,1.7,0.7,2,1.6c0.1,0.4-2.8,0.6-3.4,3.6
			c-0.3,1.7,1.5,6.2,2.3,6.2c-0.3-1.5-0.6-3,0.4-3.6c1-0.6,1.7,0,2,0.4c0.3,0.4,0.9,2.8,0.9,2.8s0.6-2.5,0.9-2.8c0.3-0.4,1-1,2-0.4
			c1,0.6,0.7,2.1,0.4,3.6c0.7,0,2.5-4.5,2.3-6.2c-0.6-3.1-3.5-3.2-3.4-3.6c0.3-0.9,2-1.6,2-1.6c-1.6-1.3-1.4-2.6-1.4-2.6
			C133.9,229.1,132.1,229.1,130.2,228.2z"/>
		<path id="XMLID_4486_" class="st5" d="M130.2,199.2c0,1.4-0.4,3.3-0.4,3.3c-1.5,7.2-0.8,20.9,0.4,25.7c1.9,0.9,3.7,0.9,5.6,0
			c1.2-4.7,1.9-18.4,0.4-25.7c0,0-0.4-2-0.4-3.3C134,198.5,132.1,198.5,130.2,199.2z"/>
		<g id="XMLID_4473_">
			<path id="XMLID_4483_" class="st1" d="M132.9,27l0.1,0.5c0.4,1.9,1.1,4.1,1.9,6.7c2.1,6.7,4.9,15.9,5,26.4
				c0.4,10.6-0.2,26.6-1.3,32.8c-1,6.1-0.9,19.3-0.4,26.2l0,0.4c0.5,6.9,1.1,14.7,5,22.1l0.2,0.4l-0.3-0.2c0,0-1.5-0.9-2.7-1.2
				c-0.6-0.1-1,0-1.3,0.3c-0.3,0.3-0.4,0.9-0.3,1.7c0.5,2.7,2.2,8.4,3.4,10.7c0.5,1,1,1.5,1.4,1.5c0.4,0,0.7-0.5,1.1-1.5l0.8-2.2
				l0.1,0.3c1.7,4.9,2.8,14.5,2.2,17.5l-0.1,0.3l-0.1-0.3c0,0-2.3-3.9-4.9-6.7c-1.6-1.7-3-2.5-3.6-2.2c-0.3,0.2-0.6,0.8,0.1,3.1
				c0.7,2.1,1.3,3.5,1.7,4.6c0.6,1.3,1,2.3,1.2,3.7l0,0.2l-0.6-0.3c-1.5-0.6-2.4-1-2.9-0.7c-0.3,0.2-0.6,0.7-0.7,1.7l-0.3,4.5
				c0.1,0.8,0.3,1.3,0.7,1.5c0.6,0.3,1.5-0.4,1.5-0.4l2.4-1.8l0,0.2c0.5,2.7-0.3,6.9-2.1,8.6c-0.4,0.3-0.6,0.5-0.8,0.4c0,0,0,0,0,0
				c-0.2-0.1-0.2-0.3-0.3-0.6c0-0.3-0.1-0.6-0.3-0.7c-0.2-0.1-0.7,0-1.9,0.9c-0.2,0.2,0,2.8,0.4,5.1l0,0.3l-4.3-4.2l-4.3,4.2l0-0.3
				c0.3-2.3,0.5-4.9,0.3-5.1c-1.2-0.9-1.7-1-1.9-0.9c-0.2,0.1-0.3,0.4-0.3,0.7c0,0.3-0.1,0.6-0.3,0.6c-0.2,0.1-0.4-0.1-0.8-0.4
				c-1.8-1.7-2.6-5.9-2.1-8.6l0-0.2l2.4,1.8c0,0,0.9,0.7,1.5,0.4c0.4-0.2,0.6-0.7,0.7-1.5l-0.3-4.5c-0.1-1-0.3-1.5-0.7-1.7
				c-0.5-0.3-1.4,0.1-2.9,0.7l-0.6,0.3l0-0.2c0.3-1.4,0.7-2.4,1.2-3.7c0.5-1.1,1.1-2.5,1.7-4.6c0.8-2.3,0.4-2.9,0.1-3.1
				c-0.6-0.3-2,0.5-3.6,2.2c-2.6,2.8-4.9,6.7-4.9,6.7l-0.1,0.3l-0.1-0.3c-0.6-3.1,0.5-12.6,2.2-17.5l0.1-0.3l0.8,2.2
				c0.4,1,0.7,1.5,1.1,1.5c0.4,0,0.8-0.5,1.4-1.5c1.2-2.4,2.8-8.1,3.4-10.7c0.2-0.8,0.1-1.3-0.3-1.7c-0.3-0.3-0.7-0.4-1.3-0.3
				c-1.2,0.2-2.7,1.1-2.7,1.2l-0.3,0.2l0.2-0.4c3.9-7.4,4.5-15.2,5-22.1l0-0.4c0.5-6.8,0.6-20.1-0.4-26.2
				c-1.1-6.2-1.7-22.2-1.3-32.8c0.1-10.4,2.9-19.6,5-26.4c0.8-2.6,1.5-4.8,1.9-6.7L132.9,27z M142.8,141.8c-3.8-7.3-4.3-15-4.8-21.9
				l0-0.4c-0.5-6.8-0.6-20.1,0.4-26.2c1.1-6.2,1.7-22.2,1.3-32.8c-0.1-10.4-2.9-19.6-5-26.3c-0.7-2.4-1.4-4.4-1.8-6.2
				c-0.4,1.8-1,3.8-1.8,6.2c-2.1,6.7-4.9,15.9-5,26.3l0,0c-0.4,10.6,0.2,26.6,1.3,32.8c1,6.1,0.9,19.4,0.4,26.2l0,0.4
				c-0.5,6.8-1.1,14.5-4.8,21.9c0.5-0.3,1.6-0.8,2.5-1c0.6-0.1,1.1,0,1.5,0.3c0.4,0.4,0.5,1,0.3,1.9c-0.5,2.7-2.2,8.4-3.4,10.8
				c-0.6,1.1-1.1,1.7-1.6,1.6c-0.5,0-0.9-0.6-1.3-1.6l-0.6-1.6c-1.6,4.8-2.6,13.6-2.2,16.8c0.6-0.9,2.5-4.1,4.8-6.5
				c1.3-1.4,3-2.7,3.8-2.2c0.6,0.3,0.6,1.5,0,3.3c-0.7,2.1-1.3,3.5-1.8,4.6c-0.5,1.2-0.9,2.2-1.2,3.4l0.2-0.1
				c1.6-0.7,2.5-1.1,3.1-0.7c0.4,0.2,0.7,0.8,0.8,1.9l0.3,4.5c-0.1,0.9-0.3,1.5-0.8,1.7c-0.7,0.3-1.7-0.4-1.7-0.4l-2.1-1.6
				c-0.4,2.6,0.3,6.6,2.1,8.3c0.4,0.4,0.5,0.4,0.6,0.4c0.1,0,0.1-0.3,0.1-0.4c0-0.3,0.1-0.8,0.4-0.9c0.4-0.2,1.1,0.1,2.1,1
				c0.3,0.3,0,3.6-0.2,5l4-3.9l4,3.9c-0.2-1.4-0.6-4.7-0.2-5c1-0.8,1.7-1.1,2.1-1c0.3,0.1,0.4,0.6,0.4,0.9c0,0.2,0.1,0.4,0.1,0.4
				c0,0,0,0,0,0c0,0,0.2,0,0.6-0.4c1.7-1.7,2.5-5.6,2.1-8.3l-2.1,1.6c0,0-1,0.8-1.7,0.4c-0.5-0.2-0.7-0.8-0.8-1.7l0.3-4.5
				c0.1-1.1,0.4-1.6,0.8-1.9c0.6-0.4,1.6,0,3.1,0.7l0.2,0.1c-0.2-1.3-0.6-2.2-1.2-3.4c-0.5-1.1-1.1-2.5-1.8-4.6
				c-0.6-1.9-0.6-3,0-3.3c0.8-0.5,2.5,0.8,3.8,2.2c2.3,2.4,4.2,5.6,4.8,6.5c0.4-3.2-0.5-12-2.2-16.8l-0.6,1.6
				c-0.4,1.1-0.8,1.6-1.3,1.6c-0.5,0-1-0.5-1.6-1.6c-1.2-2.4-2.8-8.1-3.4-10.8c-0.2-0.8-0.1-1.5,0.3-1.9c0.3-0.3,0.8-0.4,1.5-0.3
				C141.3,140.9,142.3,141.5,142.8,141.8z"/>
			<path id="XMLID_4480_" class="st1" d="M142.7,166.3l0.3,0.2c8,6,10.3,19,9.3,25.8l0,0.2l-0.2-0.1c-1.5-1.2-2.6-1.6-3.3-1.1
				c-1,0.6-1,2.6-0.9,3.6c2.1,1.2,2.6,2.8,2.7,3.9c0.1,1.7-0.9,3.1-1.5,3.6l-0.2,0.1l0-0.2c0.1-2.8-3.2-5.6-6.4-6.4
				c-3-0.8-5.4,0.1-6.6,2.4c-0.1,0.2-0.1,0.5-0.1,1l0,0.2l-0.2-0.1c-1.8-0.8-3.7-0.8-5.5,0l-0.2,0.1l0-0.2c0-0.5,0-0.8-0.1-1
				c-1.2-2.3-3.6-3.2-6.6-2.4c-3.2,0.9-6.5,3.6-6.4,6.4l0,0.2l-0.2-0.1c-0.7-0.5-1.6-1.9-1.5-3.6c0-1.1,0.5-2.6,2.7-3.9
				c0.2-1,0.2-3-0.9-3.6c-0.7-0.4-1.9,0-3.3,1.1l-0.2,0.1l0-0.2c-1-6.8,1.3-19.8,9.3-25.8l0.3-0.2l-0.1,0.4
				c-3.1,7.8-2.4,16.1,1.7,20.3l0.2,0.2l-0.3-0.1c-1.4-0.2-2.5,0-3,0.7c-0.4,0.6-0.4,1.4,0,2.1c0.5,1.1,1.9,2.2,4.1,2.2
				c1.1,0,3-1.9,3-1.9l4.3-4.1l4.3,4.1c0,0,1.9,1.9,3,1.9c2.2,0,3.6-1.2,4.1-2.2c0.4-0.8,0.4-1.6,0-2.1c-0.5-0.7-1.6-0.9-3-0.7
				l-0.3,0.1l0.2-0.2c4.1-4.2,4.8-12.6,1.7-20.3L142.7,166.3z M152.1,192.1c0.9-6.7-1.3-19.1-8.9-25.2c2.9,7.6,2.2,15.7-1.7,20
				c1.4-0.2,2.4,0.1,2.9,0.8c0.5,0.6,0.5,1.5,0.1,2.4c-0.6,1.1-2,2.4-4.3,2.4c-1.2-0.1-3.1-1.9-3.1-2l-4.1-3.9l-4.1,3.9
				c-0.1,0.1-2,2-3.1,2c-2.3,0-3.8-1.2-4.3-2.4c-0.4-0.9-0.4-1.7,0.1-2.4c0.5-0.7,1.6-1,2.9-0.8c-3.9-4.3-4.6-12.4-1.7-20
				c-7.6,6-9.8,18.4-8.9,25.2c1.5-1.2,2.7-1.5,3.4-1c1.1,0.7,1.1,2.8,0.9,3.9l0,0.1l0,0c-1.6,0.9-2.5,2.2-2.6,3.7
				c-0.1,1.4,0.7,2.7,1.3,3.2c0.1-2.8,3.4-5.5,6.6-6.4c3.1-0.8,5.6,0.1,6.8,2.5c0.1,0.2,0.1,0.5,0.1,1c1.8-0.7,3.6-0.7,5.4,0
				c0-0.4,0-0.8,0.1-1c1.3-2.4,3.8-3.4,6.8-2.5c3.2,0.8,6.5,3.6,6.6,6.4c0.6-0.6,1.3-1.8,1.3-3.2c-0.1-1.5-1-2.8-2.6-3.7l0,0l0-0.1
				c-0.2-1.1-0.2-3.2,1-3.9C149.5,190.6,150.6,191,152.1,192.1z"/>
			<path id="XMLID_4477_" class="st1" d="M135.8,228l0,0.2c0,0.1-0.2,1.3,1.3,2.5l0.2,0.1l-0.2,0.1c0,0-1.6,0.6-1.9,1.5
				c0,0,0.2,0.1,0.4,0.2c0.8,0.4,2.5,1.1,3,3.4c0.2,1.5-1.1,5-1.9,6c-0.2,0.2-0.3,0.3-0.5,0.3l-0.1,0l0-0.2c0.3-1.5,0.5-2.9-0.4-3.5
				c-1-0.6-1.7,0.1-1.8,0.3c-0.2,0.2-0.6,1.8-0.9,2.8l-0.1,0.4l-0.1-0.4c-0.2-1-0.7-2.5-0.9-2.8c-0.2-0.2-0.9-0.9-1.8-0.3
				c-0.9,0.6-0.6,2-0.4,3.5l0,0.2l-0.1,0c-0.1,0-0.3-0.1-0.5-0.3c-0.8-1-2.2-4.5-1.9-6c0.4-2.3,2.2-3,3-3.4c0.2-0.1,0.4-0.2,0.4-0.2
				c-0.3-0.9-1.9-1.5-1.9-1.5l-0.2-0.1l0.2-0.1c1.5-1.2,1.3-2.4,1.3-2.5l0-0.2l0.2,0.1c1.8,0.8,3.7,0.8,5.5,0L135.8,228z
				 M136.8,230.8c-1.2-1-1.3-2-1.3-2.4c-1.8,0.8-3.6,0.8-5.3,0c0,0.4-0.1,1.4-1.3,2.4c0.4,0.2,1.6,0.8,1.9,1.6l0,0
				c0.1,0.2-0.2,0.3-0.6,0.5c-0.8,0.4-2.4,1.1-2.9,3.2c-0.2,1.4,1.1,4.9,1.9,5.8c0.1,0.1,0.1,0.1,0.2,0.2c-0.3-1.5-0.5-2.9,0.5-3.5
				c1.1-0.7,1.9,0.1,2.1,0.4c0.2,0.3,0.6,1.7,0.8,2.4c0.2-0.7,0.6-2.2,0.8-2.4c0.2-0.3,1-1.1,2.1-0.4c1,0.6,0.8,2,0.5,3.5
				c0,0,0.1-0.1,0.2-0.2c0.8-0.9,2.1-4.4,1.9-5.8c-0.4-2.1-2-2.8-2.9-3.2c-0.4-0.2-0.6-0.3-0.6-0.5
				C135.2,231.6,136.4,231,136.8,230.8z"/>
			<path id="XMLID_4474_" class="st1" d="M134.8,198.8c0.3,0.1,0.7,0.2,1,0.3l0.1,0l0,0.1c0,1.3,0.4,3.3,0.4,3.3
				c1.5,7.2,0.8,20.9-0.4,25.7l0,0.1l0,0c-1.9,0.9-3.8,0.9-5.7,0l0,0l0-0.1c-1.2-4.8-1.9-18.5-0.4-25.7c0-0.1,0.4-2,0.4-3.3l0-0.1
				l0.1,0C131.6,198.5,133.2,198.4,134.8,198.8z M135.6,199.3c-1.8-0.7-3.6-0.7-5.4,0c0,1.4-0.4,3.3-0.4,3.3l0,0
				c-1.4,7.1-0.8,20.7,0.4,25.6c1.8,0.8,3.6,0.8,5.4,0c1.2-4.8,1.8-18.4,0.4-25.6C136,202.5,135.6,200.6,135.6,199.3z"/>
		</g>
	</g>
	<g id="XMLID_4452_">
		<g id="XMLID_4469_">
			<path id="XMLID_4471_" class="st2" d="M84.7,78.9c0,0,0.7,4.9,0.3,5.2c-3.7,2.9-1.4-1.7-3.2,0c-1.8,1.8-2.5,5.9-2.1,8.5l2.2-1.7
				c0,0,2.2-1.7,2.4,1.2L84,96.6c-0.3,2.7-1.3,2.1-4.2,0.9c0.5,2.6,1.5,3.6,3,8.2c1.5,4.6-1,3.8-3.6,1c-2.7-2.9-4.9-6.8-4.9-6.8
				c-0.6,3,0.5,12.6,2.2,17.5l0.7-1.9c0.7-1.9,1.5-2.3,2.6,0c1.2,2.3,2.8,8,3.4,10.8c0.3,1.6-0.4,2.3-1.7,2.1
				c-1.2-0.2-2.7-1.2-2.7-1.2c4,7.5,4.5,15.6,5,22.5c0.5,6.9,0.6,20.1-0.4,26.2c-1,6.1-1.7,22-1.3,32.8c0.1,14.3,5.4,26.2,6.8,33
				V82.9L84.7,78.9z"/>
			<path id="XMLID_4470_" class="st3" d="M103.6,100c0,0-2.3,3.9-4.9,6.8c-2.7,2.9-5.1,3.6-3.6-1c1.5-4.6,2.5-5.7,3-8.2
				c-2.9,1.2-3.9,1.8-4.2-0.9l-0.3-4.5c0.2-2.9,2.4-1.2,2.4-1.2l2.2,1.7c0.5-2.6-0.2-6.8-2.1-8.5c-1.8-1.8,0.4,2.9-3.2,0
				c-0.4-0.3,0.3-5.2,0.3-5.2l-4.2,4v158.8c1.5-6.8,6.7-18.6,6.8-33c0.4-10.8-0.2-26.7-1.3-32.8c-1-6.1-0.9-19.3-0.4-26.2
				c0.5-6.9,1-15,5-22.5c0,0-1.5,0.9-2.7,1.2c-1.2,0.2-2-0.4-1.7-2.1c0.5-2.8,2.2-8.5,3.4-10.8c1.2-2.3,2-1.9,2.6,0l0.7,1.9
				C103.1,112.6,104.1,103,103.6,100z"/>
		</g>
		<path id="XMLID_4468_" class="st4" d="M108.2,76.9c-4.4,3.5-4.7-0.7-4.4-2.6c4.4-2.5,2.3-6.5,1.2-7.3c0.2,4.8-9.9,10.2-13.2,4.1
			c-0.1-0.2-0.1-0.6-0.1-1.1c-1.9,0.8-3.8,0.8-5.6,0c0,0.5,0,0.9-0.1,1.1c-3.3,6.2-13.4,0.7-13.2-4.1c-1.1,0.8-3.2,4.7,1.2,7.3
			c0.3,1.9,0,6.1-4.4,2.6c-1,6.6,1.1,19.6,9.2,25.7c-3.2-8-2.4-16.3,1.7-20.4c-5.4,0.9-4.1-5.3,1.1-5.3c1.1,0.1,3.1,2,3.1,2l4.2,4
			l4.2-4c0,0,1.9-1.9,3.1-2c5.1,0,6.5,6.2,1.1,5.3c4.1,4.2,4.9,12.4,1.7,20.4C107.1,96.5,109.2,83.5,108.2,76.9z"/>
		<path id="XMLID_4467_" class="st4" d="M91.7,41.1c0,0-0.3-1.3,1.4-2.6c0,0-1.7-0.7-2-1.6c-0.1-0.4,2.8-0.6,3.4-3.6
			c0.3-1.7-1.5-6.2-2.3-6.2c0.3,1.5,0.6,3-0.4,3.6c-1,0.6-1.7,0-2-0.4c-0.3-0.4-0.9-2.8-0.9-2.8S88.3,30,88,30.4c-0.3,0.4-1,1-2,0.4
			c-1-0.6-0.7-2.1-0.4-3.6c-0.7,0-2.5,4.5-2.3,6.2c0.6,3.1,3.5,3.2,3.4,3.6c-0.3,0.9-2,1.6-2,1.6c1.6,1.3,1.4,2.6,1.4,2.6
			C87.9,40.2,89.8,40.2,91.7,41.1z"/>
		<path id="XMLID_4466_" class="st5" d="M91.7,70c0-1.4,0.4-3.3,0.4-3.3c1.5-7.2,0.8-20.9-0.4-25.7c-1.9-0.9-3.7-0.9-5.6,0
			c-1.2,4.7-1.9,18.4-0.4,25.7c0,0,0.4,2,0.4,3.3C87.9,70.8,89.8,70.8,91.7,70z"/>
		<g id="XMLID_4453_">
			<path id="XMLID_4463_" class="st1" d="M89,242.3l-0.1-0.5c-0.4-1.9-1.1-4.1-1.9-6.7c-2.1-6.7-4.9-15.9-5-26.4
				c-0.4-10.6,0.2-26.6,1.3-32.8c1-6.1,0.9-19.3,0.4-26.2l0-0.4c-0.5-6.9-1.1-14.7-5-22.1l-0.2-0.4l0.3,0.2c0,0,1.5,0.9,2.7,1.2
				c0.6,0.1,1,0,1.3-0.3c0.3-0.3,0.4-0.9,0.3-1.7c-0.5-2.7-2.2-8.4-3.4-10.7c-0.5-1-1-1.5-1.4-1.5c-0.4,0-0.7,0.5-1.1,1.5l-0.8,2.2
				l-0.1-0.3c-1.7-4.9-2.8-14.5-2.2-17.5l0.1-0.3l0.1,0.3c0,0,2.3,3.9,4.9,6.7c1.6,1.7,3,2.5,3.6,2.2c0.3-0.2,0.6-0.8-0.1-3.1
				c-0.7-2.1-1.3-3.5-1.7-4.6c-0.6-1.3-1-2.3-1.2-3.7l0-0.2l0.6,0.3c1.5,0.6,2.4,1,2.9,0.7c0.3-0.2,0.6-0.7,0.7-1.7l0.3-4.5
				c-0.1-0.8-0.3-1.3-0.7-1.5c-0.6-0.3-1.5,0.4-1.5,0.4l-2.4,1.8l0-0.2C79.2,90,80,85.8,81.8,84c0.4-0.3,0.6-0.5,0.8-0.4
				c0,0,0,0,0,0c0.2,0.1,0.2,0.3,0.3,0.6c0,0.3,0.1,0.6,0.3,0.7c0.2,0.1,0.7,0,1.9-0.9c0.2-0.2,0-2.8-0.4-5.1l0-0.3l4.3,4.2l4.3-4.2
				l0,0.3c-0.3,2.3-0.5,4.9-0.3,5.1c1.2,0.9,1.7,1,1.9,0.9c0.2-0.1,0.3-0.4,0.3-0.7c0-0.3,0.1-0.6,0.3-0.6c0.2-0.1,0.4,0.1,0.8,0.4
				c1.8,1.7,2.6,5.9,2.1,8.6l0,0.2l-2.4-1.8c0,0-0.9-0.7-1.5-0.4c-0.4,0.2-0.6,0.7-0.7,1.5l0.3,4.5c0.1,1,0.3,1.5,0.7,1.7
				c0.5,0.3,1.4-0.1,2.9-0.7l0.6-0.3l0,0.2c-0.3,1.4-0.7,2.4-1.2,3.7c-0.5,1.1-1.1,2.5-1.7,4.6c-0.8,2.3-0.4,2.9-0.1,3.1
				c0.6,0.3,2-0.5,3.6-2.2c2.6-2.8,4.9-6.7,4.9-6.7l0.1-0.3l0.1,0.3c0.6,3.1-0.5,12.6-2.2,17.5l-0.1,0.3l-0.8-2.2
				c-0.4-1-0.7-1.5-1.1-1.5c-0.4,0-0.8,0.5-1.4,1.5c-1.2,2.4-2.8,8.1-3.4,10.7c-0.2,0.8-0.1,1.3,0.3,1.7c0.3,0.3,0.7,0.4,1.3,0.3
				c1.2-0.2,2.7-1.1,2.7-1.2l0.3-0.2l-0.2,0.4c-3.9,7.4-4.5,15.2-5,22.1l0,0.4c-0.5,6.8-0.6,20.1,0.4,26.2
				c1.1,6.2,1.7,22.2,1.3,32.8c-0.1,10.4-2.9,19.6-5,26.4c-0.8,2.6-1.5,4.8-1.9,6.7L89,242.3z M79.1,127.5c3.8,7.3,4.3,15,4.8,21.9
				l0,0.4c0.5,6.8,0.6,20.1-0.4,26.2c-1.1,6.2-1.7,22.2-1.3,32.8c0.1,10.4,2.9,19.6,5,26.3c0.7,2.4,1.4,4.4,1.8,6.2
				c0.4-1.8,1-3.8,1.8-6.2c2.1-6.7,4.9-15.9,5-26.3l0,0c0.4-10.6-0.2-26.6-1.3-32.8c-1-6.1-0.9-19.4-0.4-26.2l0-0.4
				c0.5-6.8,1.1-14.5,4.8-21.9c-0.5,0.3-1.6,0.8-2.5,1c-0.6,0.1-1.1,0-1.5-0.3c-0.4-0.4-0.5-1-0.3-1.9c0.5-2.7,2.2-8.4,3.4-10.8
				c0.6-1.1,1.1-1.7,1.6-1.6c0.5,0,0.9,0.6,1.3,1.6l0.6,1.6c1.6-4.8,2.6-13.6,2.2-16.8c-0.6,0.9-2.5,4.1-4.8,6.5
				c-1.3,1.4-3,2.7-3.8,2.2c-0.6-0.3-0.6-1.5,0-3.3c0.7-2.1,1.3-3.5,1.8-4.6c0.5-1.2,0.9-2.2,1.2-3.4l-0.2,0.1
				c-1.6,0.7-2.5,1.1-3.1,0.7c-0.4-0.2-0.7-0.8-0.8-1.9l-0.3-4.5c0.1-0.9,0.3-1.5,0.8-1.7c0.7-0.3,1.7,0.4,1.7,0.4l2.1,1.6
				c0.4-2.6-0.3-6.6-2.1-8.3c-0.4-0.4-0.5-0.4-0.6-0.4c-0.1,0-0.1,0.3-0.1,0.4c0,0.3-0.1,0.8-0.4,0.9c-0.4,0.2-1.1-0.1-2.1-1
				c-0.3-0.3,0-3.6,0.2-5l-4,3.9l-4-3.9c0.2,1.4,0.6,4.7,0.2,5c-1,0.8-1.7,1.1-2.1,1c-0.3-0.1-0.4-0.6-0.4-0.9
				c0-0.2-0.1-0.4-0.1-0.4c0,0,0,0,0,0c0,0-0.2,0-0.6,0.4c-1.7,1.7-2.5,5.6-2.1,8.3l2.1-1.6c0,0,1-0.8,1.7-0.4
				c0.5,0.2,0.7,0.8,0.8,1.7l-0.3,4.5c-0.1,1.1-0.4,1.6-0.8,1.9c-0.6,0.4-1.6,0-3.1-0.7L80,97.7c0.2,1.3,0.6,2.2,1.2,3.4
				c0.5,1.1,1.1,2.5,1.8,4.6c0.6,1.9,0.6,3,0,3.3c-0.8,0.5-2.5-0.8-3.8-2.2c-2.3-2.4-4.2-5.6-4.8-6.5c-0.4,3.2,0.5,12,2.2,16.8
				l0.6-1.6c0.4-1.1,0.8-1.6,1.3-1.6c0.5,0,1,0.5,1.6,1.6c1.2,2.4,2.8,8.1,3.4,10.8c0.2,0.8,0.1,1.5-0.3,1.9
				c-0.3,0.3-0.8,0.4-1.5,0.3C80.6,128.4,79.6,127.8,79.1,127.5z"/>
			<path id="XMLID_4460_" class="st1" d="M79.2,103l-0.3-0.2c-8-6-10.3-19-9.3-25.8l0-0.2l0.2,0.1c1.5,1.2,2.6,1.6,3.3,1.1
				c1-0.6,1-2.6,0.9-3.6c-2.1-1.2-2.6-2.8-2.7-3.9c-0.1-1.7,0.9-3.1,1.5-3.6l0.2-0.1l0,0.2c-0.1,2.8,3.2,5.6,6.4,6.4
				c3,0.8,5.4-0.1,6.6-2.4c0.1-0.2,0.1-0.5,0.1-1l0-0.2l0.2,0.1c1.8,0.8,3.7,0.8,5.5,0l0.2-0.1l0,0.2c0,0.5,0,0.8,0.1,1
				c1.2,2.3,3.6,3.2,6.6,2.4c3.2-0.9,6.5-3.6,6.4-6.4l0-0.2l0.2,0.1c0.7,0.5,1.6,1.9,1.5,3.6c0,1.1-0.5,2.6-2.7,3.9
				c-0.2,1-0.2,3,0.9,3.6c0.7,0.4,1.9,0,3.3-1.1l0.2-0.1l0,0.2c1,6.8-1.3,19.8-9.3,25.8l-0.3,0.2l0.1-0.4c3.1-7.8,2.4-16.1-1.7-20.3
				L97,82.1l0.3,0.1c1.4,0.2,2.5,0,3-0.7c0.4-0.6,0.4-1.4,0-2.1c-0.5-1.1-1.9-2.2-4.1-2.2c-1.1,0-3,1.9-3,1.9L89,83.1L84.7,79
				c0,0-1.9-1.9-3-1.9c-2.2,0-3.6,1.2-4.1,2.2c-0.4,0.8-0.4,1.6,0,2.1c0.5,0.7,1.6,0.9,3,0.7l0.3-0.1l-0.2,0.2
				c-4.1,4.2-4.8,12.6-1.7,20.3L79.2,103z M69.8,77.2c-0.9,6.7,1.3,19.1,8.9,25.2c-2.9-7.6-2.2-15.7,1.7-20
				c-1.4,0.2-2.4-0.1-2.9-0.8c-0.5-0.6-0.5-1.5-0.1-2.4c0.6-1.1,2-2.4,4.3-2.4c1.2,0.1,3.1,1.9,3.1,2l4.1,3.9l4.1-3.9
				c0.1-0.1,2-2,3.1-2c2.3,0,3.8,1.2,4.3,2.4c0.4,0.9,0.4,1.7-0.1,2.4c-0.5,0.7-1.6,1-2.9,0.8c3.9,4.3,4.6,12.4,1.7,20
				c7.6-6,9.8-18.4,8.9-25.2c-1.5,1.2-2.7,1.5-3.4,1c-1.1-0.7-1.1-2.8-0.9-3.9l0-0.1l0,0c1.6-0.9,2.5-2.2,2.6-3.7
				c0.1-1.4-0.7-2.7-1.3-3.2c-0.1,2.8-3.4,5.5-6.6,6.4c-3.1,0.8-5.6-0.1-6.8-2.5c-0.1-0.2-0.1-0.5-0.1-1c-1.8,0.7-3.6,0.7-5.4,0
				c0,0.4,0,0.8-0.1,1c-1.3,2.4-3.8,3.4-6.8,2.5c-3.2-0.8-6.5-3.6-6.6-6.4c-0.6,0.6-1.3,1.8-1.3,3.2c0.1,1.5,1,2.8,2.6,3.7l0,0
				l0,0.1c0.2,1.1,0.2,3.2-1,3.9C72.4,78.7,71.3,78.3,69.8,77.2z"/>
			<path id="XMLID_4457_" class="st1" d="M86.1,41.3l0-0.2c0-0.1,0.2-1.3-1.3-2.5l-0.2-0.1l0.2-0.1c0,0,1.6-0.6,1.9-1.5
				c0,0-0.2-0.1-0.4-0.2c-0.8-0.4-2.5-1.1-3-3.4c-0.2-1.5,1.1-5,1.9-6c0.2-0.2,0.3-0.3,0.5-0.3l0.1,0l0,0.2
				c-0.3,1.5-0.5,2.9,0.4,3.5c1,0.6,1.7-0.1,1.8-0.3c0.2-0.2,0.6-1.8,0.9-2.8l0.1-0.4l0.1,0.4c0.2,1,0.7,2.5,0.9,2.8
				c0.2,0.2,0.9,0.9,1.8,0.3c0.9-0.6,0.6-2,0.4-3.5l0-0.2l0.1,0c0.1,0,0.3,0.1,0.5,0.3c0.8,1,2.2,4.5,1.9,6c-0.4,2.3-2.2,3-3,3.4
				c-0.2,0.1-0.4,0.2-0.4,0.2c0.3,0.9,1.9,1.5,1.9,1.5l0.2,0.1l-0.2,0.1c-1.5,1.2-1.3,2.4-1.3,2.5l0,0.2l-0.2-0.1
				c-1.8-0.8-3.7-0.8-5.5,0L86.1,41.3z M85.1,38.5c1.2,1,1.3,2,1.3,2.4c1.8-0.8,3.6-0.8,5.3,0c0-0.4,0.1-1.4,1.3-2.4
				c-0.4-0.2-1.6-0.8-1.9-1.6l0,0c-0.1-0.2,0.2-0.3,0.6-0.5c0.8-0.4,2.4-1.1,2.9-3.2c0.2-1.4-1.1-4.9-1.9-5.8
				c-0.1-0.1-0.1-0.1-0.2-0.2c0.3,1.5,0.5,2.9-0.5,3.5c-1.1,0.7-1.9-0.1-2.1-0.4c-0.2-0.3-0.6-1.7-0.8-2.4c-0.2,0.7-0.6,2.2-0.8,2.4
				c-0.2,0.3-1,1.1-2.1,0.4c-1-0.6-0.8-2-0.5-3.5c0,0-0.1,0.1-0.2,0.2c-0.8,0.9-2.1,4.4-1.9,5.8c0.4,2.1,2,2.8,2.9,3.2
				c0.4,0.2,0.6,0.3,0.6,0.5C86.7,37.7,85.5,38.3,85.1,38.5z"/>
			<path id="XMLID_4454_" class="st1" d="M87.1,70.5c-0.3-0.1-0.7-0.2-1-0.3l-0.1,0l0-0.1c0-1.3-0.4-3.3-0.4-3.3
				c-1.5-7.2-0.8-20.9,0.4-25.7l0-0.1l0,0c1.9-0.9,3.8-0.9,5.7,0l0,0l0,0.1c1.2,4.8,1.9,18.5,0.4,25.7c0,0.1-0.4,2-0.4,3.3l0,0.1
				l-0.1,0C90.3,70.8,88.7,70.9,87.1,70.5z M86.3,70c1.8,0.7,3.6,0.7,5.4,0c0-1.4,0.4-3.3,0.4-3.3l0,0c1.4-7.1,0.8-20.7-0.4-25.6
				c-1.8-0.8-3.6-0.8-5.4,0c-1.2,4.8-1.8,18.4-0.4,25.6C85.9,66.7,86.2,68.6,86.3,70z"/>
		</g>
	</g>
	<g id="XMLID_4432_">
		<g id="XMLID_4449_">
			<path id="XMLID_4451_" class="st2" d="M44.3,190.4c0,0-0.7-4.9-0.3-5.2c3.7-2.9,1.4,1.7,3.2,0c1.8-1.8,2.5-5.9,2.1-8.5l-2.2,1.7
				c0,0-2.2,1.7-2.4-1.2l0.3-4.5c0.3-2.7,1.3-2.1,4.2-0.9c-0.5-2.6-1.5-3.6-3-8.2c-1.5-4.6,1-3.8,3.6-1c2.7,2.9,4.9,6.8,4.9,6.8
				c0.6-3-0.5-12.6-2.2-17.5l-0.7,1.9c-0.7,1.9-1.5,2.3-2.6,0c-1.2-2.3-2.8-8-3.4-10.8c-0.3-1.6,0.4-2.3,1.7-2.1
				c1.2,0.2,2.7,1.2,2.7,1.2c-4-7.5-4.5-15.6-5-22.5c-0.5-6.9-0.6-20.1,0.4-26.2c1-6.1,1.7-22,1.3-32.8c-0.1-14.3-5.4-26.2-6.8-33
				v158.8L44.3,190.4z"/>
			<path id="XMLID_4450_" class="st3" d="M25.4,169.3c0,0,2.3-3.9,4.9-6.8c2.7-2.9,5.1-3.6,3.6,1c-1.5,4.6-2.5,5.7-3,8.2
				c2.9-1.2,3.9-1.8,4.2,0.9l0.3,4.5c-0.2,2.9-2.4,1.2-2.4,1.2l-2.2-1.7c-0.5,2.6,0.2,6.8,2.1,8.5c1.8,1.8-0.4-2.9,3.2,0
				c0.4,0.3-0.3,5.2-0.3,5.2l4.2-4V27.6c-1.5,6.8-6.7,18.6-6.8,33c-0.4,10.8,0.2,26.7,1.3,32.8c1,6.1,0.9,19.3,0.4,26.2
				c-0.5,6.9-1,15-5,22.5c0,0,1.5-0.9,2.7-1.2c1.2-0.2,2,0.4,1.7,2.1c-0.5,2.8-2.2,8.5-3.4,10.8c-1.2,2.3-2,1.9-2.6,0l-0.7-1.9
				C25.9,156.7,24.9,166.3,25.4,169.3z"/>
		</g>
		<path id="XMLID_4448_" class="st4" d="M20.8,192.3c4.4-3.5,4.7,0.7,4.4,2.6c-4.4,2.5-2.3,6.5-1.2,7.3c-0.2-4.8,9.9-10.2,13.2-4.1
			c0.1,0.2,0.1,0.6,0.1,1.1c1.9-0.8,3.8-0.8,5.6,0c0-0.5,0-0.9,0.1-1.1c3.3-6.2,13.4-0.7,13.2,4.1c1.1-0.8,3.2-4.7-1.2-7.3
			c-0.3-1.9,0-6.1,4.4-2.6c1-6.6-1.1-19.6-9.2-25.7c3.2,8,2.4,16.3-1.7,20.4c5.4-0.9,4.1,5.3-1.1,5.3c-1.1-0.1-3.1-2-3.1-2l-4.2-4
			l-4.2,4c0,0-1.9,1.9-3.1,2c-5.1,0-6.5-6.2-1.1-5.3c-4.1-4.2-4.9-12.4-1.7-20.4C21.9,172.8,19.8,185.8,20.8,192.3z"/>
		<path id="XMLID_4447_" class="st4" d="M37.3,228.2c0,0,0.3,1.3-1.4,2.6c0,0,1.7,0.7,2,1.6c0.1,0.4-2.8,0.6-3.4,3.6
			c-0.3,1.7,1.5,6.2,2.3,6.2c-0.3-1.5-0.6-3,0.4-3.6c1-0.6,1.7,0,2,0.4c0.3,0.4,0.9,2.8,0.9,2.8s0.6-2.5,0.9-2.8c0.3-0.4,1-1,2-0.4
			c1,0.6,0.7,2.1,0.4,3.6c0.7,0,2.5-4.5,2.3-6.2c-0.6-3.1-3.5-3.2-3.4-3.6c0.3-0.9,2-1.6,2-1.6c-1.6-1.3-1.4-2.6-1.4-2.6
			C41.1,229.1,39.2,229.1,37.3,228.2z"/>
		<path id="XMLID_4446_" class="st5" d="M37.3,199.2c0,1.4-0.4,3.3-0.4,3.3c-1.5,7.2-0.8,20.9,0.4,25.7c1.9,0.9,3.7,0.9,5.6,0
			c1.2-4.7,1.9-18.4,0.4-25.7c0,0-0.4-2-0.4-3.3C41.1,198.5,39.2,198.5,37.3,199.2z"/>
		<g id="XMLID_4433_">
			<path id="XMLID_4443_" class="st1" d="M40,27l0.1,0.5c0.4,1.9,1.1,4.1,1.9,6.7c2.1,6.7,4.9,15.9,5,26.4
				c0.4,10.6-0.2,26.6-1.3,32.8c-1,6.1-0.9,19.3-0.4,26.2l0,0.4c0.5,6.9,1.1,14.7,5,22.1l0.2,0.4l-0.3-0.2c0,0-1.5-0.9-2.7-1.2
				c-0.6-0.1-1,0-1.3,0.3c-0.3,0.3-0.4,0.9-0.3,1.7c0.5,2.7,2.2,8.4,3.4,10.7c0.5,1,1,1.5,1.4,1.5c0.4,0,0.7-0.5,1.1-1.5l0.8-2.2
				l0.1,0.3c1.7,4.9,2.8,14.5,2.2,17.5l-0.1,0.3l-0.1-0.3c0,0-2.3-3.9-4.9-6.7c-1.6-1.7-3-2.5-3.6-2.2c-0.3,0.2-0.6,0.8,0.1,3.1
				c0.7,2.1,1.3,3.5,1.7,4.6c0.6,1.3,1,2.3,1.2,3.7l0,0.2l-0.6-0.3c-1.5-0.6-2.4-1-2.9-0.7c-0.3,0.2-0.6,0.7-0.7,1.7l-0.3,4.5
				c0.1,0.8,0.3,1.3,0.7,1.5c0.6,0.3,1.5-0.4,1.5-0.4l2.4-1.8l0,0.2c0.5,2.7-0.3,6.9-2.1,8.6c-0.4,0.3-0.6,0.5-0.8,0.4c0,0,0,0,0,0
				c-0.2-0.1-0.2-0.3-0.3-0.6c0-0.3-0.1-0.6-0.3-0.7c-0.2-0.1-0.7,0-1.9,0.9c-0.2,0.2,0,2.8,0.4,5.1l0,0.3l-4.3-4.2l-4.3,4.2l0-0.3
				c0.3-2.3,0.5-4.9,0.3-5.1c-1.2-0.9-1.7-1-1.9-0.9c-0.2,0.1-0.3,0.4-0.3,0.7c0,0.3-0.1,0.6-0.3,0.6c-0.2,0.1-0.4-0.1-0.8-0.4
				c-1.8-1.7-2.6-5.9-2.1-8.6l0-0.2l2.4,1.8c0,0,0.9,0.7,1.5,0.4c0.4-0.2,0.6-0.7,0.7-1.5l-0.3-4.5c-0.1-1-0.3-1.5-0.7-1.7
				c-0.5-0.3-1.4,0.1-2.9,0.7l-0.6,0.3l0-0.2c0.3-1.4,0.7-2.4,1.2-3.7c0.5-1.1,1.1-2.5,1.7-4.6c0.8-2.3,0.4-2.9,0.1-3.1
				c-0.6-0.3-2,0.5-3.6,2.2c-2.6,2.8-4.9,6.7-4.9,6.7l-0.1,0.3l-0.1-0.3c-0.6-3.1,0.5-12.6,2.2-17.5l0.1-0.3l0.8,2.2
				c0.4,1,0.7,1.5,1.1,1.5c0.4,0,0.8-0.5,1.4-1.5c1.2-2.4,2.8-8.1,3.4-10.7c0.2-0.8,0.1-1.3-0.3-1.7c-0.3-0.3-0.7-0.4-1.3-0.3
				c-1.2,0.2-2.7,1.1-2.7,1.2l-0.3,0.2l0.2-0.4c3.9-7.4,4.5-15.2,5-22.1l0-0.4c0.5-6.8,0.6-20.1-0.4-26.2
				c-1.1-6.2-1.7-22.2-1.3-32.8c0.1-10.4,2.9-19.6,5-26.4c0.8-2.6,1.5-4.8,1.9-6.7L40,27z M49.9,141.8c-3.8-7.3-4.3-15-4.8-21.9
				l0-0.4c-0.5-6.8-0.6-20.1,0.4-26.2c1.1-6.2,1.7-22.2,1.3-32.8c-0.1-10.4-2.9-19.6-5-26.3c-0.7-2.4-1.4-4.4-1.8-6.2
				c-0.4,1.8-1,3.8-1.8,6.2c-2.1,6.7-4.9,15.9-5,26.3l0,0c-0.4,10.6,0.2,26.6,1.3,32.8c1,6.1,0.9,19.4,0.4,26.2l0,0.4
				c-0.5,6.8-1.1,14.5-4.8,21.9c0.5-0.3,1.6-0.8,2.5-1c0.6-0.1,1.1,0,1.5,0.3c0.4,0.4,0.5,1,0.3,1.9c-0.5,2.7-2.2,8.4-3.4,10.8
				c-0.6,1.1-1.1,1.7-1.6,1.6c-0.5,0-0.9-0.6-1.3-1.6l-0.6-1.6c-1.6,4.8-2.6,13.6-2.2,16.8c0.6-0.9,2.5-4.1,4.8-6.5
				c1.3-1.4,3-2.7,3.8-2.2c0.6,0.3,0.6,1.5,0,3.3c-0.7,2.1-1.3,3.5-1.8,4.6c-0.5,1.2-0.9,2.2-1.2,3.4l0.2-0.1
				c1.6-0.7,2.5-1.1,3.1-0.7c0.4,0.2,0.7,0.8,0.8,1.9l0.3,4.5c-0.1,0.9-0.3,1.5-0.8,1.7c-0.7,0.3-1.7-0.4-1.7-0.4l-2.1-1.6
				c-0.4,2.6,0.3,6.6,2.1,8.3c0.4,0.4,0.5,0.4,0.6,0.4c0.1,0,0.1-0.3,0.1-0.4c0-0.3,0.1-0.8,0.4-0.9c0.4-0.2,1.1,0.1,2.1,1
				c0.3,0.3,0,3.6-0.2,5l4-3.9l4,3.9c-0.2-1.4-0.6-4.7-0.2-5c1-0.8,1.7-1.1,2.1-1c0.3,0.1,0.4,0.6,0.4,0.9c0,0.2,0.1,0.4,0.1,0.4
				c0,0,0,0,0,0c0,0,0.2,0,0.6-0.4c1.7-1.7,2.5-5.6,2.1-8.3l-2.1,1.6c0,0-1,0.8-1.7,0.4c-0.5-0.2-0.7-0.8-0.8-1.7l0.3-4.5
				c0.1-1.1,0.4-1.6,0.8-1.9c0.6-0.4,1.6,0,3.1,0.7l0.2,0.1c-0.2-1.3-0.6-2.2-1.2-3.4c-0.5-1.1-1.1-2.5-1.8-4.6
				c-0.6-1.9-0.6-3,0-3.3c0.8-0.5,2.5,0.8,3.8,2.2c2.3,2.4,4.2,5.6,4.8,6.5c0.4-3.2-0.5-12-2.2-16.8l-0.6,1.6
				c-0.4,1.1-0.8,1.6-1.3,1.6c-0.5,0-1-0.5-1.6-1.6c-1.2-2.4-2.8-8.1-3.4-10.8c-0.2-0.8-0.1-1.5,0.3-1.9c0.3-0.3,0.8-0.4,1.5-0.3
				C48.4,140.9,49.4,141.5,49.9,141.8z"/>
			<path id="XMLID_4440_" class="st1" d="M49.8,166.3l0.3,0.2c8,6,10.3,19,9.3,25.8l0,0.2l-0.2-0.1c-1.5-1.2-2.6-1.6-3.3-1.1
				c-1,0.6-1,2.6-0.9,3.6c2.1,1.2,2.6,2.8,2.7,3.9c0.1,1.7-0.9,3.1-1.5,3.6l-0.2,0.1l0-0.2c0.1-2.8-3.2-5.6-6.4-6.4
				c-3-0.8-5.4,0.1-6.6,2.4c-0.1,0.2-0.1,0.5-0.1,1l0,0.2l-0.2-0.1c-1.8-0.8-3.7-0.8-5.5,0l-0.2,0.1l0-0.2c0-0.5,0-0.8-0.1-1
				c-1.2-2.3-3.6-3.2-6.6-2.4c-3.2,0.9-6.5,3.6-6.4,6.4l0,0.2l-0.2-0.1c-0.7-0.5-1.6-1.9-1.5-3.6c0-1.1,0.5-2.6,2.7-3.9
				c0.2-1,0.2-3-0.9-3.6c-0.7-0.4-1.9,0-3.3,1.1l-0.2,0.1l0-0.2c-1-6.8,1.3-19.8,9.3-25.8l0.3-0.2l-0.1,0.4
				c-3.1,7.8-2.4,16.1,1.7,20.3l0.2,0.2l-0.3-0.1c-1.4-0.2-2.5,0-3,0.7c-0.4,0.6-0.4,1.4,0,2.1c0.5,1.1,1.9,2.2,4.1,2.2
				c1.1,0,3-1.9,3-1.9l4.3-4.1l4.3,4.1c0,0,1.9,1.9,3,1.9c2.2,0,3.6-1.2,4.1-2.2c0.4-0.8,0.4-1.6,0-2.1c-0.5-0.7-1.6-0.9-3-0.7
				l-0.3,0.1l0.2-0.2c4.1-4.2,4.8-12.6,1.7-20.3L49.8,166.3z M59.2,192.1c0.9-6.7-1.3-19.1-8.9-25.2c2.9,7.6,2.2,15.7-1.7,20
				c1.4-0.2,2.4,0.1,2.9,0.8c0.5,0.6,0.5,1.5,0.1,2.4c-0.6,1.1-2,2.4-4.3,2.4c-1.2-0.1-3.1-1.9-3.1-2l-4.1-3.9l-4.1,3.9
				c-0.1,0.1-2,2-3.1,2c-2.3,0-3.8-1.2-4.3-2.4c-0.4-0.9-0.4-1.7,0.1-2.4c0.5-0.7,1.6-1,2.9-0.8c-3.9-4.3-4.6-12.4-1.7-20
				c-7.6,6-9.8,18.4-8.9,25.2c1.5-1.2,2.7-1.5,3.4-1c1.1,0.7,1.1,2.8,0.9,3.9l0,0.1l0,0c-1.6,0.9-2.5,2.2-2.6,3.7
				c-0.1,1.4,0.7,2.7,1.3,3.2c0.1-2.8,3.4-5.5,6.6-6.4c3.1-0.8,5.6,0.1,6.8,2.5c0.1,0.2,0.1,0.5,0.1,1c1.8-0.7,3.6-0.7,5.4,0
				c0-0.4,0-0.8,0.1-1c1.3-2.4,3.8-3.4,6.8-2.5c3.2,0.8,6.5,3.6,6.6,6.4c0.6-0.6,1.3-1.8,1.3-3.2c-0.1-1.5-1-2.8-2.6-3.7l0,0l0-0.1
				c-0.2-1.1-0.2-3.2,1-3.9C56.6,190.6,57.7,191,59.2,192.1z"/>
			<path id="XMLID_4437_" class="st1" d="M43,228l0,0.2c0,0.1-0.2,1.3,1.3,2.5l0.2,0.1l-0.2,0.1c0,0-1.6,0.6-1.9,1.5
				c0,0,0.2,0.1,0.4,0.2c0.8,0.4,2.5,1.1,3,3.4c0.2,1.5-1.1,5-1.9,6c-0.2,0.2-0.3,0.3-0.5,0.3l-0.1,0l0-0.2c0.3-1.5,0.5-2.9-0.4-3.5
				c-1-0.6-1.7,0.1-1.8,0.3c-0.2,0.2-0.6,1.8-0.9,2.8l-0.1,0.4l-0.1-0.4c-0.2-1-0.7-2.5-0.9-2.8c-0.2-0.2-0.9-0.9-1.8-0.3
				c-0.9,0.6-0.6,2-0.4,3.5l0,0.2l-0.1,0c-0.1,0-0.3-0.1-0.5-0.3c-0.8-1-2.2-4.5-1.9-6c0.4-2.3,2.2-3,3-3.4c0.2-0.1,0.4-0.2,0.4-0.2
				c-0.3-0.9-1.9-1.5-1.9-1.5l-0.2-0.1l0.2-0.1c1.5-1.2,1.3-2.4,1.3-2.5l0-0.2l0.2,0.1c1.8,0.8,3.7,0.8,5.5,0L43,228z M43.9,230.8
				c-1.2-1-1.3-2-1.3-2.4c-1.8,0.8-3.6,0.8-5.3,0c0,0.4-0.1,1.4-1.3,2.4c0.4,0.2,1.6,0.8,1.9,1.6l0,0c0.1,0.2-0.2,0.3-0.6,0.5
				c-0.8,0.4-2.4,1.1-2.9,3.2c-0.2,1.4,1.1,4.9,1.9,5.8c0.1,0.1,0.1,0.1,0.2,0.2c-0.3-1.5-0.5-2.9,0.5-3.5c1.1-0.7,1.9,0.1,2.1,0.4
				c0.2,0.3,0.6,1.7,0.8,2.4c0.2-0.7,0.6-2.2,0.8-2.4c0.2-0.3,1-1.1,2.1-0.4c1,0.6,0.8,2,0.5,3.5c0,0,0.1-0.1,0.2-0.2
				c0.8-0.9,2.1-4.4,1.9-5.8c-0.4-2.1-2-2.8-2.9-3.2c-0.4-0.2-0.6-0.3-0.6-0.5C42.3,231.6,43.5,231,43.9,230.8z"/>
			<path id="XMLID_4434_" class="st1" d="M41.9,198.8c0.3,0.1,0.7,0.2,1,0.3l0.1,0l0,0.1c0,1.3,0.4,3.3,0.4,3.3
				c1.5,7.2,0.8,20.9-0.4,25.7l0,0.1l0,0c-1.9,0.9-3.8,0.9-5.7,0l0,0l0-0.1c-1.2-4.8-1.9-18.5-0.4-25.7c0-0.1,0.4-2,0.4-3.3l0-0.1
				l0.1,0C38.7,198.5,40.3,198.4,41.9,198.8z M42.7,199.3c-1.8-0.7-3.6-0.7-5.4,0c0,1.4-0.4,3.3-0.4,3.3l0,0
				c-1.4,7.1-0.8,20.7,0.4,25.6c1.8,0.8,3.6,0.8,5.4,0c1.2-4.8,1.8-18.4,0.4-25.6C43.1,202.5,42.8,200.6,42.7,199.3z"/>
		</g>
	</g>
</g>
</svg>
