<?xml version="1.0" encoding="utf-8"?>
<!-- Generator: Adobe Illustrator 19.0.0, SVG Export Plug-In . SVG Version: 6.00 Build 0)  -->
<svg version="1.1" id="Capa_1" xmlns="http://www.w3.org/2000/svg" xmlns:xlink="http://www.w3.org/1999/xlink" x="0px" y="0px"
	 viewBox="0 0 172.9 269.3" style="enable-background:new 0 0 172.9 269.3;" xml:space="preserve">
<style type="text/css">
	.st0{fill:#FFFFFF;}
	.st1{fill:url(#XMLID_2_);}
	.st2{fill:#F07E1A;}
	.st3{fill:url(#XMLID_3_);}
	.st4{fill:url(#XMLID_4_);}
	.st5{fill:#010202;}
</style>
<rect id="XMLID_8960_" x="0" y="0" class="st0" width="172.9" height="269.3"/>
<g id="XMLID_5775_">
	<g id="XMLID_4875_">
		<polygon id="XMLID_4883_" points="99.3,66.7 103.1,64.4 99.3,62.2 102.8,59.5 98.7,57.8 101.9,54.7 97.6,53.6 100.3,50.1 
			95.9,49.5 98.1,45.6 93.7,45.6 95.4,41.5 91,42.1 92.1,37.9 87.9,39 88.4,34.6 84.3,36.3 84.3,31.9 80.5,34.1 79.9,29.7 
			76.4,32.4 75.3,28.1 72.1,31.2 70.4,27.2 67.8,30.7 65.5,26.8 63.3,30.7 60.6,27.2 58.9,31.2 55.8,28.1 54.7,32.4 51.1,29.7 
			50.6,34.1 46.7,31.9 46.7,36.3 42.6,34.6 43.2,39 38.9,37.9 40.1,42.1 35.7,41.5 37.4,45.6 33,45.6 35.2,49.5 30.8,50.1 
			33.5,53.6 29.2,54.7 32.3,57.8 28.3,59.5 31.8,62.2 27.9,64.4 31.8,66.7 28.3,69.3 32.3,71 29.2,74.2 33.5,75.3 30.8,78.8 
			35.2,79.4 33,83.2 37.4,83.2 35.7,87.3 40.1,86.8 38.9,91 43.2,89.9 42.6,94.3 46.7,92.6 46.7,97 50.6,94.8 51.1,99.2 54.7,96.5 
			55.8,100.8 58.9,97.6 60.6,101.7 63.3,98.2 65.5,102 67.8,98.2 70.4,101.7 72.1,97.6 75.3,100.8 76.4,96.5 79.9,99.2 80.5,94.8 
			84.3,97 84.3,92.6 88.4,94.3 87.9,89.9 92.1,91 91,86.8 95.4,87.3 93.7,83.2 98.1,83.2 95.9,79.4 100.3,78.8 97.6,75.3 
			101.9,74.2 98.7,71 102.8,69.3 		"/>
		<radialGradient id="XMLID_2_" cx="65.5379" cy="64.4407" r="32.2921" gradientUnits="userSpaceOnUse">
			<stop  offset="0" style="stop-color:#F7A516"/>
			<stop  offset="1" style="stop-color:#F0E400"/>
		</radialGradient>
		<circle id="XMLID_4882_" class="st1" cx="65.5" cy="64.4" r="32.3"/>
		<g id="XMLID_4876_">
			<path id="XMLID_4877_" class="st2" d="M84.7,50c0,0,1.8-0.8,0.8-2.6c0,0,0.4,1.8-1,1.8c0,0-1,0-1.2-0.6c0,0,1.6,0,1-1.6
				c0,0,0.2,1.1-1.2,1.1c0,0-0.8,0.1-1.3-0.6c0,0,2.1-0.4,0.8-2.3c0,0,0.1,1.3-0.9,1.4c0,0-1.2-0.2-1.7,0.6c0,0-2.3-2-5,0
				c0,0-2.7,2-2.6,5.5c0,0,0.1,1.5,0.5,3.1c0,0,0.6,2.2,1.2,2.8l0.5,0.3c0,0-3.1-0.7-3.3,1.6c0,0-0.1,0.9,0.5,1.7
				c0,0-0.2-1.1,0.7-1.4c0,0,0.9-0.2,1,0.3c0,0-1.2,0.8-0.3,2c0,0-0.3-1.7,1.6-1.1c0,0-1.3,0.9-0.2,1.9c0,0-0.2-1.4,0.6-1.5
				c0,0,0.3,0.5,1.1,0.2l1,1.9c0,0-1.7,0.2-1.7,2.1c0,0,0.3-0.6,1-0.6c0,0-0.2,1.2-2.2,1c0,0-1.2-0.1-0.6-2c0,0-0.8,0.5-0.8,2.3
				c0,0-0.2,1.2,1.6,1.3c0,0,0.8,0,1.5-0.1c0,0,1.4,0.1,1.2,1.6c0,0-0.4,1.5-2.8,1.5c0,0-2.6,0.2-2.9-1.7c0,0-0.1-1.3-0.8-2.1
				c0,0-1.6-3.1-2.3-7c0,0-0.9,0.5-1.5-0.4c0,0,1.8,1,2.2-1c0,0,0.3-1.3-0.6-1.5l0-0.7c0,0-0.8-0.5-0.9-1.9c0,0,0.3,1.9,2.1,1.9
				c0,0,0.9-0.1,1-0.9c0,0-1.3,0.8-1.6-0.4c0,0-0.2-0.5,0.1-1.1c0,0,0.3-0.8-0.2-1.4c0,0-0.6-0.4-0.4-1.7c0,0,0.2,2.6,2.2,2.5
				c0,0-0.4-0.1-0.4-0.9l0-1.2c0,0-0.4,0-0.6-0.3c0,0,1.4,0.3,1.7-0.6c0,0,0.5-1.1-0.7-1.7c0,0,0.4,0.1,0.8-0.2c0,0-1-0.8-1-2.1
				c0,0,0.6,0.3,1.4-0.3c0,0-1.3,0.1-1.6-1.2c0,0,0.7,0.2,1.1-0.1c0,0-0.7-0.3-0.8-0.8c0,0,0-0.6-0.9-0.6c0,0,0.8-0.6,0.1-1.4
				c0,0,0,0.8-0.9,0.9c0,0,0.6-1.2-0.3-1.8c0,0,0.6,1.3-0.7,1.5c0,0,0.7-1.4-0.6-1.9c0,0,0.6,0.9-0.1,1.4c0,0-2.5-0.3-3.1-0.1
				l-0.9,0.9c0,0-2.3,0-2.6,0.6c0,0,0.1,1.6,0.5,2.4c-0.3,0-0.6,0-0.9,0c0,0-1.8-0.2-0.9-1.1l0.1-0.1c0,0-1.5-1.2-2.1,0.3
				c0,0-0.4,1.5,1.4,1.7c0,0,0,0,0,0c1.8,0.2,2.6-0.5,2.6-0.5s0.6-0.2,1.6,0c0,0,0.4,0.7-0.3,0.7c0,0-0.4,0.1-0.4-0.5
				c0,0-0.2-0.1-0.4,0.3c0,0-0.5,0.4-0.5-0.2c0,0-0.7,0.1-0.7,1.8c0,0,2.9-1.1,3.1,0.8c0,0-0.4-0.9-1.3-0.8c0,0-0.2,1-1.2,0.9
				c0,0-2.2-0.9-3.1,0.6c0,0-0.5,0.6-0.7,1.5c0,0-0.1,0.5-0.6,0.5c0,0-0.4,0-0.5-0.6c0,0-0.3,0.4,0.4,1.1c0,0-1-0.5-0.3-1.6
				c0,0-0.1,0.8,0.4,0.9c0,0,0.4,0,0.4-0.4c0,0,0.2-1.1,0.7-1.6l0-0.2l-0.1-0.2l-0.3,0l-0.1-0.7l-0.3,0.2l-0.3-0.5l-0.1,0l-0.1-0.4
				l-0.2,0.1l-0.1-0.2l-0.2-0.1L56.6,48l-0.1-0.4l-0.3,0v-0.4l-0.1,0l-0.1-0.1v-0.6l-0.3,0.3l-0.3-0.5v-0.5L55.1,46l-0.4-0.5
				c0,0,0.6-4.2-0.4-5.4c0,0,0.1-1-0.9-1c0,0,0.4,0.3,0.4,0.7c0,0-0.6-0.3-0.8,0c0,0,0.6,0.4,0.3,1.3c0,0,0.1-0.8-0.5-1.4
				c0,0,0.1-1.1-1.1-0.6c0,0,0.6,0,0.6,0.5c0,0,0,0,0,0.1c0,0-0.4,0.3-0.5,0.7c0,0,0.5,0.3,0.4,1.1c0,0-0.3-0.9-1.1-1.2
				c0,0-0.8-0.5-1.2,0.3c0,0,0.8-0.3,0.9,0.3c0,0-0.8,1.1,1.1,2.2c0,0-0.3,0.3-0.3,1.1c0,0-0.2-0.2-0.6,0c0,0-0.2-0.5,0.3-0.9
				c0,0-1.2,0.1-0.6,1.5c0,0-0.3,1.3,1.2,1.9c0,0-1.6-0.3-1.5,0.8c0,0,0.7-0.6,1.3,0.1c0,0,0.3,0.4,0.8,0.4c0,0-1.4,1.1,0.1,1.9
				c0,0,0-1,1.1-0.8c0,0-0.3,0.8,0.4,1.5c0,0-0.6,0.5,0.2,1.4c0,0,0-0.6,0.3-0.6c0,0,0.4,0.1,0.4,0.8c0,0-1.6,2.1-1.7,0.3
				c0,0-0.8,1.1,0.6,1.3c0,0,0.4,0,1.1-0.6c0,0,0.5-0.4,0.6,0.1c0,0,0,0,0,0.1c0,0.6-0.3,0.6-0.9,0.5c0,0,0,1.1,2,0.7
				c0,0,0.4,0.2-0.5,0.3c0,0-1.1,0-1.1,1c0,0,0.5-0.7,0.9-0.3c0,0,0.2,0.5-0.7,0.8c0,0-0.8,0.2-1.3-0.8c0,0-0.3,1,1.1,1.2
				c0,0,0,0.3-1.4,0.2l0.4,0.3L53.3,57c0,0-0.3-0.1-0.1,0.3c0,0-0.3-0.3-0.6-0.1c0,0,0.6,0.3-0.2,0.4c0,0-3.3-0.5-4-1.2
				c0,0-0.8-0.5-1.8-0.1c0,0-1.1-0.6-1.2,0.6c0,0,0.2-0.3,0.8-0.2c0,0-0.2,0.4,0.3,0.4c0,0,0.6,0,0.8,0.1c0,0-0.8-0.1-1.4,0.2
				c0,0-0.8-0.1-0.6,1.3c0,0,0-0.6,0.6-0.6c0,0,0.3,0.2-0.1,0.7c0,0-0.9,0.9,0.2,1.6c0,0-0.3-0.7,0.2-0.9c0,0,0.3,0.7,1.3,0
				c0,0,0.9,0.2,1.1-0.2c0,0,0.6-0.3,0.7,0.1c0,0,0,0,0,0.1c0,0-0.7-0.2-0.7,0.3c0,0-0.4,0.9-1,0.2c0,0-0.1,1.1,1.1,0.7
				c0,0,1.6,0.4,2.4-1c0,0,0.3,0.8-0.6,1.4c0,0,0.7,0.2,1.7-0.8c0,0-0.5,1.3,2,0.8c0,0-0.8-0.1-0.8-1c0,0,0.1-0.7,0.8,0
				c0,0,0.8,0.9,1.6,0.7c0,0-0.3-0.1-0.2-0.8c0,0,0-0.4,0.6-0.4c0,0,0.5-0.1,0.4,0.5c0,0,0,0.6-0.5,0.8c0,0,1,0.6,1.3-0.6
				c0,0,0-0.6,0.7-0.5c0,0,0.6,0.1,0,0.9c0,0,0.5,0,0.7-1.1c0,0,0.1-0.8,0.5-0.1l0,0.1c0.1,0.4-0.4,0.6-0.4,0.6
				c0.5,0,0.6-0.4,0.6-0.4c0.3-0.3,0-0.8,0-0.8c0.5,0.4,0.1,1,0.1,1c0.8,2.1,3.4,4.2,3.4,4.2c2.3,1.7,2.6,3.5,2.6,3.5
				c0.3,1.7-0.5,2.5-0.5,2.5c0.5-0.8,0.3-1.9,0.3-1.9c-1-0.3-2.5-1.6-2.5-1.6l0.2,0.4c-0.8-0.5-2.2-0.3-2.2-0.3
				c-0.8,0.2-1.8-0.2-1.8-0.2c1.1,0.5-0.5,0.7-0.5,0.7c-1,0.1-2.2-0.4-2.2-0.4c0.2,0.7,1.4,0.7,1.4,0.7c-1.2,0.3-1.4,1.1-1.4,1.1
				c-0.7,1.1-1.6,1-1.6,1c-1,0-0.8-1.1-0.8-1.1C53.9,68.6,54,69,54,69c-0.3,0-0.6-0.5-0.6-0.5c0,1.1,1.7,1.8,1.7,1.8
				c-0.1,1.3-1.6,1.3-1.6,1.3c1.6,0.7,2.6-0.2,2.6-0.2c-0.1,0.7-1,1.4-1,1.4c0.6,0,1.1-0.6,1.1-0.6c0,1.2-0.7,1.7-0.7,1.7
				c0.4,0,0.7-0.5,0.7-0.5c-0.2,0.8-0.5,0.9-0.5,0.9c0.4,0.1,0.6-0.1,0.6-0.1c0,0.6-0.4,0.8-0.4,0.8c0.7,0,1.1-0.5,1.1-0.5
				c0.4,0.2,0.3,0.6,0.3,0.6c-0.3,1.3-2.1,1.1-2.1,1.1c-1.9,0.1-2.6,1.5-2.6,1.5c-0.9,1-0.5,1.6-0.5,1.6c0.3-0.9,1.5-1.4,1.5-1.4
				c-0.7,0.4-1.1,1.2-1.1,1.2c-0.4,1.1,0.3,1.3,0.3,1.3c0-0.6,0.2-0.8,0.2-0.8c0.4,0.2,0.5-0.1,0.5-0.1c0.3-1.1,1-1,1-1
				c-0.8,0.3-0.9,1.2-0.9,1.2c-0.1,1.5,1,1.6,1,1.6c-0.5-0.3-0.3-0.8-0.3-0.8c1.3-0.1,1.6-1.1,1.6-1.1c0.1-0.4,0.7-0.5,0.7-0.5
				c-0.5,0.4,0,1,0,1c-0.1,0.7-1,0.7-1,0.7c1,0.5,1.6-0.3,1.6-0.3c1.3-0.1,1.6-1.6,1.6-1.6c0.1-0.8,1-1.1,1-1.1
				c-0.5,1.5,0.5,2,0.5,2c-0.2-1,0.5-1.2,0.5-1.2c1-0.3,0.9-1.2,0.9-1.2c0.3,0.7,0.8,0.4,0.8,0.4c-0.2-0.2-0.2-0.6-0.2-0.6
				c0-1.5-1-1.7-1-1.7c-0.6-0.1-0.9-0.8-0.9-0.8c1.2,0.9,1.9,0.5,1.9,0.5c-0.5,0-0.4-0.3-0.4-0.3c0.2-0.6-0.1-1.3-0.1-1.3
				c-0.6-0.5-0.4-0.9-0.4-0.9c1-0.1,0.8,1,0.8,1c1.1-0.1,0.9-1.3,0.9-1.3c0.5,0.7,0.9,0.3,0.9,0.3c0.3-0.6,0.7-0.8,0.7-0.8
				c-0.9,1.2-1.2,3.1-1.2,3.1c0.8-0.6-0.2,1.5-0.2,1.5c1.1-0.5,0,1.5,0,1.5c0.6-0.4,0.4,0.4,0.4,0.4l-0.5,0.8
				c0.2-0.3,0.5-0.1,0.5-0.1C63,80,61.6,80,61.6,80c0.7,0.3,1.1,0,1.1,0c0,0.4-0.7,1-0.7,1c0.7-0.2,1.1-1,1.1-1
				c0.6-0.2,1.5-1.6,1.5-1.6c0,0.4,0.3,0.5,0.3,0.5l0.1,0.2h0.2l0,0.7c0-0.2,0.4-0.1,0.4-0.1l0,0.7c0.3-0.5,0.6-0.2,0.6-0.2l0,0.6
				l0.4-0.1l0.1,0.7l0.3-0.2l0,0.6l0.3,0c-0.1,2.2-1.1,2.7-1.1,2.7c-3,1.5-2.7,2.3-2.7,2.3c-0.9,0.9-0.1,1.6-0.1,1.6
				c0-0.7,0.6-1.1,0.6-1.1l0,0c0.1-0.3,0.7-0.5,0.7-0.5c-0.8,0.6-0.8,1-0.8,1c0,0.2,0.1,0.4,0.1,0.4c-0.6,0.9,0.5,1.4,0.5,1.4
				c-0.3-0.5,0-1,0-1c0.2,0,0.4,0,0.4,0v-0.1c-0.1-1.1,0.7-1.3,0.7-1.3c-0.7,0.7-0.5,1.3-0.5,1.3s0.3,1.7,1.6,1.3
				c0,0-0.6-0.2-0.7-0.6l0.1,0c0.8-0.3,1.2-1.4,1.2-1.4c1.1,0,1-1,1-1c0.1-0.6,0.7-0.9,0.7-0.9c-0.4,1,0.1,1.2,0.1,1.2
				c0,0.9-0.6,1-0.6,1c1.1,0,1.2-1,1.2-1c1.2-0.5,0.6-2,0.6-2c0.9-0.1,0.7,0.9,0.7,0.9c1.2-0.8,0.9-1.8,0.9-1.8
				c-0.6-0.8,0-0.9,0-0.9c1,0,0.5,1.3,0.5,1.3c0.9-0.3,0.9-1.4,0.9-1.4c1.3-0.4,1.2-1.8,1.2-1.8s-0.7,1.2-1.5,0.1
				c0,0-0.4-0.5,0.9-0.7c0,0,0-0.9-1.6-0.9c0,0-0.8,0-0.8-0.7c0,0,0-0.7,1.1,0.2c0,0,0.1-1.3-1.3-1.3c0,0-0.3,0.1-0.4-0.2
				c0,0,0.9-0.2,1-1.6c0,0-1.8,1.4-2.1-0.6c0,0-0.1-0.6,0.5-0.6c0,0,0.5-0.1,0.5,0.8c0,0,0.9-0.8,0.1-1.4c0,0,0.8-0.4,0.6-1.3
				c0,0-0.7,1.4-1.3,0.3c0,0-0.2-0.2,0.3-0.6c0,0,0.7-0.6,0.7-1.6c0,0,0.1,0,0.1,0.6c0,0,1.2,1.4,3.7,1c0,0,2.5-0.6,3.5-2.5
				c0,0,1.3,0.2,2.1-0.4c0,0-0.5-0.3,0.1-0.7c0,0,0.6-0.2,0.9-0.8c0,0-0.6,0.5-0.6,0c0,0,0.4-2-0.9-2.3c0,0-0.6-1.9-2.3-1.6
				c0,0,0.2-0.1,0.6-0.3c0,0-1.9-2.6-0.7-4.3c0,0-1.1-0.4-0.9-1.3c0,0-0.1-1.1,1.2-1.2c0,0,0.9,0,0.9,1c0,0,0,0.7-0.7,1
				c0,0,1.1,0,1.2-1.5c0,0,0.2-2-2.1-2c0,0-2.1,0-2.7,2.1l0-1c0,0-0.8-2-0.9-3.8c0,0-1-6.2,4.7-5.8c0,0-0.4,1.8-1.3,2.3
				c0,0-1,0.2-0.8-1.1c0,0-1.2,1.5,0.8,1.8c0,0,0.9,0.2,1.8-1c0,0,0.6,0.7,0.5,1.7c0,0-0.3,0.9-1,0.9c0,0-0.5-0.1-0.3-1.1
				c0,0-0.8,0.2-0.8,1.3c0,0-0.1,1,1.7,0.9c0,0-0.9,2.8,1.7,2.9c0,0-1.2-0.6-0.4-2v0c0,0,1.1-0.5,0.9-1.9c0,0,0.9,0.3,0.9,1.2
				c0,0-0.1,0.9-1.3,0.8c0,0,1.7,1.6,2.8-1.4c0,0,0.3-1-0.3-1.5c0,0,0.6,0,1-0.5c0,0,0.8,0.1,0.8,0.9c0,0-0.1,0.8-0.6,0.9
				c0,0,1.1,0.1,0.9-2C85.4,50.8,85.4,50.1,84.7,50z M61.5,46.4c0.1-0.2,0.3-0.5,0.7-0.1c0,0,0.1-0.9,0.7-0.9c0,0,0.3,0,0.3,0.7
				C63.2,46.2,62.4,46.4,61.5,46.4z M64.1,43.9l0.1-0.6c0.5-0.1,0.9,0.5,0.9,0.5C64.9,44,64.1,43.9,64.1,43.9z M66.7,45.5
				c1.7,0.4,2.7-1,2.7-1c-0.8,0-1.4-0.4-1.4-0.4c-0.8-0.7-1.7,0.4-1.7,0.4c0.8-1.3,1.8-0.5,1.8-0.5c0.5,0.4,1.6,0.4,1.6,0.4
				C68.3,46.4,66.7,45.5,66.7,45.5z"/>
		</g>
	</g>
	<g id="XMLID_4866_">
		<polygon id="XMLID_4874_" points="99.3,207.1 103.1,204.9 99.3,202.6 102.8,199.9 98.7,198.2 101.9,195.1 97.6,194 100.3,190.5 
			95.9,189.9 98.1,186 93.7,186 95.4,182 91,182.5 92.1,178.3 87.9,179.4 88.4,175 84.3,176.7 84.3,172.3 80.5,174.5 79.9,170.1 
			76.4,172.8 75.3,168.5 72.1,171.7 70.4,167.6 67.8,171.1 65.5,167.2 63.3,171.1 60.6,167.6 58.9,171.7 55.8,168.5 54.7,172.8 
			51.1,170.1 50.6,174.5 46.7,172.3 46.7,176.7 42.6,175 43.2,179.4 38.9,178.3 40.1,182.5 35.7,182 37.4,186 33,186 35.2,189.9 
			30.8,190.5 33.5,194 29.2,195.1 32.3,198.2 28.3,199.9 31.8,202.6 27.9,204.9 31.8,207.1 28.3,209.8 32.3,211.5 29.2,214.6 
			33.5,215.7 30.8,219.2 35.2,219.8 33,223.7 37.4,223.7 35.7,227.7 40.1,227.2 38.9,231.4 43.2,230.3 42.6,234.7 46.7,233 
			46.7,237.4 50.6,235.2 51.1,239.6 54.7,236.9 55.8,241.2 58.9,238 60.6,242.1 63.3,238.6 65.5,242.5 67.8,238.6 70.4,242.1 
			72.1,238 75.3,241.2 76.4,236.9 79.9,239.6 80.5,235.2 84.3,237.4 84.3,233 88.4,234.7 87.9,230.3 92.1,231.4 91,227.2 
			95.4,227.7 93.7,223.7 98.1,223.7 95.9,219.8 100.3,219.2 97.6,215.7 101.9,214.6 98.7,211.5 102.8,209.8 		"/>
		<radialGradient id="XMLID_3_" cx="65.5379" cy="204.851" r="32.2921" gradientUnits="userSpaceOnUse">
			<stop  offset="0" style="stop-color:#F7A516"/>
			<stop  offset="1" style="stop-color:#F0E400"/>
		</radialGradient>
		<circle id="XMLID_4873_" class="st3" cx="65.5" cy="204.9" r="32.3"/>
		<g id="XMLID_4867_">
			<path id="XMLID_4868_" class="st2" d="M84.7,190.4c0,0,1.8-0.8,0.8-2.6c0,0,0.4,1.8-1,1.8c0,0-1,0-1.2-0.6c0,0,1.6,0,1-1.6
				c0,0,0.2,1.1-1.2,1.1c0,0-0.8,0.1-1.3-0.6c0,0,2.1-0.4,0.8-2.3c0,0,0.1,1.3-0.9,1.4c0,0-1.2-0.2-1.7,0.6c0,0-2.3-2-5,0
				c0,0-2.7,2-2.6,5.5c0,0,0.1,1.5,0.5,3.1c0,0,0.6,2.2,1.2,2.8l0.5,0.3c0,0-3.1-0.7-3.3,1.6c0,0-0.1,0.9,0.5,1.7
				c0,0-0.2-1.1,0.7-1.4c0,0,0.9-0.2,1,0.3c0,0-1.2,0.8-0.3,2c0,0-0.3-1.7,1.6-1.1c0,0-1.3,0.9-0.2,1.9c0,0-0.2-1.4,0.6-1.5
				c0,0,0.3,0.5,1.1,0.2l1,1.9c0,0-1.7,0.2-1.7,2.1c0,0,0.3-0.6,1-0.6c0,0-0.2,1.2-2.2,1c0,0-1.2-0.1-0.6-2c0,0-0.8,0.5-0.8,2.3
				c0,0-0.2,1.2,1.6,1.3c0,0,0.8,0,1.5-0.1c0,0,1.4,0.1,1.2,1.6c0,0-0.4,1.5-2.8,1.5c0,0-2.6,0.2-2.9-1.7c0,0-0.1-1.3-0.8-2.1
				c0,0-1.6-3.1-2.3-7c0,0-0.9,0.5-1.5-0.4c0,0,1.8,1,2.2-1c0,0,0.3-1.3-0.6-1.5l0-0.7c0,0-0.8-0.5-0.9-1.9c0,0,0.3,1.9,2.1,1.9
				c0,0,0.9-0.1,1-0.9c0,0-1.3,0.8-1.6-0.4c0,0-0.2-0.5,0.1-1.1c0,0,0.3-0.8-0.2-1.4c0,0-0.6-0.4-0.4-1.7c0,0,0.2,2.6,2.2,2.5
				c0,0-0.4-0.1-0.4-0.9l0-1.2c0,0-0.4,0-0.6-0.3c0,0,1.4,0.3,1.7-0.6c0,0,0.5-1.1-0.7-1.7c0,0,0.4,0.1,0.8-0.2c0,0-1-0.8-1-2.1
				c0,0,0.6,0.3,1.4-0.3c0,0-1.3,0.1-1.6-1.2c0,0,0.7,0.2,1.1-0.1c0,0-0.7-0.3-0.8-0.8c0,0,0-0.6-0.9-0.6c0,0,0.8-0.6,0.1-1.4
				c0,0,0,0.8-0.9,0.9c0,0,0.6-1.2-0.3-1.8c0,0,0.6,1.3-0.7,1.5c0,0,0.7-1.4-0.6-1.9c0,0,0.6,0.9-0.1,1.4c0,0-2.5-0.3-3.1-0.1
				l-0.9,0.9c0,0-2.3,0-2.6,0.6c0,0,0.1,1.6,0.5,2.4c-0.3,0-0.6,0-0.9,0c0,0-1.8-0.2-0.9-1.1l0.1-0.1c0,0-1.5-1.2-2.1,0.3
				c0,0-0.4,1.5,1.4,1.7c0,0,0,0,0,0c1.8,0.2,2.6-0.5,2.6-0.5s0.6-0.2,1.6,0c0,0,0.4,0.7-0.3,0.7c0,0-0.4,0.1-0.4-0.5
				c0,0-0.2-0.1-0.4,0.3c0,0-0.5,0.4-0.5-0.2c0,0-0.7,0.1-0.7,1.8c0,0,2.9-1.1,3.1,0.8c0,0-0.4-0.9-1.3-0.8c0,0-0.2,1-1.2,0.9
				c0,0-2.2-0.9-3.1,0.6c0,0-0.5,0.6-0.7,1.5c0,0-0.1,0.5-0.6,0.5c0,0-0.4,0-0.5-0.6c0,0-0.3,0.4,0.4,1.1c0,0-1-0.5-0.3-1.6
				c0,0-0.1,0.8,0.4,0.9c0,0,0.4,0,0.4-0.4c0,0,0.2-1.1,0.7-1.6l0-0.2l-0.1-0.2l-0.3,0l-0.1-0.7l-0.3,0.2l-0.3-0.5l-0.1,0l-0.1-0.4
				l-0.2,0.1l-0.1-0.2l-0.2-0.1l-0.1-0.1l-0.1-0.4l-0.3,0v-0.4l-0.1,0l-0.1-0.1V187l-0.3,0.3l-0.3-0.5v-0.5l-0.2,0.2l-0.4-0.5
				c0,0,0.6-4.2-0.4-5.4c0,0,0.1-1-0.9-1c0,0,0.4,0.3,0.4,0.7c0,0-0.6-0.3-0.8,0c0,0,0.6,0.4,0.3,1.3c0,0,0.1-0.8-0.5-1.4
				c0,0,0.1-1.1-1.1-0.6c0,0,0.6,0,0.6,0.5c0,0,0,0,0,0.1c0,0-0.4,0.3-0.5,0.7c0,0,0.5,0.3,0.4,1.1c0,0-0.3-0.9-1.1-1.2
				c0,0-0.8-0.5-1.2,0.3c0,0,0.8-0.3,0.9,0.3c0,0-0.8,1.1,1.1,2.2c0,0-0.3,0.3-0.3,1.1c0,0-0.2-0.2-0.6,0c0,0-0.2-0.5,0.3-0.9
				c0,0-1.2,0.1-0.6,1.5c0,0-0.3,1.3,1.2,1.9c0,0-1.6-0.3-1.5,0.8c0,0,0.7-0.6,1.3,0.1c0,0,0.3,0.4,0.8,0.4c0,0-1.4,1.1,0.1,1.9
				c0,0,0-1,1.1-0.8c0,0-0.3,0.8,0.4,1.5c0,0-0.6,0.5,0.2,1.4c0,0,0-0.6,0.3-0.6c0,0,0.4,0.1,0.4,0.8c0,0-1.6,2.1-1.7,0.3
				c0,0-0.8,1.1,0.6,1.3c0,0,0.4,0,1.1-0.6c0,0,0.5-0.4,0.6,0.1c0,0,0,0,0,0.1c0,0.6-0.3,0.6-0.9,0.5c0,0,0,1.1,2,0.7
				c0,0,0.4,0.2-0.5,0.3c0,0-1.1,0-1.1,1c0,0,0.5-0.7,0.9-0.3c0,0,0.2,0.5-0.7,0.8c0,0-0.8,0.2-1.3-0.8c0,0-0.3,1,1.1,1.2
				c0,0,0,0.3-1.4,0.2l0.4,0.3l-0.7-0.1c0,0-0.3-0.1-0.1,0.3c0,0-0.3-0.3-0.6-0.1c0,0,0.6,0.3-0.2,0.4c0,0-3.3-0.5-4-1.2
				c0,0-0.8-0.5-1.8-0.1c0,0-1.1-0.6-1.2,0.6c0,0,0.2-0.3,0.8-0.2c0,0-0.2,0.4,0.3,0.4c0,0,0.6,0,0.8,0.1c0,0-0.8-0.1-1.4,0.2
				c0,0-0.8-0.1-0.6,1.3c0,0,0-0.6,0.6-0.6c0,0,0.3,0.2-0.1,0.7c0,0-0.9,0.9,0.2,1.6c0,0-0.3-0.7,0.2-0.9c0,0,0.3,0.7,1.3,0
				c0,0,0.9,0.2,1.1-0.2c0,0,0.6-0.3,0.7,0.1c0,0,0,0,0,0.1c0,0-0.7-0.2-0.7,0.3c0,0-0.4,0.9-1,0.2c0,0-0.1,1.1,1.1,0.7
				c0,0,1.6,0.4,2.4-1c0,0,0.3,0.8-0.6,1.4c0,0,0.7,0.2,1.7-0.8c0,0-0.5,1.3,2,0.8c0,0-0.8-0.1-0.8-1c0,0,0.1-0.7,0.8,0
				c0,0,0.8,0.9,1.6,0.7c0,0-0.3-0.1-0.2-0.8c0,0,0-0.4,0.6-0.4c0,0,0.5-0.1,0.4,0.5c0,0,0,0.6-0.5,0.8c0,0,1,0.6,1.3-0.6
				c0,0,0-0.6,0.7-0.5c0,0,0.6,0.1,0,0.9c0,0,0.5,0,0.7-1.1c0,0,0.1-0.8,0.5-0.1l0,0.1c0.1,0.4-0.4,0.6-0.4,0.6
				c0.5,0,0.6-0.4,0.6-0.4c0.3-0.3,0-0.8,0-0.8c0.5,0.4,0.1,1,0.1,1c0.8,2.1,3.4,4.2,3.4,4.2c2.3,1.7,2.6,3.5,2.6,3.5
				c0.3,1.7-0.5,2.5-0.5,2.5c0.5-0.8,0.3-1.9,0.3-1.9c-1-0.3-2.5-1.6-2.5-1.6l0.2,0.4c-0.8-0.5-2.2-0.3-2.2-0.3
				c-0.8,0.2-1.8-0.2-1.8-0.2c1.1,0.5-0.5,0.7-0.5,0.7c-1,0.1-2.2-0.4-2.2-0.4c0.2,0.7,1.4,0.7,1.4,0.7c-1.2,0.3-1.4,1.1-1.4,1.1
				c-0.7,1.1-1.6,1-1.6,1c-1,0-0.8-1.1-0.8-1.1c-0.3,0.3-0.2,0.6-0.2,0.6c-0.3,0-0.6-0.5-0.6-0.5c0,1.1,1.7,1.8,1.7,1.8
				c-0.1,1.3-1.6,1.3-1.6,1.3c1.6,0.7,2.6-0.2,2.6-0.2c-0.1,0.7-1,1.4-1,1.4c0.6,0,1.1-0.6,1.1-0.6c0,1.2-0.7,1.7-0.7,1.7
				c0.4,0,0.7-0.5,0.7-0.5c-0.2,0.8-0.5,0.9-0.5,0.9c0.4,0.1,0.6-0.1,0.6-0.1c0,0.6-0.4,0.8-0.4,0.8c0.7,0,1.1-0.5,1.1-0.5
				c0.4,0.2,0.3,0.6,0.3,0.6c-0.3,1.3-2.1,1.1-2.1,1.1c-1.9,0.1-2.6,1.5-2.6,1.5c-0.9,1-0.5,1.6-0.5,1.6c0.3-0.9,1.5-1.4,1.5-1.4
				c-0.7,0.4-1.1,1.2-1.1,1.2c-0.4,1.1,0.3,1.3,0.3,1.3c0-0.6,0.2-0.8,0.2-0.8c0.4,0.2,0.5-0.1,0.5-0.1c0.3-1.1,1-1,1-1
				c-0.8,0.3-0.9,1.2-0.9,1.2c-0.1,1.5,1,1.6,1,1.6c-0.5-0.3-0.3-0.8-0.3-0.8c1.3-0.1,1.6-1.1,1.6-1.1c0.1-0.4,0.7-0.5,0.7-0.5
				c-0.5,0.4,0,1,0,1c-0.1,0.7-1,0.7-1,0.7c1,0.5,1.6-0.3,1.6-0.3c1.3-0.1,1.6-1.6,1.6-1.6c0.1-0.8,1-1.1,1-1.1
				c-0.5,1.5,0.5,2,0.5,2c-0.2-1,0.5-1.2,0.5-1.2c1-0.3,0.9-1.2,0.9-1.2c0.3,0.7,0.8,0.4,0.8,0.4c-0.2-0.2-0.2-0.6-0.2-0.6
				c0-1.5-1-1.7-1-1.7c-0.6-0.1-0.9-0.8-0.9-0.8c1.2,0.9,1.9,0.5,1.9,0.5c-0.5,0-0.4-0.3-0.4-0.3c0.2-0.6-0.1-1.3-0.1-1.3
				c-0.6-0.5-0.4-0.9-0.4-0.9c1-0.1,0.8,1,0.8,1c1.1-0.1,0.9-1.3,0.9-1.3c0.5,0.7,0.9,0.3,0.9,0.3c0.3-0.6,0.7-0.8,0.7-0.8
				c-0.9,1.2-1.2,3.1-1.2,3.1c0.8-0.6-0.2,1.5-0.2,1.5c1.1-0.5,0,1.5,0,1.5c0.6-0.4,0.4,0.4,0.4,0.4l-0.5,0.8
				c0.2-0.3,0.5-0.1,0.5-0.1c-0.2,1.2-1.6,1.3-1.6,1.3c0.7,0.3,1.1,0,1.1,0c0,0.4-0.7,1-0.7,1c0.7-0.2,1.1-1,1.1-1
				c0.6-0.2,1.5-1.6,1.5-1.6c0,0.4,0.3,0.5,0.3,0.5l0.1,0.2h0.2l0,0.7c0-0.2,0.4-0.1,0.4-0.1l0,0.7c0.3-0.5,0.6-0.2,0.6-0.2l0,0.6
				l0.4-0.1l0.1,0.7l0.3-0.2l0,0.6l0.3,0c-0.1,2.2-1.1,2.7-1.1,2.7c-3,1.5-2.7,2.3-2.7,2.3c-0.9,0.9-0.1,1.6-0.1,1.6
				c0-0.7,0.6-1.1,0.6-1.1l0,0c0.1-0.3,0.7-0.5,0.7-0.5c-0.8,0.6-0.8,1-0.8,1c0,0.2,0.1,0.4,0.1,0.4c-0.6,0.9,0.5,1.4,0.5,1.4
				c-0.3-0.5,0-1,0-1c0.2,0,0.4,0,0.4,0V229c-0.1-1.1,0.7-1.3,0.7-1.3c-0.7,0.7-0.5,1.3-0.5,1.3s0.3,1.7,1.6,1.3
				c0,0-0.6-0.2-0.7-0.6l0.1,0c0.8-0.3,1.2-1.4,1.2-1.4c1.1,0,1-1,1-1c0.1-0.6,0.7-0.9,0.7-0.9c-0.4,1,0.1,1.2,0.1,1.2
				c0,0.9-0.6,1-0.6,1c1.1,0,1.2-1,1.2-1c1.2-0.5,0.6-2,0.6-2c0.9-0.1,0.7,0.9,0.7,0.9c1.2-0.8,0.9-1.8,0.9-1.8
				c-0.6-0.8,0-0.9,0-0.9c1,0,0.5,1.3,0.5,1.3c0.9-0.3,0.9-1.4,0.9-1.4c1.3-0.4,1.2-1.8,1.2-1.8s-0.7,1.2-1.5,0.1
				c0,0-0.4-0.5,0.9-0.7c0,0,0-0.9-1.6-0.9c0,0-0.8,0-0.8-0.7c0,0,0-0.7,1.1,0.2c0,0,0.1-1.3-1.3-1.3c0,0-0.3,0.1-0.4-0.2
				c0,0,0.9-0.2,1-1.6c0,0-1.8,1.4-2.1-0.6c0,0-0.1-0.6,0.5-0.6c0,0,0.5-0.1,0.5,0.8c0,0,0.9-0.8,0.1-1.4c0,0,0.8-0.4,0.6-1.3
				c0,0-0.7,1.4-1.3,0.3c0,0-0.2-0.2,0.3-0.6c0,0,0.7-0.6,0.7-1.6c0,0,0.1,0,0.1,0.6c0,0,1.2,1.4,3.7,1c0,0,2.5-0.6,3.5-2.5
				c0,0,1.3,0.2,2.1-0.4c0,0-0.5-0.3,0.1-0.7c0,0,0.6-0.2,0.9-0.8c0,0-0.6,0.5-0.6,0c0,0,0.4-2-0.9-2.3c0,0-0.6-1.9-2.3-1.6
				c0,0,0.2-0.1,0.6-0.3c0,0-1.9-2.6-0.7-4.3c0,0-1.1-0.4-0.9-1.3c0,0-0.1-1.1,1.2-1.2c0,0,0.9,0,0.9,1c0,0,0,0.7-0.7,1
				c0,0,1.1,0,1.2-1.5c0,0,0.2-2-2.1-2c0,0-2.1,0-2.7,2.1l0-1c0,0-0.8-2-0.9-3.8c0,0-1-6.2,4.7-5.8c0,0-0.4,1.8-1.3,2.3
				c0,0-1,0.2-0.8-1.1c0,0-1.2,1.5,0.8,1.8c0,0,0.9,0.2,1.8-1c0,0,0.6,0.7,0.5,1.7c0,0-0.3,0.9-1,0.9c0,0-0.5-0.1-0.3-1.1
				c0,0-0.8,0.2-0.8,1.3c0,0-0.1,1,1.7,0.9c0,0-0.9,2.8,1.7,2.9c0,0-1.2-0.6-0.4-2v0c0,0,1.1-0.5,0.9-1.9c0,0,0.9,0.3,0.9,1.2
				c0,0-0.1,0.9-1.3,0.8c0,0,1.7,1.6,2.8-1.4c0,0,0.3-1-0.3-1.5c0,0,0.6,0,1-0.5c0,0,0.8,0.1,0.8,0.9c0,0-0.1,0.8-0.6,0.9
				c0,0,1.1,0.1,0.9-2C85.4,191.2,85.4,190.5,84.7,190.4z M61.5,186.9c0.1-0.2,0.3-0.5,0.7-0.1c0,0,0.1-0.9,0.7-0.9
				c0,0,0.3,0,0.3,0.7C63.2,186.6,62.4,186.8,61.5,186.9z M64.1,184.3l0.1-0.6c0.5-0.1,0.9,0.5,0.9,0.5
				C64.9,184.4,64.1,184.3,64.1,184.3z M66.7,185.9c1.7,0.4,2.7-1,2.7-1c-0.8,0-1.4-0.4-1.4-0.4c-0.8-0.7-1.7,0.4-1.7,0.4
				c0.8-1.3,1.8-0.5,1.8-0.5c0.5,0.4,1.6,0.4,1.6,0.4C68.3,186.8,66.7,185.9,66.7,185.9z"/>
		</g>
	</g>
	<g id="XMLID_4857_">
		<polygon id="XMLID_4865_" points="151.1,136.9 154.9,134.6 151.1,132.4 154.6,129.7 150.5,128 153.6,124.9 149.4,123.8 
			152.1,120.3 147.7,119.7 149.9,115.8 145.5,115.8 147.2,111.8 142.8,112.3 143.9,108.1 139.6,109.2 140.2,104.8 136.1,106.5 
			136.1,102.1 132.3,104.3 131.7,99.9 128.2,102.6 127.1,98.3 123.9,101.5 122.2,97.4 119.5,100.9 117.3,97 115.1,100.9 112.4,97.4 
			110.7,101.5 107.6,98.3 106.4,102.6 102.9,99.9 102.4,104.3 98.5,102.1 98.5,106.5 94.4,104.8 95,109.2 90.7,108.1 91.9,112.3 
			87.5,111.8 89.2,115.8 84.8,115.8 87,119.7 82.6,120.3 85.3,123.8 81,124.9 84.1,128 80,129.7 83.6,132.4 79.7,134.6 83.6,136.9 
			80,139.6 84.1,141.2 81,144.4 85.3,145.5 82.6,149 87,149.6 84.8,153.4 89.2,153.4 87.5,157.5 91.9,157 90.7,161.2 95,160.1 
			94.4,164.5 98.5,162.8 98.5,167.2 102.4,165 102.9,169.4 106.4,166.7 107.6,171 110.7,167.8 112.4,171.9 115.1,168.4 117.3,172.2 
			119.5,168.4 122.2,171.9 123.9,167.8 127.1,171 128.2,166.7 131.7,169.4 132.3,165 136.1,167.2 136.1,162.8 140.2,164.5 
			139.6,160.1 143.9,161.2 142.8,157 147.2,157.5 145.5,153.4 149.9,153.4 147.7,149.6 152.1,149 149.4,145.5 153.6,144.4 
			150.5,141.2 154.6,139.6 		"/>
		<radialGradient id="XMLID_4_" cx="117.3223" cy="134.6458" r="32.2921" gradientUnits="userSpaceOnUse">
			<stop  offset="0" style="stop-color:#F7A516"/>
			<stop  offset="1" style="stop-color:#F0E400"/>
		</radialGradient>
		<circle id="XMLID_4864_" class="st4" cx="117.3" cy="134.6" r="32.3"/>
		<g id="XMLID_4858_">
			<path id="XMLID_4859_" class="st2" d="M136.5,120.2c0,0,1.8-0.8,0.8-2.6c0,0,0.4,1.8-1,1.8c0,0-1,0-1.2-0.6c0,0,1.6,0,1-1.6
				c0,0,0.2,1.1-1.2,1.1c0,0-0.8,0.1-1.3-0.6c0,0,2.1-0.4,0.8-2.3c0,0,0.1,1.3-0.9,1.4c0,0-1.2-0.2-1.7,0.6c0,0-2.3-2-5,0
				c0,0-2.7,2-2.6,5.5c0,0,0.1,1.5,0.5,3.1c0,0,0.6,2.2,1.2,2.8l0.5,0.3c0,0-3.1-0.7-3.3,1.6c0,0-0.1,0.9,0.5,1.7
				c0,0-0.2-1.1,0.7-1.4c0,0,0.9-0.2,1,0.3c0,0-1.2,0.8-0.3,2c0,0-0.3-1.7,1.6-1.1c0,0-1.3,0.9-0.2,1.9c0,0-0.2-1.4,0.6-1.5
				c0,0,0.3,0.5,1.1,0.2l1,1.9c0,0-1.7,0.2-1.7,2.1c0,0,0.3-0.6,1-0.6c0,0-0.2,1.2-2.2,1c0,0-1.2-0.1-0.6-2c0,0-0.8,0.5-0.8,2.3
				c0,0-0.2,1.2,1.6,1.3c0,0,0.8,0,1.5-0.1c0,0,1.4,0.1,1.2,1.6c0,0-0.4,1.5-2.8,1.5c0,0-2.6,0.2-2.9-1.7c0,0-0.1-1.3-0.8-2.1
				c0,0-1.6-3.1-2.3-7c0,0-0.9,0.5-1.5-0.4c0,0,1.8,1,2.2-1c0,0,0.3-1.3-0.6-1.5l0-0.7c0,0-0.8-0.5-0.9-1.9c0,0,0.3,1.9,2.1,1.9
				c0,0,0.9-0.1,1-0.9c0,0-1.3,0.8-1.6-0.4c0,0-0.2-0.5,0.1-1.1c0,0,0.3-0.8-0.2-1.4c0,0-0.6-0.4-0.4-1.7c0,0,0.2,2.6,2.2,2.5
				c0,0-0.4-0.1-0.4-0.9l0-1.2c0,0-0.4,0-0.6-0.3c0,0,1.4,0.3,1.7-0.6c0,0,0.5-1.1-0.7-1.7c0,0,0.4,0.1,0.8-0.2c0,0-1-0.8-1-2.1
				c0,0,0.6,0.3,1.4-0.3c0,0-1.3,0.1-1.6-1.2c0,0,0.7,0.2,1.1-0.1c0,0-0.7-0.3-0.8-0.8c0,0,0-0.6-0.9-0.6c0,0,0.8-0.6,0.1-1.4
				c0,0,0,0.8-0.9,0.9c0,0,0.6-1.2-0.3-1.8c0,0,0.6,1.3-0.7,1.5c0,0,0.7-1.4-0.6-1.9c0,0,0.6,0.9-0.1,1.4c0,0-2.5-0.3-3.1-0.1
				l-0.9,0.9c0,0-2.3,0-2.6,0.6c0,0,0.1,1.6,0.5,2.4c-0.3,0-0.6,0-0.9,0c0,0-1.8-0.2-0.9-1.1l0.1-0.1c0,0-1.5-1.2-2.1,0.3
				c0,0-0.4,1.5,1.4,1.7c0,0,0,0,0,0c1.8,0.2,2.6-0.5,2.6-0.5s0.6-0.2,1.6,0c0,0,0.4,0.7-0.3,0.7c0,0-0.4,0.1-0.4-0.5
				c0,0-0.2-0.1-0.4,0.3c0,0-0.5,0.4-0.5-0.2c0,0-0.7,0.1-0.7,1.8c0,0,2.9-1.1,3.1,0.8c0,0-0.4-0.9-1.3-0.8c0,0-0.2,1-1.2,0.9
				c0,0-2.2-0.9-3.1,0.6c0,0-0.5,0.6-0.7,1.5c0,0-0.1,0.5-0.6,0.5c0,0-0.4,0-0.5-0.6c0,0-0.3,0.4,0.4,1.1c0,0-1-0.5-0.3-1.6
				c0,0-0.1,0.8,0.4,0.9c0,0,0.4,0,0.4-0.4c0,0,0.2-1.1,0.7-1.6l0-0.2l-0.1-0.2l-0.3,0l-0.1-0.7l-0.3,0.2l-0.3-0.5l-0.1,0l-0.1-0.4
				l-0.2,0.1l-0.1-0.2l-0.2-0.1l-0.1-0.1l-0.1-0.4l-0.3,0v-0.4l-0.1,0l-0.1-0.1v-0.6l-0.3,0.3l-0.3-0.5v-0.5l-0.2,0.2l-0.4-0.5
				c0,0,0.6-4.2-0.4-5.4c0,0,0.1-1-0.9-1c0,0,0.4,0.3,0.4,0.7c0,0-0.6-0.3-0.8,0c0,0,0.6,0.4,0.3,1.3c0,0,0.1-0.8-0.5-1.4
				c0,0,0.1-1.1-1.1-0.6c0,0,0.6,0,0.6,0.5c0,0,0,0,0,0.1c0,0-0.4,0.3-0.5,0.7c0,0,0.5,0.3,0.4,1.1c0,0-0.3-0.9-1.1-1.2
				c0,0-0.8-0.5-1.2,0.3c0,0,0.8-0.3,0.9,0.3c0,0-0.8,1.1,1.1,2.2c0,0-0.3,0.3-0.3,1.1c0,0-0.2-0.2-0.6,0c0,0-0.2-0.5,0.3-0.9
				c0,0-1.2,0.1-0.6,1.5c0,0-0.3,1.3,1.2,1.9c0,0-1.6-0.3-1.5,0.8c0,0,0.7-0.6,1.3,0.1c0,0,0.3,0.4,0.8,0.4c0,0-1.4,1.1,0.1,1.9
				c0,0,0-1,1.1-0.8c0,0-0.3,0.8,0.4,1.5c0,0-0.6,0.5,0.2,1.4c0,0,0-0.6,0.3-0.6c0,0,0.4,0.1,0.4,0.8c0,0-1.6,2.1-1.7,0.3
				c0,0-0.8,1.1,0.6,1.3c0,0,0.4,0,1.1-0.6c0,0,0.5-0.4,0.6,0.1c0,0,0,0,0,0.1c0,0.6-0.3,0.6-0.9,0.5c0,0,0,1.1,2,0.7
				c0,0,0.4,0.2-0.5,0.3c0,0-1.1,0-1.1,1c0,0,0.5-0.7,0.9-0.3c0,0,0.2,0.5-0.7,0.8c0,0-0.8,0.2-1.3-0.8c0,0-0.3,1,1.1,1.2
				c0,0,0,0.3-1.4,0.2l0.4,0.3l-0.7-0.1c0,0-0.3-0.1-0.1,0.3c0,0-0.3-0.3-0.6-0.1c0,0,0.6,0.3-0.2,0.4c0,0-3.3-0.5-4-1.2
				c0,0-0.8-0.5-1.8-0.1c0,0-1.1-0.6-1.2,0.6c0,0,0.2-0.3,0.8-0.2c0,0-0.2,0.4,0.3,0.4c0,0,0.6,0,0.8,0.1c0,0-0.8-0.1-1.4,0.2
				c0,0-0.8-0.1-0.6,1.3c0,0,0-0.6,0.6-0.6c0,0,0.3,0.2-0.1,0.7c0,0-0.9,0.9,0.2,1.6c0,0-0.3-0.7,0.2-0.9c0,0,0.3,0.7,1.3,0
				c0,0,0.9,0.2,1.1-0.2c0,0,0.6-0.3,0.7,0.1c0,0,0,0,0,0.1c0,0-0.7-0.2-0.7,0.3c0,0-0.4,0.9-1,0.2c0,0-0.1,1.1,1.1,0.7
				c0,0,1.6,0.4,2.4-1c0,0,0.3,0.8-0.6,1.4c0,0,0.7,0.2,1.7-0.8c0,0-0.5,1.3,2,0.8c0,0-0.8-0.1-0.8-1c0,0,0.1-0.7,0.8,0
				c0,0,0.8,0.9,1.6,0.7c0,0-0.3-0.1-0.2-0.8c0,0,0-0.4,0.6-0.4c0,0,0.5-0.1,0.4,0.5c0,0,0,0.6-0.5,0.8c0,0,1,0.6,1.3-0.6
				c0,0,0-0.6,0.7-0.5c0,0,0.6,0.1,0,0.9c0,0,0.5,0,0.7-1.1c0,0,0.1-0.8,0.5-0.1l0,0.1c0.1,0.4-0.4,0.6-0.4,0.6
				c0.5,0,0.6-0.4,0.6-0.4c0.3-0.3,0-0.8,0-0.8c0.5,0.4,0.1,1,0.1,1c0.8,2.1,3.4,4.2,3.4,4.2c2.3,1.7,2.6,3.5,2.6,3.5
				c0.3,1.7-0.5,2.5-0.5,2.5c0.5-0.8,0.3-1.9,0.3-1.9c-1-0.3-2.5-1.6-2.5-1.6l0.2,0.4c-0.8-0.5-2.2-0.3-2.2-0.3
				c-0.8,0.2-1.8-0.2-1.8-0.2c1.1,0.5-0.5,0.7-0.5,0.7c-1,0.1-2.2-0.4-2.2-0.4c0.2,0.7,1.4,0.7,1.4,0.7c-1.2,0.3-1.4,1.1-1.4,1.1
				c-0.7,1.1-1.6,1-1.6,1c-1,0-0.8-1.1-0.8-1.1c-0.3,0.3-0.2,0.6-0.2,0.6c-0.3,0-0.6-0.5-0.6-0.5c0,1.1,1.7,1.8,1.7,1.8
				c-0.1,1.3-1.6,1.3-1.6,1.3c1.6,0.7,2.6-0.2,2.6-0.2c-0.1,0.7-1,1.4-1,1.4c0.6,0,1.1-0.6,1.1-0.6c0,1.2-0.7,1.7-0.7,1.7
				c0.4,0,0.7-0.5,0.7-0.5c-0.2,0.8-0.5,0.9-0.5,0.9c0.4,0.1,0.6-0.1,0.6-0.1c0,0.6-0.4,0.8-0.4,0.8c0.7,0,1.1-0.5,1.1-0.5
				c0.4,0.2,0.3,0.6,0.3,0.6c-0.3,1.3-2.1,1.1-2.1,1.1c-1.9,0.1-2.6,1.5-2.6,1.5c-0.9,1-0.5,1.6-0.5,1.6c0.3-0.9,1.5-1.4,1.5-1.4
				c-0.7,0.4-1.1,1.2-1.1,1.2c-0.4,1.1,0.3,1.3,0.3,1.3c0-0.6,0.2-0.8,0.2-0.8c0.4,0.2,0.5-0.1,0.5-0.1c0.3-1.1,1-1,1-1
				c-0.8,0.3-0.9,1.2-0.9,1.2c-0.1,1.5,1,1.6,1,1.6c-0.5-0.3-0.3-0.8-0.3-0.8c1.3-0.1,1.6-1.1,1.6-1.1c0.1-0.4,0.7-0.5,0.7-0.5
				c-0.5,0.4,0,1,0,1c-0.1,0.7-1,0.7-1,0.7c1,0.5,1.6-0.3,1.6-0.3c1.3-0.1,1.6-1.6,1.6-1.6c0.1-0.8,1-1.1,1-1.1
				c-0.5,1.5,0.5,2,0.5,2c-0.2-1,0.5-1.2,0.5-1.2c1-0.3,0.9-1.2,0.9-1.2c0.3,0.7,0.8,0.4,0.8,0.4c-0.2-0.2-0.2-0.6-0.2-0.6
				c0-1.5-1-1.7-1-1.7c-0.6-0.1-0.9-0.8-0.9-0.8c1.2,0.9,1.9,0.5,1.9,0.5c-0.5,0-0.4-0.3-0.4-0.3c0.2-0.6-0.1-1.3-0.1-1.3
				c-0.6-0.5-0.4-0.9-0.4-0.9c1-0.1,0.8,1,0.8,1c1.1-0.1,0.9-1.3,0.9-1.3c0.5,0.7,0.9,0.3,0.9,0.3c0.3-0.6,0.7-0.8,0.7-0.8
				c-0.9,1.2-1.2,3.1-1.2,3.1c0.8-0.6-0.2,1.5-0.2,1.5c1.1-0.5,0,1.5,0,1.5c0.6-0.4,0.4,0.4,0.4,0.4l-0.5,0.8
				c0.2-0.3,0.5-0.1,0.5-0.1c-0.2,1.2-1.6,1.3-1.6,1.3c0.7,0.3,1.1,0,1.1,0c0,0.4-0.7,1-0.7,1c0.7-0.2,1.1-1,1.1-1
				c0.6-0.2,1.5-1.6,1.5-1.6c0,0.4,0.3,0.5,0.3,0.5l0.1,0.2h0.2l0,0.7c0-0.2,0.4-0.1,0.4-0.1l0,0.7c0.3-0.5,0.6-0.2,0.6-0.2l0,0.6
				l0.4-0.1l0.1,0.7l0.3-0.2l0,0.6l0.3,0c-0.1,2.2-1.1,2.7-1.1,2.7c-3,1.5-2.7,2.3-2.7,2.3c-0.9,0.9-0.1,1.6-0.1,1.6
				c0-0.7,0.6-1.1,0.6-1.1l0,0c0.1-0.3,0.7-0.5,0.7-0.5c-0.8,0.6-0.8,1-0.8,1c0,0.2,0.1,0.4,0.1,0.4c-0.6,0.9,0.5,1.4,0.5,1.4
				c-0.3-0.5,0-1,0-1c0.2,0,0.4,0,0.4,0v-0.1c-0.1-1.1,0.7-1.3,0.7-1.3c-0.7,0.7-0.5,1.3-0.5,1.3s0.3,1.7,1.6,1.3
				c0,0-0.6-0.2-0.7-0.6l0.1,0c0.8-0.3,1.2-1.4,1.2-1.4c1.1,0,1-1,1-1c0.1-0.6,0.7-0.9,0.7-0.9c-0.4,1,0.1,1.2,0.1,1.2
				c0,0.9-0.6,1-0.6,1c1.1,0,1.2-1,1.2-1c1.2-0.5,0.6-2,0.6-2c0.9-0.1,0.7,0.9,0.7,0.9c1.2-0.8,0.9-1.8,0.9-1.8
				c-0.6-0.8,0-0.9,0-0.9c1,0,0.5,1.3,0.5,1.3c0.9-0.3,0.9-1.4,0.9-1.4c1.3-0.4,1.2-1.8,1.2-1.8s-0.7,1.2-1.5,0.1
				c0,0-0.4-0.5,0.9-0.7c0,0,0-0.9-1.6-0.9c0,0-0.8,0-0.8-0.7c0,0,0-0.7,1.1,0.2c0,0,0.1-1.3-1.3-1.3c0,0-0.3,0.1-0.4-0.2
				c0,0,0.9-0.2,1-1.6c0,0-1.8,1.4-2.1-0.6c0,0-0.1-0.6,0.5-0.6c0,0,0.5-0.1,0.5,0.8c0,0,0.9-0.8,0.1-1.4c0,0,0.8-0.4,0.6-1.3
				c0,0-0.7,1.4-1.3,0.3c0,0-0.2-0.2,0.3-0.6c0,0,0.7-0.6,0.7-1.6c0,0,0.1,0,0.1,0.6c0,0,1.2,1.4,3.7,1c0,0,2.5-0.6,3.5-2.5
				c0,0,1.3,0.2,2.1-0.4c0,0-0.5-0.3,0.1-0.7c0,0,0.6-0.2,0.9-0.8c0,0-0.6,0.5-0.6,0c0,0,0.4-2-0.9-2.3c0,0-0.6-1.9-2.3-1.6
				c0,0,0.2-0.1,0.6-0.3c0,0-1.9-2.6-0.7-4.3c0,0-1.1-0.4-0.9-1.3c0,0-0.1-1.1,1.2-1.2c0,0,0.9,0,0.9,1c0,0,0,0.7-0.7,1
				c0,0,1.1,0,1.2-1.5c0,0,0.2-2-2.1-2c0,0-2.1,0-2.7,2.1l0-1c0,0-0.8-2-0.9-3.8c0,0-1-6.2,4.7-5.8c0,0-0.4,1.8-1.3,2.3
				c0,0-1,0.2-0.8-1.1c0,0-1.2,1.5,0.8,1.8c0,0,0.9,0.2,1.8-1c0,0,0.6,0.7,0.5,1.7c0,0-0.3,0.9-1,0.9c0,0-0.5-0.1-0.3-1.1
				c0,0-0.8,0.2-0.8,1.3c0,0-0.1,1,1.7,0.9c0,0-0.9,2.8,1.7,2.9c0,0-1.2-0.6-0.4-2v0c0,0,1.1-0.5,0.9-1.9c0,0,0.9,0.3,0.9,1.2
				c0,0-0.1,0.9-1.3,0.8c0,0,1.7,1.6,2.8-1.4c0,0,0.3-1-0.3-1.5c0,0,0.6,0,1-0.5c0,0,0.8,0.1,0.8,0.9c0,0-0.1,0.8-0.6,0.9
				c0,0,1.1,0.1,0.9-2C137.2,121,137.2,120.3,136.5,120.2z M113.3,116.6c0.1-0.2,0.3-0.5,0.7-0.1c0,0,0.1-0.9,0.7-0.9
				c0,0,0.3,0,0.3,0.7C115,116.4,114.2,116.6,113.3,116.6z M115.9,114.1l0.1-0.6c0.5-0.1,0.9,0.5,0.9,0.5
				C116.7,114.2,115.9,114.1,115.9,114.1z M118.4,115.7c1.7,0.4,2.7-1,2.7-1c-0.8,0-1.4-0.4-1.4-0.4c-0.8-0.7-1.7,0.4-1.7,0.4
				c0.8-1.3,1.8-0.5,1.8-0.5c0.5,0.4,1.6,0.4,1.6,0.4C120.1,116.6,118.4,115.7,118.4,115.7z"/>
		</g>
	</g>
	<path id="XMLID_4854_" class="st5" d="M164,258.6H9V10.7h155V258.6z M11,256.6h151V12.7H11V256.6z"/>
	<g id="XMLID_4847_">
		<g id="XMLID_4851_">
			<path id="XMLID_4852_" d="M17.9,22.7c-0.3-0.1-0.4-0.1-0.4-0.2s0.2-0.2,0.4-0.2c0.8-0.1,2.5-0.9,2.5-2.8c0-0.7-0.4-2.1-2.3-2.1
				c-1.2,0-2,0.7-2,1.9c0,0.2-0.1,0.2-0.1,0.2c0,0-0.1,0-0.1-0.2c-0.1-0.5-0.1-1.2-0.1-1.6c0-0.1,0-0.2,0.2-0.3
				c0.5-0.2,1.4-0.5,2.6-0.5c2.6,0,3.1,1.6,3.1,2.4c0,1.6-1.6,2.6-2.1,2.9v0.1c1,0.2,2.6,1.2,2.6,3c0,2.2-1.9,4.1-4.7,4.1
				c-0.7,0-1.6-0.2-1.9-0.4c-0.2-0.1-0.3-0.3-0.3-0.4c0-0.7,0.1-1.6,0.1-2c0-0.2,0-0.2,0.1-0.2s0.1,0,0.1,0.2
				c0.1,1.2,0.7,2.1,2.4,2.1c1.6,0,2.9-0.9,2.9-2.8C20.8,23.6,18.9,22.9,17.9,22.7z"/>
		</g>
		<g id="XMLID_4848_">
			<path id="XMLID_4849_" d="M155,246.6c0.3,0.1,0.4,0.1,0.4,0.2c0,0.1-0.2,0.2-0.4,0.2c-0.8,0.1-2.5,0.9-2.5,2.8
				c0,0.7,0.4,2.1,2.3,2.1c1.2,0,2-0.7,2-1.9c0-0.2,0.1-0.2,0.1-0.2c0,0,0.1,0,0.1,0.2c0.1,0.5,0.1,1.2,0.1,1.6c0,0.1,0,0.2-0.2,0.3
				c-0.5,0.2-1.4,0.5-2.6,0.5c-2.6,0-3.1-1.6-3.1-2.4c0-1.6,1.6-2.6,2.1-2.9v-0.1c-1-0.2-2.6-1.2-2.6-3c0-2.2,1.9-4.1,4.7-4.1
				c0.7,0,1.6,0.2,1.9,0.4c0.2,0.1,0.3,0.3,0.3,0.4c0,0.7-0.1,1.6-0.1,2c0,0.2,0,0.2-0.1,0.2c-0.1,0-0.1,0-0.1-0.2
				c-0.1-1.2-0.7-2.1-2.4-2.1c-1.6,0-2.9,0.9-2.9,2.8C152.1,245.7,154,246.4,155,246.6z"/>
		</g>
	</g>
</g>
</svg>
