<?xml version="1.0" encoding="utf-8"?>
<!-- Generator: Adobe Illustrator 19.0.0, SVG Export Plug-In . SVG Version: 6.00 Build 0)  -->
<svg version="1.1" id="Capa_1" xmlns="http://www.w3.org/2000/svg" xmlns:xlink="http://www.w3.org/1999/xlink" x="0px" y="0px"
	 viewBox="0 0 172.9 269.3" style="enable-background:new 0 0 172.9 269.3;" xml:space="preserve">
<style type="text/css">
	.st0{fill:#FFFFFF;}
	.st1{fill:#010202;}
	.st2{fill:none;stroke:#000000;stroke-width:0.5;stroke-miterlimit:10;}
	.st3{fill:#E94C30;}
	.st4{fill:#83CCF1;}
	.st5{fill:#CBE7E9;}
	.st6{fill:#FAEA26;}
</style>
<rect id="XMLID_5475_" x="0.3" y="0" class="st0" width="172.9" height="269.3"/>
<g id="XMLID_2942_">
	<path id="XMLID_1391_" class="st1" d="M164.3,258.6H9.3V10.7h155V258.6z M11.3,256.6h151V12.7h-151V256.6z"/>
	<g id="XMLID_1384_">
		<g id="XMLID_1388_">
			<path id="XMLID_1389_" d="M18.2,22.7c-0.3-0.1-0.4-0.1-0.4-0.2c0-0.1,0.2-0.2,0.4-0.2c0.8-0.1,2.5-0.9,2.5-2.8
				c0-0.7-0.4-2.1-2.3-2.1c-1.2,0-2,0.7-2,1.9c0,0.2-0.1,0.2-0.1,0.2s-0.1,0-0.1-0.2c-0.1-0.5-0.1-1.2-0.1-1.6c0-0.1,0-0.2,0.2-0.3
				c0.5-0.2,1.4-0.5,2.6-0.5c2.6,0,3.1,1.6,3.1,2.4c0,1.6-1.6,2.6-2.1,2.9v0.1c1,0.2,2.6,1.2,2.6,3c0,2.2-1.9,4.1-4.7,4.1
				c-0.7,0-1.6-0.2-1.9-0.4c-0.2-0.1-0.3-0.3-0.3-0.4c0-0.7,0.1-1.6,0.1-2c0-0.2,0-0.2,0.1-0.2s0.1,0,0.1,0.2
				c0.1,1.2,0.7,2.1,2.4,2.1c1.6,0,2.9-0.9,2.9-2.8C21.1,23.6,19.2,22.9,18.2,22.7z"/>
		</g>
		<g id="XMLID_1385_">
			<path id="XMLID_1386_" d="M155.3,246.6c0.3,0.1,0.4,0.1,0.4,0.2c0,0.1-0.2,0.2-0.4,0.2c-0.8,0.1-2.5,0.9-2.5,2.8
				c0,0.7,0.4,2.1,2.3,2.1c1.2,0,2-0.7,2-1.9c0-0.2,0.1-0.2,0.1-0.2c0,0,0.1,0,0.1,0.2c0.1,0.5,0.1,1.2,0.1,1.6c0,0.1,0,0.2-0.2,0.3
				c-0.5,0.2-1.4,0.5-2.6,0.5c-2.6,0-3.1-1.6-3.1-2.4c0-1.6,1.6-2.6,2.1-2.9v-0.1c-1-0.2-2.6-1.2-2.6-3c0-2.2,1.9-4.1,4.7-4.1
				c0.7,0,1.6,0.2,1.9,0.4c0.2,0.1,0.3,0.3,0.3,0.4c0,0.7-0.1,1.6-0.1,2c0,0.2,0,0.2-0.1,0.2c-0.1,0-0.1,0-0.1-0.2
				c-0.1-1.2-0.7-2.1-2.4-2.1c-1.6,0-2.9,0.9-2.9,2.8C152.4,245.7,154.3,246.4,155.3,246.6z"/>
		</g>
	</g>
	<path id="XMLID_1357_" class="st2" d="M33.3,182.8"/>
	<g id="XMLID_3361_">
		<g id="XMLID_1821_">
			<g id="XMLID_2764_">
				<path id="XMLID_1841_" class="st3" d="M139.3,110.6l-6.8-8l-3.2,7.5L124,99.5l-5.3-3.2l-2.5,13.8l-6.6-9.8l-7.6,5l-5.9-5.8
					c-0.8,2.2-1.6,4.6-2.2,6.9c-1.5,6-2.6,12-1.9,18.3c1.4,12.4,12.2,25.2,27,23.2c12.2-1.6,21.4-13.7,21.4-27.6
					C140.5,117,140.1,113.8,139.3,110.6"/>
				<path id="XMLID_2721_" class="st1" d="M116.1,148.3c-5,0-9.7-1.7-13.8-4.9c-5.7-4.4-9.5-11.4-10.3-18.7
					c-0.7-6.7,0.5-13.1,1.9-18.3c0.6-2.4,1.4-4.8,2.2-7l0.1-0.2l6,5.9l7.6-5l6.5,9.6l2.5-13.7l5.5,3.3l0,0l5.2,10.3l3.2-7.4l0.1,0.2
					l6.8,8l-0.1,0.1l0.1,0c0.8,3.6,1.2,6.8,1.2,9.8c0,6.8-2.2,13.4-6.2,18.5c-4,5.2-9.4,8.4-15.3,9.2
					C118.1,148.3,117.1,148.3,116.1,148.3z M96.2,99.7c-0.8,2.1-1.5,4.4-2.1,6.8c-1.3,5.3-2.6,11.6-1.9,18.3
					c0.8,7.2,4.6,14.1,10.2,18.5c4.9,3.8,10.6,5.4,16.7,4.6c12.1-1.6,21.3-13.4,21.3-27.5c0-3-0.4-6.2-1.2-9.7l-6.7-7.8l-3.2,7.5
					l-5.4-10.8l-5.1-3.1l-2.6,13.9l-0.2-0.3l-6.5-9.7l-7.6,5L96.2,99.7z"/>
			</g>
			<polygon id="XMLID_2728_" class="st4" points="142,122.6 139.1,122.6 140.5,118.3 			"/>
			<polygon id="XMLID_2727_" class="st5" points="139.8,127 139.1,122.6 142,122.6 			"/>
			<polygon id="XMLID_2726_" class="st4" points="93.3,122.6 90.4,122.6 91.8,118.3 			"/>
			<polygon id="XMLID_2725_" class="st4" points="105.1,122.6 97.8,122.6 101.5,118.3 			"/>
			<polygon id="XMLID_2724_" class="st5" points="101.5,127 97.8,122.6 105.1,122.6 			"/>
			<polygon id="XMLID_2723_" class="st4" points="134.5,122.6 127.2,122.6 130.9,118.3 			"/>
			<polygon id="XMLID_2722_" class="st5" points="130.9,127 127.2,122.6 134.5,122.6 			"/>
			<polygon id="XMLID_2720_" class="st1" points="121,127.7 117.1,118.8 117.2,118.8 118.2,115 116.1,110.1 116.3,110 118.5,115 
				117.4,118.8 121.3,127.6 			"/>
			<polygon id="XMLID_2719_" class="st1" points="101.6,117.7 101.4,117.6 102.8,115.6 97.7,113.4 97.7,113.2 101.9,105.3 
				102.1,105.4 98,113.2 103.2,115.5 			"/>
			<polygon id="XMLID_2715_" class="st1" points="129.2,115.7 125.5,113.8 129.2,110 129.4,110.2 125.9,113.8 129.3,115.5 			"/>
			<g id="XMLID_2716_">
				<polygon id="XMLID_2718_" class="st5" points="116.2,129.3 111.2,122.6 121.1,122.6 				"/>
				<polygon id="XMLID_2717_" class="st4" points="121.1,122.6 111.2,122.6 116.2,116 				"/>
			</g>
			<path id="XMLID_2713_" class="st1" d="M116.2,129.5l-5.1-6.9l0.1-0.1l5.1-6.8l5.1,6.9l-0.1,0.1L116.2,129.5z M111.4,122.6
				l4.8,6.5l4.8-6.5l-4.8-6.5L111.4,122.6z"/>
			<g id="XMLID_2712_">
				<polygon id="XMLID_2714_" class="st5" points="92.4,127 90.4,122.6 93.3,122.6 				"/>
				<path id="XMLID_2710_" class="st1" d="M92.5,127.4l-2.2-4.7l0,0l1.6-4.7l1.6,4.7l0,0L92.5,127.4z M90.5,122.6l1.8,3.9l0.8-3.9
					l-1.3-3.9L90.5,122.6z"/>
			</g>
			<g id="XMLID_2709_">
				<polygon id="XMLID_2711_" class="st5" points="139.8,127 141.8,122.6 139,122.6 				"/>
				<path id="XMLID_2706_" class="st1" d="M139.8,127.4l-0.9-4.7l0,0l1.6-4.7l1.6,4.7l0,0L139.8,127.4z M139.1,122.7l0.8,3.9
					l1.8-3.9l-1.3-3.9L139.1,122.7z"/>
			</g>
			<path id="XMLID_1842_" class="st1" d="M101.5,127.2l-3.8-4.5l3.8-4.5l3.8,4.5L101.5,127.2z M98,122.6l3.5,4.1l3.5-4.1l-3.5-4.1
				L98,122.6z"/>
			<path id="XMLID_2749_" class="st1" d="M130.9,127.2l-3.8-4.5l3.8-4.5l3.8,4.5L130.9,127.2z M127.4,122.6l3.5,4.1l3.5-4.1
				l-3.5-4.1L127.4,122.6z"/>
			<g id="XMLID_1839_">
				<g id="XMLID_2747_">
					<ellipse id="XMLID_1840_" class="st6" cx="108.3" cy="122.6" rx="0.9" ry="2.7"/>
					<path id="XMLID_2741_" class="st1" d="M108.3,125.4c-0.5,0-0.9-1.2-0.9-2.8c0-1.6,0.4-2.8,0.9-2.8s0.9,1.2,0.9,2.8
						C109.2,124.2,108.8,125.4,108.3,125.4z M108.3,120c-0.5,0-0.8,1.2-0.8,2.7s0.4,2.7,0.8,2.7s0.8-1.2,0.8-2.7
						S108.7,120,108.3,120z"/>
				</g>
				<g id="XMLID_2740_">
					<ellipse id="XMLID_1838_" class="st6" cx="124.1" cy="122.6" rx="0.9" ry="2.7"/>
					<path id="XMLID_2708_" class="st1" d="M124.1,125.4c-0.5,0-0.9-1.2-0.9-2.8c0-1.6,0.4-2.8,0.9-2.8s0.9,1.2,0.9,2.8
						C125,124.2,124.6,125.4,124.1,125.4z M124.1,120c-0.5,0-0.8,1.2-0.8,2.7s0.4,2.7,0.8,2.7s0.8-1.2,0.8-2.7S124.5,120,124.1,120z
						"/>
				</g>
			</g>
			<g id="XMLID_1836_">
				<g id="XMLID_2707_">
					<ellipse id="XMLID_1837_" class="st6" cx="137.1" cy="122.6" rx="0.6" ry="1.9"/>
					<path id="XMLID_2702_" class="st1" d="M137.1,124.6c-0.4,0-0.7-0.9-0.7-1.9c0-1,0.2-1.9,0.7-1.9c0.4,0,0.7,1,0.7,1.9
						S137.5,124.6,137.1,124.6z M137.1,120.8c-0.3,0-0.6,0.7-0.6,1.8c0,1.1,0.3,1.8,0.6,1.8s0.6-0.7,0.6-1.8
						C137.7,121.5,137.4,120.8,137.1,120.8z"/>
				</g>
				<g id="XMLID_2701_">
					<ellipse id="XMLID_1835_" class="st6" cx="95.3" cy="122.6" rx="0.6" ry="1.9"/>
					<path id="XMLID_2697_" class="st1" d="M95.3,124.6c-0.4,0-0.7-0.9-0.7-1.9c0-1,0.2-1.9,0.7-1.9c0.4,0,0.7,1,0.7,1.9
						S95.7,124.6,95.3,124.6z M95.3,120.8c-0.3,0-0.6,0.7-0.6,1.8c0,1.1,0.3,1.8,0.6,1.8s0.6-0.7,0.6-1.8
						C95.8,121.5,95.5,120.8,95.3,120.8z"/>
				</g>
			</g>
			<g id="XMLID_2696_">
				<rect id="XMLID_1834_" x="96" y="168.5" class="st6" width="40.4" height="4.5"/>
				<path id="XMLID_2693_" class="st1" d="M136.5,173.1H95.9v-4.8h40.6V173.1z M96.1,172.9h40.1v-4.3H96.1V172.9z"/>
			</g>
			<g id="XMLID_2692_">
				<rect id="XMLID_1833_" x="99.1" y="164.5" class="st5" width="34.1" height="4"/>
				<path id="XMLID_2688_" class="st1" d="M133.4,168.6H99v-4.2h34.4V168.6z M99.3,168.3h33.9v-3.7H99.3V168.3z"/>
			</g>
			<g id="XMLID_2686_">
				<path id="XMLID_1832_" class="st6" d="M116.2,149c-5.9,0.7-14,15.5-14,15.5h14h14C130.2,164.5,122.1,149.7,116.2,149z"/>
				<path id="XMLID_2676_" class="st1" d="M130.4,164.6h-28.5l0.1-0.2c0.3-0.6,8.3-14.9,14.1-15.6l0,0l0,0
					c5.9,0.7,13.8,15,14.1,15.6L130.4,164.6z M102.3,164.4H130c-1-1.7-8.4-14.6-13.8-15.3C110.8,149.8,103.3,162.6,102.3,164.4z"/>
			</g>
			<g id="XMLID_2673_">
				<path id="XMLID_1831_" class="st6" d="M114.7,146.9c-3-1.8-4.8-9.4-4.8-9.4s4.3,7.6,8.1,8.3L114.7,146.9z"/>
				<path id="XMLID_2670_" class="st1" d="M114.7,147L114.7,147c-3.1-1.8-4.9-9.2-4.9-9.5l-0.2-0.9l0.4,0.8c0,0.1,4.3,7.6,8,8.3
					l0.5,0.1L114.7,147z M110.2,138.3c0.6,2,2.2,7,4.5,8.4l2.8-0.9C114.5,144.9,111.4,140.2,110.2,138.3z"/>
			</g>
			<g id="XMLID_2669_">
				<path id="XMLID_1830_" class="st6" d="M117.2,146.9c3-1.8,4.8-9.4,4.8-9.4s-4.3,7.6-8.1,8.3L117.2,146.9z"/>
				<path id="XMLID_2666_" class="st1" d="M117.2,147l-3.8-1.3l0.5-0.1c3.7-0.7,8-8.2,8-8.3l0.4-0.8l-0.2,0.9
					C122.1,137.8,120.3,145.2,117.2,147L117.2,147z M114.4,145.8l2.8,0.9c2.3-1.4,3.9-6.4,4.5-8.4
					C120.5,140.2,117.4,144.9,114.4,145.8z"/>
			</g>
			<g id="XMLID_2665_">
				<path id="XMLID_1829_" class="st6" d="M118.5,147.9c4-0.2,11.1-8.1,11.1-8.1s-9.3,6.3-13.4,4.7L118.5,147.9z"/>
				<path id="XMLID_2658_" class="st1" d="M118.4,148l-2.6-3.8l0.4,0.2c3.9,1.6,13.2-4.6,13.3-4.6l0.8-0.6l-0.7,0.7
					C129.4,140.2,122.5,147.8,118.4,148L118.4,148z M116.5,144.7l2.1,3c3.2-0.2,8.4-5.4,10.2-7.3C126.5,141.9,120,145.7,116.5,144.7
					z"/>
			</g>
			<g id="XMLID_2656_">
				<path id="XMLID_1828_" class="st6" d="M112.3,147.9c-4-0.2-11.1-8.1-11.1-8.1s9.3,6.3,13.4,4.7L112.3,147.9z"/>
				<path id="XMLID_2653_" class="st1" d="M112.4,148L112.4,148c-4.1-0.2-11-7.8-11.2-8.1l-0.7-0.7l0.8,0.6
					c0.1,0.1,9.3,6.2,13.3,4.6l0.4-0.2L112.4,148z M102,140.5c1.8,1.9,7,7.1,10.2,7.3l2.1-3C110.8,145.7,104.3,141.9,102,140.5z"/>
			</g>
			<g id="XMLID_2651_">
				<path id="XMLID_1827_" class="st6" d="M127.2,157.4c-1.2-4.5-7.4-8.4-11-8.4c-3.6,0-9.8,3.9-11,8.4c2.1,2.1,5.1,2.6,7.2,0.3
					c-0.6,4.5,3.9,5.8,3.9,5.8s4.4-1.3,3.9-5.8C122.1,159.9,125.1,159.5,127.2,157.4z"/>
				<path id="XMLID_2647_" class="st1" d="M116.2,163.6L116.2,163.6c-0.1,0-4.3-1.4-4-5.6c-0.9,0.9-1.9,1.3-3.1,1.3c0,0,0,0-0.1,0
					c-1.4,0-2.8-0.7-4-1.8l0-0.1l0-0.1c1.3-4.7,7.7-8.5,11.1-8.5c3.5,0,9.9,3.8,11.1,8.5l0,0.1l0,0.1c-1.2,1.2-2.6,1.8-4,1.8
					c0,0,0,0-0.1,0c-1.1,0-2.2-0.5-3.1-1.3C120.5,162.2,116.3,163.5,116.2,163.6L116.2,163.6z M112.5,157.2l0,0.4
					c-0.5,4.2,3.3,5.5,3.7,5.7c0.4-0.1,4.2-1.5,3.7-5.7l0-0.4l0.3,0.3c0.9,1,2,1.5,3.1,1.5c0,0,0,0,0.1,0c1.3,0,2.6-0.6,3.7-1.7
					c-1.3-4.5-7.5-8.2-10.9-8.2s-9.6,3.7-10.9,8.2c1.1,1.1,2.4,1.7,3.7,1.7c0,0,0,0,0.1,0c1.2,0,2.3-0.5,3.1-1.5L112.5,157.2z"/>
			</g>
			<g id="XMLID_1825_">
				<g id="XMLID_2646_">
					<path id="XMLID_1826_" class="st6" d="M106.9,155.5c-0.3,0.5-0.5,1-0.6,1.5c0.4,0.4,0.9,0.8,1.3,1"/>
					<path id="XMLID_2645_" class="st1" d="M107.5,158.2c-0.5-0.3-1-0.6-1.4-1.1l0-0.1l0-0.1c0.1-0.5,0.4-1,0.6-1.5l0.2,0.1
						c-0.3,0.5-0.5,0.9-0.6,1.4c0.4,0.4,0.8,0.7,1.3,1L107.5,158.2z"/>
				</g>
				<g id="XMLID_2644_">
					<path id="XMLID_1824_" class="st6" d="M125.5,155.5c0.3,0.5,0.5,1,0.6,1.5c-0.4,0.4-0.9,0.8-1.3,1"/>
					<path id="XMLID_2643_" class="st1" d="M124.8,158.2l-0.1-0.2c0.5-0.2,0.9-0.6,1.3-1c-0.1-0.5-0.3-0.9-0.6-1.4l0.2-0.1
						c0.3,0.5,0.5,1,0.6,1.5l0,0.1l0,0.1C125.8,157.6,125.3,157.9,124.8,158.2z"/>
				</g>
			</g>
			<g id="XMLID_2642_">
				<ellipse id="XMLID_1823_" class="st5" cx="116.2" cy="149" rx="3.9" ry="4.9"/>
				<path id="XMLID_2639_" class="st1" d="M116.2,154c-2.2,0-4-2.3-4-5s1.8-5,4-5s4,2.3,4,5S118.4,154,116.2,154z M116.2,144.2
					c-2.1,0-3.7,2.1-3.7,4.8s1.7,4.8,3.7,4.8s3.7-2.1,3.7-4.8S118.2,144.2,116.2,144.2z"/>
			</g>
			<g id="XMLID_2638_">
				<ellipse id="XMLID_1822_" class="st4" cx="116.2" cy="149" rx="2.1" ry="2.7"/>
				<path id="XMLID_2635_" class="st1" d="M116.2,151.8c-1.2,0-2.2-1.3-2.2-2.8s1-2.8,2.2-2.8s2.2,1.3,2.2,2.8
					S117.4,151.8,116.2,151.8z M116.2,146.4c-1.1,0-2,1.1-2,2.5s0.9,2.5,2,2.5s2-1.1,2-2.5S117.3,146.4,116.2,146.4z"/>
			</g>
			<g id="XMLID_2634_">
				<path id="XMLID_1522_" class="st6" d="M114.6,161.6c0.8,0.6,1.5,0.8,1.5,0.8s0.7-0.2,1.5-0.8"/>
				<path id="XMLID_2633_" class="st1" d="M116.2,162.5L116.2,162.5c-0.1,0-0.8-0.2-1.6-0.8l0.1-0.2c0.7,0.5,1.3,0.7,1.5,0.7
					c0.2-0.1,0.8-0.3,1.5-0.7l0.1,0.2C117,162.3,116.2,162.5,116.2,162.5L116.2,162.5z"/>
			</g>
		</g>
		<g id="XMLID_1457_">
			<g id="XMLID_1469_">
				<g id="XMLID_2632_">
					<path id="XMLID_1499_" class="st3" d="M80.5,49.7l-6.8-8l-3.2,7.5l-5.3-10.6l-5.3-3.2l-2.5,13.8l-6.6-9.8l-7.6,5
						c0,0-5.9-5.8-5.9-5.8c-0.8,2.2-1.6,4.6-2.2,6.9c-1.5,6-2.6,12-1.9,18.3c1.4,12.4,12.2,25.2,27,23.2
						c12.2-1.6,21.4-13.7,21.4-27.6C81.7,56.2,81.2,52.9,80.5,49.7"/>
					<path id="XMLID_1514_" class="st1" d="M57.3,87.5c-5,0-9.7-1.7-13.8-4.9c-5.7-4.4-9.5-11.4-10.3-18.7
						c-0.7-6.7,0.5-13.1,1.9-18.3c0.6-2.4,1.4-4.8,2.2-7l0.1-0.2l6,5.9l7.6-5l6.5,9.6l2.5-13.7l5.5,3.3l0,0L70.5,49l3.2-7.4l0.1,0.2
						l6.9,8c0.8,3.6,1.2,6.8,1.2,9.8c0,6.8-2.2,13.4-6.2,18.5c-4,5.2-9.4,8.4-15.3,9.2C59.3,87.4,58.3,87.5,57.3,87.5z M37.4,38.9
						c-0.8,2.1-1.5,4.4-2.1,6.8c-1.3,5.3-2.6,11.6-1.9,18.3C34.1,71.1,38,78,43.6,82.4c4.9,3.8,10.6,5.4,16.7,4.6
						c12.1-1.6,21.3-13.4,21.3-27.5c0-3-0.4-6.2-1.2-9.7L73.7,42l-3.2,7.5l-5.4-10.8L60,35.7l-2.6,13.9l-0.2-0.3l-6.5-9.7l-7.6,5
						L37.4,38.9z"/>
				</g>
				<polygon id="XMLID_1521_" class="st4" points="83.1,61.8 80.3,61.8 81.7,57.5 				"/>
				<polygon id="XMLID_1520_" class="st5" points="81,66.1 80.3,61.8 83.1,61.8 				"/>
				<polygon id="XMLID_1519_" class="st4" points="34.5,61.8 31.6,61.8 33,57.5 				"/>
				<polygon id="XMLID_1518_" class="st4" points="46.3,61.8 39,61.8 42.7,57.5 				"/>
				<polygon id="XMLID_1517_" class="st5" points="42.7,66.1 39,61.8 46.3,61.8 				"/>
				<polygon id="XMLID_1516_" class="st4" points="75.7,61.8 68.4,61.8 72.1,57.5 				"/>
				<polygon id="XMLID_1515_" class="st5" points="72.1,66.1 68.4,61.8 75.7,61.8 				"/>
				<polygon id="XMLID_1513_" class="st1" points="62.2,66.9 58.3,58 58.3,58 59.4,54.2 57.3,49.3 57.5,49.2 59.7,54.1 58.6,58 
					62.4,66.8 				"/>
				<polygon id="XMLID_1512_" class="st1" points="42.8,56.9 42.6,56.7 44,54.8 38.9,52.5 38.9,52.4 43.1,44.4 43.3,44.5 39.2,52.4 
					44.4,54.7 				"/>
				<polygon id="XMLID_1508_" class="st1" points="70.4,54.8 66.7,53 70.4,49.2 70.6,49.3 67.1,52.9 70.5,54.6 				"/>
				<g id="XMLID_1509_">
					<polygon id="XMLID_1511_" class="st5" points="57.4,68.5 52.4,61.8 62.3,61.8 					"/>
					<polygon id="XMLID_1510_" class="st4" points="62.3,61.8 52.4,61.8 57.4,55.1 					"/>
				</g>
				<path id="XMLID_1506_" class="st1" d="M57.4,68.7l-5.1-6.9l0.1-0.1l5.1-6.8l5.1,6.9l-0.1,0.1L57.4,68.7z M52.6,61.8l4.8,6.5
					l4.8-6.5l-4.8-6.5L52.6,61.8z"/>
				<g id="XMLID_1505_">
					<polygon id="XMLID_1507_" class="st5" points="33.6,66.1 31.6,61.8 34.5,61.8 					"/>
					<path id="XMLID_1503_" class="st1" d="M33.6,66.5l-2.2-4.7l0,0l1.6-4.7l1.6,4.7l0,0L33.6,66.5z M31.7,61.8l1.8,3.9l0.8-3.9
						L33,57.9L31.7,61.8z"/>
				</g>
				<g id="XMLID_1502_">
					<polygon id="XMLID_1504_" class="st5" points="81,66.1 83,61.8 80.2,61.8 					"/>
					<path id="XMLID_1501_" class="st1" d="M81,66.5L80,61.8l0,0l1.6-4.7l1.6,4.7l0,0L81,66.5z M80.3,61.8l0.8,3.9l1.8-3.9l-1.3-3.9
						L80.3,61.8z"/>
				</g>
				<path id="XMLID_1500_" class="st1" d="M42.7,66.3l-3.8-4.5l3.8-4.5l3.8,4.5L42.7,66.3z M39.2,61.8l3.5,4.1l3.5-4.1l-3.5-4.1
					L39.2,61.8z"/>
				<path id="XMLID_2619_" class="st1" d="M72.1,66.3l-3.8-4.5l3.8-4.5l3.8,4.5L72.1,66.3z M68.6,61.8l3.5,4.1l3.5-4.1l-3.5-4.1
					L68.6,61.8z"/>
				<g id="XMLID_1497_">
					<g id="XMLID_2618_">
						<ellipse id="XMLID_1498_" class="st6" cx="49.5" cy="61.8" rx="0.9" ry="2.7"/>
						<path id="XMLID_2615_" class="st1" d="M49.5,64.6c-0.5,0-0.9-1.2-0.9-2.8c0-1.6,0.4-2.8,0.9-2.8s0.9,1.2,0.9,2.8
							C50.4,63.4,50,64.6,49.5,64.6z M49.5,59.1c-0.5,0-0.8,1.2-0.8,2.7s0.4,2.7,0.8,2.7s0.8-1.2,0.8-2.7S49.9,59.1,49.5,59.1z"/>
					</g>
					<g id="XMLID_2614_">
						<ellipse id="XMLID_1496_" class="st6" cx="65.3" cy="61.8" rx="0.9" ry="2.7"/>
						<path id="XMLID_2611_" class="st1" d="M65.3,64.6c-0.5,0-0.9-1.2-0.9-2.8c0-1.6,0.4-2.8,0.9-2.8s0.9,1.2,0.9,2.8
							C66.2,63.4,65.8,64.6,65.3,64.6z M65.3,59.1c-0.5,0-0.8,1.2-0.8,2.7s0.4,2.7,0.8,2.7s0.8-1.2,0.8-2.7S65.7,59.1,65.3,59.1z"/>
					</g>
				</g>
				<g id="XMLID_1494_">
					<g id="XMLID_2610_">
						<ellipse id="XMLID_1495_" class="st6" cx="78.3" cy="61.8" rx="0.6" ry="1.9"/>
						<path id="XMLID_2607_" class="st1" d="M78.3,63.7c-0.4,0-0.7-0.9-0.7-1.9c0-1,0.2-1.9,0.7-1.9c0.4,0,0.7,1,0.7,1.9
							S78.7,63.7,78.3,63.7z M78.3,60c-0.3,0-0.6,0.7-0.6,1.8s0.3,1.8,0.6,1.8s0.6-0.7,0.6-1.8S78.6,60,78.3,60z"/>
					</g>
					<g id="XMLID_2606_">
						<ellipse id="XMLID_1493_" class="st6" cx="36.4" cy="61.8" rx="0.6" ry="1.9"/>
						<path id="XMLID_2603_" class="st1" d="M36.4,63.7c-0.4,0-0.7-0.9-0.7-1.9c0-1,0.2-1.9,0.7-1.9c0.4,0,0.7,1,0.7,1.9
							S36.9,63.7,36.4,63.7z M36.4,60c-0.3,0-0.6,0.7-0.6,1.8s0.3,1.8,0.6,1.8s0.6-0.7,0.6-1.8S36.7,60,36.4,60z"/>
					</g>
				</g>
				<g id="XMLID_2602_">
					<rect id="XMLID_1492_" x="37.2" y="107.6" class="st6" width="40.4" height="4.5"/>
					<path id="XMLID_2599_" class="st1" d="M77.7,112.3H37.1v-4.8h40.6V112.3z M37.3,112h40.1v-4.3H37.3V112z"/>
				</g>
				<g id="XMLID_2598_">
					<rect id="XMLID_1491_" x="40.3" y="103.6" class="st5" width="34.1" height="4"/>
					<path id="XMLID_2595_" class="st1" d="M74.5,107.7H40.2v-4.2h34.4V107.7z M40.4,107.5h33.9v-3.7H40.4V107.5z"/>
				</g>
				<g id="XMLID_2594_">
					<path id="XMLID_1490_" class="st6" d="M57.4,88.1c-5.9,0.7-14,15.5-14,15.5h14h14C71.4,103.6,63.3,88.8,57.4,88.1z"/>
					<path id="XMLID_2591_" class="st1" d="M71.6,103.8H43.1l0.1-0.2c0.3-0.6,8.3-14.9,14.1-15.6l0,0l0,0c5.9,0.7,13.8,15,14.1,15.6
						L71.6,103.8z M43.5,103.5h27.7c-1-1.7-8.4-14.6-13.8-15.3C52,88.9,44.5,101.8,43.5,103.5z"/>
				</g>
				<g id="XMLID_2590_">
					<path id="XMLID_1479_" class="st6" d="M55.9,86c-3-1.8-4.8-9.4-4.8-9.4s4.3,7.6,8.1,8.3L55.9,86z"/>
					<path id="XMLID_2587_" class="st1" d="M55.9,86.2L55.9,86.2c-3.1-1.8-4.9-9.2-4.9-9.5l-0.2-0.9l0.4,0.8c0,0.1,4.3,7.6,8,8.3
						l0.5,0.1L55.9,86.2z M51.4,77.5c0.6,2,2.2,7,4.5,8.4l2.8-0.9C55.7,84,52.6,79.3,51.4,77.5z"/>
				</g>
				<g id="XMLID_2586_">
					<path id="XMLID_1478_" class="st6" d="M58.4,86c3-1.8,4.8-9.4,4.8-9.4s-4.3,7.6-8.1,8.3L58.4,86z"/>
					<path id="XMLID_2583_" class="st1" d="M58.4,86.2l-3.8-1.3l0.5-0.1c3.7-0.7,8-8.2,8-8.3l0.4-0.8l-0.2,0.9
						C63.3,77,61.5,84.3,58.4,86.2L58.4,86.2z M55.5,85l2.8,0.9c2.3-1.4,3.9-6.4,4.5-8.4C61.7,79.3,58.6,84,55.5,85z"/>
				</g>
				<g id="XMLID_2582_">
					<path id="XMLID_1477_" class="st6" d="M59.7,87c4-0.2,11.1-8.1,11.1-8.1s-9.3,6.3-13.4,4.7L59.7,87z"/>
					<path id="XMLID_2579_" class="st1" d="M59.6,87.2L57,83.4l0.4,0.2c3.9,1.6,13.2-4.6,13.3-4.6l0.8-0.6L70.8,79
						C70.6,79.4,63.7,87,59.6,87.2L59.6,87.2z M57.7,83.9l2.1,3c3.2-0.2,8.4-5.4,10.2-7.3C67.6,81.1,61.2,84.8,57.7,83.9z"/>
				</g>
				<g id="XMLID_2578_">
					<path id="XMLID_1476_" class="st6" d="M53.5,87c-4-0.2-11.1-8.1-11.1-8.1s9.3,6.3,13.4,4.7L53.5,87z"/>
					<path id="XMLID_2575_" class="st1" d="M53.6,87.2L53.6,87.2c-4.1-0.2-11-7.8-11.2-8.1l-0.7-0.7l0.8,0.6
						c0.1,0.1,9.3,6.2,13.3,4.6l0.4-0.2L53.6,87.2z M43.2,79.6c1.8,1.9,7,7.1,10.2,7.3l2.1-3C52,84.8,45.5,81.1,43.2,79.6z"/>
				</g>
				<g id="XMLID_2574_">
					<path id="XMLID_1475_" class="st6" d="M68.4,96.5c-1.2-4.5-7.4-8.4-11-8.4s-9.8,3.9-11,8.4c2.1,2.1,5.1,2.6,7.2,0.3
						c-0.6,4.5,3.9,5.8,3.9,5.8s4.4-1.3,3.9-5.8C63.3,99.1,66.3,98.6,68.4,96.5z"/>
					<path id="XMLID_2571_" class="st1" d="M57.4,102.7L57.4,102.7c-0.1,0-4.3-1.4-4-5.6c-0.9,0.9-1.9,1.3-3.1,1.3c0,0,0,0-0.1,0
						c-1.4,0-2.8-0.7-4-1.8l0-0.1l0-0.1c1.3-4.7,7.7-8.5,11.1-8.5c3.5,0,9.9,3.8,11.1,8.5l0,0.1l0,0.1c-1.2,1.2-2.6,1.8-4,1.8
						c0,0,0,0-0.1,0c-1.1,0-2.2-0.5-3.1-1.3C61.7,101.4,57.4,102.7,57.4,102.7L57.4,102.7z M53.7,96.4l0,0.4
						c-0.5,4.2,3.3,5.5,3.7,5.7c0.4-0.1,4.2-1.5,3.7-5.7l0-0.4l0.3,0.3c0.9,1,2,1.5,3.1,1.5c0,0,0,0,0.1,0c1.3,0,2.6-0.6,3.7-1.7
						c-1.3-4.5-7.5-8.2-10.9-8.2s-9.6,3.7-10.9,8.2c1.1,1.1,2.4,1.7,3.7,1.7c0,0,0,0,0.1,0c1.2,0,2.3-0.5,3.1-1.5L53.7,96.4z"/>
				</g>
				<g id="XMLID_1473_">
					<g id="XMLID_2570_">
						<path id="XMLID_1474_" class="st6" d="M48.1,94.7c-0.3,0.5-0.5,1-0.6,1.5c0.4,0.4,0.9,0.8,1.3,1"/>
						<path id="XMLID_2569_" class="st1" d="M48.7,97.3c-0.5-0.3-1-0.6-1.4-1.1l0-0.1l0-0.1c0.1-0.5,0.4-1,0.6-1.5l0.2,0.1
							c-0.3,0.5-0.5,0.9-0.6,1.4c0.4,0.4,0.8,0.7,1.3,1L48.7,97.3z"/>
					</g>
					<g id="XMLID_2568_">
						<path id="XMLID_1472_" class="st6" d="M66.7,94.7c0.3,0.5,0.5,1,0.6,1.5c-0.4,0.4-0.9,0.8-1.3,1"/>
						<path id="XMLID_2567_" class="st1" d="M66,97.3l-0.1-0.2c0.5-0.2,0.9-0.6,1.3-1c-0.1-0.5-0.3-0.9-0.6-1.4l0.2-0.1
							c0.3,0.5,0.5,1,0.6,1.5l0,0.1l0,0.1C67,96.7,66.5,97.1,66,97.3z"/>
					</g>
				</g>
				<g id="XMLID_2566_">
					<ellipse id="XMLID_1471_" class="st5" cx="57.4" cy="88.1" rx="3.9" ry="4.9"/>
					<path id="XMLID_2563_" class="st1" d="M57.4,93.2c-2.2,0-4-2.3-4-5s1.8-5,4-5s4,2.3,4,5S59.6,93.2,57.4,93.2z M57.4,83.3
						c-2.1,0-3.7,2.1-3.7,4.8s1.7,4.8,3.7,4.8s3.7-2.1,3.7-4.8S59.4,83.3,57.4,83.3z"/>
				</g>
				<g id="XMLID_2562_">
					<ellipse id="XMLID_1470_" class="st4" cx="57.4" cy="88.1" rx="2.1" ry="2.7"/>
					<path id="XMLID_2559_" class="st1" d="M57.4,90.9c-1.2,0-2.2-1.3-2.2-2.8c0-1.5,1-2.8,2.2-2.8s2.2,1.3,2.2,2.8
						C59.6,89.7,58.6,90.9,57.4,90.9z M57.4,85.6c-1.1,0-2,1.1-2,2.5c0,1.4,0.9,2.5,2,2.5s2-1.1,2-2.5
						C59.3,86.7,58.5,85.6,57.4,85.6z"/>
				</g>
				<g id="XMLID_2558_">
					<path id="XMLID_2556_" class="st6" d="M55.8,100.8c0.8,0.6,1.5,0.8,1.5,0.8s0.7-0.2,1.5-0.8"/>
					<path id="XMLID_2557_" class="st1" d="M57.4,101.7L57.4,101.7c-0.1,0-0.8-0.2-1.6-0.8l0.1-0.2c0.7,0.5,1.3,0.7,1.5,0.7
						c0.2-0.1,0.8-0.3,1.5-0.7l0.1,0.2C58.1,101.4,57.4,101.7,57.4,101.7L57.4,101.7z"/>
				</g>
			</g>
			<g id="XMLID_2730_">
				<g id="XMLID_2555_">
					<path id="XMLID_2533_" class="st3" d="M80.5,171.4l-6.8-8l-3.2,7.5l-5.3-10.6l-5.3-3.2l-2.5,13.8l-6.6-9.8l-7.6,5
						c0,0-5.9-5.8-5.9-5.8c-0.8,2.2-1.6,4.6-2.2,6.9c-1.5,6-2.6,12-1.9,18.3c1.4,12.4,12.2,25.2,27,23.2
						c12.2-1.6,21.4-13.7,21.4-27.6C81.7,177.9,81.2,174.6,80.5,171.4"/>
					<path id="XMLID_2552_" class="st1" d="M57.3,209.2c-5,0-9.7-1.7-13.8-4.9c-5.7-4.4-9.5-11.4-10.3-18.7
						c-0.7-6.7,0.5-13.1,1.9-18.3c0.6-2.4,1.4-4.8,2.2-7l0.1-0.2l6,5.9l7.6-5l6.5,9.6l2.5-13.7l5.5,3.3l0,0l5.2,10.3l3.2-7.4
						l0.1,0.2l6.9,8c0.8,3.6,1.2,6.8,1.2,9.8c0,6.8-2.2,13.4-6.2,18.5c-4,5.2-9.4,8.4-15.3,9.2C59.3,209.1,58.3,209.2,57.3,209.2z
						 M37.4,160.6c-0.8,2.1-1.5,4.4-2.1,6.8c-1.3,5.3-2.6,11.6-1.9,18.3c0.8,7.2,4.6,14.1,10.2,18.5c4.9,3.8,10.6,5.4,16.7,4.6
						c12.1-1.6,21.3-13.4,21.3-27.5c0-3-0.4-6.2-1.2-9.7l-6.7-7.8l-3.2,7.5l-5.4-10.8l-5.1-3.1l-2.6,13.9l-0.2-0.3l-6.5-9.7l-7.6,5
						L37.4,160.6z"/>
				</g>
				<polygon id="XMLID_3285_" class="st4" points="83.1,183.5 80.3,183.5 81.7,179.2 				"/>
				<polygon id="XMLID_3284_" class="st5" points="81,187.8 80.3,183.5 83.1,183.5 				"/>
				<polygon id="XMLID_3283_" class="st4" points="34.5,183.5 31.6,183.5 33,179.2 				"/>
				<polygon id="XMLID_3282_" class="st4" points="46.3,183.5 39,183.5 42.7,179.2 				"/>
				<polygon id="XMLID_3281_" class="st5" points="42.7,187.8 39,183.5 46.3,183.5 				"/>
				<polygon id="XMLID_3280_" class="st4" points="75.7,183.5 68.4,183.5 72.1,179.2 				"/>
				<polygon id="XMLID_3279_" class="st5" points="72.1,187.8 68.4,183.5 75.7,183.5 				"/>
				<polygon id="XMLID_2551_" class="st1" points="62.2,188.6 58.3,179.7 58.3,179.6 59.4,175.8 57.3,171 57.5,170.9 59.7,175.8 
					58.6,179.7 62.4,188.5 				"/>
				<polygon id="XMLID_2550_" class="st1" points="42.8,178.6 42.6,178.4 44,176.5 38.9,174.2 38.9,174.1 43.1,166.1 43.3,166.2 
					39.2,174.1 44.4,176.4 				"/>
				<polygon id="XMLID_2549_" class="st1" points="70.4,176.5 66.7,174.7 70.4,170.9 70.6,171 67.1,174.6 70.5,176.3 				"/>
				<g id="XMLID_3042_">
					<polygon id="XMLID_3275_" class="st5" points="57.4,190.2 52.4,183.5 62.3,183.5 					"/>
					<polygon id="XMLID_3274_" class="st4" points="62.3,183.5 52.4,183.5 57.4,176.8 					"/>
				</g>
				<path id="XMLID_2546_" class="st1" d="M57.4,190.4l-5.1-6.9l0.1-0.1l5.1-6.8l5.1,6.9l-0.1,0.1L57.4,190.4z M52.6,183.5l4.8,6.5
					l4.8-6.5l-4.8-6.5L52.6,183.5z"/>
				<g id="XMLID_3038_">
					<polygon id="XMLID_3040_" class="st5" points="33.6,187.8 31.6,183.5 34.5,183.5 					"/>
					<path id="XMLID_2543_" class="st1" d="M33.6,188.2l-2.2-4.7l0,0l1.6-4.7l1.6,4.7l0,0L33.6,188.2z M31.7,183.5l1.8,3.9l0.8-3.9
						l-1.3-3.9L31.7,183.5z"/>
				</g>
				<g id="XMLID_3006_">
					<polygon id="XMLID_3037_" class="st5" points="81,187.8 83,183.5 80.2,183.5 					"/>
					<path id="XMLID_2540_" class="st1" d="M81,188.2l-0.9-4.7l0,0l1.6-4.7l1.6,4.7l0,0L81,188.2z M80.3,183.5l0.8,3.9l1.8-3.9
						l-1.3-3.9L80.3,183.5z"/>
				</g>
				<path id="XMLID_2537_" class="st1" d="M42.7,188l-3.8-4.5l3.8-4.5l3.8,4.5L42.7,188z M39.2,183.5l3.5,4.1l3.5-4.1l-3.5-4.1
					L39.2,183.5z"/>
				<path id="XMLID_2534_" class="st1" d="M72.1,188l-3.8-4.5l3.8-4.5l3.8,4.5L72.1,188z M68.6,183.5l3.5,4.1l3.5-4.1l-3.5-4.1
					L68.6,183.5z"/>
				<g id="XMLID_3001_">
					<g id="XMLID_2532_">
						<ellipse id="XMLID_2528_" class="st6" cx="49.5" cy="183.5" rx="0.9" ry="2.7"/>
						<path id="XMLID_2529_" class="st1" d="M49.5,186.3c-0.5,0-0.9-1.2-0.9-2.8c0-1.6,0.4-2.8,0.9-2.8s0.9,1.2,0.9,2.8
							C50.4,185,50,186.3,49.5,186.3z M49.5,180.8c-0.5,0-0.8,1.2-0.8,2.7s0.4,2.7,0.8,2.7s0.8-1.2,0.8-2.7S49.9,180.8,49.5,180.8z"
							/>
					</g>
					<g id="XMLID_2527_">
						<ellipse id="XMLID_2523_" class="st6" cx="65.3" cy="183.5" rx="0.9" ry="2.7"/>
						<path id="XMLID_2524_" class="st1" d="M65.3,186.3c-0.5,0-0.9-1.2-0.9-2.8c0-1.6,0.4-2.8,0.9-2.8s0.9,1.2,0.9,2.8
							C66.2,185,65.8,186.3,65.3,186.3z M65.3,180.8c-0.5,0-0.8,1.2-0.8,2.7s0.4,2.7,0.8,2.7s0.8-1.2,0.8-2.7S65.7,180.8,65.3,180.8
							z"/>
					</g>
				</g>
				<g id="XMLID_2804_">
					<g id="XMLID_2522_">
						<ellipse id="XMLID_2518_" class="st6" cx="78.3" cy="183.5" rx="0.6" ry="1.9"/>
						<path id="XMLID_2519_" class="st1" d="M78.3,185.4c-0.4,0-0.7-1-0.7-1.9c0-1.1,0.3-1.9,0.7-1.9c0.4,0,0.7,1,0.7,1.9
							S78.7,185.4,78.3,185.4z M78.3,181.6c-0.3,0-0.6,0.7-0.6,1.8c0,1.1,0.3,1.8,0.6,1.8s0.6-0.7,0.6-1.8
							C78.9,182.4,78.6,181.6,78.3,181.6z"/>
					</g>
					<g id="XMLID_2517_">
						<ellipse id="XMLID_2513_" class="st6" cx="36.4" cy="183.5" rx="0.6" ry="1.9"/>
						<path id="XMLID_2514_" class="st1" d="M36.4,185.4c-0.4,0-0.7-1-0.7-1.9c0-1.1,0.3-1.9,0.7-1.9c0.4,0,0.7,1,0.7,1.9
							S36.9,185.4,36.4,185.4z M36.4,181.6c-0.3,0-0.6,0.7-0.6,1.8c0,1.1,0.3,1.8,0.6,1.8s0.6-0.7,0.6-1.8
							C37,182.4,36.7,181.6,36.4,181.6z"/>
					</g>
				</g>
				<g id="XMLID_2512_">
					<rect id="XMLID_2508_" x="37.2" y="229.3" class="st6" width="40.4" height="4.5"/>
					<path id="XMLID_2509_" class="st1" d="M77.7,234H37.1v-4.8h40.6V234z M37.3,233.7h40.1v-4.3H37.3V233.7z"/>
				</g>
				<g id="XMLID_2507_">
					<rect id="XMLID_2503_" x="40.3" y="225.3" class="st5" width="34.1" height="4"/>
					<path id="XMLID_2504_" class="st1" d="M74.5,229.4H40.2v-4.2h34.4V229.4z M40.4,229.2h33.9v-3.7H40.4V229.2z"/>
				</g>
				<g id="XMLID_2502_">
					<path id="XMLID_2498_" class="st6" d="M57.4,209.8c-5.9,0.7-14,15.5-14,15.5h14h14C71.4,225.3,63.3,210.5,57.4,209.8z"/>
					<path id="XMLID_2499_" class="st1" d="M71.6,225.5H43.1l0.1-0.2c0.3-0.6,8.3-14.9,14.1-15.6l0,0l0,0c5.9,0.7,13.8,15,14.1,15.6
						L71.6,225.5z M43.5,225.2h27.7c-1-1.7-8.4-14.6-13.8-15.3C52,210.6,44.5,223.5,43.5,225.2z"/>
				</g>
				<g id="XMLID_2497_">
					<path id="XMLID_2493_" class="st6" d="M55.9,207.7c-3-1.8-4.8-9.4-4.8-9.4s4.3,7.6,8.1,8.3L55.9,207.7z"/>
					<path id="XMLID_2494_" class="st1" d="M55.9,207.9L55.9,207.9c-3.1-1.8-4.9-9.2-4.9-9.5l-0.2-0.9l0.4,0.8c0,0.1,4.3,7.6,8,8.3
						l0.5,0.1L55.9,207.9z M51.4,199.2c0.6,2,2.2,7,4.5,8.4l2.8-0.9C55.7,205.7,52.6,201,51.4,199.2z"/>
				</g>
				<g id="XMLID_2492_">
					<path id="XMLID_2488_" class="st6" d="M58.4,207.7c3-1.8,4.8-9.4,4.8-9.4s-4.3,7.6-8.1,8.3L58.4,207.7z"/>
					<path id="XMLID_2489_" class="st1" d="M58.4,207.9l-3.8-1.3l0.5-0.1c3.7-0.7,8-8.2,8-8.3l0.4-0.8l-0.2,0.9
						C63.3,198.7,61.5,206,58.4,207.9L58.4,207.9z M55.5,206.6l2.8,0.9c2.3-1.4,3.9-6.4,4.5-8.4C61.7,201,58.6,205.7,55.5,206.6z"/>
				</g>
				<g id="XMLID_2487_">
					<path id="XMLID_2483_" class="st6" d="M59.7,208.7c4-0.2,11.1-8.1,11.1-8.1s-9.3,6.3-13.4,4.7L59.7,208.7z"/>
					<path id="XMLID_2484_" class="st1" d="M59.6,208.8L57,205l0.4,0.2c3.9,1.6,13.2-4.6,13.3-4.6l0.8-0.6l-0.7,0.7
						C70.6,201.1,63.7,208.6,59.6,208.8L59.6,208.8z M57.7,205.6l2.1,3c3.2-0.2,8.4-5.4,10.2-7.3C67.6,202.8,61.2,206.5,57.7,205.6z
						"/>
				</g>
				<g id="XMLID_2482_">
					<path id="XMLID_2478_" class="st6" d="M53.5,208.7c-4-0.2-11.1-8.1-11.1-8.1s9.3,6.3,13.4,4.7L53.5,208.7z"/>
					<path id="XMLID_2479_" class="st1" d="M53.6,208.8L53.6,208.8c-4.1-0.2-11-7.8-11.2-8.1l-0.7-0.7l0.8,0.6
						c0.1,0.1,9.3,6.2,13.3,4.6l0.4-0.2L53.6,208.8z M43.2,201.3c1.8,1.9,7,7.1,10.2,7.3l2.1-3C52,206.5,45.5,202.8,43.2,201.3z"/>
				</g>
				<g id="XMLID_2477_">
					<path id="XMLID_2473_" class="st6" d="M68.4,218.2c-1.2-4.5-7.4-8.4-11-8.4s-9.8,3.9-11,8.4c2.1,2.1,5.1,2.6,7.2,0.3
						c-0.6,4.5,3.9,5.8,3.9,5.8s4.4-1.3,3.9-5.8C63.3,220.8,66.3,220.3,68.4,218.2z"/>
					<path id="XMLID_2474_" class="st1" d="M57.4,224.4L57.4,224.4c-0.1,0-4.3-1.4-4-5.6c-0.9,0.9-1.9,1.3-3.1,1.3c0,0,0,0-0.1,0
						c-1.4,0-2.8-0.7-4-1.8l0-0.1l0-0.1c1.3-4.7,7.7-8.5,11.1-8.5c3.5,0,9.9,3.8,11.1,8.5l0,0.1l0,0.1c-1.2,1.2-2.6,1.8-4,1.8
						c0,0,0,0-0.1,0c-1.1,0-2.2-0.5-3.1-1.3C61.7,223.1,57.4,224.4,57.4,224.4L57.4,224.4z M53.7,218.1l0,0.4
						c-0.5,4.2,3.3,5.5,3.7,5.7c0.4-0.1,4.2-1.5,3.7-5.7l0-0.4l0.3,0.3c0.9,1,2,1.5,3.1,1.5c0,0,0,0,0.1,0c1.3,0,2.6-0.6,3.7-1.7
						c-1.3-4.5-7.5-8.2-10.9-8.2s-9.6,3.7-10.9,8.2c1.1,1.1,2.4,1.7,3.7,1.7c0,0,0,0,0.1,0c1.2,0,2.3-0.5,3.1-1.5L53.7,218.1z"/>
				</g>
				<g id="XMLID_2793_">
					<g id="XMLID_2472_">
						<path id="XMLID_2470_" class="st6" d="M48.1,216.4c-0.3,0.5-0.5,1-0.6,1.5c0.4,0.4,0.9,0.8,1.3,1"/>
						<path id="XMLID_2471_" class="st1" d="M48.7,219c-0.5-0.3-1-0.6-1.4-1.1l0-0.1l0-0.1c0.1-0.5,0.4-1,0.6-1.5l0.2,0.1
							c-0.3,0.5-0.5,0.9-0.6,1.4c0.4,0.4,0.8,0.7,1.3,1L48.7,219z"/>
					</g>
					<g id="XMLID_2469_">
						<path id="XMLID_2467_" class="st6" d="M66.7,216.4c0.3,0.5,0.5,1,0.6,1.5c-0.4,0.4-0.9,0.8-1.3,1"/>
						<path id="XMLID_2468_" class="st1" d="M66,219l-0.1-0.2c0.5-0.2,0.9-0.6,1.3-1c-0.1-0.5-0.3-0.9-0.6-1.4l0.2-0.1
							c0.3,0.5,0.5,1,0.6,1.5l0,0.1l0,0.1C67,218.4,66.5,218.8,66,219z"/>
					</g>
				</g>
				<g id="XMLID_2466_">
					<ellipse id="XMLID_2462_" class="st5" cx="57.4" cy="209.8" rx="3.9" ry="4.9"/>
					<path id="XMLID_2463_" class="st1" d="M57.4,214.8c-2.2,0-4-2.3-4-5s1.8-5,4-5s4,2.3,4,5S59.6,214.8,57.4,214.8z M57.4,205
						c-2.1,0-3.7,2.1-3.7,4.8s1.7,4.8,3.7,4.8s3.7-2.1,3.7-4.8S59.4,205,57.4,205z"/>
				</g>
				<g id="XMLID_2461_">
					<ellipse id="XMLID_2457_" class="st4" cx="57.4" cy="209.8" rx="2.1" ry="2.7"/>
					<path id="XMLID_2458_" class="st1" d="M57.4,212.6c-1.2,0-2.2-1.3-2.2-2.8s1-2.8,2.2-2.8s2.2,1.3,2.2,2.8
						S58.6,212.6,57.4,212.6z M57.4,207.3c-1.1,0-2,1.1-2,2.5s0.9,2.5,2,2.5s2-1.1,2-2.5S58.5,207.3,57.4,207.3z"/>
				</g>
				<g id="XMLID_2456_">
					<path id="XMLID_1692_" class="st6" d="M55.8,222.5c0.8,0.6,1.5,0.8,1.5,0.8s0.7-0.2,1.5-0.8"/>
					<path id="XMLID_2455_" class="st1" d="M57.4,223.4L57.4,223.4c-0.1,0-0.8-0.2-1.6-0.8l0.1-0.2c0.7,0.5,1.3,0.7,1.5,0.7
						c0.2-0.1,0.8-0.3,1.5-0.7l0.1,0.2C58.1,223.1,57.4,223.4,57.4,223.4L57.4,223.4z"/>
				</g>
			</g>
		</g>
	</g>
</g>
</svg>
