<?xml version="1.0" encoding="utf-8"?>
<!-- Generator: Adobe Illustrator 19.0.0, SVG Export Plug-In . SVG Version: 6.00 Build 0)  -->
<svg version="1.1" id="Capa_1" xmlns="http://www.w3.org/2000/svg" xmlns:xlink="http://www.w3.org/1999/xlink" x="0px" y="0px"
	 viewBox="0 0 172.9 269.3" style="enable-background:new 0 0 172.9 269.3;" xml:space="preserve">
<style type="text/css">
	.st0{fill:#FFFFFF;}
	.st1{fill:#46772E;}
	.st2{fill:#F2DB0C;}
	.st3{fill:#80B833;}
	.st4{fill:#E63439;}
	.st5{fill:#1D1D1B;}
</style>
<rect id="XMLID_6365_" x="0" y="0" class="st0" width="172.9" height="269.3"/>
<g id="XMLID_3054_">
	<g id="XMLID_6134_">
		<path id="XMLID_3072_" class="st1" d="M96.1,59.3c-1.6-2-12.2-1.3-13.5,0.7c0,0,3-6.5,3.5-7.2c0.5-0.7,2.5-1.6,4.2-2
			c-0.9-1-3.5-0.4-5.1,1s-5.6,9.7-5.6,9.7s2.3-9.5,3.2-10.8s3.6-1.2,3.6-2.7c0.1-1.4-2.8-3.8-3.6-3.5c-3.1,1.1-2.1,10.7-4.6,18.4
			c0,0-2.1-14-1.8-17.5c0.3-5.1,0.8-9,1.7-10.8c1.9-6.5,9.5-10.3,18.1-9.4c6.7,0.8,20.9,9.1,25.6,23.2c1.7,3.3,10.7,8.8,13.4,9.3
			c0,0,2-0.9,2.3-0.5s0.8,1.2,0.7,3.5c0,0.4-0.1,0.9-0.3,1.5l0,0c0,0-2.2,1.1-3.5,1.2c-0.7-1.4-11.8-6.3-13.9-6.5s-7.3,1.1-8.9,0.5
			c-1.6-0.6-2-1.1-4.3-1.4s-8.4,2.2-8.4,2.2S97.7,58.6,96.1,59.3"/>
		<path id="XMLID_6131_" d="M134.3,63.6L134.3,63.6c-0.7-1.4-11.8-6.4-13.9-6.5c-0.9,0-2.2,0.1-3.6,0.3c-2.1,0.3-4.3,0.5-5.3,0.2
			c-0.5-0.2-0.8-0.3-1.2-0.5c-0.8-0.4-1.5-0.7-3.1-0.9c-0.1,0-0.2,0-0.4,0c-2.5,0-7.9,2.1-8,2.2c0,0-1.1,0.3-2.8,1l0-0.1l0,0
			c-0.8-1-4.1-1.3-7-1.1c-3.2,0.2-5.8,0.9-6.3,1.8L82.6,60c0.1-0.3,3-6.5,3.5-7.2c0.5-0.7,2.4-1.5,4.2-2c-0.3-0.2-0.6-0.4-1.1-0.4
			c-1.2-0.1-2.8,0.6-3.8,1.5c-1.6,1.4-5.5,9.6-5.6,9.7l-0.3,0.6l0.2-0.7c0.1-0.4,2.3-9.5,3.2-10.8c0.4-0.6,1.2-0.9,1.9-1.2
			c0.9-0.3,1.7-0.7,1.7-1.4c0-0.8-1-2-2-2.8c-0.7-0.5-1.3-0.8-1.6-0.7c-1.8,0.6-2.2,4.1-2.7,8.4c-0.4,3.1-0.8,6.7-1.9,10l-0.1,0.3
			l0-0.3c0-0.1-2.1-14-1.8-17.5c0.3-5.5,0.8-9.2,1.7-10.8c0.9-3.1,3.3-5.8,6.6-7.5c3.3-1.7,7.4-2.3,11.5-1.9c3.7,0.4,9.1,3,13.6,6.6
			c4.1,3.2,9.4,8.7,12.1,16.7c1.6,3.2,10.6,8.7,13.3,9.3c0.4-0.2,2.1-0.8,2.4-0.4c0.4,0.5,0.8,1.3,0.7,3.5c0,0.4-0.1,0.9-0.3,1.5
			l0,0l0,0C137.8,62.5,135.7,63.6,134.3,63.6L134.3,63.6z M120.1,57c0.1,0,0.2,0,0.3,0c2.1,0.1,13,5,13.9,6.5c1.2-0.1,3.1-1,3.4-1.1
			c0.2-0.6,0.2-1,0.3-1.4c0.1-2.1-0.3-3-0.7-3.4c-0.2-0.2-1.4,0.1-2.3,0.5l0,0l0,0c-2.7-0.6-11.7-6.1-13.4-9.4
			c-4.6-14.1-18.9-22.4-25.6-23.2c-8.7-1-16.1,2.9-18,9.3c-0.8,1.7-1.4,5.3-1.6,10.8c-0.2,3.1,1.5,15,1.8,17.1
			c1-3.2,1.4-6.6,1.8-9.6c0.5-4.4,1-7.9,2.8-8.6c0.3-0.1,1,0.1,1.7,0.7c1,0.8,2.1,2,2,2.9c0,0.8-0.9,1.2-1.8,1.5
			c-0.7,0.3-1.5,0.6-1.9,1.2c-0.7,1.1-2.4,7.9-3,10.1c1-2,3.9-7.9,5.3-9.1c1.1-1,2.5-1.6,3.7-1.6c0.1,0,0.1,0,0.2,0
			c0.6,0,1,0.2,1.3,0.5l0.1,0.1l-0.1,0c-1.7,0.4-3.7,1.3-4.2,2c-0.4,0.6-2.6,5.3-3.3,6.8c1.1-0.9,3.8-1.4,6.1-1.5
			c2.7-0.2,6.1,0,7.1,1.1c1.6-0.7,2.7-1,2.7-1c0.2-0.1,5.5-2.2,8-2.2c0.1,0,0.3,0,0.4,0c1.6,0.2,2.3,0.5,3.2,0.9
			c0.3,0.2,0.7,0.3,1.2,0.5c0.9,0.4,3.1,0.1,5.2-0.2C118.1,57.2,119.3,57,120.1,57z"/>
	</g>
	<g id="XMLID_6102_">
		<path id="XMLID_6058_" class="st1" d="M48.5,222.8c-1.1-2.7,2.9-15.4,5.4-17.3c-0.4-5.7,1.3-14.1,4.3-17
			c-1.3-2.4,1.4-14.7,3.7-17.1c-0.7-4.3,2.9-15.9,4.7-17.1c-0.3-3.6,1.4-14.8,3.9-16.3c-0.7-2.8,2.5-16.9,4.1-18.1
			c1.6-1.2,1.6-8.5,1.6-8.5l12.4,3.2L101,118c0,0-3.7,6.4-2.9,8.2c0.8,1.8-3.5,15.6-5.4,17.7c1.4,2.6-2.7,13.1-4.8,16.1
			c1,1.9-1.7,13.8-4.4,17.2c0.9,3.3-2.9,15.3-5.3,16.7c1.1,4-1.6,12-4.7,16.8c1.2,2.9-1.7,15.9-4,17.7c1.2,5.1,1.4,18.5-6.4,19.9
			c-1.8,1-9.8-1.4-9.8-1.4s-8.1-2-9.2-3.7C38.1,238.2,44.9,226.6,48.5,222.8z"/>
		<path id="XMLID_6099_" d="M61.7,248.6c-2.9,0-8.2-1.5-8.4-1.6c-0.3-0.1-8.1-2-9.2-3.7c-1.5-1.2-2.3-3-2.4-5.1
			c-0.3-5.3,3.8-12.3,6.7-15.4c-0.6-1.5,0.4-5.8,1.4-8.9c1-3.2,2.6-7.3,4-8.4c-0.4-5.7,1.3-14,4.3-16.9c-1.3-2.5,1.4-14.7,3.8-17.1
			c-0.4-2.3,0.5-6.5,1.4-9.7c0.9-3.2,2.3-6.7,3.3-7.4c-0.3-3.5,1.4-14.6,3.9-16.3c-0.6-3,2.5-17,4.1-18.1c1.6-1.1,1.6-8.4,1.6-8.5
			v-0.1l0.1,0l12.4,3.2l12.5,3.4l0,0.1c0,0.1-3.7,6.4-2.9,8.1c0.8,1.8-3.4,15.4-5.4,17.8c1.3,2.7-2.8,13.2-4.8,16.1
			c0.5,1.1,0,4.8-0.8,8.1c-0.8,3.2-2.2,7.3-3.6,9.1c0.8,3.3-2.9,15.1-5.3,16.7c1.1,4-1.6,12.1-4.7,16.8c0.6,1.6,0,6-0.7,9.3
			c-0.7,3.3-2,7.4-3.3,8.4c1,4.1,1.1,12.3-1.8,16.7c-1.2,1.8-2.7,2.9-4.6,3.2C62.8,248.5,62.3,248.6,61.7,248.6z M76.3,111.5
			c0,0.9-0.1,7.4-1.6,8.5c-0.7,0.5-1.9,3.9-2.9,8.4c-0.8,3.7-1.5,8.2-1.2,9.6l0,0.1l0,0c-2.5,1.6-4.1,12.8-3.9,16.3l0,0l0,0
			c-1.8,1.2-5.3,12.9-4.7,17l0,0l0,0c-2.4,2.4-5,14.6-3.7,17l0,0l0,0c-3,2.9-4.6,11.2-4.3,16.9l0,0l0,0c-2.4,1.9-6.4,14.6-5.3,17.2
			l0,0l0,0c-2.9,3.1-7,10.1-6.7,15.3c0.1,2.1,0.9,3.8,2.4,5l0,0c1.1,1.7,9.1,3.6,9.1,3.7c0.1,0,8,2.3,9.7,1.4l0,0
			c1.9-0.3,3.4-1.4,4.6-3.1c2.9-4.4,2.8-12.5,1.8-16.6l0,0l0,0c2.2-1.7,5.1-14.7,3.9-17.6l0,0l0,0c3.1-4.7,5.9-12.8,4.7-16.8l0-0.1
			l0,0c2.3-1.4,6.1-13.4,5.2-16.6l0,0l0,0c2.6-3.2,5.4-15.1,4.4-17.1l0,0l0,0c2-2.9,6.1-13.4,4.8-16l0,0l0,0c1-1.1,2.6-5.3,3.8-8.9
			c1.4-4.4,2-7.9,1.7-8.7c-0.8-1.7,2.4-7.4,2.8-8.2l-12.3-3.4L76.3,111.5z"/>
	</g>
	<g id="XMLID_3065_">
		<g id="XMLID_6130_">
			<path id="XMLID_3071_" class="st2" d="M90.2,142.7c-0.3,1.2-16.7-4-16.6-4.5C73.6,137.8,90.5,141.5,90.2,142.7z"/>
			<path id="XMLID_6127_" d="M89.6,143c-0.7,0-2.2-0.2-5.3-1.1c-2.2-0.6-4.9-1.4-7.2-2.2c-3.7-1.2-3.7-1.4-3.6-1.5
				c0-0.1,0.1-0.3,3.9,0.5c2.4,0.5,5.1,1.1,7.4,1.7c5.8,1.6,5.7,2.1,5.6,2.3l0,0C90.3,142.8,90.2,143,89.6,143z M73.9,138.3
				c2.1,0.9,14.2,4.8,16,4.4c0.1,0,0.1,0,0.1-0.1c0,0,0,0-0.1-0.1C88.7,141.3,76.2,138.6,73.9,138.3z"/>
		</g>
		<g id="XMLID_6126_">
			<path id="XMLID_3070_" class="st2" d="M95,124.6c-0.3,1.2-16.7-4-16.6-4.5C78.5,119.8,95.3,123.4,95,124.6z"/>
			<path id="XMLID_6123_" d="M94.4,124.9c-3,0-15.6-4.1-16.1-4.6c-0.1-0.1-0.1-0.1-0.1-0.2c0,0,0-0.1,0.1-0.1
				c0.7-0.2,15.2,2.8,16.6,4.3c0.1,0.1,0.2,0.2,0.1,0.3l0,0c0,0.1-0.1,0.2-0.3,0.2C94.7,124.9,94.6,124.9,94.4,124.9z M78.8,120.3
				c2.1,0.9,14.2,4.8,16,4.4c0.1,0,0.1,0,0.1-0.1l0,0c0,0,0,0-0.1-0.1C93.5,123.2,81,120.5,78.8,120.3z"/>
		</g>
		<g id="XMLID_6122_">
			<path id="XMLID_3069_" class="st2" d="M85.7,159.5c-0.3,1.2-16.7-4-16.6-4.5C69.1,154.7,86,158.3,85.7,159.5z"/>
			<path id="XMLID_6119_" d="M85.1,159.8c-3,0-15.6-4.1-16.1-4.6c-0.1-0.1-0.1-0.1-0.1-0.2c0,0,0-0.1,0.1-0.1
				c0.7-0.2,15.2,2.8,16.6,4.3c0.1,0.1,0.2,0.2,0.1,0.3l0,0c0,0.1-0.1,0.2-0.3,0.2C85.4,159.8,85.2,159.8,85.1,159.8z M69.4,155.2
				c2.1,0.9,14.2,4.8,16,4.4c0.1,0,0.1,0,0.1-0.1l0,0c0,0,0,0-0.1-0.1C84.1,158.1,71.7,155.4,69.4,155.2z"/>
		</g>
		<g id="XMLID_6118_">
			<path id="XMLID_3068_" class="st2" d="M81.1,176.5c-0.3,1.2-16.7-4-16.6-4.5C64.6,171.7,81.4,175.3,81.1,176.5z"/>
			<path id="XMLID_6115_" d="M80.5,176.8c-3,0-15.6-4.1-16.1-4.6c-0.1-0.1-0.1-0.1-0.1-0.2c0-0.1,0.1-0.3,3.9,0.5
				c2.4,0.5,5.1,1.1,7.4,1.7c5.8,1.6,5.7,2.1,5.6,2.3c0,0.1-0.1,0.2-0.3,0.2C80.8,176.8,80.7,176.8,80.5,176.8z M64.9,172.2
				c2.1,0.9,14.2,4.8,16,4.4c0.1,0,0.1,0,0.1-0.1c0,0,0,0-0.1-0.1C79.6,175.1,67.1,172.4,64.9,172.2z"/>
		</g>
		<g id="XMLID_6114_">
			<path id="XMLID_3067_" class="st2" d="M76.6,193.3c-0.3,1.2-16.7-4-16.6-4.5C60.1,188.4,76.9,192,76.6,193.3z"/>
			<path id="XMLID_6111_" d="M76,193.6c-3,0-15.6-4.1-16.1-4.6c-0.1-0.1-0.1-0.1-0.1-0.2c0-0.1,0.1-0.3,3.9,0.5
				c2.4,0.5,5.1,1.1,7.4,1.7c5.8,1.6,5.7,2.1,5.6,2.3c0,0.1-0.1,0.2-0.3,0.2C76.3,193.6,76.2,193.6,76,193.6z M60.4,188.9
				c2.1,0.9,14.2,4.8,16,4.4c0.1,0,0.1,0,0.1-0.1c0,0,0,0-0.1-0.1C75.1,191.8,62.6,189.1,60.4,188.9z"/>
		</g>
		<g id="XMLID_6110_">
			<path id="XMLID_3066_" class="st2" d="M72.1,210.2c-0.3,1.2-16.7-4-16.6-4.5C55.6,205.3,72.4,208.9,72.1,210.2z"/>
			<path id="XMLID_6107_" d="M71.5,210.5c-3,0-15.6-4.1-16.1-4.6c-0.1-0.1-0.1-0.1,0-0.2c0-0.1,0.1-0.3,3.9,0.5
				c2.4,0.5,5.1,1.1,7.4,1.7c5.8,1.6,5.7,2.1,5.6,2.3c0,0.1-0.1,0.2-0.3,0.2C71.8,210.5,71.7,210.5,71.5,210.5z M55.8,205.8
				c2.1,0.9,14.2,4.8,16,4.4c0.1,0,0.1,0,0.1-0.1c0,0,0,0-0.1-0.1C70.6,208.7,58.1,206,55.8,205.8z"/>
		</g>
		<g id="XMLID_6106_">
			<path id="XMLID_3073_" class="st2" d="M67.4,227.6c-0.3,1.2-16.7-4-16.6-4.5C50.9,222.8,67.7,226.4,67.4,227.6z"/>
			<path id="XMLID_6103_" d="M66.8,228c-3,0-15.6-4.1-16.1-4.6c-0.1-0.1-0.1-0.1-0.1-0.2c0,0,0-0.1,0.1-0.1
				c0.7-0.2,15.2,2.8,16.6,4.3c0.1,0.1,0.2,0.2,0.1,0.3c0,0.1-0.1,0.2-0.3,0.2C67.1,227.9,67,228,66.8,228z M51.2,223.3
				c2.1,0.9,14.2,4.8,16,4.4c0.1,0,0.1,0,0.1-0.1c0,0,0,0-0.1-0.1C65.9,226.2,53.4,223.5,51.2,223.3z"/>
		</g>
	</g>
	<g id="XMLID_6138_">
		<path id="XMLID_3063_" class="st3" d="M126,70.1c0,0-0.9,0-1.1-0.1s-1.1-1.4-1.5-1.4c-0.3-0.1-2.2,1.4-2.6,1.3
			c-0.3-0.1-0.6-1.8-0.8-2.1c-0.3-0.3-4.4,0-4.8,0.2c-0.4,0.2-0.8,0.7-0.8,1.2s0.7,1.4,1.3,1.6c0.6,0.2,2.6-0.1,2.7,0
			c0.1,0-0.7,1.9-0.6,2s5.1-0.9,5.4-0.8s-1.7,3.5-1.4,3.8c0.3,0.3,3.9-1.2,4.1-1.2c0.2,0.1-0.5,2.6-1,3.6c0.1,0.1,2.6-0.7,2.1-3.3
			c0,0,0-0.1,0-0.1c0,0,0.9,0.1,2.2,0.3c0.6,1.2-1,7.2-9.8,10.3c-1.1-0.8-1.3-3.7-1.5-7.2c-0.3-1.7-3.7-3.8-3.6-2.7
			c1.4,7.3-3.5,21.2-6,27.6c1,2.9-1.4,14.2-5,20.2c-1.6,4.2-3.7,9.2-4.6,8.8s-0.9-4.3-0.9-4.3s-3.9,1.5-4.5,0.2
			c-0.2-0.4,0.3-1.9,0.3-1.9s-4.1,3.7-4.5,2.8c-0.4-0.9-1.4-4.8-1.4-4.8s-6.1,6.8-6.9,5.9c-0.8-0.9-1-4.2-1-4.2
			c1.3-2,3.6-12.2,3.6-13.5c0-1.3-0.4-3.1-0.8-3c-0.5,0.1-6.1,12-6.1,12l-0.1,0c-0.6,0.2-3.3,0.9-3.5,0.7c-0.2-0.3-0.1-1.8,0-3.4
			c0.1-1.5,5.1-21,5.1-30.5c-1.3-11-2.1-30.1-1.5-42.5l0-0.2C76.1,49,78.2,63,78.2,63c2.5-7.8,1.5-17.3,4.6-18.4
			c0.9-0.3,3.7,2.1,3.6,3.5c-0.1,1.4-2.7,1.4-3.6,2.7c-0.9,1.3-3.2,10.8-3.2,10.8s4-8.2,5.6-9.7s4.2-2.1,5.1-1
			c-1.7,0.4-3.7,1.3-4.2,2c-0.5,0.7-3.5,7.2-3.5,7.2c1.2-2,11.8-2.7,13.5-0.7l0.1,0c1.6-0.7,2.7-1,2.7-1s6.1-2.4,8.4-2.2
			c2.3,0.3,2.7,0.8,4.3,1.4c1.6,0.6,6.8-0.6,8.9-0.5c2.1,0.1,13.2,5.1,13.9,6.5c1.3-0.1,3.5-1.2,3.5-1.2l0,0.1
			c-0.8,2.8-3,7.3-5.4,10.2c-0.8,0.9-2.6,1.4-2.9,1.1s-0.7-1.6-0.7-1.6l-2,0.3C126.8,72.4,126.5,70.2,126,70.1c-0.1,0-0.2,0-0.3,0"
			/>
		<path id="XMLID_6135_" d="M98.8,132.3c-0.1,0-0.1,0-0.1,0c-0.9-0.3-1-3.4-1-4.2c-0.8,0.3-3.9,1.4-4.5,0.1
			c-0.1-0.3,0.1-1.1,0.2-1.6c-0.9,0.8-3.4,2.8-4.2,2.7c-0.1,0-0.2-0.1-0.3-0.2c-0.4-0.8-1.2-3.8-1.4-4.6c-1,1.1-5.4,5.9-6.7,5.9l0,0
			c-0.2,0-0.2-0.1-0.3-0.1c-0.8-0.9-1-4.2-1-4.3l0,0l0,0c1.3-2,3.6-12.2,3.6-13.5c0-1.2-0.3-2.6-0.6-2.8c0,0-0.1,0-0.1,0
			c-0.4,0.3-3.8,7.3-6,11.9l0,0.1l-0.2,0c-3.4,1-3.5,0.7-3.6,0.6c-0.2-0.3-0.2-1.4,0-3.5c0-0.4,0.3-1.7,0.8-3.7
			c1.4-6.3,4.3-19.5,4.3-26.8c-1.2-10.6-2.1-29.9-1.5-42.4c0-0.1,0-0.1,0-0.2l0.3,0l0,0.2c0,0,0,0,0,0c-0.1,3.3,1.4,14.1,1.7,16.7
			c0.9-3.1,1.3-6.4,1.7-9.4c0.5-4.4,1-7.9,2.8-8.6c0.5-0.2,1.4,0.4,1.8,0.7c1,0.8,2.1,2,2,3c0,0.9-0.9,1.2-1.8,1.6
			c-0.7,0.3-1.5,0.6-1.9,1.2c-0.7,1-2.2,7.1-2.9,9.6c1.1-2.3,3.8-7.5,5.1-8.7c1.1-1,2.7-1.7,4-1.6c0.6,0,1,0.2,1.3,0.6l0.1,0.2
			l-0.2,0.1c-1.7,0.4-3.7,1.3-4.2,2c-0.4,0.6-2.4,5-3.2,6.6c1.2-0.8,3.8-1.3,6-1.4c2.7-0.2,6.1,0,7.1,1.1c1.6-0.7,2.7-1,2.7-1
			c0.2-0.1,6.1-2.4,8.4-2.2c1.7,0.2,2.4,0.5,3.2,0.9c0.3,0.2,0.7,0.3,1.2,0.5c0.9,0.3,3.2,0.1,5.2-0.2c1.4-0.2,2.8-0.3,3.7-0.3
			c2.1,0.1,12.9,5,14,6.5c1.3-0.1,3.4-1.1,3.4-1.1l0.2-0.1l-0.1,0.3c-0.8,2.8-3,7.4-5.5,10.2c-0.6,0.7-1.9,1.2-2.6,1.2c0,0,0,0,0,0
			c-0.2,0-0.4-0.1-0.5-0.2c-0.3-0.3-0.6-1.3-0.7-1.6l-2,0.3l0-0.1c-0.1-1-0.4-2.1-0.7-2.2c0,0,0,0-0.1,0c-0.1,0-0.1,0-0.2,0l0,0
			c-0.3,0-0.7-0.1-0.9-0.1c-0.1,0-0.3-0.3-0.7-0.7c-0.3-0.3-0.6-0.8-0.8-0.8c-0.1,0-0.8,0.4-1.2,0.6c-0.8,0.5-1.2,0.7-1.4,0.7
			c-0.2-0.1-0.4-0.5-0.6-1.2c-0.1-0.4-0.2-0.8-0.3-0.9c-0.3-0.2-4.3,0-4.7,0.2c-0.4,0.2-0.8,0.6-0.7,1.1c0,0.5,0.6,1.3,1.2,1.5
			c0.4,0.1,1.4,0,2.1,0c0.6,0,0.6,0,0.6,0c0.1,0.1,0.1,0.1-0.2,0.9c-0.1,0.3-0.3,0.8-0.3,1.1c0.4,0,1.5-0.2,2.5-0.4
			c2-0.3,2.6-0.4,2.8-0.4l0.1,0l0,0.1c0.1,0.1-0.1,0.5-0.6,1.6c-0.3,0.7-0.9,1.8-0.8,2.1c0.3,0.1,1.8-0.5,2.6-0.8
			c1-0.4,1.3-0.5,1.4-0.4c0,0,0.1,0,0.1,0.1c0.2,0.3-0.5,2.4-0.9,3.4c0.3-0.1,0.8-0.4,1.3-0.9c0.5-0.6,0.7-1.3,0.5-2.2l-0.1-0.3
			l0.2,0c0,0,0.9,0.1,2.2,0.3l0.1,0l0,0.1c0.2,0.4,0.2,1.3-0.4,2.7c-0.6,1.5-2.9,5.4-9.5,7.8l-0.1,0l-0.1,0
			c-1.1-0.8-1.3-3.6-1.5-7.1l0-0.1c-0.3-1.3-2.6-3-3.3-2.9c0,0-0.1,0-0.1,0.1c1.3,7.1-3.2,20.4-6,27.6c1,3-1.5,14.4-5,20.3
			C100.5,130.9,99.4,132.3,98.8,132.3z M97.9,127.7l0,0.2c0,1.5,0.2,3.9,0.8,4.1c0,0,0,0,0.1,0c0.4,0,1.6-1.3,4.4-8.8
			c3.5-5.9,6-17.2,5-20.1l0,0l0,0c2.8-7.3,7.3-20.5,6-27.5c0-0.2,0.1-0.4,0.3-0.4c0,0,0.1,0,0.1,0c0.8,0,3.2,1.7,3.5,3.1l0,0.1
			c0.2,3.3,0.4,6.1,1.3,6.9c6.5-2.3,8.7-6.1,9.3-7.6c0.5-1.1,0.5-2,0.4-2.5c-0.9-0.1-1.6-0.2-1.9-0.3c0.3,1.6-0.6,2.5-1.1,2.9
			c-0.4,0.3-1,0.6-1.2,0.5l-0.1-0.1l0.1-0.1c0.4-0.9,1-3,1-3.4c-0.2,0-0.7,0.2-1.2,0.4c-2,0.7-2.7,0.9-2.9,0.7
			c-0.2-0.2,0-0.7,0.8-2.4c0.2-0.5,0.5-1.1,0.6-1.4c-0.3,0-1.6,0.2-2.6,0.4c-2.7,0.5-2.7,0.4-2.8,0.4c-0.1-0.1-0.1-0.2,0.3-1.4
			c0.1-0.2,0.2-0.5,0.2-0.6c-0.1,0-0.2,0-0.4,0c-0.7,0-1.7,0.1-2.2,0c-0.6-0.2-1.3-1.1-1.3-1.7c0-0.6,0.4-1.1,0.9-1.3
			c0.4-0.2,4.6-0.5,5-0.1c0.1,0.1,0.2,0.5,0.4,1c0.1,0.4,0.3,1,0.4,1.1c0,0,0,0,0,0c0.2,0,0.8-0.4,1.2-0.6c0.8-0.5,1.2-0.7,1.4-0.6
			c0.2,0,0.5,0.4,0.9,0.9c0.2,0.2,0.5,0.5,0.5,0.6c0.2,0.1,0.7,0.1,1,0.1c0,0,0.1,0,0.1,0c0.6,0,0.8,1.6,0.9,2.3l2-0.3l0,0.1
			c0.1,0.3,0.4,1.3,0.7,1.6c0,0,0.1,0.1,0.3,0.1c0,0,0,0,0,0c0.7,0,1.8-0.5,2.4-1.1c2.3-2.8,4.5-7.2,5.4-9.9c-0.6,0.3-2.2,1-3.3,1.1
			l-0.1,0l0-0.1c-0.7-1.3-11.9-6.3-13.8-6.4c-0.9,0-2.2,0.1-3.6,0.3c-2.1,0.3-4.3,0.5-5.3,0.2c-0.5-0.2-0.8-0.3-1.2-0.5
			c-0.8-0.4-1.5-0.7-3.1-0.9c-2.2-0.2-8.2,2.1-8.3,2.1c0,0-1.1,0.3-2.7,1l-0.2,0.1L96,59.4c-0.8-1-4.1-1.3-7-1.1
			c-3.2,0.2-5.7,0.9-6.3,1.8L82.5,60c0.1-0.3,3-6.5,3.5-7.2c0.5-0.7,2.4-1.5,4.1-2c-0.2-0.2-0.6-0.3-1-0.3c-1.2-0.1-2.7,0.6-3.8,1.5
			c-1.6,1.4-5.5,9.6-5.6,9.7l-0.5,1.1l0.3-1.1c0.1-0.4,2.3-9.5,3.2-10.8c0.4-0.6,1.2-0.9,2-1.2c0.9-0.4,1.6-0.7,1.7-1.4
			c0-0.8-0.9-2-1.9-2.7c-0.7-0.5-1.3-0.8-1.5-0.7c-1.7,0.6-2.2,4.1-2.7,8.4c-0.4,3.1-0.8,6.7-1.9,10l-0.2,0.5L78.1,63
			c0-0.1-1.3-8.8-1.7-14.1C76,61.3,76.9,78.4,78,88.1c0,7.3-2.9,20.5-4.3,26.9c-0.4,1.9-0.7,3.3-0.8,3.6c-0.2,2.2-0.1,3.1,0,3.3
			c0.2,0.1,1.5-0.2,3.3-0.7l0.1,0c1.7-3.6,5.7-11.9,6.2-12c0.1,0,0.2,0,0.3,0.1c0.5,0.4,0.7,2,0.7,3c0,1.3-2.2,11.5-3.6,13.6
			c0,0.4,0.2,3.3,0.9,4.1c0,0,0,0,0.1,0l0,0c1,0,5.1-4.3,6.6-6l0.2-0.2l0.1,0.2c0,0,1,3.9,1.4,4.8c0,0,0,0,0.1,0.1c0,0,0,0,0.1,0
			c0.7,0,2.9-1.7,4.2-2.9l0.3-0.3l-0.1,0.4c-0.2,0.6-0.4,1.5-0.3,1.8c0.5,1,3.3,0.1,4.3-0.3L97.9,127.7z"/>
	</g>
	<path id="XMLID_3056_" d="M89.7,95.2c-0.6-0.9-1.2-1.7-1.8-2.5c-1.1-1.6-2.2-3.1-3.1-4.8c-1.1-2.3-1.9-6.1-1.9-9.8
		c0-3.3,0.5-7.9,3.1-11.4c2.9-3.8,7-6.2,10-7.4l0.1,0.1c-2.9,1.3-7,3.6-9.9,7.4c-4.6,6.1-3.2,16.9-1.1,21c0.9,1.7,1.9,3.2,3,4.8
		c0.6,0.8,1.2,1.7,1.8,2.5L89.7,95.2z"/>
	<g id="XMLID_3044_">
		<g id="XMLID_6178_">
			<path id="XMLID_3053_" class="st4" d="M118.4,51.7c-0.1,0.6-7.1-1.3-7.9-3.1c-0.8-1.7,0.5-5.9,1.3-5.7c2.5,1.2,5.1,5.7,5.1,5.7
				S118.6,51.2,118.4,51.7z"/>
			<path id="XMLID_6175_" d="M118.1,51.9c-1.5,0-6.9-1.7-7.7-3.3c-0.7-1.6,0.2-4.7,0.9-5.6c0.2-0.2,0.4-0.3,0.5-0.2
				c2.5,1.2,5.1,5.5,5.2,5.7c0.3,0.4,1.7,2.6,1.5,3.2c0,0.2-0.2,0.2-0.3,0.2C118.2,51.9,118.1,51.9,118.1,51.9z M111.7,43.1
				c0,0-0.1,0.1-0.2,0.2c-0.7,0.8-1.6,3.9-0.9,5.3c0.5,1,3.3,2.2,5.7,2.8c1.2,0.3,1.8,0.3,1.9,0.3c0.1-0.4-0.9-2-1.5-3
				C116.8,48.7,114.2,44.3,111.7,43.1C111.7,43.1,111.7,43.1,111.7,43.1z"/>
		</g>
		<g id="XMLID_6174_">
			<path id="XMLID_3052_" class="st4" d="M103.4,49.7c-2.3-4.6-9.6-7.9-15.6-4C91.5,49.5,98.7,55.8,103.4,49.7z"/>
			<path id="XMLID_6171_" d="M98.7,52.4c-3.1,0-6.7-2.2-10.9-6.6l-0.1-0.1l0.1-0.1c2.6-1.7,5.7-2.2,8.8-1.3c3.1,0.8,5.7,2.9,7,5.4
				l0,0.1l0,0.1c-1.3,1.6-2.8,2.5-4.5,2.6C98.9,52.4,98.8,52.4,98.7,52.4z M88,45.7c4.1,4.3,7.7,6.4,10.7,6.4c0.1,0,0.2,0,0.3,0
				c1.7-0.1,3.1-0.9,4.3-2.4c-1.3-2.4-3.9-4.4-6.8-5.2C93.5,43.7,90.5,44.1,88,45.7z"/>
		</g>
		<g id="XMLID_6170_">
			<path id="XMLID_3051_" class="st4" d="M76.4,121.3c0,0,5.6-11.9,6.1-12c0.5-0.1,0.8,1.7,0.8,3c0,1.3-2.3,11.6-3.6,13.5
				c0,0-4.3,4.7-5.4,3.8c-0.4-0.4,0-3,0.3-4.2C74.9,124.1,76.4,121.3,76.4,121.3z"/>
			<path id="XMLID_6167_" d="M74.7,129.8c-0.2,0-0.3,0-0.4-0.1c-0.4-0.5,0-3.3,0.3-4.4c0.3-1.2,1.7-4,1.7-4.1
				c1.7-3.6,5.7-12,6.2-12.1c0.1,0,0.2,0,0.3,0.1c0.5,0.4,0.7,2,0.7,3c0,1.3-2.3,11.6-3.6,13.6C79.4,126.4,76.2,129.8,74.7,129.8z
				 M82.5,109.4C82.5,109.4,82.5,109.4,82.5,109.4c-0.4,0.3-3.8,7.3-6,11.9l0,0c0,0-1.4,2.8-1.7,4c-0.3,1.4-0.6,3.8-0.3,4.1
				c0.7,0.6,3.6-2,5.2-3.8c1.3-1.9,3.5-12.2,3.5-13.5C83.2,111.1,82.9,109.7,82.5,109.4C82.5,109.4,82.5,109.4,82.5,109.4z"/>
		</g>
		<g id="XMLID_6166_">
			<path id="XMLID_3050_" class="st4" d="M95.4,115.9c0,0-1.7,1.4-3.5,1.9c-0.8,1.4-4.3,6.3-4.3,6.3s4.1-3.9,6.5-6.3
				C94.6,117.3,95,116.7,95.4,115.9"/>
			<path id="XMLID_6163_" d="M87.7,124.2l-0.2-0.2c0,0,3.5-4.9,4.3-6.3l0,0l0,0c1.7-0.5,3.5-1.9,3.5-1.9l0.1,0.1l0.1,0.1
				c-0.5,0.8-0.9,1.4-1.3,1.9C91.8,120.3,87.7,124.2,87.7,124.2z M92,118c-0.6,1-2.5,3.7-3.5,5.2c1.4-1.3,3.9-3.7,5.6-5.4
				c0.3-0.3,0.6-0.8,1-1.3C94.4,116.9,93.2,117.6,92,118z"/>
		</g>
		<g id="XMLID_6162_">
			<path id="XMLID_3049_" class="st4" d="M107.3,82.1c0,0-10.9,19-12.1,22.6s-3.3,13.1-3.3,13.1s1.1-10.7,0.5-12.7
				c1.6-2.2,3.1-7.3,4-11C98.2,93.1,100.2,94.8,107.3,82.1z"/>
			<path id="XMLID_6159_" d="M92,117.9l-0.2,0c0-0.1,1-10.7,0.5-12.7l0-0.1l0,0c1.9-2.6,3.6-9.1,4-11l0-0.1l0,0
				c0.3-0.2,0.7-0.3,1-0.4c1.5-0.4,3.7-1.1,8.9-10c0.5-1,0.9-1.5,0.9-1.6l0.2,0.1c-0.3,0.5-0.6,1.1-0.9,1.6
				c-2.6,4.6-10.2,18-11.2,21C94.1,108.4,92.1,117.8,92,117.9z M92.6,105.2c0.4,1.6-0.1,7.5-0.4,10.7c0.7-3,1.9-8.5,2.8-11.1
				c0.8-2.3,5.3-10.6,8.6-16.5c-3.3,4.7-5,5.2-6.2,5.6c-0.3,0.1-0.6,0.2-0.9,0.3C96.1,96.2,94.5,102.5,92.6,105.2z"/>
		</g>
		<g id="XMLID_6158_">
			<path id="XMLID_3048_" class="st4" d="M99.5,76.9c-1.7,3.4-5.4,9.2-7.9,12.7c-0.1,1.4,1,2.2,0.6,3.5c-0.3,1.2-1.2,1.9-2.4,2.2
				l0-0.1c0.9,1.3,1.7,2.8,2.3,4.4c1.3-1.1,2.5-5.1,2.3-8.7c-0.1-2.4,4.1-12.8,7.9-19.5"/>
			<path id="XMLID_6155_" d="M92.1,99.8L92,99.6c-0.6-1.5-1.3-2.9-2.3-4.4l0.1-0.1l0,0c1.3-0.3,2-1,2.4-2.1c0.2-0.6,0-1.2-0.3-1.7
				c-0.2-0.5-0.4-1-0.4-1.7l0,0l0,0c2.4-3.4,6.1-9.1,7.8-12.5c0.9-2,1.9-3.9,2.9-5.6l0.2,0.1c-3.8,6.7-7.9,17.1-7.9,19.4
				c0.1,3.5-1,7.7-2.4,8.8L92.1,99.8z M90,95.3c0.9,1.4,1.6,2.7,2.1,4.1c1.1-1.2,2.3-4.9,2.2-8.5c0-1.5,1.5-6,3.6-10.9
				c-1.9,3.2-4.4,7-6.2,9.6c0,0.6,0.2,1.1,0.4,1.5c0.2,0.6,0.5,1.2,0.3,1.9C92.1,94.2,91.3,95,90,95.3z"/>
		</g>
		<g id="XMLID_6154_">
			<path id="XMLID_3047_" class="st4" d="M87.9,90.7c0,0-0.6-0.7-0.9-1.4c1.5-2.1,4.6-9.1,5.8-10.5c1.2-1.4,4.8-4.7,5.7-4.5
				C97.8,75.2,90.1,84.9,87.9,90.7z"/>
			<path id="XMLID_6151_" d="M87.9,91l-0.1-0.1c0,0-0.6-0.7-1-1.5l0-0.1l0-0.1c0.7-1,1.9-3.3,2.9-5.4c1.1-2.2,2.2-4.4,2.8-5.1
				c1-1.2,4.5-4.5,5.7-4.5c0.1,0,0.1,0,0.1,0l0.2,0l-0.1,0.1c-0.1,0.1-0.4,0.5-0.8,1.1c-2.1,2.8-7.8,10.4-9.7,15.3L87.9,91z
				 M87.1,89.3c0.2,0.5,0.6,0.9,0.7,1.2c1.9-4.9,7.5-12.3,9.6-15.2c0.3-0.4,0.5-0.7,0.6-0.9c-1,0.2-4.1,3-5.3,4.4
				c-0.6,0.7-1.7,2.8-2.8,5C88.9,86,87.8,88.2,87.1,89.3z"/>
		</g>
		<g id="XMLID_6150_">
			<path id="XMLID_3046_" class="st4" d="M85.7,87.2c0,0-1-1.8-0.8-2.5c0.6-1.9,4-7.9,8.4-12.4c2.4-2.7,7.3-5.8,7.8-5.4
				C96.2,71.7,87.4,80.7,85.7,87.2z"/>
			<path id="XMLID_6147_" d="M85.7,87.6l-0.2-0.3c-0.1-0.2-1-1.9-0.8-2.6c0.6-2,4.1-8.1,8.4-12.5c2.2-2.5,7.3-5.9,8-5.4l0.1,0.1
				l-0.1,0.1c-9,8.7-14.2,15.5-15.4,20.3L85.7,87.6z M100.8,67c-1,0.2-5.1,2.7-7.4,5.4c-4.3,4.4-7.7,10.4-8.4,12.4
				c-0.2,0.5,0.3,1.5,0.6,2.2C87,82.1,92.1,75.4,100.8,67z"/>
		</g>
		<g id="XMLID_6146_">
			<path id="XMLID_3045_" class="st4" d="M126,70.1c0,0-0.9,0-1.1-0.1s-1.1-1.4-1.5-1.4s-2.2,1.4-2.6,1.3s-0.6-1.8-0.8-2.1
				s-4.4,0-4.8,0.2c-0.4,0.2-0.8,0.7-0.8,1.2c0,0.5,0.7,1.4,1.3,1.6c0.6,0.2,2.6-0.1,2.7,0c0.1,0-0.7,1.9-0.6,2
				c0.1,0.1,5.1-0.9,5.4-0.8c0.2,0.1-1.7,3.5-1.4,3.8s3.9-1.2,4.1-1.2c0.2,0.1-0.5,2.6-1,3.6c0.1,0.1,2.6-0.8,2.1-3.4l-1-2.2
				c0,0-1.9-0.6-1.8-1.4c0.1-0.7,1.1-1,1.7-1"/>
			<path id="XMLID_6143_" d="M124.8,78.2C124.8,78.2,124.8,78.2,124.8,78.2l-0.2-0.1l0.1-0.1c0.4-0.9,1-3,1-3.4
				c-0.2,0-0.7,0.2-1.2,0.4c-2,0.7-2.7,0.9-2.9,0.7c-0.2-0.2,0-0.7,0.8-2.4c0.2-0.5,0.5-1.1,0.6-1.4c-0.3,0-1.6,0.2-2.6,0.4
				c-2.7,0.5-2.7,0.4-2.8,0.4c-0.1-0.1-0.1-0.2,0.3-1.4c0.1-0.2,0.2-0.5,0.2-0.6c-0.1,0-0.2,0-0.4,0c-0.7,0-1.7,0.1-2.2,0
				c-0.6-0.2-1.3-1.1-1.3-1.7c0-0.6,0.4-1.1,0.9-1.3c0.4-0.2,4.6-0.5,5-0.1c0.1,0.1,0.2,0.5,0.4,1c0.1,0.4,0.3,1,0.4,1.1
				c0,0,0,0,0,0c0.2,0,0.8-0.4,1.2-0.6c0.8-0.5,1.2-0.7,1.4-0.6c0.2,0,0.5,0.4,0.9,0.9c0.2,0.2,0.5,0.6,0.5,0.6
				c0.2,0.1,0.9,0.1,1.1,0.1l0,0.3c0,0-0.1,0-0.2,0v0c-0.6,0-1.5,0.3-1.6,0.9c-0.1,0.5,1.2,1.1,1.7,1.2l0.1,0l1.1,2.3
				c0.3,1.6-0.4,2.5-1.1,3C125.5,78,125,78.2,124.8,78.2z M125.7,74.4C125.8,74.4,125.8,74.4,125.7,74.4c0.1,0,0.1,0.1,0.2,0.1
				c0.2,0.3-0.5,2.4-0.9,3.4c0.3-0.1,0.9-0.4,1.3-0.9c0.5-0.6,0.7-1.4,0.5-2.3l-1-2.1c-0.4-0.1-1.9-0.7-1.8-1.5
				c0.1-0.5,0.5-0.8,1-0.9c0,0-0.1,0-0.1,0c-0.1,0-0.3-0.3-0.7-0.7c-0.3-0.3-0.6-0.8-0.8-0.8c-0.1,0-0.8,0.4-1.2,0.6
				c-0.8,0.5-1.2,0.7-1.4,0.7c-0.2-0.1-0.4-0.5-0.6-1.2c-0.1-0.4-0.2-0.8-0.3-0.9c-0.3-0.2-4.3,0-4.7,0.2c-0.4,0.2-0.8,0.6-0.7,1.1
				c0,0.5,0.6,1.3,1.2,1.5c0.4,0.1,1.4,0,2.1,0c0.6,0,0.6,0,0.6,0c0.1,0.1,0.1,0.1-0.2,0.9c-0.1,0.3-0.3,0.8-0.3,1.1
				c0.4,0,1.5-0.2,2.5-0.4c2-0.3,2.6-0.4,2.8-0.4l0.1,0l0,0.1c0.1,0.1-0.1,0.5-0.6,1.6c-0.3,0.7-0.8,1.8-0.8,2.1
				c0.3,0.1,1.8-0.5,2.6-0.8C125.3,74.5,125.6,74.4,125.7,74.4z"/>
		</g>
		<g id="XMLID_6142_">
			<path id="XMLID_3064_" class="st4" d="M111.4,42.4c-1.1,0.7-2.5,1.3-3.3,1.3c-0.9,0.1-3.7-0.8-3.8-0.7c-0.2,0.1,0.7,1.7,3.5,5
				c-8.6-7.2-17.6-10.6-23.9-9.8c1.9-2.7,12.5-1.9,18.6,3.1C104.3,42.3,110.7,41.2,111.4,42.4z"/>
			<path id="XMLID_6139_" d="M107.7,48.2c-8.3-6.9-17.4-10.6-23.9-9.7l-0.3,0l0.2-0.2c0.5-0.7,1.7-1.3,3.3-1.5
				c4.1-0.5,11,0.9,15.4,4.5c0.9,0.4,2.7,0.4,4.5,0.4c2.2,0,4.2,0,4.6,0.7l0.1,0.1l-0.1,0.1c-1,0.6-2.5,1.3-3.4,1.3
				c-0.5,0-1.7-0.2-2.6-0.4c-0.4-0.1-0.9-0.2-1.1-0.2c0.1,0.4,1.1,1.9,3.5,4.8L107.7,48.2z M85.7,38c6.1,0,13.9,3.4,21.1,9.1
				c-1.9-2.3-2.8-3.8-2.7-4.1c0,0,0-0.1,0.1-0.1c0.1-0.1,0.3,0,1.4,0.2c0.9,0.2,2,0.5,2.5,0.4c0.7,0,1.9-0.5,3.2-1.2
				c-0.5-0.5-2.4-0.5-4.3-0.4c-1.8,0-3.7,0-4.6-0.4l0,0c-4.4-3.6-11.2-5-15.3-4.5c-1.4,0.2-2.4,0.6-3,1.1C84.6,38.1,85.2,38,85.7,38
				z"/>
		</g>
	</g>
	<path id="XMLID_4362_" d="M164,258.6H9V10.7h155V258.6z M11,256.6h151V12.7H11V256.6z"/>
	<g id="XMLID_5473_">
		<path id="XMLID_5474_" class="st5" d="M19.6,24.3c0,1.6,0,3,0.1,3.7c0.1,0.5,0.1,0.7,0.6,0.9c0.2,0,0.9,0.1,1.1,0.1
			c0.1,0,0.1,0.1,0.1,0.1c0,0.1-0.1,0.1-0.3,0.1c-1.2,0-2.2,0-2.3,0c-0.1,0-1.4,0-2.5,0c-0.2,0-0.3,0-0.3-0.1c0-0.1,0.1-0.1,0.1-0.1
			c0.2,0,1,0,1.3-0.1c0.5-0.1,0.6-0.3,0.7-0.8c0-0.7,0-2.1,0-3.7v-2.8c0-0.9,0-1.6,0-2.5c0-0.3,0-0.5-0.3-0.5
			c-0.3,0-1.4,0.6-1.8,0.8c-0.1,0-0.1,0.1-0.2,0.1c0,0-0.1-0.1-0.1-0.1c0,0,0-0.1,0.1-0.2l3.1-2.1c0.1-0.1,0.3-0.2,0.4-0.2
			c0.1,0,0.2,0.2,0.2,0.3c0,0.1-0.1,1.7-0.1,4.2L19.6,24.3z"/>
	</g>
	<g id="XMLID_5470_">
		<path id="XMLID_5471_" class="st5" d="M153.3,244.9c0-1.6,0-3-0.1-3.7c-0.1-0.5-0.1-0.7-0.6-0.9c-0.2,0-0.9-0.1-1.1-0.1
			c-0.1,0-0.1-0.1-0.1-0.1c0-0.1,0.1-0.1,0.3-0.1c1.2,0,2.2,0,2.3,0c0.1,0,1.4,0,2.5,0c0.2,0,0.3,0,0.3,0.1c0,0.1-0.1,0.1-0.1,0.1
			c-0.2,0-1,0-1.3,0.1c-0.5,0.1-0.6,0.3-0.7,0.8c0,0.7,0,2.1,0,3.7v2.8c0,0.9,0,1.6,0,2.5c0,0.3,0,0.5,0.3,0.5
			c0.3,0,1.4-0.6,1.8-0.8c0.1,0,0.1-0.1,0.2-0.1c0,0,0.1,0.1,0.1,0.1c0,0,0,0.1-0.1,0.2l-3.1,2.1c-0.1,0.1-0.3,0.2-0.4,0.2
			c-0.1,0-0.2-0.2-0.2-0.3c0-0.1,0.1-1.7,0.1-4.2L153.3,244.9z"/>
	</g>
	<path id="XMLID_3059_" d="M93.7,126.2l-0.1-0.1c0.5-1.1,1.8-3.3,3.4-5.9c3.3-5.3,7.7-12.7,8.2-16.2l0.1,0
		c-0.5,3.5-4.9,10.9-8.2,16.2C95.5,122.9,94.2,125.1,93.7,126.2z"/>
	<path id="XMLID_3058_" d="M95.5,116l-0.1-0.1c2.1-3.8,3.7-10.4,4-11.7c0.8-3.3,9.3-14.7,9.6-15.1l0.1,0.1
		c-0.1,0.1-8.8,11.8-9.6,15.1C99.2,105.5,97.6,112.2,95.5,116z"/>
	<path id="XMLID_3057_" d="M87.7,124.2l-0.1-0.1c1.8-2.5,2.4-12.5,0.4-16.7l0.1-0.1C90.1,111.5,89.5,121.7,87.7,124.2z"/>
	<path id="XMLID_6179_" d="M102.4,71.4l-0.1-0.1c1.4-2.5,3.3-5.5,4.6-6c8.3-3.3,14.2-3.4,14.3-3.4c5.7,0.1,12.1,5.9,12.2,5.9
		l-0.1,0.1c-0.1-0.1-6.5-5.8-12.1-5.9c-0.1,0-6,0-14.2,3.4C105.9,65.9,104.4,67.9,102.4,71.4z"/>
</g>
</svg>
