<?xml version="1.0" encoding="utf-8"?>
<!-- Generator: Adobe Illustrator 19.0.0, SVG Export Plug-In . SVG Version: 6.00 Build 0)  -->
<svg version="1.1" id="Capa_1" xmlns="http://www.w3.org/2000/svg" xmlns:xlink="http://www.w3.org/1999/xlink" x="0px" y="0px"
	 viewBox="0 0 172.9 269.3" style="enable-background:new 0 0 172.9 269.3;" xml:space="preserve">
<style type="text/css">
	.st0{fill:#FFFFFF;}
	.st1{fill:#1D1D1B;}
	.st2{fill:#036B9C;}
	.st3{fill:#F9E925;}
	.st4{fill:#E9572D;}
	.st5{fill:#CAE6E8;}
	.st6{fill:#81CCF0;}
	.st7{fill:#D4C408;}
	.st8{fill:#9AC8CC;}
	.st9{fill:#5CB7E4;}
	.st10{fill:#E9572E;}
	.st11{fill:#024260;}
</style>
<rect id="XMLID_6400_" x="0" y="0" class="st0" width="172.9" height="269.3"/>
<g id="XMLID_6057_">
	<path id="XMLID_4429_" d="M164,258.6H9V10.7h155V258.6z M11,256.6h151V12.7H11V256.6z"/>
	<g id="XMLID_4426_">
		<path id="XMLID_4427_" class="st1" d="M19.6,24.3c0,1.6,0,3,0.1,3.7c0.1,0.5,0.1,0.7,0.6,0.9c0.2,0,0.9,0.1,1.1,0.1
			c0.1,0,0.1,0.1,0.1,0.1c0,0.1-0.1,0.1-0.3,0.1c-1.2,0-2.2,0-2.3,0c-0.1,0-1.4,0-2.5,0c-0.2,0-0.3,0-0.3-0.1c0-0.1,0.1-0.1,0.1-0.1
			c0.2,0,1,0,1.3-0.1c0.5-0.1,0.6-0.3,0.7-0.8c0-0.7,0-2.1,0-3.7v-2.8c0-0.9,0-1.6,0-2.5c0-0.3,0-0.5-0.3-0.5
			c-0.3,0-1.4,0.6-1.8,0.8c-0.1,0-0.1,0.1-0.2,0.1c0,0-0.1-0.1-0.1-0.1c0,0,0-0.1,0.1-0.2l3.1-2.1c0.1-0.1,0.3-0.2,0.4-0.2
			c0.1,0,0.2,0.2,0.2,0.3c0,0.1-0.1,1.7-0.1,4.2L19.6,24.3z"/>
	</g>
	<g id="XMLID_4423_">
		<path id="XMLID_4424_" class="st1" d="M153.3,244.9c0-1.6,0-3-0.1-3.7c-0.1-0.5-0.1-0.7-0.6-0.9c-0.2,0-0.9-0.1-1.1-0.1
			c-0.1,0-0.1-0.1-0.1-0.1c0-0.1,0.1-0.1,0.3-0.1c1.2,0,2.2,0,2.3,0c0.1,0,1.4,0,2.5,0c0.2,0,0.3,0,0.3,0.1c0,0.1-0.1,0.1-0.1,0.1
			c-0.2,0-1,0-1.3,0.1c-0.5,0.1-0.6,0.3-0.7,0.8c0,0.7,0,2.1,0,3.7v2.8c0,0.9,0,1.6,0,2.5c0,0.3,0,0.5,0.3,0.5
			c0.3,0,1.4-0.6,1.8-0.8c0.1,0,0.1-0.1,0.2-0.1c0,0,0.1,0.1,0.1,0.1c0,0,0,0.1-0.1,0.2l-3.1,2.1c-0.1,0.1-0.3,0.2-0.4,0.2
			c-0.1,0-0.2-0.2-0.2-0.3c0-0.1,0.1-1.7,0.1-4.2L153.3,244.9z"/>
	</g>
	<g id="XMLID_5442_">
		<path id="XMLID_4378_" class="st2" d="M129.4,206.7c0,0-1.1-1.1-3.1,1.3c-2,2.3-11.3,19.3-18.7,18c0,0,2.1-1.9,2.7-4.2
			c0,0-4.2,0.5-5.9-2.3c0,0,4.3,0.8,8.3-4.6c4-5.5,8.1-13.4,11.4-13.5L129.4,206.7z"/>
		<path id="XMLID_5439_" d="M108.4,226.1c-0.3,0-0.6,0-0.8-0.1l-0.2,0l0.1-0.1c0,0,2-1.8,2.6-4c-0.7,0-4.3,0.2-5.8-2.3l-0.1-0.1
			l0.2,0c0,0,4.3,0.8,8.2-4.6c1-1.4,2-2.9,3-4.5c3-4.6,5.9-9,8.4-9.1l0,0l0,0l5.4,5.3c0,0,0,0,0,0l-0.1,0.1c0,0-0.2-0.2-0.7-0.2
			c0,0,0,0-0.1,0c-0.5,0-1.2,0.3-2.3,1.5c-0.4,0.4-1.1,1.5-1.9,2.8C121.1,215.8,114.3,226.1,108.4,226.1z M107.7,225.9
			c0.2,0,0.4,0,0.7,0c5.8,0,12.6-10.2,15.9-15.3c0.9-1.3,1.5-2.3,1.9-2.8c0.9-1,1.7-1.5,2.4-1.5c0.2,0,0.3,0,0.4,0l-5-4.9
			c-2.4,0.2-5.4,4.7-8.2,9c-1,1.5-2,3.1-3,4.5c-3.5,4.8-7.3,4.8-8.2,4.7c1.7,2.5,5.7,2.1,5.7,2.1l0.1,0l0,0.1
			C109.8,223.8,108.2,225.5,107.7,225.9z"/>
	</g>
	<g id="XMLID_4376_">
		<g id="XMLID_4390_">
			<path id="XMLID_4421_" class="st3" d="M41.8,85.5c6,1.4,4.3-2.9,3.1-4.6c-5.5-0.5-5.3-5.4-4.5-6.7c2,4.8,14.7,5.6,15-2.1
				c0-0.3-0.2-0.7-0.4-1.1c2.2-0.1,4.1-1,5.6-2.6c0.2,0.5,0.4,0.8,0.6,1c6.1,4.6,13.6-5.5,11.3-10.2c1.5,0.3,5.4,3.2,2.2,7.8
				c0.6,2,2.8,6.1,5.6,0.6c4,6.1,8,20,2.7,29.9c-0.5-9.5-5.2-17.3-11.2-19.6c5.8-1.6,1.6-7.1-3.5-4.8c-1.1,0.6-2.1,3.4-2.1,3.4
				l-2.3,5.9l-6-2c0,0-2.8-1-4-0.6c-5.1,2.4-3.6,9.2,1.4,5.8c-2.1,6.1,0.8,14.7,7.8,21.2C52,104.5,43.9,92.5,41.8,85.5z"/>
			<path id="XMLID_4420_" class="st3" d="M41.6,42c0,0-0.4-1.5-2.6-2c0,0,1.4-1.4,1.2-2.5c-0.1-0.4-3.1,0.7-5.1-2
				c-1-1.5-1.3-6.9-0.6-7.2c0.4,1.7,0.9,3.3,2.1,3.4c1.2,0.1,1.7-0.8,1.8-1.3c0.1-0.5-0.4-3.2-0.4-3.2s1.8,2.2,2.2,2.4
				c0.5,0.2,1.5,0.5,2.1-0.6c0.7-1-0.3-2.4-1.3-3.8c0.7-0.3,4.6,3.3,5.1,5.1c0.8,3.3-2,4.9-1.7,5.2c0.7,0.8,2.7,0.7,2.7,0.7
				c-1,2-0.1,3.2-0.1,3.2C44.9,39.5,43.1,40.3,41.6,42z"/>
			<path id="XMLID_4419_" class="st4" d="M55.1,70.9c-0.7-1.3-1.9-3.1-1.9-3.1C48.3,61.3,42.7,47.3,41.6,42c1.5-1.7,3.3-2.6,5.6-2.6
				c3.4,4.1,10.4,17.5,12.3,25.4c0,0,0.6,2.1,1.2,3.5C59.2,70,57.3,70.8,55.1,70.9z"/>
			<path id="XMLID_4416_" d="M82.8,97.5c-0.5-9.2-5.1-17.2-11.2-19.5l-0.4-0.1l0.4-0.1c1.5-0.4,2.5-1.2,2.7-2.1
				c0.2-0.7-0.2-1.5-1-2.1c-1-0.8-2.9-1.3-5.2-0.3c-1.1,0.5-2.1,3.3-2.1,3.3l-2.4,6l-6.1-2.1c0,0-2.8-1-3.9-0.6
				c-2.2,1-3.1,2.8-3.1,4.2c0,1,0.4,1.8,1,2.1c0.8,0.5,2,0.2,3.3-0.7l0.3-0.2l-0.1,0.4c-2.2,6.1,1,14.8,7.7,21.1l0.3,0.3l-0.4-0.1
				c-10.8-2.3-19.1-14.1-21.2-21.4l-0.1-0.2l0.2,0c2,0.5,3.3,0.3,3.9-0.4c0.7-1.1-0.2-3-0.8-4c-2.7-0.3-3.9-1.6-4.4-2.6
				c-0.8-1.6-0.6-3.5-0.1-4.3l0.1-0.2l0.1,0.2c1.2,2.8,5.8,4,9.4,3.4c3.3-0.6,5.3-2.6,5.4-5.4c0-0.2-0.1-0.6-0.4-1.1l-0.1-0.2l0.2,0
				c2.2-0.1,4-1,5.5-2.6l0.1-0.1l0.1,0.2c0.2,0.5,0.4,0.8,0.6,1c2.3,1.7,5.1,1.5,7.7-0.7c2.8-2.3,4.8-6.6,3.4-9.4l-0.1-0.2l0.2,0
				c0.9,0.1,2.5,1.1,3.2,2.8c0.5,1.1,0.7,2.9-0.9,5.1c0.3,1.1,1.2,3.1,2.5,3.2c0.9,0.1,1.9-0.8,2.8-2.7l0.1-0.2l0.1,0.2
				c4.2,6.4,7.9,20.3,2.7,30L82.9,98L82.8,97.5z M77.3,70.5c-1.4-0.1-2.4-2.3-2.8-3.4l0-0.1l0,0c1.2-1.7,1.5-3.4,0.9-4.9
				c-0.6-1.4-1.9-2.4-2.8-2.6c1.2,2.8-0.8,7.1-3.6,9.4c-2.7,2.2-5.6,2.5-8,0.7c-0.2-0.2-0.4-0.5-0.6-0.9c-1.5,1.5-3.3,2.4-5.4,2.5
				c0.2,0.4,0.3,0.8,0.3,1c-0.2,3-2.2,5.1-5.6,5.7c-3.6,0.6-8.1-0.6-9.5-3.3c-0.4,0.8-0.5,2.5,0.2,3.8c0.7,1.4,2.2,2.3,4.3,2.5
				l0.1,0l0,0c0.7,1,1.7,3.1,0.9,4.3c-0.6,0.8-1.9,1-3.9,0.6c2.2,7.1,10.2,18.5,20.6,20.9C56.1,100.4,53,92,54.9,86
				c-1.3,0.8-2.4,1-3.3,0.5c-0.8-0.4-1.2-1.3-1.2-2.3c0-1.4,0.9-3.3,3.2-4.4c1.2-0.5,3.9,0.5,4,0.6l5.9,2l2.3-5.8
				c0-0.1,1-2.9,2.2-3.5c2.3-1.1,4.3-0.5,5.4,0.3c0.8,0.7,1.2,1.5,1,2.4c-0.2,1-1.1,1.7-2.5,2.2c5.9,2.4,10.3,10.2,11,19.1
				c4.8-9.5,1.2-22.9-2.8-29.2C79.3,69.7,78.3,70.6,77.3,70.5z"/>
			<path id="XMLID_4413_" d="M47.1,39.7c-2.2,0-4,0.9-5.5,2.5l-0.2,0.2l-0.1-0.2c0-0.1-0.4-1.4-2.5-1.9l-0.2,0l0.1-0.2
				c0,0,1.3-1.4,1.2-2.4c-0.1,0-0.3,0-0.5,0c-1,0-3,0.1-4.5-2c-0.9-1.4-1.2-5.5-0.9-6.9c0.1-0.3,0.2-0.5,0.3-0.5l0.1-0.1l0.1,0.2
				c0.4,1.6,0.8,3.1,2,3.3c1.2,0.1,1.6-0.9,1.7-1.2c0.1-0.3-0.2-2.1-0.4-3.2l-0.1-0.5l0.3,0.4c0.7,0.9,1.9,2.2,2.2,2.3
				c0.3,0.1,1.3,0.5,2-0.5c0.6-1-0.3-2.3-1.3-3.6l-0.1-0.2l0.1-0.1c0.1-0.1,0.3,0,0.6,0.1c1.3,0.6,4.2,3.5,4.7,5.1
				c0.6,2.5-0.8,4-1.4,4.7c-0.2,0.2-0.3,0.4-0.3,0.4c0.7,0.7,2.6,0.6,2.6,0.6l0.2,0l-0.1,0.2c-1,1.9-0.2,3-0.1,3.1l0.1,0.2
				L47.1,39.7z M44.5,35.7c-0.2-0.2,0-0.4,0.3-0.7c0.7-0.8,1.9-2.2,1.4-4.5c-0.4-1.5-3.3-4.4-4.6-4.9c-0.1,0-0.2-0.1-0.2-0.1
				c1,1.4,1.8,2.7,1.2,3.8c-0.8,1.2-2,0.8-2.3,0.6c-0.4-0.2-1.4-1.4-2-2c0.1,0.8,0.4,2.4,0.3,2.8c-0.1,0.4-0.5,1.5-2,1.4
				c-1.3-0.2-1.7-1.7-2.1-3.3c0,0.1-0.1,0.1-0.1,0.2c-0.4,1.3,0,5.4,0.8,6.7c1.4,1.9,3.3,1.9,4.3,1.9c0.5,0,0.8,0,0.8,0.2l0,0
				c0.1,0.9-0.8,2-1.1,2.4c1.6,0.4,2.2,1.4,2.4,1.8c1.4-1.6,3.2-2.4,5.3-2.5c-0.2-0.4-0.6-1.5,0.1-3C46.5,36.5,45.1,36.4,44.5,35.7z
				"/>
			<path id="XMLID_4410_" d="M55,71.1L55,71.1l-0.1-0.1C54.2,69.8,53,68,53,67.9c-4.8-6.5-10.5-20.5-11.5-25.8l0-0.1l0,0
				c1.5-1.7,3.4-2.6,5.7-2.6l0.1,0l0,0c3.4,4.2,10.5,17.6,12.4,25.4c0,0,0.6,2.1,1.2,3.5l0,0.1l-0.1,0.1c-0.3,0.3-0.5,0.5-0.8,0.8
				C58.5,70.4,56.9,71.1,55,71.1z M59.3,64.9c-1.9-7.8-8.9-21-12.3-25.3c-2.2,0-4,0.9-5.4,2.5c1.1,5.4,6.7,19.2,11.5,25.6l0,0
				c0,0,1.2,1.8,1.9,3.1c2.1-0.1,3.9-1,5.4-2.5C59.9,67,59.3,65,59.3,64.9z"/>
			<g id="XMLID_4407_">
				<polygon id="XMLID_4409_" class="st5" points="45.7,43.6 48,48.5 45.8,46.5 				"/>
				<polygon id="XMLID_4408_" class="st6" points="48,45.5 48,48.5 45.7,43.6 				"/>
			</g>
			<g id="XMLID_4404_">
				<polygon id="XMLID_4406_" class="st6" points="52.8,54.4 52.9,58.9 49.4,51.4 				"/>
				<polygon id="XMLID_4405_" class="st5" points="49.4,51.4 52.9,58.9 49.5,55.9 				"/>
			</g>
			<g id="XMLID_4401_">
				<polygon id="XMLID_4403_" class="st5" points="54.2,61.8 56.5,66.7 54.3,64.8 				"/>
				<polygon id="XMLID_4402_" class="st6" points="56.5,63.8 56.5,66.7 54.2,61.8 				"/>
			</g>
			<g id="XMLID_4391_">
				<path id="XMLID_4398_" d="M45.7,46.6l-0.1-3.1l2.4,2.1l0.1,3.2L45.7,46.6z M45.8,43.8l0.1,2.8l2.1,1.8l-0.1-2.8L45.8,43.8z"/>
				<path id="XMLID_4395_" d="M49.4,56l-0.1-4.8l3.6,3.1l0.1,4.8L49.4,56z M49.5,51.5l0.1,4.4l3.3,2.9l-0.1-4.4L49.5,51.5z"/>
				<path id="XMLID_4392_" d="M54.2,64.8l-0.1-3.1l2.4,2.1l0.1,3.1L54.2,64.8z M54.3,62l0.1,2.8l2.1,1.8l-0.1-2.8L54.3,62z"/>
			</g>
		</g>
		<g id="XMLID_4377_">
			<g id="XMLID_4385_">
				<path id="XMLID_4389_" class="st7" d="M116.2,213.4l13.9-6.5c6.6,14.6,6.9,29.1,8.6,36.6C134,237.4,123.1,227.8,116.2,213.4z"/>
				<path id="XMLID_4386_" d="M138.6,243.6c-1.3-1.7-3-3.6-5-5.9c-5.3-5.8-12.5-13.8-17.5-24.3l-0.1-0.1l14.1-6.6l0.1,0.1
					c4.8,10.6,6.3,21.3,7.4,29c0.4,3,0.8,5.6,1.2,7.6l0.1,0.5L138.6,243.6z M116.3,213.4c5,10.4,12.2,18.4,17.4,24.2
					c1.9,2.1,3.5,3.9,4.7,5.4c-0.4-2-0.8-4.4-1.1-7.1c-1.1-7.7-2.6-18.3-7.3-28.9L116.3,213.4z"/>
			</g>
			<g id="XMLID_4382_">
				<path id="XMLID_4384_" class="st8" d="M116.2,213.4c-5.5-10.8-12.4-27.1-14.2-33.8c-1.8-6.7-8.2-19.9-12-26.7
					c-3.8-6.8-8.1-14.7-15.7-20.4c0,0,2,0.2,3.3-0.1c1.3-0.3,1.8-1.4,0.7-2.9c-1.9-2.5-6.2-7.5-8.5-9.3c-2.3-1.8-2.9-0.9-2.7,1.3
					l0.2,2.2c-4-4.1-9.6-13.3-10.5-16.6c0,0,4.1,2.9,8.2,4.5c4.1,1.6,6.9,1.2,3.2-2.7c-3.7-3.9-5.2-4.6-6.9-6.9
					c3.5-0.2,4.7,0,3.8-2.9l-1.8-4.7c-1.5-2.8-2.9-0.1-2.9-0.1L59,96.9c-1.7-2.4-2.9-7-1.9-9.6c1-2.6,0.9,3.2,3.3-1.5
					c0.2-0.5-2.8-5.1-2.8-5.1l6.1,2.1l59.4,127.4L116.2,213.4z"/>
				<path id="XMLID_4383_" class="st9" d="M63.7,82.7l2.3-6c0,0,1.6,5.3,2.1,5.4c5.1,1.2,0.6-2.4,3.3-1.5c2.7,0.9,5.4,4.8,6.1,7.7
					l-3-0.7c0,0-3-0.7-1.8,2.3l2.4,4.4c1.6,2.5,2.3,1.5,4.7-1.1c0.7,2.8,0.2,4.4,0.9,9.7c0.6,5.4,2.8,3.4,4.1-0.7
					c1.4-4.2,1.8-9.2,1.8-9.2c2,2.8,5.5,13,6,18.7l-1.6-1.6c-1.6-1.6-2.6-1.7-2.7,1.2c-0.1,2.9,0.9,9.4,1.7,12.5
					c0.4,1.8,1.5,2.1,2.7,1.3c1.1-0.8,2.2-2.5,2.2-2.5c-0.5,9.5,2.8,17.9,5.6,25.2c2.8,7.2,8.8,20.6,12.8,26.3
					c3.9,5.7,12.1,21.5,16.8,32.6l-6.9,3.2L63.7,82.7z"/>
			</g>
			<path id="XMLID_4379_" d="M116.1,213.4c-5.4-10.6-12.3-27-14.2-33.8c-1.8-6.6-8.2-20-12-26.7l-0.2-0.4c-3.8-6.8-8-14.4-15.5-20
				l-0.4-0.3l0.4,0c0,0,2,0.2,3.3-0.1c0.6-0.2,1-0.5,1.2-0.9c0.2-0.5,0-1.1-0.5-1.8c-1.8-2.5-6.2-7.5-8.5-9.3
				c-1-0.8-1.7-1.1-2.1-0.9c0,0,0,0,0,0c-0.4,0.2-0.5,0.9-0.4,2l0.2,2.5l-0.2-0.2c-4.1-4.1-9.7-13.3-10.5-16.7l-0.1-0.3l0.3,0.2
				c0,0,4.2,2.9,8.2,4.5c2.4,0.9,4.2,1.2,4.7,0.5c0.2-0.3,0.3-1.1-1.6-3c-1.7-1.8-2.9-2.9-3.9-3.8c-1.2-1.1-2.1-1.8-3-3.1l-0.1-0.2
				l0.7,0c1.8-0.1,2.9-0.1,3.3-0.7c0.3-0.4,0.2-1-0.1-2l-1.8-4.7c-0.4-0.8-0.9-1.2-1.4-1.2c-0.8,0-1.3,1.1-1.3,1.1L59,97.1L58.9,97
				c-1.7-2.5-3-7.1-1.9-9.7c0.2-0.5,0.4-0.8,0.6-0.8c0.2,0,0.4,0.2,0.6,0.5c0.2,0.3,0.4,0.6,0.6,0.6c0.3,0,0.7-0.3,1.5-1.8
				c0.1-0.3-1.3-2.8-2.8-5l-0.2-0.3l6.4,2.2l2.4-6.3l0.1,0.3c0.8,2.5,1.8,5.2,2,5.3c1.6,0.4,2.2,0.3,2.3,0.1c0.2-0.2,0.1-0.6,0-0.9
				c-0.1-0.3-0.2-0.6,0-0.8c0.2-0.1,0.5-0.1,1,0.1c2.7,0.9,5.4,4.8,6.2,7.7l0.1,0.2l-3.2-0.7c0,0-1.2-0.3-1.7,0.3
				c-0.3,0.4-0.3,1,0,1.8l2.4,4.4c0.6,0.9,1.1,1.4,1.5,1.4c0.7,0.1,1.4-0.8,2.6-2.1l0.5-0.6l0.1,0.2c0.4,1.5,0.4,2.7,0.5,4.3
				c0,1.3,0.1,3,0.4,5.5c0.3,2.7,1,3.1,1.3,3.2c0.8,0.1,1.8-1.5,2.6-3.9c1.3-4.1,1.8-9.1,1.8-9.1l0-0.3l0.2,0.3c2,2.8,5.5,13,6,18.8
				l0,0.3l-1.8-1.8c-0.8-0.8-1.4-1.2-1.8-1c0,0,0,0,0,0c-0.4,0.2-0.6,0.9-0.6,2.2c-0.1,3,0.9,9.5,1.7,12.5c0.2,0.9,0.6,1.4,1.1,1.6
				c0.4,0.2,0.9,0,1.4-0.3c1.1-0.8,2.2-2.4,2.2-2.4l0.2-0.4l0,0.4c-0.5,9.3,2.7,17.5,5.4,24.7l0.1,0.4c2.7,7.2,8.8,20.6,12.7,26.3
				c4,5.8,12.2,21.7,16.8,32.6l0,0.1l-14.1,6.6L116.1,213.4z M113.1,174.3c-3.9-5.7-10-19.2-12.8-26.4l-0.2-0.4
				c-2.7-7.1-5.8-15.2-5.4-24.4c-0.4,0.5-1.2,1.6-2,2.2c-0.6,0.4-1.1,0.6-1.6,0.4c-0.6-0.2-1-0.8-1.2-1.7c-0.7-3-1.8-9.6-1.7-12.5
				c0-1.4,0.3-2.2,0.8-2.4c0.5-0.2,1.2,0.1,2.1,1.1l1.3,1.3c-0.6-5.6-3.8-15-5.8-18c-0.1,1.2-0.6,5.4-1.8,8.9
				c-0.7,2-1.8,4.2-2.8,4.1c-0.8-0.1-1.3-1.2-1.5-3.4c-0.3-2.5-0.3-4.1-0.4-5.5c0-1.5-0.1-2.6-0.4-4l-0.2,0.2
				c-1.3,1.4-2.1,2.3-2.8,2.2c-0.5,0-1-0.5-1.7-1.5l-2.4-4.4c-0.4-0.9-0.4-1.6,0-2.1c0.6-0.7,1.9-0.4,2-0.4l2.8,0.6
				c-0.8-2.9-3.5-6.5-6-7.4c-0.6-0.2-0.7-0.1-0.8-0.1c-0.1,0.1,0,0.3,0.1,0.5c0.1,0.4,0.3,0.8,0,1.1c-0.3,0.4-1.1,0.3-2.6,0
				C67.6,82,66.5,78.5,66,77l-2.2,5.7l0,0.1l-5.9-2c0.9,1.3,2.8,4.5,2.6,4.9c-0.7,1.3-1.2,2-1.7,2c-0.4,0-0.7-0.4-0.9-0.7
				c-0.1-0.2-0.3-0.4-0.3-0.4c0,0-0.2,0.1-0.4,0.6c-1,2.5,0.1,6.9,1.8,9.3l1.4-2.6c0-0.1,0.6-1.2,1.6-1.3c0.6,0,1.1,0.4,1.6,1.3
				l1.8,4.7c0.4,1.1,0.4,1.8,0.1,2.3c-0.5,0.6-1.6,0.7-3.5,0.8l-0.3,0c0.9,1.2,1.7,1.9,2.8,2.9c1,0.9,2.2,2,3.9,3.8
				c1.5,1.6,2,2.7,1.6,3.4c-0.6,0.9-3,0.4-4.9-0.4c-3.4-1.4-6.9-3.7-7.9-4.3c1.1,3.5,6.2,11.9,10.1,16l-0.2-1.9
				c-0.1-1.3,0.1-2,0.5-2.3c0.5-0.3,1.3,0,2.4,0.9c2.3,1.8,6.7,6.9,8.5,9.3c0.6,0.8,0.8,1.5,0.6,2c-0.2,0.5-0.6,0.8-1.3,1
				c-1,0.2-2.3,0.2-3,0.2c7.3,5.6,11.5,13.2,15.2,19.9l0.2,0.4c3.7,6.7,10.2,20.1,12,26.7c1.9,6.8,8.7,23.1,14.1,33.7l13.6-6.4
				C125.2,195.9,117.1,180.1,113.1,174.3z"/>
			<g id="XMLID_5438_">
				
					<rect id="XMLID_4375_" x="57.8" y="78.1" transform="matrix(-0.9063 0.4226 -0.4226 -0.9063 153.6641 127.0089)" class="st10" width="9.9" height="4.9"/>
				<path id="XMLID_5435_" d="M59.2,85l-2.2-4.7l9.2-4.3l2.2,4.7L59.2,85z M57.4,80.5l2,4.2l8.7-4.1l-2-4.2L57.4,80.5z"/>
			</g>
		</g>
	</g>
	<g id="XMLID_5434_">
		<path id="XMLID_4374_" class="st11" d="M85.9,148.1c1.2,1.3,2,2.1,2.3,1.2c0.3-0.9-0.7-1.1-0.7-1.1l-4.5-6.5c0,0,0.2,1.5,1.1,3.2
			L85.9,148.1z"/>
		<path id="XMLID_5431_" d="M87.8,149.7c-0.4,0-1-0.6-1.9-1.6l0,0l-1.8-3.3c-0.9-1.7-1.1-3.2-1.1-3.2l0-0.3l0.2,0.3l4.5,6.5
			c0.1,0,0.5,0.1,0.7,0.5c0.1,0.2,0.1,0.4,0,0.7C88.2,149.5,88.1,149.6,87.8,149.7C87.9,149.7,87.8,149.7,87.8,149.7z M86,148
			c0.8,0.8,1.4,1.5,1.8,1.5c0,0,0,0,0.1,0c0.1,0,0.2-0.1,0.3-0.3c0.1-0.2,0.1-0.4,0-0.6c-0.2-0.3-0.6-0.4-0.7-0.4l0,0l0,0l-4.3-6.2
			c0.1,0.5,0.4,1.6,1,2.8L86,148z"/>
	</g>
	<g id="XMLID_5430_">
		<path id="XMLID_4373_" class="st11" d="M100.4,145.1c0,0,0.8,1.8,0.1,2.9l-1.5-4.2C99,143.7,98.9,141.7,100.4,145.1z"/>
		<path id="XMLID_5427_" d="M100.5,148.1l-0.1-0.1l-1.5-4.2c0-0.1,0-0.6,0.2-0.7c0,0,0,0,0,0c0.2,0,0.5,0.3,1.3,2
			c0,0.1,0.8,1.8,0.1,2.9L100.5,148.1z M99.1,143.7l1.5,4c0.5-1.1-0.2-2.6-0.2-2.7v0c-0.8-1.8-1.1-1.9-1.1-1.9c0,0,0,0,0,0
			C99.1,143.2,99,143.5,99.1,143.7z"/>
	</g>
	<g id="XMLID_5426_">
		<path id="XMLID_4372_" class="st2" d="M86.9,149.9c0,0,0.8,2.5,4.4-0.2c3.7-2.7,2.6-1.8,4.3-3.1c1.7-1.3,3.8-2.8,4.7-1.5l-2.5-6.4
			c0,0-1.9-1.2-5,1.4s-7.2,6.8-8.8,4.7L86.9,149.9z"/>
		<path id="XMLID_5423_" d="M88.5,151c-0.2,0-0.4,0-0.6-0.1c-0.8-0.3-1-0.9-1-1l-2.8-5.1l0.1-0.1c0.2,0.3,0.5,0.5,0.9,0.5
			c0.1,0,0.1,0,0.2,0c1.5,0,3.9-2.1,6-3.9c0.6-0.5,1.1-1,1.6-1.4c3.2-2.6,5-1.5,5.1-1.5l0,0l0,0l2.7,7l-0.4-0.5
			c-0.2-0.3-0.4-0.4-0.8-0.5c-0.1,0-0.1,0-0.2,0c-1,0-2.5,1.1-3.7,2c-0.9,0.7-1,0.8-1.5,1.2c-0.4,0.3-1.1,0.8-2.8,2
			C90.3,150.6,89.3,151,88.5,151z M84.4,145.2l2.6,4.7c0,0,0.2,0.7,1,0.9c0.8,0.3,2-0.1,3.4-1.1c1.6-1.2,2.4-1.7,2.8-2
			c0.5-0.4,0.6-0.4,1.5-1.2c1.3-1,2.8-2.2,4-2c0.2,0,0.4,0.1,0.6,0.2l-2.4-6c-0.2-0.1-2-0.9-4.9,1.5c-0.5,0.4-1.1,0.9-1.6,1.4
			c-2.3,2-4.7,4.1-6.3,3.9C84.8,145.4,84.6,145.3,84.4,145.2z"/>
	</g>
	<g id="XMLID_5422_">
		<path id="XMLID_4371_" class="st11" d="M98.3,170.9c1.2,1.3,1.6,2.7,1.6,2.7l-3.9-9c0,0-0.4,1.3,0.5,3L98.3,170.9z"/>
		<path id="XMLID_5419_" d="M99.8,173.7l-0.6-1.5c-0.2-0.4-0.5-0.8-0.9-1.3l0,0l-1.8-3.3c-0.9-1.7-0.5-3-0.5-3.1l0.1-0.2l3.4,7.7
			c0.5,0.8,0.6,1.5,0.6,1.5L99.8,173.7z M98.4,170.9c0.2,0.2,0.3,0.4,0.5,0.6l-2.8-6.5c-0.1,0.4-0.1,1.5,0.5,2.7L98.4,170.9z"/>
	</g>
	<g id="XMLID_5418_">
		<path id="XMLID_4370_" class="st11" d="M110.8,168.8c0,0,0.5,0.9,0.1,1.6l-1.6-2.9C109.3,167.5,109.3,165.4,110.8,168.8z"/>
		<path id="XMLID_5415_" d="M110.9,170.6l-0.1-0.1l-1.6-3c0-0.1,0-0.6,0.3-0.7c0.2,0,0.5,0.1,1.4,2
			C110.9,168.9,111.4,169.8,110.9,170.6L110.9,170.6z M109.4,167.4l1.5,2.8c0.3-0.6-0.1-1.4-0.1-1.4l0,0c-0.8-1.7-1.1-1.9-1.2-1.9
			c0,0,0,0,0,0C109.4,167,109.4,167.2,109.4,167.4z"/>
	</g>
	<g id="XMLID_5414_">
		<path id="XMLID_4369_" class="st2" d="M99.3,172.7c0,0,0.8,2.5,3.9,0.1c3.1-2.4,2.2-1.6,3.6-2.8c1.4-1.2,3.2-2.5,4.1-1.2l-3-6.3
			c0,0-1.3-1.3-3.9,1c-2.6,2.4-6,6.2-7.4,4.1L99.3,172.7z"/>
		<path id="XMLID_5411_" d="M100.8,173.9c-0.2,0-0.3,0-0.5-0.1c-0.8-0.2-1.1-1-1.1-1.1l-2.8-5.1l0.1-0.1c0.2,0.4,0.5,0.5,0.9,0.6
			c0,0,0.1,0,0.1,0c1.3,0,3.1-1.7,4.9-3.4c0.5-0.4,0.9-0.9,1.3-1.3c2.7-2.4,3.9-1.1,4-1l0,0l3,6.3l-0.1,0.1
			c-0.2-0.3-0.5-0.5-0.8-0.5c-0.1,0-0.1,0-0.2,0c-0.9,0-2.1,0.9-3,1.7c-0.8,0.7-0.9,0.7-1.3,1.1c-0.4,0.3-0.9,0.7-2.3,1.8
			C102.3,173.6,101.5,173.9,100.8,173.9z M96.8,168.1l2.5,4.6c0,0,0.3,0.8,1,1c0.7,0.2,1.7-0.1,2.7-1c1.4-1.1,2-1.5,2.3-1.8
			c0.4-0.3,0.5-0.4,1.3-1c1-0.8,2.2-1.8,3.1-1.8c0.1,0,0.1,0,0.2,0c0.2,0,0.4,0.1,0.5,0.2l-2.8-5.9c-0.1-0.1-1.3-1.1-3.8,1
			c-0.4,0.4-0.9,0.8-1.3,1.3c-1.8,1.7-3.7,3.5-5,3.5c-0.1,0-0.1,0-0.2,0C97.2,168.3,97,168.2,96.8,168.1z"/>
	</g>
	<g id="XMLID_5410_">
		<path id="XMLID_4368_" class="st11" d="M106.8,195.6c1.3,1.2,2.3,2.8,2.3,2.8l-4.3-10.6c0,0-0.8,2.9,0.1,4.6L106.8,195.6z"/>
		<path id="XMLID_5407_" d="M109.1,198.4c0,0-1-1.6-2.3-2.7l0,0l-1.9-3.2c-0.9-1.7-0.2-4.5-0.1-4.6l0.1-0.2l0.1,0.2l4.3,10.6
			L109.1,198.4z M106.9,195.5c0.8,0.8,1.5,1.7,2,2.2l-4-9.8c-0.2,0.7-0.6,2.9,0.2,4.3L106.9,195.5z"/>
	</g>
	<g id="XMLID_5406_">
		<path id="XMLID_4367_" class="st11" d="M124.1,191.2c0,0,1.2,2.2,0,2.9l-4.8-9.3C119.4,184.8,122.6,187.8,124.1,191.2z"/>
		<path id="XMLID_5403_" d="M124.1,194.2L124.1,194.2l-5-9.8l0.3,0.3c0,0,3.3,3.1,4.7,6.5C124.2,191.3,125.4,193.5,124.1,194.2
			L124.1,194.2z M119.7,185.2l4.5,8.8c1-0.6-0.1-2.7-0.1-2.7l0,0C122.9,188.6,120.5,186,119.7,185.2z"/>
	</g>
	<g id="XMLID_5402_">
		<path id="XMLID_4366_" class="st2" d="M107.9,197.4c0,0,0.7,2.5,5.3-0.5c4.5-3.1,3.3-2.1,5.3-3.6c2.1-1.5,4.7-3.2,5.7-2l-3-6.3
			c0,0-1.5-1.2-5.4,1.8c-3.9,3-9.1,7.7-10.7,5.6L107.9,197.4z"/>
		<path id="XMLID_5399_" d="M109.4,198.4c-0.3,0-0.5,0-0.7-0.1c-0.7-0.3-0.9-0.8-0.9-0.9l-2.9-5l0.1-0.1c1.3,1.7,5.2-1.4,8.6-4.1
			c0.7-0.6,1.4-1.1,2-1.6c3.9-3,5.5-1.8,5.5-1.7l0,0l3.3,6.9l-0.4-0.6c-0.9-1.2-3.5,0.4-5.6,2c-1.1,0.8-1.3,0.9-1.9,1.3
			c-0.5,0.3-1.4,0.9-3.4,2.3C111.6,197.9,110.4,198.4,109.4,198.4z M105.2,192.7l2.7,4.7c0,0,0.2,0.6,0.8,0.8c0.7,0.2,2,0.2,4.3-1.4
			c2-1.4,2.9-1.9,3.4-2.3c0.6-0.4,0.8-0.5,1.9-1.3c2-1.5,4.3-3,5.5-2.2L121,185c-0.1-0.1-1.7-1-5.3,1.8c-0.6,0.5-1.3,1-2,1.6
			C110.3,191,106.9,193.7,105.2,192.7z"/>
	</g>
	<g id="XMLID_5398_">
		<path id="XMLID_4365_" class="st11" d="M92.5,121.3c0,0,0.5,0.5-1.3,1.6c0,0-1.4,1-0.9,2l-0.9-3.5C89.5,121.4,92,120,92.5,121.3z"
			/>
		<path id="XMLID_5395_" d="M90.3,124.9c-0.1-0.1-0.1-0.3-0.1-0.4l-0.8-3.2l0,0c0.1,0,1.6-0.9,2.5-0.6c0.3,0.1,0.5,0.3,0.6,0.6
			c0,0,0.1,0.1,0.1,0.3c0,0.3-0.3,0.7-1.3,1.4c0,0-1,0.7-0.9,1.5l0.1,0.4L90.3,124.9z M89.6,121.4l0.7,2.7c0.2-0.7,0.9-1.2,1-1.3
			c1-0.6,1.2-1,1.3-1.2c0-0.1,0-0.2,0-0.2l0,0c-0.1-0.2-0.3-0.4-0.5-0.5C91.2,120.6,89.9,121.3,89.6,121.4z"/>
	</g>
	<g id="XMLID_5394_">
		<path id="XMLID_3003_" class="st2" d="M92.6,121.4c0,0-0.6-1.4-4.3,0.6c-3.7,1.9-24.3,17.4-32.3,14.2c0,0,3.5-1.4,5.6-3.7
			c0,0-5.1-0.5-5.5-3.8c0,0,4.5,1.9,12.3-2.8c7.8-4.7,17.2-12,21.1-11.3L92.6,121.4z"/>
		<path id="XMLID_4135_" d="M58.5,136.7c-0.9,0-1.8-0.1-2.5-0.4l-0.2-0.1l0.2-0.1c0,0,3.4-1.4,5.4-3.6c-0.8-0.1-5.1-0.9-5.5-3.8
			l0-0.1l0.1,0.1c0,0,4.6,1.9,12.2-2.8c2-1.2,4.1-2.6,6.1-3.9c5.8-3.8,11.4-7.5,14.5-7.5c0.2,0,0.4,0,0.5,0l0,0l0,0l3.2,6.8
			l-0.1,0.1c0,0-0.1-0.2-0.5-0.3c-0.5-0.2-1.6-0.2-3.7,0.9c-0.7,0.4-2.1,1.3-3.8,2.4C78.1,128.6,65.7,136.7,58.5,136.7z M56.2,136.2
			c6.5,2.3,21.1-7.3,28.2-11.9c1.8-1.1,3.1-2.1,3.9-2.4c2.2-1.1,3.3-1.1,3.9-0.9c0.1,0,0.2,0.1,0.3,0.1l-3-6.4c-0.1,0-0.3,0-0.5,0
			c-3,0-8.8,3.8-14.4,7.4c-2,1.3-4.1,2.7-6.1,3.9c-7,4.3-11.5,3.1-12.3,2.9c0.5,3,5.4,3.6,5.5,3.6l0.1,0l-0.1,0.1
			C59.8,134.5,56.9,135.9,56.2,136.2z"/>
	</g>
</g>
</svg>
