<?xml version="1.0" encoding="UTF-8" standalone="no"?>
<svg
   xmlns:dc="http://purl.org/dc/elements/1.1/"
   xmlns:cc="http://creativecommons.org/ns#"
   xmlns:rdf="http://www.w3.org/1999/02/22-rdf-syntax-ns#"
   xmlns:svg="http://www.w3.org/2000/svg"
   xmlns="http://www.w3.org/2000/svg"
   viewBox="0 0 97.013252 82.827621"
   height="82.827621"
   width="97.013252"
   xml:space="preserve"
   version="1.1"
   id="svg2"><metadata
     id="metadata8"><rdf:RDF><cc:Work
         rdf:about=""><dc:format>image/svg+xml</dc:format><dc:type
           rdf:resource="http://purl.org/dc/dcmitype/StillImage" /></cc:Work></rdf:RDF></metadata><defs
     id="defs6"><clipPath
       id="clipPath16"
       clipPathUnits="userSpaceOnUse"><path
         id="path18"
         d="m 0,66.262 77.611,0 L 77.611,0 0,0 0,66.262 Z" /></clipPath></defs><g
     transform="matrix(1.25,0,0,-1.25,0,82.827625)"
     id="g10"><g
       id="g12"><g
         clip-path="url(#clipPath16)"
         id="g14"><g
           transform="translate(7.9228,22.0725)"
           id="g20"><path
             id="path22"
             style="fill:#852637;fill-opacity:1;fill-rule:nonzero;stroke:none"
             d="M 0,0 C 0.427,0.317 0.725,0.639 0.881,1.156 0.986,1.506 1.06,1.867 1.133,2.227 0.939,2.197 0.742,2.186 0.545,2.224 0.006,2.327 0.151,3.166 0.69,3.064 1.426,2.923 2.398,3.857 1.925,4.59 1.664,4.995 1.357,5.263 1.224,5.747 1.019,6.49 1.198,7.294 1.668,7.895 1.152,8.17 0.803,8.718 0.98,9.466 1.105,9.999 1.946,9.855 1.82,9.321 1.67,8.684 2.352,8.262 2.873,8.663 3.17,8.891 3.247,9.332 3.103,9.668 2.909,10.118 2.365,10.206 1.973,10.409 1.691,10.556 1.418,10.743 1.234,11.008 0.378,12.242 2.351,13.772 3.303,12.62 3.653,12.196 2.954,11.708 2.606,12.129 2.437,12.334 1.995,12.005 1.927,11.833 1.815,11.552 2.02,11.365 2.255,11.226 2.672,10.979 3.156,10.883 3.516,10.539 4.019,10.057 4.154,9.267 3.886,8.631 3.635,8.036 3.125,7.747 2.599,7.704 2.582,7.678 2.571,7.651 2.544,7.626 2.07,7.185 1.858,6.535 2.064,5.905 2.25,5.337 2.839,5.026 2.904,4.397 2.974,3.706 2.612,3.056 2.076,2.642 2.074,2.621 2.08,2.603 2.075,2.58 1.828,1.449 1.711,0.297 0.769,-0.483 c -0.455,-0.377 -1.093,-0.67 -1.31,-1.258 -0.131,-0.355 0.047,-0.723 0.436,-0.79 0.346,-0.059 0.631,0.181 0.822,0.437 0.328,0.44 0.978,-0.111 0.651,-0.55 -0.43,-0.577 -1.173,-0.92 -1.881,-0.654 -0.654,0.246 -1.046,0.905 -0.909,1.596 C -1.268,-0.919 -0.598,-0.444 0,0 M 0.37,4.212 C 0.911,4.118 0.765,3.279 0.224,3.372 -0.317,3.466 -0.171,4.306 0.37,4.212 m 2.834,16.474 c 0.541,-0.094 0.395,-0.933 -0.146,-0.84 -0.541,0.094 -0.395,0.934 0.146,0.84 m 1.295,-1.569 c -0.18,0.835 -0.36,1.67 -0.54,2.504 -0.482,0.07 -0.915,0.353 -1.093,0.902 -0.296,0.912 0.433,2.768 1.626,2.069 0.47,-0.275 0.11,-1.048 -0.364,-0.771 -0.352,0.206 -0.736,-1.086 -0.163,-1.343 0.505,-0.227 0.964,0.239 1.171,0.644 0.531,1.038 0.006,1.827 -0.532,2.694 -0.417,0.671 -0.716,1.396 -0.505,2.194 0.157,0.598 0.545,1.084 1.059,1.396 -0.123,0.136 -0.254,0.263 -0.37,0.406 -0.186,0.227 -0.032,0.537 0.199,0.644 0.564,0.261 1.06,0.617 1.525,1.016 -0.158,0.096 -0.305,0.214 -0.421,0.374 -0.427,0.587 -0.346,1.498 -0.974,1.929 -0.251,0.173 -0.172,0.648 0.126,0.725 0.916,0.236 1.734,0.669 2.415,1.33 0.39,0.379 1.045,-0.166 0.651,-0.549 C 7.681,34.67 6.959,34.207 6.152,33.904 6.263,33.721 6.35,33.522 6.419,33.312 6.539,32.945 6.709,31.935 7.294,32.138 7.68,32.272 8.068,31.788 7.769,31.464 7.198,30.845 6.547,30.341 5.821,29.938 6.231,29.486 6.669,29.065 7.158,28.693 7.595,28.36 7.045,27.709 6.609,28.041 6.313,28.266 6.039,28.511 5.772,28.763 5.187,28.496 4.781,27.887 4.893,27.227 5.002,26.585 5.49,26.062 5.801,25.511 6.4,24.448 6.36,23.058 5.483,22.141 5.295,21.944 5.06,21.798 4.807,21.707 5.019,20.726 5.23,19.745 5.442,18.764 5.505,18.469 5.189,18.282 4.945,18.302 3.977,18.384 3.312,17.581 2.978,16.768 2.802,16.341 2.612,15.788 2.739,15.32 2.838,14.958 3.383,14.48 3.616,15.024 3.832,15.529 4.602,15.165 4.387,14.661 4.12,14.036 3.378,13.766 2.76,14.046 2.055,14.367 1.8,15.172 1.869,15.893 c 0.142,1.477 1.14,3.003 2.63,3.224 m 0.263,12.994 c 0.022,0.016 0.044,0.031 0.066,0.046 0.195,0.138 0.453,0.08 0.594,-0.102 0.14,-0.183 0.08,-0.466 -0.103,-0.594 C 5.297,31.445 5.275,31.43 5.253,31.414 5.059,31.277 4.8,31.334 4.66,31.517 4.519,31.7 4.58,31.983 4.762,32.111 m 0.754,5.488 c 0.513,0.391 1.07,0.961 1.663,1.218 0.141,0.061 0.308,0.018 0.424,-0.073 0.491,-0.391 0.821,-1.19 1.112,-1.736 C 8.971,36.53 8.277,36.034 8.019,36.517 7.872,36.791 7.721,37.063 7.56,37.329 7.467,37.483 7.363,37.697 7.242,37.873 7.071,37.746 6.904,37.584 6.754,37.47 6.505,37.281 6.256,37.092 6.007,36.903 5.569,36.57 5.079,37.268 5.516,37.599 m 0.414,2.39 c 0.513,0.39 1.07,0.96 1.663,1.218 0.141,0.061 0.308,0.018 0.424,-0.074 0.491,-0.39 0.821,-1.19 1.112,-1.735 C 9.385,38.919 8.691,38.424 8.433,38.907 8.286,39.181 8.135,39.452 7.974,39.719 7.881,39.872 7.777,40.087 7.656,40.263 7.485,40.136 7.318,39.974 7.168,39.86 6.919,39.671 6.67,39.481 6.421,39.292 5.983,38.959 5.493,39.657 5.93,39.989 m 0.945,2.714 c 0.041,0.236 0.263,0.377 0.493,0.348 0.228,-0.03 0.385,-0.273 0.347,-0.493 C 7.713,42.546 7.71,42.533 7.708,42.521 7.667,42.285 7.445,42.144 7.216,42.174 6.987,42.203 6.83,42.447 6.868,42.666 c 0.003,0.013 0.005,0.025 0.007,0.037 M 6.201,26.337 c -0.541,0.094 -0.394,0.934 0.146,0.84 0.541,-0.094 0.395,-0.934 -0.146,-0.84 M 4.18,15.673 c -0.541,0.094 -0.394,0.933 0.146,0.84 0.541,-0.094 0.395,-0.934 -0.146,-0.84 M 4.023,11.652 c -0.541,0.094 -0.394,0.934 0.146,0.84 0.541,-0.094 0.395,-0.933 -0.146,-0.84 M 3.62,-5.333 c 1.024,0.218 2.237,0.653 3.199,0.085 0.591,0.506 1.461,0.717 2.179,0.364 0.591,-0.29 0.689,-0.993 1.212,-1.35 0.522,-0.357 1.158,-0.36 1.708,-0.075 0.043,0.022 0.082,0.027 0.122,0.034 0.102,0.366 0.324,0.704 0.728,0.957 1.302,0.814 2.819,-0.355 2.608,-1.799 -0.079,-0.544 -0.918,-0.397 -0.839,0.145 0.151,1.034 -1.301,1.524 -1.682,0.493 -0.394,-1.067 0.968,-1.669 1.777,-1.717 0.943,-0.056 1.923,0.184 2.789,0.544 0.77,0.321 1.422,0.921 2.21,1.187 1.197,0.405 2.414,-0.359 2.673,-1.496 0.618,-0.301 1.22,-0.364 1.898,-0.268 0.648,0.092 1.332,0.182 1.745,0.744 0.208,0.285 0.548,0.158 0.681,-0.085 0.007,-0.009 0.017,-0.012 0.024,-0.022 0.901,-1.211 2.37,-1.836 3.866,-1.666 0.077,0.009 0.142,-0.003 0.2,-0.026 0.662,0.891 1.988,1.139 2.936,0.389 0.678,-0.536 1.103,-1.35 1.753,-1.926 0.707,-0.626 1.587,-1.201 2.514,-1.427 0.76,-0.186 2.252,0.036 2.109,1.157 -0.134,1.042 -1.555,0.97 -1.749,0.005 -0.108,-0.538 -0.948,-0.393 -0.84,0.145 0.295,1.47 2.182,2.025 3.106,0.756 0.263,-0.36 0.351,-0.732 0.326,-1.09 0.033,-0.019 0.066,-0.035 0.097,-0.068 0.44,-0.474 1.09,-0.687 1.721,-0.481 0.568,0.186 0.879,0.776 1.508,0.84 0.795,0.081 1.545,-0.403 1.931,-1.076 1.096,0.211 2.092,-0.607 2.982,-1.156 0.52,-0.32 1.115,-0.743 1.754,-0.722 0.365,0.011 0.779,0.181 0.867,0.577 0.083,0.374 -0.213,0.768 -0.616,0.665 -0.528,-0.136 -0.829,0.662 -0.298,0.798 1.785,0.46 2.439,-2.051 0.811,-2.736 -0.837,-0.353 -1.717,-0.04 -2.458,0.389 -0.502,0.291 -0.985,0.613 -1.482,0.912 -0.388,0.233 -0.831,0.503 -1.295,0.451 0.012,-0.152 0.006,-0.307 -0.023,-0.46 -0.103,-0.54 -0.942,-0.394 -0.84,0.145 0.14,0.736 -0.793,1.708 -1.526,1.235 -0.405,-0.261 -0.674,-0.568 -1.157,-0.702 -0.792,-0.218 -1.658,-0.005 -2.268,0.54 -0.38,-0.577 -1.068,-0.999 -1.789,-1.052 -1.775,-0.13 -3.579,1.196 -4.685,2.465 -0.538,0.616 -1.023,1.607 -2.005,1.404 -0.48,-0.099 -0.839,-0.492 -0.926,-0.968 -0.067,-0.371 0.311,-1.371 0.715,-0.748 0.298,0.459 0.947,-0.095 0.651,-0.55 -0.348,-0.538 -1.094,-0.618 -1.601,-0.259 -0.536,0.379 -0.706,1.092 -0.592,1.714 -1.57,-0.099 -3.087,0.54 -4.121,1.715 -0.495,-0.4 -1.132,-0.549 -1.775,-0.649 -0.753,-0.115 -1.457,-0.076 -2.152,0.179 -0.142,-0.588 -0.55,-1.143 -1.157,-1.283 -0.587,-0.136 -1.225,0.192 -1.367,0.795 -0.125,0.529 0.673,0.831 0.798,0.299 0.171,-0.724 0.862,0.094 0.925,0.463 0.081,0.477 -0.13,0.971 -0.546,1.224 -0.88,0.535 -1.71,-0.293 -2.445,-0.694 -1.455,-0.793 -3.556,-1.406 -5.156,-0.699 -0.665,0.294 -1.167,0.924 -1.33,1.594 C 11.266,-7.483 10.377,-7.393 9.704,-6.92 9.257,-6.606 9.124,-6.11 8.743,-5.763 8.164,-5.236 7.105,-5.834 6.998,-6.519 6.913,-7.062 6.074,-6.915 6.158,-6.374 6.182,-6.22 6.229,-6.073 6.293,-5.933 5.873,-5.727 5.364,-5.832 4.92,-5.922 4.352,-6.036 3.788,-6.176 3.217,-6.281 2.375,-6.437 1.441,-6.435 0.772,-5.821 -0.531,-4.628 0.93,-2.483 2.457,-3.517 2.911,-3.825 2.358,-4.474 1.907,-4.169 1.56,-3.934 1.154,-4.211 1.103,-4.587 1.05,-4.989 1.388,-5.292 1.726,-5.423 2.323,-5.655 3.021,-5.46 3.62,-5.333 M 16.7,-5.924 c 0.541,-0.093 0.395,-0.933 -0.145,-0.839 -0.542,0.093 -0.395,0.933 0.145,0.839 m 19.896,-3.447 c 0.542,-0.094 0.395,-0.934 -0.145,-0.84 -0.542,0.094 -0.395,0.933 0.145,0.84 m 16.34,-1.772 c 0.094,-0.305 0.283,-0.627 0.627,-0.687 0.451,-0.079 0.725,0.297 0.673,0.711 -0.072,0.579 -0.521,1.029 -0.807,1.511 -0.624,1.051 -0.348,2.176 -0.199,3.324 0.003,0.023 0.014,0.038 0.02,0.059 -0.369,0.571 -0.496,1.306 -0.189,1.93 0.29,0.591 0.993,0.69 1.35,1.213 0.356,0.522 0.36,1.157 0.075,1.707 -0.023,0.043 -0.028,0.082 -0.035,0.122 -0.365,0.102 -0.703,0.324 -0.956,0.729 -0.814,1.302 0.355,2.818 1.799,2.608 0.544,-0.08 0.396,-0.919 -0.145,-0.84 -1.034,0.151 -1.525,-1.301 -0.493,-1.682 1.067,-0.394 1.668,0.968 1.716,1.777 0.057,0.943 -0.183,1.923 -0.543,2.789 -0.321,0.771 -0.921,1.422 -1.187,2.21 -0.493,1.459 0.738,2.971 2.279,2.709 0.634,-0.108 1.262,-0.543 1.412,-1.196 0.135,-0.586 -0.192,-1.224 -0.796,-1.367 -0.528,-0.125 -0.83,0.673 -0.298,0.799 0.724,0.171 -0.094,0.861 -0.463,0.924 -0.477,0.082 -0.971,-0.129 -1.224,-0.546 -0.535,-0.88 0.293,-1.71 0.694,-2.445 0.793,-1.454 1.406,-3.556 0.699,-5.156 -0.294,-0.664 -0.924,-1.166 -1.594,-1.329 0.309,-0.758 0.219,-1.646 -0.254,-2.32 -0.314,-0.446 -0.811,-0.58 -1.157,-0.961 -0.527,-0.578 0.07,-1.638 0.756,-1.745 0.543,-0.085 0.396,-0.924 -0.145,-0.84 -0.198,0.031 -0.381,0.109 -0.555,0.204 -0.062,-0.407 -0.124,-0.816 -0.129,-1.22 -0.006,-0.486 0.186,-0.866 0.449,-1.261 0.412,-0.621 0.884,-1.291 0.767,-2.081 -0.105,-0.699 -0.694,-1.185 -1.393,-1.197 -0.757,-0.014 -1.342,0.561 -1.552,1.248 -0.161,0.524 0.637,0.823 0.798,0.299 m 1.657,14.897 c 0.541,-0.093 0.395,-0.933 -0.145,-0.839 -0.542,0.093 -0.395,0.933 0.145,0.839 m 1.126,7.073 c 0.959,0.306 2.15,0.508 2.802,-0.467 0.305,-0.456 -0.391,-0.948 -0.697,-0.491 -0.409,0.613 -1.234,0.342 -1.806,0.159 -0.523,-0.166 -0.821,0.632 -0.299,0.799 m 0.337,3.55 c 0.235,0.454 0.567,0.869 1.034,1.099 0.953,0.469 2.137,-0.063 2.365,-1.117 0.233,-1.074 -0.437,-2.202 -1.374,-2.683 -0.081,-0.042 -0.155,-0.047 -0.223,-0.037 -0.675,-0.386 -1.933,0.509 -2.173,1.087 -0.211,0.508 0.141,1.206 0.371,1.651 m 3.703,4.205 c -0.541,0.093 -0.395,0.933 0.145,0.839 0.542,-0.093 0.395,-0.933 -0.145,-0.839 m -2.593,0.764 c 0.86,1.194 2.948,1.733 3.141,3.343 0.201,1.676 -1.62,2.306 -2.102,3.694 -0.185,0.536 -0.191,1.182 0.142,1.662 0.336,0.487 0.961,0.713 1.494,0.411 0.474,-0.269 0.114,-1.042 -0.364,-0.771 -0.514,0.292 -0.572,-0.55 -0.525,-0.812 0.054,-0.299 0.217,-0.558 0.404,-0.791 0.385,-0.477 0.879,-0.856 1.228,-1.363 0.642,-0.93 0.806,-2.182 0.208,-3.174 -0.68,-1.129 -1.978,-1.565 -2.81,-2.538 -0.356,-0.416 -0.618,-1.025 -0.401,-1.573 0.13,-0.329 0.401,-0.507 0.752,-0.521 0.192,-0.007 1.149,0.204 0.858,0.62 -0.314,0.451 0.383,0.942 0.697,0.491 0.971,-1.394 -1.349,-2.365 -2.409,-1.729 -1.084,0.651 -0.969,2.14 -0.313,3.051 m 0.908,2.753 c 0.554,0.289 0.529,0.985 0.227,1.443 -0.302,0.458 0.394,0.95 0.697,0.491 0.635,-0.965 0.423,-2.184 -0.626,-2.733 -0.487,-0.254 -0.778,0.548 -0.298,0.799 m 1.622,9.295 c 0.147,-0.274 0.298,-0.546 0.459,-0.812 0.093,-0.154 0.197,-0.368 0.318,-0.544 0.171,0.127 0.338,0.289 0.488,0.403 0.249,0.189 0.498,0.378 0.747,0.568 0.438,0.332 0.928,-0.366 0.491,-0.697 -0.514,-0.39 -1.07,-0.961 -1.663,-1.218 -0.141,-0.061 -0.309,-0.018 -0.424,0.074 -0.491,0.39 -0.821,1.19 -1.112,1.735 -0.256,0.478 0.438,0.974 0.696,0.491 m 0.414,2.39 c 0.147,-0.275 0.298,-0.546 0.459,-0.812 0.093,-0.154 0.197,-0.368 0.318,-0.545 0.171,0.128 0.338,0.29 0.488,0.403 0.249,0.19 0.498,0.379 0.747,0.568 0.438,0.333 0.928,-0.365 0.491,-0.696 -0.513,-0.391 -1.07,-0.961 -1.663,-1.218 -0.141,-0.061 -0.308,-0.019 -0.424,0.073 -0.491,0.391 -0.821,1.19 -1.112,1.736 -0.256,0.478 0.438,0.974 0.696,0.491 m 1.144,-6.187 c -0.041,-0.235 -0.263,-0.376 -0.493,-0.347 -0.228,0.029 -0.385,0.273 -0.347,0.493 0.002,0.012 0.004,0.025 0.007,0.037 0.04,0.236 0.263,0.376 0.492,0.347 0.229,-0.029 0.385,-0.273 0.347,-0.492 -0.002,-0.013 -0.004,-0.025 -0.006,-0.038 M 55.239,-6.161 c -0.541,0.094 -0.395,0.934 0.146,0.84 0.541,-0.094 0.395,-0.934 -0.146,-0.84 M 44.731,-14.01 c -0.542,0.094 -0.395,0.933 0.145,0.84 0.541,-0.094 0.395,-0.934 -0.145,-0.84 m -16.646,2.906 c -0.541,0.094 -0.394,0.934 0.146,0.84 0.541,-0.094 0.395,-0.933 -0.146,-0.84 m -2.228,0.617 c -0.541,0.094 -0.395,0.934 0.145,0.84 0.542,-0.094 0.395,-0.934 -0.145,-0.84 m -2.414,0.216 c -0.009,0.002 -0.018,0.004 -0.027,0.005 -0.236,0.041 -0.377,0.264 -0.348,0.493 0.03,0.229 0.273,0.385 0.493,0.347 0.009,-10e-4 0.019,-0.003 0.028,-0.005 0.235,-0.04 0.376,-0.263 0.347,-0.492 -0.029,-0.229 -0.273,-0.386 -0.493,-0.348 M 7.479,-7.555 c -0.541,0.094 -0.395,0.933 0.146,0.84 0.541,-0.094 0.394,-0.934 -0.146,-0.84 m 54.449,51.519 c 0.541,-0.094 0.394,-0.934 -0.146,-0.84 -0.541,0.094 -0.395,0.933 0.146,0.84 m 0.779,-5.718 c -0.141,0.183 -0.08,0.465 0.103,0.594 0.022,0.015 0.044,0.031 0.066,0.046 0.194,0.138 0.452,0.08 0.593,-0.103 0.141,-0.182 0.08,-0.465 -0.103,-0.593 -0.021,-0.016 -0.043,-0.031 -0.065,-0.047 -0.195,-0.137 -0.453,-0.08 -0.594,0.103 m -6.945,-56.85 10.881,62.794 -2.955,0 c 0.321,-0.589 0.523,-1.216 0.342,-1.899 -0.157,-0.598 -0.545,-1.084 -1.059,-1.397 0.123,-0.136 0.254,-0.262 0.37,-0.405 0.186,-0.228 0.032,-0.537 -0.199,-0.645 -0.564,-0.261 -1.06,-0.617 -1.525,-1.015 0.157,-0.097 0.305,-0.215 0.421,-0.374 0.426,-0.588 0.346,-1.498 0.974,-1.929 0.251,-0.173 0.172,-0.649 -0.126,-0.725 -0.916,-0.236 -1.734,-0.669 -2.415,-1.33 -0.39,-0.38 -1.045,0.166 -0.652,0.549 0.629,0.611 1.351,1.074 2.158,1.377 -0.112,0.182 -0.198,0.382 -0.267,0.592 -0.12,0.367 -0.29,1.377 -0.875,1.174 -0.387,-0.134 -0.774,0.35 -0.475,0.674 0.571,0.619 1.222,1.122 1.948,1.526 -0.41,0.452 -0.848,0.873 -1.337,1.245 -0.437,0.333 0.113,0.984 0.549,0.652 0.296,-0.225 0.57,-0.47 0.837,-0.723 0.585,0.268 0.991,0.877 0.879,1.537 -0.069,0.408 -0.293,0.766 -0.525,1.116 l -2.202,0 -9.117,-52.613 c -0.257,-1.482 -1.671,-2.479 -3.153,-2.222 l -42.931,7.44 c -1.482,0.256 -2.479,1.671 -2.222,3.153 l 7.667,44.242 -0.961,0 C 9.837,44.1 9.89,44.014 9.923,43.918 10.109,43.381 10.115,42.736 9.782,42.255 9.445,41.769 8.821,41.543 8.288,41.845 c -0.474,0.269 -0.114,1.042 0.363,0.771 0.515,-0.292 0.573,0.55 0.526,0.812 -0.052,0.287 -0.206,0.536 -0.385,0.762 l -4.173,0 -9.074,-52.36 60.217,-10.434 z" /></g><g
           transform="translate(57.6441,62.9725)"
           id="g24"><path
             id="path26"
             style="fill:#852637;fill-opacity:1;fill-rule:nonzero;stroke:none"
             d="M 0,0 C 0.541,-0.094 0.395,-0.933 -0.146,-0.84 -0.687,-0.746 -0.54,0.094 0,0 m 1.884,-0.442 c 0.541,-0.094 0.395,-0.933 -0.145,-0.84 -0.542,0.094 -0.395,0.934 0.145,0.84 m 1.572,0.42 c 0.541,-0.094 0.395,-0.934 -0.145,-0.84 -0.542,0.094 -0.395,0.933 0.145,0.84 m -3.72,-2.575 C 1.866,-3.342 4.935,-1.909 5.412,0.375 5.644,1.484 5.165,2.722 4.044,3.127 3.001,3.502 1.888,2.767 1.836,1.665 1.81,1.118 0.971,1.27 0.996,1.811 1.023,2.374 1.275,2.89 1.654,3.29 l -4.022,0 c -0.064,-0.158 -0.14,-0.309 -0.185,-0.479 -0.525,-1.98 0.17,-4.667 2.289,-5.408" /></g><g
           transform="translate(51.0651,64.6003)"
           id="g28"><path
             id="path30"
             style="fill:#852637;fill-opacity:1;fill-rule:nonzero;stroke:none"
             d="m 0,0 c 0.58,0.364 0.836,1.016 0.807,1.662 l -3.746,0 C -2.929,1.413 -2.892,1.164 -2.799,0.921 -2.389,-0.149 -0.975,-0.612 0,0" /></g><g
           transform="translate(16.6846,34.1092)"
           id="g32"><path
             id="path34"
             style="fill:#852637;fill-opacity:1;fill-rule:nonzero;stroke:none"
             d="M 0,0 C 0.62,0.663 1.039,1.401 1.413,2.222 1.716,2.89 2.046,3.557 2.604,4.05 3.558,4.893 5.154,4.904 5.719,3.612 5.939,3.107 5.139,2.813 4.92,3.314 4.672,3.882 3.956,3.906 3.479,3.638 2.99,3.363 2.677,2.871 2.43,2.383 2.047,1.624 1.713,0.891 1.251,0.212 1.916,0.304 2.556,0.502 3.156,0.841 3.63,1.109 4.125,0.415 3.647,0.145 2.634,-0.428 1.534,-0.728 0.367,-0.699 0.029,-0.691 -0.282,-0.302 0,0 M 2.445,6.426 C 2.986,6.332 2.84,5.492 2.299,5.586 1.758,5.68 1.905,6.519 2.445,6.426 M 4.89,6.723 C 4.883,6.685 4.877,6.648 4.87,6.611 4.829,6.375 4.607,6.234 4.378,6.264 4.149,6.293 3.992,6.537 4.03,6.756 4.037,6.794 4.043,6.831 4.05,6.868 4.091,7.104 4.313,7.245 4.542,7.215 4.771,7.186 4.928,6.942 4.89,6.723 M 3.654,13.295 C 4.148,13.536 4.441,12.734 3.952,12.497 2.868,11.969 3.027,10.647 3.293,9.61 c 0.398,0.299 0.796,0.597 1.192,0.897 0.495,0.376 1.211,0.904 0.975,1.62 -0.172,0.521 0.626,0.819 0.798,0.298 C 6.517,11.641 6.204,10.907 5.633,10.353 4.935,9.675 4.072,9.13 3.296,8.546 3.087,8.389 2.729,8.486 2.651,8.745 2.176,10.334 1.85,12.417 3.654,13.295 m 0.55,-2.042 c -0.541,0.094 -0.395,0.934 0.146,0.84 0.541,-0.094 0.395,-0.934 -0.146,-0.84 m 1.963,6.003 c -0.541,0.094 -0.395,0.934 0.146,0.84 0.541,-0.094 0.394,-0.933 -0.146,-0.84 m 1.572,0.42 c -0.541,0.094 -0.395,0.933 0.146,0.84 0.541,-0.094 0.395,-0.934 -0.146,-0.84 m 2.03,0.398 c 0.541,-0.094 0.395,-0.934 -0.146,-0.84 -0.541,0.094 -0.395,0.933 0.146,0.84 m -2.92,2.47 c 1.2,0.403 2.568,0.481 3.732,-0.081 1.008,-0.487 1.745,-1.395 2.173,-2.414 0.957,-2.279 0.381,-5.13 -1.652,-6.619 C 10.093,10.69 8.912,10.375 7.776,9.902 7.15,9.641 6.552,9.206 6.62,8.447 6.688,7.684 7.396,7.297 8.098,7.417 8.641,7.508 8.718,6.659 8.181,6.568 7.12,6.388 6.06,7.031 5.818,8.098 5.586,9.12 6.147,10.016 7.034,10.49 c 0.949,0.508 2.027,0.716 2.972,1.248 1.06,0.598 1.854,1.492 2.17,2.685 0.525,1.98 -0.17,4.667 -2.288,5.408 C 7.757,20.576 4.689,19.143 4.211,16.859 3.979,15.75 4.458,14.512 5.58,14.107 c 1.042,-0.375 2.155,0.36 2.207,1.462 0.026,0.547 0.865,0.395 0.84,-0.146 C 8.571,14.244 7.546,13.26 6.382,13.157 5.145,13.048 3.993,13.909 3.531,15.02 c -1.023,2.458 1.125,4.787 3.318,5.524 m -1.18,1.737 c 0.563,0.395 1.223,0.616 1.912,0.62 0.546,0.003 0.631,-0.846 0.083,-0.849 -0.551,-0.003 -1.052,-0.151 -1.505,-0.468 -0.45,-0.315 -0.94,0.382 -0.49,0.697 m 0.841,4.225 c 1.244,-0.097 2.446,0.243 3.611,0.645 1.056,0.365 2.162,0.938 3.303,0.854 0.548,-0.041 0.397,-0.88 -0.145,-0.84 -0.662,0.049 -1.333,-0.268 -1.944,-0.487 C 10.786,26.482 10.239,26.282 9.682,26.111 9.034,25.911 8.38,25.77 7.717,25.699 8.37,25.232 9.022,24.763 9.682,24.305 c 1.017,-0.706 2.131,-1.052 3.373,-1.032 0.546,0.009 0.631,-0.839 0.083,-0.848 -1.25,-0.021 -2.47,0.241 -3.535,0.915 -1.182,0.747 -2.3,1.611 -3.441,2.42 -0.379,0.269 -0.03,0.775 0.348,0.746 m 1.092,3.826 c 0.345,-0.556 0.852,-0.974 1.487,-1.153 0.524,-0.147 0.382,-0.988 -0.145,-0.839 -0.851,0.239 -1.569,0.744 -2.039,1.501 -0.288,0.465 0.408,0.958 0.697,0.491 m 5.914,-5.179 c -0.041,-0.236 -0.264,-0.377 -0.493,-0.347 -0.228,0.029 -0.385,0.273 -0.347,0.492 0.004,0.025 0.009,0.05 0.013,0.075 0.041,0.235 0.263,0.376 0.493,0.347 0.228,-0.029 0.385,-0.273 0.347,-0.493 -0.005,-0.024 -0.009,-0.049 -0.013,-0.074 m 1.324,-2.958 c 1.554,1.355 3.874,1.69 5.747,0.831 1.686,-0.774 2.841,-2.351 3.134,-4.174 0.296,-1.845 -0.258,-3.763 -1.063,-5.413 C 20.922,9.88 18.017,6.99 14.632,4.986 13.156,4.112 11.566,3.305 10.371,2.046 9.108,0.715 8.462,-1.066 9.002,-2.872 c 0.502,-1.676 2.394,-3.785 4.34,-2.97 2.021,0.847 1.95,3.314 1.592,5.166 -1.3,-0.512 -2.066,-1.848 -1.671,-3.269 0.116,-0.417 -0.359,-0.685 -0.634,-0.518 -0.015,0.004 -0.029,0.001 -0.044,0.007 -1.321,0.476 -2.19,1.939 -1.902,3.331 0.346,1.67 1.934,2.553 3.342,3.23 3.332,1.6 6.578,3.922 7.716,7.621 0.159,0.518 1,0.377 0.839,-0.146 C 21.618,6.45 19.275,4.08 16.503,2.443 15.796,2.026 15.063,1.661 14.324,1.306 13.581,0.949 12.815,0.575 12.237,-0.029 11.705,-0.585 11.36,-1.312 11.525,-2.092 c 0.109,-0.516 0.411,-0.942 0.813,-1.248 -0.051,1.651 0.977,3.177 2.683,3.597 0.09,0.022 0.17,0.011 0.244,-0.013 0.183,-0.018 0.365,-0.128 0.416,-0.351 0.477,-2.078 0.605,-4.545 -1.212,-6.037 -1.63,-1.34 -3.814,-0.551 -5.093,0.88 -1.08,1.208 -1.603,2.913 -1.373,4.519 0.236,1.656 1.285,3.059 2.539,4.106 1.281,1.07 2.791,1.811 4.201,2.686 1.683,1.045 3.207,2.331 4.506,3.827 1.303,1.5 2.438,3.211 3.133,5.08 0.654,1.76 0.898,3.882 -0.151,5.546 -1.078,1.709 -3.191,2.543 -5.139,1.967 -0.977,-0.289 -1.935,-0.904 -2.444,-1.809 -0.498,-0.885 -0.431,-2.134 0.567,-2.634 0.49,-0.245 0.128,-1.017 -0.363,-0.771 -0.853,0.427 -1.368,1.305 -1.373,2.257 -0.006,1.057 0.585,2.008 1.361,2.685 m 9.269,-12.88 c -0.173,-3.866 2.102,-7.144 4.701,-9.772 1.101,-1.114 2.293,-2.475 2.061,-4.166 -0.192,-1.409 -1.511,-2.494 -2.912,-2.497 -0.016,0 -0.028,0.007 -0.043,0.008 -0.316,-0.065 -0.672,0.347 -0.423,0.701 0.842,1.195 0.584,2.696 -0.446,3.618 -0.6,-0.985 -1.138,-2.079 -1.108,-3.245 0.027,-1.039 0.526,-2.163 1.552,-2.553 2.077,-0.789 4.353,1.061 5.047,2.91 1.355,3.606 -2.16,6.576 -4.083,9.134 -2.34,3.114 -4.01,7.151 -3.997,11.091 0.007,1.81 0.414,3.709 1.648,5.096 1.223,1.376 3.14,2.06 4.959,1.748 1.805,-0.31 3.475,-1.613 4.101,-3.352 0.588,-1.633 -0.074,-3.725 -1.994,-3.958 -0.546,-0.066 -0.626,0.783 -0.082,0.849 1.316,0.16 1.664,1.637 1.309,2.722 -0.356,1.09 -1.229,1.991 -2.247,2.493 -2.052,1.014 -4.581,0.285 -5.831,-1.619 -1.049,-1.597 -1.142,-3.662 -0.914,-5.503 0.249,-2.008 0.869,-3.973 1.743,-5.794 0.826,-1.722 1.928,-3.251 3.155,-4.707 1.055,-1.253 2.147,-2.52 2.8,-4.042 0.657,-1.532 0.78,-3.275 0.082,-4.815 -0.665,-1.467 -1.995,-2.675 -3.563,-3.089 -1.748,-0.461 -3.51,0.127 -4.227,1.866 -0.798,1.933 0.108,3.934 1.153,5.571 0.117,0.183 0.311,0.231 0.484,0.197 0.072,-0.005 0.145,-0.022 0.217,-0.069 1.466,-0.97 1.92,-2.753 1.316,-4.29 0.481,0.153 0.905,0.453 1.186,0.901 0.44,0.701 0.328,1.548 -0.013,2.265 -0.358,0.754 -0.966,1.36 -1.546,1.945 -0.556,0.559 -1.098,1.13 -1.603,1.736 -2.061,2.471 -3.468,5.497 -3.321,8.766 0.024,0.547 0.864,0.395 0.839,-0.146 m 17.388,2.684 c 0.541,-0.094 0.395,-0.933 -0.145,-0.84 -0.542,0.094 -0.395,0.934 0.145,0.84 m -1.339,0.924 c 0.541,-0.094 0.395,-0.933 -0.146,-0.84 -0.541,0.094 -0.394,0.934 0.146,0.84 M 38.09,12.301 c -0.542,0.094 -0.395,0.934 0.145,0.84 0.541,-0.094 0.395,-0.933 -0.145,-0.84 m -2.059,2.401 c 2.072,1.672 4.787,0.957 6.497,-0.878 C 44.07,12.169 44.693,9.122 42.507,7.668 41.623,7.08 40.424,6.941 39.502,7.522 c -0.9,0.567 -1.399,1.706 -1.083,2.739 0.158,0.518 0.999,0.377 0.839,-0.146 -0.4,-1.31 0.853,-2.389 2.117,-2.043 1.319,0.361 1.874,1.773 1.668,3.033 -0.356,2.186 -2.995,4.247 -5.208,3.609 -2.12,-0.612 -3.378,-3.135 -3.061,-5.226 0.181,-1.193 0.932,-2.14 1.799,-2.931 0.719,-0.656 1.658,-1.197 2.116,-2.086 0.929,-1.8 -1.084,-3.678 -2.83,-2.699 -0.476,0.267 -0.116,1.04 0.363,0.771 0.724,-0.406 1.645,-0.129 1.827,0.744 0.153,0.738 -0.426,1.275 -0.937,1.703 -1.069,0.894 -2.16,1.774 -2.779,3.059 -1.078,2.24 -0.186,5.131 1.698,6.653 m 6.427,0.592 c -0.345,0.556 -0.852,0.974 -1.487,1.153 -0.524,0.148 -0.382,0.988 0.145,0.84 0.851,-0.24 1.57,-0.745 2.039,-1.502 0.288,-0.465 -0.408,-0.958 -0.697,-0.491 m -5.677,3.167 c 0.662,-0.049 1.333,0.269 1.944,0.487 0.549,0.197 1.096,0.397 1.653,0.568 0.648,0.199 1.302,0.34 1.965,0.411 -0.653,0.467 -1.305,0.936 -1.965,1.394 -1.017,0.707 -2.131,1.052 -3.373,1.032 -0.546,-0.009 -0.631,0.84 -0.083,0.849 1.25,0.02 2.471,-0.242 3.535,-0.915 1.182,-0.748 2.3,-1.612 3.441,-2.421 0.379,-0.269 0.03,-0.775 -0.348,-0.746 -1.244,0.098 -2.446,-0.243 -3.611,-0.645 -1.056,-0.365 -2.162,-0.938 -3.303,-0.853 -0.548,0.04 -0.397,0.879 0.145,0.839 m -0.237,2.012 c 0.041,0.236 0.264,0.377 0.493,0.348 0.228,-0.03 0.385,-0.273 0.347,-0.493 -0.004,-0.025 -0.009,-0.05 -0.013,-0.075 -0.041,-0.235 -0.263,-0.376 -0.493,-0.347 -0.228,0.029 -0.385,0.273 -0.347,0.493 0.005,0.025 0.009,0.05 0.013,0.074 m 5.852,3.101 c 0.551,0.003 1.052,0.151 1.505,0.468 0.45,0.315 0.94,-0.382 0.491,-0.697 -0.564,-0.394 -1.224,-0.616 -1.913,-0.62 -0.546,-0.002 -0.631,0.846 -0.083,0.849 M 41.326,5.685 C 41.867,5.592 41.721,4.752 41.18,4.846 40.639,4.939 40.785,5.779 41.326,5.685 m 0.473,-3.724 c -0.161,-0.218 -0.531,-0.189 -0.674,0.03 -0.535,0.812 -1.163,1.613 -1.593,2.488 -0.352,0.715 -0.4,1.51 0.108,2.162 0.338,0.433 0.989,-0.118 0.652,-0.55 -0.465,-0.596 0.033,-1.333 0.373,-1.853 0.272,-0.417 0.546,-0.831 0.82,-1.246 0.599,0.887 1.194,2.078 0.351,2.94 -0.381,0.389 0.165,1.044 0.549,0.651 1.404,-1.434 0.396,-3.286 -0.586,-4.622 m -0.732,-3.093 c -0.541,0.094 -0.395,0.933 0.146,0.84 0.541,-0.094 0.394,-0.934 -0.146,-0.84 m -2.076,1.83 c 0.006,0.037 0.013,0.075 0.019,0.112 0.041,0.236 0.264,0.377 0.493,0.347 C 39.732,1.128 39.888,0.884 39.85,0.665 39.844,0.627 39.837,0.59 39.831,0.553 39.79,0.317 39.567,0.176 39.338,0.206 39.11,0.235 38.953,0.479 38.991,0.698 M 38.634,-3.19 c 0.542,-0.094 0.395,-0.934 -0.145,-0.84 -0.541,0.094 -0.395,0.933 0.145,0.84 m 2.138,-4.511 c -1.109,0.366 -2.043,1.019 -2.805,1.899 -0.359,0.415 0.341,0.902 0.697,0.49 0.451,-0.521 0.987,-0.923 1.582,-1.233 -0.206,0.794 -0.275,1.597 -0.38,2.441 -0.07,0.565 -0.212,1.196 -0.633,1.614 -0.367,0.364 -1.008,0.515 -1.398,0.1 -0.375,-0.398 -1.029,0.149 -0.652,0.55 0.967,1.027 2.465,0.478 3.08,-0.636 0.377,-0.683 0.45,-1.455 0.515,-2.218 0.074,-0.866 0.228,-1.671 0.575,-2.472 0.163,-0.378 -0.261,-0.64 -0.581,-0.535 m -1.81,-3.815 c -0.171,-0.596 -0.466,-1.116 -0.848,-1.601 -0.367,-0.467 -1.027,-1.138 -0.812,-1.793 0.038,-0.086 0.085,-0.164 0.112,-0.258 0.122,-0.435 -0.494,-0.841 -0.748,-0.395 -0.02,0.035 -0.025,0.067 -0.043,0.101 -0.002,-10e-4 -0.005,-0.003 -0.008,-0.004 -0.253,0.902 -1.202,1.385 -1.684,2.158 -0.507,0.812 -0.688,1.751 -0.576,2.697 0.066,0.546 0.905,0.397 0.84,-0.146 -0.117,-0.987 0.206,-1.922 0.888,-2.639 0.169,-0.177 0.341,-0.348 0.51,-0.52 0.227,0.528 0.637,1.021 0.992,1.506 0.822,1.121 0.931,2.655 0.255,3.876 -0.263,0.475 0.431,0.97 0.697,0.49 0.589,-1.064 0.764,-2.294 0.425,-3.472 m -2.455,1.371 c -0.542,0.094 -0.395,0.933 0.145,0.84 0.541,-0.094 0.395,-0.934 -0.145,-0.84 M 34.048,4.784 C 34.077,5.013 34.321,5.169 34.54,5.131 34.578,5.125 34.615,5.118 34.652,5.112 34.888,5.071 35.029,4.848 35,4.619 34.97,4.391 34.727,4.234 34.507,4.272 34.47,4.279 34.432,4.285 34.395,4.291 34.159,4.332 34.018,4.555 34.048,4.784 m -0.901,1.627 c 0.542,-0.094 0.395,-0.934 -0.145,-0.84 -0.541,0.094 -0.395,0.933 0.145,0.84 M 31.76,7.055 C 31.218,7.149 31.365,7.988 31.905,7.895 32.446,7.801 32.3,6.961 31.76,7.055 m -4.027,11.367 c 1.482,1.741 4.293,1.208 4.982,-0.993 0.164,-0.523 -0.635,-0.821 -0.798,-0.298 -0.495,1.58 -2.447,2.017 -3.532,0.742 -0.356,-0.418 -1.008,0.131 -0.652,0.549 m 8.076,-22.076 c -0.246,3.032 -2.226,5.502 -4.294,7.576 -1.765,1.771 -3.813,3.581 -4.409,6.118 -0.271,1.149 -0.188,2.464 0.541,3.438 0.678,0.905 1.853,1.251 2.932,0.955 2.283,-0.626 2.644,-3.752 0.642,-4.97 -0.467,-0.284 -0.961,0.411 -0.491,0.697 1.075,0.654 1.377,2.348 0.278,3.146 -1.169,0.849 -2.666,0.213 -3.061,-1.115 -0.747,-2.511 1.396,-4.885 3.009,-6.513 1.814,-1.831 3.676,-3.625 4.802,-5.986 1.062,-2.229 1.374,-5.077 0.091,-7.29 -1.1,-1.896 -3.28,-3.151 -5.489,-2.753 -0.541,0.097 -0.395,0.937 0.145,0.84 1.478,-0.266 2.955,0.359 3.956,1.451 1.089,1.189 1.476,2.826 1.348,4.406 m -7.452,-7.761 c 0.03,0.229 0.273,0.386 0.493,0.348 0.037,-0.007 0.075,-0.013 0.112,-0.02 0.235,-0.041 0.376,-0.263 0.347,-0.492 -0.029,-0.229 -0.273,-0.386 -0.493,-0.348 -0.037,0.007 -0.074,0.013 -0.111,0.02 -0.236,0.041 -0.377,0.263 -0.348,0.492 m -2.03,0.929 c 0.006,0.037 0.013,0.075 0.019,0.112 0.041,0.235 0.264,0.376 0.493,0.347 0.229,-0.029 0.385,-0.273 0.347,-0.493 -0.006,-0.037 -0.013,-0.074 -0.019,-0.112 -0.041,-0.235 -0.264,-0.376 -0.493,-0.347 -0.228,0.029 -0.385,0.273 -0.347,0.493 m 5.627,-1.682 c -0.64,-0.891 -1.474,-1.858 -2.68,-1.78 -0.728,0.048 -1.326,0.472 -1.989,0.727 -0.726,0.28 -1.518,0.283 -2.259,0.059 -0.216,-0.066 -0.469,0.023 -0.548,0.25 -0.489,1.412 -0.886,2.953 0.074,4.263 0.324,0.443 0.975,-0.108 0.652,-0.549 -0.675,-0.922 -0.38,-2.073 -0.041,-3.081 1.082,0.217 2.093,0.03 3.116,-0.46 0.661,-0.316 1.285,-0.534 1.936,-0.086 0.447,0.308 0.775,0.771 1.087,1.206 0.32,0.446 0.97,-0.105 0.652,-0.549 m -8.878,6.435 c -0.246,1.785 0.445,3.561 1.775,4.747 -0.894,1.14 -1.598,2.409 -2.076,3.781 -0.18,0.519 0.619,0.817 0.799,0.298 0.498,-1.43 1.237,-2.73 2.205,-3.893 0.152,-0.182 0.07,-0.464 -0.103,-0.594 C 24.357,-2.389 23.7,-4.019 23.925,-5.651 24,-6.196 23.151,-6.275 23.076,-5.733 m -2.273,8.87 c -0.911,-1.131 -2.001,-2.09 -3.227,-2.863 0.854,-1.563 0.907,-3.469 0.074,-5.067 -0.253,-0.486 -1.025,-0.124 -0.771,0.363 0.761,1.462 0.69,3.217 -0.217,4.598 -0.119,0.18 -0.1,0.474 0.102,0.594 1.304,0.769 2.437,1.745 3.387,2.924 0.345,0.428 0.996,-0.122 0.652,-0.549 M 19.838,-7.746 c -0.541,0.094 -0.394,0.933 0.146,0.84 0.541,-0.094 0.395,-0.934 -0.146,-0.84 m 0.17,2.798 c -0.352,0.797 -0.756,1.563 -1.215,2.303 -0.288,0.465 0.407,0.958 0.697,0.491 0.374,-0.603 0.704,-1.229 1.012,-1.867 0.485,0.589 1.009,1.138 1.605,1.622 0.427,0.347 0.915,-0.352 0.491,-0.697 -0.711,-0.577 -1.327,-1.237 -1.865,-1.978 -0.2,-0.275 -0.606,-0.146 -0.725,0.126 m 1.514,6.694 C 22.063,1.653 21.917,0.813 21.376,0.907 20.835,1 20.981,1.84 21.522,1.746 m 1.844,-2.282 c 0.541,0.1 0.618,-0.749 0.083,-0.848 -1.618,-0.3 -3.278,-0.026 -4.717,0.771 -0.477,0.265 -0.117,1.038 0.364,0.772 1.32,-0.733 2.786,-0.969 4.27,-0.695 m 0.278,-7.167 c -0.394,-0.867 -0.839,-1.77 -1.64,-2.335 -0.714,-0.504 -1.64,-0.697 -2.499,-0.553 -1.876,0.315 -3.167,2.076 -3.165,3.928 0,0.545 0.849,0.63 0.848,0.083 -10e-4,-1.472 0.933,-2.924 2.462,-3.171 1.709,-0.276 2.603,1.047 3.223,2.412 0.227,0.5 0.998,0.136 0.771,-0.364 M 12.193,-8.037 c 0.006,0.038 0.013,0.075 0.019,0.112 0.041,0.236 0.264,0.377 0.493,0.347 0.229,-0.029 0.385,-0.273 0.347,-0.492 -0.006,-0.038 -0.013,-0.075 -0.019,-0.112 -0.041,-0.236 -0.264,-0.377 -0.493,-0.347 -0.228,0.029 -0.385,0.273 -0.347,0.492 M 9.857,-8.209 c 0.029,0.229 0.273,0.386 0.492,0.348 0.038,-0.007 0.075,-0.013 0.112,-0.02 0.236,-0.041 0.377,-0.263 0.347,-0.493 -0.029,-0.228 -0.273,-0.385 -0.492,-0.347 -0.038,0.007 -0.075,0.013 -0.112,0.02 -0.236,0.041 -0.377,0.263 -0.347,0.492 m 4.101,-2.88 c -0.152,-0.189 -0.419,-0.185 -0.601,-0.051 -0.653,0.484 -1.43,0.737 -2.245,0.699 -0.675,-0.031 -1.352,-0.2 -2.019,-0.009 -1.162,0.331 -1.623,1.523 -1.925,2.577 -0.15,0.525 0.648,0.825 0.799,0.298 0.154,-0.538 0.315,-1.113 0.663,-1.562 0.462,-0.596 1.114,-0.582 1.807,-0.51 1.128,0.117 2.143,-0.047 3.089,-0.615 0.657,0.835 1.323,1.82 0.998,2.914 -0.156,0.525 0.642,0.824 0.798,0.298 0.463,-1.556 -0.428,-2.873 -1.364,-4.039 m 2.452,31.344 c 1.389,1.841 4.216,1.397 5.026,-0.742 0.194,-0.514 -0.605,-0.81 -0.799,-0.298 -0.594,1.568 -2.578,1.812 -3.576,0.49 -0.33,-0.438 -0.981,0.113 -0.651,0.55 m -2.446,-9.252 c 0.541,-0.093 0.395,-0.933 -0.145,-0.839 -0.542,0.094 -0.395,0.933 0.145,0.839 M 12.295,10.024 C 12.836,9.93 12.69,9.091 12.15,9.184 c -0.542,0.094 -0.395,0.934 0.145,0.84 M 9.948,8.96 C 9.977,9.189 10.221,9.345 10.441,9.307 10.478,9.301 10.516,9.294 10.553,9.288 10.788,9.247 10.929,9.025 10.9,8.795 10.871,8.567 10.627,8.41 10.407,8.448 10.37,8.455 10.333,8.461 10.295,8.468 10.06,8.508 9.919,8.731 9.948,8.96 M 4.951,-1.29 c -0.016,2.617 1.464,4.943 3.412,6.584 1.991,1.678 4.408,2.579 6.688,3.769 1.086,0.566 2.159,1.239 2.966,2.175 0.778,0.902 1.445,2.244 0.985,3.447 -0.41,1.071 -1.825,1.533 -2.8,0.921 -0.97,-0.609 -1.05,-2.024 -0.369,-2.865 0.347,-0.427 -0.352,-0.915 -0.696,-0.491 -0.77,0.95 -0.802,2.361 -0.116,3.368 0.691,1.015 2.012,1.333 3.144,0.937 1.076,-0.375 1.762,-1.347 1.823,-2.479 0.069,-1.257 -0.515,-2.455 -1.32,-3.388 C 16.949,8.696 14.337,7.84 12.063,6.673 9.452,5.334 6.839,3.381 6.027,0.413 5.319,-2.172 6.535,-5.377 9.426,-5.859 9.968,-5.949 9.821,-6.789 9.281,-6.698 6.729,-6.273 4.966,-3.806 4.951,-1.29 M 3.752,1.989 C 3.211,2.083 3.357,2.923 3.898,2.829 4.439,2.735 4.293,1.896 3.752,1.989 M 3.561,-4.436 C 3.02,-4.342 3.167,-3.503 3.707,-3.596 4.248,-3.69 4.102,-4.53 3.561,-4.436 M 5.43,-5.599 C 5.218,-6.527 4.731,-7.35 3.981,-7.945 3.268,-8.511 2.21,-8.647 1.669,-9.411 1.667,-9.408 1.665,-9.406 1.662,-9.404 1.635,-9.43 1.619,-9.458 1.589,-9.484 1.195,-9.822 0.758,-9.226 1.017,-8.861 c 0.057,0.08 0.128,0.137 0.191,0.205 0.425,0.545 0.027,1.399 -0.161,1.962 -0.195,0.587 -0.299,1.173 -0.26,1.793 0.078,1.223 0.657,2.323 1.57,3.127 0.412,0.363 0.898,-0.338 0.491,-0.697 -1.044,-0.919 -1.466,-2.406 -1.065,-3.735 0.174,-0.575 0.394,-1.177 0.429,-1.752 0.217,0.106 0.436,0.208 0.654,0.318 0.885,0.446 1.503,1.216 1.725,2.187 0.121,0.533 0.961,0.389 0.839,-0.146 m 13.236,34.565 c 0.495,-1.58 2.447,-2.017 3.532,-0.741 0.356,0.417 1.008,-0.131 0.652,-0.55 -1.482,-1.741 -4.294,-1.208 -4.982,0.993 -0.164,0.523 0.634,0.822 0.798,0.298 m 15.507,-3.124 c -1.389,-1.84 -4.216,-1.396 -5.026,0.742 -0.195,0.515 0.605,0.811 0.799,0.298 0.593,-1.567 2.578,-1.811 3.575,-0.49 0.331,0.438 0.982,-0.113 0.652,-0.55 m -37.453,-40.076 42.932,-7.44 c 0.926,-0.16 1.81,0.463 1.97,1.389 l 9.087,52.438 -4.407,0 c 0.321,-0.303 0.582,-0.672 0.75,-1.076 1.023,-2.457 -1.125,-4.786 -3.318,-5.523 -1.2,-0.403 -2.568,-0.482 -3.732,0.08 -1.009,0.487 -1.745,1.396 -2.173,2.415 -0.548,1.303 -0.576,2.788 -0.135,4.104 l -1.645,0 c 0.011,-0.587 -0.15,-1.179 -0.487,-1.673 -0.691,-1.015 -2.012,-1.333 -3.144,-0.938 -1.076,0.376 -1.762,1.347 -1.823,2.479 -0.003,0.045 0.002,0.088 0.001,0.132 l -1.954,0 c -0.156,-0.333 -0.313,-0.666 -0.441,-1.01 -0.654,-1.76 -0.898,-3.882 0.151,-5.545 1.078,-1.71 3.191,-2.544 5.138,-1.968 0.978,0.289 1.936,0.904 2.445,1.81 0.497,0.884 0.431,2.134 -0.567,2.633 -0.49,0.245 -0.128,1.017 0.363,0.771 0.853,-0.426 1.368,-1.305 1.373,-2.257 0.006,-1.057 -0.585,-2.007 -1.361,-2.684 -1.554,-1.356 -3.874,-1.69 -5.747,-0.831 -1.687,0.773 -2.842,2.351 -3.134,4.173 -0.266,1.661 0.158,3.378 0.831,4.908 l -1.598,0 c 0.008,-0.2 0.03,-0.4 0.029,-0.6 -0.006,-1.81 -0.413,-3.708 -1.647,-5.096 -1.224,-1.376 -3.14,-2.06 -4.959,-1.748 -1.805,0.31 -3.476,1.614 -4.101,3.353 -0.588,1.632 0.074,3.724 1.993,3.957 0.547,0.066 0.626,-0.783 0.083,-0.849 -1.317,-0.159 -1.664,-1.637 -1.31,-2.722 0.357,-1.09 1.23,-1.99 2.247,-2.493 2.053,-1.014 4.582,-0.285 5.832,1.619 0.876,1.335 1.081,2.995 0.993,4.579 l -2.783,0 c -0.682,-0.545 -1.604,-0.726 -2.468,-0.489 -0.371,0.102 -0.685,0.274 -0.953,0.489 l -3.746,0 C 15.075,31.878 14.828,31.618 14.552,31.396 12.529,29.763 9.9,30.414 8.185,32.153 l -5.156,0 -7.697,-44.417 c -0.161,-0.926 0.462,-1.81 1.388,-1.97" /></g><g
           transform="translate(65.0322,35.6252)"
           id="g36"><path
             id="path38"
             style="fill:#852637;fill-opacity:1;fill-rule:nonzero;stroke:none"
             d="M 0,0 C 0.041,0.235 0.263,0.376 0.493,0.347 0.721,0.318 0.878,0.074 0.84,-0.146 0.838,-0.158 0.835,-0.17 0.833,-0.183 0.793,-0.418 0.57,-0.559 0.341,-0.53 0.112,-0.501 -0.045,-0.257 -0.006,-0.037 -0.004,-0.025 -0.002,-0.012 0,0 m 0.387,-1.114 c 0.105,0.091 0.226,0.111 0.339,0.074 0.469,0.272 0.781,0.839 0.807,1.374 C 1.566,1.011 0.895,1.479 0.287,1.124 -0.165,0.861 -0.515,0.166 -0.6,-0.339 -0.671,-0.761 -0.05,-1.1 0.387,-1.114" /></g><g
           transform="translate(29.4327,65.4929)"
           id="g40"><path
             id="path42"
             style="fill:#852637;fill-opacity:1;fill-rule:nonzero;stroke:none"
             d="m 0,0 c 0.523,0.151 0.993,0.42 1.401,0.769 l -4.733,0 C -2.345,0.045 -1.119,-0.323 0,0" /></g><g
           transform="translate(66.1282,0)"
           id="g44"><path
             id="path46"
             style="fill:#ffffff;fill-opacity:1;fill-rule:nonzero;stroke:none"
             d="m 0,0 11.482,66.262 -3.044,0 -10.882,-62.794 -60.216,10.435 9.073,52.359 -3.045,0 L -66.128,11.459 0,0 Z" /></g><g
           transform="translate(13.2304,18.8671)"
           id="g48"><path
             id="path50"
             style="fill:#ffffff;fill-opacity:1;fill-rule:nonzero;stroke:none"
             d="m 0,0 42.931,-7.439 c 1.482,-0.257 2.897,0.739 3.153,2.221 l 9.117,52.613 -1.038,0 -9.086,-52.438 C 44.916,-5.969 44.032,-6.592 43.106,-6.432 L 0.175,1.008 c -0.927,0.16 -1.549,1.044 -1.389,1.97 l 7.697,44.417 -1.038,0 L -2.222,3.153 C -2.478,1.671 -1.482,0.257 0,0" /></g><g
           transform="translate(16.5743,64.6883)"
           id="g52"><path
             id="path54"
             style="fill:#ffffff;fill-opacity:1;fill-rule:nonzero;stroke:none"
             d="M 0,0 C -0.478,0.271 -0.838,-0.502 -0.364,-0.771 0.169,-1.073 0.794,-0.847 1.131,-0.36 1.463,0.12 1.458,0.766 1.272,1.302 1.238,1.398 1.185,1.484 1.14,1.574 l -0.999,0 C 0.319,1.348 0.473,1.099 0.525,0.812 0.573,0.55 0.515,-0.292 0,0" /></g><g
           transform="translate(15.1384,64.246)"
           id="g56"><path
             id="path58"
             style="fill:#ffffff;fill-opacity:1;fill-rule:nonzero;stroke:none"
             d="M 0,0 C 0.229,-0.029 0.452,0.112 0.493,0.347 0.495,0.36 0.497,0.372 0.499,0.384 0.537,0.604 0.38,0.848 0.152,0.877 -0.077,0.906 -0.3,0.765 -0.341,0.53 -0.343,0.518 -0.345,0.505 -0.347,0.493 -0.385,0.273 -0.229,0.029 0,0" /></g><g
           transform="translate(14.3434,61.3646)"
           id="g60"><path
             id="path62"
             style="fill:#ffffff;fill-opacity:1;fill-rule:nonzero;stroke:none"
             d="M 0,0 C 0.249,0.189 0.498,0.378 0.747,0.568 0.897,0.682 1.064,0.844 1.235,0.971 1.356,0.794 1.46,0.58 1.553,0.426 1.714,0.16 1.865,-0.111 2.012,-0.385 2.27,-0.869 2.965,-0.373 2.709,0.106 2.417,0.651 2.087,1.45 1.596,1.841 1.481,1.933 1.313,1.976 1.172,1.915 0.58,1.657 0.023,1.087 -0.491,0.697 -0.927,0.365 -0.438,-0.333 0,0" /></g><g
           transform="translate(13.9293,58.975)"
           id="g64"><path
             id="path66"
             style="fill:#ffffff;fill-opacity:1;fill-rule:nonzero;stroke:none"
             d="M 0,0 C 0.249,0.189 0.498,0.379 0.747,0.568 0.897,0.682 1.064,0.844 1.235,0.971 1.356,0.795 1.46,0.58 1.553,0.426 1.714,0.16 1.865,-0.111 2.012,-0.385 2.27,-0.869 2.965,-0.373 2.709,0.106 2.417,0.651 2.087,1.45 1.596,1.841 1.481,1.933 1.313,1.976 1.172,1.915 0.58,1.657 0.023,1.087 -0.491,0.697 -0.927,0.365 -0.438,-0.333 0,0" /></g><g
           transform="translate(13.7911,50.8912)"
           id="g68"><path
             id="path70"
             style="fill:#ffffff;fill-opacity:1;fill-rule:nonzero;stroke:none"
             d="M 0,0 C -0.035,-0.013 -0.063,-0.04 -0.097,-0.055 0.171,-0.308 0.445,-0.553 0.74,-0.778 1.176,-1.11 1.727,-0.459 1.29,-0.126 0.8,0.247 0.363,0.667 -0.047,1.119 0.678,1.523 1.33,2.026 1.901,2.645 2.2,2.969 1.812,3.453 1.426,3.319 0.841,3.116 0.67,4.126 0.55,4.493 0.482,4.703 0.395,4.903 0.283,5.085 1.09,5.388 1.813,5.851 2.441,6.462 2.835,6.845 2.179,7.391 1.789,7.012 1.109,6.35 0.29,5.917 -0.625,5.681 -0.923,5.605 -1.003,5.129 -0.751,4.956 -0.123,4.525 -0.204,3.615 0.223,3.027 0.339,2.868 0.486,2.75 0.644,2.653 0.179,2.255 -0.318,1.899 -0.882,1.638 -1.113,1.531 -1.267,1.221 -1.081,0.993 -0.964,0.85 -0.833,0.724 -0.711,0.588 -0.579,0.668 -0.445,0.744 -0.298,0.799 0.217,0.991 0.514,0.191 0,0" /></g><g
           transform="translate(12.6904,43.9637)"
           id="g72"><path
             id="path74"
             style="fill:#ffffff;fill-opacity:1;fill-rule:nonzero;stroke:none"
             d="M 0,0 C 0.013,-0.061 0.026,-0.123 0.04,-0.184 0.292,-0.093 0.528,0.053 0.715,0.249 1.593,1.167 1.633,2.557 1.033,3.62 0.722,4.171 0.234,4.694 0.125,5.335 0.014,5.995 0.419,6.604 1.004,6.872 1.038,6.888 1.065,6.914 1.101,6.927 1.615,7.119 1.318,7.918 0.803,7.726 0.656,7.671 0.521,7.595 0.39,7.515 -0.124,7.203 -0.511,6.716 -0.669,6.119 -0.879,5.321 -0.58,4.596 -0.164,3.925 0.375,3.057 0.9,2.269 0.369,1.231 0.161,0.826 -0.298,0.36 -0.803,0.587 -1.376,0.844 -0.991,2.136 -0.639,1.93 -0.165,1.653 0.194,2.426 -0.276,2.701 -1.469,3.399 -2.198,1.544 -1.902,0.632 -1.723,0.083 -1.291,-0.2 -0.808,-0.27 -0.822,-0.208 -0.835,-0.145 -0.848,-0.083 -0.964,0.454 -0.114,0.529 0,0" /></g><g
           transform="translate(14.2697,49.2495)"
           id="g76"><path
             id="path78"
             style="fill:#ffffff;fill-opacity:1;fill-rule:nonzero;stroke:none"
             d="M 0,0 C -0.54,0.094 -0.687,-0.746 -0.146,-0.84 0.395,-0.933 0.541,-0.094 0,0" /></g><g
           transform="translate(13.1761,53.4869)"
           id="g80"><path
             id="path82"
             style="fill:#ffffff;fill-opacity:1;fill-rule:nonzero;stroke:none"
             d="M 0,0 C 0.022,0.015 0.044,0.031 0.066,0.046 0.248,0.175 0.309,0.458 0.169,0.64 0.028,0.823 -0.23,0.88 -0.425,0.743 -0.447,0.728 -0.469,0.712 -0.491,0.697 -0.673,0.568 -0.734,0.285 -0.594,0.103 -0.453,-0.08 -0.195,-0.137 0,0" /></g><g
           transform="translate(10.6831,36.1189)"
           id="g84"><path
             id="path86"
             style="fill:#ffffff;fill-opacity:1;fill-rule:nonzero;stroke:none"
             d="M 0,0 C 0.618,-0.28 1.359,-0.011 1.627,0.614 1.842,1.118 1.071,1.483 0.855,0.978 0.623,0.434 0.078,0.911 -0.021,1.274 -0.149,1.742 0.042,2.295 0.217,2.722 0.552,3.534 1.217,4.338 2.184,4.256 2.429,4.235 2.745,4.423 2.681,4.717 2.47,5.698 2.258,6.679 2.047,7.66 2.034,7.722 2.021,7.783 2.007,7.845 1.893,8.374 1.043,8.299 1.159,7.762 1.172,7.7 1.186,7.637 1.199,7.575 1.379,6.74 1.559,5.906 1.739,5.071 0.249,4.85 -0.749,3.323 -0.891,1.847 -0.961,1.126 -0.706,0.32 0,0" /></g><g
           transform="translate(12.2487,38.5853)"
           id="g88"><path
             id="path90"
             style="fill:#ffffff;fill-opacity:1;fill-rule:nonzero;stroke:none"
             d="M 0,0 C -0.54,0.094 -0.687,-0.746 -0.146,-0.84 0.395,-0.933 0.541,-0.094 0,0" /></g><g
           transform="translate(10.9811,41.9189)"
           id="g92"><path
             id="path94"
             style="fill:#ffffff;fill-opacity:1;fill-rule:nonzero;stroke:none"
             d="M 0,0 C 0.54,-0.094 0.687,0.746 0.146,0.84 -0.395,0.933 -0.541,0.094 0,0" /></g><g
           transform="translate(38.5237,11.9662)"
           id="g96"><path
             id="path98"
             style="fill:#ffffff;fill-opacity:1;fill-rule:nonzero;stroke:none"
             d="M 0,0 C -0.084,-0.01 -0.168,-0.006 -0.252,-0.012 -0.366,-0.634 -0.196,-1.347 0.34,-1.726 0.847,-2.085 1.593,-2.004 1.941,-1.466 2.237,-1.011 1.588,-0.458 1.29,-0.917 0.886,-1.539 0.508,-0.54 0.575,-0.169 0.662,0.308 1.021,0.7 1.501,0.799 2.483,1.002 2.968,0.012 3.506,-0.605 4.612,-1.874 6.416,-3.2 8.191,-3.07 c 0.721,0.053 1.409,0.475 1.789,1.052 -0.051,0.046 -0.113,0.078 -0.161,0.13 -0.339,0.364 0.092,0.936 0.453,0.72 0.025,0.357 -0.063,0.73 -0.325,1.089 C 9.022,1.19 7.135,0.636 6.84,-0.834 6.732,-1.373 7.572,-1.518 7.68,-0.98 7.874,-0.014 9.295,0.057 9.429,-0.985 9.572,-2.106 8.08,-2.327 7.32,-2.142 6.393,-1.915 5.513,-1.341 4.806,-0.715 4.156,-0.138 3.731,0.675 3.053,1.211 2.105,1.961 0.779,1.714 0.117,0.822 0.472,0.685 0.467,0.053 0,0" /></g><g
           transform="translate(48.3429,10.0778)"
           id="g100"><path
             id="path102"
             style="fill:#ffffff;fill-opacity:1;fill-rule:nonzero;stroke:none"
             d="m 0,0 c 0.048,-0.051 0.11,-0.083 0.161,-0.13 0.61,-0.544 1.476,-0.757 2.268,-0.539 0.483,0.133 0.752,0.44 1.157,0.702 0.733,0.472 1.666,-0.499 1.526,-1.235 -0.103,-0.539 0.737,-0.685 0.84,-0.146 0.029,0.154 0.035,0.308 0.023,0.461 C 5.912,-0.894 5.851,-0.886 5.788,-0.907 5.266,-1.074 4.967,-0.275 5.49,-0.108 5.564,-0.084 5.636,-0.079 5.71,-0.065 5.324,0.607 4.574,1.092 3.779,1.011 3.149,0.946 2.839,0.357 2.271,0.171 1.64,-0.035 0.99,0.178 0.549,0.652 0.519,0.685 0.486,0.701 0.453,0.72 0.091,0.937 -0.339,0.364 0,0" /></g><g
           transform="translate(52.7991,8.902)"
           id="g104"><path
             id="path106"
             style="fill:#ffffff;fill-opacity:1;fill-rule:nonzero;stroke:none"
             d="M 0,0 C -0.54,0.094 -0.687,-0.746 -0.146,-0.84 0.395,-0.933 0.541,-0.094 0,0" /></g><g
           transform="translate(44.3735,11.8615)"
           id="g108"><path
             id="path110"
             style="fill:#ffffff;fill-opacity:1;fill-rule:nonzero;stroke:none"
             d="M 0,0 C 0.54,-0.094 0.687,0.746 0.146,0.84 -0.395,0.933 -0.541,0.094 0,0" /></g><g
           transform="translate(54.131,9.1712)"
           id="g112"><path
             id="path114"
             style="fill:#ffffff;fill-opacity:1;fill-rule:nonzero;stroke:none"
             d="M 0,0 C 0.063,0.02 0.124,0.013 0.187,0.02 0.651,0.071 1.094,-0.199 1.482,-0.432 1.979,-0.731 2.462,-1.053 2.964,-1.344 3.705,-1.773 4.585,-2.086 5.422,-1.733 7.05,-1.047 6.396,1.464 4.611,1.003 4.08,0.867 4.381,0.069 4.909,0.205 5.312,0.309 5.608,-0.086 5.525,-0.459 5.437,-0.856 5.022,-1.025 4.658,-1.037 4.019,-1.058 3.424,-0.635 2.904,-0.314 2.014,0.234 1.018,1.052 -0.078,0.841 -0.152,0.827 -0.224,0.822 -0.298,0.799 -0.821,0.631 -0.522,-0.167 0,0" /></g><g
           transform="translate(61.6123,9.3823)"
           id="g116"><path
             id="path118"
             style="fill:#ffffff;fill-opacity:1;fill-rule:nonzero;stroke:none"
             d="M 0,0 C 0.699,0.012 1.289,0.498 1.393,1.197 1.511,1.987 1.039,2.657 0.626,3.278 0.363,3.673 0.172,4.053 0.177,4.539 0.182,4.944 0.244,5.353 0.306,5.759 0.005,5.924 -0.249,6.17 -0.44,6.465 -0.445,6.444 -0.457,6.429 -0.46,6.406 -0.608,5.258 -0.885,4.133 -0.261,3.082 0.026,2.6 0.475,2.15 0.547,1.571 0.598,1.158 0.324,0.781 -0.127,0.86 -0.471,0.92 -0.66,1.242 -0.753,1.547 -0.914,2.071 -1.712,1.772 -1.552,1.249 -1.341,0.561 -0.757,-0.013 0,0" /></g><g
           transform="translate(63.207,20.9962)"
           id="g120"><path
             id="path122"
             style="fill:#ffffff;fill-opacity:1;fill-rule:nonzero;stroke:none"
             d="m 0,0 c 0.032,-0.061 0.041,-0.13 0.067,-0.193 0.67,0.163 1.3,0.665 1.593,1.329 0.708,1.6 0.095,3.702 -0.699,5.157 C 0.561,7.028 -0.268,7.858 0.268,8.737 0.521,9.154 1.014,9.365 1.491,9.283 1.861,9.22 2.679,8.53 1.955,8.359 1.423,8.233 1.725,7.435 2.253,7.56 2.857,7.703 3.184,8.341 3.049,8.927 2.899,9.58 2.271,10.015 1.637,10.123 0.096,10.385 -1.135,8.873 -0.642,7.414 -0.376,6.626 0.224,5.975 0.545,5.204 0.905,4.338 1.144,3.359 1.088,2.415 1.04,1.607 0.439,0.244 -0.628,0.639 -1.66,1.02 -1.169,2.471 -0.136,2.32 0.406,2.241 0.554,3.081 0.01,3.16 -1.434,3.371 -2.603,1.854 -1.789,0.552 -1.536,0.148 -1.198,-0.075 -0.833,-0.177 -0.905,0.232 -0.227,0.438 0,0" /></g><g
           transform="translate(61.9186,15.1414)"
           id="g124"><path
             id="path126"
             style="fill:#ffffff;fill-opacity:1;fill-rule:nonzero;stroke:none"
             d="M 0,0 C 0.174,-0.095 0.357,-0.173 0.555,-0.203 1.096,-0.288 1.244,0.551 0.701,0.636 0.015,0.743 -0.583,1.803 -0.056,2.381 0.291,2.762 0.787,2.896 1.101,3.343 1.574,4.016 1.664,4.904 1.355,5.662 1.329,5.725 1.32,5.794 1.288,5.855 1.061,6.293 0.383,6.087 0.456,5.678 0.463,5.638 0.468,5.599 0.49,5.557 0.775,5.006 0.772,4.371 0.415,3.849 0.058,3.326 -0.645,3.227 -0.935,2.637 -1.242,2.012 -1.115,1.277 -0.746,0.706 -0.555,0.411 -0.301,0.165 0,0" /></g><g
           transform="translate(63.3075,16.7514)"
           id="g128"><path
             id="path130"
             style="fill:#ffffff;fill-opacity:1;fill-rule:nonzero;stroke:none"
             d="M 0,0 C -0.54,0.094 -0.687,-0.746 -0.146,-0.84 0.395,-0.933 0.541,-0.094 0,0" /></g><g
           transform="translate(62.3703,24.9871)"
           id="g132"><path
             id="path134"
             style="fill:#ffffff;fill-opacity:1;fill-rule:nonzero;stroke:none"
             d="M 0,0 C 0.54,-0.094 0.687,0.746 0.146,0.84 -0.395,0.933 -0.541,0.094 0,0" /></g><g
           transform="translate(63.9404,32.1009)"
           id="g136"><path
             id="path138"
             style="fill:#ffffff;fill-opacity:1;fill-rule:nonzero;stroke:none"
             d="M 0,0 C 0.572,0.182 1.397,0.453 1.807,-0.159 2.112,-0.616 2.808,-0.125 2.503,0.332 1.852,1.306 0.661,1.104 -0.298,0.799 -0.821,0.632 -0.522,-0.167 0,0" /></g><g
           transform="translate(65.3195,36.7496)"
           id="g140"><path
             id="path142"
             style="fill:#ffffff;fill-opacity:1;fill-rule:nonzero;stroke:none"
             d="M 0,0 C 0.608,0.354 1.279,-0.114 1.246,-0.791 1.219,-1.326 0.908,-1.892 0.439,-2.164 0.326,-2.127 0.205,-2.148 0.1,-2.239 -0.337,-2.224 -0.958,-1.885 -0.887,-1.463 -0.802,-0.958 -0.452,-0.264 0,0 m 0.462,-3.038 c 0.068,-0.01 0.141,-0.005 0.223,0.037 0.937,0.481 1.606,1.608 1.373,2.683 C 1.83,0.736 0.647,1.268 -0.306,0.799 -0.773,0.569 -1.106,0.154 -1.341,-0.3 -1.57,-0.745 -1.923,-1.443 -1.712,-1.951 c 0.24,-0.578 1.498,-1.473 2.174,-1.087" /></g><g
           transform="translate(65.3729,35.0953)"
           id="g144"><path
             id="path146"
             style="fill:#ffffff;fill-opacity:1;fill-rule:nonzero;stroke:none"
             d="M 0,0 C 0.229,-0.029 0.452,0.112 0.493,0.347 0.495,0.36 0.497,0.372 0.499,0.384 0.537,0.604 0.38,0.848 0.152,0.877 -0.077,0.906 -0.3,0.765 -0.341,0.53 -0.343,0.518 -0.345,0.505 -0.347,0.493 -0.385,0.273 -0.229,0.029 0,0" /></g><g
           transform="translate(65.4014,38.3677)"
           id="g148"><path
             id="path150"
             style="fill:#ffffff;fill-opacity:1;fill-rule:nonzero;stroke:none"
             d="M 0,0 C 1.06,-0.637 3.381,0.335 2.409,1.729 2.095,2.18 1.398,1.689 1.712,1.238 2.003,0.821 1.046,0.61 0.854,0.618 0.504,0.632 0.233,0.81 0.102,1.139 -0.115,1.686 0.147,2.295 0.503,2.712 1.335,3.685 2.633,4.12 3.314,5.25 3.911,6.242 3.747,7.493 3.106,8.424 2.756,8.931 2.262,9.31 1.878,9.787 1.69,10.02 1.528,10.279 1.474,10.578 1.426,10.84 1.484,11.682 1.999,11.39 2.477,11.119 2.837,11.892 2.362,12.161 1.83,12.463 1.205,12.236 0.868,11.75 0.535,11.27 0.541,10.624 0.727,10.088 1.208,8.699 3.03,8.07 2.829,6.394 2.636,4.784 0.547,4.245 -0.313,3.051 -0.969,2.14 -1.084,0.651 0,0" /></g><g
           transform="translate(68.8361,50.1998)"
           id="g152"><path
             id="path154"
             style="fill:#ffffff;fill-opacity:1;fill-rule:nonzero;stroke:none"
             d="m 0,0 c -0.229,0.029 -0.452,-0.112 -0.493,-0.347 -0.002,-0.013 -0.004,-0.025 -0.006,-0.037 -0.038,-0.22 0.119,-0.464 0.347,-0.493 0.229,-0.029 0.452,0.112 0.493,0.347 0.002,0.012 0.004,0.025 0.006,0.037 C 0.385,-0.273 0.229,-0.029 0,0" /></g><g
           transform="translate(66.2946,43.3727)"
           id="g156"><path
             id="path158"
             style="fill:#ffffff;fill-opacity:1;fill-rule:nonzero;stroke:none"
             d="M 0,0 C 1.05,0.548 1.261,1.768 0.626,2.733 0.323,3.192 -0.373,2.7 -0.071,2.242 0.231,1.784 0.256,1.088 -0.298,0.799 -0.778,0.548 -0.486,-0.254 0,0" /></g><g
           transform="translate(67.8273,41.4939)"
           id="g160"><path
             id="path162"
             style="fill:#ffffff;fill-opacity:1;fill-rule:nonzero;stroke:none"
             d="M 0,0 C -0.54,0.094 -0.687,-0.746 -0.146,-0.84 0.395,-0.933 0.541,-0.094 0,0" /></g><g
           transform="translate(68.0349,51.2401)"
           id="g164"><path
             id="path166"
             style="fill:#ffffff;fill-opacity:1;fill-rule:nonzero;stroke:none"
             d="M 0,0 C 0.115,-0.092 0.283,-0.135 0.424,-0.073 1.017,0.184 1.573,0.754 2.087,1.144 2.523,1.476 2.034,2.174 1.596,1.841 1.347,1.652 1.098,1.463 0.849,1.273 0.699,1.159 0.532,0.997 0.361,0.87 0.24,1.047 0.136,1.261 0.043,1.415 -0.118,1.681 -0.269,1.952 -0.416,2.227 -0.674,2.71 -1.368,2.214 -1.113,1.736 -0.821,1.19 -0.491,0.391 0,0" /></g><g
           transform="translate(68.4489,53.6296)"
           id="g168"><path
             id="path170"
             style="fill:#ffffff;fill-opacity:1;fill-rule:nonzero;stroke:none"
             d="M 0,0 C 0.115,-0.092 0.283,-0.135 0.424,-0.073 1.017,0.184 1.573,0.754 2.087,1.144 2.524,1.476 2.034,2.174 1.596,1.841 1.347,1.652 1.098,1.463 0.849,1.273 0.699,1.159 0.532,0.997 0.361,0.87 0.24,1.047 0.136,1.261 0.043,1.415 -0.118,1.681 -0.269,1.952 -0.416,2.227 -0.674,2.71 -1.368,2.214 -1.113,1.736 -0.821,1.19 -0.491,0.391 0,0" /></g><g
           transform="translate(70.1833,63.5546)"
           id="g172"><path
             id="path174"
             style="fill:#ffffff;fill-opacity:1;fill-rule:nonzero;stroke:none"
             d="M 0,0 C 0.035,0.013 0.063,0.04 0.097,0.055 -0.171,0.308 -0.445,0.553 -0.74,0.778 -1.176,1.11 -1.727,0.459 -1.29,0.126 c 0.489,-0.373 0.927,-0.793 1.337,-1.245 -0.725,-0.404 -1.377,-0.907 -1.948,-1.526 -0.299,-0.324 0.089,-0.808 0.475,-0.674 0.585,0.203 0.756,-0.807 0.876,-1.174 0.068,-0.21 0.155,-0.41 0.267,-0.592 -0.808,-0.303 -1.53,-0.766 -2.158,-1.377 -0.394,-0.383 0.262,-0.929 0.652,-0.55 0.68,0.662 1.499,1.095 2.414,1.331 0.298,0.076 0.378,0.552 0.126,0.725 -0.628,0.431 -0.547,1.341 -0.974,1.929 -0.116,0.159 -0.263,0.277 -0.421,0.374 0.465,0.398 0.962,0.754 1.526,1.015 0.231,0.107 0.385,0.417 0.199,0.645 C 0.964,-0.85 0.833,-0.724 0.711,-0.588 0.579,-0.668 0.445,-0.744 0.298,-0.799 -0.217,-0.991 -0.514,-0.191 0,0" /></g><g
           transform="translate(70.28,63.6099)"
           id="g176"><path
             id="path178"
             style="fill:#ffffff;fill-opacity:1;fill-rule:nonzero;stroke:none"
             d="m 0,0 c -0.034,-0.016 -0.061,-0.042 -0.097,-0.055 -0.513,-0.192 -0.217,-0.991 0.298,-0.799 0.147,0.055 0.282,0.131 0.413,0.211 0.514,0.312 0.901,0.799 1.059,1.397 0.18,0.683 -0.021,1.31 -0.342,1.898 l -0.978,0 C 0.586,2.303 0.81,1.944 0.879,1.537 0.99,0.877 0.585,0.268 0,0" /></g><g
           transform="translate(69.7048,65.1964)"
           id="g180"><path
             id="path182"
             style="fill:#ffffff;fill-opacity:1;fill-rule:nonzero;stroke:none"
             d="M 0,0 C 0.54,-0.094 0.687,0.746 0.146,0.84 -0.395,0.933 -0.541,0.094 0,0" /></g><g
           transform="translate(71.2892,60.2621)"
           id="g184"><path
             id="path186"
             style="fill:#ffffff;fill-opacity:1;fill-rule:nonzero;stroke:none"
             d="M 0,0 C 0.182,0.129 0.243,0.411 0.103,0.594 -0.038,0.777 -0.296,0.834 -0.491,0.697 -0.513,0.681 -0.535,0.666 -0.557,0.65 -0.739,0.522 -0.8,0.239 -0.659,0.057 -0.519,-0.126 -0.26,-0.184 -0.066,-0.046 -0.044,-0.031 -0.022,-0.015 0,0" /></g><g
           transform="translate(20.1393,14.9651)"
           id="g188"><path
             id="path190"
             style="fill:#ffffff;fill-opacity:1;fill-rule:nonzero;stroke:none"
             d="m 0,0 c -0.061,-0.032 -0.13,-0.041 -0.193,-0.067 0.163,-0.67 0.665,-1.3 1.329,-1.593 1.6,-0.708 3.702,-0.095 5.157,0.699 0.735,0.4 1.565,1.229 2.444,0.693 C 9.154,-0.521 9.365,-1.014 9.283,-1.491 9.22,-1.861 8.53,-2.679 8.359,-1.955 8.233,-1.423 7.435,-1.725 7.56,-2.253 c 0.143,-0.604 0.781,-0.931 1.367,-0.796 0.608,0.14 1.015,0.696 1.157,1.283 -0.127,0.047 -0.255,0.087 -0.382,0.15 -0.491,0.243 -0.129,1.015 0.364,0.771 0.007,-0.004 0.014,-0.005 0.021,-0.009 C 9.829,0.283 8.612,1.047 7.414,0.642 6.626,0.376 5.975,-0.224 5.204,-0.545 4.338,-0.905 3.359,-1.144 2.415,-1.088 1.607,-1.04 0.244,-0.439 0.639,0.629 1.02,1.66 2.471,1.17 2.32,0.136 2.241,-0.406 3.081,-0.554 3.16,-0.01 3.371,1.434 1.854,2.603 0.552,1.789 0.148,1.536 -0.075,1.198 -0.177,0.833 0.232,0.905 0.438,0.227 0,0" /></g><g
           transform="translate(14.3836,16.059)"
           id="g192"><path
             id="path194"
             style="fill:#ffffff;fill-opacity:1;fill-rule:nonzero;stroke:none"
             d="m 0,0 c -0.052,0.04 -0.112,0.054 -0.168,0.081 -0.064,-0.14 -0.111,-0.287 -0.135,-0.441 -0.084,-0.542 0.755,-0.689 0.84,-0.146 0.107,0.686 1.167,1.283 1.745,0.757 0.381,-0.347 0.515,-0.844 0.961,-1.157 0.674,-0.473 1.562,-0.564 2.319,-0.255 0.064,0.026 0.132,0.035 0.194,0.067 0.438,0.228 0.232,0.906 -0.177,0.833 C 5.539,-0.268 5.5,-0.273 5.457,-0.295 4.907,-0.581 4.272,-0.577 3.75,-0.221 3.227,0.137 3.128,0.839 2.537,1.129 1.819,1.482 0.949,1.272 0.358,0.765 0.422,0.727 0.488,0.699 0.549,0.652 0.986,0.318 0.435,-0.333 0,0" /></g><g
           transform="translate(15.5473,15.3573)"
           id="g196"><path
             id="path198"
             style="fill:#ffffff;fill-opacity:1;fill-rule:nonzero;stroke:none"
             d="M 0,0 C -0.54,0.094 -0.687,-0.746 -0.146,-0.84 0.395,-0.933 0.541,-0.094 0,0" /></g><g
           transform="translate(24.4774,15.3091)"
           id="g200"><path
             id="path202"
             style="fill:#ffffff;fill-opacity:1;fill-rule:nonzero;stroke:none"
             d="M 0,0 C 0.54,-0.094 0.687,0.746 0.146,0.84 -0.395,0.933 -0.541,0.094 0,0" /></g><g
           transform="translate(9.6485,16.6495)"
           id="g204"><path
             id="path206"
             style="fill:#ffffff;fill-opacity:1;fill-rule:nonzero;stroke:none"
             d="m 0,0 c -0.338,0.131 -0.676,0.434 -0.622,0.836 0.05,0.376 0.457,0.653 0.803,0.418 0.451,-0.305 1.004,0.344 0.55,0.652 -1.527,1.034 -2.987,-1.111 -1.685,-2.304 0.67,-0.614 1.604,-0.616 2.446,-0.46 0.57,0.105 1.134,0.245 1.703,0.359 0.443,0.09 0.952,0.195 1.372,-0.011 0.056,-0.027 0.116,-0.041 0.168,-0.081 0.435,-0.333 0.986,0.318 0.55,0.652 C 5.223,0.108 5.157,0.137 5.093,0.175 4.131,0.743 2.918,0.308 1.894,0.091 1.296,-0.037 0.597,-0.232 0,0" /></g><g
           transform="translate(7.4095,18.775)"
           id="g208"><path
             id="path210"
             style="fill:#ffffff;fill-opacity:1;fill-rule:nonzero;stroke:none"
             d="M 0,0 C 0.708,-0.266 1.451,0.076 1.882,0.654 2.209,1.092 1.558,1.644 1.23,1.203 1.039,0.948 0.755,0.708 0.409,0.767 0.02,0.834 -0.159,1.202 -0.028,1.557 c 0.217,0.587 0.856,0.881 1.31,1.258 0.942,0.78 1.06,1.932 1.307,3.063 0.005,0.023 -10e-4,0.04 0,0.062 C 2.311,5.724 1.988,5.577 1.646,5.524 1.573,5.164 1.499,4.803 1.394,4.454 1.239,3.937 0.94,3.614 0.513,3.298 -0.085,2.854 -0.754,2.379 -0.909,1.596 -1.046,0.904 -0.654,0.246 0,0" /></g><g
           transform="translate(10.8263,26.4695)"
           id="g212"><path
             id="path214"
             style="fill:#ffffff;fill-opacity:1;fill-rule:nonzero;stroke:none"
             d="m 0,0 c -0.064,0.629 -0.654,0.94 -0.84,1.508 -0.206,0.63 0.007,1.28 0.481,1.721 0.027,0.025 0.037,0.052 0.055,0.078 C -0.628,3.28 -0.956,3.349 -1.236,3.498 -1.705,2.897 -1.884,2.093 -1.68,1.35 c 0.133,-0.484 0.441,-0.752 0.702,-1.157 0.473,-0.733 -0.499,-1.667 -1.235,-1.526 -0.539,0.102 -0.685,-0.737 -0.146,-0.84 0.197,-0.038 0.394,-0.027 0.588,0.003 0.342,0.053 0.665,0.2 0.943,0.415 C -0.292,-1.341 0.071,-0.691 0,0" /></g><g
           transform="translate(8.1471,25.4449)"
           id="g216"><path
             id="path218"
             style="fill:#ffffff;fill-opacity:1;fill-rule:nonzero;stroke:none"
             d="M 0,0 C 0.54,-0.094 0.687,0.746 0.146,0.84 -0.395,0.933 -0.541,0.094 0,0" /></g><g
           transform="translate(12.0918,34.5648)"
           id="g220"><path
             id="path222"
             style="fill:#ffffff;fill-opacity:1;fill-rule:nonzero;stroke:none"
             d="M 0,0 C -0.54,0.094 -0.687,-0.746 -0.146,-0.84 0.395,-0.933 0.541,-0.094 0,0" /></g><g
           transform="translate(10.5221,29.7761)"
           id="g224"><path
             id="path226"
             style="fill:#ffffff;fill-opacity:1;fill-rule:nonzero;stroke:none"
             d="M 0,0 C 0.526,0.043 1.036,0.332 1.287,0.927 1.555,1.564 1.42,2.354 0.917,2.835 0.556,3.18 0.072,3.276 -0.344,3.523 -0.579,3.661 -0.784,3.848 -0.672,4.13 -0.604,4.302 -0.162,4.63 0.007,4.425 0.355,4.004 1.054,4.492 0.704,4.916 -0.248,6.068 -2.222,4.539 -1.365,3.305 -1.181,3.039 -0.909,2.853 -0.626,2.706 -0.234,2.502 0.31,2.414 0.503,1.965 0.648,1.628 0.571,1.188 0.273,0.959 -0.248,0.559 -0.93,0.98 -0.78,1.617 -0.654,2.151 -1.494,2.295 -1.619,1.763 -1.796,1.014 -1.447,0.467 -0.932,0.192 -0.651,0.042 -0.324,-0.027 0,0" /></g><g
           transform="translate(29.8414,13.349)"
           id="g228"><path
             id="path230"
             style="fill:#ffffff;fill-opacity:1;fill-rule:nonzero;stroke:none"
             d="M 0,0 C 0.127,-0.063 0.255,-0.103 0.382,-0.15 1.077,-0.405 1.781,-0.444 2.534,-0.328 3.177,-0.229 3.814,-0.079 4.31,0.32 4.217,0.425 4.121,0.527 4.037,0.641 3.716,1.072 4.374,1.544 4.709,1.154 4.576,1.396 4.237,1.523 4.028,1.239 3.615,0.677 2.931,0.587 2.283,0.495 1.605,0.399 1.004,0.462 0.385,0.762 0.378,0.766 0.371,0.768 0.364,0.771 -0.129,1.015 -0.491,0.243 0,0" /></g><g
           transform="translate(33.8784,13.9897)"
           id="g232"><path
             id="path234"
             style="fill:#ffffff;fill-opacity:1;fill-rule:nonzero;stroke:none"
             d="m 0,0 c 0.084,-0.114 0.18,-0.215 0.273,-0.321 1.034,-1.174 2.551,-1.813 4.12,-1.714 0.084,0.005 0.168,0.002 0.252,0.012 0.468,0.053 0.472,0.684 0.117,0.822 -0.058,0.022 -0.123,0.035 -0.2,0.026 C 3.066,-1.346 1.597,-0.72 0.697,0.491 0.689,0.501 0.68,0.504 0.672,0.513 0.337,0.903 -0.321,0.431 0,0" /></g><g
           transform="translate(33.9252,12.4255)"
           id="g236"><path
             id="path238"
             style="fill:#ffffff;fill-opacity:1;fill-rule:nonzero;stroke:none"
             d="M 0,0 C -0.54,0.094 -0.687,-0.746 -0.146,-0.84 0.395,-0.933 0.541,-0.094 0,0" /></g><g
           transform="translate(31.5118,12.6418)"
           id="g240"><path
             id="path242"
             style="fill:#ffffff;fill-opacity:1;fill-rule:nonzero;stroke:none"
             d="m 0,0 c -0.009,0.002 -0.019,0.003 -0.028,0.005 -0.22,0.038 -0.463,-0.119 -0.493,-0.347 -0.029,-0.23 0.112,-0.452 0.348,-0.493 0.009,-0.002 0.018,-0.003 0.027,-0.005 0.22,-0.038 0.464,0.119 0.493,0.347 C 0.376,-0.263 0.235,-0.041 0,0" /></g><g
           transform="translate(36.1537,11.8086)"
           id="g244"><path
             id="path246"
             style="fill:#ffffff;fill-opacity:1;fill-rule:nonzero;stroke:none"
             d="M 0,0 C -0.54,0.094 -0.687,-0.746 -0.146,-0.84 0.395,-0.933 0.541,-0.094 0,0" /></g><g
           transform="translate(40.9465,61.6834)"
           id="g248"><path
             id="path250"
             style="fill:#ffffff;fill-opacity:1;fill-rule:nonzero;stroke:none"
             d="m 0,0 c -1.25,-1.904 -3.779,-2.633 -5.832,-1.619 -1.017,0.502 -1.89,1.403 -2.247,2.493 -0.354,1.085 -0.007,2.562 1.31,2.722 0.543,0.066 0.464,0.915 -0.083,0.849 -1.919,-0.233 -2.581,-2.325 -1.993,-3.957 0.625,-1.74 2.296,-3.043 4.101,-3.353 1.819,-0.312 3.735,0.372 4.959,1.748 1.234,1.387 1.641,3.286 1.647,5.096 10e-4,0.2 -0.021,0.4 -0.029,0.6 l -0.84,0 C 1.081,2.994 0.876,1.334 0,0" /></g><g
           transform="translate(39.157,66.2621)"
           id="g252"><path
             id="path254"
             style="fill:#ffffff;fill-opacity:1;fill-rule:nonzero;stroke:none"
             d="m 0,0 -3.421,0 c 0.267,-0.215 0.582,-0.387 0.952,-0.489 C -1.605,-0.726 -0.683,-0.544 0,0" /></g><g
           transform="translate(31.2361,65.5048)"
           id="g256"><path
             id="path258"
             style="fill:#ffffff;fill-opacity:1;fill-rule:nonzero;stroke:none"
             d="m 0,0 c 0.276,0.223 0.523,0.482 0.753,0.757 l -1.156,0 C -0.81,0.408 -1.28,0.139 -1.803,-0.012 -2.922,-0.335 -4.149,0.033 -5.135,0.757 l -1.231,0 C -4.651,-0.981 -2.022,-1.633 0,0" /></g><g
           transform="translate(34.5522,62.777)"
           id="g260"><path
             id="path262"
             style="fill:#ffffff;fill-opacity:1;fill-rule:nonzero;stroke:none"
             d="M 0,0 C 0.689,-2.201 3.5,-2.734 4.982,-0.993 5.339,-0.574 4.686,-0.025 4.331,-0.443 3.245,-1.719 1.293,-1.282 0.799,0.298 0.635,0.822 -0.164,0.523 0,0" /></g><g
           transform="translate(43.5467,61.3541)"
           id="g264"><path
             id="path266"
             style="fill:#ffffff;fill-opacity:1;fill-rule:nonzero;stroke:none"
             d="m 0,0 c 0.292,-1.822 1.447,-3.4 3.134,-4.173 1.873,-0.859 4.192,-0.525 5.746,0.831 0.777,0.677 1.368,1.627 1.362,2.684 C 10.236,0.294 9.721,1.173 8.869,1.599 8.377,1.845 8.015,1.073 8.505,0.828 9.504,0.329 9.57,-0.921 9.073,-1.805 8.564,-2.711 7.606,-3.326 6.628,-3.615 4.681,-4.19 2.567,-3.357 1.489,-1.647 0.441,0.016 0.685,2.138 1.339,3.898 1.467,4.242 1.624,4.575 1.78,4.908 l -0.949,0 C 0.158,3.378 -0.266,1.661 0,0" /></g><g
           transform="translate(49.1026,63.6511)"
           id="g268"><path
             id="path270"
             style="fill:#ffffff;fill-opacity:1;fill-rule:nonzero;stroke:none"
             d="M 0,0 C 1.132,-0.395 2.453,-0.077 3.144,0.938 3.481,1.432 3.642,2.024 3.63,2.611 l -0.861,0 C 2.798,1.966 2.543,1.313 1.962,0.949 0.988,0.337 -0.427,0.8 -0.837,1.871 -0.93,2.113 -0.967,2.362 -0.976,2.611 l -0.846,0 C -1.821,2.567 -1.826,2.524 -1.823,2.48 -1.762,1.347 -1.076,0.376 0,0" /></g><g
           transform="translate(54.5135,62.158)"
           id="g272"><path
             id="path274"
             style="fill:#ffffff;fill-opacity:1;fill-rule:nonzero;stroke:none"
             d="m 0,0 c 0.428,-1.019 1.164,-1.928 2.173,-2.415 1.164,-0.562 2.532,-0.483 3.732,-0.08 2.193,0.737 4.341,3.066 3.318,5.524 -0.168,0.403 -0.429,0.772 -0.75,1.075 l -3.688,0 C 4.406,3.705 4.154,3.189 4.127,2.625 4.102,2.085 4.941,1.932 4.967,2.48 5.018,3.581 6.132,4.317 7.174,3.941 8.296,3.536 8.775,2.298 8.543,1.19 8.065,-1.095 4.997,-2.527 2.866,-1.782 0.748,-1.041 0.053,1.646 0.578,3.625 0.623,3.796 0.698,3.946 0.762,4.104 l -0.897,0 C -0.576,2.788 -0.548,1.303 0,0" /></g><g
           transform="translate(60.9547,62.1104)"
           id="g276"><path
             id="path278"
             style="fill:#ffffff;fill-opacity:1;fill-rule:nonzero;stroke:none"
             d="M 0,0 C 0.54,-0.094 0.687,0.746 0.146,0.84 -0.395,0.933 -0.541,0.094 0,0" /></g><g
           transform="translate(59.3827,61.6909)"
           id="g280"><path
             id="path282"
             style="fill:#ffffff;fill-opacity:1;fill-rule:nonzero;stroke:none"
             d="M 0,0 C 0.54,-0.094 0.687,0.746 0.146,0.84 -0.395,0.933 -0.541,0.094 0,0" /></g><g
           transform="translate(57.4986,62.1326)"
           id="g284"><path
             id="path286"
             style="fill:#ffffff;fill-opacity:1;fill-rule:nonzero;stroke:none"
             d="M 0,0 C 0.54,-0.094 0.687,0.746 0.146,0.84 -0.395,0.933 -0.541,0.094 0,0" /></g><g
           transform="translate(50.2059,60.5011)"
           id="g288"><path
             id="path290"
             style="fill:#ffffff;fill-opacity:1;fill-rule:nonzero;stroke:none"
             d="M 0,0 C -0.997,-1.321 -2.982,-1.077 -3.576,0.49 -3.77,1.003 -4.569,0.707 -4.374,0.192 -3.565,-1.946 -0.737,-2.39 0.652,-0.55 0.982,-0.112 0.331,0.438 0,0" /></g><g
           transform="translate(31.5362,51.3624)"
           id="g292"><path
             id="path294"
             style="fill:#ffffff;fill-opacity:1;fill-rule:nonzero;stroke:none"
             d="M 0,0 C 0.492,-0.246 0.854,0.526 0.364,0.771 -0.635,1.271 -0.701,2.52 -0.204,3.405 0.305,4.31 1.263,4.925 2.241,5.214 4.188,5.79 6.302,4.956 7.38,3.246 8.428,1.583 8.184,-0.539 7.53,-2.299 6.835,-4.168 5.7,-5.879 4.397,-7.379 c -1.299,-1.496 -2.823,-2.783 -4.505,-3.827 -1.411,-0.876 -2.921,-1.616 -4.202,-2.686 -1.253,-1.047 -2.303,-2.45 -2.539,-4.106 -0.229,-1.606 0.293,-3.311 1.373,-4.52 1.279,-1.43 3.463,-2.219 5.094,-0.879 1.816,1.492 1.688,3.959 1.212,6.037 -0.052,0.223 -0.234,0.332 -0.417,0.351 0.359,-0.116 0.496,-0.677 0.055,-0.786 -0.135,-0.033 -0.26,-0.085 -0.385,-0.134 0.357,-1.852 0.428,-4.319 -1.592,-5.166 -1.947,-0.816 -3.839,1.294 -4.34,2.97 -0.541,1.806 0.105,3.587 1.369,4.918 1.195,1.259 2.784,2.066 4.26,2.94 3.385,2.004 6.291,4.893 8.027,8.453 0.804,1.65 1.358,3.568 1.062,5.413 C 8.577,3.421 7.422,4.999 5.735,5.773 3.862,6.631 1.543,6.297 -0.011,4.942 -0.788,4.264 -1.379,3.314 -1.373,2.257 -1.367,1.305 -0.852,0.426 0,0" /></g><g
           transform="translate(26.1107,28.2505)"
           id="g296"><path
             id="path298"
             style="fill:#ffffff;fill-opacity:1;fill-rule:nonzero;stroke:none"
             d="m 0,0 c -2.891,0.482 -4.107,3.686 -3.4,6.272 0.813,2.967 3.426,4.921 6.037,6.26 2.274,1.166 4.886,2.022 6.605,4.015 0.805,0.933 1.388,2.13 1.32,3.388 -0.062,1.132 -0.748,2.103 -1.823,2.479 -1.132,0.395 -2.453,0.077 -3.144,-0.938 -0.686,-1.007 -0.654,-2.417 0.116,-3.367 0.344,-0.425 1.042,0.063 0.696,0.491 -0.681,0.841 -0.601,2.256 0.369,2.865 0.975,0.612 2.39,0.149 2.8,-0.922 C 10.036,19.341 9.369,17.998 8.591,17.096 7.783,16.161 6.711,15.488 5.625,14.921 3.345,13.732 0.928,12.831 -1.063,11.152 -3.011,9.511 -4.491,7.186 -4.475,4.569 -4.46,2.052 -2.698,-0.415 -0.146,-0.84 0.395,-0.93 0.542,-0.09 0,0" /></g><g
           transform="translate(17.0519,33.4102)"
           id="g300"><path
             id="path302"
             style="fill:#ffffff;fill-opacity:1;fill-rule:nonzero;stroke:none"
             d="M 0,0 C 1.167,-0.029 2.267,0.271 3.28,0.844 3.758,1.114 3.263,1.808 2.789,1.54 2.189,1.201 1.548,1.003 0.884,0.911 1.345,1.59 1.68,2.323 2.063,3.082 2.309,3.57 2.623,4.062 3.112,4.337 3.589,4.605 4.304,4.581 4.553,4.013 4.771,3.512 5.572,3.806 5.351,4.311 4.787,5.603 3.191,5.591 2.237,4.749 1.679,4.256 1.349,3.589 1.045,2.921 0.672,2.1 0.253,1.362 -0.367,0.699 -0.65,0.397 -0.338,0.008 0,0" /></g><g
           transform="translate(21.2751,28.6559)"
           id="g304"><path
             id="path306"
             style="fill:#ffffff;fill-opacity:1;fill-rule:nonzero;stroke:none"
             d="m 0,0 c -0.222,-0.97 -0.839,-1.74 -1.724,-2.187 -0.218,-0.11 -0.438,-0.212 -0.654,-0.317 -0.036,0.574 -0.256,1.176 -0.429,1.751 -0.401,1.33 0.02,2.816 1.064,3.736 0.408,0.359 -0.079,1.059 -0.491,0.696 -0.913,-0.804 -1.491,-1.904 -1.569,-3.127 -0.039,-0.62 0.065,-1.206 0.26,-1.793 0.187,-0.563 0.585,-1.417 0.161,-1.962 -0.064,-0.068 -0.135,-0.125 -0.191,-0.205 -0.259,-0.365 0.178,-0.961 0.571,-0.623 0.03,0.026 0.046,0.054 0.074,0.081 0.002,-0.003 0.004,-0.005 0.006,-0.007 0.541,0.763 1.599,0.9 2.313,1.465 0.75,0.595 1.237,1.418 1.449,2.346 C 0.962,0.39 0.122,0.534 0,0" /></g><g
           transform="translate(20.246,29.673)"
           id="g308"><path
             id="path310"
             style="fill:#ffffff;fill-opacity:1;fill-rule:nonzero;stroke:none"
             d="M 0,0 C 0.54,-0.094 0.687,0.746 0.146,0.84 -0.395,0.933 -0.541,0.094 0,0" /></g><g
           transform="translate(20.5823,36.9384)"
           id="g312"><path
             id="path314"
             style="fill:#ffffff;fill-opacity:1;fill-rule:nonzero;stroke:none"
             d="M 0,0 C -0.54,0.094 -0.687,-0.746 -0.146,-0.84 0.395,-0.933 0.541,-0.094 0,0" /></g><g
           transform="translate(23.0663,47.2663)"
           id="g316"><path
             id="path318"
             style="fill:#ffffff;fill-opacity:1;fill-rule:nonzero;stroke:none"
             d="M 0,0 C 1.164,0.103 2.19,1.087 2.245,2.266 2.271,2.807 1.431,2.959 1.405,2.411 1.354,1.31 0.24,0.575 -0.802,0.95 -1.924,1.355 -2.403,2.593 -2.171,3.701 -1.693,5.986 1.375,7.419 3.506,6.674 5.625,5.933 6.32,3.246 5.794,1.266 5.478,0.073 4.685,-0.822 3.624,-1.419 2.68,-1.951 1.602,-2.159 0.652,-2.667 c -0.887,-0.475 -1.448,-1.37 -1.216,-2.392 0.242,-1.067 1.302,-1.71 2.363,-1.53 0.538,0.091 0.46,0.94 -0.083,0.848 -0.702,-0.119 -1.409,0.268 -1.478,1.031 -0.068,0.759 0.53,1.194 1.156,1.455 1.136,0.473 2.317,0.788 3.327,1.528 2.032,1.488 2.608,4.34 1.651,6.618 C 5.944,5.91 5.208,6.819 4.199,7.306 3.035,7.868 1.667,7.79 0.467,7.387 -1.726,6.65 -3.874,4.32 -2.851,1.863 -2.388,0.752 -1.237,-0.109 0,0" /></g><g
           transform="translate(19.9805,42.6552)"
           id="g320"><path
             id="path322"
             style="fill:#ffffff;fill-opacity:1;fill-rule:nonzero;stroke:none"
             d="M 0,0 C 0.776,0.584 1.639,1.129 2.337,1.807 2.908,2.361 3.221,3.095 2.962,3.879 2.79,4.4 1.992,4.102 2.164,3.581 2.4,2.865 1.684,2.337 1.189,1.961 0.793,1.661 0.395,1.363 -0.003,1.064 -0.269,2.101 -0.428,3.423 0.656,3.951 1.145,4.188 0.853,4.99 0.358,4.749 -1.446,3.871 -1.12,1.788 -0.645,0.199 -0.567,-0.06 -0.209,-0.157 0,0" /></g><g
           transform="translate(20.8887,45.3623)"
           id="g324"><path
             id="path326"
             style="fill:#ffffff;fill-opacity:1;fill-rule:nonzero;stroke:none"
             d="M 0,0 C 0.54,-0.094 0.687,0.746 0.146,0.84 -0.395,0.933 -0.541,0.094 0,0" /></g><g
           transform="translate(22.8517,51.3655)"
           id="g328"><path
             id="path330"
             style="fill:#ffffff;fill-opacity:1;fill-rule:nonzero;stroke:none"
             d="M 0,0 C 0.54,-0.094 0.687,0.746 0.146,0.84 -0.395,0.933 -0.541,0.094 0,0" /></g><g
           transform="translate(24.4237,51.7851)"
           id="g332"><path
             id="path334"
             style="fill:#ffffff;fill-opacity:1;fill-rule:nonzero;stroke:none"
             d="M 0,0 C 0.54,-0.094 0.687,0.746 0.146,0.84 -0.395,0.933 -0.541,0.094 0,0" /></g><g
           transform="translate(26.4534,52.183)"
           id="g336"><path
             id="path338"
             style="fill:#ffffff;fill-opacity:1;fill-rule:nonzero;stroke:none"
             d="M 0,0 C -0.54,0.094 -0.687,-0.746 -0.146,-0.84 0.395,-0.933 0.541,-0.094 0,0" /></g><g
           transform="translate(31.2084,26.7614)"
           id="g340"><path
             id="path342"
             style="fill:#ffffff;fill-opacity:1;fill-rule:nonzero;stroke:none"
             d="m 0,0 c 0.325,-1.094 -0.341,-2.08 -0.998,-2.915 -0.946,0.569 -1.961,0.733 -3.089,0.616 -0.693,-0.072 -1.345,-0.086 -1.807,0.51 -0.348,0.449 -0.509,1.024 -0.663,1.562 C -6.708,0.3 -7.506,0 -7.356,-0.525 c 0.302,-1.055 0.763,-2.246 1.925,-2.578 0.667,-0.19 1.344,-0.021 2.019,0.01 0.815,0.038 1.592,-0.216 2.245,-0.699 0.182,-0.135 0.449,-0.138 0.601,0.051 0.936,1.166 1.827,2.483 1.365,4.039 C 0.642,0.824 -0.156,0.525 0,0" /></g><g
           transform="translate(26.8882,25.408)"
           id="g344"><path
             id="path346"
             style="fill:#ffffff;fill-opacity:1;fill-rule:nonzero;stroke:none"
             d="M 0,0 C 0.037,-0.006 0.075,-0.013 0.112,-0.019 0.332,-0.057 0.576,0.099 0.605,0.328 0.634,0.557 0.493,0.78 0.258,0.82 0.22,0.827 0.183,0.833 0.146,0.84 -0.074,0.878 -0.318,0.721 -0.347,0.493 -0.376,0.263 -0.235,0.041 0,0" /></g><g
           transform="translate(29.7173,25.9269)"
           id="g348"><path
             id="path350"
             style="fill:#ffffff;fill-opacity:1;fill-rule:nonzero;stroke:none"
             d="M 0,0 C 0.006,0.037 0.013,0.075 0.019,0.112 0.057,0.332 -0.099,0.576 -0.328,0.605 -0.557,0.634 -0.78,0.493 -0.82,0.258 -0.827,0.22 -0.833,0.183 -0.84,0.146 -0.878,-0.074 -0.721,-0.318 -0.493,-0.347 -0.263,-0.376 -0.041,-0.235 0,0" /></g><g
           transform="translate(27.092,42.5574)"
           id="g352"><path
             id="path354"
             style="fill:#ffffff;fill-opacity:1;fill-rule:nonzero;stroke:none"
             d="M 0,0 C 0.22,-0.038 0.464,0.119 0.493,0.347 0.522,0.576 0.381,0.799 0.146,0.84 0.108,0.846 0.071,0.853 0.034,0.859 -0.186,0.897 -0.43,0.741 -0.459,0.512 -0.488,0.283 -0.347,0.06 -0.112,0.019 -0.075,0.013 -0.037,0.006 0,0" /></g><g
           transform="translate(28.9798,44.1332)"
           id="g356"><path
             id="path358"
             style="fill:#ffffff;fill-opacity:1;fill-rule:nonzero;stroke:none"
             d="M 0,0 C -0.54,0.094 -0.687,-0.746 -0.146,-0.84 0.395,-0.933 0.541,-0.094 0,0" /></g><g
           transform="translate(30.6489,45.1127)"
           id="g360"><path
             id="path362"
             style="fill:#ffffff;fill-opacity:1;fill-rule:nonzero;stroke:none"
             d="M 0,0 C -0.54,0.094 -0.687,-0.746 -0.146,-0.84 0.395,-0.933 0.541,-0.094 0,0" /></g><g
           transform="translate(20.7344,40.9775)"
           id="g364"><path
             id="path366"
             style="fill:#ffffff;fill-opacity:1;fill-rule:nonzero;stroke:none"
             d="m 0,0 c -0.006,-0.037 -0.013,-0.075 -0.019,-0.112 -0.038,-0.22 0.118,-0.464 0.347,-0.493 0.229,-0.029 0.452,0.112 0.492,0.347 0.007,0.038 0.013,0.075 0.02,0.112 C 0.878,0.074 0.721,0.318 0.493,0.347 0.263,0.376 0.041,0.235 0,0" /></g><g
           transform="translate(18.984,39.695)"
           id="g368"><path
             id="path370"
             style="fill:#ffffff;fill-opacity:1;fill-rule:nonzero;stroke:none"
             d="M 0,0 C 0.54,-0.094 0.687,0.746 0.146,0.84 -0.395,0.933 -0.541,0.094 0,0" /></g><g
           transform="translate(33.746,53.8146)"
           id="g372"><path
             id="path374"
             style="fill:#ffffff;fill-opacity:1;fill-rule:nonzero;stroke:none"
             d="M 0,0 C 0.997,1.321 2.982,1.077 3.576,-0.49 3.77,-1.003 4.569,-0.707 4.374,-0.192 3.565,1.946 0.738,2.39 -0.652,0.55 -0.982,0.112 -0.331,-0.438 0,0" /></g><g
           transform="translate(43.7184,32.3165)"
           id="g376"><path
             id="path378"
             style="fill:#ffffff;fill-opacity:1;fill-rule:nonzero;stroke:none"
             d="m 0,0 c -0.172,0.034 -0.366,-0.014 -0.484,-0.197 -1.045,-1.637 -1.95,-3.639 -1.153,-5.571 0.717,-1.739 2.479,-2.327 4.227,-1.866 1.568,0.413 2.898,1.622 3.563,3.088 0.698,1.54 0.575,3.284 -0.082,4.816 -0.653,1.522 -1.745,2.789 -2.8,4.042 -1.227,1.456 -2.329,2.984 -3.155,4.706 -0.874,1.821 -1.494,3.787 -1.743,5.794 -0.228,1.842 -0.135,3.907 0.914,5.504 1.25,1.904 3.779,2.633 5.832,1.619 1.017,-0.503 1.89,-1.403 2.247,-2.493 C 7.72,18.357 7.373,16.879 6.056,16.72 5.513,16.654 5.592,15.805 6.139,15.871 8.058,16.104 8.72,18.196 8.132,19.828 7.507,21.567 5.836,22.871 4.031,23.181 2.212,23.493 0.296,22.809 -0.928,21.433 -2.162,20.045 -2.569,18.147 -2.575,16.337 -2.589,12.397 -0.919,8.359 1.421,5.245 3.344,2.688 6.86,-0.283 5.504,-3.889 4.81,-5.737 2.534,-7.588 0.457,-6.798 c -1.026,0.39 -1.525,1.513 -1.552,2.552 -0.03,1.166 0.508,2.261 1.108,3.246 -0.109,0.098 -0.219,0.195 -0.345,0.279 C -0.717,-0.467 -0.385,0.027 0,0" /></g><g
           transform="translate(47.1897,24.5978)"
           id="g380"><path
             id="path382"
             style="fill:#ffffff;fill-opacity:1;fill-rule:nonzero;stroke:none"
             d="m 0,0 c -0.54,0.097 -0.686,-0.742 -0.146,-0.84 2.21,-0.397 4.39,0.857 5.489,2.753 1.284,2.213 0.972,5.061 -0.091,7.29 -1.125,2.361 -2.987,4.156 -4.801,5.986 -1.613,1.628 -3.756,4.003 -3.009,6.514 0.395,1.327 1.891,1.963 3.061,1.114 C 1.602,22.019 1.3,20.326 0.224,19.671 -0.245,19.385 0.248,18.69 0.715,18.974 2.717,20.192 2.357,23.319 0.074,23.945 -1.005,24.24 -2.18,23.895 -2.858,22.989 -3.588,22.016 -3.67,20.7 -3.399,19.551 -2.803,17.015 -0.755,15.204 1.01,13.433 3.077,11.359 5.058,8.889 5.303,5.857 5.432,4.277 5.045,2.64 3.955,1.451 2.955,0.359 1.478,-0.266 0,0" /></g><g
           transform="translate(57.4627,29.415)"
           id="g384"><path
             id="path386"
             style="fill:#ffffff;fill-opacity:1;fill-rule:nonzero;stroke:none"
             d="m 0,0 c -0.065,0.763 -0.139,1.535 -0.515,2.218 -0.615,1.115 -2.113,1.663 -3.08,0.636 -0.377,-0.401 0.277,-0.948 0.652,-0.55 0.39,0.415 1.031,0.265 1.398,-0.1 0.42,-0.417 0.563,-1.048 0.633,-1.614 0.105,-0.844 0.174,-1.646 0.38,-2.441 -0.595,0.31 -1.131,0.713 -1.582,1.234 -0.357,0.411 -1.056,-0.076 -0.697,-0.491 0.761,-0.88 1.696,-1.533 2.805,-1.898 0.32,-0.106 0.744,0.157 0.581,0.534 C 0.228,-1.671 0.074,-0.865 0,0" /></g><g
           transform="translate(54.5247,25.5748)"
           id="g388"><path
             id="path390"
             style="fill:#ffffff;fill-opacity:1;fill-rule:nonzero;stroke:none"
             d="m 0,0 c 0.676,-1.22 0.566,-2.754 -0.255,-3.876 -0.355,-0.485 -0.765,-0.977 -0.992,-1.505 -0.169,0.172 -0.341,0.342 -0.51,0.519 -0.682,0.717 -1.006,1.652 -0.888,2.64 0.065,0.542 -0.775,0.691 -0.84,0.145 -0.112,-0.945 0.069,-1.884 0.576,-2.697 0.481,-0.773 1.431,-1.256 1.684,-2.158 0.003,0.002 0.006,0.003 0.008,0.005 0.017,-0.034 0.023,-0.067 0.043,-0.101 0.254,-0.447 0.87,-0.041 0.747,0.394 -0.026,0.095 -0.074,0.173 -0.111,0.259 -0.215,0.655 0.445,1.326 0.812,1.792 0.382,0.485 0.677,1.005 0.848,1.601 0.339,1.178 0.164,2.409 -0.425,3.473 C 0.431,0.971 -0.263,0.476 0,0" /></g><g
           transform="translate(53.1911,23.9641)"
           id="g392"><path
             id="path394"
             style="fill:#ffffff;fill-opacity:1;fill-rule:nonzero;stroke:none"
             d="M 0,0 C 0.54,-0.094 0.687,0.746 0.146,0.84 -0.395,0.933 -0.541,0.094 0,0" /></g><g
           transform="translate(55.319,30.919)"
           id="g396"><path
             id="path398"
             style="fill:#ffffff;fill-opacity:1;fill-rule:nonzero;stroke:none"
             d="M 0,0 C -0.54,0.094 -0.687,-0.746 -0.146,-0.84 0.395,-0.933 0.541,-0.094 0,0" /></g><g
           transform="translate(51.0178,42.1578)"
           id="g400"><path
             id="path402"
             style="fill:#ffffff;fill-opacity:1;fill-rule:nonzero;stroke:none"
             d="M 0,0 C 0.618,-1.284 1.71,-2.165 2.779,-3.059 3.29,-3.486 3.869,-4.024 3.716,-4.762 3.534,-5.635 2.613,-5.911 1.889,-5.506 1.41,-5.237 1.05,-6.01 1.526,-6.277 c 1.746,-0.979 3.759,0.899 2.83,2.7 C 3.898,-2.689 2.958,-2.148 2.24,-1.492 1.372,-0.701 0.622,0.247 0.441,1.439 0.124,3.531 1.382,6.053 3.502,6.665 5.715,7.304 8.354,5.243 8.71,3.057 8.916,1.796 8.361,0.384 7.042,0.023 5.778,-0.322 4.525,0.756 4.925,2.066 5.085,2.59 4.244,2.731 4.085,2.212 3.77,1.18 4.269,0.041 5.168,-0.526 6.09,-1.107 7.289,-0.969 8.173,-0.381 10.359,1.074 9.737,4.12 8.195,5.775 6.485,7.61 3.769,8.326 1.698,6.653 -0.186,5.132 -1.079,2.24 0,0" /></g><g
           transform="translate(58.5204,40.041)"
           id="g404"><path
             id="path406"
             style="fill:#ffffff;fill-opacity:1;fill-rule:nonzero;stroke:none"
             d="m 0,0 c 0.844,-0.862 0.249,-2.053 -0.35,-2.94 -0.274,0.415 -0.549,0.83 -0.821,1.246 -0.339,0.521 -0.838,1.257 -0.373,1.853 0.337,0.433 -0.314,0.983 -0.652,0.55 -0.508,-0.652 -0.46,-1.447 -0.108,-2.162 0.43,-0.874 1.058,-1.676 1.593,-2.488 0.144,-0.218 0.513,-0.248 0.674,-0.029 0.982,1.336 1.99,3.187 0.586,4.622 C 0.165,1.044 -0.381,0.389 0,0" /></g><g
           transform="translate(58.0104,39.7946)"
           id="g408"><path
             id="path410"
             style="fill:#ffffff;fill-opacity:1;fill-rule:nonzero;stroke:none"
             d="M 0,0 C -0.54,0.094 -0.687,-0.746 -0.146,-0.84 0.395,-0.933 0.541,-0.094 0,0" /></g><g
           transform="translate(58.1818,46.1083)"
           id="g412"><path
             id="path414"
             style="fill:#ffffff;fill-opacity:1;fill-rule:nonzero;stroke:none"
             d="M 0,0 C -0.54,0.094 -0.687,-0.746 -0.146,-0.84 0.395,-0.933 0.541,-0.094 0,0" /></g><g
           transform="translate(56.697,46.1926)"
           id="g416"><path
             id="path418"
             style="fill:#ffffff;fill-opacity:1;fill-rule:nonzero;stroke:none"
             d="M 0,0 C 0.54,-0.094 0.687,0.746 0.146,0.84 -0.395,0.933 -0.541,0.094 0,0" /></g><g
           transform="translate(54.9196,47.2502)"
           id="g420"><path
             id="path422"
             style="fill:#ffffff;fill-opacity:1;fill-rule:nonzero;stroke:none"
             d="M 0,0 C -0.54,0.094 -0.687,-0.746 -0.146,-0.84 0.395,-0.933 0.541,-0.094 0,0" /></g><g
           transform="translate(47.9865,22.4905)"
           id="g424"><path
             id="path426"
             style="fill:#ffffff;fill-opacity:1;fill-rule:nonzero;stroke:none"
             d="m 0,0 c -0.312,-0.435 -0.64,-0.898 -1.087,-1.206 -0.651,-0.448 -1.275,-0.231 -1.936,0.086 -1.023,0.49 -2.034,0.677 -3.116,0.46 -0.338,1.008 -0.634,2.159 0.041,3.08 0.323,0.441 -0.327,0.993 -0.652,0.55 -0.959,-1.31 -0.563,-2.851 -0.074,-4.263 0.079,-0.228 0.332,-0.316 0.548,-0.251 0.741,0.225 1.533,0.221 2.259,-0.058 0.663,-0.255 1.261,-0.679 1.989,-0.727 1.206,-0.079 2.041,0.888 2.68,1.78 C 0.97,-0.106 0.32,0.446 0,0" /></g><g
           transform="translate(45.501,22.1826)"
           id="g428"><path
             id="path430"
             style="fill:#ffffff;fill-opacity:1;fill-rule:nonzero;stroke:none"
             d="M 0,0 C 0.22,-0.038 0.464,0.119 0.493,0.347 0.522,0.576 0.381,0.799 0.146,0.84 0.108,0.846 0.071,0.853 0.034,0.859 -0.186,0.897 -0.43,0.741 -0.459,0.512 -0.488,0.283 -0.347,0.06 -0.112,0.019 -0.075,0.013 -0.037,0.006 0,0" /></g><g
           transform="translate(43.8513,23.4777)"
           id="g432"><path
             id="path434"
             style="fill:#ffffff;fill-opacity:1;fill-rule:nonzero;stroke:none"
             d="M 0,0 C 0.006,0.037 0.013,0.075 0.019,0.112 0.057,0.332 -0.099,0.576 -0.328,0.605 -0.557,0.634 -0.78,0.493 -0.82,0.257 -0.827,0.22 -0.833,0.183 -0.84,0.146 -0.878,-0.074 -0.721,-0.318 -0.493,-0.347 -0.263,-0.376 -0.041,-0.235 0,0" /></g><g
           transform="translate(51.1914,38.3812)"
           id="g436"><path
             id="path438"
             style="fill:#ffffff;fill-opacity:1;fill-rule:nonzero;stroke:none"
             d="M 0,0 C 0.22,-0.038 0.464,0.119 0.493,0.347 0.522,0.576 0.381,0.799 0.146,0.84 0.108,0.846 0.071,0.853 0.034,0.859 -0.186,0.897 -0.43,0.741 -0.459,0.512 -0.488,0.283 -0.347,0.06 -0.112,0.019 -0.075,0.013 -0.037,0.006 0,0" /></g><g
           transform="translate(49.832,40.5198)"
           id="g440"><path
             id="path442"
             style="fill:#ffffff;fill-opacity:1;fill-rule:nonzero;stroke:none"
             d="M 0,0 C -0.54,0.094 -0.687,-0.746 -0.146,-0.84 0.395,-0.933 0.541,-0.094 0,0" /></g><g
           transform="translate(48.4443,41.164)"
           id="g444"><path
             id="path446"
             style="fill:#ffffff;fill-opacity:1;fill-rule:nonzero;stroke:none"
             d="M 0,0 C 0.54,-0.094 0.687,0.746 0.146,0.84 -0.395,0.933 -0.541,0.094 0,0" /></g><g
           transform="translate(56.5154,34.6618)"
           id="g448"><path
             id="path450"
             style="fill:#ffffff;fill-opacity:1;fill-rule:nonzero;stroke:none"
             d="M 0,0 C 0.006,0.037 0.013,0.075 0.019,0.112 0.057,0.332 -0.099,0.576 -0.328,0.605 -0.557,0.634 -0.78,0.493 -0.82,0.258 -0.827,0.22 -0.833,0.183 -0.84,0.146 -0.878,-0.074 -0.721,-0.318 -0.493,-0.347 -0.263,-0.376 -0.041,-0.235 0,0" /></g><g
           transform="translate(57.8972,33.8169)"
           id="g452"><path
             id="path454"
             style="fill:#ffffff;fill-opacity:1;fill-rule:nonzero;stroke:none"
             d="M 0,0 C -0.54,0.094 -0.687,-0.746 -0.146,-0.84 0.395,-0.933 0.541,-0.094 0,0" /></g><g
           transform="translate(45.0691,51.9819)"
           id="g456"><path
             id="path458"
             style="fill:#ffffff;fill-opacity:1;fill-rule:nonzero;stroke:none"
             d="M 0,0 C 1.086,1.276 3.038,0.839 3.532,-0.741 3.696,-1.265 4.494,-0.966 4.331,-0.443 3.642,1.758 0.83,2.291 -0.652,0.549 -1.008,0.131 -0.356,-0.418 0,0" /></g><g
           transform="translate(29.1488,29.8659)"
           id="g460"><path
             id="path462"
             style="fill:#ffffff;fill-opacity:1;fill-rule:nonzero;stroke:none"
             d="m 0,0 c -0.084,0.302 -0.117,0.604 -0.126,0.904 -0.403,0.306 -0.705,0.731 -0.814,1.247 -0.165,0.781 0.18,1.507 0.713,2.064 0.578,0.603 1.344,0.978 2.086,1.334 0.74,0.356 1.473,0.72 2.18,1.137 2.772,1.637 5.115,4.008 6.077,7.137 0.161,0.523 -0.68,0.664 -0.84,0.146 C 8.139,10.27 4.893,7.949 1.561,6.348 0.153,5.672 -1.435,4.788 -1.781,3.118 -2.07,1.726 -1.2,0.263 0.121,-0.213 0.136,-0.218 0.15,-0.216 0.164,-0.219 0.092,-0.176 0.03,-0.109 0,0" /></g><g
           transform="translate(31.9492,34.3529)"
           id="g464"><path
             id="path466"
             style="fill:#ffffff;fill-opacity:1;fill-rule:nonzero;stroke:none"
             d="m 0,0 c -0.074,0.024 -0.154,0.035 -0.243,0.013 -1.707,-0.419 -2.735,-1.946 -2.683,-3.596 0.009,-0.3 0.042,-0.602 0.126,-0.904 0.03,-0.109 0.092,-0.176 0.164,-0.219 0.276,-0.168 0.75,0.1 0.634,0.517 -0.394,1.421 0.371,2.757 1.672,3.269 0.125,0.05 0.25,0.102 0.385,0.135 C 0.496,-0.677 0.359,-0.116 0,0" /></g><g
           transform="translate(36.8359,37.7957)"
           id="g468"><path
             id="path470"
             style="fill:#ffffff;fill-opacity:1;fill-rule:nonzero;stroke:none"
             d="m 0,0 c -0.95,-1.179 -2.083,-2.155 -3.387,-2.924 -0.203,-0.12 -0.221,-0.414 -0.103,-0.594 0.908,-1.381 0.979,-3.137 0.217,-4.598 -0.253,-0.488 0.519,-0.849 0.772,-0.364 0.832,1.599 0.779,3.504 -0.075,5.068 1.226,0.773 2.317,1.731 3.228,2.863 C 0.996,-0.122 0.345,0.428 0,0" /></g><g
           transform="translate(39.9542,43.5699)"
           id="g472"><path
             id="path474"
             style="fill:#ffffff;fill-opacity:1;fill-rule:nonzero;stroke:none"
             d="m 0,0 c -0.147,-3.269 1.26,-6.295 3.321,-8.766 0.506,-0.605 1.048,-1.177 1.603,-1.736 0.58,-0.585 1.188,-1.191 1.547,-1.945 0.34,-0.717 0.452,-1.564 0.013,-2.265 -0.281,-0.448 -0.705,-0.748 -1.186,-0.901 -0.11,-0.279 -0.242,-0.552 -0.423,-0.808 -0.065,-0.093 -0.146,-0.135 -0.228,-0.152 0.015,-0.001 0.026,-0.008 0.042,-0.008 1.402,0.004 2.72,1.089 2.913,2.497 0.231,1.691 -0.96,3.052 -2.061,4.166 C 2.942,-7.29 0.666,-4.012 0.84,-0.146 0.864,0.395 0.025,0.547 0,0" /></g><g
           transform="translate(45.252,27.9573)"
           id="g476"><path
             id="path478"
             style="fill:#ffffff;fill-opacity:1;fill-rule:nonzero;stroke:none"
             d="M 0,0 C 0.604,1.537 0.149,3.32 -1.316,4.29 -1.388,4.337 -1.461,4.354 -1.534,4.359 -1.918,4.386 -2.25,3.892 -1.866,3.638 -1.74,3.554 -1.63,3.457 -1.52,3.359 c 1.029,-0.922 1.288,-2.423 0.446,-3.618 -0.25,-0.354 0.107,-0.766 0.423,-0.701 0.082,0.017 0.163,0.059 0.228,0.151 C -0.242,-0.552 -0.11,-0.279 0,0" /></g><g
           transform="translate(42.361,32.7151)"
           id="g480"><path
             id="path482"
             style="fill:#ffffff;fill-opacity:1;fill-rule:nonzero;stroke:none"
             d="m 0,0 c 0.173,0.13 0.254,0.412 0.103,0.594 -0.969,1.163 -1.708,2.463 -2.205,3.893 -0.181,0.519 -0.98,0.221 -0.799,-0.298 0.477,-1.372 1.182,-2.641 2.076,-3.781 -1.33,-1.186 -2.021,-2.962 -1.775,-4.747 0.075,-0.542 0.924,-0.463 0.848,0.082 C -1.977,-2.625 -1.32,-0.995 0,0" /></g><g
           transform="translate(35.4167,33.4966)"
           id="g484"><path
             id="path486"
             style="fill:#ffffff;fill-opacity:1;fill-rule:nonzero;stroke:none"
             d="M 0,0 C 1.438,-0.798 3.099,-1.071 4.717,-0.772 5.252,-0.673 5.175,0.177 4.634,0.077 3.15,-0.198 1.684,0.039 0.364,0.771 -0.117,1.038 -0.477,0.265 0,0" /></g><g
           transform="translate(37.4173,29.0352)"
           id="g488"><path
             id="path490"
             style="fill:#ffffff;fill-opacity:1;fill-rule:nonzero;stroke:none"
             d="M 0,0 C 0.539,0.741 1.154,1.401 1.865,1.978 2.289,2.323 1.801,3.022 1.374,2.675 0.778,2.191 0.254,1.642 -0.231,1.053 -0.539,1.691 -0.869,2.317 -1.243,2.92 -1.533,3.387 -2.228,2.894 -1.94,2.429 -1.48,1.689 -1.077,0.923 -0.725,0.126 -0.605,-0.146 -0.2,-0.275 0,0" /></g><g
           transform="translate(38.2064,35.8556)"
           id="g492"><path
             id="path494"
             style="fill:#ffffff;fill-opacity:1;fill-rule:nonzero;stroke:none"
             d="M 0,0 C -0.54,0.094 -0.687,-0.746 -0.146,-0.84 0.395,-0.933 0.541,-0.094 0,0" /></g><g
           transform="translate(26.2877,57.4488)"
           id="g496"><path
             id="path498"
             style="fill:#ffffff;fill-opacity:1;fill-rule:nonzero;stroke:none"
             d="m 0,0 c 1.064,-0.674 2.285,-0.935 3.535,-0.915 0.548,0.009 0.463,0.857 -0.083,0.849 -1.242,-0.021 -2.356,0.325 -3.373,1.032 -0.66,0.458 -1.312,0.927 -1.965,1.394 0.663,0.07 1.317,0.212 1.965,0.411 0.557,0.171 1.104,0.371 1.653,0.567 0.611,0.219 1.282,0.536 1.944,0.487 0.542,-0.04 0.693,0.8 0.145,0.84 C 2.68,4.75 1.574,4.176 0.518,3.812 -0.647,3.41 -1.849,3.069 -3.093,3.166 -3.471,3.196 -3.82,2.69 -3.441,2.421 -2.3,1.611 -1.182,0.748 0,0" /></g><g
           transform="translate(29.8662,59.8293)"
           id="g500"><path
             id="path502"
             style="fill:#ffffff;fill-opacity:1;fill-rule:nonzero;stroke:none"
             d="m 0,0 c -0.229,0.029 -0.452,-0.112 -0.493,-0.347 -0.004,-0.025 -0.008,-0.05 -0.013,-0.075 -0.038,-0.219 0.119,-0.463 0.348,-0.492 0.229,-0.03 0.451,0.111 0.492,0.347 0.005,0.025 0.009,0.049 0.013,0.074 C 0.385,-0.273 0.229,-0.029 0,0" /></g><g
           transform="translate(25.6284,62.4487)"
           id="g504"><path
             id="path506"
             style="fill:#ffffff;fill-opacity:1;fill-rule:nonzero;stroke:none"
             d="M 0,0 C 0.527,-0.149 0.669,0.692 0.146,0.84 -0.49,1.019 -0.997,1.437 -1.342,1.993 -1.631,2.46 -2.327,1.967 -2.038,1.502 -1.569,0.745 -0.851,0.24 0,0" /></g><g
           transform="translate(22.844,55.6935)"
           id="g508"><path
             id="path510"
             style="fill:#ffffff;fill-opacity:1;fill-rule:nonzero;stroke:none"
             d="M 0,0 C 0.452,0.317 0.954,0.465 1.505,0.468 2.052,0.471 1.968,1.319 1.422,1.317 0.733,1.313 0.072,1.091 -0.491,0.697 -0.941,0.382 -0.45,-0.315 0,0" /></g><g
           transform="translate(53.3203,51.7307)"
           id="g512"><path
             id="path514"
             style="fill:#ffffff;fill-opacity:1;fill-rule:nonzero;stroke:none"
             d="M 0,0 C 1.142,-0.085 2.247,0.489 3.304,0.854 4.468,1.255 5.67,1.596 6.914,1.499 7.292,1.469 7.641,1.976 7.262,2.245 6.122,3.054 5.003,3.917 3.821,4.665 2.757,5.339 1.537,5.6 0.286,5.58 -0.261,5.571 -0.177,4.723 0.369,4.732 1.611,4.752 2.725,4.406 3.742,3.699 4.402,3.241 5.054,2.772 5.708,2.306 5.045,2.235 4.391,2.093 3.742,1.894 3.185,1.723 2.638,1.523 2.09,1.327 1.478,1.108 0.808,0.791 0.146,0.84 -0.396,0.88 -0.547,0.041 0,0" /></g><g
           transform="translate(53.563,54.0153)"
           id="g516"><path
             id="path518"
             style="fill:#ffffff;fill-opacity:1;fill-rule:nonzero;stroke:none"
             d="M 0,0 C 0.229,-0.029 0.452,0.112 0.493,0.347 0.497,0.372 0.501,0.397 0.506,0.422 0.544,0.641 0.387,0.885 0.158,0.914 -0.071,0.944 -0.293,0.803 -0.334,0.567 -0.339,0.542 -0.343,0.518 -0.347,0.493 -0.385,0.273 -0.229,0.029 0,0" /></g><g
           transform="translate(57.8008,51.3959)"
           id="g520"><path
             id="path522"
             style="fill:#ffffff;fill-opacity:1;fill-rule:nonzero;stroke:none"
             d="M 0,0 C -0.527,0.149 -0.669,-0.692 -0.146,-0.84 0.49,-1.019 0.997,-1.437 1.342,-1.992 1.631,-2.46 2.327,-1.967 2.038,-1.502 1.569,-0.745 0.851,-0.24 0,0" /></g><g
           transform="translate(59.1633,56.8347)"
           id="g524"><path
             id="path526"
             style="fill:#ffffff;fill-opacity:1;fill-rule:nonzero;stroke:none"
             d="M 0,0 C 0.689,0.004 1.35,0.225 1.913,0.62 2.363,0.935 1.872,1.632 1.422,1.317 0.97,1 0.468,0.851 -0.083,0.848 -0.631,0.846 -0.546,-0.003 0,0" /></g><g
           transform="translate(39.5574,26.77)"
           id="g528"><path
             id="path530"
             style="fill:#ffffff;fill-opacity:1;fill-rule:nonzero;stroke:none"
             d="m 0,0 c -0.619,-1.365 -1.513,-2.688 -3.223,-2.412 -1.529,0.248 -2.463,1.7 -2.462,3.171 10e-4,0.548 -0.847,0.463 -0.848,-0.083 -0.002,-1.852 1.289,-3.612 3.165,-3.928 0.859,-0.144 1.785,0.049 2.5,0.553 0.8,0.565 1.245,1.468 1.639,2.335 C 0.998,0.136 0.227,0.5 0,0" /></g><g
           transform="translate(36.523,26.3632)"
           id="g532"><path
             id="path534"
             style="fill:#ffffff;fill-opacity:1;fill-rule:nonzero;stroke:none"
             d="M 0,0 C 0.54,-0.094 0.687,0.746 0.146,0.84 -0.395,0.933 -0.541,0.094 0,0" /></g></g></g></g></svg>