<?xml version="1.0" encoding="UTF-8" standalone="no"?>
<svg
   xmlns:dc="http://purl.org/dc/elements/1.1/"
   xmlns:cc="http://creativecommons.org/ns#"
   xmlns:rdf="http://www.w3.org/1999/02/22-rdf-syntax-ns#"
   xmlns:svg="http://www.w3.org/2000/svg"
   xmlns="http://www.w3.org/2000/svg"
   viewBox="0 0 83.89225 76.625"
   height="76.625"
   width="83.89225"
   xml:space="preserve"
   version="1.1"
   id="svg2"><metadata
     id="metadata8"><rdf:RDF><cc:Work
         rdf:about=""><dc:format>image/svg+xml</dc:format><dc:type
           rdf:resource="http://purl.org/dc/dcmitype/StillImage" /></cc:Work></rdf:RDF></metadata><defs
     id="defs6"><clipPath
       id="clipPath16"
       clipPathUnits="userSpaceOnUse"><path
         id="path18"
         d="m 0,61.3 67.114,0 0,-61.3 L 0,0 0,61.3 Z" /></clipPath></defs><g
     transform="matrix(1.25,0,0,-1.25,0,76.625)"
     id="g10"><g
       id="g12"><g
         clip-path="url(#clipPath16)"
         id="g14"><g
           transform="translate(15.9297,27.7671)"
           id="g20"><path
             id="path22"
             style="fill:#852637;fill-opacity:1;fill-rule:nonzero;stroke:none"
             d="M 0,0 C -0.549,0 -0.548,0.852 0,0.852 0.549,0.852 0.548,0 0,0 m -3.357,-2.601 c 0.497,0.759 0.785,1.558 1.012,2.431 0.185,0.709 0.397,1.423 0.862,2.004 0.796,0.993 2.367,1.278 3.144,0.1 C 1.964,1.475 1.225,1.048 0.925,1.504 0.583,2.022 -0.127,1.923 -0.551,1.578 -0.985,1.223 -1.21,0.685 -1.37,0.162 c -0.247,-0.813 -0.452,-1.593 -0.791,-2.34 0.639,0.204 1.236,0.509 1.77,0.945 0.421,0.345 1.027,-0.255 0.603,-0.603 -0.901,-0.736 -1.933,-1.22 -3.088,-1.391 -0.335,-0.049 -0.708,0.28 -0.481,0.626 m 1.311,5.897 c -0.549,0 -0.548,0.852 0,0.852 0.55,0 0.549,-0.852 0,-0.852 m 2.358,1.562 0,-0.114 C 0.312,4.506 0.117,4.329 -0.114,4.318 -0.344,4.308 -0.54,4.522 -0.54,4.744 l 0,0.114 c 0,0.239 0.195,0.416 0.426,0.426 0.231,0.011 0.426,-0.203 0.426,-0.426 m -2.339,6.265 c 0.446,0.321 0.871,-0.418 0.43,-0.736 -0.979,-0.705 -0.596,-1.98 -0.157,-2.957 0.341,0.363 0.682,0.724 1.021,1.088 0.424,0.455 1.04,1.097 0.685,1.762 -0.259,0.484 0.477,0.914 0.736,0.43 C 1.077,9.982 0.893,9.205 0.425,8.562 -0.147,7.775 -0.904,7.091 -1.569,6.382 -1.748,6.192 -2.117,6.226 -2.238,6.469 c -0.74,1.484 -1.417,3.48 0.211,4.654 m 0.891,-1.918 c -0.55,0 -0.549,0.852 0,0.852 0.549,0 0.548,-0.852 0,-0.852 m 0.909,6.25 c -0.55,0 -0.549,0.852 0,0.852 0.549,0 0.548,-0.852 0,-0.852 m 1.477,0.682 c -0.549,0 -0.548,0.852 0,0.852 0.549,0 0.548,-0.852 0,-0.852 m 1.932,0.739 c 0.549,0 0.548,-0.853 0,-0.853 -0.549,0 -0.549,0.853 0,0.853 m -3.299,1.934 c 1.114,0.603 2.448,0.914 3.691,0.559 C 4.651,19.061 5.532,18.291 6.128,17.36 7.46,15.278 7.379,12.371 5.63,10.557 4.762,9.656 3.652,9.144 2.613,8.483 2.042,8.119 1.526,7.589 1.723,6.852 1.921,6.112 2.684,5.852 3.356,6.089 3.875,6.273 4.096,5.449 3.582,5.268 2.567,4.909 1.413,5.362 0.993,6.371 0.589,7.339 0.989,8.317 1.782,8.936 c 0.849,0.663 1.876,1.052 2.715,1.737 0.943,0.77 1.572,1.787 1.68,3.016 0.18,2.041 -0.964,4.57 -3.178,4.938 -2.226,0.37 -5.005,-1.565 -5.086,-3.898 -0.039,-1.132 0.644,-2.27 1.819,-2.477 1.091,-0.192 2.062,0.723 1.925,1.817 -0.068,0.543 0.785,0.537 0.852,0 0.147,-1.171 -0.695,-2.317 -1.825,-2.616 -1.2,-0.319 -2.481,0.332 -3.127,1.348 -1.428,2.247 0.292,4.909 2.326,6.009 m 0.546,1.626 c -0.542,-0.097 -1.011,-0.328 -1.403,-0.718 -0.389,-0.387 -0.992,0.215 -0.603,0.603 0.488,0.485 1.101,0.816 1.779,0.937 0.538,0.096 0.766,-0.725 0.227,-0.822 m -1.898,4.191 c 1.243,0.117 2.369,0.658 3.448,1.253 0.979,0.539 1.97,1.293 3.109,1.405 0.547,0.053 0.541,-0.8 0,-0.853 C 4.428,26.368 3.821,25.941 3.256,25.621 2.749,25.334 2.244,25.043 1.725,24.78 1.119,24.472 0.499,24.221 -0.142,24.039 c 0.724,-0.349 1.446,-0.7 2.174,-1.038 1.124,-0.523 2.28,-0.673 3.5,-0.441 0.537,0.102 0.765,-0.72 0.227,-0.822 -1.229,-0.234 -2.476,-0.184 -3.639,0.298 -1.292,0.535 -2.542,1.195 -3.804,1.797 -0.419,0.201 -0.162,0.759 0.215,0.794 m 0.423,3.957 c 0.435,-0.489 1.006,-0.814 1.662,-0.882 0.541,-0.056 0.545,-0.909 0,-0.852 -0.879,0.091 -1.673,0.466 -2.264,1.131 -0.364,0.409 0.237,1.014 0.602,0.603 m 6.711,-4.018 0,-0.076 c 0,-0.239 -0.195,-0.415 -0.426,-0.426 -0.23,-0.01 -0.426,0.203 -0.426,0.426 l 0,0.076 c 0,0.239 0.195,0.416 0.426,0.426 0.23,0.011 0.426,-0.203 0.426,-0.426 m 1.81,-2.764 c 1.3,1.601 3.528,2.326 5.52,1.8 1.794,-0.474 3.202,-1.832 3.801,-3.577 0.607,-1.768 0.389,-3.752 -0.122,-5.515 C 15.571,10.706 13.201,7.363 10.208,4.81 8.903,3.697 7.475,2.63 6.512,1.186 5.495,-0.341 5.162,-2.206 6.003,-3.893 c 0.78,-1.566 3.005,-3.322 4.783,-2.186 1.846,1.179 1.355,3.598 0.687,5.362 -1.194,-0.727 -1.72,-2.174 -1.089,-3.507 0.186,-0.391 -0.236,-0.735 -0.536,-0.618 -0.016,10e-4 -0.028,-0.004 -0.044,-0.001 -1.383,0.244 -2.49,1.537 -2.443,2.958 0.055,1.704 1.47,2.846 2.742,3.753 3.009,2.146 5.811,4.987 6.3,8.826 0.069,0.538 0.922,0.543 0.853,0 C 16.841,7.446 14.938,4.71 12.486,2.624 11.861,2.092 11.201,1.608 10.533,1.132 9.862,0.654 9.171,0.153 8.705,-0.539 c -0.43,-0.64 -0.646,-1.415 -0.35,-2.156 0.196,-0.489 0.566,-0.857 1.015,-1.09 -0.333,1.618 0.42,3.297 2.029,4.002 0.085,0.037 0.166,0.039 0.242,0.029 0.184,0.013 0.382,-0.063 0.471,-0.274 0.824,-1.967 1.371,-4.376 -0.164,-6.156 -1.377,-1.598 -3.664,-1.195 -5.168,-0.003 -1.271,1.006 -2.077,2.597 -2.125,4.219 -0.05,1.671 0.744,3.233 1.801,4.479 1.079,1.273 2.44,2.26 3.681,3.364 1.48,1.316 2.762,2.844 3.786,4.54 1.027,1.7 1.854,3.58 2.219,5.541 0.345,1.845 0.223,3.978 -1.095,5.437 -1.354,1.501 -3.579,1.962 -5.399,1.062 -0.914,-0.452 -1.753,-1.221 -2.1,-2.2 -0.339,-0.957 -0.06,-2.177 1.009,-2.498 0.525,-0.158 0.3,-0.981 -0.227,-0.822 -0.912,0.274 -1.57,1.052 -1.738,1.989 -0.186,1.041 0.234,2.078 0.883,2.878 M 17.55,1.942 c -0.549,0 -0.548,0.853 0,0.853 0.549,0 0.549,-0.853 0,-0.853 m 1.257,8.752 c 0.49,-3.839 3.291,-6.68 6.301,-8.826 1.275,-0.91 2.681,-2.047 2.742,-3.753 0.05,-1.421 -1.063,-2.715 -2.443,-2.958 -0.016,-0.003 -0.029,0.002 -0.044,0.001 -0.3,-0.118 -0.722,0.227 -0.537,0.618 0.626,1.322 0.115,2.757 -1.057,3.49 -0.423,-1.073 -0.766,-2.244 -0.537,-3.388 0.204,-1.019 0.887,-2.04 1.965,-2.25 2.181,-0.423 4.107,1.789 4.476,3.729 0.72,3.784 -3.252,6.111 -5.583,8.303 -2.838,2.668 -5.172,6.361 -5.831,10.246 -0.303,1.784 -0.226,3.724 0.753,5.302 0.97,1.565 2.742,2.566 4.587,2.569 1.832,0.003 3.7,-0.996 4.614,-2.603 0.857,-1.508 0.563,-3.682 -1.289,-4.239 -0.527,-0.159 -0.75,0.664 -0.226,0.822 1.27,0.382 1.36,1.897 0.825,2.906 -0.537,1.013 -1.551,1.751 -2.639,2.072 -2.196,0.649 -4.563,-0.501 -5.47,-2.591 -0.76,-1.752 -0.5,-3.803 0.039,-5.578 0.588,-1.936 1.535,-3.766 2.707,-5.412 1.108,-1.555 2.455,-2.873 3.912,-4.098 1.254,-1.055 2.546,-2.117 3.449,-3.505 0.909,-1.397 1.328,-3.094 0.903,-4.731 -0.404,-1.558 -1.509,-2.976 -2.983,-3.651 -1.644,-0.753 -3.48,-0.474 -4.484,1.116 -1.115,1.769 -0.565,3.896 0.186,5.687 0.084,0.2 0.267,0.28 0.442,0.277 0.072,0.007 0.148,0.003 0.226,-0.032 1.61,-0.705 2.362,-2.384 2.03,-4.002 0.448,0.233 0.814,0.601 1.014,1.09 0.314,0.766 0.059,1.582 -0.399,2.23 -0.482,0.681 -1.184,1.175 -1.856,1.652 -0.643,0.456 -1.274,0.927 -1.876,1.437 -2.452,2.083 -4.355,4.824 -4.769,8.07 -0.069,0.544 0.784,0.537 0.852,0 m 13.265,5.329 c -0.549,0 -0.548,0.853 0,0.853 0.55,0 0.549,-0.853 0,-0.853 m 3.41,0.284 c 0.549,0 0.548,-0.852 0,-0.852 -0.55,0 -0.549,0.852 0,0.852 m -1.478,0.682 c 0.55,0 0.549,-0.852 0,-0.852 -0.549,0 -0.548,0.852 0,0.852 m -4.37,1.048 c 1.756,2.002 4.554,1.76 6.552,0.244 1.802,-1.367 2.935,-4.263 1.03,-6.069 -0.771,-0.73 -1.929,-1.071 -2.936,-0.656 -0.984,0.405 -1.669,1.442 -1.535,2.513 0.067,0.538 0.92,0.543 0.852,0 -0.17,-1.36 1.248,-2.209 2.435,-1.652 1.238,0.581 1.543,2.067 1.126,3.274 -0.725,2.093 -3.676,3.673 -5.749,2.666 -1.983,-0.965 -2.793,-3.665 -2.123,-5.672 0.382,-1.144 1.283,-1.949 2.273,-2.581 0.82,-0.523 1.838,-0.896 2.441,-1.693 1.223,-1.616 -0.44,-3.81 -2.328,-3.143 -0.514,0.181 -0.291,1.004 0.227,0.821 0.782,-0.276 1.643,0.154 1.672,1.045 0.025,0.753 -0.637,1.184 -1.213,1.518 -1.206,0.699 -2.432,1.38 -3.261,2.54 -1.445,2.023 -1.059,5.024 0.537,6.845 m -0.48,5.699 0,0.076 c 0,0.238 0.196,0.415 0.427,0.426 0.23,0.01 0.426,-0.204 0.426,-0.426 l 0,-0.076 c 0,-0.239 -0.195,-0.416 -0.426,-0.426 -0.231,-0.011 -0.427,0.203 -0.427,0.426 m 6.712,-4.018 c -0.435,0.489 -1.006,0.814 -1.663,0.882 -0.541,0.056 -0.545,0.909 0,0.852 0.88,-0.091 1.674,-0.466 2.265,-1.131 0.364,-0.409 -0.237,-1.014 -0.602,-0.603 m -6.805,6.846 c 1.228,0.234 2.475,0.184 3.639,-0.298 1.292,-0.535 2.542,-1.195 3.804,-1.797 0.419,-0.201 0.162,-0.759 -0.215,-0.794 -1.243,-0.117 -2.37,-0.658 -3.448,-1.253 -0.979,-0.539 -1.97,-1.293 -3.109,-1.405 -0.547,-0.053 -0.541,0.799 0,0.852 0.66,0.065 1.267,0.492 1.832,0.812 0.507,0.287 1.012,0.578 1.531,0.841 0.605,0.308 1.225,0.559 1.867,0.741 -0.724,0.349 -1.447,0.699 -2.175,1.038 -1.123,0.523 -2.279,0.673 -3.499,0.441 -0.537,-0.102 -0.765,0.72 -0.227,0.822 m 5.33,1.302 c 0.542,0.097 1.011,0.328 1.403,0.718 0.389,0.387 0.992,-0.216 0.602,-0.603 -0.487,-0.485 -1.1,-0.816 -1.779,-0.937 -0.537,-0.096 -0.765,0.725 -0.226,0.822 m 2,-17.809 c 0.549,0 0.548,-0.852 0,-0.852 -0.55,0 -0.549,0.852 0,0.852 m 1.102,-3.588 c -0.121,-0.243 -0.491,-0.277 -0.67,-0.087 -0.665,0.709 -1.421,1.392 -1.994,2.18 -0.469,0.644 -0.652,1.419 -0.262,2.148 0.259,0.485 0.994,0.054 0.736,-0.43 -0.357,-0.667 0.26,-1.307 0.684,-1.762 0.339,-0.364 0.68,-0.726 1.021,-1.088 0.439,0.977 0.822,2.252 -0.157,2.957 -0.441,0.318 -0.015,1.057 0.43,0.736 1.628,-1.174 0.952,-3.17 0.212,-4.654 M 37.3,4.148 c 0.549,0 0.548,-0.852 0,-0.852 -0.549,0 -0.549,0.852 0,0.852 m -2.358,0.596 0,0.114 c 0,0.239 0.195,0.416 0.426,0.426 0.23,0.011 0.426,-0.203 0.426,-0.426 l 0,-0.114 c 0,-0.238 -0.195,-0.415 -0.426,-0.426 -0.23,-0.01 -0.426,0.204 -0.426,0.426 m 0.312,-3.892 c 0.55,0 0.549,-0.852 0,-0.852 -0.549,0 -0.548,0.852 0,0.852 m 2.877,-4.079 c -1.155,0.171 -2.188,0.655 -3.088,1.391 -0.425,0.348 0.181,0.948 0.602,0.603 0.534,-0.436 1.131,-0.741 1.77,-0.945 -0.339,0.747 -0.543,1.526 -0.791,2.34 -0.166,0.545 -0.414,1.143 -0.899,1.482 -0.424,0.297 -1.082,0.335 -1.395,-0.14 -0.301,-0.456 -1.039,-0.029 -0.736,0.43 0.777,1.178 2.347,0.893 3.143,-0.1 0.488,-0.608 0.692,-1.357 0.886,-2.098 0.221,-0.84 0.511,-1.607 0.989,-2.337 0.225,-0.344 -0.148,-0.675 -0.481,-0.626 m -3.786,-2.285 c 0.55,0 0.549,-0.852 0,-0.852 -0.549,0 -0.548,0.852 0,0.852 m 2.654,-1.783 c -0.067,-0.617 -0.269,-1.18 -0.562,-1.723 -0.282,-0.522 -0.819,-1.296 -0.494,-1.905 0.051,-0.078 0.111,-0.147 0.154,-0.235 0.194,-0.408 -0.343,-0.913 -0.67,-0.517 -0.025,0.031 -0.036,0.062 -0.059,0.092 -0.002,-10e-4 -0.005,-0.003 -0.007,-0.005 -0.404,0.845 -1.422,1.159 -2.028,1.838 -0.638,0.715 -0.977,1.609 -1.028,2.56 -0.029,0.549 0.824,0.545 0.853,0 0.052,-0.993 0.53,-1.859 1.325,-2.449 0.196,-0.146 0.396,-0.284 0.591,-0.425 0.134,0.559 0.454,1.114 0.721,1.652 0.618,1.246 0.463,2.776 -0.411,3.863 -0.341,0.424 0.259,1.03 0.603,0.603 0.762,-0.948 1.145,-2.131 1.012,-3.349 M 29.373,7.926 c -0.01,0.23 0.204,0.427 0.427,0.427 l 0.113,0 c 0.239,0 0.416,-0.196 0.426,-0.427 C 30.35,7.696 30.136,7.5 29.913,7.5 l -0.113,0 c -0.239,0 -0.416,0.195 -0.427,0.426 m -1.164,1.449 c 0.549,0 0.548,-0.852 0,-0.852 -0.55,0 -0.549,0.852 0,0.852 m -1.478,1.25 c 0.55,0 0.549,-0.852 0,-0.852 -0.549,0 -0.548,0.852 0,0.852 m -5.908,9.661 c 1.163,1.969 4.024,1.923 5.078,-0.127 0.251,-0.488 -0.485,-0.919 -0.736,-0.431 -0.757,1.473 -2.754,1.57 -3.606,0.128 -0.279,-0.473 -1.016,-0.043 -0.736,0.43 m 7.501,-27.902 c -0.549,0.003 -0.549,0.856 0,0.852 1.501,-0.01 2.85,0.859 3.649,2.105 0.871,1.358 0.972,3.036 0.576,4.572 -0.76,2.945 -3.133,5.041 -5.523,6.731 -2.042,1.444 -4.369,2.878 -5.39,5.276 -0.463,1.086 -0.606,2.396 -0.054,3.479 0.514,1.009 1.613,1.55 2.726,1.442 2.356,-0.226 3.246,-3.245 1.481,-4.787 -0.412,-0.36 -1.017,0.241 -0.603,0.602 0.948,0.829 0.957,2.549 -0.262,3.148 -1.298,0.637 -2.664,-0.245 -2.826,-1.621 -0.308,-2.602 2.209,-4.575 4.077,-5.904 2.1,-1.494 4.241,-2.944 5.753,-5.078 1.427,-2.015 2.22,-4.768 1.334,-7.168 -0.759,-2.056 -2.694,-3.664 -4.938,-3.649 m -1.792,-1.39 c -0.01,0.23 0.204,0.426 0.427,0.426 l 0.113,0 c 0.239,0 0.416,-0.195 0.426,-0.426 0.011,-0.23 -0.203,-0.426 -0.426,-0.426 l -0.113,0 c -0.239,0 -0.416,0.195 -0.427,0.426 m -2.159,0.568 0,0.114 c 0,0.239 0.196,0.416 0.426,0.426 0.231,0.01 0.427,-0.203 0.427,-0.426 l 0,-0.114 c 0,-0.239 -0.196,-0.416 -0.427,-0.426 -0.23,-0.01 -0.426,0.203 -0.426,0.426 m 5.832,-0.697 c -0.478,-0.987 -1.135,-2.082 -2.337,-2.21 -0.725,-0.078 -1.387,0.238 -2.084,0.376 -0.763,0.151 -1.544,0.02 -2.235,-0.328 -0.202,-0.101 -0.467,-0.057 -0.583,0.153 -0.723,1.308 -1.377,2.759 -0.655,4.213 0.244,0.492 0.979,0.06 0.736,-0.43 -0.508,-1.023 -0.02,-2.107 0.485,-3.042 1.03,0.398 2.058,0.387 3.149,0.079 0.706,-0.199 1.358,-0.307 1.923,0.246 0.387,0.379 0.631,0.891 0.865,1.374 0.239,0.494 0.973,0.061 0.736,-0.431 m -8.951,2.981 c -0.239,-0.922 -0.524,-1.887 -1.216,-2.58 -0.618,-0.619 -1.498,-0.967 -2.369,-0.972 -1.902,-0.01 -3.475,1.504 -3.789,3.33 -0.093,0.537 0.729,0.766 0.822,0.227 0.25,-1.451 1.418,-2.722 2.967,-2.705 1.731,0.02 2.386,1.477 2.764,2.927 0.138,0.531 0.96,0.305 0.821,-0.227 M 16.604,4.042 C 15.9,2.772 14.989,1.641 13.913,0.67 c 1.109,-1.395 1.486,-3.263 0.939,-4.98 -0.167,-0.522 -0.989,-0.297 -0.822,0.227 0.5,1.569 0.131,3.287 -0.999,4.493 -0.148,0.157 -0.18,0.45 0,0.602 1.153,0.981 2.103,2.136 2.838,3.46 0.266,0.48 1.002,0.05 0.735,-0.43 m 0.908,-10.888 c -0.549,0 -0.548,0.852 0,0.852 0.55,0 0.549,-0.852 0,-0.852 m -0.311,2.786 c -0.482,0.725 -1.011,1.411 -1.59,2.062 -0.363,0.409 0.238,1.014 0.603,0.603 0.471,-0.531 0.903,-1.091 1.316,-1.667 0.377,0.663 0.8,1.293 1.305,1.872 0.361,0.414 0.961,-0.191 0.602,-0.603 -0.602,-0.69 -1.096,-1.446 -1.5,-2.267 -0.15,-0.306 -0.571,-0.247 -0.736,0 m 2.556,4.921 c 0.516,0.191 0.737,-0.633 0.227,-0.822 -1.543,-0.571 -3.226,-0.586 -4.78,-0.045 -0.515,0.179 -0.292,1.002 0.227,0.822 1.426,-0.496 2.91,-0.479 4.326,0.045 m 1.424,-4.944 c 0.167,-0.525 -0.656,-0.748 -0.822,-0.227 -0.548,1.717 -0.17,3.586 0.938,4.98 -1.076,0.971 -1.986,2.102 -2.691,3.372 -0.266,0.48 0.47,0.91 0.736,0.43 0.735,-1.324 1.685,-2.479 2.838,-3.46 0.18,-0.153 0.148,-0.445 0,-0.602 -1.13,-1.206 -1.5,-2.924 -0.999,-4.493 m -11.152,-4.355 0,0.114 c 0,0.239 0.195,0.416 0.426,0.426 0.23,0.01 0.426,-0.203 0.426,-0.426 l 0,-0.114 c 0,-0.239 -0.195,-0.416 -0.426,-0.426 -0.23,-0.01 -0.426,0.203 -0.426,0.426 M 7.756,-9.006 c -0.01,0.23 0.203,0.426 0.426,0.426 l 0.114,0 c 0.239,0 0.416,-0.195 0.426,-0.426 0.01,-0.23 -0.203,-0.426 -0.426,-0.426 l -0.114,0 c -0.239,0 -0.416,0.195 -0.426,0.426 m 4.533,-2.138 c -0.117,-0.212 -0.382,-0.254 -0.583,-0.153 -0.727,0.365 -1.536,0.482 -2.332,0.306 -0.66,-0.146 -1.298,-0.428 -1.988,-0.354 -1.201,0.128 -1.859,1.223 -2.336,2.21 -0.238,0.493 0.497,0.924 0.736,0.431 0.243,-0.504 0.501,-1.043 0.92,-1.426 0.557,-0.508 1.197,-0.383 1.867,-0.194 1.092,0.308 2.12,0.319 3.149,-0.079 0.505,0.935 0.993,2.019 0.486,3.042 -0.244,0.49 0.492,0.922 0.736,0.43 0.721,-1.454 0.068,-2.904 -0.655,-4.213 M 9.353,20.159 c 1.054,2.05 3.916,2.096 5.079,0.127 0.28,-0.474 -0.458,-0.902 -0.736,-0.43 -0.853,1.443 -2.85,1.345 -3.607,-0.128 C 9.838,19.24 9.103,19.672 9.353,20.159 m -0.83,-9.534 c 0.549,0 0.548,-0.852 0,-0.852 -0.549,0 -0.548,0.852 0,0.852 M 7.046,9.375 c 0.549,0 0.548,-0.852 0,-0.852 -0.55,0 -0.549,0.852 0,0.852 M 4.915,7.926 c -0.01,0.23 0.203,0.427 0.426,0.427 l 0.114,0 C 5.694,8.353 5.871,8.157 5.881,7.926 5.891,7.696 5.678,7.5 5.455,7.5 l -0.114,0 C 5.102,7.5 4.925,7.695 4.915,7.926 M 1.741,-3.026 c -0.463,2.575 0.599,5.119 2.238,7.069 1.675,1.994 3.903,3.294 5.946,4.855 0.974,0.744 1.915,1.59 2.551,2.65 0.613,1.022 1.041,2.458 0.382,3.565 -0.587,0.985 -2.06,1.199 -2.916,0.43 -0.852,-0.766 -0.689,-2.174 0.126,-2.887 0.414,-0.361 -0.191,-0.962 -0.603,-0.602 -0.92,0.804 -1.193,2.189 -0.689,3.298 0.508,1.118 1.755,1.657 2.938,1.461 1.124,-0.187 1.966,-1.027 2.22,-2.132 0.282,-1.227 -0.088,-2.507 -0.722,-3.563 C 11.858,8.861 9.431,7.572 7.389,6.034 5.045,4.269 2.804,1.898 2.51,-1.165 2.254,-3.833 4,-6.783 6.931,-6.764 c 0.549,0.004 0.548,-0.849 0,-0.852 -2.588,-0.017 -4.745,2.113 -5.19,4.59 M 0.909,-5.512 c 0.549,0 0.549,-0.852 0,-0.852 -0.549,0 -0.548,0.852 0,0.852 M 1.922,-9.75 c -0.606,-0.679 -1.626,-0.994 -2.028,-1.838 -0.003,0.002 -0.005,0.004 -0.008,0.005 -0.023,-0.03 -0.034,-0.061 -0.059,-0.092 -0.329,-0.4 -0.862,0.113 -0.669,0.517 0.042,0.088 0.102,0.156 0.153,0.234 0.326,0.609 -0.213,1.383 -0.493,1.906 -0.293,0.545 -0.496,1.105 -0.563,1.723 -0.132,1.218 0.25,2.401 1.013,3.349 0.343,0.427 0.943,-0.18 0.602,-0.603 -0.872,-1.084 -1.033,-2.621 -0.411,-3.863 0.269,-0.536 0.589,-1.092 0.722,-1.652 0.195,0.141 0.394,0.279 0.59,0.425 0.796,0.591 1.273,1.455 1.326,2.449 0.029,0.546 0.881,0.548 0.852,0 -0.05,-0.951 -0.39,-1.846 -1.027,-2.56 m 8.167,38.877 c 0.757,-1.472 2.755,-1.57 3.607,-0.127 0.279,0.472 1.015,0.043 0.736,-0.431 -1.163,-1.968 -4.025,-1.923 -5.079,0.128 -0.251,0.487 0.485,0.918 0.736,0.43 m 15.812,-0.43 c -1.054,-2.051 -3.915,-2.096 -5.078,-0.128 -0.28,0.474 0.457,0.902 0.736,0.431 0.852,-1.444 2.85,-1.345 3.606,0.127 0.252,0.488 0.987,0.057 0.736,-0.43 m -30.059,-45.883 43.571,0 c 0.94,0 1.704,0.765 1.704,1.704 l 0,49.015 -2.978,0 c -0.31,-1.455 -1.473,-2.788 -2.768,-3.488 -1.113,-0.602 -2.448,-0.913 -3.691,-0.558 -1.077,0.307 -1.957,1.077 -2.553,2.008 -0.398,0.622 -0.653,1.32 -0.792,2.038 l -1.846,0 c -0.004,-0.01 -0.006,-0.02 -0.011,-0.03 -0.508,-1.118 -1.755,-1.657 -2.937,-1.461 -0.893,0.148 -1.603,0.713 -1.986,1.491 l -2.288,0 c -0.05,-0.212 -0.115,-0.42 -0.155,-0.633 -0.344,-1.846 -0.222,-3.979 1.095,-5.438 1.354,-1.501 3.579,-1.961 5.399,-1.061 0.914,0.451 1.753,1.22 2.1,2.2 0.339,0.956 0.061,2.176 -1.008,2.498 -0.525,0.158 -0.3,0.98 0.226,0.822 0.913,-0.275 1.57,-1.053 1.738,-1.99 0.186,-1.04 -0.233,-2.078 -0.883,-2.878 -1.3,-1.6 -3.528,-2.326 -5.52,-1.799 -1.794,0.474 -3.202,1.831 -3.801,3.576 -0.515,1.502 -0.432,3.158 -0.084,4.703 l -1.509,0 c 0.042,-0.195 0.098,-0.387 0.131,-0.583 0.303,-1.785 0.226,-3.725 -0.753,-5.303 -0.971,-1.565 -2.742,-2.566 -4.588,-2.569 -1.832,-0.003 -3.7,0.996 -4.614,2.603 -0.857,1.508 -0.562,3.682 1.289,4.24 0.527,0.158 0.751,-0.665 0.227,-0.822 -1.271,-0.383 -1.361,-1.898 -0.826,-2.906 0.537,-1.014 1.552,-1.752 2.64,-2.073 2.195,-0.649 4.563,0.502 5.469,2.591 0.655,1.509 0.551,3.237 0.166,4.822 l -2.301,0 c -0.012,-0.025 -0.02,-0.052 -0.033,-0.077 -0.514,-1.008 -1.613,-1.55 -2.726,-1.442 -1.02,0.098 -1.764,0.72 -2.137,1.519 l -1.888,0 C 6.719,32.529 6.28,31.571 5.62,30.818 3.864,28.817 1.067,29.058 -0.931,30.574 c -0.925,0.702 -1.67,1.806 -1.923,2.959 l -3.009,0 0,-49.015 c 0,-0.939 0.765,-1.704 1.705,-1.704" /></g><g
           transform="translate(48.0021,60.5991)"
           id="g24"><path
             id="path26"
             style="fill:#852637;fill-opacity:1;fill-rule:nonzero;stroke:none"
             d="M 0,0 C 0.549,0 0.548,-0.852 0,-0.852 -0.549,-0.852 -0.548,0 0,0 m 1.932,-0.114 c 0.549,0 0.548,-0.852 0,-0.852 -0.549,0 -0.549,0.852 0,0.852 m 1.477,0.682 c 0.549,0 0.549,-0.852 0,-0.852 -0.549,0 -0.548,0.852 0,0.852 M 0.183,-2.604 c 2.034,-0.338 4.522,1.25 5,3.305 l -8.053,0 c 0.361,-1.569 1.411,-3.032 3.053,-3.305" /></g><g
           transform="translate(41.2418,61.0798)"
           id="g28"><path
             id="path30"
             style="fill:#852637;fill-opacity:1;fill-rule:nonzero;stroke:none"
             d="m 0,0 c 0.075,0.067 0.132,0.144 0.191,0.22 l -2.944,0 C -2.092,-0.574 -0.789,-0.709 0,0" /></g><g
           transform="translate(15.7024,61.1674)"
           id="g32"><path
             id="path34"
             style="fill:#852637;fill-opacity:1;fill-rule:nonzero;stroke:none"
             d="M 0,0 C 0.549,0 0.548,-0.852 0,-0.852 -0.549,-0.852 -0.548,0 0,0 m 1.477,-0.682 c 0.55,0 0.549,-0.852 0,-0.852 -0.549,0 -0.548,0.852 0,0.852 m 1.932,0.114 c 0.549,0 0.549,-0.853 0,-0.853 -0.549,0 -0.548,0.853 0,0.853 m 0.663,-2.334 c 1.174,0.571 1.924,1.752 2.212,3.035 l -8.057,0 C -1.746,0.008 -1.717,-0.116 -1.676,-0.236 -0.951,-2.329 2,-3.909 4.072,-2.902" /></g><g
           transform="translate(26.2602,60.8186)"
           id="g36"><path
             id="path38"
             style="fill:#852637;fill-opacity:1;fill-rule:nonzero;stroke:none"
             d="m 0,0 c 0.877,-0.43 1.775,-0.158 2.322,0.481 l -2.892,0 C -0.422,0.29 -0.242,0.119 0,0" /></g><g
           transform="translate(59.9511,34.915)"
           id="g40"><path
             id="path42"
             style="fill:#852637;fill-opacity:1;fill-rule:nonzero;stroke:none"
             d="M 0,0 C 0,0.239 0.195,0.416 0.426,0.426 0.656,0.436 0.852,0.223 0.852,0 l 0,-0.038 C 0.852,-0.277 0.657,-0.454 0.426,-0.464 0.196,-0.474 0,-0.261 0,-0.038 L 0,0 Z m 0.572,-1.032 c 0.087,0.108 0.203,0.149 0.321,0.132 0.416,0.348 0.626,0.959 0.56,1.49 C 1.37,1.263 0.629,1.61 0.091,1.157 -0.309,0.82 -0.535,0.076 -0.533,-0.436 -0.531,-0.864 0.139,-1.092 0.572,-1.032" /></g><g
           transform="translate(5.619,32.7397)"
           id="g44"><path
             id="path46"
             style="fill:#852637;fill-opacity:1;fill-rule:nonzero;stroke:none"
             d="M 0,0 C 0.549,0 0.548,-0.852 0,-0.852 -0.549,-0.852 -0.548,0 0,0 m 1.818,-4.773 c -0.549,0 -0.548,0.852 0,0.852 0.55,0 0.549,-0.852 0,-0.852 M 1.989,6.08 c -0.55,0 -0.549,0.852 0,0.852 0.549,0 0.548,-0.852 0,-0.852 m -2.404,5.443 c 0.019,0.019 0.038,0.038 0.057,0.057 0.168,0.169 0.432,0.156 0.603,0 0.169,-0.156 0.157,-0.445 0,-0.603 -0.019,-0.019 -0.038,-0.037 -0.057,-0.056 -0.169,-0.169 -0.433,-0.157 -0.603,0 -0.17,0.155 -0.158,0.444 0,0.602 M 0.602,4.069 C 1.112,3.878 0.89,3.054 0.376,3.247 -0.006,3.39 -0.165,2.051 0.444,1.895 0.98,1.758 1.353,2.296 1.488,2.73 1.834,3.843 1.182,4.531 0.504,5.294 -0.021,5.884 -0.44,6.547 -0.369,7.369 -0.315,7.985 -0.017,8.53 0.436,8.926 0.292,9.039 0.141,9.141 0.002,9.262 -0.22,9.454 -0.121,9.786 0.089,9.931 0.6,10.285 1.028,10.72 1.418,11.192 1.246,11.26 1.081,11.351 0.94,11.489 c -0.521,0.506 -0.597,1.417 -1.289,1.734 -0.278,0.127 -0.281,0.61 0,0.736 0.862,0.389 1.594,0.955 2.152,1.723 0.319,0.44 1.058,0.014 0.736,-0.43 C 2.024,14.543 1.391,13.964 0.648,13.527 0.789,13.366 0.908,13.184 1.012,12.989 1.193,12.648 1.533,11.682 2.075,11.982 2.433,12.18 2.897,11.769 2.658,11.398 2.201,10.69 1.623,10.103 0.976,9.581 1.464,9.198 1.975,8.852 2.529,8.564 3.017,8.311 2.585,7.575 2.099,7.828 1.77,7.999 1.458,8.194 1.151,8.397 0.62,8.033 0.325,7.364 0.548,6.733 0.764,6.119 1.335,5.687 1.735,5.197 2.507,4.253 2.705,2.876 1.998,1.822 1.846,1.596 1.639,1.412 1.406,1.279 1.782,0.349 2.157,-0.582 2.533,-1.512 2.646,-1.792 2.367,-2.03 2.122,-2.052 1.155,-2.136 0.637,-3.041 0.446,-3.899 0.346,-4.35 0.253,-4.927 0.458,-5.367 c 0.16,-0.34 0.778,-0.717 0.915,-0.142 0.126,0.535 0.948,0.307 0.822,-0.226 -0.157,-0.662 -0.842,-1.054 -1.498,-0.883 -0.75,0.195 -1.139,0.945 -1.194,1.667 -0.112,1.48 0.611,3.154 2.041,3.626 C 1.224,-0.533 0.905,0.259 0.585,1.05 0.097,1.037 -0.377,1.241 -0.647,1.752 -1.094,2.601 -0.693,4.553 0.602,4.069 m -1.212,12.99 c 0.44,0.473 0.891,1.13 1.431,1.484 0.128,0.085 0.301,0.071 0.43,0 0.551,-0.301 1.012,-1.032 1.393,-1.52 C 2.977,16.596 2.378,15.989 2.041,16.421 1.85,16.666 1.654,16.907 1.45,17.142 1.333,17.278 1.193,17.471 1.044,17.624 0.897,17.47 0.76,17.282 0.632,17.144 0.419,16.915 0.206,16.686 -0.007,16.457 -0.382,16.054 -0.983,16.658 -0.61,17.059 m 0,2.426 c 0.44,0.472 0.891,1.129 1.431,1.484 0.128,0.084 0.301,0.07 0.43,0 C 1.802,20.667 2.263,19.936 2.644,19.448 2.977,19.021 2.378,18.414 2.041,18.846 1.85,19.091 1.654,19.332 1.45,19.567 1.333,19.703 1.193,19.896 1.044,20.049 0.897,19.895 0.76,19.707 0.632,19.569 0.419,19.34 0.206,19.111 -0.007,18.882 -0.382,18.479 -0.983,19.083 -0.61,19.485 m 0.468,2.836 c 0,0.239 0.195,0.416 0.426,0.426 0.23,0.01 0.426,-0.203 0.426,-0.426 l 0,-0.038 c 0,-0.239 -0.195,-0.416 -0.426,-0.426 -0.23,-0.011 -0.426,0.203 -0.426,0.426 l 0,0.038 z M 2.35,-8.761 c -0.549,0 -0.548,0.852 0,0.852 0.549,0 0.548,-0.852 0,-0.852 m -2.33,-7.955 c 0.55,0 0.549,-0.852 0,-0.852 -0.549,0 -0.548,0.852 0,0.852 m 2.711,4.954 c -0.146,-0.629 -0.599,-1.001 -1.11,-1.133 -0.013,-0.029 -0.019,-0.057 -0.041,-0.086 -0.392,-0.515 -0.49,-1.192 -0.18,-1.778 0.281,-0.528 0.915,-0.733 1.085,-1.342 0.188,-0.669 -0.058,-1.371 -0.515,-1.871 0.002,-0.021 0.01,-0.038 0.009,-0.061 -0.05,-1.156 0.031,-2.311 -0.763,-3.241 -0.384,-0.449 -0.963,-0.847 -1.077,-1.463 -0.068,-0.372 0.171,-0.704 0.565,-0.704 0.351,10e-4 0.591,0.286 0.735,0.57 0.248,0.49 0.983,0.058 0.736,-0.43 -0.326,-0.642 -1,-1.107 -1.742,-0.965 -0.686,0.13 -1.185,0.712 -1.169,1.417 0.019,0.798 0.598,1.38 1.111,1.92 0.367,0.385 0.606,0.753 0.671,1.289 0.044,0.362 0.055,0.731 0.065,1.098 -0.186,-0.063 -0.378,-0.107 -0.579,-0.103 -0.548,0.009 -0.548,0.861 0,0.852 0.75,-0.012 1.547,1.074 0.957,1.715 -0.327,0.354 -0.675,0.566 -0.889,1.02 -0.329,0.697 -0.29,1.52 0.07,2.193 -0.555,0.183 -0.992,0.662 -0.946,1.43 0.033,0.546 0.886,0.548 0.853,0 -0.039,-0.653 0.705,-0.952 1.15,-0.468 0.253,0.276 0.255,0.723 0.055,1.029 -0.268,0.411 -0.819,0.404 -1.24,0.538 -0.303,0.096 -0.603,0.234 -0.83,0.464 -1.055,1.07 0.629,2.914 1.763,1.941 C 1.893,-8.289 1.287,-8.889 0.873,-8.534 0.671,-8.361 0.292,-8.76 0.253,-8.941 0.191,-9.237 0.425,-9.386 0.68,-9.483 c 0.453,-0.172 0.946,-0.184 1.36,-0.462 0.578,-0.389 0.846,-1.144 0.691,-1.817 m 0.665,-12.214 c 0.5,-0.225 0.066,-0.959 -0.43,-0.736 -0.381,0.173 -0.735,-0.17 -0.72,-0.549 0.015,-0.405 0.4,-0.646 0.756,-0.717 0.628,-0.127 1.282,0.185 1.851,0.412 0.971,0.389 2.092,1.025 3.137,0.629 0.496,0.601 1.317,0.956 2.085,0.731 0.632,-0.185 0.849,-0.86 1.425,-1.123 0.575,-0.262 1.202,-0.157 1.696,0.218 0.038,0.03 0.076,0.041 0.113,0.055 0.039,0.377 0.2,0.748 0.555,1.066 1.144,1.025 2.838,0.132 2.877,-1.327 0.015,-0.549 -0.838,-0.547 -0.852,0 -0.028,1.045 -1.542,1.28 -1.741,0.199 -0.207,-1.12 1.239,-1.479 2.044,-1.388 0.939,0.105 1.863,0.509 2.655,1.011 0.704,0.448 1.244,1.15 1.975,1.547 1.111,0.604 2.44,0.058 2.889,-1.017 0.661,-0.191 1.264,-0.15 1.916,0.06 0.623,0.201 1.281,0.407 1.592,1.031 0.157,0.316 0.513,0.249 0.686,0.032 0.009,-0.007 0.019,-0.009 0.027,-0.017 1.094,-1.04 2.649,-1.405 4.094,-0.982 0.074,0.022 0.14,0.021 0.201,0.009 0.5,0.991 1.764,1.462 2.827,0.884 0.759,-0.412 1.317,-1.141 2.056,-1.598 0.803,-0.496 1.768,-0.912 2.721,-0.977 0.781,-0.053 2.213,0.42 1.88,1.5 -0.31,1.004 -1.698,0.691 -1.724,-0.294 -0.015,-0.548 -0.867,-0.548 -0.852,0 0.04,1.499 1.803,2.367 2.931,1.275 0.32,-0.309 0.471,-0.661 0.508,-1.018 0.035,-0.013 0.07,-0.023 0.106,-0.051 0.515,-0.391 1.192,-0.49 1.778,-0.179 0.528,0.28 0.733,0.914 1.342,1.084 0.77,0.216 1.592,-0.133 2.087,-0.73 1.044,0.395 2.165,-0.241 3.136,-0.63 0.567,-0.226 1.225,-0.542 1.851,-0.412 0.358,0.074 0.737,0.311 0.756,0.717 0.018,0.382 -0.341,0.72 -0.721,0.549 -0.496,-0.224 -0.929,0.511 -0.43,0.736 1.681,0.759 2.754,-1.604 1.267,-2.558 -0.764,-0.49 -1.685,-0.332 -2.488,-0.035 -0.544,0.201 -1.076,0.435 -1.617,0.645 -0.421,0.163 -0.905,0.354 -1.353,0.224 0.039,-0.149 0.059,-0.302 0.056,-0.458 -0.009,-0.549 -0.861,-0.549 -0.852,0 0.013,0.749 -1.073,1.547 -1.715,0.956 -0.354,-0.327 -0.566,-0.675 -1.02,-0.889 -0.743,-0.35 -1.633,-0.288 -2.326,0.144 -0.276,-0.633 -0.882,-1.166 -1.584,-1.342 -1.727,-0.431 -3.73,0.568 -5.037,1.629 -0.635,0.516 -1.282,1.409 -2.215,1.042 -0.456,-0.18 -0.743,-0.628 -0.747,-1.113 -0.003,-0.377 0.541,-1.297 0.832,-0.615 0.215,0.504 0.949,0.069 0.736,-0.43 -0.252,-0.589 -0.973,-0.796 -1.534,-0.529 -0.593,0.282 -0.882,0.956 -0.876,1.588 -1.529,-0.366 -3.133,0.005 -4.353,0.986 -0.42,-0.478 -1.022,-0.734 -1.639,-0.942 -0.721,-0.243 -1.422,-0.324 -2.15,-0.192 -0.04,-0.603 -0.346,-1.22 -0.921,-1.462 -0.555,-0.233 -1.239,-0.019 -1.483,0.551 -0.213,0.499 0.521,0.933 0.736,0.43 0.292,-0.684 0.833,0.24 0.832,0.615 -0.002,0.484 -0.294,0.934 -0.747,1.113 -0.959,0.377 -1.635,-0.581 -2.291,-1.101 -1.298,-1.031 -3.264,-1.994 -4.961,-1.57 -0.705,0.176 -1.307,0.711 -1.582,1.344 -0.694,-0.434 -1.585,-0.497 -2.329,-0.146 -0.493,0.233 -0.71,0.699 -1.144,0.976 -0.66,0.42 -1.602,-0.349 -1.59,-1.043 0.009,-0.55 -0.844,-0.548 -0.853,0 -0.002,0.155 0.019,0.309 0.058,0.457 -0.449,0.131 -0.933,-0.059 -1.355,-0.223 -0.54,-0.21 -1.072,-0.444 -1.616,-0.645 -0.803,-0.297 -1.724,-0.455 -2.489,0.035 -1.487,0.954 -0.413,3.317 1.267,2.558 m 14.445,0.061 c 0.55,0 0.549,-0.852 0,-0.852 -0.549,0 -0.548,0.852 0,0.852 m 20.193,0 c 0.549,0 0.549,-0.852 0,-0.852 -0.549,0 -0.548,0.852 0,0.852 m 17.821,6.347 c -0.549,0 -0.548,0.852 0,0.852 0.55,0 0.549,-0.852 0,-0.852 m -2.329,9.659 c 0.549,0 0.548,-0.852 0,-0.852 -0.55,0 -0.549,0.852 0,0.852 m 0.976,-1.526 c 0.549,0.014 0.547,-0.838 0,-0.853 -1.045,-0.028 -1.28,-1.541 -0.199,-1.741 1.119,-0.206 1.479,1.239 1.388,2.044 -0.106,0.939 -0.509,1.864 -1.012,2.655 -0.447,0.705 -1.149,1.244 -1.546,1.975 -0.735,1.353 0.22,3.054 1.783,3.058 0.643,0.002 1.336,-0.319 1.595,-0.937 0.234,-0.555 0.02,-1.239 -0.55,-1.483 -0.5,-0.213 -0.933,0.522 -0.43,0.736 0.683,0.292 -0.241,0.833 -0.615,0.832 -0.484,-10e-4 -0.934,-0.293 -1.113,-0.747 -0.377,-0.958 0.581,-1.634 1.101,-2.29 1.03,-1.298 1.993,-3.264 1.569,-4.962 -0.176,-0.704 -0.71,-1.306 -1.343,-1.582 0.434,-0.693 0.497,-1.584 0.146,-2.328 -0.233,-0.494 -0.7,-0.71 -0.976,-1.145 -0.42,-0.66 0.349,-1.601 1.043,-1.59 0.55,0.009 0.548,-0.843 0,-0.852 -0.2,-0.004 -0.394,0.041 -0.581,0.106 0.008,-0.412 0.017,-0.825 0.081,-1.225 0.078,-0.479 0.331,-0.821 0.657,-1.165 0.513,-0.542 1.093,-1.122 1.111,-1.92 0.017,-0.707 -0.481,-1.286 -1.168,-1.417 -0.743,-0.143 -1.417,0.323 -1.742,0.965 -0.248,0.489 0.488,0.92 0.736,0.43 0.144,-0.284 0.385,-0.569 0.734,-0.57 0.458,0 0.664,0.418 0.543,0.816 -0.17,0.558 -0.69,0.925 -1.054,1.351 -0.795,0.929 -0.714,2.085 -0.764,3.241 -10e-4,0.024 0.008,0.04 0.01,0.062 -0.461,0.5 -0.711,1.202 -0.516,1.87 0.185,0.631 0.861,0.848 1.123,1.425 0.263,0.575 0.158,1.202 -0.218,1.695 -0.029,0.039 -0.04,0.076 -0.054,0.114 -0.377,0.038 -0.749,0.199 -1.067,0.555 -1.024,1.144 -0.131,2.838 1.328,2.877 m 1.163,8.103 c -0.508,0.533 -1.274,0.126 -1.807,-0.152 -0.486,-0.253 -0.917,0.483 -0.43,0.736 0.892,0.465 2.032,0.867 2.84,0.018 0.378,-0.397 -0.224,-1 -0.603,-0.602 m -2.511,4.139 c 0.153,0.488 0.41,0.954 0.831,1.26 C 54.844,4.692 56.101,4.37 56.506,3.37 56.918,2.351 56.451,1.126 55.61,0.492 55.537,0.436 55.465,0.42 55.397,0.417 c -0.6,-0.496 -1.992,0.172 -2.328,0.7 -0.294,0.465 -0.066,1.213 0.085,1.69 m 0.646,9.414 c -0.375,0.4 0.227,1.004 0.603,0.603 0.791,-0.842 0.791,-2.08 -0.15,-2.799 -0.436,-0.334 -0.86,0.407 -0.43,0.735 0.496,0.38 0.353,1.061 -0.023,1.461 m 2.284,-4.638 c -0.549,0 -0.548,0.852 0,0.852 0.549,0 0.548,-0.852 0,-0.852 m -3.007,9.083 c 0.248,0.537 0.826,0.867 1.402,0.66 0.513,-0.184 0.291,-1.007 -0.227,-0.822 -0.557,0.2 -0.47,-0.639 -0.379,-0.889 0.105,-0.286 0.309,-0.513 0.533,-0.711 0.461,-0.404 1.012,-0.693 1.443,-1.133 0.791,-0.807 1.167,-2.012 0.747,-3.092 C 56.119,9.45 54.914,8.799 54.261,7.699 53.98,7.227 53.826,6.582 54.134,6.08 c 0.184,-0.302 0.482,-0.431 0.83,-0.385 0.19,0.026 1.097,0.397 0.739,0.758 -0.386,0.39 0.217,0.993 0.603,0.603 1.195,-1.208 -0.925,-2.562 -2.078,-2.116 -1.18,0.457 -1.321,1.944 -0.829,2.954 0.643,1.322 2.609,2.21 2.524,3.83 -0.088,1.685 -1.99,1.994 -2.702,3.28 -0.274,0.497 -0.39,1.132 -0.144,1.662 m 2.941,0.093 0,-0.038 c 0,-0.239 -0.196,-0.416 -0.426,-0.426 -0.231,-0.01 -0.427,0.203 -0.427,0.426 l 0,0.038 c 0,0.239 0.196,0.416 0.427,0.426 0.23,0.01 0.426,-0.203 0.426,-0.426 m -2.183,3.437 c 0.191,-0.245 0.386,-0.486 0.59,-0.721 0.118,-0.136 0.257,-0.329 0.407,-0.482 0.146,0.154 0.283,0.342 0.412,0.48 0.213,0.229 0.426,0.458 0.639,0.687 0.375,0.403 0.976,-0.201 0.603,-0.603 -0.44,-0.472 -0.891,-1.129 -1.431,-1.484 -0.129,-0.084 -0.301,-0.07 -0.43,0 -0.551,0.302 -1.013,1.033 -1.393,1.521 -0.334,0.427 0.265,1.034 0.603,0.602 m 0,2.425 c 0.191,-0.245 0.386,-0.486 0.59,-0.721 0.118,-0.136 0.257,-0.329 0.407,-0.482 0.146,0.154 0.283,0.342 0.412,0.48 0.213,0.229 0.426,0.458 0.639,0.687 0.375,0.403 0.976,-0.201 0.603,-0.602 -0.44,-0.473 -0.891,-1.13 -1.431,-1.484 -0.129,-0.085 -0.301,-0.071 -0.43,0 -0.551,0.301 -1.013,1.032 -1.393,1.52 -0.334,0.427 0.265,1.034 0.603,0.602 m -6.994,-49.718 c -0.549,0 -0.548,0.853 0,0.853 0.55,0 0.549,-0.853 0,-0.853 m -16.897,0.022 c -0.549,0 -0.548,0.853 0,0.853 0.55,0 0.549,-0.853 0,-0.853 m -2.301,0.228 c -0.549,0 -0.548,0.852 0,0.852 0.549,0 0.548,-0.852 0,-0.852 m -2.415,-0.199 -0.028,0 c -0.239,0 -0.416,0.195 -0.426,0.426 -0.011,0.23 0.203,0.426 0.426,0.426 l 0.028,0 c 0.239,0 0.416,-0.195 0.426,-0.426 0.011,-0.23 -0.203,-0.426 -0.426,-0.426 M 9.034,-27.097 c -0.549,0 -0.548,0.853 0,0.853 0.55,0 0.549,-0.853 0,-0.853 m 47.257,54.616 -0.057,-0.057 c -0.169,-0.169 -0.433,-0.156 -0.603,0 -0.169,0.156 -0.158,0.445 0,0.603 0.019,0.018 0.038,0.037 0.057,0.056 0.168,0.169 0.433,0.157 0.603,0 0.169,-0.155 0.157,-0.444 0,-0.602 m 2.204,-57.259 0,58.3 -3.357,0 c -0.244,-0.22 -0.471,-0.456 -0.681,-0.71 0.172,-0.068 0.337,-0.159 0.479,-0.297 0.521,-0.506 0.597,-1.417 1.289,-1.734 0.278,-0.127 0.28,-0.61 0,-0.736 -0.862,-0.389 -1.595,-0.955 -2.152,-1.723 -0.32,-0.44 -1.059,-0.014 -0.736,0.43 0.515,0.709 1.147,1.288 1.891,1.725 -0.141,0.161 -0.261,0.343 -0.364,0.538 -0.181,0.341 -0.522,1.307 -1.063,1.007 -0.358,-0.198 -0.823,0.213 -0.583,0.584 0.215,0.333 0.471,0.625 0.728,0.916 l -1.495,0 0,-49.014 c 0,-1.504 -1.224,-2.728 -2.728,-2.728 l -43.571,0 c -1.504,0 -2.727,1.224 -2.727,2.728 l 0,49.014 -1.204,0 C 2.203,28.458 2.153,28.358 2.053,28.282 1.556,27.902 1.699,27.221 2.075,26.821 2.451,26.421 1.849,25.817 1.473,26.218 0.83,26.902 0.72,27.844 1.203,28.56 l -0.883,0 C 0.084,28.187 -0.072,27.785 -0.047,27.318 0.041,25.633 1.943,25.324 2.654,24.038 2.929,23.541 3.045,22.906 2.799,22.376 2.55,21.839 1.973,21.509 1.397,21.716 0.883,21.9 1.106,22.723 1.623,22.538 c 0.557,-0.2 0.471,0.639 0.379,0.889 -0.104,0.286 -0.308,0.513 -0.533,0.711 -0.46,0.404 -1.012,0.693 -1.443,1.133 -0.79,0.807 -1.166,2.012 -0.747,3.092 0.027,0.069 0.064,0.131 0.096,0.197 l -1.994,0 0,-58.3 61.114,0 z" /></g><g
           transform="translate(67.1138,0)"
           id="g48"><path
             id="path50"
             style="fill:#ffffff;fill-opacity:1;fill-rule:nonzero;stroke:none"
             d="m 0,0 0,61.3 -3,0 0,-58.3 -61.114,0 0,58.3 -3,0 0,-61.3 L 0,0 Z" /></g><g
           transform="translate(11.7712,9.5582)"
           id="g52"><path
             id="path54"
             style="fill:#ffffff;fill-opacity:1;fill-rule:nonzero;stroke:none"
             d="m 0,0 43.571,0 c 1.504,0 2.728,1.224 2.728,2.727 l 0,49.015 -1.023,0 0,-49.015 c 0,-0.94 -0.765,-1.704 -1.705,-1.704 L 0,1.023 c -0.94,0 -1.705,0.764 -1.705,1.704 l 0,49.015 -1.022,0 0,-49.015 C -2.727,1.224 -1.504,0 0,0" /></g><g
           transform="translate(5.6453,58.0111)"
           id="g56"><path
             id="path58"
             style="fill:#ffffff;fill-opacity:1;fill-rule:nonzero;stroke:none"
             d="m 0,0 c 0.431,-0.44 0.983,-0.729 1.443,-1.134 0.224,-0.197 0.429,-0.425 0.533,-0.71 0.091,-0.25 0.178,-1.089 -0.379,-0.89 -0.517,0.186 -0.74,-0.637 -0.226,-0.822 0.576,-0.206 1.153,0.124 1.402,0.66 0.245,0.531 0.13,1.166 -0.145,1.662 -0.711,1.286 -2.613,1.595 -2.702,3.281 -0.024,0.467 0.132,0.869 0.367,1.242 l -0.945,0 C -0.683,3.223 -0.72,3.161 -0.747,3.091 -1.166,2.012 -0.791,0.807 0,0" /></g><g
           transform="translate(5.9031,54.5966)"
           id="g60"><path
             id="path62"
             style="fill:#ffffff;fill-opacity:1;fill-rule:nonzero;stroke:none"
             d="m 0,0 c 0.231,0.01 0.426,0.187 0.426,0.426 l 0,0.038 C 0.426,0.687 0.23,0.9 0,0.89 -0.231,0.88 -0.426,0.703 -0.426,0.464 l 0,-0.038 C -0.426,0.203 -0.23,-0.01 0,0" /></g><g
           transform="translate(7.0917,58.9577)"
           id="g64"><path
             id="path66"
             style="fill:#ffffff;fill-opacity:1;fill-rule:nonzero;stroke:none"
             d="M 0,0 C 0.376,-0.401 0.978,0.203 0.603,0.603 0.227,1.003 0.084,1.684 0.58,2.064 0.68,2.14 0.73,2.24 0.748,2.342 l -1.018,0 C -0.752,1.626 -0.643,0.684 0,0" /></g><g
           transform="translate(5.6118,51.6216)"
           id="g68"><path
             id="path70"
             style="fill:#ffffff;fill-opacity:1;fill-rule:nonzero;stroke:none"
             d="M 0,0 C 0.213,0.229 0.426,0.458 0.639,0.687 0.768,0.825 0.905,1.013 1.051,1.167 1.201,1.014 1.34,0.821 1.458,0.685 1.662,0.451 1.857,0.209 2.048,-0.036 2.385,-0.468 2.985,0.139 2.651,0.566 2.27,1.054 1.809,1.786 1.258,2.087 1.129,2.157 0.957,2.171 0.828,2.087 0.288,1.732 -0.163,1.075 -0.603,0.603 -0.976,0.202 -0.375,-0.403 0,0" /></g><g
           transform="translate(5.6118,49.1965)"
           id="g72"><path
             id="path74"
             style="fill:#ffffff;fill-opacity:1;fill-rule:nonzero;stroke:none"
             d="M 0,0 C 0.213,0.229 0.426,0.458 0.639,0.687 0.768,0.825 0.905,1.013 1.051,1.167 1.201,1.014 1.34,0.821 1.458,0.685 1.662,0.451 1.857,0.209 2.048,-0.036 2.385,-0.468 2.985,0.139 2.651,0.566 2.27,1.054 1.809,1.786 1.258,2.087 1.129,2.157 0.957,2.171 0.828,2.087 0.288,1.732 -0.163,1.075 -0.603,0.603 -0.976,0.202 -0.375,-0.403 0,0" /></g><g
           transform="translate(6.8559,41.2078)"
           id="g76"><path
             id="path78"
             style="fill:#ffffff;fill-opacity:1;fill-rule:nonzero;stroke:none"
             d="M 0,0 C -0.032,-0.019 -0.055,-0.05 -0.086,-0.071 0.221,-0.274 0.533,-0.469 0.862,-0.64 1.348,-0.893 1.78,-0.157 1.293,0.096 0.738,0.384 0.227,0.729 -0.261,1.113 0.386,1.635 0.964,2.222 1.421,2.93 1.66,3.301 1.196,3.712 0.838,3.513 0.297,3.214 -0.044,4.18 -0.225,4.521 -0.328,4.716 -0.448,4.898 -0.589,5.059 0.154,5.495 0.787,6.075 1.302,6.784 1.625,7.228 0.885,7.654 0.566,7.214 0.008,6.446 -0.724,5.88 -1.586,5.491 -1.866,5.365 -1.864,4.882 -1.586,4.755 -0.894,4.438 -0.818,3.527 -0.297,3.021 -0.156,2.883 0.009,2.792 0.181,2.724 -0.209,2.252 -0.637,1.817 -1.148,1.463 -1.358,1.318 -1.456,0.986 -1.234,0.794 -1.095,0.673 -0.944,0.571 -0.801,0.458 -0.685,0.559 -0.566,0.657 -0.43,0.736 0.045,1.013 0.474,0.276 0,0" /></g><g
           transform="translate(6.2039,33.7902)"
           id="g80"><path
             id="path82"
             style="fill:#ffffff;fill-opacity:1;fill-rule:nonzero;stroke:none"
             d="M 0,0 -0.072,0.177 C -0.277,0.687 0.547,0.906 0.75,0.404 0.774,0.345 0.797,0.287 0.821,0.229 1.054,0.362 1.261,0.546 1.413,0.772 2.12,1.826 1.922,3.202 1.15,4.147 0.75,4.637 0.179,5.069 -0.037,5.682 -0.26,6.313 0.035,6.983 0.566,7.347 0.597,7.368 0.62,7.399 0.652,7.418 1.126,7.694 0.697,8.431 0.222,8.153 0.086,8.074 -0.033,7.976 -0.149,7.875 -0.602,7.48 -0.9,6.934 -0.954,6.318 -1.025,5.497 -0.606,4.833 -0.081,4.243 0.598,3.48 1.249,2.793 0.903,1.68 0.768,1.245 0.395,0.708 -0.141,0.845 -0.75,1 -0.591,2.339 -0.209,2.196 0.305,2.004 0.527,2.827 0.017,3.018 -1.278,3.502 -1.679,1.55 -1.231,0.702 -0.962,0.191 -0.488,-0.014 0,0" /></g><g
           transform="translate(7.6077,38.8195)"
           id="g84"><path
             id="path86"
             style="fill:#ffffff;fill-opacity:1;fill-rule:nonzero;stroke:none"
             d="M 0,0 C 0.548,0 0.549,0.852 0,0.852 -0.548,0.852 -0.549,0 0,0" /></g><g
           transform="translate(5.8067,43.6604)"
           id="g88"><path
             id="path90"
             style="fill:#ffffff;fill-opacity:1;fill-rule:nonzero;stroke:none"
             d="m 0,0 c 0.019,0.019 0.038,0.038 0.057,0.057 0.158,0.158 0.169,0.447 0,0.602 -0.17,0.157 -0.434,0.169 -0.603,0 C -0.565,0.641 -0.584,0.622 -0.603,0.603 -0.76,0.445 -0.772,0.156 -0.603,0 -0.433,-0.156 -0.168,-0.168 0,0" /></g><g
           transform="translate(6.1323,33.9675)"
           id="g92"><path
             id="path94"
             style="fill:#ffffff;fill-opacity:1;fill-rule:nonzero;stroke:none"
             d="m 0,0 0.072,-0.177 c 0.319,-0.792 0.639,-1.584 0.959,-2.375 -1.43,-0.473 -2.153,-2.147 -2.041,-3.626 0.055,-0.722 0.444,-1.473 1.193,-1.668 0.657,-0.171 1.342,0.222 1.498,0.883 0.126,0.533 -0.695,0.761 -0.822,0.227 -0.136,-0.576 -0.755,-0.199 -0.914,0.142 -0.205,0.439 -0.112,1.016 -0.012,1.467 0.191,0.858 0.709,1.763 1.676,1.848 0.244,0.021 0.524,0.26 0.411,0.539 C 1.644,-1.809 1.268,-0.879 0.893,0.052 0.869,0.11 0.845,0.168 0.822,0.227 0.619,0.729 -0.206,0.509 0,0" /></g><g
           transform="translate(7.4373,27.9669)"
           id="g96"><path
             id="path98"
             style="fill:#ffffff;fill-opacity:1;fill-rule:nonzero;stroke:none"
             d="M 0,0 C 0.548,0 0.549,0.852 0,0.852 -0.548,0.852 -0.549,0 0,0" /></g><g
           transform="translate(5.619,32.7397)"
           id="g100"><path
             id="path102"
             style="fill:#ffffff;fill-opacity:1;fill-rule:nonzero;stroke:none"
             d="M 0,0 C -0.548,0 -0.549,-0.852 0,-0.852 0.548,-0.852 0.549,0 0,0" /></g><g
           transform="translate(37.8715,7.0773)"
           id="g104"><path
             id="path106"
             style="fill:#ffffff;fill-opacity:1;fill-rule:nonzero;stroke:none"
             d="m 0,0 c -0.082,-0.024 -0.165,-0.035 -0.247,-0.055 -0.005,-0.632 0.283,-1.306 0.876,-1.588 0.562,-0.266 1.283,-0.06 1.534,0.53 0.213,0.498 -0.521,0.933 -0.736,0.43 -0.291,-0.682 -0.834,0.238 -0.831,0.615 0.004,0.484 0.29,0.932 0.747,1.112 0.932,0.367 1.579,-0.526 2.214,-1.041 1.308,-1.062 3.311,-2.06 5.037,-1.629 0.702,0.175 1.308,0.709 1.584,1.342 -0.058,0.037 -0.125,0.058 -0.181,0.1 C 9.601,0.117 9.928,0.754 10.321,0.603 10.284,0.959 10.134,1.311 9.814,1.621 8.686,2.713 6.922,1.845 6.882,0.346 6.868,-0.203 7.72,-0.203 7.734,0.346 7.761,1.33 9.149,1.644 9.458,0.64 9.791,-0.441 8.359,-0.914 7.578,-0.86 6.626,-0.796 5.661,-0.38 4.858,0.116 4.118,0.573 3.561,1.302 2.802,1.715 1.739,2.292 0.475,1.821 -0.025,0.83 0.348,0.755 0.451,0.132 0,0" /></g><g
           transform="translate(47.8688,6.8932)"
           id="g108"><path
             id="path110"
             style="fill:#ffffff;fill-opacity:1;fill-rule:nonzero;stroke:none"
             d="m 0,0 c 0.056,-0.042 0.122,-0.063 0.181,-0.1 0.693,-0.433 1.583,-0.495 2.326,-0.144 0.454,0.213 0.666,0.562 1.02,0.888 0.642,0.591 1.728,-0.207 1.715,-0.956 -0.009,-0.548 0.844,-0.549 0.853,0 0.002,0.157 -0.018,0.31 -0.057,0.458 C 5.978,0.129 5.917,0.126 5.858,0.095 5.372,-0.159 4.941,0.577 5.428,0.831 5.497,0.867 5.567,0.884 5.637,0.91 5.142,1.507 4.32,1.857 3.551,1.641 2.942,1.47 2.736,0.836 2.208,0.556 1.622,0.245 0.945,0.344 0.43,0.736 0.394,0.763 0.359,0.773 0.324,0.787 -0.07,0.939 -0.396,0.301 0,0" /></g><g
           transform="translate(52.4603,6.4955)"
           id="g112"><path
             id="path114"
             style="fill:#ffffff;fill-opacity:1;fill-rule:nonzero;stroke:none"
             d="M 0,0 C -0.548,0 -0.549,-0.852 0,-0.852 0.548,-0.852 0.549,0 0,0" /></g><g
           transform="translate(43.6532,7.9728)"
           id="g116"><path
             id="path118"
             style="fill:#ffffff;fill-opacity:1;fill-rule:nonzero;stroke:none"
             d="M 0,0 C 0.548,0 0.549,0.852 0,0.852 -0.548,0.852 -0.549,0 0,0" /></g><g
           transform="translate(53.7267,6.9882)"
           id="g120"><path
             id="path122"
             style="fill:#ffffff;fill-opacity:1;fill-rule:nonzero;stroke:none"
             d="m 0,0 c 0.059,0.031 0.12,0.034 0.18,0.051 0.449,0.13 0.932,-0.06 1.354,-0.223 0.54,-0.21 1.072,-0.445 1.616,-0.646 0.803,-0.296 1.724,-0.454 2.489,0.036 C 7.126,0.172 6.052,2.534 4.372,1.776 3.872,1.551 4.305,0.816 4.802,1.04 5.181,1.211 5.54,0.873 5.522,0.491 5.503,0.085 5.124,-0.153 4.766,-0.227 4.141,-0.356 3.482,-0.041 2.915,0.186 1.944,0.575 0.824,1.21 -0.221,0.815 -0.291,0.789 -0.361,0.772 -0.43,0.736 -0.916,0.482 -0.486,-0.254 0,0" /></g><g
           transform="translate(59.5251,14.7687)"
           id="g124"><path
             id="path126"
             style="fill:#ffffff;fill-opacity:1;fill-rule:nonzero;stroke:none"
             d="M 0,0 C -0.002,-0.022 -0.011,-0.038 -0.01,-0.062 0.04,-1.218 -0.041,-2.374 0.754,-3.303 1.118,-3.729 1.638,-4.096 1.808,-4.654 1.929,-5.052 1.723,-5.47 1.265,-5.47 c -0.349,10e-4 -0.59,0.286 -0.734,0.57 -0.248,0.49 -0.984,0.059 -0.736,-0.43 0.325,-0.642 0.999,-1.108 1.742,-0.965 0.687,0.131 1.185,0.71 1.168,1.417 -0.019,0.798 -0.598,1.379 -1.111,1.92 -0.326,0.344 -0.58,0.686 -0.657,1.165 -0.065,0.4 -0.074,0.814 -0.082,1.225 C 0.531,-0.457 0.238,-0.258 0,0" /></g><g
           transform="translate(58.7934,20.4274)"
           id="g128"><path
             id="path130"
             style="fill:#ffffff;fill-opacity:1;fill-rule:nonzero;stroke:none"
             d="m 0,0 c 0.318,-0.355 0.69,-0.517 1.067,-0.555 -0.142,0.391 0.491,0.71 0.79,0.317 C 1.899,-0.293 1.92,-0.359 1.956,-0.417 2.588,-0.142 3.123,0.46 3.299,1.165 3.723,2.862 2.76,4.828 1.73,6.126 1.209,6.782 0.252,7.458 0.629,8.416 0.807,8.87 1.258,9.162 1.741,9.164 2.116,9.164 3.04,8.624 2.356,8.332 1.853,8.117 2.287,7.383 2.786,7.596 3.357,7.839 3.57,8.524 3.337,9.079 3.077,9.696 2.384,10.018 1.741,10.016 0.179,10.011 -0.777,8.311 -0.042,6.958 0.355,6.226 1.057,5.687 1.505,4.982 2.008,4.191 2.411,3.266 2.517,2.328 2.608,1.522 2.248,0.077 1.129,0.284 0.047,0.483 0.283,1.997 1.327,2.025 c 0.548,0.014 0.55,0.867 0,0.852 C -0.132,2.838 -1.024,1.144 0,0" /></g><g
           transform="translate(59.8602,19.8726)"
           id="g132"><path
             id="path134"
             style="fill:#ffffff;fill-opacity:1;fill-rule:nonzero;stroke:none"
             d="m 0,0 c 0.014,-0.038 0.025,-0.075 0.054,-0.114 0.376,-0.493 0.48,-1.12 0.218,-1.695 -0.262,-0.576 -0.938,-0.794 -1.123,-1.425 -0.195,-0.668 0.055,-1.37 0.516,-1.87 0.238,-0.258 0.531,-0.457 0.855,-0.568 0.188,-0.064 0.381,-0.109 0.582,-0.106 0.548,0.009 0.55,0.861 0,0.852 -0.694,-0.011 -1.464,0.931 -1.044,1.59 0.277,0.435 0.744,0.651 0.977,1.145 0.351,0.744 0.288,1.635 -0.146,2.329 C 0.853,0.196 0.832,0.262 0.79,0.317 0.491,0.71 -0.141,0.391 0,0" /></g><g
           transform="translate(61.4742,15.1715)"
           id="g136"><path
             id="path138"
             style="fill:#ffffff;fill-opacity:1;fill-rule:nonzero;stroke:none"
             d="M 0,0 C 0.548,0 0.549,0.852 0,0.852 -0.548,0.852 -0.549,0 0,0" /></g><g
           transform="translate(59.1447,23.9786)"
           id="g140"><path
             id="path142"
             style="fill:#ffffff;fill-opacity:1;fill-rule:nonzero;stroke:none"
             d="M 0,0 C 0.548,0 0.549,0.852 0,0.852 -0.548,0.852 -0.549,0 0,0" /></g><g
           transform="translate(59.0468,31.9919)"
           id="g144"><path
             id="path146"
             style="fill:#ffffff;fill-opacity:1;fill-rule:nonzero;stroke:none"
             d="m 0,0 c -0.487,-0.254 -0.056,-0.989 0.43,-0.736 0.533,0.278 1.3,0.685 1.808,0.152 C 2.617,-0.983 3.219,-0.379 2.84,0.018 2.032,0.867 0.893,0.465 0,0" /></g><g
           transform="translate(60.0421,36.0719)"
           id="g148"><path
             id="path150"
             style="fill:#ffffff;fill-opacity:1;fill-rule:nonzero;stroke:none"
             d="M 0,0 C 0.538,0.453 1.279,0.107 1.362,-0.566 1.428,-1.098 1.218,-1.709 0.802,-2.057 0.684,-2.04 0.568,-2.081 0.481,-2.189 0.048,-2.249 -0.622,-2.021 -0.624,-1.593 -0.626,-1.081 -0.4,-0.337 0,0 m 0.974,-2.915 c 0.068,0.002 0.14,0.019 0.213,0.075 0.841,0.634 1.308,1.859 0.896,2.878 -0.405,0.999 -1.662,1.321 -2.521,0.697 -0.421,-0.306 -0.678,-0.772 -0.832,-1.26 -0.15,-0.477 -0.378,-1.225 -0.084,-1.69 0.336,-0.528 1.728,-1.196 2.328,-0.7" /></g><g
           transform="translate(60.3773,34.4509)"
           id="g152"><path
             id="path154"
             style="fill:#ffffff;fill-opacity:1;fill-rule:nonzero;stroke:none"
             d="m 0,0 c 0.231,0.01 0.426,0.187 0.426,0.426 l 0,0.038 C 0.426,0.687 0.23,0.901 0,0.89 -0.231,0.88 -0.426,0.703 -0.426,0.464 l 0,-0.038 C -0.426,0.203 -0.23,-0.01 0,0" /></g><g
           transform="translate(61.5421,44.4634)"
           id="g156"><path
             id="path158"
             style="fill:#ffffff;fill-opacity:1;fill-rule:nonzero;stroke:none"
             d="m 0,0 c 0.085,-1.62 -1.881,-2.507 -2.524,-3.83 -0.492,-1.01 -0.351,-2.497 0.829,-2.953 1.153,-0.446 3.273,0.907 2.078,2.115 -0.386,0.39 -0.989,-0.212 -0.603,-0.603 0.358,-0.361 -0.549,-0.732 -0.739,-0.757 -0.348,-0.047 -0.646,0.083 -0.83,0.385 -0.308,0.502 -0.154,1.147 0.126,1.618 0.654,1.1 1.859,1.751 2.336,2.981 0.42,1.079 0.044,2.284 -0.747,3.091 -0.431,0.44 -0.982,0.729 -1.443,1.134 -0.224,0.197 -0.428,0.425 -0.533,0.71 -0.091,0.25 -0.178,1.089 0.379,0.89 0.517,-0.186 0.74,0.637 0.227,0.822 C -2.021,5.809 -2.598,5.479 -2.846,4.943 -3.092,4.412 -2.977,3.777 -2.702,3.281 -1.99,1.995 -0.088,1.686 0,0" /></g><g
           transform="translate(60.7844,49.4988)"
           id="g160"><path
             id="path162"
             style="fill:#ffffff;fill-opacity:1;fill-rule:nonzero;stroke:none"
             d="m 0,0 0,-0.038 c 0,-0.223 0.196,-0.436 0.426,-0.426 0.231,0.01 0.426,0.187 0.426,0.426 L 0.852,0 C 0.852,0.223 0.656,0.436 0.426,0.426 0.195,0.416 0,0.239 0,0" /></g><g
           transform="translate(59.4418,43.5002)"
           id="g164"><path
             id="path166"
             style="fill:#ffffff;fill-opacity:1;fill-rule:nonzero;stroke:none"
             d="m 0,0 c -0.43,-0.329 -0.006,-1.069 0.43,-0.736 0.941,0.72 0.941,1.958 0.15,2.8 C 0.204,2.464 -0.398,1.861 -0.022,1.461 0.353,1.061 0.497,0.38 0,0" /></g><g
           transform="translate(61.7031,40.3224)"
           id="g168"><path
             id="path170"
             style="fill:#ffffff;fill-opacity:1;fill-rule:nonzero;stroke:none"
             d="M 0,0 C 0.548,0 0.549,0.852 0,0.852 -0.548,0.852 -0.549,0 0,0" /></g><g
           transform="translate(60.2435,50.8132)"
           id="g172"><path
             id="path174"
             style="fill:#ffffff;fill-opacity:1;fill-rule:nonzero;stroke:none"
             d="M 0,0 C 0.129,-0.071 0.302,-0.084 0.43,0 0.97,0.355 1.422,1.012 1.861,1.484 2.234,1.885 1.633,2.489 1.258,2.087 1.045,1.858 0.832,1.629 0.619,1.4 0.491,1.262 0.354,1.074 0.207,0.919 0.058,1.072 -0.081,1.266 -0.199,1.401 -0.403,1.636 -0.599,1.878 -0.79,2.123 -1.127,2.555 -1.726,1.948 -1.393,1.52 -1.012,1.033 -0.551,0.301 0,0" /></g><g
           transform="translate(60.2435,53.2383)"
           id="g176"><path
             id="path178"
             style="fill:#ffffff;fill-opacity:1;fill-rule:nonzero;stroke:none"
             d="M 0,0 C 0.129,-0.071 0.302,-0.084 0.43,0 0.97,0.355 1.422,1.012 1.861,1.484 2.234,1.885 1.633,2.489 1.258,2.087 1.045,1.858 0.832,1.629 0.619,1.4 0.491,1.262 0.354,1.074 0.207,0.919 0.058,1.072 -0.081,1.266 -0.199,1.401 -0.403,1.636 -0.599,1.878 -0.79,2.123 -1.127,2.555 -1.726,1.948 -1.393,1.52 -1.012,1.033 -0.551,0.301 0,0" /></g><g
           transform="translate(59.4199,59.8002)"
           id="g180"><path
             id="path182"
             style="fill:#ffffff;fill-opacity:1;fill-rule:nonzero;stroke:none"
             d="M 0,0 C 0.541,0.3 0.882,-0.667 1.063,-1.008 1.166,-1.203 1.286,-1.385 1.427,-1.545 0.684,-1.982 0.051,-2.561 -0.464,-3.27 c -0.323,-0.445 0.417,-0.871 0.736,-0.431 0.558,0.768 1.29,1.335 2.152,1.723 0.28,0.127 0.278,0.609 0,0.736 C 1.732,-0.924 1.656,-0.013 1.135,0.493 0.994,0.63 0.828,0.721 0.656,0.789 0.866,1.043 1.093,1.28 1.337,1.5 l -1.192,0 C -0.112,1.208 -0.368,0.916 -0.583,0.583 -0.822,0.212 -0.358,-0.198 0,0" /></g><g
           transform="translate(61.307,60.8611)"
           id="g184"><path
             id="path186"
             style="fill:#ffffff;fill-opacity:1;fill-rule:nonzero;stroke:none"
             d="m 0,0 c -0.019,-0.019 -0.038,-0.038 -0.057,-0.057 -0.158,-0.158 -0.169,-0.447 0,-0.602 0.17,-0.157 0.434,-0.169 0.603,0 l 0.057,0.056 C 0.76,-0.445 0.772,-0.156 0.603,0 0.433,0.156 0.168,0.168 0,0" /></g><g
           transform="translate(19.2449,6.8932)"
           id="g188"><path
             id="path190"
             style="fill:#ffffff;fill-opacity:1;fill-rule:nonzero;stroke:none"
             d="M 0,0 C -0.055,-0.042 -0.121,-0.063 -0.179,-0.099 0.096,-0.731 0.698,-1.266 1.403,-1.442 3.101,-1.866 5.067,-0.903 6.364,0.127 7.02,0.648 7.696,1.605 8.655,1.228 9.108,1.05 9.401,0.599 9.402,0.116 9.403,-0.259 8.862,-1.183 8.57,-0.499 8.355,0.004 7.621,-0.43 7.834,-0.929 8.078,-1.5 8.762,-1.713 9.317,-1.48 c 0.575,0.242 0.881,0.859 0.921,1.462 C 10.104,0.006 9.972,0.024 9.836,0.064 9.31,0.22 9.535,1.042 10.062,0.886 10.07,0.884 10.077,0.883 10.085,0.881 9.636,1.957 8.307,2.502 7.196,1.899 6.465,1.502 5.925,0.8 5.221,0.352 4.429,-0.151 3.505,-0.554 2.566,-0.66 1.761,-0.751 0.316,-0.391 0.522,0.728 0.721,1.81 2.235,1.574 2.263,0.53 2.278,-0.018 3.13,-0.02 3.115,0.53 3.076,1.989 1.382,2.881 0.238,1.857 -0.117,1.539 -0.278,1.167 -0.317,0.79 0.074,0.932 0.393,0.299 0,0" /></g><g
           transform="translate(13.387,6.9882)"
           id="g192"><path
             id="path194"
             style="fill:#ffffff;fill-opacity:1;fill-rule:nonzero;stroke:none"
             d="m 0,0 c -0.058,0.03 -0.12,0.034 -0.179,0.051 -0.039,-0.149 -0.06,-0.302 -0.058,-0.458 0.009,-0.548 0.862,-0.549 0.853,0 -0.012,0.694 0.93,1.464 1.59,1.044 C 2.64,0.36 2.857,-0.107 3.351,-0.339 4.095,-0.69 4.985,-0.628 5.679,-0.194 5.737,-0.158 5.803,-0.137 5.858,-0.095 6.251,0.204 5.932,0.837 5.541,0.695 5.504,0.682 5.466,0.67 5.428,0.641 4.934,0.266 4.307,0.161 3.732,0.423 3.156,0.685 2.939,1.361 2.307,1.546 1.539,1.771 0.718,1.415 0.222,0.815 0.292,0.789 0.362,0.772 0.43,0.736 0.917,0.481 0.486,-0.254 0,0" /></g><g
           transform="translate(14.6534,6.4955)"
           id="g196"><path
             id="path198"
             style="fill:#ffffff;fill-opacity:1;fill-rule:nonzero;stroke:none"
             d="M 0,0 C -0.548,0 -0.549,-0.852 0,-0.852 0.548,-0.852 0.549,0 0,0" /></g><g
           transform="translate(23.4605,7.9728)"
           id="g200"><path
             id="path202"
             style="fill:#ffffff;fill-opacity:1;fill-rule:nonzero;stroke:none"
             d="M 0,0 C 0.548,0 0.549,0.852 0,0.852 -0.548,0.852 -0.549,0 0,0" /></g><g
           transform="translate(7.7484,6.2062)"
           id="g204"><path
             id="path206"
             style="fill:#ffffff;fill-opacity:1;fill-rule:nonzero;stroke:none"
             d="M 0,0 C 0.765,-0.49 1.685,-0.332 2.489,-0.036 3.033,0.165 3.564,0.4 4.105,0.609 4.527,0.773 5.01,0.963 5.459,0.833 5.519,0.815 5.58,0.812 5.639,0.782 6.124,0.528 6.556,1.263 6.069,1.518 6,1.554 5.93,1.571 5.861,1.597 4.816,1.992 3.695,1.357 2.723,0.968 2.155,0.74 1.5,0.429 0.872,0.555 0.517,0.627 0.132,0.868 0.116,1.273 0.102,1.652 0.455,1.994 0.837,1.822 1.333,1.598 1.767,2.332 1.267,2.558 -0.414,3.316 -1.487,0.954 0,0" /></g><g
           transform="translate(6.7302,14.1979)"
           id="g208"><path
             id="path210"
             style="fill:#ffffff;fill-opacity:1;fill-rule:nonzero;stroke:none"
             d="m 0,0 c -0.01,-0.367 -0.021,-0.736 -0.065,-1.098 -0.065,-0.536 -0.305,-0.905 -0.671,-1.29 -0.513,-0.539 -1.092,-1.121 -1.111,-1.919 -0.016,-0.705 0.483,-1.287 1.168,-1.417 0.743,-0.142 1.417,0.323 1.743,0.965 0.247,0.488 -0.488,0.92 -0.736,0.43 -0.144,-0.284 -0.384,-0.569 -0.735,-0.57 -0.394,-0.001 -0.634,0.332 -0.565,0.704 0.114,0.616 0.693,1.014 1.076,1.463 0.795,0.929 0.714,2.084 0.764,3.241 C 0.869,0.532 0.86,0.549 0.858,0.57 0.621,0.31 0.328,0.111 0,0" /></g><g
           transform="translate(6.2894,19.8745)"
           id="g212"><path
             id="path214"
             style="fill:#ffffff;fill-opacity:1;fill-rule:nonzero;stroke:none"
             d="m 0,0 c -0.36,-0.673 -0.399,-1.496 -0.07,-2.193 0.213,-0.453 0.562,-0.665 0.888,-1.02 0.591,-0.641 -0.207,-1.727 -0.956,-1.715 -0.549,0.009 -0.549,-0.843 0,-0.852 0.201,-0.003 0.393,0.041 0.579,0.103 0.327,0.111 0.62,0.311 0.858,0.571 0.458,0.499 0.704,1.201 0.516,1.87 -0.171,0.609 -0.805,0.814 -1.085,1.342 -0.311,0.586 -0.212,1.263 0.18,1.778 0.022,0.029 0.028,0.057 0.041,0.086 C 0.636,-0.112 0.302,-0.099 0,0" /></g><g
           transform="translate(5.6395,16.0238)"
           id="g216"><path
             id="path218"
             style="fill:#ffffff;fill-opacity:1;fill-rule:nonzero;stroke:none"
             d="M 0,0 C -0.548,0 -0.549,-0.852 0,-0.852 0.548,-0.852 0.549,0 0,0" /></g><g
           transform="translate(7.9691,24.8309)"
           id="g220"><path
             id="path222"
             style="fill:#ffffff;fill-opacity:1;fill-rule:nonzero;stroke:none"
             d="M 0,0 C -0.548,0 -0.549,-0.852 0,-0.852 0.548,-0.852 0.549,0 0,0" /></g><g
           transform="translate(7.6591,22.7947)"
           id="g224"><path
             id="path226"
             style="fill:#ffffff;fill-opacity:1;fill-rule:nonzero;stroke:none"
             d="m 0,0 c -0.414,0.278 -0.907,0.29 -1.36,0.462 -0.255,0.097 -0.489,0.246 -0.427,0.542 0.039,0.181 0.418,0.58 0.62,0.407 0.414,-0.355 1.019,0.245 0.602,0.603 -1.134,0.973 -2.818,-0.871 -1.763,-1.941 0.226,-0.23 0.527,-0.368 0.83,-0.464 0.421,-0.134 0.972,-0.127 1.24,-0.538 0.2,-0.306 0.198,-0.753 -0.055,-1.029 -0.445,-0.484 -1.189,-0.185 -1.15,0.468 0.033,0.548 -0.82,0.546 -0.853,0 -0.046,-0.768 0.391,-1.247 0.946,-1.43 0.302,-0.1 0.636,-0.112 0.951,-0.03 0.511,0.132 0.964,0.504 1.109,1.133 C 0.846,-1.144 0.578,-0.389 0,0" /></g><g
           transform="translate(29.0806,6.9573)"
           id="g228"><path
             id="path230"
             style="fill:#ffffff;fill-opacity:1;fill-rule:nonzero;stroke:none"
             d="M 0,0 C 0.136,-0.04 0.269,-0.058 0.402,-0.082 1.13,-0.215 1.831,-0.133 2.553,0.109 3.17,0.317 3.771,0.573 4.192,1.051 4.083,1.139 3.971,1.223 3.868,1.321 3.479,1.691 4.046,2.268 4.443,1.941 4.27,2.157 3.914,2.224 3.757,1.909 3.447,1.284 2.788,1.079 2.165,0.878 1.514,0.667 0.91,0.626 0.249,0.817 0.242,0.819 0.234,0.82 0.227,0.822 -0.3,0.978 -0.526,0.156 0,0" /></g><g
           transform="translate(32.9488,8.2779)"
           id="g232"><path
             id="path234"
             style="fill:#ffffff;fill-opacity:1;fill-rule:nonzero;stroke:none"
             d="m 0,0 c 0.103,-0.098 0.214,-0.182 0.324,-0.269 1.219,-0.981 2.823,-1.352 4.352,-0.986 0.082,0.019 0.165,0.03 0.247,0.054 C 5.374,-1.068 5.27,-0.445 4.897,-0.37 4.836,-0.358 4.77,-0.357 4.696,-0.379 3.251,-0.802 1.697,-0.437 0.603,0.603 0.594,0.611 0.584,0.613 0.575,0.62 0.178,0.947 -0.39,0.37 0,0" /></g><g
           transform="translate(33.262,6.7446)"
           id="g236"><path
             id="path238"
             style="fill:#ffffff;fill-opacity:1;fill-rule:nonzero;stroke:none"
             d="M 0,0 C -0.548,0 -0.549,-0.852 0,-0.852 0.548,-0.852 0.549,0 0,0" /></g><g
           transform="translate(30.8471,6.5457)"
           id="g240"><path
             id="path242"
             style="fill:#ffffff;fill-opacity:1;fill-rule:nonzero;stroke:none"
             d="m 0,0 -0.028,0 c -0.223,0 -0.437,-0.196 -0.427,-0.426 0.011,-0.231 0.188,-0.426 0.427,-0.426 l 0.028,0 c 0.223,0 0.437,0.196 0.426,0.426 C 0.416,-0.195 0.239,0 0,0" /></g><g
           transform="translate(35.5632,6.5173)"
           id="g244"><path
             id="path246"
             style="fill:#ffffff;fill-opacity:1;fill-rule:nonzero;stroke:none"
             d="M 0,0 C -0.548,0 -0.549,-0.852 0,-0.852 0.548,-0.852 0.549,0 0,0" /></g><g
           transform="translate(31.7698,56.478)"
           id="g248"><path
             id="path250"
             style="fill:#ffffff;fill-opacity:1;fill-rule:nonzero;stroke:none"
             d="m 0,0 c -0.906,-2.089 -3.274,-3.24 -5.47,-2.591 -1.088,0.321 -2.102,1.06 -2.639,2.073 -0.535,1.008 -0.445,2.523 0.826,2.906 0.524,0.157 0.3,0.98 -0.227,0.822 -1.852,-0.558 -2.146,-2.732 -1.289,-4.24 0.914,-1.607 2.782,-2.606 4.614,-2.603 1.846,0.003 3.617,1.004 4.588,2.569 C 1.382,0.514 1.459,2.454 1.156,4.239 1.122,4.435 1.067,4.627 1.025,4.822 l -0.859,0 C 0.551,3.237 0.655,1.509 0,0" /></g><g
           transform="translate(26.8759,59.7809)"
           id="g252"><path
             id="path254"
             style="fill:#ffffff;fill-opacity:1;fill-rule:nonzero;stroke:none"
             d="m 0,0 c 1.113,-0.107 2.212,0.434 2.726,1.442 0.013,0.025 0.02,0.052 0.032,0.077 l -1.052,0 C 1.159,0.879 0.261,0.607 -0.616,1.038 -0.858,1.156 -1.038,1.328 -1.185,1.519 l -0.953,0 C -1.764,0.721 -1.02,0.098 0,0" /></g><g
           transform="translate(14.9984,58.3411)"
           id="g256"><path
             id="path258"
             style="fill:#ffffff;fill-opacity:1;fill-rule:nonzero;stroke:none"
             d="M 0,0 C 1.998,-1.516 4.796,-1.757 6.551,0.244 7.212,0.997 7.65,1.955 7.852,2.959 l -0.864,0 C 6.7,1.676 5.95,0.495 4.776,-0.075 2.704,-1.083 -0.247,0.498 -0.972,2.591 c -0.041,0.12 -0.07,0.244 -0.097,0.368 l -0.853,0 C -1.67,1.806 -0.925,0.702 0,0" /></g><g
           transform="translate(15.7024,60.3151)"
           id="g260"><path
             id="path262"
             style="fill:#ffffff;fill-opacity:1;fill-rule:nonzero;stroke:none"
             d="M 0,0 C 0.548,0 0.549,0.852 0,0.852 -0.548,0.852 -0.549,0 0,0" /></g><g
           transform="translate(17.1797,59.6332)"
           id="g264"><path
             id="path266"
             style="fill:#ffffff;fill-opacity:1;fill-rule:nonzero;stroke:none"
             d="M 0,0 C 0.548,0 0.549,0.852 0,0.852 -0.548,0.852 -0.549,0 0,0" /></g><g
           transform="translate(19.1116,59.7468)"
           id="g268"><path
             id="path270"
             style="fill:#ffffff;fill-opacity:1;fill-rule:nonzero;stroke:none"
             d="M 0,0 C 0.548,0 0.549,0.852 0,0.852 -0.548,0.852 -0.549,0 0,0" /></g><g
           transform="translate(30.3613,56.3364)"
           id="g272"><path
             id="path274"
             style="fill:#ffffff;fill-opacity:1;fill-rule:nonzero;stroke:none"
             d="M 0,0 C 0.28,0.473 -0.457,0.903 -0.736,0.43 -1.588,-1.012 -3.586,-0.915 -4.343,0.558 -4.594,1.046 -5.329,0.615 -5.079,0.127 -4.024,-1.924 -1.163,-1.969 0,0" /></g><g
           transform="translate(34.3881,56.5975)"
           id="g276"><path
             id="path278"
             style="fill:#ffffff;fill-opacity:1;fill-rule:nonzero;stroke:none"
             d="m 0,0 c 0.599,-1.745 2.006,-3.103 3.8,-3.577 1.993,-0.526 4.221,0.199 5.521,1.8 0.649,0.8 1.069,1.837 0.883,2.878 C 10.036,2.038 9.378,2.815 8.466,3.09 7.939,3.249 7.714,2.426 8.239,2.268 9.308,1.947 9.587,0.727 9.248,-0.23 8.901,-1.209 8.062,-1.978 7.148,-2.43 5.328,-3.33 3.103,-2.869 1.749,-1.369 0.431,0.091 0.309,2.224 0.654,4.069 0.693,4.283 0.758,4.491 0.809,4.703 l -0.893,0 C -0.433,3.157 -0.515,1.501 0,0" /></g><g
           transform="translate(39.4702,59.8094)"
           id="g280"><path
             id="path282"
             style="fill:#ffffff;fill-opacity:1;fill-rule:nonzero;stroke:none"
             d="m 0,0 c 1.183,-0.196 2.43,0.343 2.938,1.461 0.004,0.009 0.006,0.02 0.01,0.03 l -0.986,0 C 1.903,1.415 1.846,1.337 1.772,1.27 0.983,0.562 -0.321,0.696 -0.981,1.491 l -1.005,0 C -1.602,0.712 -0.893,0.148 0,0" /></g><g
           transform="translate(47.6098,57.2538)"
           id="g284"><path
             id="path286"
             style="fill:#ffffff;fill-opacity:1;fill-rule:nonzero;stroke:none"
             d="m 0,0 c 1.243,-0.355 2.578,-0.044 3.691,0.558 1.295,0.7 2.458,2.033 2.768,3.488 l -0.884,0 C 5.097,1.991 2.609,0.403 0.575,0.742 -1.067,1.015 -2.116,2.477 -2.478,4.046 l -0.867,0 C -3.206,3.328 -2.951,2.63 -2.553,2.008 -1.957,1.077 -1.077,0.308 0,0" /></g><g
           transform="translate(51.4113,60.3151)"
           id="g288"><path
             id="path290"
             style="fill:#ffffff;fill-opacity:1;fill-rule:nonzero;stroke:none"
             d="M 0,0 C 0.548,0 0.549,0.852 0,0.852 -0.548,0.852 -0.549,0 0,0" /></g><g
           transform="translate(49.934,59.6332)"
           id="g292"><path
             id="path294"
             style="fill:#ffffff;fill-opacity:1;fill-rule:nonzero;stroke:none"
             d="M 0,0 C 0.548,0 0.549,0.852 0,0.852 -0.548,0.852 -0.549,0 0,0" /></g><g
           transform="translate(48.0021,59.7468)"
           id="g296"><path
             id="path298"
             style="fill:#ffffff;fill-opacity:1;fill-rule:nonzero;stroke:none"
             d="M 0,0 C 0.548,0 0.549,0.852 0,0.852 -0.548,0.852 -0.549,0 0,0" /></g><g
           transform="translate(41.0951,56.894)"
           id="g300"><path
             id="path302"
             style="fill:#ffffff;fill-opacity:1;fill-rule:nonzero;stroke:none"
             d="M 0,0 C -0.757,-1.472 -2.754,-1.571 -3.607,-0.127 -3.886,0.344 -4.623,-0.084 -4.343,-0.558 -3.18,-2.526 -0.319,-2.481 0.736,-0.43 0.986,0.057 0.251,0.488 0,0" /></g><g
           transform="translate(24.2599,44.7018)"
           id="g304"><path
             id="path306"
             style="fill:#ffffff;fill-opacity:1;fill-rule:nonzero;stroke:none"
             d="m 0,0 c 0.526,-0.158 0.751,0.664 0.227,0.822 -1.07,0.322 -1.348,1.541 -1.009,2.498 0.347,0.979 1.186,1.748 2.1,2.2 1.82,0.9 4.045,0.439 5.399,-1.061 C 8.034,2.999 8.156,0.867 7.812,-0.979 7.447,-2.94 6.62,-4.82 5.593,-6.52 4.568,-8.216 3.286,-9.743 1.806,-11.06 c -1.24,-1.104 -2.601,-2.091 -3.68,-3.364 -1.057,-1.246 -1.851,-2.807 -1.802,-4.479 0.049,-1.622 0.855,-3.213 2.125,-4.219 1.505,-1.191 3.791,-1.595 5.169,0.003 1.535,1.78 0.988,4.189 0.163,6.156 -0.088,0.211 -0.286,0.287 -0.47,0.274 0.374,-0.053 0.604,-0.582 0.188,-0.764 -0.127,-0.056 -0.241,-0.128 -0.356,-0.199 0.668,-1.763 1.159,-4.182 -0.687,-5.361 -1.779,-1.137 -4.003,0.619 -4.783,2.185 -0.841,1.687 -0.509,3.552 0.509,5.079 0.963,1.444 2.391,2.512 3.696,3.625 2.993,2.552 5.363,5.895 6.465,9.699 0.511,1.763 0.73,3.747 0.123,5.515 C 7.867,4.836 6.459,6.193 4.665,6.667 2.673,7.193 0.445,6.468 -0.855,4.867 -1.505,4.067 -1.924,3.03 -1.738,1.99 -1.57,1.052 -0.913,0.275 0,0" /></g><g
           transform="translate(22.8603,21.0031)"
           id="g308"><path
             id="path310"
             style="fill:#ffffff;fill-opacity:1;fill-rule:nonzero;stroke:none"
             d="m 0,0 c -2.931,-0.019 -4.676,2.931 -4.421,5.599 0.294,3.063 2.536,5.434 4.88,7.199 2.041,1.538 4.469,2.827 5.822,5.084 0.634,1.056 1.004,2.336 0.722,3.563 C 6.749,22.55 5.907,23.391 4.783,23.577 3.6,23.773 2.353,23.234 1.846,22.116 1.341,21.007 1.614,19.622 2.535,18.818 c 0.411,-0.36 1.017,0.241 0.603,0.603 -0.816,0.712 -0.978,2.12 -0.126,2.886 0.856,0.769 2.329,0.555 2.915,-0.43 C 6.587,20.77 6.158,19.334 5.545,18.312 4.91,17.253 3.968,16.406 2.995,15.662 0.951,14.101 -1.276,12.801 -2.952,10.807 -4.591,8.857 -5.652,6.313 -5.19,3.738 -4.745,1.261 -2.587,-0.869 0,-0.852 0.548,-0.849 0.549,0.004 0,0" /></g><g
           transform="translate(13.0535,24.5402)"
           id="g312"><path
             id="path314"
             style="fill:#ffffff;fill-opacity:1;fill-rule:nonzero;stroke:none"
             d="M 0,0 C 1.155,0.171 2.187,0.654 3.088,1.391 3.513,1.739 2.906,2.339 2.485,1.994 1.952,1.558 1.354,1.253 0.715,1.049 1.054,1.796 1.259,2.576 1.507,3.389 1.666,3.912 1.891,4.45 2.326,4.805 2.75,5.15 3.459,5.249 3.801,4.731 4.102,4.275 4.84,4.702 4.537,5.161 3.76,6.339 2.189,6.054 1.394,5.061 0.928,4.48 0.716,3.766 0.531,3.057 0.304,2.184 0.016,1.385 -0.481,0.626 -0.708,0.28 -0.335,-0.049 0,0" /></g><g
           transform="translate(18.0264,20.5768)"
           id="g316"><path
             id="path318"
             style="fill:#ffffff;fill-opacity:1;fill-rule:nonzero;stroke:none"
             d="m 0,0 c -0.053,-0.994 -0.53,-1.858 -1.325,-2.449 -0.196,-0.146 -0.396,-0.284 -0.591,-0.425 -0.133,0.56 -0.453,1.116 -0.721,1.653 -0.623,1.241 -0.461,2.778 0.41,3.862 0.341,0.424 -0.258,1.03 -0.602,0.603 -0.763,-0.948 -1.145,-2.131 -1.013,-3.349 0.068,-0.618 0.27,-1.178 0.563,-1.723 0.28,-0.523 0.819,-1.297 0.493,-1.906 -0.051,-0.078 -0.111,-0.146 -0.153,-0.234 -0.193,-0.404 0.34,-0.917 0.669,-0.516 0.025,0.03 0.037,0.061 0.059,0.092 0.003,-0.002 0.005,-0.004 0.008,-0.006 0.403,0.844 1.422,1.16 2.028,1.839 C 0.463,-1.845 0.802,-0.951 0.852,0 0.881,0.548 0.029,0.547 0,0" /></g><g
           transform="translate(16.8388,22.2555)"
           id="g320"><path
             id="path322"
             style="fill:#ffffff;fill-opacity:1;fill-rule:nonzero;stroke:none"
             d="M 0,0 C -0.548,0 -0.549,-0.852 0,-0.852 0.548,-0.852 0.549,0 0,0" /></g><g
           transform="translate(15.9297,27.7671)"
           id="g324"><path
             id="path326"
             style="fill:#ffffff;fill-opacity:1;fill-rule:nonzero;stroke:none"
             d="M 0,0 C 0.548,0 0.549,0.852 0,0.852 -0.548,0.852 -0.549,0 0,0" /></g><g
           transform="translate(16.6137,39.2197)"
           id="g328"><path
             id="path330"
             style="fill:#ffffff;fill-opacity:1;fill-rule:nonzero;stroke:none"
             d="M 0,0 C 1.13,0.3 1.972,1.445 1.825,2.616 1.758,3.153 0.905,3.16 0.973,2.616 1.11,1.522 0.139,0.607 -0.952,0.799 -2.127,1.007 -2.81,2.145 -2.771,3.276 -2.69,5.609 0.089,7.545 2.315,7.174 4.529,6.806 5.673,4.277 5.493,2.237 5.385,1.007 4.756,-0.01 3.813,-0.78 2.974,-1.465 1.947,-1.854 1.098,-2.517 0.305,-3.135 -0.095,-4.113 0.309,-5.081 0.729,-6.091 1.883,-6.544 2.898,-6.185 3.412,-6.004 3.191,-5.18 2.672,-5.363 2,-5.601 1.237,-5.34 1.039,-4.601 c -0.197,0.737 0.319,1.268 0.89,1.631 1.039,0.661 2.149,1.173 3.017,2.074 1.749,1.814 1.83,4.722 0.497,6.804 C 4.848,6.839 3.967,7.608 2.89,7.916 1.647,8.271 0.312,7.96 -0.801,7.358 -2.836,6.257 -4.555,3.596 -3.127,1.349 -2.481,0.333 -1.2,-0.318 0,0" /></g><g
           transform="translate(14.3607,34.1495)"
           id="g332"><path
             id="path334"
             style="fill:#ffffff;fill-opacity:1;fill-rule:nonzero;stroke:none"
             d="M 0,0 C 0.665,0.708 1.422,1.392 1.994,2.18 2.462,2.822 2.646,3.6 2.257,4.328 1.998,4.812 1.262,4.382 1.521,3.898 1.876,3.233 1.26,2.59 0.836,2.135 0.497,1.772 0.156,1.41 -0.185,1.048 -0.624,2.025 -1.006,3.299 -0.028,4.004 0.413,4.322 -0.012,5.062 -0.458,4.74 -2.086,3.567 -1.409,1.57 -0.669,0.086 -0.548,-0.156 -0.179,-0.191 0,0" /></g><g
           transform="translate(14.7933,36.9719)"
           id="g336"><path
             id="path338"
             style="fill:#ffffff;fill-opacity:1;fill-rule:nonzero;stroke:none"
             d="M 0,0 C 0.548,0 0.549,0.852 0,0.852 -0.548,0.852 -0.549,0 0,0" /></g><g
           transform="translate(15.7024,43.2221)"
           id="g340"><path
             id="path342"
             style="fill:#ffffff;fill-opacity:1;fill-rule:nonzero;stroke:none"
             d="M 0,0 C 0.548,0 0.549,0.852 0,0.852 -0.548,0.852 -0.549,0 0,0" /></g><g
           transform="translate(17.1797,43.904)"
           id="g344"><path
             id="path346"
             style="fill:#ffffff;fill-opacity:1;fill-rule:nonzero;stroke:none"
             d="M 0,0 C 0.548,0 0.549,0.852 0,0.852 -0.548,0.852 -0.549,0 0,0" /></g><g
           transform="translate(19.1116,44.6426)"
           id="g348"><path
             id="path350"
             style="fill:#ffffff;fill-opacity:1;fill-rule:nonzero;stroke:none"
             d="M 0,0 C -0.548,0 -0.549,-0.852 0,-0.852 0.548,-0.852 0.549,0 0,0" /></g><g
           transform="translate(28.1373,20.4061)"
           id="g352"><path
             id="path354"
             style="fill:#ffffff;fill-opacity:1;fill-rule:nonzero;stroke:none"
             d="m 0,0 c 0.507,-1.023 0.02,-2.107 -0.485,-3.042 -1.03,0.398 -2.058,0.387 -3.15,0.079 -0.67,-0.189 -1.31,-0.314 -1.867,0.194 -0.419,0.383 -0.676,0.922 -0.92,1.426 -0.239,0.493 -0.974,0.062 -0.736,-0.431 0.478,-0.987 1.135,-2.082 2.336,-2.21 0.69,-0.074 1.328,0.208 1.989,0.354 0.796,0.176 1.605,0.059 2.331,-0.306 0.202,-0.101 0.466,-0.059 0.583,0.153 0.723,1.309 1.377,2.759 0.655,4.213 C 0.492,0.922 -0.243,0.49 0,0" /></g><g
           transform="translate(24.2254,18.335)"
           id="g356"><path
             id="path358"
             style="fill:#ffffff;fill-opacity:1;fill-rule:nonzero;stroke:none"
             d="M 0,0 C 0.223,0 0.436,0.196 0.426,0.426 0.416,0.657 0.239,0.852 0,0.852 l -0.114,0 C -0.337,0.852 -0.55,0.656 -0.54,0.426 -0.529,0.195 -0.353,0 -0.114,0 L 0,0 Z" /></g><g
           transform="translate(26.8107,19.3293)"
           id="g360"><path
             id="path362"
             style="fill:#ffffff;fill-opacity:1;fill-rule:nonzero;stroke:none"
             d="M 0,0 0,0.114 C 0,0.337 -0.196,0.55 -0.426,0.54 -0.657,0.529 -0.852,0.353 -0.852,0.114 l 0,-0.114 c 0,-0.223 0.196,-0.436 0.426,-0.426 C -0.195,-0.416 0,-0.239 0,0" /></g><g
           transform="translate(21.3844,35.2673)"
           id="g364"><path
             id="path366"
             style="fill:#ffffff;fill-opacity:1;fill-rule:nonzero;stroke:none"
             d="M 0,0 C 0.223,0 0.436,0.196 0.426,0.426 0.416,0.657 0.239,0.852 0,0.852 l -0.114,0 C -0.337,0.852 -0.55,0.656 -0.54,0.426 -0.529,0.195 -0.353,0 -0.114,0 L 0,0 Z" /></g><g
           transform="translate(22.9753,37.1424)"
           id="g368"><path
             id="path370"
             style="fill:#ffffff;fill-opacity:1;fill-rule:nonzero;stroke:none"
             d="M 0,0 C -0.548,0 -0.549,-0.852 0,-0.852 0.548,-0.852 0.549,0 0,0" /></g><g
           transform="translate(24.4527,38.3924)"
           id="g372"><path
             id="path374"
             style="fill:#ffffff;fill-opacity:1;fill-rule:nonzero;stroke:none"
             d="M 0,0 C -0.548,0 -0.549,-0.852 0,-0.852 0.548,-0.852 0.549,0 0,0" /></g><g
           transform="translate(15.3899,32.6252)"
           id="g376"><path
             id="path378"
             style="fill:#ffffff;fill-opacity:1;fill-rule:nonzero;stroke:none"
             d="m 0,0 0,-0.114 c 0,-0.223 0.196,-0.436 0.426,-0.426 0.231,0.011 0.426,0.187 0.426,0.426 L 0.852,0 C 0.852,0.223 0.656,0.436 0.426,0.426 0.195,0.416 0,0.239 0,0" /></g><g
           transform="translate(13.8842,31.0626)"
           id="g380"><path
             id="path382"
             style="fill:#ffffff;fill-opacity:1;fill-rule:nonzero;stroke:none"
             d="M 0,0 C 0.548,0 0.549,0.852 0,0.852 -0.548,0.852 -0.549,0 0,0" /></g><g
           transform="translate(26.0186,47.4954)"
           id="g384"><path
             id="path386"
             style="fill:#ffffff;fill-opacity:1;fill-rule:nonzero;stroke:none"
             d="M 0,0 C 0.757,1.472 2.754,1.571 3.607,0.127 3.886,-0.344 4.623,0.084 4.343,0.558 3.18,2.526 0.319,2.481 -0.736,0.43 -0.986,-0.057 -0.251,-0.488 0,0" /></g><g
           transform="translate(39.515,28.0157)"
           id="g388"><path
             id="path390"
             style="fill:#ffffff;fill-opacity:1;fill-rule:nonzero;stroke:none"
             d="m 0,0 c -0.176,0.004 -0.358,-0.076 -0.443,-0.277 -0.75,-1.791 -1.301,-3.918 -0.185,-5.686 1.003,-1.591 2.84,-1.87 4.484,-1.117 1.474,0.675 2.578,2.093 2.983,3.652 0.424,1.636 0.006,3.333 -0.903,4.731 C 5.033,2.691 3.741,3.753 2.487,4.807 1.03,6.032 -0.318,7.35 -1.426,8.906 c -1.171,1.645 -2.118,3.476 -2.706,5.411 -0.539,1.775 -0.8,3.826 -0.039,5.579 0.906,2.089 3.274,3.239 5.469,2.591 1.088,-0.322 2.103,-1.06 2.64,-2.073 C 4.473,19.406 4.383,17.89 3.112,17.508 2.588,17.35 2.812,16.527 3.339,16.686 5.19,17.243 5.485,19.418 4.628,20.926 3.714,22.532 1.846,23.532 0.014,23.529 -1.832,23.526 -3.603,22.524 -4.574,20.96 -5.553,19.382 -5.63,17.442 -5.327,15.657 -4.667,11.773 -2.333,8.08 0.505,5.411 2.836,3.219 6.807,0.893 6.088,-2.892 5.719,-4.832 3.792,-7.044 1.612,-6.62 c -1.079,0.209 -1.762,1.231 -1.965,2.25 -0.229,1.143 0.114,2.314 0.537,3.387 -0.124,0.078 -0.249,0.155 -0.388,0.216 C -0.626,-0.582 -0.384,-0.039 0,0" /></g><g
           transform="translate(47.8573,30.9681)"
           id="g392"><path
             id="path394"
             style="fill:#ffffff;fill-opacity:1;fill-rule:nonzero;stroke:none"
             d="m 0,0 c -1.512,2.134 -3.653,3.584 -5.753,5.078 -1.868,1.329 -4.384,3.302 -4.077,5.904 0.163,1.376 1.528,2.258 2.826,1.621 1.219,-0.599 1.211,-2.319 0.263,-3.147 -0.414,-0.362 0.191,-0.963 0.602,-0.603 1.765,1.542 0.876,4.561 -1.481,4.788 -1.113,0.107 -2.212,-0.434 -2.725,-1.443 -0.553,-1.083 -0.409,-2.393 0.053,-3.479 1.021,-2.398 3.348,-3.832 5.39,-5.276 2.391,-1.69 4.764,-3.786 5.524,-6.731 0.396,-1.536 0.294,-3.214 -0.576,-4.572 -0.799,-1.246 -2.148,-2.115 -3.65,-2.105 -0.548,0.004 -0.549,-0.849 0,-0.852 2.245,-0.015 4.179,1.593 4.938,3.649 C 2.221,-4.768 1.428,-2.015 0,0" /></g><g
           transform="translate(52.6667,29.6013)"
           id="g396"><path
             id="path398"
             style="fill:#ffffff;fill-opacity:1;fill-rule:nonzero;stroke:none"
             d="m 0,0 c -0.796,0.993 -2.366,1.278 -3.143,0.1 -0.303,-0.459 0.435,-0.886 0.736,-0.43 0.313,0.475 0.971,0.437 1.395,0.14 0.485,-0.339 0.733,-0.937 0.899,-1.482 0.248,-0.814 0.452,-1.593 0.791,-2.34 -0.639,0.203 -1.236,0.508 -1.77,0.945 -0.421,0.344 -1.027,-0.255 -0.602,-0.603 0.9,-0.737 1.933,-1.221 3.088,-1.391 C 1.727,-5.11 2.1,-4.779 1.875,-4.435 1.397,-3.705 1.107,-2.938 0.886,-2.098 0.692,-1.357 0.488,-0.609 0,0" /></g><g
           transform="translate(51.3138,23.218)"
           id="g400"><path
             id="path402"
             style="fill:#ffffff;fill-opacity:1;fill-rule:nonzero;stroke:none"
             d="m 0,0 c 0.874,-1.087 1.028,-2.617 0.411,-3.862 -0.267,-0.539 -0.587,-1.094 -0.721,-1.653 -0.195,0.141 -0.395,0.279 -0.591,0.425 -0.795,0.59 -1.273,1.456 -1.326,2.449 -0.028,0.545 -0.881,0.549 -0.852,0 0.05,-0.951 0.39,-1.845 1.027,-2.559 0.607,-0.68 1.625,-0.994 2.029,-1.839 0.002,0.002 0.005,0.004 0.007,0.006 0.023,-0.031 0.034,-0.062 0.059,-0.092 0.327,-0.397 0.864,0.108 0.669,0.516 -0.042,0.088 -0.102,0.157 -0.153,0.235 -0.325,0.609 0.212,1.383 0.494,1.905 0.293,0.543 0.495,1.106 0.562,1.723 0.133,1.218 -0.25,2.401 -1.012,3.349 C 0.259,1.03 -0.341,0.424 0,0" /></g><g
           transform="translate(50.2749,21.4032)"
           id="g404"><path
             id="path406"
             style="fill:#ffffff;fill-opacity:1;fill-rule:nonzero;stroke:none"
             d="M 0,0 C 0.548,0 0.549,0.852 0,0.852 -0.548,0.852 -0.549,0 0,0" /></g><g
           transform="translate(51.184,27.7671)"
           id="g408"><path
             id="path410"
             style="fill:#ffffff;fill-opacity:1;fill-rule:nonzero;stroke:none"
             d="M 0,0 C 0.548,0 0.549,0.852 0,0.852 -0.548,0.852 -0.549,0 0,0" /></g><g
           transform="translate(45.027,38.9587)"
           id="g412"><path
             id="path414"
             style="fill:#ffffff;fill-opacity:1;fill-rule:nonzero;stroke:none"
             d="M 0,0 C 0.829,-1.16 2.054,-1.841 3.26,-2.539 3.837,-2.873 4.499,-3.304 4.474,-4.058 4.444,-4.949 3.584,-5.379 2.801,-5.102 2.283,-4.919 2.06,-5.742 2.575,-5.924 4.463,-6.591 6.126,-4.397 4.903,-2.781 4.3,-1.984 3.282,-1.611 2.462,-1.088 1.472,-0.456 0.571,0.349 0.189,1.493 -0.481,3.5 0.328,6.201 2.312,7.165 4.384,8.172 7.336,6.592 8.06,4.499 8.478,3.292 8.173,1.806 6.934,1.225 5.748,0.669 4.33,1.518 4.5,2.877 4.568,3.42 3.715,3.415 3.648,2.877 3.513,1.806 4.199,0.769 5.182,0.364 6.19,-0.051 7.348,0.29 8.118,1.02 10.024,2.827 8.891,5.722 7.088,7.09 5.09,8.606 2.293,8.847 0.537,6.845 -1.06,5.025 -1.445,2.023 0,0" /></g><g
           transform="translate(53.2111,38.89)"
           id="g416"><path
             id="path418"
             style="fill:#ffffff;fill-opacity:1;fill-rule:nonzero;stroke:none"
             d="m 0,0 c -0.446,0.321 -0.872,-0.418 -0.43,-0.736 0.978,-0.705 0.595,-1.98 0.156,-2.956 -0.34,0.362 -0.682,0.723 -1.02,1.087 -0.424,0.455 -1.041,1.095 -0.685,1.762 0.259,0.484 -0.477,0.915 -0.736,0.431 -0.389,-0.73 -0.206,-1.505 0.262,-2.149 0.574,-0.788 1.33,-1.471 1.995,-2.179 0.179,-0.191 0.548,-0.157 0.669,0.086 C 0.951,-3.17 1.628,-1.174 0,0" /></g><g
           transform="translate(52.3204,36.9719)"
           id="g420"><path
             id="path422"
             style="fill:#ffffff;fill-opacity:1;fill-rule:nonzero;stroke:none"
             d="M 0,0 C 0.548,0 0.549,0.852 0,0.852 -0.548,0.852 -0.549,0 0,0" /></g><g
           transform="translate(51.4113,43.2221)"
           id="g424"><path
             id="path426"
             style="fill:#ffffff;fill-opacity:1;fill-rule:nonzero;stroke:none"
             d="M 0,0 C 0.548,0 0.549,0.852 0,0.852 -0.548,0.852 -0.549,0 0,0" /></g><g
           transform="translate(49.934,43.904)"
           id="g428"><path
             id="path430"
             style="fill:#ffffff;fill-opacity:1;fill-rule:nonzero;stroke:none"
             d="M 0,0 C 0.548,0 0.549,0.852 0,0.852 -0.548,0.852 -0.549,0 0,0" /></g><g
           transform="translate(48.0021,43.7903)"
           id="g432"><path
             id="path434"
             style="fill:#ffffff;fill-opacity:1;fill-rule:nonzero;stroke:none"
             d="M 0,0 C 0.548,0 0.549,0.852 0,0.852 -0.548,0.852 -0.549,0 0,0" /></g><g
           transform="translate(45.3983,19.0627)"
           id="g436"><path
             id="path438"
             style="fill:#ffffff;fill-opacity:1;fill-rule:nonzero;stroke:none"
             d="m 0,0 c -0.233,-0.482 -0.477,-0.994 -0.865,-1.374 -0.565,-0.553 -1.217,-0.445 -1.922,-0.246 -1.092,0.308 -2.12,0.32 -3.149,-0.079 -0.506,0.935 -0.994,2.019 -0.486,3.042 0.243,0.49 -0.492,0.922 -0.736,0.431 -0.722,-1.455 -0.068,-2.905 0.655,-4.214 0.116,-0.21 0.381,-0.254 0.583,-0.152 0.691,0.347 1.472,0.479 2.236,0.327 0.696,-0.138 1.358,-0.453 2.084,-0.376 1.201,0.128 1.858,1.224 2.336,2.211 C 0.974,0.061 0.239,0.494 0,0" /></g><g
           transform="translate(43.002,18.335)"
           id="g440"><path
             id="path442"
             style="fill:#ffffff;fill-opacity:1;fill-rule:nonzero;stroke:none"
             d="M 0,0 C 0.223,0 0.436,0.196 0.426,0.426 0.416,0.657 0.239,0.852 0,0.852 l -0.114,0 C -0.337,0.852 -0.55,0.656 -0.54,0.426 -0.529,0.195 -0.353,0 -0.114,0 L 0,0 Z" /></g><g
           transform="translate(41.1553,19.3293)"
           id="g444"><path
             id="path446"
             style="fill:#ffffff;fill-opacity:1;fill-rule:nonzero;stroke:none"
             d="M 0,0 0,0.114 C 0,0.337 -0.196,0.55 -0.426,0.54 -0.657,0.529 -0.852,0.353 -0.852,0.114 l 0,-0.114 c 0,-0.223 0.196,-0.436 0.426,-0.426 C -0.195,-0.416 0,-0.239 0,0" /></g><g
           transform="translate(45.843,35.2673)"
           id="g448"><path
             id="path450"
             style="fill:#ffffff;fill-opacity:1;fill-rule:nonzero;stroke:none"
             d="M 0,0 C 0.223,0 0.436,0.196 0.426,0.426 0.416,0.657 0.239,0.852 0,0.852 l -0.114,0 C -0.337,0.852 -0.55,0.656 -0.54,0.426 -0.529,0.195 -0.353,0 -0.114,0 L 0,0 Z" /></g><g
           transform="translate(44.1384,37.1424)"
           id="g452"><path
             id="path454"
             style="fill:#ffffff;fill-opacity:1;fill-rule:nonzero;stroke:none"
             d="M 0,0 C -0.548,0 -0.549,-0.852 0,-0.852 0.548,-0.852 0.549,0 0,0" /></g><g
           transform="translate(42.661,37.5401)"
           id="g456"><path
             id="path458"
             style="fill:#ffffff;fill-opacity:1;fill-rule:nonzero;stroke:none"
             d="M 0,0 C 0.548,0 0.549,0.852 0,0.852 -0.548,0.852 -0.549,0 0,0" /></g><g
           transform="translate(51.7238,32.5115)"
           id="g460"><path
             id="path462"
             style="fill:#ffffff;fill-opacity:1;fill-rule:nonzero;stroke:none"
             d="M 0,0 0,0.114 C 0,0.337 -0.196,0.55 -0.426,0.54 -0.657,0.529 -0.852,0.353 -0.852,0.114 l 0,-0.114 c 0,-0.223 0.196,-0.436 0.426,-0.426 C -0.195,-0.416 0,-0.239 0,0" /></g><g
           transform="translate(53.2296,31.9149)"
           id="g464"><path
             id="path466"
             style="fill:#ffffff;fill-opacity:1;fill-rule:nonzero;stroke:none"
             d="M 0,0 C -0.548,0 -0.549,-0.852 0,-0.852 0.548,-0.852 0.549,0 0,0" /></g><g
           transform="translate(37.4883,47.6229)"
           id="g468"><path
             id="path470"
             style="fill:#ffffff;fill-opacity:1;fill-rule:nonzero;stroke:none"
             d="M 0,0 C 0.852,1.442 2.85,1.345 3.607,-0.127 3.858,-0.615 4.593,-0.185 4.343,0.303 3.288,2.354 0.427,2.399 -0.736,0.43 -1.016,-0.043 -0.279,-0.472 0,0" /></g><g
           transform="translate(25.5779,23.1134)"
           id="g472"><path
             id="path474"
             style="fill:#ffffff;fill-opacity:1;fill-rule:nonzero;stroke:none"
             d="m 0,0 c -0.134,0.283 -0.218,0.575 -0.278,0.869 -0.449,0.233 -0.82,0.6 -1.015,1.09 -0.296,0.741 -0.08,1.516 0.35,2.155 0.466,0.693 1.157,1.193 1.828,1.671 0.667,0.477 1.328,0.961 1.953,1.493 2.452,2.086 4.355,4.821 4.769,8.07 0.069,0.542 -0.784,0.537 -0.852,0 C 6.266,11.509 3.464,8.667 0.454,6.521 -0.817,5.614 -2.232,4.473 -2.288,2.768 -2.334,1.347 -1.227,0.054 0.156,-0.189 0.172,-0.192 0.184,-0.187 0.199,-0.188 0.121,-0.157 0.049,-0.103 0,0" /></g><g
           transform="translate(27.5712,28.0126)"
           id="g476"><path
             id="path478"
             style="fill:#ffffff;fill-opacity:1;fill-rule:nonzero;stroke:none"
             d="m 0,0 c -0.077,0.011 -0.157,0.009 -0.242,-0.028 -1.61,-0.705 -2.362,-2.385 -2.03,-4.002 0.061,-0.294 0.145,-0.586 0.279,-0.869 0.048,-0.103 0.121,-0.158 0.199,-0.188 0.301,-0.118 0.722,0.227 0.537,0.618 -0.631,1.332 -0.105,2.78 1.088,3.506 0.116,0.071 0.229,0.143 0.357,0.199 C 0.604,-0.582 0.374,-0.053 0,0" /></g><g
           transform="translate(31.7982,32.2393)"
           id="g480"><path
             id="path482"
             style="fill:#ffffff;fill-opacity:1;fill-rule:nonzero;stroke:none"
             d="m 0,0 c -0.735,-1.324 -1.685,-2.479 -2.838,-3.46 -0.179,-0.152 -0.147,-0.445 0,-0.603 1.13,-1.205 1.5,-2.923 0.999,-4.493 -0.167,-0.523 0.656,-0.748 0.822,-0.226 0.548,1.717 0.17,3.585 -0.938,4.98 1.076,0.971 1.986,2.102 2.691,3.372 C 1.002,0.05 0.266,0.48 0,0" /></g><g
           transform="translate(38.6541,30.3912)"
           id="g484"><path
             id="path486"
             style="fill:#ffffff;fill-opacity:1;fill-rule:nonzero;stroke:none"
             d="M 0,0 C 0.601,-0.51 1.233,-0.981 1.876,-1.437 2.547,-1.914 3.25,-2.408 3.732,-3.09 4.189,-3.737 4.445,-4.553 4.131,-5.319 3.931,-5.808 3.564,-6.176 3.116,-6.409 3.056,-6.703 2.972,-6.995 2.838,-7.278 2.789,-7.38 2.717,-7.435 2.639,-7.466 c 0.015,0.001 0.028,-0.004 0.043,-10e-4 1.38,0.243 2.494,1.537 2.444,2.958 -0.061,1.706 -1.467,2.843 -2.742,3.752 -3.01,2.147 -5.812,4.988 -6.301,8.827 -0.068,0.537 -0.922,0.543 -0.852,0 C -4.356,4.824 -2.453,2.083 0,0" /></g><g
           transform="translate(41.4921,23.1134)"
           id="g488"><path
             id="path490"
             style="fill:#ffffff;fill-opacity:1;fill-rule:nonzero;stroke:none"
             d="M 0,0 C 0.134,0.283 0.218,0.575 0.278,0.869 0.611,2.486 -0.142,4.166 -1.751,4.871 -1.83,4.905 -1.905,4.91 -1.977,4.902 -2.361,4.863 -2.604,4.32 -2.181,4.135 -2.042,4.074 -1.917,3.997 -1.793,3.919 -0.621,3.186 -0.11,1.751 -0.736,0.43 -0.921,0.039 -0.5,-0.306 -0.199,-0.188 -0.121,-0.157 -0.049,-0.103 0,0" /></g><g
           transform="translate(38.1096,28.7794)"
           id="g492"><path
             id="path494"
             style="fill:#ffffff;fill-opacity:1;fill-rule:nonzero;stroke:none"
             d="m 0,0 c -1.153,0.981 -2.103,2.136 -2.838,3.46 -0.266,0.48 -1.002,0.05 -0.736,-0.43 0.705,-1.27 1.615,-2.401 2.691,-3.372 -1.108,-1.395 -1.486,-3.263 -0.938,-4.98 0.166,-0.521 0.989,-0.298 0.822,0.226 C -1.5,-3.526 -1.13,-1.809 0,-0.603 0.148,-0.445 0.18,-0.153 0,0" /></g><g
           transform="translate(31.3604,28.5829)"
           id="g496"><path
             id="path498"
             style="fill:#ffffff;fill-opacity:1;fill-rule:nonzero;stroke:none"
             d="m 0,0 c -0.519,0.181 -0.742,-0.642 -0.227,-0.822 1.554,-0.54 3.237,-0.526 4.78,0.045 0.51,0.189 0.289,1.013 -0.227,0.822 C 2.911,-0.479 1.426,-0.496 0,0" /></g><g
           transform="translate(35.3669,25.9745)"
           id="g500"><path
             id="path502"
             style="fill:#ffffff;fill-opacity:1;fill-rule:nonzero;stroke:none"
             d="m 0,0 c 0.359,0.412 -0.241,1.017 -0.603,0.603 -0.505,-0.579 -0.927,-1.21 -1.304,-1.872 -0.413,0.575 -0.845,1.136 -1.316,1.666 -0.366,0.411 -0.967,-0.193 -0.603,-0.602 0.579,-0.652 1.107,-1.337 1.59,-2.063 0.164,-0.247 0.586,-0.305 0.736,0 0.404,0.822 0.898,1.577 1.5,2.268" /></g><g
           transform="translate(33.4798,29.7094)"
           id="g504"><path
             id="path506"
             style="fill:#ffffff;fill-opacity:1;fill-rule:nonzero;stroke:none"
             d="M 0,0 C 0.548,0 0.549,0.852 0,0.852 -0.548,0.852 -0.549,0 0,0" /></g><g
           transform="translate(14.2458,51.6002)"
           id="g508"><path
             id="path510"
             style="fill:#ffffff;fill-opacity:1;fill-rule:nonzero;stroke:none"
             d="m 0,0 c 1.262,-0.603 2.511,-1.262 3.803,-1.797 1.164,-0.483 2.411,-0.532 3.64,-0.298 0.538,0.102 0.31,0.923 -0.227,0.821 -1.22,-0.231 -2.377,-0.081 -3.5,0.442 -0.728,0.338 -1.45,0.689 -2.174,1.037 0.641,0.183 1.261,0.434 1.867,0.741 0.519,0.264 1.024,0.555 1.531,0.841 0.565,0.32 1.171,0.748 1.832,0.812 0.541,0.053 0.546,0.906 0,0.853 C 5.633,3.34 4.641,2.586 3.663,2.047 2.584,1.452 1.457,0.911 0.215,0.794 -0.162,0.759 -0.419,0.2 0,0" /></g><g
           transform="translate(20.7426,52.3332)"
           id="g512"><path
             id="path514"
             style="fill:#ffffff;fill-opacity:1;fill-rule:nonzero;stroke:none"
             d="m 0,0 0,-0.076 c 0,-0.223 0.196,-0.436 0.426,-0.426 0.231,0.01 0.426,0.187 0.426,0.426 L 0.852,0 C 0.852,0.223 0.656,0.436 0.426,0.426 0.195,0.416 0,0.239 0,0" /></g><g
           transform="translate(16.546,54.6167)"
           id="g516"><path
             id="path518"
             style="fill:#ffffff;fill-opacity:1;fill-rule:nonzero;stroke:none"
             d="M 0,0 C 0.545,-0.056 0.541,0.796 0,0.852 -0.657,0.92 -1.228,1.245 -1.662,1.734 -2.027,2.145 -2.628,1.54 -2.265,1.132 -1.673,0.466 -0.88,0.091 0,0" /></g><g
           transform="translate(14.3531,48.0879)"
           id="g520"><path
             id="path522"
             style="fill:#ffffff;fill-opacity:1;fill-rule:nonzero;stroke:none"
             d="m 0,0 c -0.389,-0.387 0.213,-0.99 0.603,-0.603 0.391,0.39 0.86,0.622 1.403,0.718 C 2.545,0.212 2.316,1.033 1.779,0.937 1.101,0.816 0.488,0.485 0,0" /></g><g
           transform="translate(45.2173,53.5095)"
           id="g524"><path
             id="path526"
             style="fill:#ffffff;fill-opacity:1;fill-rule:nonzero;stroke:none"
             d="M 0,0 C 1.22,0.232 2.377,0.081 3.5,-0.441 4.228,-0.78 4.95,-1.131 5.674,-1.479 5.033,-1.662 4.413,-1.913 3.808,-2.22 3.288,-2.484 2.783,-2.774 2.276,-3.061 1.711,-3.381 1.105,-3.808 0.444,-3.873 c -0.541,-0.053 -0.546,-0.906 0,-0.852 1.139,0.111 2.131,0.865 3.109,1.405 1.079,0.595 2.206,1.136 3.448,1.252 0.377,0.036 0.634,0.594 0.215,0.794 C 5.954,-0.671 4.705,-0.011 3.413,0.524 2.249,1.006 1.002,1.055 -0.227,0.822 -0.765,0.72 -0.537,-0.102 0,0" /></g><g
           transform="translate(45.9365,51.5029)"
           id="g528"><path
             id="path530"
             style="fill:#ffffff;fill-opacity:1;fill-rule:nonzero;stroke:none"
             d="M 0,0 0,0.076 C 0,0.299 -0.196,0.512 -0.426,0.502 -0.657,0.492 -0.852,0.315 -0.852,0.076 l 0,-0.076 c 0,-0.223 0.196,-0.436 0.426,-0.426 C -0.195,-0.416 0,-0.239 0,0" /></g><g
           transform="translate(50.1331,49.2194)"
           id="g532"><path
             id="path534"
             style="fill:#ffffff;fill-opacity:1;fill-rule:nonzero;stroke:none"
             d="M 0,0 C -0.545,0.056 -0.541,-0.796 0,-0.852 0.657,-0.92 1.228,-1.245 1.662,-1.734 2.027,-2.145 2.628,-1.541 2.265,-1.132 1.673,-0.466 0.88,-0.091 0,0" /></g><g
           transform="translate(50.5469,54.8109)"
           id="g536"><path
             id="path538"
             style="fill:#ffffff;fill-opacity:1;fill-rule:nonzero;stroke:none"
             d="M 0,0 C 0.678,0.121 1.291,0.452 1.779,0.937 2.168,1.325 1.566,1.927 1.176,1.54 0.785,1.151 0.316,0.919 -0.227,0.822 -0.766,0.726 -0.537,-0.096 0,0" /></g><g
           transform="translate(36.3622,21.8401)"
           id="g540"><path
             id="path542"
             style="fill:#ffffff;fill-opacity:1;fill-rule:nonzero;stroke:none"
             d="m 0,0 c -0.377,-1.45 -1.032,-2.907 -2.763,-2.927 -1.55,-0.017 -2.718,1.254 -2.968,2.704 -0.093,0.54 -0.914,0.311 -0.822,-0.226 0.315,-1.826 1.888,-3.34 3.79,-3.33 0.871,0.004 1.751,0.353 2.368,0.972 0.692,0.693 0.977,1.658 1.217,2.58 C 0.96,0.305 0.138,0.531 0,0" /></g><g
           transform="translate(33.4419,20.9211)"
           id="g544"><path
             id="path546"
             style="fill:#ffffff;fill-opacity:1;fill-rule:nonzero;stroke:none"
             d="M 0,0 C 0.548,0 0.549,0.852 0,0.852 -0.548,0.852 -0.549,0 0,0" /></g></g></g></g></svg>