<?xml version="1.0" encoding="utf-8"?>
<!-- Generator: Adobe Illustrator 19.0.0, SVG Export Plug-In . SVG Version: 6.00 Build 0)  -->
<svg version="1.1" id="Capa_1" xmlns="http://www.w3.org/2000/svg" xmlns:xlink="http://www.w3.org/1999/xlink" x="0px" y="0px"
	 viewBox="0 0 100 155.7" style="enable-background:new 0 0 100 155.7;" xml:space="preserve">
<style type="text/css">
	.st0{fill:#83152D;}
	.st1{fill:#FFFFFF;}
</style>
<g id="XMLID_12732_">
	<rect id="XMLID_13657_" x="0" class="st0" width="100" height="155.7"/>
	<path id="XMLID_13654_" class="st1" d="M95.5,4.5v146.8H4.5V4.5H95.5 M100,0H0v155.7h100V0L100,0z"/>
	<g id="XMLID_12733_">
		<g id="XMLID_13650_">
			<path id="XMLID_13651_" class="st1" d="M82.5,141.5H17.5c-2.2,0-4.1-1.8-4.1-4.1V18.5c0-2.2,1.8-4.1,4.1-4.1h64.9
				c2.2,0,4.1,1.8,4.1,4.1v118.9C86.5,139.7,84.7,141.5,82.5,141.5z M17.5,16c-1.4,0-2.5,1.1-2.5,2.5v118.9c0,1.4,1.1,2.5,2.5,2.5
				h64.9c1.4,0,2.5-1.1,2.5-2.5V18.5c0-1.4-1.1-2.5-2.5-2.5H17.5z"/>
		</g>
		<g id="XMLID_13571_">
			<g id="XMLID_13647_">
				<g id="XMLID_13648_">
					<path id="XMLID_13649_" class="st1" d="M41.4,9.5c0.4-1,1.2,0.4,1.2,0.9c0,0.7-0.4,1.4-1.1,1.7c-1.4,0.5-2.4-0.8-3.3-1.6
						c-1.9-1.6-4.9-3.1-7.5-2.4c-2.1,0.5-3.6,3.1-1.8,4.8c1.7,1.6,4.3,0.3,4.4-1.9c0-0.8-1.2-0.8-1.3,0c0,1.5-2.1,1.9-2.6,0.4
						c-0.5-1.6,1.6-2.3,2.8-2.2c1.4,0.1,2.9,0.7,4.1,1.5c1.1,0.7,1.9,1.8,3.1,2.4c2,1.1,4.5-0.3,4.6-2.5c0-1-0.4-2-1.3-2.5
						c-0.8-0.4-1.9-0.1-2.3,0.8C40,9.6,41.1,10.3,41.4,9.5L41.4,9.5z"/>
				</g>
			</g>
			<g id="XMLID_13644_">
				<g id="XMLID_13645_">
					<path id="XMLID_13646_" class="st1" d="M19.6,9.8c0,1.8,2,3.4,3.8,2.9c0.9-0.3,1.2-1.2,2-1.6c0.9-0.5,1.9-0.3,2.6,0.3
						c0.7,0.5,1.3-0.6,0.6-1.1c-1.1-0.8-2.5-0.9-3.7-0.4c-0.7,0.3-1,0.8-1.5,1.3c-1,0.9-2.6-0.3-2.6-1.4C20.9,9,19.6,9,19.6,9.8
						L19.6,9.8z"/>
				</g>
			</g>
			<g id="XMLID_13641_">
				<g id="XMLID_13642_">
					<path id="XMLID_13643_" class="st1" d="M21.8,9.7c0.8,0,0.8-1.3,0-1.3C21,8.4,21,9.7,21.8,9.7L21.8,9.7z"/>
				</g>
			</g>
			<g id="XMLID_13638_">
				<g id="XMLID_13639_">
					<path id="XMLID_13640_" class="st1" d="M35,13.1c0.8,0,0.8-1.3,0-1.3C34.1,11.9,34.1,13.1,35,13.1L35,13.1z"/>
				</g>
			</g>
			<g id="XMLID_13635_">
				<g id="XMLID_13636_">
					<path id="XMLID_13637_" class="st1" d="M19.9,10.4c-0.7,0.4-1.6,0-2.3-0.3c-0.8-0.3-1.6-0.7-2.4-1c-1.2-0.4-2.6-0.7-3.7,0.1
						c-2.2,1.4-0.6,4.9,1.9,3.8c0.7-0.3,0.1-1.4-0.6-1.1c-0.6,0.3-1.1-0.2-1.1-0.8c0-0.6,0.6-1,1.1-1.1c0.9-0.2,1.9,0.3,2.8,0.6
						c1.5,0.6,3.3,1.7,5,0.8C21.3,11.1,20.7,10,19.9,10.4L19.9,10.4z"/>
				</g>
			</g>
			<g id="XMLID_13632_">
				<g id="XMLID_13633_">
					<path id="XMLID_13634_" class="st1" d="M11.6,14.1c-0.5-1-1.5-1.7-2.6-1.4c-1,0.2-1.8,1.1-1.7,2.1c0,1.2,0.9,2.1,1.7,2.9
						c0.5,0.5,0.9,1,1,1.7c0.1,0.8,0.1,1.7,0.1,2.6c0,0.8,1.3,0.8,1.3,0c-0.1-1.7,0-3.4-1.1-4.8c-0.5-0.6-1.3-1.2-1.6-2
						c-0.2-0.6,0.1-1.2,0.8-1.2c0.5,0,0.9,0.4,1.1,0.8C10.9,15.4,12,14.8,11.6,14.1L11.6,14.1z"/>
				</g>
			</g>
			<g id="XMLID_13629_">
				<g id="XMLID_13630_">
					<path id="XMLID_13631_" class="st1" d="M8.2,41.8c-0.9,0.4-1.2,1.4-0.8,2.2c0.4,0.9,1.4,1.4,2.4,1.4c2.3,0,3.8-2.5,2.7-4.6
						c-0.6-1.1-1.6-1.9-2.3-2.9c-0.7-1.2-1.4-2.6-1.5-4c-0.1-1.2,0.4-3.4,2.1-3c1.6,0.3,1.3,2.6-0.3,2.6c-0.8,0-0.8,1.3,0,1.3
						c2.2-0.1,3.5-2.6,2-4.3c-1.7-1.9-4.4-0.4-4.9,1.7c-0.6,2.5,0.8,5.5,2.3,7.4c0.8,1,2.2,2,1.6,3.4c-0.3,0.7-0.9,1.1-1.7,1.1
						c-0.6,0-1.9-0.8-0.9-1.2C9.6,42.5,9,41.4,8.2,41.8L8.2,41.8z"/>
				</g>
			</g>
			<g id="XMLID_13626_">
				<g id="XMLID_13627_">
					<path id="XMLID_13628_" class="st1" d="M9.2,22.3c1,0,2.2,1.4,1.6,2.4c-0.4,0.6-1.1,1-1.5,1.7c-0.6,1.2-0.4,2.7,0.4,3.7
						c0.5,0.6,1.6,0,1.1-0.6c-0.6-0.7-0.7-1.7-0.3-2.5c0.4-0.9,1.4-1.2,1.7-2.1C12.6,23,11,21,9.2,21C8.3,21,8.3,22.3,9.2,22.3
						L9.2,22.3z"/>
				</g>
			</g>
			<g id="XMLID_13623_">
				<g id="XMLID_13624_">
					<path id="XMLID_13625_" class="st1" d="M8.4,23.9c0.8,0,0.8-1.3,0-1.3C7.6,22.6,7.6,23.9,8.4,23.9L8.4,23.9z"/>
				</g>
			</g>
			<g id="XMLID_13620_">
				<g id="XMLID_13621_">
					<path id="XMLID_13622_" class="st1" d="M11.9,37c0.8,0,0.8-1.3,0-1.3C11.1,35.7,11.1,37,11.9,37L11.9,37z"/>
				</g>
			</g>
			<g id="XMLID_13617_">
				<g id="XMLID_13618_">
					<path id="XMLID_13619_" class="st1" d="M7.8,47.7c1.2,1.3,2.9,0.7,4.2,0c0.7-0.4,0.1-1.5-0.6-1.1c-0.8,0.4-1.9,1-2.7,0.2
						C8.1,46.2,7.2,47.1,7.8,47.7L7.8,47.7z"/>
				</g>
			</g>
			<g id="XMLID_13614_">
				<g id="XMLID_13615_">
					<path id="XMLID_13616_" class="st1" d="M8.8,49.5c-1.3,0.9-1.9,2.8-1.3,4.3c0.6,1.5,2.5,2,3.8,1c0.6-0.5,1-1.1,1.2-1.9
						c0.2-0.7,0.6-1.8,0.1-2.5c-0.6-0.9-3.1-2-3.7-0.7c-0.4,0.7,0.7,1.4,1.1,0.6c0,0,0-0.1,0.1-0.1c-0.1,0.1-0.3,0.2-0.4,0.3
						c0.6-0.2,1.9,0.1,1.9,0.8c0,0.8-0.3,1.9-0.9,2.4c-0.8,0.7-1.9,0.2-2-0.8c-0.1-0.8,0.2-1.8,0.9-2.3C10.1,50.1,9.4,49,8.8,49.5
						L8.8,49.5z"/>
				</g>
			</g>
			<g id="XMLID_13611_">
				<g id="XMLID_13612_">
					<path id="XMLID_13613_" class="st1" d="M10.7,52C10.7,52,10.7,52,10.7,52c0-0.4-0.3-0.7-0.6-0.7c-0.3,0-0.6,0.3-0.6,0.6
						c0,0,0,0,0,0.1c0,0.3,0.3,0.7,0.6,0.6C10.4,52.6,10.7,52.4,10.7,52L10.7,52z"/>
				</g>
			</g>
			<g id="XMLID_13608_">
				<g id="XMLID_13609_">
					<path id="XMLID_13610_" class="st1" d="M8.6,58.4c-0.5-0.5,0.8-1.1,1.1-1.1c0.5-0.1,1,0.1,1.2,0.6c0.5,0.7,0.2,1.7-0.2,2.4
						c-1,1.6-2.8,2.6-3.5,4.4c-0.6,1.6-0.1,3.4,1.1,4.6c0.6,0.7,1.5,1.1,2.1,1.7c0.3,0.3,0.6,0.6,0.8,1.1c0.1,0.4,0.3,1.6-0.6,1.3
						c-0.8-0.3-1.1,1-0.3,1.2c0.9,0.3,1.7-0.2,2.1-1c0.4-0.8,0.2-1.7-0.2-2.5c-1.1-1.9-3.9-2.4-4-4.9c-0.1-2.4,2.8-3.7,3.8-5.7
						c0.7-1.5,0.5-3.7-1.2-4.4c-1.7-0.7-4.9,1.4-3.1,3.2C8.3,59.9,9.2,59,8.6,58.4L8.6,58.4z"/>
				</g>
			</g>
			<g id="XMLID_13605_">
				<g id="XMLID_13606_">
					<path id="XMLID_13607_" class="st1" d="M9.4,73.8C9.4,73.7,9.4,73.7,9.4,73.8c0-0.4-0.3-0.7-0.6-0.7c-0.3,0-0.6,0.3-0.6,0.6
						c0,0,0,0,0,0.1c0,0.3,0.3,0.7,0.6,0.6C9.1,74.4,9.4,74.1,9.4,73.8L9.4,73.8z"/>
				</g>
			</g>
			<g id="XMLID_13602_">
				<g id="XMLID_13603_">
					<path id="XMLID_13604_" class="st1" d="M10.8,63.7c-1.4,1.1-1.4,2.9-0.2,4.2c0.6,0.6,1.5-0.3,0.9-0.9c-0.6-0.6-0.8-1.6,0-2.2
						C12.1,64.3,11.4,63.2,10.8,63.7L10.8,63.7z"/>
				</g>
			</g>
			<g id="XMLID_13599_">
				<g id="XMLID_13600_">
					<path id="XMLID_13601_" class="st1" d="M8.1,61.4c0.8,0,0.8-1.3,0-1.3C7.2,60.1,7.2,61.4,8.1,61.4L8.1,61.4z"/>
				</g>
			</g>
			<g id="XMLID_13596_">
				<g id="XMLID_13597_">
					<path id="XMLID_13598_" class="st1" d="M8.4,78.8c0.3-0.3,0.6-0.7,1-1c0.3-0.3,0.6-0.8,0.9-1c-0.2,0-0.4,0-0.6,0
						c0.3,0.2,0.7,0.7,0.9,1c0.3,0.3,0.6,0.7,0.9,1.1c0.5,0.6,1.4-0.3,0.9-0.9c-0.6-0.7-1.3-1.8-2.1-2.3c-0.2-0.1-0.4-0.1-0.6,0
						c-0.8,0.5-1.5,1.5-2.1,2.2C6.9,78.5,7.8,79.4,8.4,78.8L8.4,78.8z"/>
				</g>
			</g>
			<g id="XMLID_13593_">
				<g id="XMLID_13594_">
					<path id="XMLID_13595_" class="st1" d="M8.4,82.4c0.3-0.3,0.6-0.7,1-1c0.3-0.3,0.6-0.8,0.9-1c-0.2,0-0.4,0-0.6,0
						c0.3,0.2,0.7,0.7,0.9,1c0.3,0.3,0.6,0.7,0.9,1.1c0.5,0.6,1.4-0.3,0.9-0.9c-0.6-0.7-1.3-1.8-2.1-2.3c-0.2-0.1-0.4-0.1-0.6,0
						c-0.8,0.5-1.5,1.5-2.1,2.2C6.9,82.1,7.8,83,8.4,82.4L8.4,82.4z"/>
				</g>
			</g>
			<g id="XMLID_13590_">
				<g id="XMLID_13591_">
					<path id="XMLID_13592_" class="st1" d="M11.1,83.6c-0.8,1.1-1.9,2-3.2,2.6c-0.4,0.2-0.4,0.9,0,1.1c1,0.5,1.1,1.8,1.9,2.6
						c0.6,0.6,1.6,0.8,2.3,0.4c-0.3-0.3-0.6-0.6-0.9-0.9c-0.7,1.1-1.6,2.1-2.7,2.8c-0.3,0.2-0.5,0.7-0.1,1c1,0.8,2,1.5,3.1,2.1
						c0.7,0.4,1.4-0.7,0.6-1.1c-1-0.5-2-1.2-2.9-1.9c0,0.3-0.1,0.7-0.1,1c1.3-0.9,2.3-2,3.2-3.3c0.4-0.6-0.3-1.2-0.9-0.9
						c-0.8,0.4-1.3-1-1.6-1.5c-0.3-0.6-0.7-1.2-1.4-1.4c0,0.4,0,0.7,0,1.1c1.5-0.7,2.7-1.7,3.7-3C12.6,83.6,11.5,82.9,11.1,83.6
						L11.1,83.6z"/>
				</g>
			</g>
			<g id="XMLID_13587_">
				<g id="XMLID_13588_">
					<path id="XMLID_13589_" class="st1" d="M9.6,93.2c-1,0.6-1.7,1.6-1.8,2.7c-0.1,1.2,0.5,2.2,1.3,3.1c1,1.1,2,2.2,1.5,3.8
						c-0.2,0.6-0.8,1.4-1.6,1.2c-0.9-0.2-0.7-2.2-0.1-2c0.8,0.3,1.1-0.9,0.3-1.2c-1.9-0.7-2.5,2.2-1.9,3.5c0.8,1.6,3,1.2,3.9-0.1
						c1.1-1.6,0.8-3.6-0.4-5c-0.6-0.7-1.4-1.4-1.8-2.3c-0.4-1,0.1-2.1,1-2.6C10.9,93.9,10.3,92.8,9.6,93.2L9.6,93.2z"/>
				</g>
			</g>
			<g id="XMLID_13584_">
				<g id="XMLID_13585_">
					<path id="XMLID_13586_" class="st1" d="M11.3,97.9c0.8,0,0.8-1.3,0-1.3C10.5,96.6,10.5,97.9,11.3,97.9L11.3,97.9z"/>
				</g>
			</g>
			<g id="XMLID_13581_">
				<g id="XMLID_13582_">
					<path id="XMLID_13583_" class="st1" d="M8.7,90.7C8.7,90.7,8.7,90.6,8.7,90.7c0.3-0.3,0.3-0.8,0.1-1c-0.3-0.2-0.6-0.3-0.9,0
						c0,0-0.1,0.1-0.1,0.1c-0.2,0.2-0.3,0.7,0,0.9C8,90.9,8.4,90.9,8.7,90.7L8.7,90.7z"/>
				</g>
			</g>
			<g id="XMLID_13578_">
				<g id="XMLID_13579_">
					<path id="XMLID_13580_" class="st1" d="M9.1,105.1c0.6,1.5,1.2,2.9,1.8,4.4c0.2-0.3,0.4-0.5,0.6-0.8c-2.7,0.2-4.1,3.1-3.9,5.6
						c0.1,1.1,0.7,2.2,1.8,2.5c1,0.3,2-0.3,2.2-1.3c0.2-0.8-1-1.1-1.2-0.3c-0.2,0.9-1.1,0.3-1.4-0.2c-0.3-0.7-0.2-1.5,0-2.2
						c0.3-1.3,1.1-2.6,2.5-2.8c0.4,0,0.8-0.4,0.6-0.8c-0.6-1.5-1.2-2.9-1.8-4.4C10.1,104,8.8,104.4,9.1,105.1L9.1,105.1z"/>
				</g>
			</g>
			<g id="XMLID_13575_">
				<g id="XMLID_13576_">
					<path id="XMLID_13577_" class="st1" d="M11.1,114.1c0.8,0,0.8-1.3,0-1.3C10.3,112.8,10.3,114.1,11.1,114.1L11.1,114.1z"/>
				</g>
			</g>
			<g id="XMLID_13572_">
				<g id="XMLID_13573_">
					<path id="XMLID_13574_" class="st1" d="M8.4,108.2c0.8,0,0.8-1.3,0-1.3C7.6,107,7.6,108.2,8.4,108.2L8.4,108.2z"/>
				</g>
			</g>
		</g>
		<g id="XMLID_13492_">
			<g id="XMLID_13568_">
				<g id="XMLID_13569_">
					<path id="XMLID_13570_" class="st1" d="M58.6,146.2c-0.4,1-1.2-0.4-1.2-0.9c0-0.7,0.4-1.4,1.1-1.7c1.4-0.5,2.4,0.8,3.3,1.6
						c1.9,1.6,4.9,3.1,7.5,2.4c2.1-0.5,3.6-3.1,1.8-4.8c-1.7-1.6-4.3-0.3-4.4,1.9c0,0.8,1.2,0.8,1.3,0c0-1.5,2.1-1.9,2.6-0.4
						c0.5,1.6-1.6,2.3-2.8,2.2c-1.4-0.1-2.9-0.7-4.1-1.5c-1.1-0.7-1.9-1.8-3.1-2.4c-2-1.1-4.5,0.3-4.6,2.5c0,1,0.4,2,1.3,2.5
						c0.8,0.4,1.9,0.1,2.3-0.8C60,146.1,58.9,145.5,58.6,146.2L58.6,146.2z"/>
				</g>
			</g>
			<g id="XMLID_13565_">
				<g id="XMLID_13566_">
					<path id="XMLID_13567_" class="st1" d="M80.4,145.9c0-1.8-2-3.4-3.8-2.9c-0.9,0.3-1.2,1.2-2,1.6c-0.9,0.5-1.9,0.3-2.6-0.3
						c-0.7-0.5-1.3,0.6-0.6,1.1c1.1,0.8,2.5,0.9,3.7,0.4c0.7-0.3,1-0.8,1.5-1.3c1-0.9,2.6,0.3,2.6,1.4
						C79.1,146.7,80.4,146.7,80.4,145.9L80.4,145.9z"/>
				</g>
			</g>
			<g id="XMLID_13562_">
				<g id="XMLID_13563_">
					<path id="XMLID_13564_" class="st1" d="M78.2,147.3c0.8,0,0.8-1.3,0-1.3C77.3,146.1,77.3,147.3,78.2,147.3L78.2,147.3z"/>
				</g>
			</g>
			<g id="XMLID_13559_">
				<g id="XMLID_13560_">
					<path id="XMLID_13561_" class="st1" d="M65,143.9c0.8,0,0.8-1.3,0-1.3C64.2,142.6,64.2,143.9,65,143.9L65,143.9z"/>
				</g>
			</g>
			<g id="XMLID_13556_">
				<g id="XMLID_13557_">
					<path id="XMLID_13558_" class="st1" d="M80.1,145.3c0.7-0.4,1.6,0,2.3,0.3c0.8,0.3,1.6,0.7,2.4,1c1.2,0.4,2.6,0.7,3.7-0.1
						c2.2-1.4,0.6-4.9-1.9-3.8c-0.7,0.3-0.1,1.4,0.6,1.1c0.6-0.3,1.1,0.2,1.1,0.8c0,0.6-0.6,1-1.1,1.1c-0.9,0.2-1.9-0.3-2.8-0.6
						c-1.5-0.6-3.3-1.7-5-0.8C78.7,144.6,79.3,145.7,80.1,145.3L80.1,145.3z"/>
				</g>
			</g>
			<g id="XMLID_13553_">
				<g id="XMLID_13554_">
					<path id="XMLID_13555_" class="st1" d="M88.4,141.7c0.5,1,1.5,1.7,2.6,1.4c1-0.2,1.8-1.1,1.7-2.1c0-1.2-0.9-2.1-1.7-2.9
						c-0.5-0.5-0.9-1-1-1.7c-0.1-0.8-0.1-1.7-0.1-2.6c0-0.8-1.3-0.8-1.3,0c0.1,1.7,0,3.4,1.1,4.8c0.5,0.6,1.3,1.2,1.6,2
						c0.2,0.6-0.1,1.2-0.8,1.2c-0.5,0-0.9-0.4-1.1-0.8C89.1,140.3,88,140.9,88.4,141.7L88.4,141.7z"/>
				</g>
			</g>
			<g id="XMLID_13550_">
				<g id="XMLID_13551_">
					<path id="XMLID_13552_" class="st1" d="M91.8,114c0.9-0.4,1.2-1.4,0.8-2.2c-0.4-0.9-1.4-1.4-2.4-1.4c-2.3,0-3.8,2.5-2.7,4.6
						c0.6,1.1,1.6,1.9,2.3,2.9c0.7,1.2,1.4,2.6,1.5,4c0.1,1.2-0.4,3.4-2.1,3c-1.6-0.3-1.3-2.6,0.3-2.6c0.8,0,0.8-1.3,0-1.3
						c-2.2,0.1-3.5,2.6-2,4.3c1.7,1.9,4.4,0.4,4.9-1.7c0.6-2.5-0.8-5.5-2.3-7.4c-0.8-1-2.2-2-1.6-3.4c0.3-0.7,0.9-1.1,1.7-1.1
						c0.6,0,1.9,0.8,0.9,1.2C90.4,113.2,91,114.3,91.8,114L91.8,114z"/>
				</g>
			</g>
			<g id="XMLID_13547_">
				<g id="XMLID_13548_">
					<path id="XMLID_13549_" class="st1" d="M90.8,133.5c-1,0-2.2-1.4-1.6-2.4c0.4-0.6,1.1-1,1.5-1.7c0.6-1.2,0.4-2.7-0.4-3.7
						c-0.5-0.6-1.6,0-1.1,0.6c0.6,0.7,0.7,1.7,0.3,2.5c-0.4,0.9-1.4,1.2-1.7,2.1c-0.5,1.8,1.1,3.8,2.9,3.8
						C91.7,134.7,91.7,133.5,90.8,133.5L90.8,133.5z"/>
				</g>
			</g>
			<g id="XMLID_13544_">
				<g id="XMLID_13545_">
					<path id="XMLID_13546_" class="st1" d="M91.6,133.1c0.8,0,0.8-1.3,0-1.3C90.8,131.9,90.8,133.1,91.6,133.1L91.6,133.1z"/>
				</g>
			</g>
			<g id="XMLID_13541_">
				<g id="XMLID_13542_">
					<path id="XMLID_13543_" class="st1" d="M88.1,120c0.8,0,0.8-1.3,0-1.3C87.3,118.7,87.3,120,88.1,120L88.1,120z"/>
				</g>
			</g>
			<g id="XMLID_13538_">
				<g id="XMLID_13539_">
					<path id="XMLID_13540_" class="st1" d="M92.2,108c-1.2-1.3-2.9-0.7-4.2,0c-0.7,0.4-0.1,1.5,0.6,1.1c0.8-0.4,1.9-1,2.7-0.2
						C91.9,109.5,92.8,108.6,92.2,108L92.2,108z"/>
				</g>
			</g>
			<g id="XMLID_13535_">
				<g id="XMLID_13536_">
					<path id="XMLID_13537_" class="st1" d="M91.2,106.2c1.3-0.9,1.9-2.8,1.3-4.3c-0.6-1.5-2.5-2-3.8-1c-0.6,0.5-1,1.1-1.2,1.9
						c-0.2,0.7-0.6,1.8-0.1,2.5c0.6,0.9,3.1,2,3.7,0.7c0.4-0.7-0.7-1.4-1.1-0.6c0,0,0,0.1-0.1,0.1c0.1-0.1,0.3-0.2,0.4-0.3
						c-0.6,0.2-1.9-0.1-1.9-0.8c0-0.8,0.3-1.9,0.9-2.4c0.8-0.7,1.9-0.2,2,0.8c0.1,0.8-0.2,1.8-0.9,2.3
						C89.9,105.6,90.6,106.7,91.2,106.2L91.2,106.2z"/>
				</g>
			</g>
			<g id="XMLID_13532_">
				<g id="XMLID_13533_">
					<path id="XMLID_13534_" class="st1" d="M89.3,103.7C89.3,103.7,89.3,103.8,89.3,103.7c0,0.4,0.3,0.7,0.6,0.7
						c0.3,0,0.6-0.3,0.6-0.6c0,0,0,0,0-0.1c0-0.3-0.3-0.7-0.6-0.6C89.6,103.1,89.3,103.4,89.3,103.7L89.3,103.7z"/>
				</g>
			</g>
			<g id="XMLID_13529_">
				<g id="XMLID_13530_">
					<path id="XMLID_13531_" class="st1" d="M91.4,97.3c0.5,0.5-0.8,1.1-1.1,1.1c-0.5,0.1-1-0.1-1.2-0.6c-0.5-0.7-0.2-1.7,0.2-2.4
						c1-1.6,2.8-2.6,3.5-4.4c0.6-1.6,0.1-3.4-1.1-4.6c-0.6-0.7-1.5-1.1-2.1-1.7c-0.3-0.3-0.6-0.6-0.8-1.1c-0.1-0.4-0.3-1.6,0.6-1.3
						c0.8,0.3,1.1-1,0.3-1.2c-0.9-0.3-1.7,0.2-2.1,1c-0.4,0.8-0.2,1.7,0.2,2.5c1.1,1.9,3.9,2.4,4,4.9c0.1,2.4-2.8,3.7-3.8,5.7
						c-0.7,1.5-0.5,3.7,1.2,4.4c1.7,0.7,4.9-1.4,3.1-3.2C91.7,95.9,90.8,96.8,91.4,97.3L91.4,97.3z"/>
				</g>
			</g>
			<g id="XMLID_13526_">
				<g id="XMLID_13527_">
					<path id="XMLID_13528_" class="st1" d="M90.6,82C90.6,82,90.6,82,90.6,82c0,0.4,0.3,0.7,0.6,0.7c0.3,0,0.6-0.3,0.6-0.6
						c0,0,0,0,0-0.1c0-0.3-0.3-0.7-0.6-0.6C90.9,81.4,90.6,81.6,90.6,82L90.6,82z"/>
				</g>
			</g>
			<g id="XMLID_13523_">
				<g id="XMLID_13524_">
					<path id="XMLID_13525_" class="st1" d="M89.2,92c1.4-1.1,1.4-2.9,0.2-4.2c-0.6-0.6-1.5,0.3-0.9,0.9c0.6,0.6,0.8,1.6,0,2.2
						C87.9,91.4,88.6,92.5,89.2,92L89.2,92z"/>
				</g>
			</g>
			<g id="XMLID_13520_">
				<g id="XMLID_13521_">
					<path id="XMLID_13522_" class="st1" d="M91.9,95.7c0.8,0,0.8-1.3,0-1.3C91.1,94.4,91.1,95.7,91.9,95.7L91.9,95.7z"/>
				</g>
			</g>
			<g id="XMLID_13517_">
				<g id="XMLID_13518_">
					<path id="XMLID_13519_" class="st1" d="M91.6,76.9c-0.3,0.3-0.6,0.7-1,1c-0.3,0.3-0.6,0.8-0.9,1c0.2,0,0.4,0,0.6,0
						c-0.3-0.2-0.7-0.7-0.9-1c-0.3-0.3-0.6-0.7-0.9-1.1c-0.5-0.6-1.4,0.3-0.9,0.9c0.6,0.7,1.3,1.8,2.1,2.3c0.2,0.1,0.4,0.1,0.6,0
						c0.8-0.5,1.5-1.5,2.1-2.2C93.1,77.2,92.2,76.3,91.6,76.9L91.6,76.9z"/>
				</g>
			</g>
			<g id="XMLID_13514_">
				<g id="XMLID_13515_">
					<path id="XMLID_13516_" class="st1" d="M91.6,73.3c-0.3,0.3-0.6,0.7-1,1c-0.3,0.3-0.6,0.8-0.9,1c0.2,0,0.4,0,0.6,0
						c-0.3-0.2-0.7-0.7-0.9-1c-0.3-0.3-0.6-0.7-0.9-1.1c-0.5-0.6-1.4,0.3-0.9,0.9c0.6,0.7,1.3,1.8,2.1,2.3c0.2,0.1,0.4,0.1,0.6,0
						c0.8-0.5,1.5-1.5,2.1-2.2C93.1,73.6,92.2,72.7,91.6,73.3L91.6,73.3z"/>
				</g>
			</g>
			<g id="XMLID_13511_">
				<g id="XMLID_13512_">
					<path id="XMLID_13513_" class="st1" d="M88.9,72.1c0.8-1.1,1.9-2,3.2-2.6c0.4-0.2,0.4-0.9,0-1.1c-1-0.5-1.1-1.8-1.9-2.6
						c-0.6-0.6-1.6-0.8-2.3-0.4c0.3,0.3,0.6,0.6,0.9,0.9c0.7-1.1,1.6-2.1,2.7-2.8c0.3-0.2,0.5-0.7,0.1-1c-1-0.8-2-1.5-3.1-2.1
						c-0.7-0.4-1.4,0.7-0.6,1.1c1,0.5,2,1.2,2.9,1.9c0-0.3,0.1-0.7,0.1-1c-1.3,0.9-2.3,2-3.2,3.3c-0.4,0.6,0.3,1.2,0.9,0.9
						c0.8-0.4,1.3,1,1.6,1.5c0.3,0.6,0.7,1.2,1.4,1.4c0-0.4,0-0.7,0-1.1c-1.5,0.7-2.7,1.7-3.7,3C87.4,72.2,88.5,72.8,88.9,72.1
						L88.9,72.1z"/>
				</g>
			</g>
			<g id="XMLID_13508_">
				<g id="XMLID_13509_">
					<path id="XMLID_13510_" class="st1" d="M90.4,62.5c1-0.6,1.7-1.6,1.8-2.7c0.1-1.2-0.5-2.2-1.3-3.1c-1-1.1-2-2.2-1.5-3.8
						c0.2-0.6,0.8-1.4,1.6-1.2c0.9,0.2,0.7,2.2,0.1,2c-0.8-0.3-1.1,0.9-0.3,1.2c1.9,0.7,2.5-2.2,1.9-3.5c-0.8-1.6-3-1.2-3.9,0.1
						c-1.1,1.6-0.8,3.6,0.4,5c0.6,0.7,1.4,1.4,1.8,2.3c0.4,1-0.1,2.1-1,2.6C89.1,61.8,89.7,62.9,90.4,62.5L90.4,62.5z"/>
				</g>
			</g>
			<g id="XMLID_13505_">
				<g id="XMLID_13506_">
					<path id="XMLID_13507_" class="st1" d="M88.7,59.1c0.8,0,0.8-1.3,0-1.3C87.8,57.8,87.8,59.1,88.7,59.1L88.7,59.1z"/>
				</g>
			</g>
			<g id="XMLID_13502_">
				<g id="XMLID_13503_">
					<path id="XMLID_13504_" class="st1" d="M91.3,65.1C91.3,65.1,91.3,65.1,91.3,65.1c-0.3,0.3-0.3,0.8-0.1,1
						c0.3,0.2,0.6,0.3,0.9,0c0,0,0.1-0.1,0.1-0.1c0.2-0.2,0.3-0.7,0-0.9C92,64.8,91.6,64.8,91.3,65.1L91.3,65.1z"/>
				</g>
			</g>
			<g id="XMLID_13499_">
				<g id="XMLID_13500_">
					<path id="XMLID_13501_" class="st1" d="M90.9,50.6c-0.6-1.5-1.2-2.9-1.8-4.4c-0.2,0.3-0.4,0.5-0.6,0.8c2.7-0.2,4.1-3.1,3.9-5.6
						c-0.1-1.1-0.7-2.2-1.8-2.5c-1-0.3-2,0.3-2.2,1.3c-0.2,0.8,1,1.1,1.2,0.3c0.2-0.9,1.1-0.3,1.4,0.2c0.3,0.7,0.2,1.5,0,2.2
						c-0.3,1.3-1.1,2.6-2.5,2.8c-0.4,0-0.8,0.4-0.6,0.8c0.6,1.5,1.2,2.9,1.8,4.4C89.9,51.7,91.2,51.4,90.9,50.6L90.9,50.6z"/>
				</g>
			</g>
			<g id="XMLID_13496_">
				<g id="XMLID_13497_">
					<path id="XMLID_13498_" class="st1" d="M88.9,42.9c0.8,0,0.8-1.3,0-1.3C88.1,41.7,88.1,42.9,88.9,42.9L88.9,42.9z"/>
				</g>
			</g>
			<g id="XMLID_13493_">
				<g id="XMLID_13494_">
					<path id="XMLID_13495_" class="st1" d="M91.6,48.8c0.8,0,0.8-1.3,0-1.3C90.8,47.5,90.8,48.8,91.6,48.8L91.6,48.8z"/>
				</g>
			</g>
		</g>
		<g id="XMLID_13413_">
			<g id="XMLID_13489_">
				<g id="XMLID_13490_">
					<path id="XMLID_13491_" class="st1" d="M41.4,9.5c0.4-1,1.2,0.4,1.2,0.9c0,0.7-0.4,1.4-1.1,1.7c-1.4,0.5-2.4-0.8-3.3-1.6
						c-1.9-1.6-4.9-3.1-7.5-2.4c-2.1,0.5-3.6,3.1-1.8,4.8c1.7,1.6,4.3,0.3,4.4-1.9c0-0.8-1.2-0.8-1.3,0c0,1.5-2.1,1.9-2.6,0.4
						c-0.5-1.6,1.6-2.3,2.8-2.2c1.4,0.1,2.9,0.7,4.1,1.5c1.1,0.7,1.9,1.8,3.1,2.4c2,1.1,4.5-0.3,4.6-2.5c0-1-0.4-2-1.3-2.5
						c-0.8-0.4-1.9-0.1-2.3,0.8C40,9.6,41.1,10.3,41.4,9.5L41.4,9.5z"/>
				</g>
			</g>
			<g id="XMLID_13486_">
				<g id="XMLID_13487_">
					<path id="XMLID_13488_" class="st1" d="M19.6,9.8c0,1.8,2,3.4,3.8,2.9c0.9-0.3,1.2-1.2,2-1.6c0.9-0.5,1.9-0.3,2.6,0.3
						c0.7,0.5,1.3-0.6,0.6-1.1c-1.1-0.8-2.5-0.9-3.7-0.4c-0.7,0.3-1,0.8-1.5,1.3c-1,0.9-2.6-0.3-2.6-1.4C20.9,9,19.6,9,19.6,9.8
						L19.6,9.8z"/>
				</g>
			</g>
			<g id="XMLID_13483_">
				<g id="XMLID_13484_">
					<path id="XMLID_13485_" class="st1" d="M21.8,9.7c0.8,0,0.8-1.3,0-1.3C21,8.4,21,9.7,21.8,9.7L21.8,9.7z"/>
				</g>
			</g>
			<g id="XMLID_13480_">
				<g id="XMLID_13481_">
					<path id="XMLID_13482_" class="st1" d="M35,13.1c0.8,0,0.8-1.3,0-1.3C34.1,11.9,34.1,13.1,35,13.1L35,13.1z"/>
				</g>
			</g>
			<g id="XMLID_13477_">
				<g id="XMLID_13478_">
					<path id="XMLID_13479_" class="st1" d="M19.9,10.4c-0.7,0.4-1.6,0-2.3-0.3c-0.8-0.3-1.6-0.7-2.4-1c-1.2-0.4-2.6-0.7-3.7,0.1
						c-2.2,1.4-0.6,4.9,1.9,3.8c0.7-0.3,0.1-1.4-0.6-1.1c-0.6,0.3-1.1-0.2-1.1-0.8c0-0.6,0.6-1,1.1-1.1c0.9-0.2,1.9,0.3,2.8,0.6
						c1.5,0.6,3.3,1.7,5,0.8C21.3,11.1,20.7,10,19.9,10.4L19.9,10.4z"/>
				</g>
			</g>
			<g id="XMLID_13474_">
				<g id="XMLID_13475_">
					<path id="XMLID_13476_" class="st1" d="M11.6,14.1c-0.5-1-1.5-1.7-2.6-1.4c-1,0.2-1.8,1.1-1.7,2.1c0,1.2,0.9,2.1,1.7,2.9
						c0.5,0.5,0.9,1,1,1.7c0.1,0.8,0.1,1.7,0.1,2.6c0,0.8,1.3,0.8,1.3,0c-0.1-1.7,0-3.4-1.1-4.8c-0.5-0.6-1.3-1.2-1.6-2
						c-0.2-0.6,0.1-1.2,0.8-1.2c0.5,0,0.9,0.4,1.1,0.8C10.9,15.4,12,14.8,11.6,14.1L11.6,14.1z"/>
				</g>
			</g>
			<g id="XMLID_13471_">
				<g id="XMLID_13472_">
					<path id="XMLID_13473_" class="st1" d="M8.2,41.8c-0.9,0.4-1.2,1.4-0.8,2.2c0.4,0.9,1.4,1.4,2.4,1.4c2.3,0,3.8-2.5,2.7-4.6
						c-0.6-1.1-1.6-1.9-2.3-2.9c-0.7-1.2-1.4-2.6-1.5-4c-0.1-1.2,0.4-3.4,2.1-3c1.6,0.3,1.3,2.6-0.3,2.6c-0.8,0-0.8,1.3,0,1.3
						c2.2-0.1,3.5-2.6,2-4.3c-1.7-1.9-4.4-0.4-4.9,1.7c-0.6,2.5,0.8,5.5,2.3,7.4c0.8,1,2.2,2,1.6,3.4c-0.3,0.7-0.9,1.1-1.7,1.1
						c-0.6,0-1.9-0.8-0.9-1.2C9.6,42.5,9,41.4,8.2,41.8L8.2,41.8z"/>
				</g>
			</g>
			<g id="XMLID_13468_">
				<g id="XMLID_13469_">
					<path id="XMLID_13470_" class="st1" d="M9.2,22.3c1,0,2.2,1.4,1.6,2.4c-0.4,0.6-1.1,1-1.5,1.7c-0.6,1.2-0.4,2.7,0.4,3.7
						c0.5,0.6,1.6,0,1.1-0.6c-0.6-0.7-0.7-1.7-0.3-2.5c0.4-0.9,1.4-1.2,1.7-2.1C12.6,23,11,21,9.2,21C8.3,21,8.3,22.3,9.2,22.3
						L9.2,22.3z"/>
				</g>
			</g>
			<g id="XMLID_13465_">
				<g id="XMLID_13466_">
					<path id="XMLID_13467_" class="st1" d="M8.4,23.9c0.8,0,0.8-1.3,0-1.3C7.6,22.6,7.6,23.9,8.4,23.9L8.4,23.9z"/>
				</g>
			</g>
			<g id="XMLID_13462_">
				<g id="XMLID_13463_">
					<path id="XMLID_13464_" class="st1" d="M11.9,37c0.8,0,0.8-1.3,0-1.3C11.1,35.7,11.1,37,11.9,37L11.9,37z"/>
				</g>
			</g>
			<g id="XMLID_13459_">
				<g id="XMLID_13460_">
					<path id="XMLID_13461_" class="st1" d="M7.8,47.7c1.2,1.3,2.9,0.7,4.2,0c0.7-0.4,0.1-1.5-0.6-1.1c-0.8,0.4-1.9,1-2.7,0.2
						C8.1,46.2,7.2,47.1,7.8,47.7L7.8,47.7z"/>
				</g>
			</g>
			<g id="XMLID_13456_">
				<g id="XMLID_13457_">
					<path id="XMLID_13458_" class="st1" d="M8.8,49.5c-1.3,0.9-1.9,2.8-1.3,4.3c0.6,1.5,2.5,2,3.8,1c0.6-0.5,1-1.1,1.2-1.9
						c0.2-0.7,0.6-1.8,0.1-2.5c-0.6-0.9-3.1-2-3.7-0.7c-0.4,0.7,0.7,1.4,1.1,0.6c0,0,0-0.1,0.1-0.1c-0.1,0.1-0.3,0.2-0.4,0.3
						c0.6-0.2,1.9,0.1,1.9,0.8c0,0.8-0.3,1.9-0.9,2.4c-0.8,0.7-1.9,0.2-2-0.8c-0.1-0.8,0.2-1.8,0.9-2.3C10.1,50.1,9.4,49,8.8,49.5
						L8.8,49.5z"/>
				</g>
			</g>
			<g id="XMLID_13453_">
				<g id="XMLID_13454_">
					<path id="XMLID_13455_" class="st1" d="M10.7,52C10.7,52,10.7,52,10.7,52c0-0.4-0.3-0.7-0.6-0.7c-0.3,0-0.6,0.3-0.6,0.6
						c0,0,0,0,0,0.1c0,0.3,0.3,0.7,0.6,0.6C10.4,52.6,10.7,52.4,10.7,52L10.7,52z"/>
				</g>
			</g>
			<g id="XMLID_13450_">
				<g id="XMLID_13451_">
					<path id="XMLID_13452_" class="st1" d="M8.6,58.4c-0.5-0.5,0.8-1.1,1.1-1.1c0.5-0.1,1,0.1,1.2,0.6c0.5,0.7,0.2,1.7-0.2,2.4
						c-1,1.6-2.8,2.6-3.5,4.4c-0.6,1.6-0.1,3.4,1.1,4.6c0.6,0.7,1.5,1.1,2.1,1.7c0.3,0.3,0.6,0.6,0.8,1.1c0.1,0.4,0.3,1.6-0.6,1.3
						c-0.8-0.3-1.1,1-0.3,1.2c0.9,0.3,1.7-0.2,2.1-1c0.4-0.8,0.2-1.7-0.2-2.5c-1.1-1.9-3.9-2.4-4-4.9c-0.1-2.4,2.8-3.7,3.8-5.7
						c0.7-1.5,0.5-3.7-1.2-4.4c-1.7-0.7-4.9,1.4-3.1,3.2C8.3,59.9,9.2,59,8.6,58.4L8.6,58.4z"/>
				</g>
			</g>
			<g id="XMLID_13447_">
				<g id="XMLID_13448_">
					<path id="XMLID_13449_" class="st1" d="M9.4,73.8C9.4,73.7,9.4,73.7,9.4,73.8c0-0.4-0.3-0.7-0.6-0.7c-0.3,0-0.6,0.3-0.6,0.6
						c0,0,0,0,0,0.1c0,0.3,0.3,0.7,0.6,0.6C9.1,74.4,9.4,74.1,9.4,73.8L9.4,73.8z"/>
				</g>
			</g>
			<g id="XMLID_13444_">
				<g id="XMLID_13445_">
					<path id="XMLID_13446_" class="st1" d="M10.8,63.7c-1.4,1.1-1.4,2.9-0.2,4.2c0.6,0.6,1.5-0.3,0.9-0.9c-0.6-0.6-0.8-1.6,0-2.2
						C12.1,64.3,11.4,63.2,10.8,63.7L10.8,63.7z"/>
				</g>
			</g>
			<g id="XMLID_13441_">
				<g id="XMLID_13442_">
					<path id="XMLID_13443_" class="st1" d="M8.1,61.4c0.8,0,0.8-1.3,0-1.3C7.2,60.1,7.2,61.4,8.1,61.4L8.1,61.4z"/>
				</g>
			</g>
			<g id="XMLID_13438_">
				<g id="XMLID_13439_">
					<path id="XMLID_13440_" class="st1" d="M8.4,78.8c0.3-0.3,0.6-0.7,1-1c0.3-0.3,0.6-0.8,0.9-1c-0.2,0-0.4,0-0.6,0
						c0.3,0.2,0.7,0.7,0.9,1c0.3,0.3,0.6,0.7,0.9,1.1c0.5,0.6,1.4-0.3,0.9-0.9c-0.6-0.7-1.3-1.8-2.1-2.3c-0.2-0.1-0.4-0.1-0.6,0
						c-0.8,0.5-1.5,1.5-2.1,2.2C6.9,78.5,7.8,79.4,8.4,78.8L8.4,78.8z"/>
				</g>
			</g>
			<g id="XMLID_13435_">
				<g id="XMLID_13436_">
					<path id="XMLID_13437_" class="st1" d="M8.4,82.4c0.3-0.3,0.6-0.7,1-1c0.3-0.3,0.6-0.8,0.9-1c-0.2,0-0.4,0-0.6,0
						c0.3,0.2,0.7,0.7,0.9,1c0.3,0.3,0.6,0.7,0.9,1.1c0.5,0.6,1.4-0.3,0.9-0.9c-0.6-0.7-1.3-1.8-2.1-2.3c-0.2-0.1-0.4-0.1-0.6,0
						c-0.8,0.5-1.5,1.5-2.1,2.2C6.9,82.1,7.8,83,8.4,82.4L8.4,82.4z"/>
				</g>
			</g>
			<g id="XMLID_13432_">
				<g id="XMLID_13433_">
					<path id="XMLID_13434_" class="st1" d="M11.1,83.6c-0.8,1.1-1.9,2-3.2,2.6c-0.4,0.2-0.4,0.9,0,1.1c1,0.5,1.1,1.8,1.9,2.6
						c0.6,0.6,1.6,0.8,2.3,0.4c-0.3-0.3-0.6-0.6-0.9-0.9c-0.7,1.1-1.6,2.1-2.7,2.8c-0.3,0.2-0.5,0.7-0.1,1c1,0.8,2,1.5,3.1,2.1
						c0.7,0.4,1.4-0.7,0.6-1.1c-1-0.5-2-1.2-2.9-1.9c0,0.3-0.1,0.7-0.1,1c1.3-0.9,2.3-2,3.2-3.3c0.4-0.6-0.3-1.2-0.9-0.9
						c-0.8,0.4-1.3-1-1.6-1.5c-0.3-0.6-0.7-1.2-1.4-1.4c0,0.4,0,0.7,0,1.1c1.5-0.7,2.7-1.7,3.7-3C12.6,83.6,11.5,82.9,11.1,83.6
						L11.1,83.6z"/>
				</g>
			</g>
			<g id="XMLID_13429_">
				<g id="XMLID_13430_">
					<path id="XMLID_13431_" class="st1" d="M9.6,93.2c-1,0.6-1.7,1.6-1.8,2.7c-0.1,1.2,0.5,2.2,1.3,3.1c1,1.1,2,2.2,1.5,3.8
						c-0.2,0.6-0.8,1.4-1.6,1.2c-0.9-0.2-0.7-2.2-0.1-2c0.8,0.3,1.1-0.9,0.3-1.2c-1.9-0.7-2.5,2.2-1.9,3.5c0.8,1.6,3,1.2,3.9-0.1
						c1.1-1.6,0.8-3.6-0.4-5c-0.6-0.7-1.4-1.4-1.8-2.3c-0.4-1,0.1-2.1,1-2.6C10.9,93.9,10.3,92.8,9.6,93.2L9.6,93.2z"/>
				</g>
			</g>
			<g id="XMLID_13426_">
				<g id="XMLID_13427_">
					<path id="XMLID_13428_" class="st1" d="M11.3,97.9c0.8,0,0.8-1.3,0-1.3C10.5,96.6,10.5,97.9,11.3,97.9L11.3,97.9z"/>
				</g>
			</g>
			<g id="XMLID_13423_">
				<g id="XMLID_13424_">
					<path id="XMLID_13425_" class="st1" d="M8.7,90.7C8.7,90.7,8.7,90.6,8.7,90.7c0.3-0.3,0.3-0.8,0.1-1c-0.3-0.2-0.6-0.3-0.9,0
						c0,0-0.1,0.1-0.1,0.1c-0.2,0.2-0.3,0.7,0,0.9C8,90.9,8.4,90.9,8.7,90.7L8.7,90.7z"/>
				</g>
			</g>
			<g id="XMLID_13420_">
				<g id="XMLID_13421_">
					<path id="XMLID_13422_" class="st1" d="M9.1,105.1c0.6,1.5,1.2,2.9,1.8,4.4c0.2-0.3,0.4-0.5,0.6-0.8c-2.7,0.2-4.1,3.1-3.9,5.6
						c0.1,1.1,0.7,2.2,1.8,2.5c1,0.3,2-0.3,2.2-1.3c0.2-0.8-1-1.1-1.2-0.3c-0.2,0.9-1.1,0.3-1.4-0.2c-0.3-0.7-0.2-1.5,0-2.2
						c0.3-1.3,1.1-2.6,2.5-2.8c0.4,0,0.8-0.4,0.6-0.8c-0.6-1.5-1.2-2.9-1.8-4.4C10.1,104,8.8,104.4,9.1,105.1L9.1,105.1z"/>
				</g>
			</g>
			<g id="XMLID_13417_">
				<g id="XMLID_13418_">
					<path id="XMLID_13419_" class="st1" d="M11.1,114.1c0.8,0,0.8-1.3,0-1.3C10.3,112.8,10.3,114.1,11.1,114.1L11.1,114.1z"/>
				</g>
			</g>
			<g id="XMLID_13414_">
				<g id="XMLID_13415_">
					<path id="XMLID_13416_" class="st1" d="M8.4,108.2c0.8,0,0.8-1.3,0-1.3C7.6,107,7.6,108.2,8.4,108.2L8.4,108.2z"/>
				</g>
			</g>
		</g>
		<g id="XMLID_13334_">
			<g id="XMLID_13410_">
				<g id="XMLID_13411_">
					<path id="XMLID_13412_" class="st1" d="M58.6,146.2c-0.4,1-1.2-0.4-1.2-0.9c0-0.7,0.4-1.4,1.1-1.7c1.4-0.5,2.4,0.8,3.3,1.6
						c1.9,1.6,4.9,3.1,7.5,2.4c2.1-0.5,3.6-3.1,1.8-4.8c-1.7-1.6-4.3-0.3-4.4,1.9c0,0.8,1.2,0.8,1.3,0c0-1.5,2.1-1.9,2.6-0.4
						c0.5,1.6-1.6,2.3-2.8,2.2c-1.4-0.1-2.9-0.7-4.1-1.5c-1.1-0.7-1.9-1.8-3.1-2.4c-2-1.1-4.5,0.3-4.6,2.5c0,1,0.4,2,1.3,2.5
						c0.8,0.4,1.9,0.1,2.3-0.8C60,146.1,58.9,145.5,58.6,146.2L58.6,146.2z"/>
				</g>
			</g>
			<g id="XMLID_13407_">
				<g id="XMLID_13408_">
					<path id="XMLID_13409_" class="st1" d="M80.4,145.9c0-1.8-2-3.4-3.8-2.9c-0.9,0.3-1.2,1.2-2,1.6c-0.9,0.5-1.9,0.3-2.6-0.3
						c-0.7-0.5-1.3,0.6-0.6,1.1c1.1,0.8,2.5,0.9,3.7,0.4c0.7-0.3,1-0.8,1.5-1.3c1-0.9,2.6,0.3,2.6,1.4
						C79.1,146.7,80.4,146.7,80.4,145.9L80.4,145.9z"/>
				</g>
			</g>
			<g id="XMLID_13404_">
				<g id="XMLID_13405_">
					<path id="XMLID_13406_" class="st1" d="M78.2,147.3c0.8,0,0.8-1.3,0-1.3C77.3,146.1,77.3,147.3,78.2,147.3L78.2,147.3z"/>
				</g>
			</g>
			<g id="XMLID_13401_">
				<g id="XMLID_13402_">
					<path id="XMLID_13403_" class="st1" d="M65,143.9c0.8,0,0.8-1.3,0-1.3C64.2,142.6,64.2,143.9,65,143.9L65,143.9z"/>
				</g>
			</g>
			<g id="XMLID_13398_">
				<g id="XMLID_13399_">
					<path id="XMLID_13400_" class="st1" d="M80.1,145.3c0.7-0.4,1.6,0,2.3,0.3c0.8,0.3,1.6,0.7,2.4,1c1.2,0.4,2.6,0.7,3.7-0.1
						c2.2-1.4,0.6-4.9-1.9-3.8c-0.7,0.3-0.1,1.4,0.6,1.1c0.6-0.3,1.1,0.2,1.1,0.8c0,0.6-0.6,1-1.1,1.1c-0.9,0.2-1.9-0.3-2.8-0.6
						c-1.5-0.6-3.3-1.7-5-0.8C78.7,144.6,79.3,145.7,80.1,145.3L80.1,145.3z"/>
				</g>
			</g>
			<g id="XMLID_13395_">
				<g id="XMLID_13396_">
					<path id="XMLID_13397_" class="st1" d="M88.4,141.7c0.5,1,1.5,1.7,2.6,1.4c1-0.2,1.8-1.1,1.7-2.1c0-1.2-0.9-2.1-1.7-2.9
						c-0.5-0.5-0.9-1-1-1.7c-0.1-0.8-0.1-1.7-0.1-2.6c0-0.8-1.3-0.8-1.3,0c0.1,1.7,0,3.4,1.1,4.8c0.5,0.6,1.3,1.2,1.6,2
						c0.2,0.6-0.1,1.2-0.8,1.2c-0.5,0-0.9-0.4-1.1-0.8C89.1,140.3,88,140.9,88.4,141.7L88.4,141.7z"/>
				</g>
			</g>
			<g id="XMLID_13392_">
				<g id="XMLID_13393_">
					<path id="XMLID_13394_" class="st1" d="M91.8,114c0.9-0.4,1.2-1.4,0.8-2.2c-0.4-0.9-1.4-1.4-2.4-1.4c-2.3,0-3.8,2.5-2.7,4.6
						c0.6,1.1,1.6,1.9,2.3,2.9c0.7,1.2,1.4,2.6,1.5,4c0.1,1.2-0.4,3.4-2.1,3c-1.6-0.3-1.3-2.6,0.3-2.6c0.8,0,0.8-1.3,0-1.3
						c-2.2,0.1-3.5,2.6-2,4.3c1.7,1.9,4.4,0.4,4.9-1.7c0.6-2.5-0.8-5.5-2.3-7.4c-0.8-1-2.2-2-1.6-3.4c0.3-0.7,0.9-1.1,1.7-1.1
						c0.6,0,1.9,0.8,0.9,1.2C90.4,113.2,91,114.3,91.8,114L91.8,114z"/>
				</g>
			</g>
			<g id="XMLID_13389_">
				<g id="XMLID_13390_">
					<path id="XMLID_13391_" class="st1" d="M90.8,133.5c-1,0-2.2-1.4-1.6-2.4c0.4-0.6,1.1-1,1.5-1.7c0.6-1.2,0.4-2.7-0.4-3.7
						c-0.5-0.6-1.6,0-1.1,0.6c0.6,0.7,0.7,1.7,0.3,2.5c-0.4,0.9-1.4,1.2-1.7,2.1c-0.5,1.8,1.1,3.8,2.9,3.8
						C91.7,134.7,91.7,133.5,90.8,133.5L90.8,133.5z"/>
				</g>
			</g>
			<g id="XMLID_13386_">
				<g id="XMLID_13387_">
					<path id="XMLID_13388_" class="st1" d="M91.6,133.1c0.8,0,0.8-1.3,0-1.3C90.8,131.9,90.8,133.1,91.6,133.1L91.6,133.1z"/>
				</g>
			</g>
			<g id="XMLID_13383_">
				<g id="XMLID_13384_">
					<path id="XMLID_13385_" class="st1" d="M88.1,120c0.8,0,0.8-1.3,0-1.3C87.3,118.7,87.3,120,88.1,120L88.1,120z"/>
				</g>
			</g>
			<g id="XMLID_13380_">
				<g id="XMLID_13381_">
					<path id="XMLID_13382_" class="st1" d="M92.2,108c-1.2-1.3-2.9-0.7-4.2,0c-0.7,0.4-0.1,1.5,0.6,1.1c0.8-0.4,1.9-1,2.7-0.2
						C91.9,109.5,92.8,108.6,92.2,108L92.2,108z"/>
				</g>
			</g>
			<g id="XMLID_13377_">
				<g id="XMLID_13378_">
					<path id="XMLID_13379_" class="st1" d="M91.2,106.2c1.3-0.9,1.9-2.8,1.3-4.3c-0.6-1.5-2.5-2-3.8-1c-0.6,0.5-1,1.1-1.2,1.9
						c-0.2,0.7-0.6,1.8-0.1,2.5c0.6,0.9,3.1,2,3.7,0.7c0.4-0.7-0.7-1.4-1.1-0.6c0,0,0,0.1-0.1,0.1c0.1-0.1,0.3-0.2,0.4-0.3
						c-0.6,0.2-1.9-0.1-1.9-0.8c0-0.8,0.3-1.9,0.9-2.4c0.8-0.7,1.9-0.2,2,0.8c0.1,0.8-0.2,1.8-0.9,2.3
						C89.9,105.6,90.6,106.7,91.2,106.2L91.2,106.2z"/>
				</g>
			</g>
			<g id="XMLID_13374_">
				<g id="XMLID_13375_">
					<path id="XMLID_13376_" class="st1" d="M89.3,103.7C89.3,103.7,89.3,103.8,89.3,103.7c0,0.4,0.3,0.7,0.6,0.7
						c0.3,0,0.6-0.3,0.6-0.6c0,0,0,0,0-0.1c0-0.3-0.3-0.7-0.6-0.6C89.6,103.1,89.3,103.4,89.3,103.7L89.3,103.7z"/>
				</g>
			</g>
			<g id="XMLID_13371_">
				<g id="XMLID_13372_">
					<path id="XMLID_13373_" class="st1" d="M91.4,97.3c0.5,0.5-0.8,1.1-1.1,1.1c-0.5,0.1-1-0.1-1.2-0.6c-0.5-0.7-0.2-1.7,0.2-2.4
						c1-1.6,2.8-2.6,3.5-4.4c0.6-1.6,0.1-3.4-1.1-4.6c-0.6-0.7-1.5-1.1-2.1-1.7c-0.3-0.3-0.6-0.6-0.8-1.1c-0.1-0.4-0.3-1.6,0.6-1.3
						c0.8,0.3,1.1-1,0.3-1.2c-0.9-0.3-1.7,0.2-2.1,1c-0.4,0.8-0.2,1.7,0.2,2.5c1.1,1.9,3.9,2.4,4,4.9c0.1,2.4-2.8,3.7-3.8,5.7
						c-0.7,1.5-0.5,3.7,1.2,4.4c1.7,0.7,4.9-1.4,3.1-3.2C91.7,95.9,90.8,96.8,91.4,97.3L91.4,97.3z"/>
				</g>
			</g>
			<g id="XMLID_13368_">
				<g id="XMLID_13369_">
					<path id="XMLID_13370_" class="st1" d="M90.6,82C90.6,82,90.6,82,90.6,82c0,0.4,0.3,0.7,0.6,0.7c0.3,0,0.6-0.3,0.6-0.6
						c0,0,0,0,0-0.1c0-0.3-0.3-0.7-0.6-0.6C90.9,81.4,90.6,81.6,90.6,82L90.6,82z"/>
				</g>
			</g>
			<g id="XMLID_13365_">
				<g id="XMLID_13366_">
					<path id="XMLID_13367_" class="st1" d="M89.2,92c1.4-1.1,1.4-2.9,0.2-4.2c-0.6-0.6-1.5,0.3-0.9,0.9c0.6,0.6,0.8,1.6,0,2.2
						C87.9,91.4,88.6,92.5,89.2,92L89.2,92z"/>
				</g>
			</g>
			<g id="XMLID_13362_">
				<g id="XMLID_13363_">
					<path id="XMLID_13364_" class="st1" d="M91.9,95.7c0.8,0,0.8-1.3,0-1.3C91.1,94.4,91.1,95.7,91.9,95.7L91.9,95.7z"/>
				</g>
			</g>
			<g id="XMLID_13359_">
				<g id="XMLID_13360_">
					<path id="XMLID_13361_" class="st1" d="M91.6,76.9c-0.3,0.3-0.6,0.7-1,1c-0.3,0.3-0.6,0.8-0.9,1c0.2,0,0.4,0,0.6,0
						c-0.3-0.2-0.7-0.7-0.9-1c-0.3-0.3-0.6-0.7-0.9-1.1c-0.5-0.6-1.4,0.3-0.9,0.9c0.6,0.7,1.3,1.8,2.1,2.3c0.2,0.1,0.4,0.1,0.6,0
						c0.8-0.5,1.5-1.5,2.1-2.2C93.1,77.2,92.2,76.3,91.6,76.9L91.6,76.9z"/>
				</g>
			</g>
			<g id="XMLID_13356_">
				<g id="XMLID_13357_">
					<path id="XMLID_13358_" class="st1" d="M91.6,73.3c-0.3,0.3-0.6,0.7-1,1c-0.3,0.3-0.6,0.8-0.9,1c0.2,0,0.4,0,0.6,0
						c-0.3-0.2-0.7-0.7-0.9-1c-0.3-0.3-0.6-0.7-0.9-1.1c-0.5-0.6-1.4,0.3-0.9,0.9c0.6,0.7,1.3,1.8,2.1,2.3c0.2,0.1,0.4,0.1,0.6,0
						c0.8-0.5,1.5-1.5,2.1-2.2C93.1,73.6,92.2,72.7,91.6,73.3L91.6,73.3z"/>
				</g>
			</g>
			<g id="XMLID_13353_">
				<g id="XMLID_13354_">
					<path id="XMLID_13355_" class="st1" d="M88.9,72.1c0.8-1.1,1.9-2,3.2-2.6c0.4-0.2,0.4-0.9,0-1.1c-1-0.5-1.1-1.8-1.9-2.6
						c-0.6-0.6-1.6-0.8-2.3-0.4c0.3,0.3,0.6,0.6,0.9,0.9c0.7-1.1,1.6-2.1,2.7-2.8c0.3-0.2,0.5-0.7,0.1-1c-1-0.8-2-1.5-3.1-2.1
						c-0.7-0.4-1.4,0.7-0.6,1.1c1,0.5,2,1.2,2.9,1.9c0-0.3,0.1-0.7,0.1-1c-1.3,0.9-2.3,2-3.2,3.3c-0.4,0.6,0.3,1.2,0.9,0.9
						c0.8-0.4,1.3,1,1.6,1.5c0.3,0.6,0.7,1.2,1.4,1.4c0-0.4,0-0.7,0-1.1c-1.5,0.7-2.7,1.7-3.7,3C87.4,72.2,88.5,72.8,88.9,72.1
						L88.9,72.1z"/>
				</g>
			</g>
			<g id="XMLID_13350_">
				<g id="XMLID_13351_">
					<path id="XMLID_13352_" class="st1" d="M90.4,62.5c1-0.6,1.7-1.6,1.8-2.7c0.1-1.2-0.5-2.2-1.3-3.1c-1-1.1-2-2.2-1.5-3.8
						c0.2-0.6,0.8-1.4,1.6-1.2c0.9,0.2,0.7,2.2,0.1,2c-0.8-0.3-1.1,0.9-0.3,1.2c1.9,0.7,2.5-2.2,1.9-3.5c-0.8-1.6-3-1.2-3.9,0.1
						c-1.1,1.6-0.8,3.6,0.4,5c0.6,0.7,1.4,1.4,1.8,2.3c0.4,1-0.1,2.1-1,2.6C89.1,61.8,89.7,62.9,90.4,62.5L90.4,62.5z"/>
				</g>
			</g>
			<g id="XMLID_13347_">
				<g id="XMLID_13348_">
					<path id="XMLID_13349_" class="st1" d="M88.7,59.1c0.8,0,0.8-1.3,0-1.3C87.8,57.8,87.8,59.1,88.7,59.1L88.7,59.1z"/>
				</g>
			</g>
			<g id="XMLID_13344_">
				<g id="XMLID_13345_">
					<path id="XMLID_13346_" class="st1" d="M91.3,65.1C91.3,65.1,91.3,65.1,91.3,65.1c-0.3,0.3-0.3,0.8-0.1,1
						c0.3,0.2,0.6,0.3,0.9,0c0,0,0.1-0.1,0.1-0.1c0.2-0.2,0.3-0.7,0-0.9C92,64.8,91.6,64.8,91.3,65.1L91.3,65.1z"/>
				</g>
			</g>
			<g id="XMLID_13341_">
				<g id="XMLID_13342_">
					<path id="XMLID_13343_" class="st1" d="M90.9,50.6c-0.6-1.5-1.2-2.9-1.8-4.4c-0.2,0.3-0.4,0.5-0.6,0.8c2.7-0.2,4.1-3.1,3.9-5.6
						c-0.1-1.1-0.7-2.2-1.8-2.5c-1-0.3-2,0.3-2.2,1.3c-0.2,0.8,1,1.1,1.2,0.3c0.2-0.9,1.1-0.3,1.4,0.2c0.3,0.7,0.2,1.5,0,2.2
						c-0.3,1.3-1.1,2.6-2.5,2.8c-0.4,0-0.8,0.4-0.6,0.8c0.6,1.5,1.2,2.9,1.8,4.4C89.9,51.7,91.2,51.4,90.9,50.6L90.9,50.6z"/>
				</g>
			</g>
			<g id="XMLID_13338_">
				<g id="XMLID_13339_">
					<path id="XMLID_13340_" class="st1" d="M88.9,42.9c0.8,0,0.8-1.3,0-1.3C88.1,41.7,88.1,42.9,88.9,42.9L88.9,42.9z"/>
				</g>
			</g>
			<g id="XMLID_13335_">
				<g id="XMLID_13336_">
					<path id="XMLID_13337_" class="st1" d="M91.6,48.8c0.8,0,0.8-1.3,0-1.3C90.8,47.5,90.8,48.8,91.6,48.8L91.6,48.8z"/>
				</g>
			</g>
		</g>
		<g id="XMLID_13255_">
			<g id="XMLID_13331_">
				<g id="XMLID_13332_">
					<path id="XMLID_13333_" class="st1" d="M41.4,9.5c0.4-1,1.2,0.4,1.2,0.9c0,0.7-0.4,1.4-1.1,1.7c-1.4,0.5-2.4-0.8-3.3-1.6
						c-1.9-1.6-4.9-3.1-7.5-2.4c-2.1,0.5-3.6,3.1-1.8,4.8c1.7,1.6,4.3,0.3,4.4-1.9c0-0.8-1.2-0.8-1.3,0c0,1.5-2.1,1.9-2.6,0.4
						c-0.5-1.6,1.6-2.3,2.8-2.2c1.4,0.1,2.9,0.7,4.1,1.5c1.1,0.7,1.9,1.8,3.1,2.4c2,1.1,4.5-0.3,4.6-2.5c0-1-0.4-2-1.3-2.5
						c-0.8-0.4-1.9-0.1-2.3,0.8C40,9.6,41.1,10.3,41.4,9.5L41.4,9.5z"/>
				</g>
			</g>
			<g id="XMLID_13328_">
				<g id="XMLID_13329_">
					<path id="XMLID_13330_" class="st1" d="M19.6,9.8c0,1.8,2,3.4,3.8,2.9c0.9-0.3,1.2-1.2,2-1.6c0.9-0.5,1.9-0.3,2.6,0.3
						c0.7,0.5,1.3-0.6,0.6-1.1c-1.1-0.8-2.5-0.9-3.7-0.4c-0.7,0.3-1,0.8-1.5,1.3c-1,0.9-2.6-0.3-2.6-1.4C20.9,9,19.6,9,19.6,9.8
						L19.6,9.8z"/>
				</g>
			</g>
			<g id="XMLID_13325_">
				<g id="XMLID_13326_">
					<path id="XMLID_13327_" class="st1" d="M21.8,9.7c0.8,0,0.8-1.3,0-1.3C21,8.4,21,9.7,21.8,9.7L21.8,9.7z"/>
				</g>
			</g>
			<g id="XMLID_13322_">
				<g id="XMLID_13323_">
					<path id="XMLID_13324_" class="st1" d="M35,13.1c0.8,0,0.8-1.3,0-1.3C34.1,11.9,34.1,13.1,35,13.1L35,13.1z"/>
				</g>
			</g>
			<g id="XMLID_13319_">
				<g id="XMLID_13320_">
					<path id="XMLID_13321_" class="st1" d="M19.9,10.4c-0.7,0.4-1.6,0-2.3-0.3c-0.8-0.3-1.6-0.7-2.4-1c-1.2-0.4-2.6-0.7-3.7,0.1
						c-2.2,1.4-0.6,4.9,1.9,3.8c0.7-0.3,0.1-1.4-0.6-1.1c-0.6,0.3-1.1-0.2-1.1-0.8c0-0.6,0.6-1,1.1-1.1c0.9-0.2,1.9,0.3,2.8,0.6
						c1.5,0.6,3.3,1.7,5,0.8C21.3,11.1,20.7,10,19.9,10.4L19.9,10.4z"/>
				</g>
			</g>
			<g id="XMLID_13316_">
				<g id="XMLID_13317_">
					<path id="XMLID_13318_" class="st1" d="M11.6,14.1c-0.5-1-1.5-1.7-2.6-1.4c-1,0.2-1.8,1.1-1.7,2.1c0,1.2,0.9,2.1,1.7,2.9
						c0.5,0.5,0.9,1,1,1.7c0.1,0.8,0.1,1.7,0.1,2.6c0,0.8,1.3,0.8,1.3,0c-0.1-1.7,0-3.4-1.1-4.8c-0.5-0.6-1.3-1.2-1.6-2
						c-0.2-0.6,0.1-1.2,0.8-1.2c0.5,0,0.9,0.4,1.1,0.8C10.9,15.4,12,14.8,11.6,14.1L11.6,14.1z"/>
				</g>
			</g>
			<g id="XMLID_13313_">
				<g id="XMLID_13314_">
					<path id="XMLID_13315_" class="st1" d="M8.2,41.8c-0.9,0.4-1.2,1.4-0.8,2.2c0.4,0.9,1.4,1.4,2.4,1.4c2.3,0,3.8-2.5,2.7-4.6
						c-0.6-1.1-1.6-1.9-2.3-2.9c-0.7-1.2-1.4-2.6-1.5-4c-0.1-1.2,0.4-3.4,2.1-3c1.6,0.3,1.3,2.6-0.3,2.6c-0.8,0-0.8,1.3,0,1.3
						c2.2-0.1,3.5-2.6,2-4.3c-1.7-1.9-4.4-0.4-4.9,1.7c-0.6,2.5,0.8,5.5,2.3,7.4c0.8,1,2.2,2,1.6,3.4c-0.3,0.7-0.9,1.1-1.7,1.1
						c-0.6,0-1.9-0.8-0.9-1.2C9.6,42.5,9,41.4,8.2,41.8L8.2,41.8z"/>
				</g>
			</g>
			<g id="XMLID_13310_">
				<g id="XMLID_13311_">
					<path id="XMLID_13312_" class="st1" d="M9.2,22.3c1,0,2.2,1.4,1.6,2.4c-0.4,0.6-1.1,1-1.5,1.7c-0.6,1.2-0.4,2.7,0.4,3.7
						c0.5,0.6,1.6,0,1.1-0.6c-0.6-0.7-0.7-1.7-0.3-2.5c0.4-0.9,1.4-1.2,1.7-2.1C12.6,23,11,21,9.2,21C8.3,21,8.3,22.3,9.2,22.3
						L9.2,22.3z"/>
				</g>
			</g>
			<g id="XMLID_13307_">
				<g id="XMLID_13308_">
					<path id="XMLID_13309_" class="st1" d="M8.4,23.9c0.8,0,0.8-1.3,0-1.3C7.6,22.6,7.6,23.9,8.4,23.9L8.4,23.9z"/>
				</g>
			</g>
			<g id="XMLID_13304_">
				<g id="XMLID_13305_">
					<path id="XMLID_13306_" class="st1" d="M11.9,37c0.8,0,0.8-1.3,0-1.3C11.1,35.7,11.1,37,11.9,37L11.9,37z"/>
				</g>
			</g>
			<g id="XMLID_13301_">
				<g id="XMLID_13302_">
					<path id="XMLID_13303_" class="st1" d="M7.8,47.7c1.2,1.3,2.9,0.7,4.2,0c0.7-0.4,0.1-1.5-0.6-1.1c-0.8,0.4-1.9,1-2.7,0.2
						C8.1,46.2,7.2,47.1,7.8,47.7L7.8,47.7z"/>
				</g>
			</g>
			<g id="XMLID_13298_">
				<g id="XMLID_13299_">
					<path id="XMLID_13300_" class="st1" d="M8.8,49.5c-1.3,0.9-1.9,2.8-1.3,4.3c0.6,1.5,2.5,2,3.8,1c0.6-0.5,1-1.1,1.2-1.9
						c0.2-0.7,0.6-1.8,0.1-2.5c-0.6-0.9-3.1-2-3.7-0.7c-0.4,0.7,0.7,1.4,1.1,0.6c0,0,0-0.1,0.1-0.1c-0.1,0.1-0.3,0.2-0.4,0.3
						c0.6-0.2,1.9,0.1,1.9,0.8c0,0.8-0.3,1.9-0.9,2.4c-0.8,0.7-1.9,0.2-2-0.8c-0.1-0.8,0.2-1.8,0.9-2.3C10.1,50.1,9.4,49,8.8,49.5
						L8.8,49.5z"/>
				</g>
			</g>
			<g id="XMLID_13295_">
				<g id="XMLID_13296_">
					<path id="XMLID_13297_" class="st1" d="M10.7,52C10.7,52,10.7,52,10.7,52c0-0.4-0.3-0.7-0.6-0.7c-0.3,0-0.6,0.3-0.6,0.6
						c0,0,0,0,0,0.1c0,0.3,0.3,0.7,0.6,0.6C10.4,52.6,10.7,52.4,10.7,52L10.7,52z"/>
				</g>
			</g>
			<g id="XMLID_13292_">
				<g id="XMLID_13293_">
					<path id="XMLID_13294_" class="st1" d="M8.6,58.4c-0.5-0.5,0.8-1.1,1.1-1.1c0.5-0.1,1,0.1,1.2,0.6c0.5,0.7,0.2,1.7-0.2,2.4
						c-1,1.6-2.8,2.6-3.5,4.4c-0.6,1.6-0.1,3.4,1.1,4.6c0.6,0.7,1.5,1.1,2.1,1.7c0.3,0.3,0.6,0.6,0.8,1.1c0.1,0.4,0.3,1.6-0.6,1.3
						c-0.8-0.3-1.1,1-0.3,1.2c0.9,0.3,1.7-0.2,2.1-1c0.4-0.8,0.2-1.7-0.2-2.5c-1.1-1.9-3.9-2.4-4-4.9c-0.1-2.4,2.8-3.7,3.8-5.7
						c0.7-1.5,0.5-3.7-1.2-4.4c-1.7-0.7-4.9,1.4-3.1,3.2C8.3,59.9,9.2,59,8.6,58.4L8.6,58.4z"/>
				</g>
			</g>
			<g id="XMLID_13289_">
				<g id="XMLID_13290_">
					<path id="XMLID_13291_" class="st1" d="M9.4,73.8C9.4,73.7,9.4,73.7,9.4,73.8c0-0.4-0.3-0.7-0.6-0.7c-0.3,0-0.6,0.3-0.6,0.6
						c0,0,0,0,0,0.1c0,0.3,0.3,0.7,0.6,0.6C9.1,74.4,9.4,74.1,9.4,73.8L9.4,73.8z"/>
				</g>
			</g>
			<g id="XMLID_13286_">
				<g id="XMLID_13287_">
					<path id="XMLID_13288_" class="st1" d="M10.8,63.7c-1.4,1.1-1.4,2.9-0.2,4.2c0.6,0.6,1.5-0.3,0.9-0.9c-0.6-0.6-0.8-1.6,0-2.2
						C12.1,64.3,11.4,63.2,10.8,63.7L10.8,63.7z"/>
				</g>
			</g>
			<g id="XMLID_13283_">
				<g id="XMLID_13284_">
					<path id="XMLID_13285_" class="st1" d="M8.1,61.4c0.8,0,0.8-1.3,0-1.3C7.2,60.1,7.2,61.4,8.1,61.4L8.1,61.4z"/>
				</g>
			</g>
			<g id="XMLID_13280_">
				<g id="XMLID_13281_">
					<path id="XMLID_13282_" class="st1" d="M8.4,78.8c0.3-0.3,0.6-0.7,1-1c0.3-0.3,0.6-0.8,0.9-1c-0.2,0-0.4,0-0.6,0
						c0.3,0.2,0.7,0.7,0.9,1c0.3,0.3,0.6,0.7,0.9,1.1c0.5,0.6,1.4-0.3,0.9-0.9c-0.6-0.7-1.3-1.8-2.1-2.3c-0.2-0.1-0.4-0.1-0.6,0
						c-0.8,0.5-1.5,1.5-2.1,2.2C6.9,78.5,7.8,79.4,8.4,78.8L8.4,78.8z"/>
				</g>
			</g>
			<g id="XMLID_13277_">
				<g id="XMLID_13278_">
					<path id="XMLID_13279_" class="st1" d="M8.4,82.4c0.3-0.3,0.6-0.7,1-1c0.3-0.3,0.6-0.8,0.9-1c-0.2,0-0.4,0-0.6,0
						c0.3,0.2,0.7,0.7,0.9,1c0.3,0.3,0.6,0.7,0.9,1.1c0.5,0.6,1.4-0.3,0.9-0.9c-0.6-0.7-1.3-1.8-2.1-2.3c-0.2-0.1-0.4-0.1-0.6,0
						c-0.8,0.5-1.5,1.5-2.1,2.2C6.9,82.1,7.8,83,8.4,82.4L8.4,82.4z"/>
				</g>
			</g>
			<g id="XMLID_13274_">
				<g id="XMLID_13275_">
					<path id="XMLID_13276_" class="st1" d="M11.1,83.6c-0.8,1.1-1.9,2-3.2,2.6c-0.4,0.2-0.4,0.9,0,1.1c1,0.5,1.1,1.8,1.9,2.6
						c0.6,0.6,1.6,0.8,2.3,0.4c-0.3-0.3-0.6-0.6-0.9-0.9c-0.7,1.1-1.6,2.1-2.7,2.8c-0.3,0.2-0.5,0.7-0.1,1c1,0.8,2,1.5,3.1,2.1
						c0.7,0.4,1.4-0.7,0.6-1.1c-1-0.5-2-1.2-2.9-1.9c0,0.3-0.1,0.7-0.1,1c1.3-0.9,2.3-2,3.2-3.3c0.4-0.6-0.3-1.2-0.9-0.9
						c-0.8,0.4-1.3-1-1.6-1.5c-0.3-0.6-0.7-1.2-1.4-1.4c0,0.4,0,0.7,0,1.1c1.5-0.7,2.7-1.7,3.7-3C12.6,83.6,11.5,82.9,11.1,83.6
						L11.1,83.6z"/>
				</g>
			</g>
			<g id="XMLID_13271_">
				<g id="XMLID_13272_">
					<path id="XMLID_13273_" class="st1" d="M9.6,93.2c-1,0.6-1.7,1.6-1.8,2.7c-0.1,1.2,0.5,2.2,1.3,3.1c1,1.1,2,2.2,1.5,3.8
						c-0.2,0.6-0.8,1.4-1.6,1.2c-0.9-0.2-0.7-2.2-0.1-2c0.8,0.3,1.1-0.9,0.3-1.2c-1.9-0.7-2.5,2.2-1.9,3.5c0.8,1.6,3,1.2,3.9-0.1
						c1.1-1.6,0.8-3.6-0.4-5c-0.6-0.7-1.4-1.4-1.8-2.3c-0.4-1,0.1-2.1,1-2.6C10.9,93.9,10.3,92.8,9.6,93.2L9.6,93.2z"/>
				</g>
			</g>
			<g id="XMLID_13268_">
				<g id="XMLID_13269_">
					<path id="XMLID_13270_" class="st1" d="M11.3,97.9c0.8,0,0.8-1.3,0-1.3C10.5,96.6,10.5,97.9,11.3,97.9L11.3,97.9z"/>
				</g>
			</g>
			<g id="XMLID_13265_">
				<g id="XMLID_13266_">
					<path id="XMLID_13267_" class="st1" d="M8.7,90.7C8.7,90.7,8.7,90.6,8.7,90.7c0.3-0.3,0.3-0.8,0.1-1c-0.3-0.2-0.6-0.3-0.9,0
						c0,0-0.1,0.1-0.1,0.1c-0.2,0.2-0.3,0.7,0,0.9C8,90.9,8.4,90.9,8.7,90.7L8.7,90.7z"/>
				</g>
			</g>
			<g id="XMLID_13262_">
				<g id="XMLID_13263_">
					<path id="XMLID_13264_" class="st1" d="M9.1,105.1c0.6,1.5,1.2,2.9,1.8,4.4c0.2-0.3,0.4-0.5,0.6-0.8c-2.7,0.2-4.1,3.1-3.9,5.6
						c0.1,1.1,0.7,2.2,1.8,2.5c1,0.3,2-0.3,2.2-1.3c0.2-0.8-1-1.1-1.2-0.3c-0.2,0.9-1.1,0.3-1.4-0.2c-0.3-0.7-0.2-1.5,0-2.2
						c0.3-1.3,1.1-2.6,2.5-2.8c0.4,0,0.8-0.4,0.6-0.8c-0.6-1.5-1.2-2.9-1.8-4.4C10.1,104,8.8,104.4,9.1,105.1L9.1,105.1z"/>
				</g>
			</g>
			<g id="XMLID_13259_">
				<g id="XMLID_13260_">
					<path id="XMLID_13261_" class="st1" d="M11.1,114.1c0.8,0,0.8-1.3,0-1.3C10.3,112.8,10.3,114.1,11.1,114.1L11.1,114.1z"/>
				</g>
			</g>
			<g id="XMLID_13256_">
				<g id="XMLID_13257_">
					<path id="XMLID_13258_" class="st1" d="M8.4,108.2c0.8,0,0.8-1.3,0-1.3C7.6,107,7.6,108.2,8.4,108.2L8.4,108.2z"/>
				</g>
			</g>
		</g>
		<g id="XMLID_13176_">
			<g id="XMLID_13252_">
				<g id="XMLID_13253_">
					<path id="XMLID_13254_" class="st1" d="M58.6,146.2c-0.4,1-1.2-0.4-1.2-0.9c0-0.7,0.4-1.4,1.1-1.7c1.4-0.5,2.4,0.8,3.3,1.6
						c1.9,1.6,4.9,3.1,7.5,2.4c2.1-0.5,3.6-3.1,1.8-4.8c-1.7-1.6-4.3-0.3-4.4,1.9c0,0.8,1.2,0.8,1.3,0c0-1.5,2.1-1.9,2.6-0.4
						c0.5,1.6-1.6,2.3-2.8,2.2c-1.4-0.1-2.9-0.7-4.1-1.5c-1.1-0.7-1.9-1.8-3.1-2.4c-2-1.1-4.5,0.3-4.6,2.5c0,1,0.4,2,1.3,2.5
						c0.8,0.4,1.9,0.1,2.3-0.8C60,146.1,58.9,145.5,58.6,146.2L58.6,146.2z"/>
				</g>
			</g>
			<g id="XMLID_13249_">
				<g id="XMLID_13250_">
					<path id="XMLID_13251_" class="st1" d="M80.4,145.9c0-1.8-2-3.4-3.8-2.9c-0.9,0.3-1.2,1.2-2,1.6c-0.9,0.5-1.9,0.3-2.6-0.3
						c-0.7-0.5-1.3,0.6-0.6,1.1c1.1,0.8,2.5,0.9,3.7,0.4c0.7-0.3,1-0.8,1.5-1.3c1-0.9,2.6,0.3,2.6,1.4
						C79.1,146.7,80.4,146.7,80.4,145.9L80.4,145.9z"/>
				</g>
			</g>
			<g id="XMLID_13246_">
				<g id="XMLID_13247_">
					<path id="XMLID_13248_" class="st1" d="M78.2,147.3c0.8,0,0.8-1.3,0-1.3C77.3,146.1,77.3,147.3,78.2,147.3L78.2,147.3z"/>
				</g>
			</g>
			<g id="XMLID_13243_">
				<g id="XMLID_13244_">
					<path id="XMLID_13245_" class="st1" d="M65,143.9c0.8,0,0.8-1.3,0-1.3C64.2,142.6,64.2,143.9,65,143.9L65,143.9z"/>
				</g>
			</g>
			<g id="XMLID_13240_">
				<g id="XMLID_13241_">
					<path id="XMLID_13242_" class="st1" d="M80.1,145.3c0.7-0.4,1.6,0,2.3,0.3c0.8,0.3,1.6,0.7,2.4,1c1.2,0.4,2.6,0.7,3.7-0.1
						c2.2-1.4,0.6-4.9-1.9-3.8c-0.7,0.3-0.1,1.4,0.6,1.1c0.6-0.3,1.1,0.2,1.1,0.8c0,0.6-0.6,1-1.1,1.1c-0.9,0.2-1.9-0.3-2.8-0.6
						c-1.5-0.6-3.3-1.7-5-0.8C78.7,144.6,79.3,145.7,80.1,145.3L80.1,145.3z"/>
				</g>
			</g>
			<g id="XMLID_13237_">
				<g id="XMLID_13238_">
					<path id="XMLID_13239_" class="st1" d="M88.4,141.7c0.5,1,1.5,1.7,2.6,1.4c1-0.2,1.8-1.1,1.7-2.1c0-1.2-0.9-2.1-1.7-2.9
						c-0.5-0.5-0.9-1-1-1.7c-0.1-0.8-0.1-1.7-0.1-2.6c0-0.8-1.3-0.8-1.3,0c0.1,1.7,0,3.4,1.1,4.8c0.5,0.6,1.3,1.2,1.6,2
						c0.2,0.6-0.1,1.2-0.8,1.2c-0.5,0-0.9-0.4-1.1-0.8C89.1,140.3,88,140.9,88.4,141.7L88.4,141.7z"/>
				</g>
			</g>
			<g id="XMLID_13234_">
				<g id="XMLID_13235_">
					<path id="XMLID_13236_" class="st1" d="M91.8,114c0.9-0.4,1.2-1.4,0.8-2.2c-0.4-0.9-1.4-1.4-2.4-1.4c-2.3,0-3.8,2.5-2.7,4.6
						c0.6,1.1,1.6,1.9,2.3,2.9c0.7,1.2,1.4,2.6,1.5,4c0.1,1.2-0.4,3.4-2.1,3c-1.6-0.3-1.3-2.6,0.3-2.6c0.8,0,0.8-1.3,0-1.3
						c-2.2,0.1-3.5,2.6-2,4.3c1.7,1.9,4.4,0.4,4.9-1.7c0.6-2.5-0.8-5.5-2.3-7.4c-0.8-1-2.2-2-1.6-3.4c0.3-0.7,0.9-1.1,1.7-1.1
						c0.6,0,1.9,0.8,0.9,1.2C90.4,113.2,91,114.3,91.8,114L91.8,114z"/>
				</g>
			</g>
			<g id="XMLID_13231_">
				<g id="XMLID_13232_">
					<path id="XMLID_13233_" class="st1" d="M90.8,133.5c-1,0-2.2-1.4-1.6-2.4c0.4-0.6,1.1-1,1.5-1.7c0.6-1.2,0.4-2.7-0.4-3.7
						c-0.5-0.6-1.6,0-1.1,0.6c0.6,0.7,0.7,1.7,0.3,2.5c-0.4,0.9-1.4,1.2-1.7,2.1c-0.5,1.8,1.1,3.8,2.9,3.8
						C91.7,134.7,91.7,133.5,90.8,133.5L90.8,133.5z"/>
				</g>
			</g>
			<g id="XMLID_13228_">
				<g id="XMLID_13229_">
					<path id="XMLID_13230_" class="st1" d="M91.6,133.1c0.8,0,0.8-1.3,0-1.3C90.8,131.9,90.8,133.1,91.6,133.1L91.6,133.1z"/>
				</g>
			</g>
			<g id="XMLID_13225_">
				<g id="XMLID_13226_">
					<path id="XMLID_13227_" class="st1" d="M88.1,120c0.8,0,0.8-1.3,0-1.3C87.3,118.7,87.3,120,88.1,120L88.1,120z"/>
				</g>
			</g>
			<g id="XMLID_13222_">
				<g id="XMLID_13223_">
					<path id="XMLID_13224_" class="st1" d="M92.2,108c-1.2-1.3-2.9-0.7-4.2,0c-0.7,0.4-0.1,1.5,0.6,1.1c0.8-0.4,1.9-1,2.7-0.2
						C91.9,109.5,92.8,108.6,92.2,108L92.2,108z"/>
				</g>
			</g>
			<g id="XMLID_13219_">
				<g id="XMLID_13220_">
					<path id="XMLID_13221_" class="st1" d="M91.2,106.2c1.3-0.9,1.9-2.8,1.3-4.3c-0.6-1.5-2.5-2-3.8-1c-0.6,0.5-1,1.1-1.2,1.9
						c-0.2,0.7-0.6,1.8-0.1,2.5c0.6,0.9,3.1,2,3.7,0.7c0.4-0.7-0.7-1.4-1.1-0.6c0,0,0,0.1-0.1,0.1c0.1-0.1,0.3-0.2,0.4-0.3
						c-0.6,0.2-1.9-0.1-1.9-0.8c0-0.8,0.3-1.9,0.9-2.4c0.8-0.7,1.9-0.2,2,0.8c0.1,0.8-0.2,1.8-0.9,2.3
						C89.9,105.6,90.6,106.7,91.2,106.2L91.2,106.2z"/>
				</g>
			</g>
			<g id="XMLID_13216_">
				<g id="XMLID_13217_">
					<path id="XMLID_13218_" class="st1" d="M89.3,103.7C89.3,103.7,89.3,103.8,89.3,103.7c0,0.4,0.3,0.7,0.6,0.7
						c0.3,0,0.6-0.3,0.6-0.6c0,0,0,0,0-0.1c0-0.3-0.3-0.7-0.6-0.6C89.6,103.1,89.3,103.4,89.3,103.7L89.3,103.7z"/>
				</g>
			</g>
			<g id="XMLID_13213_">
				<g id="XMLID_13214_">
					<path id="XMLID_13215_" class="st1" d="M91.4,97.3c0.5,0.5-0.8,1.1-1.1,1.1c-0.5,0.1-1-0.1-1.2-0.6c-0.5-0.7-0.2-1.7,0.2-2.4
						c1-1.6,2.8-2.6,3.5-4.4c0.6-1.6,0.1-3.4-1.1-4.6c-0.6-0.7-1.5-1.1-2.1-1.7c-0.3-0.3-0.6-0.6-0.8-1.1c-0.1-0.4-0.3-1.6,0.6-1.3
						c0.8,0.3,1.1-1,0.3-1.2c-0.9-0.3-1.7,0.2-2.1,1c-0.4,0.8-0.2,1.7,0.2,2.5c1.1,1.9,3.9,2.4,4,4.9c0.1,2.4-2.8,3.7-3.8,5.7
						c-0.7,1.5-0.5,3.7,1.2,4.4c1.7,0.7,4.9-1.4,3.1-3.2C91.7,95.9,90.8,96.8,91.4,97.3L91.4,97.3z"/>
				</g>
			</g>
			<g id="XMLID_13210_">
				<g id="XMLID_13211_">
					<path id="XMLID_13212_" class="st1" d="M90.6,82C90.6,82,90.6,82,90.6,82c0,0.4,0.3,0.7,0.6,0.7c0.3,0,0.6-0.3,0.6-0.6
						c0,0,0,0,0-0.1c0-0.3-0.3-0.7-0.6-0.6C90.9,81.4,90.6,81.6,90.6,82L90.6,82z"/>
				</g>
			</g>
			<g id="XMLID_13207_">
				<g id="XMLID_13208_">
					<path id="XMLID_13209_" class="st1" d="M89.2,92c1.4-1.1,1.4-2.9,0.2-4.2c-0.6-0.6-1.5,0.3-0.9,0.9c0.6,0.6,0.8,1.6,0,2.2
						C87.9,91.4,88.6,92.5,89.2,92L89.2,92z"/>
				</g>
			</g>
			<g id="XMLID_13204_">
				<g id="XMLID_13205_">
					<path id="XMLID_13206_" class="st1" d="M91.9,95.7c0.8,0,0.8-1.3,0-1.3C91.1,94.4,91.1,95.7,91.9,95.7L91.9,95.7z"/>
				</g>
			</g>
			<g id="XMLID_13201_">
				<g id="XMLID_13202_">
					<path id="XMLID_13203_" class="st1" d="M91.6,76.9c-0.3,0.3-0.6,0.7-1,1c-0.3,0.3-0.6,0.8-0.9,1c0.2,0,0.4,0,0.6,0
						c-0.3-0.2-0.7-0.7-0.9-1c-0.3-0.3-0.6-0.7-0.9-1.1c-0.5-0.6-1.4,0.3-0.9,0.9c0.6,0.7,1.3,1.8,2.1,2.3c0.2,0.1,0.4,0.1,0.6,0
						c0.8-0.5,1.5-1.5,2.1-2.2C93.1,77.2,92.2,76.3,91.6,76.9L91.6,76.9z"/>
				</g>
			</g>
			<g id="XMLID_13198_">
				<g id="XMLID_13199_">
					<path id="XMLID_13200_" class="st1" d="M91.6,73.3c-0.3,0.3-0.6,0.7-1,1c-0.3,0.3-0.6,0.8-0.9,1c0.2,0,0.4,0,0.6,0
						c-0.3-0.2-0.7-0.7-0.9-1c-0.3-0.3-0.6-0.7-0.9-1.1c-0.5-0.6-1.4,0.3-0.9,0.9c0.6,0.7,1.3,1.8,2.1,2.3c0.2,0.1,0.4,0.1,0.6,0
						c0.8-0.5,1.5-1.5,2.1-2.2C93.1,73.6,92.2,72.7,91.6,73.3L91.6,73.3z"/>
				</g>
			</g>
			<g id="XMLID_13195_">
				<g id="XMLID_13196_">
					<path id="XMLID_13197_" class="st1" d="M88.9,72.1c0.8-1.1,1.9-2,3.2-2.6c0.4-0.2,0.4-0.9,0-1.1c-1-0.5-1.1-1.8-1.9-2.6
						c-0.6-0.6-1.6-0.8-2.3-0.4c0.3,0.3,0.6,0.6,0.9,0.9c0.7-1.1,1.6-2.1,2.7-2.8c0.3-0.2,0.5-0.7,0.1-1c-1-0.8-2-1.5-3.1-2.1
						c-0.7-0.4-1.4,0.7-0.6,1.1c1,0.5,2,1.2,2.9,1.9c0-0.3,0.1-0.7,0.1-1c-1.3,0.9-2.3,2-3.2,3.3c-0.4,0.6,0.3,1.2,0.9,0.9
						c0.8-0.4,1.3,1,1.6,1.5c0.3,0.6,0.7,1.2,1.4,1.4c0-0.4,0-0.7,0-1.1c-1.5,0.7-2.7,1.7-3.7,3C87.4,72.2,88.5,72.8,88.9,72.1
						L88.9,72.1z"/>
				</g>
			</g>
			<g id="XMLID_13192_">
				<g id="XMLID_13193_">
					<path id="XMLID_13194_" class="st1" d="M90.4,62.5c1-0.6,1.7-1.6,1.8-2.7c0.1-1.2-0.5-2.2-1.3-3.1c-1-1.1-2-2.2-1.5-3.8
						c0.2-0.6,0.8-1.4,1.6-1.2c0.9,0.2,0.7,2.2,0.1,2c-0.8-0.3-1.1,0.9-0.3,1.2c1.9,0.7,2.5-2.2,1.9-3.5c-0.8-1.6-3-1.2-3.9,0.1
						c-1.1,1.6-0.8,3.6,0.4,5c0.6,0.7,1.4,1.4,1.8,2.3c0.4,1-0.1,2.1-1,2.6C89.1,61.8,89.7,62.9,90.4,62.5L90.4,62.5z"/>
				</g>
			</g>
			<g id="XMLID_13189_">
				<g id="XMLID_13190_">
					<path id="XMLID_13191_" class="st1" d="M88.7,59.1c0.8,0,0.8-1.3,0-1.3C87.8,57.8,87.8,59.1,88.7,59.1L88.7,59.1z"/>
				</g>
			</g>
			<g id="XMLID_13186_">
				<g id="XMLID_13187_">
					<path id="XMLID_13188_" class="st1" d="M91.3,65.1C91.3,65.1,91.3,65.1,91.3,65.1c-0.3,0.3-0.3,0.8-0.1,1
						c0.3,0.2,0.6,0.3,0.9,0c0,0,0.1-0.1,0.1-0.1c0.2-0.2,0.3-0.7,0-0.9C92,64.8,91.6,64.8,91.3,65.1L91.3,65.1z"/>
				</g>
			</g>
			<g id="XMLID_13183_">
				<g id="XMLID_13184_">
					<path id="XMLID_13185_" class="st1" d="M90.9,50.6c-0.6-1.5-1.2-2.9-1.8-4.4c-0.2,0.3-0.4,0.5-0.6,0.8c2.7-0.2,4.1-3.1,3.9-5.6
						c-0.1-1.1-0.7-2.2-1.8-2.5c-1-0.3-2,0.3-2.2,1.3c-0.2,0.8,1,1.1,1.2,0.3c0.2-0.9,1.1-0.3,1.4,0.2c0.3,0.7,0.2,1.5,0,2.2
						c-0.3,1.3-1.1,2.6-2.5,2.8c-0.4,0-0.8,0.4-0.6,0.8c0.6,1.5,1.2,2.9,1.8,4.4C89.9,51.7,91.2,51.4,90.9,50.6L90.9,50.6z"/>
				</g>
			</g>
			<g id="XMLID_13180_">
				<g id="XMLID_13181_">
					<path id="XMLID_13182_" class="st1" d="M88.9,42.9c0.8,0,0.8-1.3,0-1.3C88.1,41.7,88.1,42.9,88.9,42.9L88.9,42.9z"/>
				</g>
			</g>
			<g id="XMLID_13177_">
				<g id="XMLID_13178_">
					<path id="XMLID_13179_" class="st1" d="M91.6,48.8c0.8,0,0.8-1.3,0-1.3C90.8,47.5,90.8,48.8,91.6,48.8L91.6,48.8z"/>
				</g>
			</g>
		</g>
		<g id="XMLID_13148_">
			<g id="XMLID_13173_">
				<g id="XMLID_13174_">
					<path id="XMLID_13175_" class="st1" d="M40.3,146.9c0.4,0.9,1.4,1.2,2.2,0.8c0.9-0.4,1.4-1.4,1.4-2.4c0-2.3-2.5-3.8-4.6-2.7
						c-1.1,0.6-1.9,1.6-2.9,2.3c-1.2,0.7-2.6,1.4-4,1.5c-1.2,0.1-3.4-0.4-3-2.1c0.3-1.6,2.6-1.3,2.6,0.3c0,0.8,1.3,0.8,1.3,0
						c-0.1-2.2-2.6-3.5-4.3-2c-1.9,1.7-0.4,4.4,1.7,4.9c2.5,0.6,5.5-0.8,7.4-2.3c1-0.8,2-2.2,3.4-1.6c0.7,0.3,1.1,0.9,1.1,1.7
						c0,0.6-0.8,1.9-1.2,0.9C41.1,145.5,40,146.1,40.3,146.9L40.3,146.9z"/>
				</g>
			</g>
			<g id="XMLID_13170_">
				<g id="XMLID_13171_">
					<path id="XMLID_13172_" class="st1" d="M20.9,145.9c0-1,1.4-2.2,2.4-1.6c0.6,0.4,1,1.1,1.7,1.5c1.2,0.6,2.7,0.4,3.7-0.4
						c0.6-0.5,0-1.6-0.6-1.1c-0.7,0.6-1.7,0.7-2.5,0.3c-0.9-0.4-1.2-1.4-2.1-1.7c-1.8-0.5-3.8,1.1-3.8,2.9
						C19.6,146.7,20.9,146.8,20.9,145.9L20.9,145.9z"/>
				</g>
			</g>
			<g id="XMLID_13167_">
				<g id="XMLID_13168_">
					<path id="XMLID_13169_" class="st1" d="M21.8,147.3c0.8,0,0.8-1.3,0-1.3C21,146.1,21,147.3,21.8,147.3L21.8,147.3z"/>
				</g>
			</g>
			<g id="XMLID_13164_">
				<g id="XMLID_13165_">
					<path id="XMLID_13166_" class="st1" d="M35,143.9c0.8,0,0.8-1.3,0-1.3C34.1,142.6,34.1,143.9,35,143.9L35,143.9z"/>
				</g>
			</g>
			<g id="XMLID_13161_">
				<g id="XMLID_13162_">
					<path id="XMLID_13163_" class="st1" d="M20.6,144.2c-1.6-0.9-3.4,0.2-5,0.8c-0.8,0.3-1.8,0.8-2.8,0.6c-0.5-0.1-1.1-0.5-1.1-1.1
						c0-0.6,0.5-1.1,1.1-0.8c0.7,0.3,1.4-0.8,0.6-1.1c-2.5-1.1-4.1,2.4-1.9,3.8c1.1,0.7,2.5,0.5,3.7,0.1c0.8-0.3,1.6-0.6,2.4-1
						c0.7-0.3,1.5-0.6,2.3-0.3C20.7,145.7,21.3,144.6,20.6,144.2L20.6,144.2z"/>
				</g>
			</g>
			<g id="XMLID_13158_">
				<g id="XMLID_13159_">
					<path id="XMLID_13160_" class="st1" d="M10.5,141c-0.2,0.4-0.6,0.8-1.1,0.8c-0.6,0-0.9-0.5-0.8-1c0.2-0.9,1-1.5,1.6-2.2
						c1.2-1.4,1.1-3.1,1.1-4.8c0-0.8-1.2-0.8-1.3,0c0,0.8,0,1.6-0.1,2.4c-0.1,0.8-0.5,1.3-1,1.9c-0.8,0.8-1.6,1.7-1.7,2.9
						c0,1.1,0.7,1.9,1.7,2.1c1.1,0.2,2.1-0.5,2.6-1.4C12,140.9,10.9,140.3,10.5,141L10.5,141z"/>
				</g>
			</g>
			<g id="XMLID_13155_">
				<g id="XMLID_13156_">
					<path id="XMLID_13157_" class="st1" d="M9.2,134.7c1.8,0,3.4-2,2.9-3.8c-0.3-0.9-1.2-1.2-1.6-2c-0.5-0.9-0.3-1.9,0.3-2.6
						c0.5-0.7-0.6-1.3-1.1-0.6c-0.8,1.1-0.9,2.5-0.4,3.7c0.3,0.7,0.8,1,1.3,1.5c0.9,1-0.3,2.6-1.4,2.6
						C8.3,133.5,8.3,134.7,9.2,134.7L9.2,134.7z"/>
				</g>
			</g>
			<g id="XMLID_13152_">
				<g id="XMLID_13153_">
					<path id="XMLID_13154_" class="st1" d="M8.4,133.1c0.8,0,0.8-1.3,0-1.3C7.6,131.9,7.6,133.1,8.4,133.1L8.4,133.1z"/>
				</g>
			</g>
			<g id="XMLID_13149_">
				<g id="XMLID_13150_">
					<path id="XMLID_13151_" class="st1" d="M11.9,120c0.8,0,0.8-1.3,0-1.3C11.1,118.7,11.1,120,11.9,120L11.9,120z"/>
				</g>
			</g>
		</g>
		<g id="XMLID_13120_">
			<g id="XMLID_13145_">
				<g id="XMLID_13146_">
					<path id="XMLID_13147_" class="st1" d="M59.7,9.1c-0.4-0.9-1.4-1.2-2.2-0.8C56.5,8.6,56,9.7,56,10.6c0,2.3,2.5,3.8,4.6,2.7
						c1.1-0.6,1.9-1.6,2.9-2.3c1.2-0.7,2.6-1.4,4-1.5c1.2-0.1,3.4,0.4,3,2.1c-0.3,1.6-2.6,1.3-2.6-0.3c0-0.8-1.3-0.8-1.3,0
						c0.1,2.2,2.6,3.5,4.3,2c1.9-1.7,0.4-4.4-1.7-4.9c-2.5-0.6-5.5,0.8-7.4,2.3c-1,0.8-2,2.2-3.4,1.6c-0.7-0.3-1.1-0.9-1.1-1.7
						c0-0.6,0.8-1.9,1.2-0.9C58.9,10.5,60,9.8,59.7,9.1L59.7,9.1z"/>
				</g>
			</g>
			<g id="XMLID_13142_">
				<g id="XMLID_13143_">
					<path id="XMLID_13144_" class="st1" d="M79.1,10c0,1-1.4,2.2-2.4,1.6c-0.6-0.4-1-1.1-1.7-1.5c-1.2-0.6-2.7-0.4-3.7,0.4
						c-0.6,0.5,0,1.6,0.6,1.1c0.7-0.6,1.7-0.7,2.5-0.3c0.9,0.4,1.2,1.4,2.1,1.7c1.8,0.5,3.8-1.1,3.8-2.9C80.4,9.2,79.1,9.2,79.1,10
						L79.1,10z"/>
				</g>
			</g>
			<g id="XMLID_13139_">
				<g id="XMLID_13140_">
					<path id="XMLID_13141_" class="st1" d="M78.2,9.9c0.8,0,0.8-1.3,0-1.3C77.3,8.6,77.3,9.9,78.2,9.9L78.2,9.9z"/>
				</g>
			</g>
			<g id="XMLID_13136_">
				<g id="XMLID_13137_">
					<path id="XMLID_13138_" class="st1" d="M65,13.3c0.8,0,0.8-1.3,0-1.3C64.2,12.1,64.2,13.3,65,13.3L65,13.3z"/>
				</g>
			</g>
			<g id="XMLID_13133_">
				<g id="XMLID_13134_">
					<path id="XMLID_13135_" class="st1" d="M79.4,11.7c1.6,0.9,3.4-0.2,5-0.8c0.8-0.3,1.8-0.8,2.8-0.6c0.5,0.1,1.1,0.5,1.1,1.1
						c0,0.6-0.5,1.1-1.1,0.8c-0.7-0.3-1.4,0.8-0.6,1.1c2.5,1.1,4.1-2.4,1.9-3.8c-1.1-0.7-2.5-0.5-3.7-0.1c-0.8,0.3-1.6,0.6-2.4,1
						c-0.7,0.3-1.5,0.6-2.3,0.3C79.3,10.2,78.7,11.3,79.4,11.7L79.4,11.7z"/>
				</g>
			</g>
			<g id="XMLID_13130_">
				<g id="XMLID_13131_">
					<path id="XMLID_13132_" class="st1" d="M89.5,14.9c0.2-0.4,0.6-0.8,1.1-0.8c0.6,0,0.9,0.5,0.8,1c-0.2,0.9-1,1.5-1.6,2.2
						c-1.2,1.4-1.1,3.1-1.1,4.8c0,0.8,1.2,0.8,1.3,0c0-0.8,0-1.6,0.1-2.4c0.1-0.8,0.5-1.3,1-1.9c0.8-0.8,1.6-1.7,1.7-2.9
						c0-1.1-0.7-1.9-1.7-2.1c-1.1-0.2-2.1,0.5-2.6,1.4C88,15,89.1,15.6,89.5,14.9L89.5,14.9z"/>
				</g>
			</g>
			<g id="XMLID_13127_">
				<g id="XMLID_13128_">
					<path id="XMLID_13129_" class="st1" d="M90.8,21.2c-1.8,0-3.4,2-2.9,3.8c0.3,0.9,1.2,1.2,1.6,2c0.5,0.9,0.3,1.9-0.3,2.6
						c-0.5,0.7,0.6,1.3,1.1,0.6c0.8-1.1,0.9-2.5,0.4-3.7c-0.3-0.7-0.8-1-1.3-1.5c-0.9-1,0.3-2.6,1.4-2.6
						C91.7,22.5,91.7,21.2,90.8,21.2L90.8,21.2z"/>
				</g>
			</g>
			<g id="XMLID_13124_">
				<g id="XMLID_13125_">
					<path id="XMLID_13126_" class="st1" d="M91.6,24.1c0.8,0,0.8-1.3,0-1.3C90.8,22.8,90.8,24.1,91.6,24.1L91.6,24.1z"/>
				</g>
			</g>
			<g id="XMLID_13121_">
				<g id="XMLID_13122_">
					<path id="XMLID_13123_" class="st1" d="M88.1,37.2c0.8,0,0.8-1.3,0-1.3C87.3,35.9,87.3,37.2,88.1,37.2L88.1,37.2z"/>
				</g>
			</g>
		</g>
		<g id="XMLID_13117_">
			<g id="XMLID_13118_">
				<path id="XMLID_13119_" class="st1" d="M10.6,118.8c-1.7-1.4-4.2,1.3-2.6,2.9c0.3,0.3,0.8,0.5,1.2,0.7c0.6,0.2,1.4,0.2,1.8,0.8
					c0.3,0.5,0.3,1.1-0.1,1.5c-0.7,0.7-1.8,0.3-1.7-0.7c0-0.8-1.2-0.8-1.3,0c-0.2,2.8,3.9,3.1,4.5,0.5c0.2-1-0.2-2.1-1-2.7
					c-0.6-0.4-1.4-0.4-2-0.7c-0.4-0.1-0.7-0.4-0.6-0.8c0.1-0.3,0.6-0.9,0.9-0.6C10.3,120.2,11.2,119.3,10.6,118.8L10.6,118.8z"/>
			</g>
		</g>
		<g id="XMLID_13114_">
			<g id="XMLID_13115_">
				<path id="XMLID_13116_" class="st1" d="M48.9,142.5c-0.5,0.9-1.4,1.2-2.4,1.5c-1,0.3-1.9,0.4-2.9,0.1c-0.8-0.2-1.1,1-0.3,1.2
					c1.3,0.4,2.5,0.3,3.8-0.2c1.2-0.4,2.3-0.9,2.9-2C50.4,142.4,49.3,141.8,48.9,142.5L48.9,142.5z"/>
			</g>
		</g>
		<g id="XMLID_13111_">
			<g id="XMLID_13112_">
				<path id="XMLID_13113_" class="st1" d="M49.1,143.4c2,1.9,4.7,2.5,7.3,1.8c0.8-0.2,0.4-1.5-0.3-1.2c-2.2,0.6-4.5,0.1-6.1-1.5
					C49.4,141.9,48.5,142.8,49.1,143.4L49.1,143.4z"/>
			</g>
		</g>
		<g id="XMLID_13108_">
			<g id="XMLID_13109_">
				<path id="XMLID_13110_" class="st1" d="M49.6,147c0.8,0,0.8-1.3,0-1.3C48.7,145.7,48.7,147,49.6,147L49.6,147z"/>
			</g>
		</g>
		<g id="XMLID_13105_">
			<g id="XMLID_13106_">
				<path id="XMLID_13107_" class="st1" d="M45.9,147.3C45.9,147.3,45.9,147.3,45.9,147.3c0.4,0,0.7-0.3,0.7-0.6
					c0-0.3-0.3-0.6-0.6-0.6c0,0,0,0,0,0c-0.3,0-0.7,0.3-0.6,0.6C45.3,147,45.6,147.3,45.9,147.3L45.9,147.3z"/>
			</g>
		</g>
		<g id="XMLID_13102_">
			<g id="XMLID_13103_">
				<path id="XMLID_13104_" class="st1" d="M53,147.3c0.8,0,0.8-1.3,0-1.3C52.2,146,52.2,147.3,53,147.3L53,147.3z"/>
			</g>
		</g>
		<g id="XMLID_13099_">
			<g id="XMLID_13100_">
				<path id="XMLID_13101_" class="st1" d="M89.4,37.2c1.7,1.4,4.2-1.3,2.6-2.9c-0.3-0.3-0.8-0.5-1.2-0.7c-0.6-0.2-1.4-0.2-1.8-0.8
					c-0.3-0.5-0.3-1.1,0.1-1.5c0.7-0.7,1.8-0.3,1.7,0.7c0,0.8,1.2,0.8,1.3,0c0.2-2.8-3.9-3.1-4.5-0.5c-0.2,1,0.2,2.1,1,2.7
					c0.6,0.4,1.4,0.4,2,0.7c0.4,0.1,0.7,0.4,0.6,0.8c-0.1,0.3-0.6,0.9-0.9,0.6C89.7,35.7,88.8,36.6,89.4,37.2L89.4,37.2z"/>
			</g>
		</g>
		<g id="XMLID_13096_">
			<g id="XMLID_13097_">
				<path id="XMLID_13098_" class="st1" d="M51.1,13.4c0.5-0.9,1.4-1.2,2.4-1.5c1-0.3,1.9-0.4,2.9-0.1c0.8,0.2,1.1-1,0.3-1.2
					c-1.3-0.4-2.5-0.3-3.8,0.2c-1.2,0.4-2.3,0.9-2.9,2C49.6,13.5,50.7,14.1,51.1,13.4L51.1,13.4z"/>
			</g>
		</g>
		<g id="XMLID_13093_">
			<g id="XMLID_13094_">
				<path id="XMLID_13095_" class="st1" d="M50.9,12.5c-2-1.9-4.7-2.5-7.3-1.8c-0.8,0.2-0.4,1.5,0.3,1.2c2.2-0.6,4.5-0.1,6.1,1.5
					C50.6,14,51.5,13.1,50.9,12.5L50.9,12.5z"/>
			</g>
		</g>
		<g id="XMLID_13090_">
			<g id="XMLID_13091_">
				<path id="XMLID_13092_" class="st1" d="M50.4,10.2c0.8,0,0.8-1.3,0-1.3C49.6,9,49.6,10.2,50.4,10.2L50.4,10.2z"/>
			</g>
		</g>
		<g id="XMLID_13087_">
			<g id="XMLID_13088_">
				<path id="XMLID_13089_" class="st1" d="M54.1,8.7C54.1,8.7,54.1,8.7,54.1,8.7c-0.4,0-0.7,0.3-0.7,0.6c0,0.3,0.3,0.6,0.6,0.6
					c0,0,0,0,0,0c0.3,0,0.7-0.3,0.6-0.6C54.7,9,54.4,8.7,54.1,8.7L54.1,8.7z"/>
			</g>
		</g>
		<g id="XMLID_13084_">
			<g id="XMLID_13085_">
				<path id="XMLID_13086_" class="st1" d="M47,9.9c0.8,0,0.8-1.3,0-1.3C46.2,8.6,46.2,9.9,47,9.9L47,9.9z"/>
			</g>
		</g>
		<g id="XMLID_12734_">
			<g id="XMLID_12825_">
				<g id="XMLID_12955_">
					<g id="XMLID_13020_">
						<g id="XMLID_13081_">
							<g id="XMLID_13082_">
								<path id="XMLID_13083_" class="st1" d="M41.8,41.5c1.1-2.7,1.9-5.8,0.3-8.5c-1.5-2.4-4.2-2.8-6.7-1.7
									c-2.2,1-3.8,3.1-4.4,5.4c-0.6,2.4,0,5,1.3,7c1.3,2.1,3.3,3.7,5.1,5.2c2.2,1.8,4.2,3.8,5.8,6.1c1.7,2.5,3.2,5.2,4,8.1
									c0.8,2.6,1.2,5.7,0.1,8.3c-1.4,3.1-4.9,4.8-8.1,3.9c-1.6-0.5-3.1-1.6-3.9-3.1c-0.8-1.5-0.7-3.8,1.2-4.3
									c0.8-0.2,0.4-1.5-0.3-1.2c-2.8,0.8-3.2,4.1-1.9,6.3c1.4,2.4,4.1,3.9,6.9,3.9c2.7,0,5.4-1.5,6.8-3.8c1.5-2.4,1.6-5.2,1.1-7.9
									c-1-5.8-4.5-11.3-8.7-15.3c-3.5-3.3-9.4-6.7-8.3-12.4c0.5-2.9,3.4-6.2,6.7-5.6c1.6,0.3,2.6,1.8,2.9,3.4c0.4,2-0.3,4-1.1,5.8
									C40.2,41.9,41.5,42.3,41.8,41.5L41.8,41.5z"/>
							</g>
						</g>
						<g id="XMLID_13078_">
							<g id="XMLID_13079_">
								<path id="XMLID_13080_" class="st1" d="M34.1,30.2c-3.3,0-6.2,2.4-7.4,5.4c-1.3,3.6-0.1,7.7,2,10.7c2.3,3.2,5.4,5.3,8.6,7.6
									c2.8,2,6.5,4.9,6.1,8.8c-0.2,2-2.3,3.4-4.2,2.4c-1.8-0.9-1.8-3.5-0.4-4.7c0.6-0.5-0.3-1.4-0.9-0.9c-2.6,2.3-1.3,6.8,2.2,7.1
									c1.7,0.2,3.3-0.6,4.1-2.1c0.8-1.6,0.6-3.6-0.1-5.2c-1.5-3.6-5-5.7-8-7.9c-3.6-2.5-7.1-5.6-8.2-10c-0.6-2.3-0.4-4.8,0.9-6.8
									c1.2-1.9,3.2-3.2,5.4-3.1C34.9,31.5,34.9,30.2,34.1,30.2L34.1,30.2z"/>
							</g>
						</g>
						<g id="XMLID_13075_">
							<g id="XMLID_13076_">
								<path id="XMLID_13077_" class="st1" d="M24.1,38.8c-1.3-1.1-2.9-1.8-4.6-2.1c-0.5-0.1-1.1,0.4-0.7,0.9
									c0.7,1.1,1.1,2.2,1.5,3.5c0.3,1.1,0.6,2.2,1.3,3.1c1.2,1.5,3.5,1.9,4.7,0.1c0.5-0.7-0.6-1.3-1.1-0.6
									c-0.5,0.7-1.4,0.7-2.1,0.2c-0.7-0.5-1.1-1.4-1.3-2.2c-0.5-1.7-0.9-3.3-1.9-4.8c-0.2,0.3-0.5,0.6-0.7,0.9
									c1.5,0.2,2.9,0.8,4,1.7C23.8,40.2,24.7,39.4,24.1,38.8L24.1,38.8z"/>
							</g>
						</g>
						<g id="XMLID_13072_">
							<g id="XMLID_13073_">
								<path id="XMLID_13074_" class="st1" d="M23.5,34.8c-1.3-1.6-1.5-3.9-0.6-5.8c0.8-1.6,1.9-3.2,0.5-4.9
									c-0.5-0.6-1.3,0.2-1,0.8c0.5,1.1,1.5,1.6,2.4,2.3c1.2,0.9,1.9,2.2,2,3.6c0,0.8,1.3,0.8,1.3,0c-0.1-1.4-0.6-2.7-1.5-3.8
									c-0.9-1-2.4-1.5-3-2.7c-0.3,0.3-0.7,0.5-1,0.8c0.8,0.9-0.2,2.2-0.6,3.1c-0.4,0.8-0.7,1.6-0.8,2.6c-0.2,1.8,0.4,3.6,1.5,5
									C23.2,36.3,24,35.4,23.5,34.8L23.5,34.8z"/>
							</g>
						</g>
						<g id="XMLID_13069_">
							<g id="XMLID_13070_">
								<path id="XMLID_13071_" class="st1" d="M25.1,33.4c0.8,0,0.8-1.3,0-1.3C24.3,32.1,24.3,33.4,25.1,33.4L25.1,33.4z"/>
							</g>
						</g>
						<g id="XMLID_13066_">
							<g id="XMLID_13067_">
								<path id="XMLID_13068_" class="st1" d="M23.7,42.8c0.8,0,0.8-1.3,0-1.3C22.9,41.6,22.9,42.8,23.7,42.8L23.7,42.8z"/>
							</g>
						</g>
						<g id="XMLID_13063_">
							<g id="XMLID_13064_">
								<path id="XMLID_13065_" class="st1" d="M29.1,49.4c-2.8-1-5.3,2.3-3.5,4.7c0.9,1.2,2.4,1.7,3.6,2.5c1.5,0.9,2.8,2.1,3.4,3.8
									c1,3-0.2,7-3.2,8.5c-3.1,1.5-7.5-0.9-8.6-4c-0.6-1.8-0.2-4,1.7-4.9c1.8-0.8,3.9,0.4,3.6,2.5c-0.1,0.8,1.2,0.8,1.3,0
									c0.2-1.6-0.8-3.1-2.3-3.7c-1.5-0.6-3.2-0.1-4.4,1c-2.8,2.7-1.2,7,1.5,9c3,2.3,7.1,2.6,9.8-0.4c2.4-2.7,3-7.2,0.8-10.2
									c-1.2-1.7-3.1-2.7-4.9-3.8c-0.9-0.5-1.8-1.1-1.8-2.3c0-1.3,1.3-2,2.5-1.6C29.5,50.9,29.8,49.7,29.1,49.4L29.1,49.4z"/>
							</g>
						</g>
						<g id="XMLID_13060_">
							<g id="XMLID_13061_">
								<path id="XMLID_13062_" class="st1" d="M21.4,57c-1.7-1.3-0.6-3.7,0.1-5.2c-0.3,0-0.7,0.1-1,0.1c0.7,0.8,1.4,1.5,2.1,2.3
									c0.6,0.7,1.6,1.6,1,2.6c-0.4,0.7,0.7,1.4,1.1,0.6c0.6-1.1,0.3-2.2-0.4-3.2c-0.9-1.2-2-2.2-3-3.2c-0.3-0.3-0.8-0.2-1,0.1
									c-1.1,2.2-2.1,5.2,0.3,6.9C21.4,58.6,22,57.5,21.4,57L21.4,57z"/>
							</g>
						</g>
						<g id="XMLID_13057_">
							<g id="XMLID_13058_">
								<path id="XMLID_13059_" class="st1" d="M22,56.6c0.8,0,0.8-1.3,0-1.3C21.2,55.3,21.2,56.6,22,56.6L22,56.6z"/>
							</g>
						</g>
						<g id="XMLID_13054_">
							<g id="XMLID_13055_">
								<path id="XMLID_13056_" class="st1" d="M23.4,65.9c0.8,0,0.8-1.3,0-1.3C22.6,64.6,22.6,65.9,23.4,65.9L23.4,65.9z"/>
							</g>
						</g>
						<g id="XMLID_13051_">
							<g id="XMLID_13052_">
								<path id="XMLID_13053_" class="st1" d="M25.6,66.9c0.8,0,0.8-1.3,0-1.3C24.8,65.6,24.8,66.9,25.6,66.9L25.6,66.9z"/>
							</g>
						</g>
						<g id="XMLID_13048_">
							<g id="XMLID_13049_">
								<path id="XMLID_13050_" class="st1" d="M28.5,66.7c0.8,0,0.8-1.3,0-1.3C27.7,65.4,27.7,66.7,28.5,66.7L28.5,66.7z"/>
							</g>
						</g>
						<g id="XMLID_13045_">
							<g id="XMLID_13046_">
								<path id="XMLID_13047_" class="st1" d="M32.4,28.6c0.3-0.7,0.7-1.5,1.3-2c0.8-0.8,1.8-0.7,2.9-0.4c1.8,0.5,3.6,0.5,5.3-0.4
									c-0.3-0.1-0.6-0.2-0.9-0.2c0.8,1.5,1.8,3.3,1,5c-0.4,0.7,0.7,1.4,1.1,0.6c1.1-2.2,0.1-4.3-1-6.3c-0.2-0.3-0.6-0.4-0.9-0.2
									c-1,0.5-2.2,0.7-3.3,0.5c-1-0.2-2-0.7-3.1-0.6C33,24.9,32,26.5,31.3,28C30.9,28.7,32,29.3,32.4,28.6L32.4,28.6z"/>
							</g>
						</g>
						<g id="XMLID_13042_">
							<g id="XMLID_13043_">
								<path id="XMLID_13044_" class="st1" d="M35.9,28.8c0.1,0,0.1,0,0.2,0c0.3,0,0.7-0.3,0.6-0.6c0-0.3-0.3-0.6-0.6-0.6
									c-0.1,0-0.1,0-0.2,0c-0.3,0-0.7,0.3-0.6,0.6C35.3,28.5,35.6,28.8,35.9,28.8L35.9,28.8z"/>
							</g>
						</g>
						<g id="XMLID_13039_">
							<g id="XMLID_13040_">
								<path id="XMLID_13041_" class="st1" d="M38.7,29c0,0.1,0,0.1,0,0.2c0,0.3,0.3,0.7,0.6,0.6c0.3,0,0.6-0.3,0.6-0.6
									c0-0.1,0-0.1,0-0.2c0-0.3-0.3-0.7-0.6-0.6C39,28.4,38.7,28.6,38.7,29L38.7,29z"/>
							</g>
						</g>
						<g id="XMLID_13036_">
							<g id="XMLID_13037_">
								<path id="XMLID_13038_" class="st1" d="M31.7,54c0.1,0,0.1,0,0.2,0c0.3,0,0.7-0.3,0.6-0.6c0-0.3-0.3-0.6-0.6-0.6
									c-0.1,0-0.1,0-0.2,0c-0.3,0-0.7,0.3-0.6,0.6C31.1,53.7,31.3,54,31.7,54L31.7,54z"/>
							</g>
						</g>
						<g id="XMLID_13033_">
							<g id="XMLID_13034_">
								<path id="XMLID_13035_" class="st1" d="M34.2,55.5c0.8,0,0.8-1.3,0-1.3C33.4,54.3,33.4,55.5,34.2,55.5L34.2,55.5z"/>
							</g>
						</g>
						<g id="XMLID_13030_">
							<g id="XMLID_13031_">
								<path id="XMLID_13032_" class="st1" d="M36.4,57.4c0.8,0,0.8-1.3,0-1.3C35.6,56.1,35.6,57.4,36.4,57.4L36.4,57.4z"/>
							</g>
						</g>
						<g id="XMLID_13027_">
							<g id="XMLID_13028_">
								<path id="XMLID_13029_" class="st1" d="M24.2,48.8c0-0.1,0-0.1,0-0.2c0-0.3-0.3-0.7-0.6-0.6c-0.3,0-0.6,0.3-0.6,0.6
									c0,0.1,0,0.1,0,0.2c0,0.3,0.3,0.7,0.6,0.6C23.9,49.4,24.2,49.2,24.2,48.8L24.2,48.8z"/>
							</g>
						</g>
						<g id="XMLID_13024_">
							<g id="XMLID_13025_">
								<path id="XMLID_13026_" class="st1" d="M20.7,47.8c0.8,0,0.8-1.3,0-1.3C19.9,46.5,19.9,47.8,20.7,47.8L20.7,47.8z"/>
							</g>
						</g>
						<g id="XMLID_13021_">
							<g id="XMLID_13022_">
								<path id="XMLID_13023_" class="st1" d="M37.7,71.6c1.6,3.1,5.8,3.1,7.6,0.2c0.4-0.7-0.7-1.3-1.1-0.6c-1.3,2.1-4.2,2-5.4-0.2
									C38.4,70.2,37.3,70.9,37.7,71.6L37.7,71.6z"/>
							</g>
						</g>
					</g>
					<g id="XMLID_12956_">
						<g id="XMLID_13017_">
							<g id="XMLID_13018_">
								<path id="XMLID_13019_" class="st1" d="M59.4,41.2c-1.1-2.6-2.2-6.8,0.8-8.7c2.7-1.7,6,0.9,7.1,3.3c1.3,2.5,0.8,5.3-0.8,7.6
									c-1.4,2.2-3.6,3.7-5.5,5.4c-4.5,3.8-8,8.8-9.6,14.5c-0.8,2.6-1.1,5.6-0.2,8.2c0.9,2.6,3,4.6,5.7,5.3c3,0.8,6.3-0.3,8.2-2.7
									c1-1.2,1.6-2.7,1.3-4.3c-0.3-1.4-1.2-2.6-2.6-3c-0.8-0.2-1.1,1-0.3,1.2c1.6,0.5,2,2.3,1.5,3.7c-0.5,1.5-1.8,2.6-3.1,3.3
									c-2.7,1.3-6,0.7-8-1.6c-2-2.2-2.1-5.4-1.6-8.1c0.5-2.9,1.8-5.7,3.3-8.3c1.5-2.5,3.4-4.8,5.6-6.8c1.8-1.6,3.9-3.1,5.5-5
									c1.6-1.9,2.8-4.2,2.7-6.7c-0.1-2.4-1.3-4.8-3.2-6.3c-2.2-1.8-5.6-2.4-7.7,0c-2.3,2.7-1.5,6.2-0.2,9.2
									C58.5,42.3,59.8,41.9,59.4,41.2L59.4,41.2z"/>
							</g>
						</g>
						<g id="XMLID_13014_">
							<g id="XMLID_13015_">
								<path id="XMLID_13016_" class="st1" d="M65.9,31.5c4.4,0,7,4.4,6.6,8.3c-0.4,4.6-3.8,8.1-7.3,10.7c-3,2.3-6.7,4.2-8.7,7.6
									c-0.9,1.6-1.5,3.5-1.1,5.3c0.4,1.6,1.6,2.9,3.3,3.2c1.8,0.3,3.6-0.5,4.4-2.2c0.8-1.7,0.3-3.7-1-4.9
									c-0.6-0.5-1.5,0.4-0.9,0.9c1.2,1.1,1.5,3.2,0.2,4.3c-1.3,1.1-3.5,0.8-4.3-0.6c-1-1.6-0.3-3.8,0.6-5.3
									c0.9-1.6,2.4-2.8,3.8-3.9c3-2.3,6.4-4.3,8.9-7.2c2.4-2.9,4-6.7,3.3-10.5c-0.7-3.7-3.9-6.9-7.7-6.8
									C65.1,30.2,65.1,31.5,65.9,31.5L65.9,31.5z"/>
							</g>
						</g>
						<g id="XMLID_13011_">
							<g id="XMLID_13012_">
								<path id="XMLID_13013_" class="st1" d="M76.8,39.7c1.2-1,2.5-1.5,4-1.7c-0.2-0.3-0.5-0.6-0.7-0.9c-1,1.5-1.4,3.1-1.9,4.8
									c-0.2,0.8-0.6,1.6-1.2,2.1c-0.6,0.5-1.7,0.7-2.2-0.1c-0.4-0.7-1.5,0-1.1,0.6c1.2,1.8,3.5,1.3,4.7-0.1c0.7-0.9,1-1.9,1.3-3
									c0.3-1.3,0.8-2.5,1.5-3.6c0.3-0.5-0.2-1-0.7-0.9c-1.7,0.3-3.3,1-4.6,2.1C75.3,39.4,76.2,40.2,76.8,39.7L76.8,39.7z"/>
							</g>
						</g>
						<g id="XMLID_13008_">
							<g id="XMLID_13009_">
								<path id="XMLID_13010_" class="st1" d="M77.4,35.7c1.1-1.4,1.7-3.2,1.5-5c-0.1-0.9-0.4-1.8-0.8-2.6
									c-0.5-0.8-1.4-2.1-0.6-3.1c-0.3-0.3-0.7-0.5-1-0.8c-0.6,1.3-2.1,1.7-3,2.7c-0.9,1.1-1.5,2.4-1.5,3.8c0,0.8,1.2,0.8,1.3,0
									c0.1-1.5,0.8-2.8,2-3.6c0.9-0.7,1.9-1.2,2.4-2.3c0.3-0.6-0.5-1.4-1-0.8c-1.3,1.6-0.2,3.3,0.5,4.9c0.9,1.9,0.7,4.1-0.6,5.8
									C76,35.4,76.8,36.3,77.4,35.7L77.4,35.7z"/>
							</g>
						</g>
						<g id="XMLID_13005_">
							<g id="XMLID_13006_">
								<path id="XMLID_13007_" class="st1" d="M74.9,33.4c0.8,0,0.8-1.3,0-1.3C74.1,32.1,74.1,33.4,74.9,33.4L74.9,33.4z"/>
							</g>
						</g>
						<g id="XMLID_13002_">
							<g id="XMLID_13003_">
								<path id="XMLID_13004_" class="st1" d="M76.3,42.8c0.8,0,0.8-1.3,0-1.3C75.4,41.6,75.4,42.8,76.3,42.8L76.3,42.8z"/>
							</g>
						</g>
						<g id="XMLID_12999_">
							<g id="XMLID_13000_">
								<path id="XMLID_13001_" class="st1" d="M71.3,50.6c1-0.4,2.1,0,2.4,1.1c0.3,1.1-0.5,1.9-1.3,2.4c-1.5,1-3.2,1.7-4.5,3.1
									c-2.6,2.7-2.7,7-0.7,10.1c0.9,1.4,2.2,2.5,3.8,3c1.9,0.5,3.8,0.1,5.5-0.8c3-1.6,5.6-5.6,3.5-9c-1-1.5-2.9-2.5-4.7-2
									c-1.7,0.4-2.9,2.2-2.7,3.9c0.1,0.8,1.4,0.8,1.3,0c-0.2-1.6,1.2-3,2.9-2.7c1.7,0.3,2.8,2,2.7,3.7c-0.1,3.5-4.3,6.4-7.6,5.8
									c-3.3-0.5-5-4.3-4.7-7.4c0.2-1.8,1.1-3.3,2.5-4.5c1.3-1,2.8-1.6,4-2.6c1.2-0.9,1.8-2.4,1.2-3.8c-0.6-1.5-2.3-2.2-3.9-1.6
									C70.2,49.7,70.5,50.9,71.3,50.6L71.3,50.6z"/>
							</g>
						</g>
						<g id="XMLID_12996_">
							<g id="XMLID_12997_">
								<path id="XMLID_12998_" class="st1" d="M79.3,58.1c2.4-1.7,1.4-4.7,0.3-6.9c-0.2-0.4-0.7-0.4-1-0.1c-1,1.1-2.1,2.1-3,3.2
									c-0.7,1-1,2.1-0.4,3.2c0.4,0.7,1.5,0.1,1.1-0.6c-0.5-1,0.4-1.9,1-2.6c0.7-0.8,1.4-1.5,2.1-2.3c-0.3,0-0.7-0.1-1-0.1
									c0.7,1.5,1.9,3.9,0.1,5.2C78,57.5,78.6,58.6,79.3,58.1L79.3,58.1z"/>
							</g>
						</g>
						<g id="XMLID_12993_">
							<g id="XMLID_12994_">
								<path id="XMLID_12995_" class="st1" d="M78,56.6c0.8,0,0.8-1.3,0-1.3C77.1,55.3,77.1,56.6,78,56.6L78,56.6z"/>
							</g>
						</g>
						<g id="XMLID_12990_">
							<g id="XMLID_12991_">
								<path id="XMLID_12992_" class="st1" d="M76.6,65.9c0.8,0,0.8-1.3,0-1.3C75.8,64.6,75.8,65.9,76.6,65.9L76.6,65.9z"/>
							</g>
						</g>
						<g id="XMLID_12987_">
							<g id="XMLID_12988_">
								<path id="XMLID_12989_" class="st1" d="M74.4,66.9c0.8,0,0.8-1.3,0-1.3C73.6,65.6,73.6,66.9,74.4,66.9L74.4,66.9z"/>
							</g>
						</g>
						<g id="XMLID_12984_">
							<g id="XMLID_12985_">
								<path id="XMLID_12986_" class="st1" d="M71.5,66.7c0.8,0,0.8-1.3,0-1.3C70.7,65.4,70.7,66.7,71.5,66.7L71.5,66.7z"/>
							</g>
						</g>
						<g id="XMLID_12981_">
							<g id="XMLID_12982_">
								<path id="XMLID_12983_" class="st1" d="M68.7,28c-0.7-1.5-1.7-3.1-3.5-3.3c-1-0.1-2,0.3-3,0.5c-1.2,0.3-2.4,0.1-3.5-0.5
									c-0.3-0.2-0.7-0.1-0.9,0.2c-1.1,1.9-2.1,4.1-1,6.3c0.4,0.7,1.5,0.1,1.1-0.6c-0.8-1.7,0.2-3.5,1-5c-0.3,0.1-0.6,0.2-0.9,0.2
									c1.7,0.9,3.5,0.9,5.3,0.4c1-0.3,2-0.5,2.8,0.3c0.6,0.6,1,1.4,1.4,2.1C68,29.3,69.1,28.7,68.7,28L68.7,28z"/>
							</g>
						</g>
						<g id="XMLID_12978_">
							<g id="XMLID_12979_">
								<path id="XMLID_12980_" class="st1" d="M64.1,27.5c-0.1,0-0.1,0-0.2,0c-0.3,0-0.7,0.3-0.6,0.6c0,0.3,0.3,0.6,0.6,0.6
									c0.1,0,0.1,0,0.2,0c0.3,0,0.7-0.3,0.6-0.6C64.7,27.8,64.4,27.5,64.1,27.5L64.1,27.5z"/>
							</g>
						</g>
						<g id="XMLID_12975_">
							<g id="XMLID_12976_">
								<path id="XMLID_12977_" class="st1" d="M60.1,29c0,0.1,0,0.1,0,0.2c0,0.3,0.3,0.7,0.6,0.6c0.3,0,0.6-0.3,0.6-0.6
									c0-0.1,0-0.1,0-0.2c0-0.3-0.3-0.7-0.6-0.6C60.3,28.4,60.1,28.6,60.1,29L60.1,29z"/>
							</g>
						</g>
						<g id="XMLID_12972_">
							<g id="XMLID_12973_">
								<path id="XMLID_12974_" class="st1" d="M68.3,52.7c-0.1,0-0.1,0-0.2,0c-0.3,0-0.7,0.3-0.6,0.6c0,0.3,0.3,0.6,0.6,0.6
									c0.1,0,0.1,0,0.2,0c0.3,0,0.7-0.3,0.6-0.6C68.9,53,68.7,52.7,68.3,52.7L68.3,52.7z"/>
							</g>
						</g>
						<g id="XMLID_12969_">
							<g id="XMLID_12970_">
								<path id="XMLID_12971_" class="st1" d="M65.8,55.5c0.8,0,0.8-1.3,0-1.3C64.9,54.3,64.9,55.5,65.8,55.5L65.8,55.5z"/>
							</g>
						</g>
						<g id="XMLID_12966_">
							<g id="XMLID_12967_">
								<path id="XMLID_12968_" class="st1" d="M63.6,57.4c0.8,0,0.8-1.3,0-1.3C62.7,56.1,62.7,57.4,63.6,57.4L63.6,57.4z"/>
							</g>
						</g>
						<g id="XMLID_12963_">
							<g id="XMLID_12964_">
								<path id="XMLID_12965_" class="st1" d="M77.1,48.8c0-0.1,0-0.1,0-0.2c0-0.3-0.3-0.7-0.6-0.6c-0.3,0-0.6,0.3-0.6,0.6
									c0,0.1,0,0.1,0,0.2c0,0.3,0.3,0.7,0.6,0.6C76.8,49.4,77.1,49.2,77.1,48.8L77.1,48.8z"/>
							</g>
						</g>
						<g id="XMLID_12960_">
							<g id="XMLID_12961_">
								<path id="XMLID_12962_" class="st1" d="M79.3,47.8c0.8,0,0.8-1.3,0-1.3C78.5,46.5,78.5,47.8,79.3,47.8L79.3,47.8z"/>
							</g>
						</g>
						<g id="XMLID_12957_">
							<g id="XMLID_12958_">
								<path id="XMLID_12959_" class="st1" d="M61.2,71c-1.1,2.2-4.1,2.3-5.4,0.2c-0.4-0.7-1.5-0.1-1.1,0.6c1.7,2.9,6,2.9,7.6-0.2
									C62.7,70.9,61.6,70.2,61.2,71L61.2,71z"/>
							</g>
						</g>
					</g>
				</g>
				<g id="XMLID_12826_">
					<g id="XMLID_12891_">
						<g id="XMLID_12952_">
							<g id="XMLID_12953_">
								<path id="XMLID_12954_" class="st1" d="M40.6,114.7c1.1,2.6,2.2,6.8-0.8,8.7c-2.7,1.7-6-0.9-7.1-3.3
									c-1.3-2.5-0.8-5.3,0.8-7.6c1.4-2.2,3.6-3.7,5.5-5.4c4.5-3.8,8-8.8,9.6-14.5c0.8-2.6,1.1-5.6,0.2-8.2c-0.9-2.6-3-4.6-5.7-5.3
									c-3-0.8-6.3,0.3-8.2,2.7c-1,1.2-1.6,2.7-1.3,4.3c0.3,1.4,1.2,2.6,2.6,3c0.8,0.2,1.1-1,0.3-1.2c-1.6-0.5-2-2.3-1.5-3.7
									c0.5-1.5,1.8-2.6,3.1-3.3c2.7-1.3,6-0.7,8,1.6c2,2.2,2.1,5.4,1.6,8.1c-0.5,2.9-1.8,5.7-3.3,8.3c-1.5,2.5-3.4,4.8-5.6,6.8
									c-1.8,1.6-3.9,3.1-5.5,5c-1.6,1.9-2.8,4.2-2.7,6.7c0.1,2.4,1.3,4.8,3.2,6.3c2.2,1.8,5.6,2.4,7.7,0c2.3-2.7,1.5-6.2,0.2-9.2
									C41.5,113.7,40.2,114,40.6,114.7L40.6,114.7z"/>
							</g>
						</g>
						<g id="XMLID_12949_">
							<g id="XMLID_12950_">
								<path id="XMLID_12951_" class="st1" d="M34.1,124.4c-4.4,0-7-4.4-6.6-8.3c0.4-4.6,3.8-8.1,7.3-10.7c3-2.3,6.7-4.2,8.7-7.6
									c0.9-1.6,1.5-3.5,1.1-5.3c-0.4-1.6-1.6-2.9-3.3-3.2c-1.8-0.3-3.6,0.5-4.4,2.2c-0.8,1.7-0.3,3.7,1,4.9
									c0.6,0.5,1.5-0.4,0.9-0.9c-1.2-1.1-1.5-3.2-0.2-4.3c1.3-1.1,3.5-0.8,4.3,0.6c1,1.6,0.3,3.8-0.6,5.3
									c-0.9,1.6-2.4,2.8-3.8,3.9c-3,2.3-6.4,4.3-8.9,7.2c-2.4,2.9-4,6.7-3.3,10.5c0.7,3.7,3.9,6.9,7.7,6.8
									C34.9,125.7,34.9,124.4,34.1,124.4L34.1,124.4z"/>
							</g>
						</g>
						<g id="XMLID_12946_">
							<g id="XMLID_12947_">
								<path id="XMLID_12948_" class="st1" d="M23.2,116.2c-1.2,1-2.5,1.5-4,1.7c0.2,0.3,0.5,0.6,0.7,0.9c1-1.5,1.4-3.1,1.9-4.8
									c0.2-0.8,0.6-1.6,1.2-2.1c0.6-0.5,1.7-0.7,2.2,0.1c0.4,0.7,1.5,0,1.1-0.6c-1.2-1.8-3.5-1.3-4.7,0.1c-0.7,0.9-1,1.9-1.3,3
									c-0.3,1.3-0.8,2.5-1.5,3.6c-0.3,0.5,0.2,1,0.7,0.9c1.7-0.3,3.3-1,4.6-2.1C24.7,116.6,23.8,115.7,23.2,116.2L23.2,116.2z"/>
							</g>
						</g>
						<g id="XMLID_12943_">
							<g id="XMLID_12944_">
								<path id="XMLID_12945_" class="st1" d="M22.6,120.2c-1.1,1.4-1.7,3.2-1.5,5c0.1,0.9,0.4,1.8,0.8,2.6
									c0.5,0.8,1.4,2.1,0.6,3.1c0.3,0.3,0.7,0.5,1,0.8c0.6-1.3,2.1-1.7,3-2.7c0.9-1.1,1.5-2.4,1.5-3.8c0-0.8-1.2-0.8-1.3,0
									c-0.1,1.5-0.8,2.8-2,3.6c-0.9,0.7-1.9,1.2-2.4,2.3c-0.3,0.6,0.5,1.4,1,0.8c1.3-1.6,0.2-3.3-0.5-4.9
									c-0.9-1.9-0.7-4.1,0.6-5.8C24,120.5,23.2,119.6,22.6,120.2L22.6,120.2z"/>
							</g>
						</g>
						<g id="XMLID_12940_">
							<g id="XMLID_12941_">
								<path id="XMLID_12942_" class="st1" d="M25.1,123.8c0.8,0,0.8-1.3,0-1.3C24.3,122.6,24.3,123.8,25.1,123.8L25.1,123.8z"/>
							</g>
						</g>
						<g id="XMLID_12937_">
							<g id="XMLID_12938_">
								<path id="XMLID_12939_" class="st1" d="M23.7,114.4c0.8,0,0.8-1.3,0-1.3C22.9,113.1,22.9,114.4,23.7,114.4L23.7,114.4z"/>
							</g>
						</g>
						<g id="XMLID_12934_">
							<g id="XMLID_12935_">
								<path id="XMLID_12936_" class="st1" d="M28.7,105.3c-1,0.4-2.1,0-2.4-1.1c-0.3-1.1,0.5-1.9,1.3-2.4c1.5-1,3.2-1.7,4.5-3.1
									c2.6-2.7,2.7-7,0.7-10.1c-0.9-1.4-2.2-2.5-3.8-3c-1.9-0.5-3.8-0.1-5.5,0.8c-3,1.6-5.6,5.6-3.5,9c1,1.5,2.9,2.5,4.7,2
									c1.7-0.4,2.9-2.2,2.7-3.9c-0.1-0.8-1.4-0.8-1.3,0c0.2,1.6-1.2,3-2.9,2.7c-1.7-0.3-2.8-2-2.7-3.7c0.1-3.5,4.3-6.4,7.6-5.8
									c3.3,0.5,5,4.3,4.7,7.4c-0.2,1.8-1.1,3.3-2.5,4.5c-1.3,1-2.8,1.6-4,2.6c-1.2,0.9-1.8,2.4-1.2,3.8c0.6,1.5,2.3,2.2,3.9,1.6
									C29.8,106.2,29.5,105,28.7,105.3L28.7,105.3z"/>
							</g>
						</g>
						<g id="XMLID_12931_">
							<g id="XMLID_12932_">
								<path id="XMLID_12933_" class="st1" d="M20.7,97.8c-2.4,1.7-1.4,4.7-0.3,6.9c0.2,0.4,0.7,0.4,1,0.1c1-1.1,2.1-2.1,3-3.2
									c0.7-1,1-2.1,0.4-3.2c-0.4-0.7-1.5-0.1-1.1,0.6c0.5,1-0.4,1.9-1,2.6c-0.7,0.8-1.4,1.5-2.1,2.3c0.3,0,0.7,0.1,1,0.1
									c-0.7-1.5-1.9-3.9-0.1-5.2C22,98.4,21.4,97.3,20.7,97.8L20.7,97.8z"/>
							</g>
						</g>
						<g id="XMLID_12928_">
							<g id="XMLID_12929_">
								<path id="XMLID_12930_" class="st1" d="M22,100.6c0.8,0,0.8-1.3,0-1.3C21.2,99.4,21.2,100.6,22,100.6L22,100.6z"/>
							</g>
						</g>
						<g id="XMLID_12925_">
							<g id="XMLID_12926_">
								<path id="XMLID_12927_" class="st1" d="M23.4,91.3c0.8,0,0.8-1.3,0-1.3C22.6,90.1,22.6,91.3,23.4,91.3L23.4,91.3z"/>
							</g>
						</g>
						<g id="XMLID_12922_">
							<g id="XMLID_12923_">
								<path id="XMLID_12924_" class="st1" d="M25.6,90.3c0.8,0,0.8-1.3,0-1.3C24.8,89.1,24.8,90.3,25.6,90.3L25.6,90.3z"/>
							</g>
						</g>
						<g id="XMLID_12919_">
							<g id="XMLID_12920_">
								<path id="XMLID_12921_" class="st1" d="M28.5,90.5c0.8,0,0.8-1.3,0-1.3C27.7,89.2,27.7,90.5,28.5,90.5L28.5,90.5z"/>
							</g>
						</g>
						<g id="XMLID_12916_">
							<g id="XMLID_12917_">
								<path id="XMLID_12918_" class="st1" d="M31.3,128c0.7,1.5,1.7,3.1,3.5,3.3c1,0.1,2-0.3,3-0.5c1.2-0.3,2.4-0.1,3.5,0.5
									c0.3,0.2,0.7,0.1,0.9-0.2c1.1-1.9,2.1-4.1,1-6.3c-0.4-0.7-1.5-0.1-1.1,0.6c0.8,1.7-0.2,3.5-1,5c0.3-0.1,0.6-0.2,0.9-0.2
									c-1.7-0.9-3.5-0.9-5.3-0.4c-1,0.3-2,0.5-2.8-0.3c-0.6-0.6-1-1.4-1.4-2.1C32,126.6,30.9,127.2,31.3,128L31.3,128z"/>
							</g>
						</g>
						<g id="XMLID_12913_">
							<g id="XMLID_12914_">
								<path id="XMLID_12915_" class="st1" d="M35.9,128.4c0.1,0,0.1,0,0.2,0c0.3,0,0.7-0.3,0.6-0.6c0-0.3-0.3-0.6-0.6-0.6
									c-0.1,0-0.1,0-0.2,0c-0.3,0-0.7,0.3-0.6,0.6C35.3,128.1,35.6,128.4,35.9,128.4L35.9,128.4z"/>
							</g>
						</g>
						<g id="XMLID_12910_">
							<g id="XMLID_12911_">
								<path id="XMLID_12912_" class="st1" d="M39.9,126.9c0-0.1,0-0.1,0-0.2c0-0.3-0.3-0.7-0.6-0.6c-0.3,0-0.6,0.3-0.6,0.6
									c0,0.1,0,0.1,0,0.2c0,0.3,0.3,0.7,0.6,0.6C39.7,127.6,39.9,127.3,39.9,126.9L39.9,126.9z"/>
							</g>
						</g>
						<g id="XMLID_12907_">
							<g id="XMLID_12908_">
								<path id="XMLID_12909_" class="st1" d="M31.7,103.2c0.1,0,0.1,0,0.2,0c0.3,0,0.7-0.3,0.6-0.6c0-0.3-0.3-0.6-0.6-0.6
									c-0.1,0-0.1,0-0.2,0c-0.3,0-0.7,0.3-0.6,0.6C31.1,102.9,31.3,103.2,31.7,103.2L31.7,103.2z"/>
							</g>
						</g>
						<g id="XMLID_12904_">
							<g id="XMLID_12905_">
								<path id="XMLID_12906_" class="st1" d="M34.2,101.7c0.8,0,0.8-1.3,0-1.3C33.4,100.4,33.4,101.7,34.2,101.7L34.2,101.7z"/>
							</g>
						</g>
						<g id="XMLID_12901_">
							<g id="XMLID_12902_">
								<path id="XMLID_12903_" class="st1" d="M36.4,99.8c0.8,0,0.8-1.3,0-1.3C35.6,98.5,35.6,99.8,36.4,99.8L36.4,99.8z"/>
							</g>
						</g>
						<g id="XMLID_12898_">
							<g id="XMLID_12899_">
								<path id="XMLID_12900_" class="st1" d="M22.9,107.1c0,0.1,0,0.1,0,0.2c0,0.3,0.3,0.7,0.6,0.6c0.3,0,0.6-0.3,0.6-0.6
									c0-0.1,0-0.1,0-0.2c0-0.3-0.3-0.7-0.6-0.6C23.2,106.5,22.9,106.8,22.9,107.1L22.9,107.1z"/>
							</g>
						</g>
						<g id="XMLID_12895_">
							<g id="XMLID_12896_">
								<path id="XMLID_12897_" class="st1" d="M20.7,109.5c0.8,0,0.8-1.3,0-1.3C19.9,108.2,19.9,109.5,20.7,109.5L20.7,109.5z"/>
							</g>
						</g>
						<g id="XMLID_12892_">
							<g id="XMLID_12893_">
								<path id="XMLID_12894_" class="st1" d="M38.8,85c1.1-2.2,4.1-2.3,5.4-0.2c0.4,0.7,1.5,0.1,1.1-0.6c-1.7-2.9-6-2.9-7.6,0.2
									C37.3,85.1,38.4,85.7,38.8,85L38.8,85z"/>
							</g>
						</g>
					</g>
					<g id="XMLID_12827_">
						<g id="XMLID_12888_">
							<g id="XMLID_12889_">
								<path id="XMLID_12890_" class="st1" d="M58.2,114.4c-1.1,2.7-1.9,5.8-0.3,8.5c1.5,2.4,4.2,2.8,6.7,1.7
									c2.2-1,3.8-3.1,4.4-5.4c0.6-2.4,0-5-1.3-7c-1.3-2.1-3.3-3.7-5.1-5.2c-2.2-1.8-4.2-3.8-5.8-6.1c-1.7-2.5-3.2-5.2-4-8.1
									c-0.8-2.6-1.2-5.7-0.1-8.3c1.4-3.1,4.9-4.8,8.1-3.9c1.6,0.5,3.1,1.6,3.9,3.1c0.8,1.5,0.7,3.8-1.2,4.3
									c-0.8,0.2-0.4,1.5,0.3,1.2c2.8-0.8,3.2-4.1,1.9-6.3c-1.4-2.4-4.1-3.9-6.9-3.9c-2.7,0-5.4,1.5-6.8,3.8
									c-1.5,2.4-1.6,5.2-1.1,7.9c1,5.8,4.5,11.3,8.7,15.3c3.5,3.3,9.4,6.7,8.3,12.4c-0.5,2.9-3.4,6.2-6.7,5.6
									c-1.6-0.3-2.6-1.8-2.9-3.4c-0.4-2,0.3-4,1.1-5.8C59.8,114,58.5,113.7,58.2,114.4L58.2,114.4z"/>
							</g>
						</g>
						<g id="XMLID_12885_">
							<g id="XMLID_12886_">
								<path id="XMLID_12887_" class="st1" d="M65.9,125.7c3.3,0,6.2-2.4,7.4-5.4c1.3-3.6,0.1-7.7-2-10.7c-2.3-3.2-5.4-5.3-8.6-7.6
									c-2.8-2-6.5-4.9-6.1-8.8c0.2-2,2.3-3.4,4.2-2.4c1.8,0.9,1.8,3.5,0.4,4.7c-0.6,0.5,0.3,1.4,0.9,0.9c2.6-2.3,1.3-6.8-2.2-7.1
									c-1.7-0.2-3.3,0.6-4.1,2.1C55.1,93,55.3,95,56,96.6c1.5,3.6,5,5.7,8,7.9c3.6,2.5,7.1,5.6,8.2,10c0.6,2.3,0.4,4.8-0.9,6.8
									c-1.2,1.9-3.2,3.2-5.4,3.1C65.1,124.4,65.1,125.7,65.9,125.7L65.9,125.7z"/>
							</g>
						</g>
						<g id="XMLID_12882_">
							<g id="XMLID_12883_">
								<path id="XMLID_12884_" class="st1" d="M75.9,117.1c1.3,1.1,2.9,1.8,4.6,2.1c0.5,0.1,1.1-0.4,0.7-0.9
									c-0.7-1.1-1.1-2.2-1.5-3.5c-0.3-1.1-0.6-2.2-1.3-3.1c-1.2-1.5-3.5-1.9-4.7-0.1c-0.5,0.7,0.6,1.3,1.1,0.6
									c0.5-0.7,1.4-0.7,2.1-0.2c0.7,0.5,1.1,1.4,1.3,2.2c0.5,1.7,0.9,3.3,1.9,4.8c0.2-0.3,0.5-0.6,0.7-0.9c-1.5-0.2-2.9-0.8-4-1.7
									C76.2,115.7,75.3,116.6,75.9,117.1L75.9,117.1z"/>
							</g>
						</g>
						<g id="XMLID_12879_">
							<g id="XMLID_12880_">
								<path id="XMLID_12881_" class="st1" d="M76.5,121.1c1.3,1.6,1.5,3.9,0.6,5.8c-0.8,1.6-1.9,3.2-0.5,4.9
									c0.5,0.6,1.3-0.2,1-0.8c-0.5-1.1-1.5-1.6-2.4-2.3c-1.2-0.9-1.9-2.2-2-3.6c0-0.8-1.3-0.8-1.3,0c0.1,1.4,0.6,2.7,1.5,3.8
									c0.9,1,2.4,1.5,3,2.7c0.3-0.3,0.7-0.5,1-0.8c-0.8-0.9,0.2-2.2,0.6-3.1c0.4-0.8,0.7-1.6,0.8-2.6c0.2-1.8-0.4-3.6-1.5-5
									C76.8,119.6,76,120.5,76.5,121.1L76.5,121.1z"/>
							</g>
						</g>
						<g id="XMLID_12876_">
							<g id="XMLID_12877_">
								<path id="XMLID_12878_" class="st1" d="M74.9,123.8c0.8,0,0.8-1.3,0-1.3C74.1,122.6,74.1,123.8,74.9,123.8L74.9,123.8z"/>
							</g>
						</g>
						<g id="XMLID_12873_">
							<g id="XMLID_12874_">
								<path id="XMLID_12875_" class="st1" d="M76.3,114.4c0.8,0,0.8-1.3,0-1.3C75.4,113.1,75.4,114.4,76.3,114.4L76.3,114.4z"/>
							</g>
						</g>
						<g id="XMLID_12870_">
							<g id="XMLID_12871_">
								<path id="XMLID_12872_" class="st1" d="M70.9,106.5c2.8,1,5.3-2.3,3.5-4.7c-0.9-1.2-2.4-1.7-3.6-2.5
									c-1.5-0.9-2.8-2.1-3.4-3.8c-1-3,0.2-7,3.2-8.5c3.1-1.5,7.5,0.9,8.6,4c0.6,1.8,0.2,4-1.7,4.9c-1.8,0.8-3.9-0.4-3.6-2.5
									c0.1-0.8-1.2-0.8-1.3,0c-0.2,1.6,0.8,3.1,2.3,3.7c1.5,0.6,3.2,0.1,4.4-1c2.8-2.7,1.2-7-1.5-9c-3-2.3-7.1-2.6-9.8,0.4
									c-2.4,2.7-3,7.2-0.8,10.2c1.2,1.7,3.1,2.7,4.9,3.8c0.9,0.5,1.8,1.1,1.8,2.3c0,1.3-1.3,2-2.5,1.6
									C70.5,105,70.2,106.2,70.9,106.5L70.9,106.5z"/>
							</g>
						</g>
						<g id="XMLID_12867_">
							<g id="XMLID_12868_">
								<path id="XMLID_12869_" class="st1" d="M78.6,98.9c1.7,1.3,0.6,3.7-0.1,5.2c0.3,0,0.7-0.1,1-0.1c-0.7-0.8-1.4-1.5-2.1-2.3
									c-0.6-0.7-1.6-1.6-1-2.6c0.4-0.7-0.7-1.4-1.1-0.6c-0.6,1.1-0.3,2.2,0.4,3.2c0.9,1.2,2,2.2,3,3.2c0.3,0.3,0.8,0.2,1-0.1
									c1.1-2.2,2.1-5.2-0.3-6.9C78.6,97.3,78,98.4,78.6,98.9L78.6,98.9z"/>
							</g>
						</g>
						<g id="XMLID_12864_">
							<g id="XMLID_12865_">
								<path id="XMLID_12866_" class="st1" d="M78,100.6c0.8,0,0.8-1.3,0-1.3C77.1,99.4,77.1,100.6,78,100.6L78,100.6z"/>
							</g>
						</g>
						<g id="XMLID_12861_">
							<g id="XMLID_12862_">
								<path id="XMLID_12863_" class="st1" d="M76.6,91.3c0.8,0,0.8-1.3,0-1.3C75.8,90.1,75.8,91.3,76.6,91.3L76.6,91.3z"/>
							</g>
						</g>
						<g id="XMLID_12858_">
							<g id="XMLID_12859_">
								<path id="XMLID_12860_" class="st1" d="M74.4,90.3c0.8,0,0.8-1.3,0-1.3C73.6,89.1,73.6,90.3,74.4,90.3L74.4,90.3z"/>
							</g>
						</g>
						<g id="XMLID_12855_">
							<g id="XMLID_12856_">
								<path id="XMLID_12857_" class="st1" d="M71.5,90.5c0.8,0,0.8-1.3,0-1.3C70.7,89.2,70.7,90.5,71.5,90.5L71.5,90.5z"/>
							</g>
						</g>
						<g id="XMLID_12852_">
							<g id="XMLID_12853_">
								<path id="XMLID_12854_" class="st1" d="M67.6,127.3c-0.3,0.7-0.7,1.5-1.3,2c-0.8,0.8-1.8,0.7-2.9,0.4
									c-1.8-0.5-3.6-0.5-5.3,0.4c0.3,0.1,0.6,0.2,0.9,0.2c-0.8-1.5-1.8-3.3-1-5c0.4-0.7-0.7-1.4-1.1-0.6c-1.1,2.2-0.1,4.3,1,6.3
									c0.2,0.3,0.6,0.4,0.9,0.2c1-0.5,2.2-0.7,3.3-0.5c1,0.2,2,0.7,3.1,0.6c1.8-0.2,2.8-1.8,3.5-3.3
									C69.1,127.2,68,126.6,67.6,127.3L67.6,127.3z"/>
							</g>
						</g>
						<g id="XMLID_12849_">
							<g id="XMLID_12850_">
								<path id="XMLID_12851_" class="st1" d="M64.1,127.1c-0.1,0-0.1,0-0.2,0c-0.3,0-0.7,0.3-0.6,0.6c0,0.3,0.3,0.6,0.6,0.6
									c0.1,0,0.1,0,0.2,0c0.3,0,0.7-0.3,0.6-0.6C64.7,127.4,64.4,127.1,64.1,127.1L64.1,127.1z"/>
							</g>
						</g>
						<g id="XMLID_12846_">
							<g id="XMLID_12847_">
								<path id="XMLID_12848_" class="st1" d="M61.3,126.9c0-0.1,0-0.1,0-0.2c0-0.3-0.3-0.7-0.6-0.6c-0.3,0-0.6,0.3-0.6,0.6
									c0,0.1,0,0.1,0,0.2c0,0.3,0.3,0.7,0.6,0.6C61,127.6,61.3,127.3,61.3,126.9L61.3,126.9z"/>
							</g>
						</g>
						<g id="XMLID_12843_">
							<g id="XMLID_12844_">
								<path id="XMLID_12845_" class="st1" d="M68.3,101.9c-0.1,0-0.1,0-0.2,0c-0.3,0-0.7,0.3-0.6,0.6c0,0.3,0.3,0.6,0.6,0.6
									c0.1,0,0.1,0,0.2,0c0.3,0,0.7-0.3,0.6-0.6C68.9,102.2,68.7,101.9,68.3,101.9L68.3,101.9z"/>
							</g>
						</g>
						<g id="XMLID_12840_">
							<g id="XMLID_12841_">
								<path id="XMLID_12842_" class="st1" d="M65.8,101.7c0.8,0,0.8-1.3,0-1.3C64.9,100.4,64.9,101.7,65.8,101.7L65.8,101.7z"/>
							</g>
						</g>
						<g id="XMLID_12837_">
							<g id="XMLID_12838_">
								<path id="XMLID_12839_" class="st1" d="M63.6,99.8c0.8,0,0.8-1.3,0-1.3C62.7,98.5,62.7,99.8,63.6,99.8L63.6,99.8z"/>
							</g>
						</g>
						<g id="XMLID_12834_">
							<g id="XMLID_12835_">
								<path id="XMLID_12836_" class="st1" d="M75.8,107.1c0,0.1,0,0.1,0,0.2c0,0.3,0.3,0.7,0.6,0.6c0.3,0,0.6-0.3,0.6-0.6
									c0-0.1,0-0.1,0-0.2c0-0.3-0.3-0.7-0.6-0.6C76.1,106.5,75.8,106.8,75.8,107.1L75.8,107.1z"/>
							</g>
						</g>
						<g id="XMLID_12831_">
							<g id="XMLID_12832_">
								<path id="XMLID_12833_" class="st1" d="M79.3,109.5c0.8,0,0.8-1.3,0-1.3C78.5,108.2,78.5,109.5,79.3,109.5L79.3,109.5z"/>
							</g>
						</g>
						<g id="XMLID_12828_">
							<g id="XMLID_12829_">
								<path id="XMLID_12830_" class="st1" d="M62.3,84.3c-1.6-3.1-5.8-3.1-7.6-0.2c-0.4,0.7,0.7,1.3,1.1,0.6
									c1.3-2.1,4.2-2,5.4,0.2C61.6,85.7,62.7,85.1,62.3,84.3L62.3,84.3z"/>
							</g>
						</g>
					</g>
				</g>
			</g>
			<g id="XMLID_12822_">
				<g id="XMLID_12823_">
					<path id="XMLID_12824_" class="st1" d="M48.2,98.4c-0.7,5.7-4.9,10-9.4,13.2c-1.9,1.4-4,3.1-4.1,5.6c-0.1,2.1,1.6,4,3.6,4.4
						c0.8,0.1,1.1-1.1,0.3-1.2c-1.1-0.2-2.1-0.9-2.5-2c-0.4-1.1-0.1-2.3,0.5-3.2c0.7-1,1.7-1.8,2.7-2.5c1-0.7,2-1.4,2.9-2.2
						c3.7-3.1,6.5-7.2,7.1-12C49.5,97.6,48.3,97.6,48.2,98.4L48.2,98.4z"/>
				</g>
			</g>
			<g id="XMLID_12819_">
				<g id="XMLID_12820_">
					<path id="XMLID_12821_" class="st1" d="M39.2,120.7c-1-2.2,0-4.6,2.2-5.5c0.7-0.3,0.1-1.4-0.6-1.1c-2.8,1.2-3.9,4.5-2.6,7.3
						C38.5,122,39.6,121.4,39.2,120.7L39.2,120.7z"/>
				</g>
			</g>
			<g id="XMLID_12816_">
				<g id="XMLID_12817_">
					<path id="XMLID_12818_" class="st1" d="M47.4,107.7c-1.1,2-2.5,3.7-4.2,5.2c-0.3,0.2-0.2,0.7,0,0.9c1.7,1.8,2.2,4.4,1.5,6.7
						c-0.2,0.8,1,1.1,1.2,0.3c0.9-2.8,0.2-5.8-1.8-7.9c0,0.3,0,0.6,0,0.9c1.8-1.5,3.3-3.4,4.4-5.4C48.9,107.6,47.8,107,47.4,107.7
						L47.4,107.7z"/>
				</g>
			</g>
			<g id="XMLID_12813_">
				<g id="XMLID_12814_">
					<path id="XMLID_12815_" class="st1" d="M50.5,98.4c0.6,4.8,3.5,8.9,7.1,12c0.9,0.8,1.8,1.5,2.8,2.1c1,0.7,2,1.4,2.8,2.5
						c0.7,1,1.1,2.2,0.6,3.3c-0.4,1.1-1.4,1.8-2.5,2c-0.8,0.1-0.5,1.4,0.3,1.2c2.1-0.4,3.7-2.3,3.6-4.4c-0.1-2.5-2.2-4.2-4.1-5.6
						c-4.5-3.2-8.7-7.4-9.4-13.2C51.7,97.6,50.4,97.6,50.5,98.4L50.5,98.4z"/>
				</g>
			</g>
			<g id="XMLID_12810_">
				<g id="XMLID_12811_">
					<path id="XMLID_12812_" class="st1" d="M61.8,121.3c1.3-2.7,0.2-6-2.6-7.3c-0.7-0.3-1.4,0.8-0.6,1.1c2.2,0.9,3.2,3.3,2.2,5.5
						C60.4,121.4,61.5,122,61.8,121.3L61.8,121.3z"/>
				</g>
			</g>
			<g id="XMLID_12807_">
				<g id="XMLID_12808_">
					<path id="XMLID_12809_" class="st1" d="M51.5,108.3c1.1,2.1,2.6,3.9,4.4,5.4c0-0.3,0-0.6,0-0.9c-2,2.1-2.7,5.2-1.8,7.9
						c0.2,0.8,1.5,0.4,1.2-0.3c-0.7-2.3-0.2-4.9,1.5-6.7c0.2-0.2,0.3-0.7,0-0.9c-1.7-1.5-3.1-3.2-4.2-5.2
						C52.2,107,51.1,107.6,51.5,108.3L51.5,108.3z"/>
				</g>
			</g>
			<g id="XMLID_12804_">
				<g id="XMLID_12805_">
					<path id="XMLID_12806_" class="st1" d="M46.4,114.4c2.3,0.8,4.8,0.8,7.1-0.1c0.8-0.3,0.4-1.5-0.3-1.2c-2.1,0.8-4.3,0.8-6.4,0.1
						C46,112.9,45.6,114.1,46.4,114.4L46.4,114.4z"/>
				</g>
			</g>
			<g id="XMLID_12801_">
				<g id="XMLID_12802_">
					<path id="XMLID_12803_" class="st1" d="M47,117.3c0.9,1,1.7,2,2.4,3.1c0.2,0.4,0.9,0.5,1.1,0c0.6-1.2,1.3-2.4,2.2-3.4
						c0.5-0.6-0.4-1.5-0.9-0.9c-1,1.1-1.8,2.3-2.4,3.6c0.4,0,0.7,0,1.1,0c-0.8-1.2-1.6-2.3-2.6-3.3C47.3,115.8,46.5,116.7,47,117.3
						L47,117.3z"/>
				</g>
			</g>
			<g id="XMLID_12798_">
				<g id="XMLID_12799_">
					<path id="XMLID_12800_" class="st1" d="M49.9,111.5c0.8,0,0.8-1.3,0-1.3C49.1,110.2,49.1,111.5,49.9,111.5L49.9,111.5z"/>
				</g>
			</g>
			<g id="XMLID_12795_">
				<g id="XMLID_12796_">
					<path id="XMLID_12797_" class="st1" d="M31.3,73.7c-1.7,0.2-3.2,1.3-4.6,2.1c-1.6,0.9-3.3,1.7-5.1,1.9
						c-0.6,0.1-0.9,0.9-0.3,1.2c1.9,0.9,3.7,1.9,5.7,2.7c1.7,0.7,3.6,0.8,5.4,0.4c0.8-0.2,0.5-1.4-0.3-1.2c-1.8,0.3-3.5,0.1-5.2-0.7
						c-1.6-0.8-3.3-1.6-4.9-2.3c-0.1,0.4-0.2,0.8-0.3,1.2c1.7-0.2,3.3-0.7,4.8-1.5c0.8-0.4,1.5-0.8,2.3-1.3c0.8-0.5,1.7-1.1,2.7-1.2
						C32.1,74.9,32.1,73.6,31.3,73.7L31.3,73.7z"/>
				</g>
			</g>
			<g id="XMLID_12792_">
				<g id="XMLID_12793_">
					<path id="XMLID_12794_" class="st1" d="M32.2,77.9c0,0,0-0.1,0-0.1c0-0.3-0.3-0.7-0.6-0.6c-0.3,0-0.6,0.3-0.6,0.6
						c0,0,0,0.1,0,0.1c0,0.3,0.3,0.7,0.6,0.6C31.9,78.5,32.2,78.2,32.2,77.9L32.2,77.9z"/>
				</g>
			</g>
			<g id="XMLID_12789_">
				<g id="XMLID_12790_">
					<path id="XMLID_12791_" class="st1" d="M21.3,72.7c0.9,1,2.1,1.6,3.4,1.7c0.8,0.1,0.8-1.2,0-1.3c-1-0.1-1.8-0.6-2.5-1.3
						C21.6,71.2,20.7,72.1,21.3,72.7L21.3,72.7z"/>
				</g>
			</g>
			<g id="XMLID_12786_">
				<g id="XMLID_12787_">
					<path id="XMLID_12788_" class="st1" d="M22.3,85c0.6-0.6,1.3-0.9,2.1-1.1c0.8-0.1,0.5-1.4-0.3-1.2c-1,0.2-1.9,0.7-2.7,1.4
						C20.8,84.7,21.7,85.6,22.3,85L22.3,85z"/>
				</g>
			</g>
			<g id="XMLID_12783_">
				<g id="XMLID_12784_">
					<path id="XMLID_12785_" class="st1" d="M68,83c1.7-0.2,3.2-1.3,4.6-2.1c1.6-0.9,3.3-1.7,5.1-1.9c0.6-0.1,0.9-0.9,0.3-1.2
						c-1.9-0.9-3.7-1.9-5.7-2.7c-1.7-0.7-3.6-0.8-5.4-0.4c-0.8,0.2-0.5,1.4,0.3,1.2c1.8-0.3,3.5-0.1,5.2,0.7
						c1.6,0.8,3.3,1.6,4.9,2.3c0.1-0.4,0.2-0.8,0.3-1.2c-1.7,0.2-3.3,0.7-4.8,1.5c-0.8,0.4-1.5,0.8-2.3,1.3C69.9,81,69,81.7,68,81.8
						C67.2,81.9,67.2,83.1,68,83L68,83z"/>
				</g>
			</g>
			<g id="XMLID_12780_">
				<g id="XMLID_12781_">
					<path id="XMLID_12782_" class="st1" d="M67.2,78.9c0,0,0,0.1,0,0.1c0,0.3,0.3,0.7,0.6,0.6c0.3,0,0.6-0.3,0.6-0.6
						c0,0,0-0.1,0-0.1c0-0.3-0.3-0.7-0.6-0.6C67.5,78.3,67.2,78.5,67.2,78.9L67.2,78.9z"/>
				</g>
			</g>
			<g id="XMLID_12777_">
				<g id="XMLID_12778_">
					<path id="XMLID_12779_" class="st1" d="M78.1,84.1c-0.9-1-2.1-1.6-3.4-1.7c-0.8-0.1-0.8,1.2,0,1.3c1,0.1,1.8,0.6,2.5,1.3
						C77.7,85.6,78.6,84.7,78.1,84.1L78.1,84.1z"/>
				</g>
			</g>
			<g id="XMLID_12774_">
				<g id="XMLID_12775_">
					<path id="XMLID_12776_" class="st1" d="M77.1,71.8c-0.6,0.6-1.3,0.9-2.1,1.1c-0.8,0.1-0.5,1.4,0.3,1.2c1-0.2,1.9-0.7,2.7-1.4
						C78.5,72.1,77.6,71.2,77.1,71.8L77.1,71.8z"/>
				</g>
			</g>
			<g id="XMLID_12771_">
				<g id="XMLID_12772_">
					<path id="XMLID_12773_" class="st1" d="M44.4,123.9c0.5,2.7,2.8,5,5.6,5c1.3,0,2.6-0.5,3.5-1.4c1-1,1.5-2.5,1.8-3.8
						c0.2-0.8-1-1.1-1.2-0.3c-0.6,2.2-1.5,4.3-4.1,4.4c-2.3,0-4-1.9-4.4-4C45.5,122.7,44.3,123.1,44.4,123.9L44.4,123.9z"/>
				</g>
			</g>
			<g id="XMLID_12768_">
				<g id="XMLID_12769_">
					<path id="XMLID_12770_" class="st1" d="M49.8,124.6c0.8,0,0.8-1.3,0-1.3C49,123.3,49,124.6,49.8,124.6L49.8,124.6z"/>
				</g>
			</g>
			<g id="XMLID_12765_">
				<g id="XMLID_12766_">
					<path id="XMLID_12767_" class="st1" d="M49.4,57.5c-0.6-4.8-3.5-8.9-7.1-12c-0.9-0.8-1.8-1.5-2.8-2.1c-1-0.7-2-1.4-2.8-2.5
						c-0.7-1-1.1-2.2-0.6-3.3c0.4-1.1,1.4-1.8,2.5-2c0.8-0.1,0.5-1.4-0.3-1.2c-2.1,0.4-3.7,2.3-3.6,4.4c0.1,2.5,2.2,4.2,4.1,5.6
						c4.5,3.2,8.7,7.4,9.4,13.2C48.3,58.3,49.5,58.3,49.4,57.5L49.4,57.5z"/>
				</g>
			</g>
			<g id="XMLID_12762_">
				<g id="XMLID_12763_">
					<path id="XMLID_12764_" class="st1" d="M38.1,34.6c-1.3,2.7-0.2,6,2.6,7.3c0.7,0.3,1.4-0.8,0.6-1.1c-2.2-0.9-3.2-3.3-2.2-5.5
						C39.6,34.5,38.5,33.9,38.1,34.6L38.1,34.6z"/>
				</g>
			</g>
			<g id="XMLID_12759_">
				<g id="XMLID_12760_">
					<path id="XMLID_12761_" class="st1" d="M48.5,47.6c-1.1-2.1-2.6-3.9-4.4-5.4c0,0.3,0,0.6,0,0.9c2-2.1,2.7-5.2,1.8-7.9
						c-0.2-0.8-1.5-0.4-1.2,0.3c0.7,2.3,0.2,4.9-1.5,6.7c-0.2,0.2-0.3,0.7,0,0.9c1.7,1.5,3.1,3.2,4.2,5.2
						C47.8,48.9,48.9,48.3,48.5,47.6L48.5,47.6z"/>
				</g>
			</g>
			<g id="XMLID_12756_">
				<g id="XMLID_12757_">
					<path id="XMLID_12758_" class="st1" d="M51.8,57.5c0.7-5.7,4.9-10,9.4-13.2c1.9-1.4,4-3.1,4.1-5.6c0.1-2.1-1.6-4-3.6-4.4
						c-0.8-0.1-1.1,1.1-0.3,1.2c1.1,0.2,2.1,0.9,2.5,2c0.4,1.1,0.1,2.3-0.5,3.2c-0.7,1-1.7,1.8-2.7,2.5c-1,0.7-2,1.4-2.9,2.2
						c-3.7,3.1-6.5,7.2-7.1,12C50.4,58.3,51.7,58.3,51.8,57.5L51.8,57.5z"/>
				</g>
			</g>
			<g id="XMLID_12753_">
				<g id="XMLID_12754_">
					<path id="XMLID_12755_" class="st1" d="M60.7,35.3c1,2.2,0,4.6-2.2,5.5c-0.7,0.3-0.1,1.4,0.6,1.1c2.8-1.2,3.9-4.5,2.6-7.3
						C61.5,33.9,60.4,34.5,60.7,35.3L60.7,35.3z"/>
				</g>
			</g>
			<g id="XMLID_12750_">
				<g id="XMLID_12751_">
					<path id="XMLID_12752_" class="st1" d="M52.6,48.2c1.1-2,2.5-3.7,4.2-5.2c0.3-0.2,0.2-0.7,0-0.9c-1.7-1.8-2.2-4.4-1.5-6.7
						c0.2-0.8-1-1.1-1.2-0.3c-0.9,2.8-0.2,5.8,1.8,7.9c0-0.3,0-0.6,0-0.9c-1.8,1.5-3.3,3.4-4.4,5.4C51.1,48.3,52.2,48.9,52.6,48.2
						L52.6,48.2z"/>
				</g>
			</g>
			<g id="XMLID_12747_">
				<g id="XMLID_12748_">
					<path id="XMLID_12749_" class="st1" d="M46.7,42.8c2.1-0.7,4.3-0.7,6.4,0.1c0.8,0.3,1.1-0.9,0.3-1.2c-2.3-0.9-4.8-0.9-7.1-0.1
						C45.6,41.8,46,43.1,46.7,42.8L46.7,42.8z"/>
				</g>
			</g>
			<g id="XMLID_12744_">
				<g id="XMLID_12745_">
					<path id="XMLID_12746_" class="st1" d="M47.9,39.5c0.9-1.1,1.8-2.2,2.6-3.3c-0.4,0-0.7,0-1.1,0c0.7,1.3,1.5,2.5,2.4,3.6
						c0.5,0.6,1.4-0.3,0.9-0.9c-0.9-1-1.6-2.2-2.2-3.4c-0.2-0.5-0.9-0.4-1.1,0c-0.7,1.1-1.5,2.1-2.4,3.1
						C46.5,39.2,47.3,40.1,47.9,39.5L47.9,39.5z"/>
				</g>
			</g>
			<g id="XMLID_12741_">
				<g id="XMLID_12742_">
					<path id="XMLID_12743_" class="st1" d="M49.9,45.7c0.8,0,0.8-1.3,0-1.3C49.1,44.5,49.1,45.7,49.9,45.7L49.9,45.7z"/>
				</g>
			</g>
			<g id="XMLID_12738_">
				<g id="XMLID_12739_">
					<path id="XMLID_12740_" class="st1" d="M45.6,32.4c0.4-2.2,2.1-4,4.4-4c2.6,0,3.6,2.2,4.1,4.4c0.2,0.8,1.4,0.5,1.2-0.3
						c-0.3-1.3-0.8-2.7-1.7-3.7c-0.9-1-2.3-1.5-3.6-1.5c-2.8,0-5.2,2.2-5.6,5C44.3,32.9,45.5,33.2,45.6,32.4L45.6,32.4z"/>
				</g>
			</g>
			<g id="XMLID_12735_">
				<g id="XMLID_12736_">
					<path id="XMLID_12737_" class="st1" d="M49.8,32.6c0.8,0,0.8-1.3,0-1.3C49,31.4,49,32.6,49.8,32.6L49.8,32.6z"/>
				</g>
			</g>
		</g>
	</g>
</g>
</svg>
