<?xml version="1.0" encoding="UTF-8" standalone="no"?>
<svg
   xmlns:dc="http://purl.org/dc/elements/1.1/"
   xmlns:cc="http://creativecommons.org/ns#"
   xmlns:rdf="http://www.w3.org/1999/02/22-rdf-syntax-ns#"
   xmlns:svg="http://www.w3.org/2000/svg"
   xmlns="http://www.w3.org/2000/svg"
   viewBox="0 0 97.013252 82.827621"
   height="82.827621"
   width="97.013252"
   xml:space="preserve"
   version="1.1"
   id="svg2"><metadata
     id="metadata8"><rdf:RDF><cc:Work
         rdf:about=""><dc:format>image/svg+xml</dc:format><dc:type
           rdf:resource="http://purl.org/dc/dcmitype/StillImage" /></cc:Work></rdf:RDF></metadata><defs
     id="defs6"><clipPath
       id="clipPath16"
       clipPathUnits="userSpaceOnUse"><path
         id="path18"
         d="m 0,66.262 77.611,0 L 77.611,0 0,0 0,66.262 Z" /></clipPath></defs><g
     transform="matrix(1.25,0,0,-1.25,0,82.827625)"
     id="g10"><g
       id="g12"><g
         clip-path="url(#clipPath16)"
         id="g14"><g
           transform="translate(18.5407,40.6926)"
           id="g20"><path
             id="path22"
             style="fill:#852637;fill-opacity:1;fill-rule:nonzero;stroke:none"
             d="M 0,0 C 0.384,0.393 0.93,-0.263 0.549,-0.652 -0.294,-1.514 0.301,-2.704 0.9,-3.591 c 0.274,0.414 0.548,0.829 0.82,1.245 0.34,0.521 0.839,1.257 0.374,1.854 C 1.756,-0.06 2.407,0.49 2.745,0.057 3.253,-0.595 3.205,-1.39 2.854,-2.105 2.424,-2.979 1.795,-3.781 1.261,-4.593 1.117,-4.811 0.747,-4.84 0.586,-4.622 -0.396,-3.286 -1.404,-1.434 0,0 m 1.205,-1.738 c -0.54,-0.093 -0.687,0.746 -0.145,0.84 0.54,0.094 0.686,-0.746 0.145,-0.84 M 1.034,4.576 C 0.493,4.482 0.347,5.322 0.888,5.416 1.428,5.509 1.575,4.67 1.034,4.576 M 2.373,5.5 C 1.833,5.406 1.686,6.246 2.227,6.34 2.768,6.433 2.914,5.594 2.373,5.5 M 4.15,6.558 C 4.691,6.651 4.837,5.812 4.296,5.718 3.755,5.624 3.609,6.464 4.15,6.558 M -0.143,7.24 C 1.567,9.075 4.283,9.791 6.354,8.118 8.238,6.597 9.131,3.705 8.052,1.465 7.434,0.181 6.342,-0.699 5.273,-1.594 4.762,-2.021 4.183,-2.559 4.337,-3.297 4.518,-4.17 5.439,-4.446 6.163,-4.041 c 0.479,0.269 0.84,-0.504 0.364,-0.771 -1.746,-0.979 -3.76,0.899 -2.831,2.7 0.458,0.889 1.398,1.429 2.116,2.085 C 6.68,0.764 7.43,1.712 7.611,2.904 7.929,4.996 6.67,7.519 4.551,8.13 2.337,8.769 -0.301,6.708 -0.658,4.522 -0.863,3.261 -0.309,1.849 1.01,1.488 2.274,1.143 3.527,2.221 3.127,3.532 2.967,4.055 3.809,4.196 3.967,3.677 4.282,2.645 3.784,1.506 2.884,0.939 1.962,0.358 0.763,0.496 -0.121,1.084 -2.307,2.539 -1.685,5.585 -0.143,7.24 M 1.415,9.864 C 0.779,9.684 0.272,9.267 -0.073,8.711 -0.362,8.244 -1.057,8.737 -0.769,9.202 -0.3,9.958 0.418,10.463 1.269,10.703 1.796,10.852 1.938,10.011 1.415,9.864 m -2.927,3.419 c 1.14,0.809 2.259,1.672 3.44,2.42 1.065,0.674 2.285,0.935 3.535,0.915 C 6.011,16.609 5.927,15.761 5.38,15.77 4.139,15.79 3.025,15.444 2.007,14.737 1.348,14.279 0.696,13.81 0.042,13.344 0.705,13.273 1.359,13.132 2.008,12.932 2.564,12.761 3.112,12.561 3.66,12.365 c 0.612,-0.219 1.282,-0.536 1.944,-0.487 0.542,0.04 0.693,-0.799 0.146,-0.84 -1.142,-0.085 -2.247,0.489 -3.304,0.854 -1.164,0.401 -2.367,0.742 -3.611,0.645 -0.377,-0.029 -0.726,0.477 -0.347,0.746 m -0.003,4.176 c 0.452,-0.317 0.954,-0.466 1.505,-0.469 0.547,-0.002 0.462,-0.851 -0.083,-0.848 -0.69,0.004 -1.35,0.225 -1.913,0.62 -0.45,0.315 0.041,1.012 0.491,0.697 M 5.854,13.815 C 5.892,13.596 5.735,13.352 5.507,13.323 5.278,13.293 5.055,13.434 5.014,13.67 5.01,13.695 5.006,13.72 5.001,13.745 4.963,13.964 5.12,14.208 5.348,14.237 5.578,14.266 5.8,14.125 5.841,13.89 5.845,13.865 5.85,13.84 5.854,13.815 m 1.365,-2.363 c 0.626,1.739 2.296,3.043 4.102,3.353 1.819,0.312 3.735,-0.372 4.959,-1.748 1.234,-1.388 1.641,-3.286 1.647,-5.096 0.013,-3.94 -1.656,-7.978 -3.997,-11.092 -1.922,-2.558 -5.438,-5.528 -4.083,-9.134 0.695,-1.848 2.971,-3.699 5.047,-2.909 1.027,0.39 1.525,1.513 1.552,2.552 0.03,1.166 -0.508,2.261 -1.108,3.246 -1.03,-0.922 -1.288,-2.423 -0.446,-3.618 0.25,-0.354 -0.107,-0.766 -0.423,-0.701 -0.015,-0.002 -0.027,-0.009 -0.043,-0.009 -1.401,0.004 -2.719,1.089 -2.912,2.497 -0.232,1.692 0.96,3.053 2.061,4.166 2.599,2.629 4.874,5.906 4.701,9.773 -0.024,0.54 0.815,0.693 0.84,0.145 0.146,-3.269 -1.261,-6.294 -3.322,-8.765 -0.505,-0.606 -1.047,-1.177 -1.602,-1.737 -0.581,-0.585 -1.188,-1.191 -1.547,-1.945 -0.34,-0.716 -0.453,-1.563 -0.013,-2.264 0.281,-0.448 0.705,-0.748 1.186,-0.901 -0.604,1.537 -0.149,3.32 1.316,4.289 0.072,0.048 0.145,0.065 0.217,0.07 0.173,0.034 0.367,-0.014 0.484,-0.197 1.045,-1.637 1.951,-3.639 1.154,-5.571 -0.718,-1.739 -2.479,-2.327 -4.228,-1.866 -1.567,0.413 -2.898,1.622 -3.562,3.088 -0.698,1.54 -0.575,3.284 0.082,4.816 0.652,1.522 1.744,2.789 2.8,4.042 1.226,1.456 2.329,2.984 3.155,4.706 0.873,1.821 1.494,3.787 1.743,5.794 0.228,1.842 0.134,3.907 -0.915,5.504 -1.249,1.903 -3.779,2.633 -5.831,1.619 C 9.216,13.056 8.342,12.156 7.986,11.066 7.631,9.981 7.979,8.503 9.296,8.343 9.839,8.278 9.759,7.429 9.213,7.495 7.293,7.728 6.632,9.82 7.219,11.452 m 11.446,0.817 c 0.292,1.822 1.447,3.4 3.134,4.173 1.873,0.859 4.192,0.525 5.746,-0.831 0.777,-0.677 1.367,-1.627 1.361,-2.684 -0.005,-0.952 -0.52,-1.831 -1.372,-2.257 -0.492,-0.246 -0.854,0.526 -0.364,0.771 0.999,0.499 1.065,1.749 0.568,2.633 -0.51,0.906 -1.468,1.521 -2.445,1.81 -1.948,0.576 -4.061,-0.258 -5.139,-1.968 -1.049,-1.663 -0.805,-3.785 -0.151,-5.545 0.695,-1.869 1.831,-3.581 3.133,-5.081 1.299,-1.496 2.823,-2.782 4.506,-3.826 1.411,-0.876 2.921,-1.616 4.201,-2.686 1.254,-1.048 2.303,-2.451 2.54,-4.106 0.229,-1.606 -0.293,-3.311 -1.373,-4.52 -1.279,-1.431 -3.463,-2.219 -5.094,-0.88 -1.816,1.492 -1.688,3.96 -1.212,6.038 0.051,0.223 0.233,0.332 0.417,0.35 0.074,0.024 0.153,0.036 0.243,0.014 1.706,-0.42 2.734,-1.947 2.683,-3.597 0.403,0.306 0.705,0.732 0.814,1.247 0.165,0.781 -0.18,1.507 -0.713,2.064 -0.577,0.603 -1.344,0.978 -2.086,1.335 -0.74,0.355 -1.473,0.719 -2.18,1.137 -2.772,1.637 -5.114,4.007 -6.077,7.137 -0.161,0.523 0.681,0.663 0.84,0.145 1.137,-3.699 4.383,-6.02 7.715,-7.621 1.408,-0.676 2.997,-1.559 3.342,-3.229 0.289,-1.393 -0.581,-2.856 -1.902,-3.332 -0.015,-0.005 -0.029,-0.002 -0.043,-0.006 -0.276,-0.167 -0.75,0.1 -0.634,0.517 0.394,1.421 -0.372,2.757 -1.672,3.27 -0.357,-1.852 -0.428,-4.32 1.592,-5.166 1.947,-0.816 3.839,1.294 4.34,2.97 0.54,1.805 -0.106,3.586 -1.369,4.917 -1.195,1.259 -2.784,2.067 -4.26,2.941 -3.385,2.004 -6.291,4.893 -8.027,8.453 -0.805,1.649 -1.358,3.567 -1.062,5.413 m 10.205,6.3 c -0.005,0.025 -0.009,0.05 -0.013,0.075 -0.039,0.22 0.118,0.464 0.347,0.493 0.229,0.029 0.452,-0.112 0.492,-0.347 0.005,-0.025 0.009,-0.05 0.013,-0.075 0.038,-0.22 -0.118,-0.464 -0.347,-0.493 -0.229,-0.029 -0.452,0.112 -0.492,0.347 m 0.091,2.852 c 1.142,0.085 2.247,-0.489 3.303,-0.853 1.165,-0.402 2.367,-0.743 3.611,-0.646 0.378,0.03 0.727,-0.476 0.348,-0.745 -1.14,-0.81 -2.259,-1.673 -3.441,-2.421 -1.064,-0.674 -2.284,-0.935 -3.535,-0.915 -0.547,0.009 -0.463,0.858 0.083,0.849 1.242,-0.02 2.356,0.325 3.373,1.032 0.66,0.458 1.312,0.927 1.966,1.394 -0.663,0.07 -1.317,0.212 -1.966,0.411 -0.557,0.171 -1.104,0.371 -1.652,0.567 -0.612,0.219 -1.283,0.537 -1.944,0.488 -0.543,-0.041 -0.694,0.799 -0.146,0.839 m 4.335,1.175 c 0.635,0.179 1.143,0.597 1.487,1.153 0.29,0.467 0.985,-0.026 0.697,-0.491 -0.469,-0.757 -1.187,-1.262 -2.039,-1.502 -0.527,-0.149 -0.669,0.692 -0.145,0.84 m 2.93,-7.595 c -0.452,0.317 -0.954,0.465 -1.505,0.468 -0.548,0.003 -0.463,0.851 0.083,0.848 0.689,-0.003 1.35,-0.225 1.913,-0.619 0.45,-0.316 -0.041,-1.012 -0.491,-0.697 m -3.464,-4.35 c -0.54,-0.094 -0.687,0.746 -0.145,0.839 0.54,0.094 0.686,-0.746 0.145,-0.839 m 3.311,0.862 c 0.54,0.093 0.686,-0.746 0.145,-0.84 -0.54,-0.094 -0.687,0.746 -0.145,0.84 m -1.572,0.419 c 0.54,0.094 0.686,-0.746 0.145,-0.84 -0.54,-0.093 -0.687,0.746 -0.145,0.84 M 38.854,8.436 C 38.392,7.325 37.24,6.465 36.004,6.574 34.84,6.676 33.814,7.661 33.758,8.84 c -0.025,0.54 0.815,0.693 0.84,0.145 0.052,-1.101 1.165,-1.837 2.208,-1.461 1.121,0.405 1.6,1.643 1.368,2.751 -0.477,2.285 -3.546,3.717 -5.676,2.972 -2.119,-0.74 -2.814,-3.428 -2.289,-5.407 0.317,-1.193 1.11,-2.088 2.171,-2.686 0.944,-0.532 2.022,-0.74 2.971,-1.247 0.887,-0.475 1.448,-1.37 1.216,-2.393 -0.242,-1.066 -1.302,-1.709 -2.363,-1.529 -0.537,0.091 -0.46,0.94 0.083,0.848 0.703,-0.119 1.41,0.267 1.479,1.03 0.068,0.76 -0.531,1.194 -1.156,1.455 -1.137,0.474 -2.318,0.789 -3.327,1.528 -2.032,1.489 -2.609,4.34 -1.652,6.619 0.429,1.019 1.165,1.928 2.173,2.415 1.165,0.562 2.533,0.483 3.732,0.08 2.193,-0.737 4.342,-3.066 3.318,-5.524 M 38.036,5.509 c 0.54,0.094 0.686,-0.746 0.145,-0.839 -0.54,-0.094 -0.687,0.746 -0.145,0.839 M 39.734,2.162 C 39.656,1.902 39.298,1.805 39.089,1.963 38.313,2.547 37.451,3.091 36.752,3.77 c -0.57,0.553 -0.884,1.288 -0.625,2.072 0.172,0.521 0.971,0.223 0.798,-0.298 -0.236,-0.716 0.48,-1.244 0.976,-1.62 0.396,-0.301 0.794,-0.599 1.191,-0.897 0.266,1.037 0.426,2.358 -0.659,2.886 -0.489,0.238 -0.196,1.039 0.298,0.799 1.805,-0.879 1.479,-2.962 1.003,-4.55 m 0.352,-3.16 c -0.54,-0.093 -0.687,0.746 -0.146,0.84 0.541,0.094 0.687,-0.746 0.146,-0.84 m -2.59,1.137 c -0.038,0.22 0.118,0.464 0.347,0.493 0.229,0.029 0.452,-0.112 0.493,-0.347 0.006,-0.037 0.012,-0.075 0.019,-0.112 0.038,-0.22 -0.119,-0.464 -0.347,-0.493 -0.229,-0.029 -0.452,0.112 -0.493,0.347 -0.006,0.038 -0.013,0.075 -0.019,0.112 m 4.889,-6.722 c 0.283,-0.302 -0.029,-0.691 -0.367,-0.699 -1.167,-0.03 -2.267,0.271 -3.28,0.843 -0.478,0.27 0.017,0.965 0.491,0.697 0.6,-0.339 1.241,-0.538 1.905,-0.629 -0.461,0.678 -0.796,1.411 -1.179,2.171 -0.246,0.488 -0.56,0.979 -1.049,1.254 -0.477,0.269 -1.192,0.245 -1.441,-0.324 -0.218,-0.5 -1.019,-0.206 -0.798,0.299 0.564,1.292 2.16,1.28 3.114,0.437 0.558,-0.493 0.888,-1.16 1.192,-1.827 0.373,-0.822 0.792,-1.559 1.412,-2.222 m -3.707,-3.597 c 0.541,0.094 0.687,-0.746 0.146,-0.84 -0.54,-0.093 -0.687,0.746 -0.146,0.84 m -0.19,6.426 c 0.54,0.093 0.686,-0.746 0.145,-0.84 -0.54,-0.094 -0.687,0.746 -0.145,0.84 m 2.88,-11.691 c 0.259,-0.365 -0.178,-0.961 -0.571,-0.623 -0.03,0.026 -0.047,0.055 -0.074,0.081 -0.002,-0.002 -0.004,-0.005 -0.007,-0.007 -0.541,0.763 -1.599,0.9 -2.312,1.465 -0.75,0.595 -1.237,1.419 -1.449,2.347 -0.122,0.535 0.718,0.679 0.84,0.145 0.221,-0.97 0.839,-1.74 1.724,-2.187 0.218,-0.11 0.438,-0.212 0.654,-0.317 0.036,0.574 0.256,1.176 0.429,1.751 0.401,1.33 -0.02,2.817 -1.064,3.736 -0.408,0.359 0.079,1.059 0.491,0.697 0.913,-0.804 1.491,-1.904 1.569,-3.127 0.039,-0.621 -0.065,-1.207 -0.26,-1.794 -0.187,-0.563 -0.586,-1.417 -0.161,-1.961 0.064,-0.069 0.135,-0.126 0.191,-0.206 M 31.485,2.212 c -0.029,0.229 0.112,0.452 0.347,0.493 0.038,0.006 0.075,0.012 0.112,0.019 0.22,0.038 0.464,-0.119 0.493,-0.347 C 32.466,2.148 32.325,1.925 32.09,1.884 32.052,1.878 32.015,1.871 31.978,1.865 31.758,1.827 31.514,1.983 31.485,2.212 M 30.09,3.441 c 0.54,0.093 0.687,-0.746 0.146,-0.84 -0.541,-0.094 -0.687,0.746 -0.146,0.84 M 28.421,4.42 c 0.54,0.094 0.687,-0.746 0.146,-0.84 -0.541,-0.093 -0.687,0.746 -0.146,0.84 m -6.673,8.212 c -0.194,-0.513 -0.993,-0.217 -0.798,0.298 0.809,2.138 3.636,2.582 5.026,0.742 0.329,-0.438 -0.321,-0.988 -0.652,-0.55 -0.997,1.321 -2.982,1.077 -3.576,-0.49 m 11.357,-25.914 c -0.541,-0.09 -0.688,0.75 -0.146,0.84 2.891,0.482 4.108,3.686 3.4,6.272 -0.813,2.967 -3.426,4.92 -6.037,6.26 -2.274,1.166 -4.886,2.022 -6.605,4.015 -0.805,0.933 -1.388,2.13 -1.32,3.387 0.062,1.133 0.748,2.104 1.824,2.48 1.132,0.395 2.452,0.077 3.144,-0.938 0.686,-1.007 0.653,-2.417 -0.116,-3.367 -0.344,-0.425 -1.043,0.063 -0.697,0.491 0.681,0.841 0.601,2.256 -0.369,2.865 -0.975,0.612 -2.389,0.149 -2.799,-0.922 -0.461,-1.203 0.206,-2.545 0.985,-3.447 0.807,-0.935 1.879,-1.608 2.965,-2.175 2.28,-1.189 4.697,-2.09 6.689,-3.769 1.947,-1.641 3.427,-3.966 3.412,-6.583 -0.016,-2.517 -1.778,-4.984 -4.33,-5.409 m -1.528,-1.675 c -0.029,0.229 0.112,0.452 0.347,0.493 0.037,0.006 0.075,0.013 0.112,0.019 0.22,0.038 0.464,-0.118 0.493,-0.347 0.029,-0.229 -0.112,-0.452 -0.347,-0.493 -0.038,-0.006 -0.075,-0.013 -0.112,-0.019 -0.22,-0.038 -0.464,0.119 -0.493,0.347 m -2.244,0.303 c -0.038,0.22 0.119,0.464 0.347,0.493 0.23,0.029 0.452,-0.112 0.493,-0.347 0.006,-0.038 0.013,-0.075 0.019,-0.112 0.038,-0.22 -0.118,-0.464 -0.347,-0.493 -0.229,-0.029 -0.452,0.112 -0.492,0.347 -0.007,0.038 -0.013,0.075 -0.02,0.112 m 5.884,0.197 c -0.302,-1.054 -0.763,-2.246 -1.924,-2.577 -0.668,-0.19 -1.344,-0.021 -2.02,0.01 -0.814,0.037 -1.592,-0.216 -2.245,-0.699 -0.181,-0.135 -0.449,-0.138 -0.6,0.051 -0.936,1.166 -1.828,2.483 -1.365,4.039 0.156,0.526 0.955,0.226 0.799,-0.298 -0.326,-1.094 0.34,-2.08 0.997,-2.915 0.947,0.569 1.961,0.733 3.09,0.616 0.692,-0.072 1.344,-0.086 1.806,0.51 0.348,0.449 0.509,1.024 0.664,1.562 0.151,0.527 0.949,0.227 0.798,-0.299 m -12.336,-2.717 c -0.86,-0.145 -1.786,0.049 -2.5,0.553 -0.8,0.565 -1.246,1.467 -1.64,2.335 -0.226,0.5 0.545,0.863 0.772,0.363 0.619,-1.364 1.513,-2.688 3.222,-2.411 1.53,0.247 2.464,1.699 2.462,3.171 0,0.547 0.848,0.462 0.849,-0.083 0.002,-1.853 -1.29,-3.613 -3.165,-3.928 m -0.334,2.845 c -0.54,-0.094 -0.687,0.746 -0.146,0.839 0.541,0.094 0.687,-0.746 0.146,-0.839 m -0.169,2.797 c -0.12,-0.271 -0.525,-0.401 -0.725,-0.125 -0.539,0.74 -1.154,1.4 -1.866,1.978 -0.424,0.344 0.065,1.043 0.491,0.697 0.597,-0.484 1.121,-1.034 1.605,-1.622 0.309,0.638 0.639,1.264 1.013,1.867 0.289,0.467 0.985,-0.026 0.696,-0.491 -0.459,-0.741 -0.863,-1.506 -1.214,-2.304 m 3.128,0.519 c 0.254,-0.488 -0.518,-0.849 -0.771,-0.364 -0.832,1.599 -0.779,3.504 0.075,5.068 -1.227,0.773 -2.317,1.731 -3.228,2.863 -0.344,0.427 0.307,0.977 0.652,0.549 0.95,-1.179 2.083,-2.155 3.387,-2.924 0.203,-0.12 0.221,-0.414 0.103,-0.594 -0.908,-1.381 -0.979,-3.137 -0.218,-4.598 m -4.642,6.176 c 0.54,0.094 0.686,-0.746 0.145,-0.84 -0.54,-0.093 -0.687,0.746 -0.145,0.84 m 2.426,-1.588 c 0.48,0.267 0.841,-0.506 0.363,-0.771 -1.438,-0.798 -3.099,-1.071 -4.717,-0.772 -0.534,0.099 -0.458,0.949 0.083,0.849 1.485,-0.275 2.95,-0.038 4.271,0.694 m -4.829,-5.809 c 0.225,1.632 -0.432,3.261 -1.752,4.257 -0.173,0.13 -0.254,0.412 -0.103,0.593 0.969,1.164 1.708,2.464 2.205,3.894 0.181,0.518 0.98,0.221 0.799,-0.298 -0.478,-1.372 -1.182,-2.641 -2.076,-3.782 1.33,-1.185 2.021,-2.961 1.775,-4.747 -0.075,-0.541 -0.924,-0.463 -0.848,0.083 m -3.262,-4.869 c -0.038,0.22 0.119,0.464 0.347,0.493 0.23,0.029 0.452,-0.112 0.493,-0.348 0.006,-0.037 0.013,-0.074 0.019,-0.111 0.038,-0.22 -0.118,-0.464 -0.347,-0.493 -0.229,-0.029 -0.452,0.112 -0.492,0.347 -0.007,0.037 -0.013,0.075 -0.02,0.112 m -2.123,-1.06 c -0.029,0.229 0.112,0.452 0.347,0.493 0.038,0.006 0.075,0.013 0.112,0.019 0.22,0.038 0.464,-0.118 0.493,-0.347 0.029,-0.229 -0.112,-0.452 -0.347,-0.493 -0.038,-0.006 -0.075,-0.013 -0.112,-0.019 -0.22,-0.038 -0.464,0.119 -0.493,0.347 m 4.831,-1.332 c -0.078,-0.228 -0.332,-0.316 -0.548,-0.251 -0.74,0.225 -1.532,0.221 -2.259,-0.058 -0.662,-0.255 -1.261,-0.679 -1.989,-0.727 -1.206,-0.079 -2.04,0.888 -2.679,1.779 -0.319,0.444 0.331,0.996 0.651,0.55 0.313,-0.435 0.641,-0.898 1.087,-1.206 0.651,-0.449 1.275,-0.231 1.936,0.086 1.024,0.49 2.034,0.677 3.117,0.46 0.338,1.007 0.634,2.159 -0.041,3.08 -0.323,0.441 0.327,0.993 0.651,0.55 0.96,-1.311 0.563,-2.851 0.074,-4.263 m -12.174,3.606 c 0.541,0.094 0.687,-0.746 0.146,-0.84 -0.541,-0.093 -0.687,0.746 -0.146,0.84 m 4.747,17.2 c 0.54,0.094 0.687,-0.746 0.146,-0.84 -0.541,-0.093 -0.687,0.746 -0.146,0.84 m -0.81,9.535 c 0.689,2.201 3.501,2.734 4.983,0.993 0.356,-0.419 -0.297,-0.968 -0.652,-0.55 -1.086,1.276 -3.038,0.839 -3.532,-0.741 C 10.305,10.024 9.506,10.323 9.67,10.846 M 9.238,-0.173 c 0.54,0.094 0.687,-0.746 0.145,-0.84 -0.54,-0.093 -0.686,0.746 -0.145,0.84 M 7.386,-1.964 c -0.029,0.229 0.112,0.452 0.347,0.492 0.037,0.007 0.075,0.013 0.112,0.02 0.22,0.038 0.463,-0.119 0.493,-0.347 C 8.367,-2.029 8.226,-2.251 7.99,-2.292 7.953,-2.298 7.916,-2.305 7.878,-2.311 7.659,-2.349 7.415,-2.193 7.386,-1.964 m 4.043,1.058 c 1.614,1.628 3.756,4.003 3.009,6.514 C 14.043,6.935 12.547,7.572 11.377,6.722 10.278,5.924 10.58,4.231 11.656,3.576 12.125,3.291 11.632,2.595 11.165,2.88 9.163,4.098 9.524,7.224 11.806,7.85 12.885,8.146 14.06,7.8 14.738,6.894 15.468,5.921 15.55,4.606 15.28,3.457 14.683,0.92 12.635,-0.891 10.87,-2.661 8.803,-4.735 6.823,-7.206 6.577,-10.238 c -0.128,-1.58 0.258,-3.217 1.348,-4.406 1,-1.091 2.477,-1.717 3.955,-1.451 0.54,0.097 0.686,-0.742 0.146,-0.84 -2.21,-0.397 -4.39,0.857 -5.489,2.753 -1.283,2.214 -0.972,5.061 0.091,7.291 1.125,2.361 2.987,4.155 4.801,5.985 M 7.455,-19.892 c -0.482,-0.773 -1.432,-1.256 -1.685,-2.158 -0.002,0.002 -0.005,0.003 -0.008,0.005 -0.017,-0.034 -0.023,-0.067 -0.043,-0.101 -0.254,-0.447 -0.869,-0.041 -0.747,0.394 0.026,0.095 0.074,0.173 0.111,0.258 0.216,0.655 -0.445,1.327 -0.812,1.793 -0.382,0.485 -0.677,1.005 -0.848,1.601 -0.339,1.178 -0.164,2.409 0.426,3.473 0.265,0.48 0.96,-0.015 0.696,-0.491 -0.676,-1.22 -0.566,-2.754 0.255,-3.876 0.355,-0.485 0.765,-0.977 0.992,-1.505 0.169,0.172 0.342,0.342 0.51,0.519 0.682,0.718 1.006,1.653 0.888,2.64 -0.065,0.542 0.775,0.691 0.84,0.145 0.113,-0.945 -0.069,-1.884 -0.575,-2.697 m -3.559,9.279 c -0.54,-0.094 -0.686,0.746 -0.145,0.839 0.54,0.094 0.687,-0.746 0.145,-0.839 m -1.361,4.694 c -0.038,0.22 0.119,0.464 0.347,0.493 0.229,0.029 0.452,-0.112 0.493,-0.347 0.006,-0.038 0.013,-0.075 0.019,-0.112 0.038,-0.22 -0.118,-0.464 -0.347,-0.493 -0.229,-0.029 -0.452,0.112 -0.492,0.347 -0.007,0.038 -0.013,0.075 -0.02,0.112 m -0.922,-8.365 c -0.32,-0.106 -0.744,0.157 -0.581,0.535 0.347,0.8 0.502,1.606 0.575,2.471 0.065,0.763 0.139,1.536 0.515,2.219 0.615,1.114 2.113,1.663 3.08,0.635 0.377,-0.4 -0.277,-0.948 -0.651,-0.549 -0.391,0.414 -1.032,0.264 -1.399,-0.1 -0.42,-0.418 -0.562,-1.049 -0.633,-1.615 -0.105,-0.844 -0.173,-1.646 -0.38,-2.441 0.595,0.31 1.132,0.713 1.583,1.234 0.356,0.411 1.056,-0.076 0.696,-0.491 -0.761,-0.88 -1.696,-1.533 -2.805,-1.898 m -0.44,7.408 c 0.54,0.094 0.686,-0.746 0.145,-0.84 -0.54,-0.093 -0.687,0.746 -0.145,0.84 m 7.691,26.684 c 0.997,-1.321 2.982,-1.077 3.576,0.491 0.194,0.512 0.993,0.216 0.798,-0.299 -0.809,-2.138 -3.636,-2.582 -5.026,-0.741 -0.329,0.437 0.321,0.988 0.652,0.549 m 15.654,2.276 c -0.689,-2.2 -3.501,-2.733 -4.983,-0.992 -0.356,0.418 0.296,0.967 0.652,0.549 1.086,-1.275 3.038,-0.838 3.532,0.742 0.164,0.523 0.962,0.225 0.799,-0.299 m -21.785,-50.341 42.932,7.439 c 0.926,0.161 1.549,1.045 1.388,1.971 l -7.696,44.417 -5.157,0 c -1.715,-1.739 -4.344,-2.391 -6.366,-0.758 -0.276,0.223 -0.523,0.482 -0.754,0.758 l -3.746,0 c -0.267,-0.215 -0.582,-0.388 -0.953,-0.489 -0.864,-0.237 -1.785,-0.056 -2.468,0.489 l -2.783,0 c -0.088,-1.585 0.117,-3.245 0.993,-4.579 1.25,-1.904 3.779,-2.633 5.832,-1.619 1.017,0.502 1.891,1.403 2.247,2.493 0.355,1.085 0.007,2.562 -1.31,2.722 -0.543,0.066 -0.464,0.915 0.083,0.849 1.92,-0.233 2.581,-2.325 1.994,-3.958 -0.626,-1.739 -2.297,-3.042 -4.102,-3.352 -1.819,-0.312 -3.735,0.372 -4.959,1.748 -1.234,1.387 -1.641,3.286 -1.647,5.096 -10e-4,0.199 0.021,0.4 0.029,0.6 l -1.598,0 c 0.674,-1.53 1.098,-3.248 0.831,-4.909 -0.292,-1.822 -1.447,-3.399 -3.134,-4.173 -1.873,-0.859 -4.192,-0.524 -5.746,0.831 -0.777,0.677 -1.368,1.628 -1.362,2.685 0.006,0.952 0.521,1.83 1.373,2.257 0.492,0.246 0.854,-0.526 0.364,-0.771 -0.999,-0.5 -1.065,-1.749 -0.568,-2.634 0.509,-0.906 1.467,-1.52 2.445,-1.809 1.947,-0.576 4.061,0.258 5.139,1.967 1.049,1.663 0.805,3.785 0.15,5.545 -0.127,0.345 -0.285,0.677 -0.441,1.011 l -1.953,0 C 11.789,25.526 11.793,25.482 11.791,25.438 11.729,24.306 11.043,23.334 9.967,22.958 8.835,22.563 7.515,22.881 6.823,23.896 6.486,24.391 6.325,24.983 6.337,25.57 l -1.646,0 C 5.133,24.254 5.104,22.769 4.556,21.465 4.128,20.446 3.392,19.538 2.384,19.051 1.219,18.488 -0.149,18.567 -1.348,18.97 c -2.193,0.737 -4.342,3.066 -3.319,5.524 0.168,0.404 0.429,0.772 0.75,1.076 l -4.407,0 9.087,-52.439 c 0.16,-0.926 1.044,-1.549 1.97,-1.388" /></g><g
           transform="translate(68.114,66.2621)"
           id="g24"><path
             id="path26"
             style="fill:#852637;fill-opacity:1;fill-rule:nonzero;stroke:none"
             d="M 0,0 0,0 9.497,-54.803 0,0 Z" /></g><g
           transform="translate(19.9665,62.9725)"
           id="g28"><path
             id="path30"
             style="fill:#852637;fill-opacity:1;fill-rule:nonzero;stroke:none"
             d="M 0,0 C 0.54,0.094 0.687,-0.746 0.146,-0.84 -0.395,-0.933 -0.541,-0.094 0,0 m -1.739,-1.282 c -0.54,-0.093 -0.686,0.746 -0.145,0.84 0.54,0.094 0.687,-0.746 0.145,-0.84 m -1.572,0.42 c -0.54,-0.094 -0.686,0.746 -0.145,0.84 0.54,0.093 0.687,-0.746 0.145,-0.84 m 1.475,2.527 C -1.888,2.767 -3.001,3.502 -4.043,3.127 -5.165,2.722 -5.644,1.484 -5.412,0.375 -4.935,-1.909 -1.866,-3.342 0.264,-2.597 2.383,-1.856 3.078,0.831 2.553,2.811 2.508,2.981 2.432,3.132 2.368,3.29 l -4.022,0 C -1.275,2.89 -1.023,2.374 -0.996,1.811 -0.971,1.27 -1.81,1.118 -1.836,1.665" /></g><g
           transform="translate(26.5455,64.6003)"
           id="g32"><path
             id="path34"
             style="fill:#852637;fill-opacity:1;fill-rule:nonzero;stroke:none"
             d="m 0,0 c 0.975,-0.612 2.389,-0.149 2.799,0.921 0.093,0.243 0.13,0.492 0.14,0.741 l -3.746,0 C -0.836,1.016 -0.58,0.364 0,0" /></g><g
           transform="translate(51.5096,66.2621)"
           id="g36"><path
             id="path38"
             style="fill:#852637;fill-opacity:1;fill-rule:nonzero;stroke:none"
             d="m 0,0 -4.733,0 c 0.408,-0.349 0.878,-0.618 1.401,-0.769 C -2.213,-1.092 -0.986,-0.724 0,0" /></g><g
           transform="translate(12.0857,35.9724)"
           id="g40"><path
             id="path42"
             style="fill:#852637;fill-opacity:1;fill-rule:nonzero;stroke:none"
             d="M 0,0 C 0.229,0.029 0.452,-0.112 0.493,-0.347 0.495,-0.36 0.497,-0.372 0.499,-0.385 0.537,-0.604 0.381,-0.848 0.152,-0.877 -0.077,-0.906 -0.3,-0.765 -0.341,-0.53 -0.343,-0.518 -0.345,-0.505 -0.347,-0.493 -0.385,-0.273 -0.229,-0.029 0,0 m -0.234,-1.387 c 0.114,0.037 0.235,0.016 0.339,-0.074 0.438,0.014 1.059,0.353 0.987,0.775 -0.085,0.505 -0.434,1.199 -0.887,1.463 -0.607,0.355 -1.278,-0.113 -1.245,-0.791 0.026,-0.535 0.337,-1.101 0.806,-1.373" /></g><g
           transform="translate(12.7433,22.1323)"
           id="g44"><path
             id="path46"
             style="fill:#852637;fill-opacity:1;fill-rule:nonzero;stroke:none"
             d="M 0,0 C -0.708,1.6 -0.094,3.702 0.699,5.157 1.1,5.892 1.928,6.721 1.393,7.601 1.139,8.018 0.646,8.229 0.169,8.147 -0.2,8.084 -1.018,7.394 -0.295,7.223 0.237,7.097 -0.065,6.299 -0.593,6.424 -1.197,6.567 -1.524,7.205 -1.389,7.791 -1.238,8.444 -0.61,8.879 0.023,8.987 1.564,9.249 2.796,7.737 2.303,6.278 2.036,5.49 1.437,4.839 1.116,4.068 0.755,3.202 0.516,2.223 0.572,1.279 0.62,0.471 1.221,-0.892 2.289,-0.497 3.32,-0.116 2.83,1.335 1.796,1.184 1.254,1.105 1.106,1.944 1.65,2.024 3.095,2.235 4.263,0.718 3.449,-0.584 3.197,-0.989 2.858,-1.211 2.493,-1.313 2.486,-1.352 2.481,-1.391 2.459,-1.434 2.173,-1.985 2.177,-2.62 2.534,-3.142 2.891,-3.665 3.593,-3.764 3.884,-4.354 4.19,-4.979 4.064,-5.714 3.695,-6.285 3.7,-6.306 3.712,-6.321 3.715,-6.344 3.863,-7.491 4.14,-8.617 3.516,-9.668 3.229,-10.15 2.78,-10.6 2.708,-11.179 c -0.051,-0.413 0.223,-0.79 0.674,-0.711 0.344,0.06 0.533,0.382 0.626,0.687 0.161,0.524 0.959,0.225 0.799,-0.298 -0.211,-0.688 -0.795,-1.262 -1.552,-1.249 -0.699,0.012 -1.289,0.498 -1.393,1.197 -0.118,0.79 0.354,1.46 0.767,2.081 0.263,0.395 0.454,0.775 0.449,1.261 -0.005,0.405 -0.067,0.814 -0.129,1.22 C 2.775,-7.086 2.592,-7.163 2.394,-7.194 1.852,-7.279 1.705,-6.439 2.248,-6.355 2.934,-6.247 3.532,-5.188 3.005,-4.61 2.658,-4.229 2.161,-4.095 1.848,-3.648 1.375,-2.975 1.284,-2.087 1.593,-1.329 0.923,-1.166 0.294,-0.664 0,0 m -1.577,10.3 c 0.652,0.975 1.843,0.773 2.802,0.467 C 1.748,10.6 1.449,9.802 0.927,9.969 0.355,10.151 -0.47,10.422 -0.88,9.809 -1.185,9.352 -1.882,9.844 -1.577,10.3 m -0.934,3.999 c 0.229,1.054 1.412,1.586 2.365,1.117 0.467,-0.23 0.8,-0.645 1.034,-1.099 0.23,-0.445 0.583,-1.143 0.372,-1.651 -0.24,-0.578 -1.498,-1.473 -2.174,-1.087 -0.068,-0.009 -0.141,-0.005 -0.223,0.037 -0.937,0.481 -1.606,1.609 -1.374,2.683 m -0.449,5.063 c 0.54,0.093 0.687,-0.746 0.146,-0.84 -0.541,-0.094 -0.687,0.746 -0.146,0.84 m 0.017,-1.397 c 0.314,0.45 1.011,-0.041 0.696,-0.491 -0.29,-0.417 0.667,-0.628 0.859,-0.621 0.35,0.014 0.621,0.192 0.752,0.522 0.217,0.547 -0.045,1.156 -0.402,1.573 -0.831,0.972 -2.129,1.408 -2.81,2.537 -0.598,0.992 -0.433,2.244 0.208,3.174 0.35,0.507 0.844,0.886 1.228,1.363 0.188,0.233 0.35,0.493 0.404,0.791 0.048,0.262 -0.01,1.104 -0.525,0.812 -0.478,-0.271 -0.838,0.502 -0.363,0.771 0.532,0.302 1.157,0.076 1.494,-0.41 0.333,-0.481 0.327,-1.126 0.141,-1.663 -0.481,-1.388 -2.303,-2.018 -2.102,-3.693 0.193,-1.611 2.282,-2.15 3.142,-3.343 0.656,-0.911 0.771,-2.401 -0.313,-3.052 -1.06,-0.636 -3.381,0.336 -2.409,1.73 m -1.373,9.61 c -0.038,0.219 0.119,0.463 0.347,0.493 0.229,0.029 0.452,-0.112 0.493,-0.348 0.002,-0.012 0.004,-0.025 0.006,-0.037 0.038,-0.22 -0.118,-0.463 -0.347,-0.493 -0.229,-0.029 -0.452,0.112 -0.492,0.347 -0.003,0.013 -0.005,0.025 -0.007,0.038 m -0.448,3.374 c 0.249,-0.189 0.498,-0.379 0.748,-0.568 0.149,-0.114 0.317,-0.276 0.487,-0.403 0.121,0.176 0.226,0.391 0.319,0.545 0.16,0.266 0.312,0.537 0.458,0.811 0.259,0.484 0.953,-0.012 0.697,-0.491 -0.292,-0.545 -0.621,-1.345 -1.113,-1.735 -0.115,-0.092 -0.283,-0.135 -0.423,-0.074 -0.593,0.258 -1.15,0.828 -1.664,1.218 -0.436,0.332 0.053,1.03 0.491,0.697 m -0.414,2.39 c 0.249,-0.19 0.498,-0.379 0.747,-0.568 0.15,-0.114 0.317,-0.276 0.488,-0.403 0.121,0.176 0.225,0.39 0.318,0.544 0.161,0.266 0.313,0.538 0.459,0.812 0.259,0.483 0.953,-0.013 0.697,-0.491 -0.292,-0.545 -0.621,-1.345 -1.113,-1.736 -0.115,-0.091 -0.283,-0.134 -0.423,-0.073 -0.593,0.257 -1.15,0.827 -1.664,1.218 -0.436,0.331 0.053,1.029 0.491,0.697 M -1.427,21.24 c -1.05,0.549 -1.262,1.769 -0.626,2.733 0.302,0.459 0.998,-0.033 0.697,-0.491 -0.302,-0.458 -0.327,-1.153 0.227,-1.443 0.48,-0.25 0.188,-1.053 -0.298,-0.799 M 2.497,2.855 C 1.957,2.761 1.81,3.601 2.352,3.695 2.892,3.788 3.038,2.949 2.497,2.855 m 3.629,-14.813 c 0.53,-0.136 0.229,-0.934 -0.298,-0.798 -0.403,0.104 -0.699,-0.291 -0.617,-0.664 0.088,-0.397 0.503,-0.566 0.868,-0.578 0.638,-0.021 1.234,0.402 1.753,0.722 0.891,0.549 1.886,1.367 2.983,1.156 0.386,0.673 1.136,1.158 1.931,1.076 0.629,-0.064 0.939,-0.654 1.508,-0.839 0.63,-0.207 1.28,0.006 1.721,0.48 0.031,0.033 0.064,0.049 0.096,0.069 -0.025,0.357 0.064,0.73 0.326,1.089 0.925,1.269 2.811,0.715 3.106,-0.755 0.109,-0.539 -0.731,-0.684 -0.839,-0.146 -0.194,0.966 -1.616,1.037 -1.749,-0.005 -0.144,-1.121 1.348,-1.342 2.108,-1.157 0.928,0.227 1.808,0.801 2.514,1.427 0.651,0.577 1.076,1.39 1.753,1.926 0.949,0.75 2.275,0.503 2.937,-0.389 0.058,0.023 0.123,0.035 0.2,0.026 1.496,-0.17 2.965,0.455 3.865,1.666 0.007,0.01 0.017,0.013 0.025,0.022 0.133,0.243 0.472,0.37 0.681,0.086 0.413,-0.563 1.097,-0.653 1.744,-0.744 0.678,-0.097 1.28,-0.033 1.899,0.267 0.258,1.137 1.475,1.901 2.673,1.496 0.788,-0.266 1.439,-0.866 2.21,-1.187 0.866,-0.36 1.845,-0.599 2.789,-0.543 0.808,0.048 2.171,0.649 1.776,1.716 -0.381,1.032 -1.832,0.541 -1.681,-0.492 0.079,-0.542 -0.76,-0.69 -0.84,-0.146 -0.211,1.444 1.306,2.613 2.608,1.799 0.405,-0.253 0.627,-0.591 0.729,-0.956 0.039,-0.007 0.078,-0.012 0.121,-0.035 0.551,-0.285 1.186,-0.281 1.708,0.075 0.523,0.357 0.622,1.06 1.212,1.35 0.719,0.353 1.589,0.142 2.18,-0.364 0.961,0.568 2.175,0.133 3.198,-0.084 0.599,-0.127 1.298,-0.323 1.895,-0.091 0.338,0.131 0.676,0.434 0.622,0.836 -0.05,0.376 -0.457,0.653 -0.804,0.418 -0.45,-0.305 -1.003,0.344 -0.549,0.652 1.526,1.034 2.987,-1.11 1.685,-2.304 -0.67,-0.614 -1.604,-0.615 -2.446,-0.46 -0.57,0.105 -1.134,0.245 -1.703,0.36 -0.443,0.089 -0.953,0.194 -1.372,-0.011 0.064,-0.14 0.11,-0.288 0.134,-0.442 0.085,-0.541 -0.755,-0.688 -0.839,-0.145 -0.108,0.686 -1.167,1.283 -1.745,0.757 -0.381,-0.347 -0.515,-0.844 -0.962,-1.158 -0.673,-0.473 -1.561,-0.563 -2.319,-0.254 -0.163,-0.67 -0.665,-1.3 -1.329,-1.593 -1.6,-0.708 -3.702,-0.095 -5.157,0.699 -0.735,0.4 -1.565,1.229 -2.444,0.693 -0.417,-0.253 -0.628,-0.747 -0.546,-1.223 0.063,-0.37 0.753,-1.188 0.924,-0.464 0.126,0.532 0.924,0.23 0.799,-0.298 -0.143,-0.604 -0.781,-0.931 -1.367,-0.796 -0.608,0.14 -1.015,0.696 -1.157,1.283 -0.695,-0.255 -1.4,-0.294 -2.152,-0.178 -0.643,0.099 -1.28,0.249 -1.776,0.648 -1.034,-1.175 -2.551,-1.814 -4.12,-1.715 0.114,-0.622 -0.056,-1.335 -0.592,-1.714 -0.508,-0.359 -1.253,-0.278 -1.602,0.26 -0.295,0.455 0.354,1.008 0.652,0.549 0.403,-0.622 0.782,0.377 0.714,0.748 -0.086,0.477 -0.445,0.869 -0.926,0.968 -0.981,0.203 -1.466,-0.787 -2.004,-1.404 -1.107,-1.269 -2.91,-2.595 -4.685,-2.465 -0.721,0.053 -1.409,0.475 -1.79,1.052 -0.609,-0.545 -1.475,-0.758 -2.267,-0.539 -0.484,0.133 -0.752,0.44 -1.157,0.701 -0.733,0.473 -1.667,-0.499 -1.527,-1.235 0.103,-0.539 -0.737,-0.684 -0.839,-0.145 -0.03,0.153 -0.036,0.308 -0.023,0.461 -0.464,0.051 -0.908,-0.219 -1.295,-0.452 -0.497,-0.299 -0.981,-0.621 -1.483,-0.912 -0.741,-0.429 -1.621,-0.742 -2.458,-0.389 -1.628,0.686 -0.974,3.197 0.812,2.736 m 14.222,2.527 c 0.541,0.094 0.687,-0.746 0.146,-0.84 -0.541,-0.094 -0.687,0.746 -0.146,0.84 m 19.896,3.448 c 0.541,0.093 0.687,-0.746 0.146,-0.84 -0.54,-0.094 -0.687,0.746 -0.146,0.84 M 53.059,8.571 c -0.269,0.637 -0.134,1.427 0.37,1.908 0.36,0.345 0.844,0.44 1.261,0.687 0.234,0.139 0.44,0.326 0.328,0.607 -0.069,0.173 -0.511,0.501 -0.68,0.296 -0.348,-0.421 -1.047,0.067 -0.697,0.491 0.952,1.152 2.926,-0.377 2.07,-1.611 -0.185,-0.266 -0.457,-0.453 -0.74,-0.599 -0.392,-0.204 -0.936,-0.292 -1.129,-0.742 -0.145,-0.336 -0.067,-0.776 0.23,-1.005 0.521,-0.401 1.203,0.021 1.053,0.658 -0.126,0.534 0.714,0.678 0.84,0.146 C 56.141,8.658 55.793,8.111 55.277,7.836 55.746,7.234 55.925,6.43 55.721,5.687 55.588,5.204 55.28,4.935 55.019,4.53 54.547,3.797 55.518,2.864 56.254,3.004 56.793,3.107 56.939,2.267 56.4,2.164 56.203,2.127 56.006,2.137 55.812,2.167 c 0.072,-0.36 0.147,-0.721 0.252,-1.071 0.155,-0.517 0.454,-0.839 0.881,-1.156 0.597,-0.444 1.267,-0.919 1.422,-1.701 0.137,-0.692 -0.256,-1.351 -0.909,-1.596 -0.708,-0.266 -1.451,0.076 -1.882,0.653 -0.327,0.439 0.324,0.99 0.652,0.55 0.191,-0.256 0.475,-0.496 0.821,-0.436 0.389,0.066 0.568,0.435 0.437,0.789 -0.217,0.588 -0.856,0.882 -1.311,1.258 -0.942,0.78 -1.059,1.932 -1.306,3.063 -0.005,0.023 10e-4,0.041 0,0.062 -0.536,0.415 -0.899,1.064 -0.828,1.755 0.064,0.63 0.654,0.94 0.84,1.508 0.206,0.631 -0.007,1.281 -0.481,1.721 -0.027,0.025 -0.037,0.052 -0.055,0.078 -0.526,0.043 -1.036,0.332 -1.286,0.927 m -0.283,3.861 c 0.54,0.094 0.686,-0.745 0.145,-0.839 -0.54,-0.094 -0.687,0.746 -0.145,0.839 m -0.157,4.021 c 0.54,0.094 0.686,-0.746 0.145,-0.84 -0.54,-0.093 -0.687,0.746 -0.145,0.84 m 1.267,3.334 c -0.54,-0.094 -0.687,0.746 -0.145,0.839 0.54,0.094 0.686,-0.746 0.145,-0.839 m -2.383,-1.083 c 0.211,0.981 0.423,1.962 0.634,2.943 -0.252,0.091 -0.488,0.237 -0.676,0.434 -0.877,0.917 -0.917,2.307 -0.317,3.37 0.31,0.551 0.799,1.074 0.907,1.716 0.112,0.66 -0.293,1.269 -0.878,1.537 -0.267,-0.253 -0.542,-0.498 -0.837,-0.723 -0.436,-0.332 -0.987,0.319 -0.55,0.652 0.49,0.372 0.927,0.793 1.337,1.245 -0.725,0.404 -1.377,0.907 -1.947,1.526 -0.299,0.324 0.088,0.808 0.475,0.674 0.584,-0.203 0.755,0.807 0.875,1.174 0.069,0.21 0.155,0.41 0.267,0.592 -0.807,0.303 -1.529,0.766 -2.158,1.377 -0.394,0.383 0.262,0.929 0.652,0.55 0.68,-0.662 1.499,-1.095 2.415,-1.331 0.297,-0.076 0.377,-0.552 0.125,-0.725 -0.628,-0.431 -0.547,-1.341 -0.974,-1.929 -0.116,-0.159 -0.263,-0.277 -0.421,-0.374 0.465,-0.398 0.962,-0.754 1.526,-1.015 0.231,-0.108 0.385,-0.417 0.199,-0.645 -0.116,-0.143 -0.248,-0.269 -0.37,-0.405 0.514,-0.313 0.901,-0.799 1.059,-1.397 0.21,-0.797 -0.089,-1.523 -0.505,-2.194 -0.539,-0.867 -1.064,-1.656 -0.533,-2.694 0.207,-0.405 0.667,-0.87 1.172,-0.644 0.573,0.257 0.188,1.549 -0.164,1.343 -0.474,-0.277 -0.833,0.497 -0.363,0.772 1.193,0.698 1.922,-1.157 1.626,-2.07 -0.179,-0.549 -0.611,-0.832 -1.094,-0.901 -0.18,-0.835 -0.36,-1.67 -0.54,-2.504 1.49,-0.222 2.489,-1.748 2.631,-3.225 0.069,-0.721 -0.186,-1.526 -0.892,-1.846 -0.618,-0.281 -1.359,-0.011 -1.626,0.614 -0.216,0.504 0.555,0.868 0.771,0.363 0.232,-0.544 0.778,-0.066 0.876,0.296 0.128,0.468 -0.062,1.021 -0.238,1.449 -0.335,0.812 -1,1.615 -1.967,1.534 -0.244,-0.021 -0.561,0.166 -0.497,0.461 m -0.905,8.413 c 0.54,0.094 0.686,-0.746 0.145,-0.84 -0.54,-0.093 -0.687,0.746 -0.145,0.84 m -2.369,9.831 c 0.292,0.546 0.622,1.345 1.113,1.736 0.115,0.092 0.283,0.134 0.424,0.073 0.592,-0.257 1.149,-0.827 1.663,-1.218 0.436,-0.331 -0.053,-1.029 -0.491,-0.696 -0.249,0.189 -0.498,0.378 -0.747,0.568 -0.15,0.113 -0.317,0.276 -0.488,0.403 -0.121,-0.177 -0.225,-0.391 -0.318,-0.545 -0.161,-0.266 -0.312,-0.537 -0.459,-0.812 -0.258,-0.483 -0.953,0.013 -0.697,0.491 m -0.414,2.39 c 0.292,0.545 0.622,1.345 1.113,1.735 0.115,0.092 0.283,0.135 0.424,0.074 0.592,-0.257 1.149,-0.828 1.663,-1.218 0.436,-0.331 -0.053,-1.029 -0.491,-0.697 -0.249,0.19 -0.498,0.379 -0.747,0.568 -0.15,0.114 -0.317,0.276 -0.488,0.403 -0.121,-0.176 -0.225,-0.39 -0.318,-0.544 -0.161,-0.266 -0.312,-0.538 -0.459,-0.812 -0.259,-0.483 -0.953,0.013 -0.697,0.491 m 1.762,3.653 c 0.229,0.029 0.452,-0.112 0.493,-0.347 0.002,-0.013 0.004,-0.025 0.006,-0.038 0.038,-0.219 -0.119,-0.463 -0.347,-0.492 -0.229,-0.029 -0.452,0.112 -0.493,0.347 -0.002,0.012 -0.004,0.025 -0.006,0.037 -0.038,0.22 0.118,0.464 0.347,0.493 m 2.605,-10.94 c 0.183,-0.128 0.244,-0.411 0.103,-0.593 -0.141,-0.183 -0.399,-0.241 -0.594,-0.103 -0.022,0.015 -0.044,0.031 -0.066,0.046 -0.182,0.129 -0.243,0.411 -0.102,0.594 0.141,0.183 0.399,0.24 0.593,0.103 0.022,-0.016 0.044,-0.031 0.066,-0.047 M 56.575,4.152 C 57.115,4.246 57.261,3.406 56.72,3.313 56.18,3.219 56.033,4.059 56.575,4.152 M 49.466,-7.615 c -0.541,-0.093 -0.687,0.746 -0.146,0.84 0.54,0.094 0.687,-0.746 0.146,-0.84 m -15.937,-2.71 c -0.009,-0.002 -0.019,-0.004 -0.028,-0.005 -0.22,-0.038 -0.463,0.118 -0.493,0.347 -0.029,0.229 0.112,0.452 0.348,0.493 0.009,10e-4 0.018,0.003 0.027,0.004 0.22,0.038 0.464,-0.118 0.493,-0.347 0.029,-0.229 -0.112,-0.452 -0.347,-0.492 m -2.441,-0.222 c -0.541,-0.093 -0.687,0.746 -0.146,0.84 0.541,0.094 0.687,-0.746 0.146,-0.84 m -2.229,-0.616 c -0.54,-0.094 -0.687,0.746 -0.145,0.839 0.54,0.094 0.686,-0.746 0.145,-0.839 M 12.214,-14.07 c -0.541,-0.094 -0.687,0.746 -0.146,0.84 0.541,0.093 0.687,-0.746 0.146,-0.84 M 1.56,-5.381 c 0.54,0.094 0.687,-0.746 0.145,-0.84 -0.54,-0.093 -0.686,0.746 -0.145,0.84 M -6.422,38.13 c -0.182,0.128 -0.243,0.411 -0.103,0.594 0.141,0.183 0.399,0.24 0.594,0.103 0.022,-0.016 0.044,-0.031 0.066,-0.047 0.182,-0.128 0.243,-0.411 0.103,-0.594 -0.141,-0.182 -0.399,-0.24 -0.594,-0.102 -0.022,0.015 -0.044,0.03 -0.066,0.046 m 1.585,4.934 c -0.541,-0.094 -0.687,0.746 -0.146,0.84 0.54,0.094 0.687,-0.746 0.146,-0.84 m 66.236,-51.293 -9.073,52.359 -4.174,0 c -0.178,-0.226 -0.332,-0.475 -0.384,-0.762 -0.047,-0.262 0.01,-1.104 0.525,-0.812 0.478,0.271 0.838,-0.502 0.364,-0.771 -0.533,-0.302 -1.158,-0.076 -1.495,0.411 -0.332,0.48 -0.327,1.126 -0.141,1.662 0.034,0.096 0.087,0.182 0.132,0.272 l -0.961,0 7.667,-44.242 c 0.256,-1.482 -0.74,-2.896 -2.222,-3.153 l -42.931,-7.44 c -1.482,-0.256 -2.897,0.74 -3.153,2.222 l -9.118,52.613 -2.201,0 c -0.233,-0.35 -0.456,-0.708 -0.525,-1.115 -0.112,-0.66 0.293,-1.27 0.878,-1.537 0.268,0.252 0.542,0.497 0.837,0.722 0.436,0.332 0.987,-0.319 0.55,-0.652 -0.49,-0.372 -0.927,-0.793 -1.337,-1.245 0.725,-0.403 1.377,-0.907 1.947,-1.525 0.3,-0.325 -0.088,-0.809 -0.474,-0.674 -0.585,0.202 -0.756,-0.808 -0.876,-1.175 -0.068,-0.21 -0.155,-0.409 -0.267,-0.591 0.807,-0.304 1.53,-0.767 2.158,-1.378 0.394,-0.382 -0.262,-0.928 -0.652,-0.549 -0.68,0.661 -1.499,1.094 -2.414,1.33 -0.298,0.077 -0.378,0.552 -0.126,0.725 0.628,0.431 0.547,1.342 0.974,1.929 0.116,0.16 0.263,0.278 0.421,0.374 -0.465,0.399 -0.962,0.755 -1.526,1.016 -0.231,0.107 -0.385,0.417 -0.199,0.645 0.117,0.142 0.248,0.269 0.37,0.405 -0.514,0.312 -0.901,0.798 -1.059,1.396 -0.18,0.683 0.021,1.311 0.342,1.899 l -2.955,0 10.882,-62.794 60.216,10.435 z" /></g><g
           transform="translate(77.6106,11.4592)"
           id="g48"><path
             id="path50"
             style="fill:#ffffff;fill-opacity:1;fill-rule:nonzero;stroke:none"
             d="m 0,0 -9.497,54.803 -3.044,0 9.073,-52.359 -60.217,-10.435 -10.881,62.794 -3.045,0 11.483,-66.262 L 0,0 Z" /></g><g
           transform="translate(21.4488,11.4277)"
           id="g52"><path
             id="path54"
             style="fill:#ffffff;fill-opacity:1;fill-rule:nonzero;stroke:none"
             d="m 0,0 42.931,7.439 c 1.482,0.257 2.479,1.672 2.222,3.153 l -7.666,44.242 -1.039,0 7.697,-44.416 C 44.306,9.492 43.683,8.608 42.757,8.447 L -0.175,1.008 c -0.926,-0.161 -1.81,0.462 -1.97,1.388 l -9.087,52.438 -1.038,0 9.117,-52.612 C -2.896,0.74 -1.482,-0.257 0,0" /></g><g
           transform="translate(59.9057,64.3278)"
           id="g56"><path
             id="path58"
             style="fill:#ffffff;fill-opacity:1;fill-rule:nonzero;stroke:none"
             d="M 0,0 C 0.337,-0.486 0.962,-0.713 1.494,-0.411 1.969,-0.142 1.609,0.631 1.131,0.36 0.616,0.069 0.558,0.911 0.605,1.172 0.657,1.46 0.812,1.709 0.99,1.934 l -1,0 C -0.055,1.844 -0.108,1.759 -0.141,1.662 -0.327,1.126 -0.333,0.481 0,0" /></g><g
           transform="translate(62.4722,64.246)"
           id="g60"><path
             id="path62"
             style="fill:#ffffff;fill-opacity:1;fill-rule:nonzero;stroke:none"
             d="M 0,0 C 0.229,0.029 0.385,0.273 0.347,0.493 0.345,0.505 0.343,0.518 0.341,0.53 0.3,0.765 0.077,0.906 -0.152,0.877 -0.381,0.848 -0.537,0.604 -0.499,0.384 -0.497,0.372 -0.495,0.36 -0.493,0.347 -0.452,0.112 -0.229,-0.029 0,0" /></g><g
           transform="translate(61.2551,60.9792)"
           id="g64"><path
             id="path66"
             style="fill:#ffffff;fill-opacity:1;fill-rule:nonzero;stroke:none"
             d="M 0,0 C 0.147,0.274 0.298,0.546 0.459,0.812 0.552,0.966 0.656,1.18 0.777,1.356 0.948,1.229 1.115,1.067 1.265,0.953 1.514,0.764 1.763,0.575 2.012,0.385 2.45,0.053 2.939,0.751 2.503,1.082 1.989,1.472 1.433,2.043 0.84,2.3 0.699,2.361 0.531,2.318 0.416,2.227 -0.075,1.836 -0.405,1.036 -0.697,0.491 -0.953,0.013 -0.258,-0.483 0,0" /></g><g
           transform="translate(61.6693,58.5897)"
           id="g68"><path
             id="path70"
             style="fill:#ffffff;fill-opacity:1;fill-rule:nonzero;stroke:none"
             d="M 0,0 C 0.147,0.274 0.298,0.546 0.459,0.812 0.552,0.966 0.656,1.18 0.777,1.356 0.948,1.229 1.115,1.067 1.265,0.953 1.514,0.764 1.763,0.575 2.012,0.385 2.45,0.053 2.939,0.751 2.503,1.082 1.989,1.472 1.432,2.043 0.84,2.3 0.699,2.361 0.531,2.318 0.416,2.227 -0.075,1.836 -0.405,1.036 -0.697,0.491 -0.953,0.013 -0.258,-0.483 0,0" /></g><g
           transform="translate(64.1177,51.6898)"
           id="g72"><path
             id="path74"
             style="fill:#ffffff;fill-opacity:1;fill-rule:nonzero;stroke:none"
             d="m 0,0 c 0.147,-0.055 0.281,-0.131 0.412,-0.211 0.123,0.136 0.254,0.263 0.371,0.405 0.185,0.228 0.031,0.538 -0.2,0.645 -0.564,0.261 -1.06,0.617 -1.525,1.015 0.158,0.097 0.305,0.215 0.421,0.375 0.427,0.587 0.346,1.498 0.974,1.929 C 0.705,4.33 0.625,4.806 0.327,4.883 -0.589,5.118 -1.407,5.552 -2.088,6.213 -2.478,6.592 -3.133,6.046 -2.739,5.664 -2.111,5.053 -1.389,4.59 -0.582,4.286 -0.693,4.104 -0.78,3.904 -0.849,3.694 -0.969,3.328 -1.139,2.317 -1.724,2.52 -2.11,2.654 -2.498,2.171 -2.199,1.846 -1.628,1.228 -0.977,0.724 -0.251,0.32 c -0.41,-0.452 -0.848,-0.872 -1.337,-1.245 -0.437,-0.332 0.114,-0.983 0.549,-0.651 0.296,0.225 0.57,0.47 0.837,0.722 -0.034,0.016 -0.061,0.042 -0.096,0.055 C -0.812,-0.607 -0.516,0.192 0,0" /></g><g
           transform="translate(65.7686,43.8808)"
           id="g76"><path
             id="path78"
             style="fill:#ffffff;fill-opacity:1;fill-rule:nonzero;stroke:none"
             d="M 0,0 C -0.013,-0.062 -0.027,-0.125 -0.04,-0.187 0.443,-0.117 0.875,0.165 1.053,0.715 1.349,1.627 0.621,3.482 -0.573,2.784 -1.042,2.509 -0.683,1.736 -0.209,2.013 0.143,2.219 0.528,0.927 -0.046,0.67 -0.551,0.443 -1.01,0.909 -1.217,1.314 -1.748,2.352 -1.223,3.14 -0.685,4.008 -0.268,4.679 0.031,5.404 -0.179,6.201 -0.337,6.799 -0.725,7.286 -1.238,7.598 -1.37,7.678 -1.504,7.754 -1.651,7.809 -2.167,8.001 -2.463,7.202 -1.949,7.01 -1.914,6.997 -1.887,6.971 -1.852,6.955 -1.268,6.687 -0.862,6.078 -0.974,5.418 -1.083,4.777 -1.571,4.254 -1.882,3.703 -2.481,2.64 -2.441,1.25 -1.564,0.332 c 0.188,-0.196 0.423,-0.342 0.676,-0.434 0.013,0.062 0.026,0.123 0.04,0.185 C -0.734,0.612 0.116,0.537 0,0" /></g><g
           transform="translate(63.3409,49.2495)"
           id="g80"><path
             id="path82"
             style="fill:#ffffff;fill-opacity:1;fill-rule:nonzero;stroke:none"
             d="M 0,0 C -0.541,-0.094 -0.395,-0.933 0.146,-0.84 0.687,-0.746 0.54,0.094 0,0" /></g><g
           transform="translate(64.2659,54.127)"
           id="g84"><path
             id="path86"
             style="fill:#ffffff;fill-opacity:1;fill-rule:nonzero;stroke:none"
             d="M 0,0 C -0.141,-0.182 -0.08,-0.465 0.103,-0.594 0.125,-0.609 0.147,-0.625 0.169,-0.64 0.363,-0.777 0.621,-0.72 0.762,-0.537 0.903,-0.355 0.842,-0.072 0.659,0.057 0.638,0.072 0.616,0.088 0.594,0.103 0.399,0.24 0.141,0.183 0,0" /></g><g
           transform="translate(66.71,38.8409)"
           id="g88"><path
             id="path90"
             style="fill:#ffffff;fill-opacity:1;fill-rule:nonzero;stroke:none"
             d="m 0,0 c 0.176,-0.427 0.366,-0.98 0.239,-1.448 -0.099,-0.363 -0.644,-0.84 -0.877,-0.296 -0.216,0.505 -0.987,0.14 -0.771,-0.364 0.267,-0.625 1.009,-0.894 1.626,-0.614 0.706,0.32 0.961,1.126 0.892,1.847 -0.142,1.476 -1.14,3.003 -2.63,3.224 0.18,0.835 0.359,1.669 0.539,2.504 0.014,0.062 0.027,0.125 0.041,0.187 C -0.826,5.577 -1.676,5.652 -1.79,5.123 -1.803,5.061 -1.816,5 -1.83,4.938 -2.041,3.957 -2.252,2.976 -2.464,1.995 -2.527,1.701 -2.211,1.513 -1.967,1.534 -1,1.615 -0.334,0.812 0,0" /></g><g
           transform="translate(65.3619,38.5853)"
           id="g92"><path
             id="path94"
             style="fill:#ffffff;fill-opacity:1;fill-rule:nonzero;stroke:none"
             d="M 0,0 C -0.541,-0.094 -0.395,-0.933 0.146,-0.84 0.687,-0.746 0.54,0.094 0,0" /></g><g
           transform="translate(66.484,42.7587)"
           id="g96"><path
             id="path98"
             style="fill:#ffffff;fill-opacity:1;fill-rule:nonzero;stroke:none"
             d="M 0,0 C -0.541,-0.094 -0.395,-0.933 0.146,-0.84 0.687,-0.746 0.54,0.094 0,0" /></g><g
           transform="translate(29.2677,10.0778)"
           id="g100"><path
             id="path102"
             style="fill:#ffffff;fill-opacity:1;fill-rule:nonzero;stroke:none"
             d="M 0,0 C -0.048,-0.051 -0.109,-0.083 -0.161,-0.129 0.219,-0.706 0.907,-1.128 1.628,-1.181 3.403,-1.311 5.207,0.014 6.314,1.284 6.851,1.9 7.336,2.89 8.318,2.688 8.798,2.589 9.157,2.196 9.244,1.719 9.311,1.349 8.933,0.349 8.529,0.971 8.232,1.431 7.583,0.877 7.878,0.422 8.226,-0.116 8.972,-0.196 9.479,0.162 10.016,0.541 10.185,1.255 10.072,1.877 9.987,1.882 9.904,1.879 9.819,1.888 9.352,1.942 9.347,2.573 9.702,2.711 9.041,3.602 7.714,3.85 6.766,3.1 6.089,2.564 5.663,1.75 5.013,1.174 4.306,0.548 3.426,-0.027 2.499,-0.253 1.739,-0.439 0.247,-0.218 0.39,0.904 0.524,1.946 1.945,1.874 2.139,0.908 2.247,0.371 3.087,0.516 2.979,1.054 2.684,2.524 0.797,3.078 -0.127,1.81 -0.39,1.45 -0.478,1.077 -0.453,0.72 -0.091,0.937 0.339,0.364 0,0" /></g><g
           transform="translate(23.4796,9.1712)"
           id="g104"><path
             id="path106"
             style="fill:#ffffff;fill-opacity:1;fill-rule:nonzero;stroke:none"
             d="m 0,0 c -0.063,0.02 -0.124,0.013 -0.187,0.02 -0.012,-0.153 -0.006,-0.308 0.023,-0.461 0.103,-0.539 0.943,-0.394 0.84,0.145 C 0.536,0.44 1.47,1.412 2.202,0.939 2.608,0.678 2.876,0.371 3.359,0.238 4.152,0.019 5.018,0.232 5.627,0.777 5.679,0.823 5.74,0.855 5.788,0.907 6.127,1.271 5.697,1.843 5.335,1.627 5.302,1.607 5.269,1.591 5.239,1.558 4.798,1.084 4.148,0.871 3.517,1.078 2.949,1.263 2.639,1.853 2.009,1.917 1.214,1.999 0.464,1.514 0.078,0.841 0.152,0.827 0.224,0.822 0.298,0.799 0.821,0.631 0.522,-0.167 0,0" /></g><g
           transform="translate(24.8116,8.902)"
           id="g108"><path
             id="path110"
             style="fill:#ffffff;fill-opacity:1;fill-rule:nonzero;stroke:none"
             d="M 0,0 C -0.541,-0.094 -0.395,-0.933 0.146,-0.84 0.687,-0.746 0.54,0.094 0,0" /></g><g
           transform="translate(33.2371,11.8615)"
           id="g112"><path
             id="path114"
             style="fill:#ffffff;fill-opacity:1;fill-rule:nonzero;stroke:none"
             d="M 0,0 C 0.541,0.094 0.395,0.933 -0.146,0.84 -0.687,0.746 -0.54,-0.094 0,0" /></g><g
           transform="translate(18.0574,7.438)"
           id="g116"><path
             id="path118"
             style="fill:#ffffff;fill-opacity:1;fill-rule:nonzero;stroke:none"
             d="M 0,0 C 0.837,-0.353 1.717,-0.04 2.458,0.39 2.96,0.68 3.444,1.002 3.941,1.301 4.328,1.534 4.772,1.804 5.236,1.753 5.298,1.746 5.359,1.753 5.422,1.733 5.945,1.566 6.243,2.364 5.72,2.532 5.646,2.556 5.574,2.56 5.501,2.574 4.404,2.785 3.409,1.968 2.518,1.419 1.998,1.099 1.403,0.675 0.765,0.696 0.4,0.708 -0.015,0.877 -0.103,1.274 -0.185,1.647 0.111,2.042 0.513,1.938 1.041,1.802 1.342,2.6 0.812,2.737 -0.974,3.197 -1.628,0.686 0,0" /></g><g
           transform="translate(15.692,15.1414)"
           id="g120"><path
             id="path122"
             style="fill:#ffffff;fill-opacity:1;fill-rule:nonzero;stroke:none"
             d="m 0,0 c 0.062,-0.406 0.124,-0.815 0.129,-1.22 0.005,-0.486 -0.186,-0.866 -0.449,-1.261 -0.412,-0.621 -0.885,-1.291 -0.767,-2.081 0.104,-0.699 0.694,-1.185 1.393,-1.197 0.757,-0.013 1.341,0.561 1.552,1.249 0.161,0.523 -0.638,0.822 -0.798,0.298 -0.094,-0.305 -0.283,-0.627 -0.627,-0.687 -0.451,-0.079 -0.725,0.297 -0.674,0.711 0.073,0.579 0.522,1.029 0.808,1.511 0.624,1.051 0.347,2.176 0.199,3.324 C 0.763,0.67 0.752,0.685 0.746,0.706 0.555,0.411 0.301,0.165 0,0" /></g><g
           transform="translate(14.4036,20.9962)"
           id="g124"><path
             id="path126"
             style="fill:#ffffff;fill-opacity:1;fill-rule:nonzero;stroke:none"
             d="M 0,0 C 0.227,0.438 0.905,0.232 0.833,-0.177 1.198,-0.075 1.536,0.147 1.789,0.552 2.603,1.854 1.434,3.371 -0.01,3.16 -0.554,3.081 -0.406,2.241 0.136,2.32 1.17,2.471 1.66,1.02 0.628,0.639 -0.439,0.244 -1.04,1.607 -1.088,2.415 c -0.056,0.944 0.183,1.923 0.543,2.789 0.321,0.771 0.921,1.422 1.187,2.21 0.493,1.459 -0.738,2.971 -2.279,2.709 C -2.271,10.015 -2.899,9.58 -3.049,8.927 -3.184,8.341 -2.857,7.703 -2.253,7.56 c 0.528,-0.125 0.83,0.673 0.298,0.799 -0.724,0.171 0.094,0.861 0.464,0.924 0.477,0.082 0.97,-0.129 1.223,-0.546 C 0.268,7.858 -0.561,7.028 -0.961,6.293 -1.755,4.838 -2.368,2.736 -1.66,1.136 -1.367,0.472 -0.737,-0.03 -0.067,-0.193 -0.041,-0.13 -0.032,-0.061 0,0" /></g><g
           transform="translate(14.4036,20.9962)"
           id="g128"><path
             id="path130"
             style="fill:#ffffff;fill-opacity:1;fill-rule:nonzero;stroke:none"
             d="M 0,0 C -0.032,-0.061 -0.041,-0.13 -0.067,-0.193 -0.376,-0.951 -0.286,-1.839 0.187,-2.512 0.501,-2.959 0.998,-3.093 1.345,-3.474 1.871,-4.052 1.274,-5.111 0.588,-5.219 0.045,-5.303 0.192,-6.143 0.733,-6.058 c 0.199,0.031 0.381,0.108 0.555,0.203 0.301,0.165 0.556,0.411 0.746,0.706 0.369,0.572 0.496,1.306 0.189,1.931 -0.29,0.59 -0.993,0.689 -1.35,1.212 -0.356,0.522 -0.36,1.157 -0.074,1.708 0.022,0.043 0.027,0.082 0.034,0.121 C 0.905,0.232 0.227,0.438 0,0" /></g><g
           transform="translate(14.3031,16.7514)"
           id="g132"><path
             id="path134"
             style="fill:#ffffff;fill-opacity:1;fill-rule:nonzero;stroke:none"
             d="M 0,0 C -0.541,-0.094 -0.395,-0.933 0.146,-0.84 0.687,-0.746 0.54,0.094 0,0" /></g><g
           transform="translate(15.2403,24.9871)"
           id="g136"><path
             id="path138"
             style="fill:#ffffff;fill-opacity:1;fill-rule:nonzero;stroke:none"
             d="M 0,0 C 0.541,0.094 0.395,0.933 -0.146,0.84 -0.687,0.746 -0.54,-0.094 0,0" /></g><g
           transform="translate(11.8635,31.9415)"
           id="g140"><path
             id="path142"
             style="fill:#ffffff;fill-opacity:1;fill-rule:nonzero;stroke:none"
             d="M 0,0 C 0.409,0.613 1.235,0.342 1.807,0.159 2.329,-0.007 2.628,0.791 2.105,0.958 1.146,1.264 -0.045,1.466 -0.697,0.491 -1.002,0.035 -0.305,-0.457 0,0" /></g><g
           transform="translate(12.2911,36.7496)"
           id="g144"><path
             id="path146"
             style="fill:#ffffff;fill-opacity:1;fill-rule:nonzero;stroke:none"
             d="m 0,0 c 0.452,-0.264 0.802,-0.958 0.887,-1.463 0.071,-0.422 -0.55,-0.761 -0.987,-0.776 -0.105,0.091 -0.226,0.112 -0.339,0.075 -0.469,0.272 -0.78,0.838 -0.807,1.373 C -1.279,-0.114 -0.608,0.354 0,0 M -0.462,-3.038 C 0.214,-3.424 1.472,-2.529 1.712,-1.951 1.923,-1.443 1.57,-0.745 1.341,-0.3 1.106,0.154 0.773,0.569 0.306,0.799 -0.647,1.268 -1.83,0.736 -2.058,-0.318 c -0.233,-1.075 0.436,-2.202 1.373,-2.683 0.082,-0.042 0.155,-0.047 0.223,-0.037" /></g><g
           transform="translate(12.2377,35.0953)"
           id="g148"><path
             id="path150"
             style="fill:#ffffff;fill-opacity:1;fill-rule:nonzero;stroke:none"
             d="M 0,0 C 0.229,0.029 0.385,0.273 0.347,0.493 0.345,0.505 0.343,0.518 0.341,0.53 0.3,0.765 0.077,0.906 -0.152,0.877 -0.381,0.848 -0.537,0.604 -0.499,0.384 -0.497,0.372 -0.495,0.36 -0.493,0.347 -0.452,0.112 -0.229,-0.029 0,0" /></g><g
           transform="translate(12.2092,38.3677)"
           id="g152"><path
             id="path154"
             style="fill:#ffffff;fill-opacity:1;fill-rule:nonzero;stroke:none"
             d="m 0,0 c 1.084,0.651 0.969,2.14 0.313,3.051 -0.86,1.194 -2.949,1.733 -3.142,3.343 -0.201,1.676 1.621,2.305 2.102,3.694 0.186,0.536 0.192,1.182 -0.141,1.662 -0.337,0.486 -0.962,0.713 -1.494,0.411 -0.475,-0.269 -0.115,-1.042 0.363,-0.771 0.515,0.292 0.573,-0.55 0.525,-0.812 C -1.528,10.279 -1.69,10.02 -1.878,9.787 -2.262,9.31 -2.756,8.931 -3.106,8.424 -3.747,7.493 -3.911,6.242 -3.314,5.25 -2.633,4.12 -1.335,3.685 -0.503,2.712 -0.147,2.295 0.115,1.686 -0.102,1.139 -0.233,0.81 -0.504,0.632 -0.854,0.618 -1.046,0.61 -2.003,0.821 -1.712,1.238 -1.398,1.689 -2.095,2.18 -2.409,1.729 -3.381,0.335 -1.06,-0.637 0,0" /></g><g
           transform="translate(8.9265,49.3226)"
           id="g156"><path
             id="path158"
             style="fill:#ffffff;fill-opacity:1;fill-rule:nonzero;stroke:none"
             d="M 0,0 C 0.229,0.029 0.385,0.273 0.347,0.493 0.345,0.505 0.343,0.518 0.341,0.53 0.3,0.765 0.077,0.906 -0.152,0.877 -0.38,0.848 -0.537,0.604 -0.499,0.384 -0.497,0.372 -0.495,0.36 -0.493,0.347 -0.452,0.112 -0.229,-0.029 0,0" /></g><g
           transform="translate(11.387,45.6146)"
           id="g160"><path
             id="path162"
             style="fill:#ffffff;fill-opacity:1;fill-rule:nonzero;stroke:none"
             d="M 0,0 C 0.302,0.458 -0.394,0.95 -0.697,0.491 -1.332,-0.474 -1.12,-1.694 -0.071,-2.242 0.416,-2.496 0.707,-1.694 0.227,-1.443 -0.327,-1.154 -0.302,-0.458 0,0" /></g><g
           transform="translate(9.9289,40.6541)"
           id="g164"><path
             id="path166"
             style="fill:#ffffff;fill-opacity:1;fill-rule:nonzero;stroke:none"
             d="M 0,0 C 0.541,0.094 0.395,0.933 -0.146,0.84 -0.687,0.746 -0.54,-0.094 0,0" /></g><g
           transform="translate(9.5757,51.2401)"
           id="g168"><path
             id="path170"
             style="fill:#ffffff;fill-opacity:1;fill-rule:nonzero;stroke:none"
             d="M 0,0 C 0.491,0.391 0.821,1.19 1.113,1.736 1.368,2.214 0.674,2.71 0.416,2.227 0.269,1.952 0.118,1.681 -0.043,1.415 -0.136,1.261 -0.24,1.047 -0.361,0.87 -0.532,0.997 -0.699,1.159 -0.849,1.273 -1.098,1.463 -1.347,1.652 -1.596,1.841 -2.034,2.174 -2.523,1.476 -2.087,1.144 -1.573,0.754 -1.017,0.184 -0.424,-0.073 -0.283,-0.135 -0.115,-0.092 0,0" /></g><g
           transform="translate(9.1617,53.6296)"
           id="g172"><path
             id="path174"
             style="fill:#ffffff;fill-opacity:1;fill-rule:nonzero;stroke:none"
             d="M 0,0 C 0.491,0.391 0.821,1.19 1.113,1.736 1.368,2.214 0.674,2.71 0.416,2.227 0.269,1.952 0.118,1.681 -0.043,1.415 -0.136,1.261 -0.24,1.047 -0.361,0.87 -0.532,0.997 -0.699,1.159 -0.849,1.273 -1.098,1.463 -1.347,1.652 -1.596,1.841 -2.034,2.174 -2.523,1.476 -2.087,1.144 -1.573,0.754 -1.017,0.184 -0.424,-0.073 -0.283,-0.135 -0.115,-0.092 0,0" /></g><g
           transform="translate(7.1291,62.756)"
           id="g176"><path
             id="path178"
             style="fill:#ffffff;fill-opacity:1;fill-rule:nonzero;stroke:none"
             d="m 0,0 c -0.147,0.055 -0.281,0.131 -0.413,0.211 -0.122,-0.136 -0.253,-0.263 -0.37,-0.405 -0.185,-0.228 -0.031,-0.538 0.2,-0.645 C -0.019,-1.1 0.477,-1.456 0.942,-1.854 0.784,-1.951 0.637,-2.069 0.521,-2.229 0.094,-2.816 0.175,-3.727 -0.453,-4.158 c -0.252,-0.172 -0.172,-0.648 0.126,-0.725 0.915,-0.235 1.734,-0.669 2.415,-1.33 0.39,-0.379 1.045,0.167 0.651,0.549 -0.628,0.611 -1.35,1.074 -2.157,1.378 0.111,0.182 0.198,0.382 0.267,0.592 0.12,0.366 0.29,1.377 0.875,1.174 0.386,-0.134 0.774,0.349 0.475,0.674 C 1.628,-1.228 0.977,-0.724 0.251,-0.32 0.661,0.132 1.099,0.552 1.588,0.925 2.025,1.257 1.474,1.908 1.039,1.576 0.743,1.351 0.469,1.106 0.202,0.854 0.236,0.838 0.263,0.812 0.298,0.799 0.812,0.607 0.516,-0.192 0,0" /></g><g
           transform="translate(5.6575,64.3635)"
           id="g180"><path
             id="path182"
             style="fill:#ffffff;fill-opacity:1;fill-rule:nonzero;stroke:none"
             d="M 0,0 C 0.158,-0.598 0.545,-1.084 1.059,-1.397 1.19,-1.476 1.325,-1.553 1.472,-1.607 1.987,-1.799 2.284,-1 1.77,-0.809 1.735,-0.796 1.707,-0.769 1.673,-0.754 1.088,-0.486 0.683,0.123 0.795,0.783 0.864,1.191 1.087,1.549 1.32,1.899 l -0.978,0 C 0.021,1.31 -0.18,0.683 0,0" /></g><g
           transform="translate(7.7603,66.0361)"
           id="g184"><path
             id="path186"
             style="fill:#ffffff;fill-opacity:1;fill-rule:nonzero;stroke:none"
             d="M 0,0 C -0.541,-0.094 -0.395,-0.933 0.146,-0.84 0.687,-0.746 0.54,0.094 0,0" /></g><g
           transform="translate(6.9808,60.3187)"
           id="g188"><path
             id="path190"
             style="fill:#ffffff;fill-opacity:1;fill-rule:nonzero;stroke:none"
             d="M 0,0 C 0.141,0.182 0.08,0.465 -0.103,0.594 -0.125,0.609 -0.147,0.625 -0.169,0.64 -0.363,0.777 -0.621,0.72 -0.762,0.537 -0.903,0.355 -0.842,0.072 -0.659,-0.057 -0.638,-0.072 -0.616,-0.087 -0.594,-0.103 -0.399,-0.24 -0.141,-0.183 0,0" /></g><g
           transform="translate(47.7692,13.349)"
           id="g192"><path
             id="path194"
             style="fill:#ffffff;fill-opacity:1;fill-rule:nonzero;stroke:none"
             d="m 0,0 c -0.127,-0.063 -0.255,-0.103 -0.382,-0.15 0.142,-0.587 0.549,-1.143 1.157,-1.283 0.586,-0.135 1.224,0.192 1.367,0.796 0.125,0.528 -0.673,0.83 -0.799,0.298 C 1.172,-1.063 0.482,-0.244 0.419,0.125 0.337,0.602 0.548,1.095 0.965,1.349 1.845,1.884 2.674,1.056 3.409,0.655 4.864,-0.139 6.966,-0.752 8.566,-0.044 9.23,0.249 9.732,0.879 9.895,1.549 9.832,1.575 9.764,1.584 9.702,1.616 9.264,1.844 9.47,2.522 9.879,2.449 9.777,2.814 9.555,3.152 9.15,3.405 7.848,4.219 6.331,3.051 6.542,1.606 6.622,1.062 7.461,1.21 7.382,1.752 7.231,2.786 8.682,3.276 9.064,2.245 9.458,1.177 8.095,0.576 7.287,0.528 6.344,0.472 5.364,0.711 4.498,1.072 3.727,1.392 3.076,1.992 2.288,2.258 1.09,2.663 -0.127,1.899 -0.385,0.762 -0.378,0.766 -0.371,0.768 -0.364,0.771 0.129,1.015 0.491,0.243 0,0" /></g><g
           transform="translate(57.4714,14.9651)"
           id="g196"><path
             id="path198"
             style="fill:#ffffff;fill-opacity:1;fill-rule:nonzero;stroke:none"
             d="M 0,0 C 0.061,-0.032 0.13,-0.041 0.193,-0.067 0.951,-0.376 1.839,-0.285 2.512,0.187 2.959,0.501 3.093,0.998 3.474,1.345 4.052,1.871 5.111,1.274 5.219,0.588 5.303,0.045 6.143,0.192 6.058,0.733 6.034,0.887 5.987,1.035 5.924,1.175 5.868,1.147 5.808,1.134 5.756,1.094 5.321,0.761 4.77,1.412 5.206,1.745 5.268,1.793 5.334,1.821 5.398,1.859 4.807,2.366 3.936,2.576 3.218,2.223 2.628,1.933 2.529,1.23 2.006,0.873 1.484,0.517 0.849,0.513 0.298,0.799 0.255,0.821 0.216,0.826 0.177,0.833 -0.232,0.905 -0.438,0.227 0,0" /></g><g
           transform="translate(62.0633,15.3573)"
           id="g200"><path
             id="path202"
             style="fill:#ffffff;fill-opacity:1;fill-rule:nonzero;stroke:none"
             d="M 0,0 C -0.541,-0.094 -0.395,-0.933 0.146,-0.84 0.687,-0.746 0.54,0.094 0,0" /></g><g
           transform="translate(53.1332,15.3091)"
           id="g204"><path
             id="path206"
             style="fill:#ffffff;fill-opacity:1;fill-rule:nonzero;stroke:none"
             d="M 0,0 C 0.541,0.094 0.395,0.933 -0.146,0.84 -0.687,0.746 -0.54,-0.094 0,0" /></g><g
           transform="translate(63.2271,16.059)"
           id="g208"><path
             id="path210"
             style="fill:#ffffff;fill-opacity:1;fill-rule:nonzero;stroke:none"
             d="m 0,0 c 0.052,0.04 0.112,0.053 0.168,0.081 0.42,0.205 0.929,0.1 1.372,0.011 0.569,-0.114 1.133,-0.255 1.703,-0.36 0.842,-0.155 1.776,-0.154 2.446,0.46 C 6.992,1.386 5.531,3.53 4.004,2.496 3.55,2.189 4.103,1.539 4.554,1.845 4.9,2.079 5.307,1.803 5.357,1.426 5.411,1.025 5.073,0.722 4.735,0.591 4.138,0.359 3.439,0.554 2.841,0.681 1.817,0.898 0.604,1.333 -0.358,0.765 -0.422,0.727 -0.488,0.699 -0.55,0.652 -0.986,0.318 -0.435,-0.333 0,0" /></g><g
           transform="translate(67.6127,24.6526)"
           id="g212"><path
             id="path214"
             style="fill:#ffffff;fill-opacity:1;fill-rule:nonzero;stroke:none"
             d="M 0,0 C 0.247,-1.131 0.364,-2.283 1.306,-3.063 1.761,-3.44 2.399,-3.734 2.616,-4.321 2.748,-4.676 2.569,-5.044 2.18,-5.111 1.834,-5.17 1.549,-4.93 1.359,-4.674 1.03,-4.234 0.38,-4.785 0.707,-5.224 c 0.43,-0.577 1.174,-0.92 1.881,-0.654 0.654,0.246 1.046,0.904 0.91,1.596 C 3.343,-3.499 2.673,-3.024 2.075,-2.58 1.648,-2.263 1.35,-1.941 1.194,-1.424 1.089,-1.074 1.015,-0.714 0.942,-0.353 0.601,-0.3 0.278,-0.153 -0.001,0.062 0.001,0.041 -0.005,0.023 0,0" /></g><g
           transform="translate(67.0885,29.7761)"
           id="g216"><path
             id="path218"
             style="fill:#ffffff;fill-opacity:1;fill-rule:nonzero;stroke:none"
             d="m 0,0 c 0.018,-0.026 0.028,-0.053 0.055,-0.077 0.474,-0.441 0.687,-1.091 0.481,-1.722 -0.186,-0.568 -0.776,-0.878 -0.84,-1.508 -0.071,-0.691 0.291,-1.34 0.827,-1.754 0.279,-0.216 0.602,-0.363 0.944,-0.416 0.194,-0.03 0.39,-0.04 0.587,-0.003 0.54,0.103 0.394,0.943 -0.145,0.84 -0.736,-0.14 -1.708,0.794 -1.235,1.527 0.261,0.405 0.568,0.673 0.702,1.156 C 1.58,-1.214 1.401,-0.409 0.932,0.192 0.651,0.042 0.324,-0.027 0,0" /></g><g
           transform="translate(69.4635,25.4449)"
           id="g220"><path
             id="path222"
             style="fill:#ffffff;fill-opacity:1;fill-rule:nonzero;stroke:none"
             d="M 0,0 C 0.541,0.094 0.395,0.933 -0.146,0.84 -0.687,0.746 -0.54,-0.094 0,0" /></g><g
           transform="translate(65.5188,34.5648)"
           id="g224"><path
             id="path226"
             style="fill:#ffffff;fill-opacity:1;fill-rule:nonzero;stroke:none"
             d="M 0,0 C -0.541,-0.094 -0.395,-0.933 0.146,-0.84 0.687,-0.746 0.54,0.094 0,0" /></g><g
           transform="translate(68.0202,29.968)"
           id="g228"><path
             id="path230"
             style="fill:#ffffff;fill-opacity:1;fill-rule:nonzero;stroke:none"
             d="M 0,0 C 0.516,0.275 0.864,0.822 0.688,1.571 0.562,2.103 -0.278,1.96 -0.152,1.425 -0.002,0.788 -0.684,0.367 -1.205,0.767 c -0.297,0.229 -0.375,0.669 -0.23,1.006 0.193,0.45 0.737,0.537 1.129,0.741 0.283,0.147 0.555,0.333 0.74,0.599 C 1.29,4.347 -0.684,5.876 -1.636,4.724 -1.986,4.3 -1.286,3.813 -0.939,4.233 -0.77,4.438 -0.328,4.11 -0.259,3.938 -0.147,3.656 -0.353,3.47 -0.587,3.331 -1.004,3.084 -1.488,2.988 -1.848,2.643 -2.352,2.162 -2.487,1.372 -2.218,0.736 -1.967,0.14 -1.458,-0.149 -0.932,-0.192 -0.608,-0.219 -0.28,-0.149 0,0" /></g><g
           transform="translate(43.7322,13.9897)"
           id="g232"><path
             id="path234"
             style="fill:#ffffff;fill-opacity:1;fill-rule:nonzero;stroke:none"
             d="M 0,0 C -0.084,-0.114 -0.18,-0.215 -0.273,-0.321 0.223,-0.72 0.86,-0.87 1.503,-0.969 2.255,-1.085 2.96,-1.046 3.655,-0.791 3.782,-0.744 3.91,-0.704 4.037,-0.641 4.528,-0.398 4.166,0.374 3.673,0.13 3.666,0.127 3.659,0.125 3.652,0.122 3.033,-0.179 2.431,-0.242 1.754,-0.146 1.106,-0.054 0.422,0.036 0.009,0.598 -0.2,0.882 -0.539,0.756 -0.672,0.513 -0.337,0.903 0.321,0.431 0,0" /></g><g
           transform="translate(39.0869,11.9662)"
           id="g236"><path
             id="path238"
             style="fill:#ffffff;fill-opacity:1;fill-rule:nonzero;stroke:none"
             d="M 0,0 C 0.084,-0.01 0.168,-0.006 0.252,-0.012 1.821,-0.111 3.339,0.528 4.372,1.703 4.465,1.808 4.561,1.91 4.645,2.023 4.966,2.455 4.309,2.927 3.973,2.536 3.966,2.527 3.956,2.524 3.949,2.514 3.048,1.303 1.579,0.678 0.083,0.849 0.006,0.857 -0.059,0.845 -0.117,0.822 -0.472,0.685 -0.467,0.053 0,0" /></g><g
           transform="translate(43.6854,12.4255)"
           id="g240"><path
             id="path242"
             style="fill:#ffffff;fill-opacity:1;fill-rule:nonzero;stroke:none"
             d="M 0,0 C -0.541,-0.094 -0.395,-0.933 0.146,-0.84 0.687,-0.746 0.54,0.094 0,0" /></g><g
           transform="translate(46.1268,12.6467)"
           id="g244"><path
             id="path246"
             style="fill:#ffffff;fill-opacity:1;fill-rule:nonzero;stroke:none"
             d="m 0,0 c -0.009,-0.002 -0.019,-0.003 -0.028,-0.005 -0.235,-0.041 -0.376,-0.263 -0.347,-0.492 0.029,-0.229 0.273,-0.386 0.493,-0.348 0.009,0.002 0.018,0.004 0.028,0.005 0.235,0.041 0.376,0.264 0.347,0.493 C 0.464,-0.119 0.22,0.038 0,0" /></g><g
           transform="translate(41.4568,11.8086)"
           id="g248"><path
             id="path250"
             style="fill:#ffffff;fill-opacity:1;fill-rule:nonzero;stroke:none"
             d="M 0,0 C -0.541,-0.094 -0.395,-0.933 0.146,-0.84 0.687,-0.746 0.54,0.094 0,0" /></g><g
           transform="translate(36.449,60.5664)"
           id="g252"><path
             id="path254"
             style="fill:#ffffff;fill-opacity:1;fill-rule:nonzero;stroke:none"
             d="m 0,0 c 1.224,-1.376 3.14,-2.06 4.959,-1.748 1.805,0.31 3.476,1.613 4.102,3.353 C 9.648,3.237 8.986,5.329 7.067,5.562 6.52,5.628 6.441,4.779 6.984,4.713 8.301,4.553 8.648,3.076 8.294,1.991 7.937,0.901 7.064,0 6.047,-0.502 3.994,-1.516 1.465,-0.787 0.215,1.117 -0.661,2.451 -0.866,4.111 -0.778,5.696 l -0.84,0 c -0.008,-0.2 -0.03,-0.4 -0.029,-0.6 C -1.641,3.286 -1.234,1.387 0,0" /></g><g
           transform="translate(40.9222,65.7733)"
           id="g256"><path
             id="path258"
             style="fill:#ffffff;fill-opacity:1;fill-rule:nonzero;stroke:none"
             d="m 0,0 c 0.371,0.102 0.685,0.274 0.952,0.489 l -3.421,0 C -1.786,-0.056 -0.864,-0.237 0,0" /></g><g
           transform="translate(46.3745,65.5048)"
           id="g260"><path
             id="path262"
             style="fill:#ffffff;fill-opacity:1;fill-rule:nonzero;stroke:none"
             d="m 0,0 c 2.022,-1.633 4.651,-0.981 6.366,0.757 l -1.231,0 C 4.149,0.033 2.922,-0.335 1.803,-0.012 1.28,0.139 0.81,0.408 0.403,0.757 l -1.156,0 C -0.523,0.482 -0.276,0.223 0,0" /></g><g
           transform="translate(42.2598,63.0753)"
           id="g264"><path
             id="path266"
             style="fill:#ffffff;fill-opacity:1;fill-rule:nonzero;stroke:none"
             d="M 0,0 C -0.495,-1.58 -2.446,-2.017 -3.532,-0.741 -3.888,-0.324 -4.54,-0.872 -4.184,-1.291 -2.702,-3.032 0.11,-2.499 0.799,-0.298 0.962,0.225 0.164,0.524 0,0" /></g><g
           transform="translate(32.5745,59.707)"
           id="g268"><path
             id="path270"
             style="fill:#ffffff;fill-opacity:1;fill-rule:nonzero;stroke:none"
             d="m 0,0 c -1.078,-1.71 -3.191,-2.543 -5.139,-1.968 -0.977,0.289 -1.935,0.904 -2.444,1.81 -0.498,0.885 -0.432,2.134 0.567,2.633 0.49,0.246 0.128,1.017 -0.364,0.771 -0.852,-0.426 -1.367,-1.305 -1.372,-2.257 -0.006,-1.057 0.584,-2.007 1.361,-2.684 1.554,-1.356 3.873,-1.69 5.746,-0.831 1.687,0.773 2.842,2.351 3.134,4.173 0.267,1.661 -0.157,3.378 -0.831,4.908 l -0.949,0 C -0.135,6.222 0.023,5.889 0.151,5.545 0.805,3.785 1.049,1.663 0,0" /></g><g
           transform="translate(28.508,63.6511)"
           id="g272"><path
             id="path274"
             style="fill:#ffffff;fill-opacity:1;fill-rule:nonzero;stroke:none"
             d="M 0,0 C 1.076,0.376 1.762,1.347 1.823,2.48 1.826,2.524 1.821,2.567 1.822,2.611 l -0.846,0 C 0.967,2.362 0.93,2.113 0.837,1.871 0.427,0.8 -0.988,0.337 -1.962,0.949 -2.543,1.313 -2.798,1.966 -2.769,2.611 l -0.861,0 C -3.642,2.024 -3.481,1.432 -3.144,0.938 -2.453,-0.077 -1.132,-0.395 0,0" /></g><g
           transform="translate(17.1923,59.6629)"
           id="g276"><path
             id="path278"
             style="fill:#ffffff;fill-opacity:1;fill-rule:nonzero;stroke:none"
             d="M 0,0 C 1.2,-0.403 2.568,-0.482 3.732,0.08 4.74,0.567 5.477,1.476 5.905,2.495 6.452,3.799 6.481,5.283 6.04,6.599 l -0.897,0 C 5.207,6.441 5.282,6.291 5.327,6.121 5.852,4.141 5.157,1.454 3.039,0.713 0.908,-0.032 -2.16,1.4 -2.638,3.685 -2.87,4.793 -2.391,6.032 -1.269,6.436 -0.227,6.812 0.886,6.076 0.938,4.975 0.964,4.428 1.803,4.58 1.778,5.121 1.751,5.684 1.499,6.2 1.12,6.599 l -3.688,0 C -2.889,6.296 -3.15,5.927 -3.318,5.524 -4.341,3.066 -2.193,0.737 0,0" /></g><g
           transform="translate(16.5104,62.9502)"
           id="g280"><path
             id="path282"
             style="fill:#ffffff;fill-opacity:1;fill-rule:nonzero;stroke:none"
             d="M 0,0 C -0.541,-0.094 -0.395,-0.933 0.146,-0.84 0.687,-0.746 0.54,0.094 0,0" /></g><g
           transform="translate(18.0824,62.5306)"
           id="g284"><path
             id="path286"
             style="fill:#ffffff;fill-opacity:1;fill-rule:nonzero;stroke:none"
             d="M 0,0 C -0.541,-0.094 -0.395,-0.933 0.146,-0.84 0.687,-0.746 0.54,0.094 0,0" /></g><g
           transform="translate(20.1121,62.1326)"
           id="g288"><path
             id="path290"
             style="fill:#ffffff;fill-opacity:1;fill-rule:nonzero;stroke:none"
             d="M 0,0 C 0.541,0.094 0.395,0.933 -0.146,0.84 -0.687,0.746 -0.54,-0.094 0,0" /></g><g
           transform="translate(31.7789,60.6931)"
           id="g292"><path
             id="path294"
             style="fill:#ffffff;fill-opacity:1;fill-rule:nonzero;stroke:none"
             d="M 0,0 C 0.195,0.515 -0.604,0.811 -0.799,0.298 -1.392,-1.269 -3.377,-1.513 -4.374,-0.192 -4.705,0.246 -5.356,-0.305 -5.026,-0.742 -3.637,-2.582 -0.81,-2.138 0,0" /></g><g
           transform="translate(46.2944,39.0955)"
           id="g296"><path
             id="path298"
             style="fill:#ffffff;fill-opacity:1;fill-rule:nonzero;stroke:none"
             d="m 0,0 c 1.476,-0.874 3.065,-1.682 4.26,-2.94 1.264,-1.331 1.91,-3.112 1.369,-4.918 -0.501,-1.676 -2.393,-3.786 -4.34,-2.97 -2.02,0.847 -1.949,3.314 -1.592,5.166 -0.125,0.049 -0.25,0.101 -0.385,0.134 -0.441,0.109 -0.304,0.669 0.055,0.785 -0.183,-0.018 -0.365,-0.127 -0.416,-0.35 -0.477,-2.078 -0.605,-4.545 1.211,-6.038 1.631,-1.339 3.815,-0.55 5.094,0.88 1.08,1.209 1.602,2.914 1.373,4.52 -0.236,1.655 -1.286,3.059 -2.539,4.106 -1.281,1.07 -2.791,1.81 -4.202,2.686 -1.682,1.044 -3.206,2.331 -4.505,3.827 -1.303,1.5 -2.438,3.211 -3.133,5.08 -0.654,1.76 -0.898,3.882 0.15,5.545 1.078,1.71 3.192,2.544 5.139,1.968 0.978,-0.289 1.936,-0.904 2.445,-1.809 0.497,-0.885 0.431,-2.134 -0.568,-2.634 -0.49,-0.245 -0.128,-1.017 0.364,-0.771 0.852,0.426 1.367,1.305 1.373,2.257 0.006,1.057 -0.585,2.007 -1.361,2.685 -1.555,1.355 -3.874,1.689 -5.747,0.83 -1.687,-0.773 -2.842,-2.351 -3.134,-4.173 -0.296,-1.845 0.258,-3.763 1.062,-5.413 C -6.291,4.893 -3.385,2.004 0,0" /></g><g
           transform="translate(52.5634,39.403)"
           id="g300"><path
             id="path302"
             style="fill:#ffffff;fill-opacity:1;fill-rule:nonzero;stroke:none"
             d="m 0,0 c -1.991,1.678 -4.409,2.579 -6.689,3.769 -1.086,0.566 -2.158,1.239 -2.965,2.175 -0.778,0.902 -1.446,2.244 -0.985,3.447 0.41,1.071 1.825,1.533 2.799,0.921 0.971,-0.609 1.051,-2.024 0.369,-2.865 -0.346,-0.427 0.353,-0.915 0.697,-0.491 0.77,0.95 0.802,2.361 0.116,3.368 -0.691,1.015 -2.012,1.333 -3.144,0.938 -1.076,-0.376 -1.762,-1.348 -1.823,-2.48 -0.069,-1.257 0.514,-2.455 1.319,-3.388 1.72,-1.992 4.332,-2.848 6.605,-4.014 2.611,-1.34 5.225,-3.293 6.037,-6.26 0.708,-2.586 -0.508,-5.791 -3.399,-6.272 -0.542,-0.091 -0.396,-0.93 0.145,-0.84 2.552,0.425 4.315,2.892 4.33,5.409 C 3.428,-3.967 1.947,-1.641 0,0" /></g><g
           transform="translate(55.2073,37.7211)"
           id="g304"><path
             id="path306"
             style="fill:#ffffff;fill-opacity:1;fill-rule:nonzero;stroke:none"
             d="M 0,0 C -0.22,-0.505 0.58,-0.799 0.799,-0.298 1.047,0.27 1.763,0.294 2.24,0.026 2.728,-0.249 3.042,-0.741 3.288,-1.229 3.671,-1.988 4.006,-2.721 4.467,-3.4 3.803,-3.308 3.162,-3.109 2.562,-2.771 2.088,-2.503 1.594,-3.197 2.071,-3.467 3.085,-4.04 4.185,-4.34 5.351,-4.311 5.69,-4.302 6.001,-3.914 5.719,-3.612 5.099,-2.949 4.679,-2.211 4.306,-1.39 4.003,-0.722 3.672,-0.055 3.114,0.438 2.16,1.281 0.565,1.292 0,0" /></g><g
           transform="translate(59.8787,27.415)"
           id="g308"><path
             id="path310"
             style="fill:#ffffff;fill-opacity:1;fill-rule:nonzero;stroke:none"
             d="M 0,0 C 0.195,0.587 0.299,1.173 0.26,1.793 0.182,3.016 -0.396,4.116 -1.309,4.92 -1.721,5.283 -2.208,4.583 -1.8,4.224 c 1.044,-0.92 1.465,-2.406 1.064,-3.736 -0.173,-0.575 -0.393,-1.177 -0.429,-1.751 -0.216,0.105 -0.436,0.207 -0.654,0.317 -0.885,0.446 -1.503,1.217 -1.724,2.187 -0.122,0.534 -0.962,0.39 -0.84,-0.146 0.212,-0.928 0.699,-1.751 1.449,-2.346 0.714,-0.565 1.772,-0.702 2.313,-1.465 0.002,0.002 0.004,0.004 0.006,0.007 0.027,-0.027 0.044,-0.055 0.074,-0.081 0.393,-0.338 0.83,0.258 0.571,0.623 -0.056,0.08 -0.127,0.137 -0.191,0.205 C -0.586,-1.417 -0.187,-0.563 0,0" /></g><g
           transform="translate(57.3646,29.673)"
           id="g312"><path
             id="path314"
             style="fill:#ffffff;fill-opacity:1;fill-rule:nonzero;stroke:none"
             d="M 0,0 C 0.541,0.094 0.395,0.933 -0.146,0.84 -0.687,0.746 -0.54,-0.094 0,0" /></g><g
           transform="translate(57.0283,36.9384)"
           id="g316"><path
             id="path318"
             style="fill:#ffffff;fill-opacity:1;fill-rule:nonzero;stroke:none"
             d="M 0,0 C -0.541,-0.094 -0.395,-0.933 0.146,-0.84 0.687,-0.746 0.54,0.094 0,0" /></g><g
           transform="translate(50.345,54.5724)"
           id="g320"><path
             id="path322"
             style="fill:#ffffff;fill-opacity:1;fill-rule:nonzero;stroke:none"
             d="m 0,0 c -1.008,-0.487 -1.745,-1.396 -2.173,-2.415 -0.957,-2.279 -0.381,-5.13 1.652,-6.619 1.009,-0.739 2.19,-1.054 3.326,-1.528 0.626,-0.26 1.224,-0.695 1.156,-1.455 -0.068,-0.762 -0.776,-1.149 -1.478,-1.03 -0.543,0.092 -0.62,-0.757 -0.083,-0.848 1.061,-0.18 2.121,0.463 2.363,1.529 0.232,1.023 -0.329,1.918 -1.216,2.393 -0.949,0.508 -2.027,0.716 -2.972,1.248 -1.06,0.597 -1.854,1.492 -2.17,2.685 -0.525,1.979 0.17,4.667 2.288,5.408 C 2.824,0.112 5.892,-1.32 6.37,-3.605 6.602,-4.713 6.123,-5.951 5.001,-6.356 3.959,-6.732 2.846,-5.996 2.794,-4.895 2.768,-4.347 1.929,-4.5 1.954,-5.04 2.01,-6.219 3.035,-7.204 4.199,-7.306 5.436,-7.415 6.588,-6.555 7.05,-5.443 8.073,-2.986 5.925,-0.657 3.732,0.08 2.532,0.484 1.164,0.562 0,0" /></g><g
           transform="translate(56.9738,46.6057)"
           id="g324"><path
             id="path326"
             style="fill:#ffffff;fill-opacity:1;fill-rule:nonzero;stroke:none"
             d="m 0,0 c 1.085,-0.528 0.925,-1.849 0.659,-2.886 -0.397,0.298 -0.795,0.596 -1.191,0.897 -0.496,0.376 -1.212,0.904 -0.976,1.619 0.173,0.522 -0.626,0.82 -0.798,0.299 -0.259,-0.784 0.055,-1.519 0.625,-2.072 0.699,-0.679 1.561,-1.223 2.337,-1.808 0.209,-0.157 0.567,-0.06 0.645,0.2 0.476,1.588 0.802,3.671 -1.003,4.55 C -0.196,1.039 -0.489,0.238 0,0" /></g><g
           transform="translate(56.5764,46.2021)"
           id="g328"><path
             id="path330"
             style="fill:#ffffff;fill-opacity:1;fill-rule:nonzero;stroke:none"
             d="M 0,0 C -0.541,-0.094 -0.395,-0.933 0.146,-0.84 0.687,-0.746 0.54,0.094 0,0" /></g><g
           transform="translate(54.6134,52.2053)"
           id="g332"><path
             id="path334"
             style="fill:#ffffff;fill-opacity:1;fill-rule:nonzero;stroke:none"
             d="M 0,0 C -0.541,-0.094 -0.395,-0.933 0.146,-0.84 0.687,-0.746 0.54,0.094 0,0" /></g><g
           transform="translate(53.1869,51.7851)"
           id="g336"><path
             id="path338"
             style="fill:#ffffff;fill-opacity:1;fill-rule:nonzero;stroke:none"
             d="M 0,0 C 0.541,0.094 0.395,0.933 -0.146,0.84 -0.687,0.746 -0.54,-0.094 0,0" /></g><g
           transform="translate(51.3028,51.3433)"
           id="g340"><path
             id="path342"
             style="fill:#ffffff;fill-opacity:1;fill-rule:nonzero;stroke:none"
             d="M 0,0 C 0.541,0.094 0.395,0.933 -0.146,0.84 -0.687,0.746 -0.54,-0.094 0,0" /></g><g
           transform="translate(52.9592,26.5342)"
           id="g344"><path
             id="path346"
             style="fill:#ffffff;fill-opacity:1;fill-rule:nonzero;stroke:none"
             d="m 0,0 c -0.154,-0.538 -0.315,-1.113 -0.663,-1.562 -0.462,-0.596 -1.114,-0.582 -1.807,-0.51 -1.128,0.117 -2.143,-0.047 -3.089,-0.615 -0.657,0.835 -1.323,1.82 -0.998,2.914 0.156,0.525 -0.642,0.824 -0.799,0.298 -0.462,-1.556 0.429,-2.873 1.365,-4.039 0.152,-0.189 0.419,-0.185 0.601,-0.051 0.653,0.484 1.43,0.737 2.245,0.699 0.675,-0.031 1.352,-0.2 2.019,-0.009 1.162,0.331 1.623,1.523 1.925,2.577 C 0.949,0.227 0.151,0.527 0,0" /></g><g
           transform="translate(50.7224,25.408)"
           id="g348"><path
             id="path350"
             style="fill:#ffffff;fill-opacity:1;fill-rule:nonzero;stroke:none"
             d="M 0,0 C 0.235,0.041 0.376,0.263 0.347,0.493 0.318,0.721 0.074,0.878 -0.146,0.84 -0.183,0.833 -0.22,0.827 -0.258,0.82 -0.493,0.78 -0.634,0.557 -0.605,0.328 -0.576,0.099 -0.332,-0.057 -0.112,-0.019 -0.075,-0.013 -0.037,-0.006 0,0" /></g><g
           transform="translate(48.3859,25.5797)"
           id="g352"><path
             id="path354"
             style="fill:#ffffff;fill-opacity:1;fill-rule:nonzero;stroke:none"
             d="M 0,0 C 0.229,0.029 0.385,0.273 0.347,0.493 0.341,0.53 0.334,0.567 0.328,0.605 0.287,0.84 0.064,0.981 -0.165,0.952 -0.393,0.923 -0.55,0.679 -0.512,0.459 -0.506,0.422 -0.499,0.384 -0.493,0.347 -0.452,0.112 -0.229,-0.029 0,0" /></g><g
           transform="translate(50.6306,42.5768)"
           id="g356"><path
             id="path358"
             style="fill:#ffffff;fill-opacity:1;fill-rule:nonzero;stroke:none"
             d="M 0,0 C 0.235,0.041 0.376,0.263 0.347,0.493 0.318,0.721 0.074,0.878 -0.146,0.84 -0.183,0.833 -0.22,0.827 -0.258,0.82 -0.493,0.78 -0.634,0.557 -0.605,0.328 -0.576,0.099 -0.332,-0.057 -0.112,-0.019 -0.075,-0.013 -0.037,-0.006 0,0" /></g><g
           transform="translate(48.6308,44.1332)"
           id="g360"><path
             id="path362"
             style="fill:#ffffff;fill-opacity:1;fill-rule:nonzero;stroke:none"
             d="M 0,0 C -0.541,-0.094 -0.395,-0.933 0.146,-0.84 0.687,-0.746 0.54,0.094 0,0" /></g><g
           transform="translate(46.9618,45.1127)"
           id="g364"><path
             id="path366"
             style="fill:#ffffff;fill-opacity:1;fill-rule:nonzero;stroke:none"
             d="M 0,0 C -0.541,-0.094 -0.395,-0.933 0.146,-0.84 0.687,-0.746 0.54,0.094 0,0" /></g><g
           transform="translate(56.5485,40.3729)"
           id="g368"><path
             id="path370"
             style="fill:#ffffff;fill-opacity:1;fill-rule:nonzero;stroke:none"
             d="M 0,0 C 0.229,0.029 0.385,0.273 0.347,0.493 0.341,0.53 0.334,0.567 0.328,0.605 0.287,0.84 0.064,0.981 -0.165,0.952 -0.393,0.923 -0.55,0.679 -0.512,0.459 -0.506,0.422 -0.499,0.384 -0.493,0.347 -0.452,0.112 -0.229,-0.029 0,0" /></g><g
           transform="translate(58.6266,39.695)"
           id="g372"><path
             id="path374"
             style="fill:#ffffff;fill-opacity:1;fill-rule:nonzero;stroke:none"
             d="M 0,0 C 0.541,0.094 0.395,0.933 -0.146,0.84 -0.687,0.746 -0.54,-0.094 0,0" /></g><g
           transform="translate(43.8646,53.8146)"
           id="g376"><path
             id="path378"
             style="fill:#ffffff;fill-opacity:1;fill-rule:nonzero;stroke:none"
             d="M 0,0 C 0.331,-0.438 0.982,0.112 0.652,0.55 -0.737,2.39 -3.565,1.946 -4.374,-0.192 -4.569,-0.707 -3.77,-1.003 -3.576,-0.49 -2.982,1.077 -0.997,1.321 0,0" /></g><g
           transform="translate(27.7536,48.1876)"
           id="g380"><path
             id="path382"
             style="fill:#ffffff;fill-opacity:1;fill-rule:nonzero;stroke:none"
             d="m 0,0 c 0.547,-0.066 0.626,0.783 0.083,0.849 -1.317,0.159 -1.665,1.637 -1.31,2.722 0.356,1.09 1.23,1.99 2.247,2.493 C 3.073,7.078 5.602,6.349 6.852,4.445 7.9,2.848 7.994,0.783 7.766,-1.059 7.517,-3.066 6.896,-5.032 6.023,-6.853 c -0.826,-1.722 -1.929,-3.25 -3.155,-4.706 -1.056,-1.253 -2.148,-2.52 -2.8,-4.042 -0.657,-1.532 -0.78,-3.276 -0.082,-4.816 0.664,-1.466 1.995,-2.675 3.563,-3.088 1.748,-0.461 3.51,0.127 4.227,1.866 0.797,1.932 -0.108,3.934 -1.154,5.571 -0.117,0.183 -0.311,0.231 -0.483,0.197 0.384,0.027 0.716,-0.467 0.332,-0.721 -0.127,-0.084 -0.237,-0.181 -0.346,-0.279 0.6,-0.985 1.138,-2.08 1.108,-3.246 -0.027,-1.039 -0.525,-2.162 -1.552,-2.552 -2.076,-0.79 -4.352,1.061 -5.047,2.909 -1.355,3.606 2.161,6.577 4.083,9.134 2.341,3.114 4.011,7.152 3.997,11.092 C 8.708,2.276 8.301,4.174 7.067,5.562 5.843,6.938 3.927,7.622 2.108,7.31 0.302,7 -1.368,5.696 -1.994,3.957 -2.581,2.325 -1.92,0.233 0,0" /></g><g
           transform="translate(25.0775,26.5111)"
           id="g384"><path
             id="path386"
             style="fill:#ffffff;fill-opacity:1;fill-rule:nonzero;stroke:none"
             d="m 0,0 c 1.099,-1.896 3.28,-3.151 5.489,-2.753 0.54,0.097 0.394,0.937 -0.146,0.84 -1.477,-0.266 -2.955,0.359 -3.955,1.451 -1.09,1.189 -1.476,2.826 -1.348,4.406 0.246,3.032 2.226,5.502 4.293,7.576 1.765,1.771 3.813,3.581 4.41,6.118 0.27,1.149 0.188,2.464 -0.541,3.438 -0.679,0.905 -1.854,1.251 -2.932,0.955 -2.283,-0.626 -2.644,-3.752 -0.642,-4.97 0.467,-0.284 0.96,0.411 0.491,0.697 -1.076,0.654 -1.378,2.348 -0.279,3.146 1.17,0.849 2.666,0.213 3.061,-1.115 C 8.648,17.278 6.506,14.904 4.893,13.276 3.078,11.445 1.216,9.651 0.091,7.29 -0.972,5.061 -1.283,2.213 0,0" /></g><g
           transform="translate(22.959,28.3067)"
           id="g388"><path
             id="path390"
             style="fill:#ffffff;fill-opacity:1;fill-rule:nonzero;stroke:none"
             d="m 0,0 c 0.359,0.415 -0.341,0.902 -0.697,0.491 -0.451,-0.521 -0.987,-0.924 -1.582,-1.234 0.206,0.795 0.275,1.597 0.38,2.441 0.07,0.566 0.212,1.197 0.633,1.614 0.367,0.365 1.008,0.515 1.398,0.101 C 0.507,3.014 1.161,3.561 0.784,3.962 -0.183,4.99 -1.682,4.441 -2.296,3.327 -2.673,2.644 -2.746,1.871 -2.811,1.108 -2.885,0.243 -3.039,-0.563 -3.386,-1.363 -3.549,-1.741 -3.125,-2.004 -2.805,-1.898 -1.696,-1.533 -0.762,-0.88 0,0" /></g><g
           transform="translate(25.7308,23.3525)"
           id="g392"><path
             id="path394"
             style="fill:#ffffff;fill-opacity:1;fill-rule:nonzero;stroke:none"
             d="m 0,0 c 0.118,-0.987 -0.206,-1.922 -0.888,-2.639 -0.168,-0.178 -0.341,-0.348 -0.51,-0.52 -0.227,0.528 -0.637,1.02 -0.992,1.505 -0.821,1.122 -0.931,2.656 -0.255,3.876 0.264,0.476 -0.431,0.971 -0.697,0.491 -0.589,-1.064 -0.764,-2.294 -0.425,-3.473 0.171,-0.596 0.466,-1.115 0.848,-1.601 0.367,-0.466 1.028,-1.138 0.812,-1.793 -0.037,-0.085 -0.085,-0.163 -0.111,-0.257 -0.122,-0.435 0.493,-0.842 0.747,-0.395 0.02,0.034 0.026,0.067 0.043,0.101 0.003,-0.002 0.005,-0.003 0.008,-0.005 0.253,0.902 1.203,1.385 1.685,2.158 C 0.771,-1.739 0.953,-0.8 0.84,0.146 0.775,0.691 -0.065,0.543 0,0" /></g><g
           transform="translate(24.4195,23.9641)"
           id="g396"><path
             id="path398"
             style="fill:#ffffff;fill-opacity:1;fill-rule:nonzero;stroke:none"
             d="M 0,0 C 0.541,0.094 0.395,0.933 -0.146,0.84 -0.687,0.746 -0.54,-0.094 0,0" /></g><g
           transform="translate(22.4371,30.0792)"
           id="g400"><path
             id="path402"
             style="fill:#ffffff;fill-opacity:1;fill-rule:nonzero;stroke:none"
             d="M 0,0 C 0.541,0.094 0.395,0.933 -0.146,0.84 -0.687,0.746 -0.54,-0.094 0,0" /></g><g
           transform="translate(18.4194,41.7771)"
           id="g404"><path
             id="path406"
             style="fill:#ffffff;fill-opacity:1;fill-rule:nonzero;stroke:none"
             d="M 0,0 C 0.884,-0.588 2.083,-0.727 3.005,-0.146 3.905,0.421 4.403,1.56 4.088,2.593 3.93,3.111 3.089,2.97 3.248,2.447 3.648,1.137 2.396,0.058 1.132,0.404 -0.188,0.765 -0.742,2.177 -0.537,3.437 -0.18,5.623 2.458,7.685 4.672,7.046 6.791,6.434 8.05,3.911 7.732,1.82 7.552,0.627 6.801,-0.32 5.934,-1.111 5.215,-1.767 4.276,-2.308 3.817,-3.197 c -0.929,-1.8 1.085,-3.678 2.831,-2.699 0.476,0.267 0.116,1.04 -0.364,0.771 -0.723,-0.406 -1.645,-0.129 -1.826,0.744 -0.153,0.738 0.425,1.275 0.937,1.703 1.069,0.894 2.16,1.774 2.778,3.059 C 9.252,2.621 8.36,5.512 6.475,7.034 4.404,8.706 1.689,7.991 -0.021,6.156 -1.564,4.501 -2.186,1.454 0,0" /></g><g
           transform="translate(19.8014,36.1)"
           id="g408"><path
             id="path410"
             style="fill:#ffffff;fill-opacity:1;fill-rule:nonzero;stroke:none"
             d="M 0,0 C 0.535,0.812 1.163,1.614 1.593,2.488 1.945,3.203 1.993,3.998 1.484,4.65 1.147,5.083 0.496,4.533 0.833,4.1 1.298,3.504 0.799,2.767 0.459,2.247 0.188,1.831 -0.087,1.416 -0.361,1.001 -0.96,1.888 -1.555,3.079 -0.711,3.941 -0.331,4.33 -0.876,4.985 -1.261,4.593 -2.664,3.158 -1.657,1.306 -0.674,-0.029 -0.514,-0.248 -0.144,-0.218 0,0" /></g><g
           transform="translate(19.7458,38.9548)"
           id="g412"><path
             id="path414"
             style="fill:#ffffff;fill-opacity:1;fill-rule:nonzero;stroke:none"
             d="M 0,0 C 0.541,0.094 0.395,0.933 -0.146,0.84 -0.687,0.746 -0.54,-0.094 0,0" /></g><g
           transform="translate(19.5744,45.2685)"
           id="g416"><path
             id="path418"
             style="fill:#ffffff;fill-opacity:1;fill-rule:nonzero;stroke:none"
             d="M 0,0 C 0.541,0.094 0.395,0.933 -0.146,0.84 -0.687,0.746 -0.54,-0.094 0,0" /></g><g
           transform="translate(20.9136,46.1926)"
           id="g420"><path
             id="path422"
             style="fill:#ffffff;fill-opacity:1;fill-rule:nonzero;stroke:none"
             d="M 0,0 C 0.541,0.094 0.395,0.933 -0.146,0.84 -0.687,0.746 -0.54,-0.094 0,0" /></g><g
           transform="translate(22.691,47.2502)"
           id="g424"><path
             id="path426"
             style="fill:#ffffff;fill-opacity:1;fill-rule:nonzero;stroke:none"
             d="M 0,0 C -0.541,-0.094 -0.395,-0.933 0.146,-0.84 0.687,-0.746 0.54,0.094 0,0" /></g><g
           transform="translate(35.7224,24.9107)"
           id="g428"><path
             id="path430"
             style="fill:#ffffff;fill-opacity:1;fill-rule:nonzero;stroke:none"
             d="m 0,0 c 0.675,-0.921 0.379,-2.073 0.041,-3.08 -1.082,0.217 -2.093,0.03 -3.116,-0.46 -0.661,-0.317 -1.285,-0.535 -1.936,-0.086 -0.447,0.308 -0.775,0.77 -1.087,1.206 -0.32,0.446 -0.97,-0.106 -0.652,-0.55 0.639,-0.891 1.474,-1.858 2.679,-1.779 0.729,0.047 1.327,0.472 1.99,0.727 0.726,0.279 1.518,0.282 2.258,0.058 0.217,-0.065 0.47,0.023 0.549,0.25 0.489,1.413 0.885,2.953 -0.074,4.263 C 0.327,0.992 -0.323,0.441 0,0" /></g><g
           transform="translate(32.2215,22.202)"
           id="g432"><path
             id="path434"
             style="fill:#ffffff;fill-opacity:1;fill-rule:nonzero;stroke:none"
             d="M 0,0 C 0.235,0.041 0.376,0.263 0.347,0.493 0.318,0.721 0.074,0.878 -0.146,0.84 -0.183,0.833 -0.22,0.827 -0.258,0.82 -0.493,0.78 -0.634,0.557 -0.605,0.328 -0.575,0.099 -0.332,-0.057 -0.112,-0.019 -0.075,-0.013 -0.037,-0.006 0,0" /></g><g
           transform="translate(34.252,23.1305)"
           id="g436"><path
             id="path438"
             style="fill:#ffffff;fill-opacity:1;fill-rule:nonzero;stroke:none"
             d="M 0,0 C 0.229,0.029 0.385,0.273 0.347,0.493 0.341,0.53 0.334,0.567 0.328,0.605 0.287,0.84 0.064,0.981 -0.165,0.952 -0.393,0.923 -0.55,0.679 -0.512,0.459 -0.506,0.422 -0.499,0.384 -0.493,0.347 -0.452,0.112 -0.229,-0.029 0,0" /></g><g
           transform="translate(26.5311,38.4006)"
           id="g440"><path
             id="path442"
             style="fill:#ffffff;fill-opacity:1;fill-rule:nonzero;stroke:none"
             d="M 0,0 C 0.235,0.041 0.376,0.263 0.347,0.493 0.318,0.721 0.074,0.878 -0.146,0.84 -0.183,0.833 -0.22,0.827 -0.257,0.82 -0.493,0.78 -0.634,0.557 -0.605,0.328 -0.575,0.099 -0.332,-0.057 -0.112,-0.019 -0.075,-0.013 -0.037,-0.006 0,0" /></g><g
           transform="translate(27.7786,40.5198)"
           id="g444"><path
             id="path446"
             style="fill:#ffffff;fill-opacity:1;fill-rule:nonzero;stroke:none"
             d="M 0,0 C -0.541,-0.094 -0.395,-0.933 0.146,-0.84 0.687,-0.746 0.54,0.094 0,0" /></g><g
           transform="translate(29.0208,42.0037)"
           id="g448"><path
             id="path450"
             style="fill:#ffffff;fill-opacity:1;fill-rule:nonzero;stroke:none"
             d="M 0,0 C -0.541,-0.094 -0.395,-0.933 0.146,-0.84 0.687,-0.746 0.54,0.094 0,0" /></g><g
           transform="translate(21.5878,34.3147)"
           id="g452"><path
             id="path454"
             style="fill:#ffffff;fill-opacity:1;fill-rule:nonzero;stroke:none"
             d="M 0,0 C 0.229,0.029 0.385,0.273 0.347,0.493 0.341,0.53 0.334,0.567 0.328,0.605 0.287,0.84 0.064,0.981 -0.165,0.952 -0.393,0.923 -0.55,0.679 -0.512,0.459 -0.506,0.422 -0.499,0.384 -0.493,0.347 -0.452,0.112 -0.229,-0.029 0,0" /></g><g
           transform="translate(19.7134,33.8169)"
           id="g456"><path
             id="path458"
             style="fill:#ffffff;fill-opacity:1;fill-rule:nonzero;stroke:none"
             d="M 0,0 C -0.541,-0.094 -0.395,-0.933 0.146,-0.84 0.687,-0.746 0.54,0.094 0,0" /></g><g
           transform="translate(29.0095,51.2405)"
           id="g460"><path
             id="path462"
             style="fill:#ffffff;fill-opacity:1;fill-rule:nonzero;stroke:none"
             d="M 0,0 C 0.495,1.58 2.446,2.017 3.532,0.741 3.888,0.324 4.54,0.872 4.184,1.291 2.702,3.032 -0.11,2.499 -0.799,0.298 -0.962,-0.225 -0.164,-0.524 0,0" /></g><g
           transform="translate(48.4619,29.8659)"
           id="g464"><path
             id="path466"
             style="fill:#ffffff;fill-opacity:1;fill-rule:nonzero;stroke:none"
             d="m 0,0 c -0.03,-0.109 -0.092,-0.176 -0.164,-0.219 0.014,0.003 0.028,0.001 0.043,0.006 1.321,0.476 2.191,1.939 1.902,3.331 -0.346,1.67 -1.934,2.554 -3.342,3.23 -3.332,1.601 -6.578,3.922 -7.715,7.621 -0.16,0.518 -1.001,0.377 -0.84,-0.146 0.962,-3.129 3.305,-5.5 6.077,-7.137 0.707,-0.417 1.44,-0.781 2.18,-1.137 C -1.117,5.193 -0.351,4.818 0.227,4.215 0.76,3.658 1.105,2.932 0.94,2.151 0.831,1.635 0.529,1.209 0.126,0.904 0.117,0.604 0.084,0.302 0,0" /></g><g
           transform="translate(45.6067,33.5677)"
           id="g468"><path
             id="path470"
             style="fill:#ffffff;fill-opacity:1;fill-rule:nonzero;stroke:none"
             d="m 0,0 c 0.135,-0.033 0.26,-0.085 0.385,-0.134 1.3,-0.513 2.066,-1.849 1.672,-3.27 -0.116,-0.417 0.358,-0.684 0.634,-0.517 0.072,0.043 0.134,0.11 0.164,0.219 0.084,0.302 0.117,0.604 0.126,0.904 C 3.032,-1.148 2.004,0.379 0.298,0.799 0.208,0.821 0.129,0.809 0.055,0.785 -0.305,0.669 -0.441,0.108 0,0" /></g><g
           transform="translate(44.1616,34.8712)"
           id="g472"><path
             id="path474"
             style="fill:#ffffff;fill-opacity:1;fill-rule:nonzero;stroke:none"
             d="m 0,0 c -1.304,0.77 -2.437,1.745 -3.387,2.924 -0.344,0.428 -0.996,-0.122 -0.652,-0.549 0.912,-1.131 2.002,-2.089 3.228,-2.863 -0.854,-1.563 -0.907,-3.469 -0.075,-5.067 0.253,-0.486 1.026,-0.124 0.772,0.363 -0.762,1.462 -0.691,3.217 0.217,4.598 C 0.221,-0.414 0.203,-0.12 0,0" /></g><g
           transform="translate(32.3586,27.9573)"
           id="g476"><path
             id="path478"
             style="fill:#ffffff;fill-opacity:1;fill-rule:nonzero;stroke:none"
             d="m 0,0 c -0.481,0.153 -0.905,0.453 -1.186,0.901 -0.44,0.701 -0.327,1.548 0.013,2.265 0.359,0.754 0.967,1.36 1.547,1.945 0.555,0.559 1.097,1.13 1.602,1.736 2.061,2.471 3.468,5.497 3.322,8.766 C 5.273,16.16 4.434,16.008 4.458,15.467 4.631,11.601 2.356,8.323 -0.243,5.694 -1.344,4.581 -2.536,3.22 -2.304,1.529 c 0.193,-1.409 1.511,-2.494 2.913,-2.497 0.015,0 0.027,0.007 0.042,0.008 C 0.569,-0.943 0.488,-0.901 0.423,-0.809 0.242,-0.552 0.11,-0.279 0,0" /></g><g
           transform="translate(33.8922,32.3165)"
           id="g480"><path
             id="path482"
             style="fill:#ffffff;fill-opacity:1;fill-rule:nonzero;stroke:none"
             d="m 0,0 c -0.072,-0.005 -0.146,-0.022 -0.217,-0.07 -1.466,-0.969 -1.92,-2.752 -1.317,-4.289 0.11,-0.279 0.243,-0.553 0.423,-0.809 0.066,-0.093 0.146,-0.134 0.229,-0.151 0.316,-0.065 0.672,0.347 0.423,0.701 -0.842,1.195 -0.584,2.696 0.446,3.618 0.109,0.098 0.219,0.195 0.345,0.279 C 0.717,-0.467 0.385,0.027 0,0" /></g><g
           transform="translate(37.8497,28.3757)"
           id="g484"><path
             id="path486"
             style="fill:#ffffff;fill-opacity:1;fill-rule:nonzero;stroke:none"
             d="m 0,0 c 0.246,1.785 -0.445,3.562 -1.775,4.747 0.894,1.141 1.598,2.41 2.076,3.782 C 0.482,9.048 -0.317,9.345 -0.498,8.827 -0.995,7.397 -1.734,6.097 -2.703,4.933 -2.854,4.751 -2.773,4.47 -2.6,4.339 -1.28,3.344 -0.623,1.715 -0.848,0.083 -0.924,-0.463 -0.075,-0.541 0,0" /></g><g
           transform="translate(37.5599,33.5735)"
           id="g488"><path
             id="path490"
             style="fill:#ffffff;fill-opacity:1;fill-rule:nonzero;stroke:none"
             d="m 0,0 c -0.541,0.1 -0.618,-0.749 -0.083,-0.848 1.618,-0.3 3.278,-0.027 4.717,0.771 C 5.111,0.188 4.751,0.961 4.27,0.694 2.95,-0.038 1.484,-0.275 0,0" /></g><g
           transform="translate(41.4363,31.9555)"
           id="g492"><path
             id="path494"
             style="fill:#ffffff;fill-opacity:1;fill-rule:nonzero;stroke:none"
             d="m 0,0 c -0.374,-0.603 -0.704,-1.229 -1.012,-1.867 -0.485,0.588 -1.009,1.138 -1.605,1.622 -0.427,0.346 -0.915,-0.352 -0.491,-0.697 0.711,-0.577 1.326,-1.238 1.865,-1.978 0.2,-0.275 0.605,-0.146 0.725,0.125 0.352,0.798 0.755,1.563 1.215,2.304 C 0.985,-0.026 0.29,0.467 0,0" /></g><g
           transform="translate(39.4042,35.8556)"
           id="g496"><path
             id="path498"
             style="fill:#ffffff;fill-opacity:1;fill-rule:nonzero;stroke:none"
             d="M 0,0 C -0.541,-0.094 -0.395,-0.933 0.146,-0.84 0.687,-0.746 0.54,0.094 0,0" /></g><g
           transform="translate(47.6472,61.2742)"
           id="g500"><path
             id="path502"
             style="fill:#ffffff;fill-opacity:1;fill-rule:nonzero;stroke:none"
             d="M 0,0 C 0.662,0.049 1.332,-0.268 1.944,-0.487 2.492,-0.683 3.04,-0.883 3.596,-1.054 4.245,-1.254 4.899,-1.395 5.562,-1.466 4.908,-1.933 4.256,-2.402 3.597,-2.86 2.579,-3.566 1.465,-3.912 0.224,-3.892 c -0.547,0.009 -0.631,-0.84 -0.083,-0.848 1.25,-0.021 2.47,0.241 3.535,0.915 1.181,0.747 2.3,1.611 3.44,2.42 0.38,0.269 0.031,0.775 -0.347,0.746 C 5.525,-0.756 4.322,-0.416 3.158,-0.014 2.102,0.351 0.996,0.924 -0.146,0.84 -0.693,0.799 -0.542,-0.04 0,0" /></g><g
           transform="translate(47.9028,58.9149)"
           id="g504"><path
             id="path506"
             style="fill:#ffffff;fill-opacity:1;fill-rule:nonzero;stroke:none"
             d="M 0,0 C 0.229,0.029 0.385,0.273 0.347,0.493 0.343,0.518 0.339,0.542 0.334,0.567 0.293,0.803 0.071,0.944 -0.158,0.914 -0.387,0.885 -0.544,0.641 -0.506,0.422 -0.501,0.397 -0.497,0.372 -0.493,0.347 -0.452,0.112 -0.229,-0.029 0,0" /></g><g
           transform="translate(51.9822,62.4487)"
           id="g508"><path
             id="path510"
             style="fill:#ffffff;fill-opacity:1;fill-rule:nonzero;stroke:none"
             d="M 0,0 C 0.851,0.24 1.569,0.745 2.038,1.502 2.327,1.967 1.631,2.46 1.342,1.993 0.997,1.437 0.49,1.019 -0.146,0.84 -0.669,0.692 -0.527,-0.149 0,0" /></g><g
           transform="translate(53.2617,56.1616)"
           id="g512"><path
             id="path514"
             style="fill:#ffffff;fill-opacity:1;fill-rule:nonzero;stroke:none"
             d="M 0,0 C 0.551,-0.003 1.053,-0.151 1.505,-0.468 1.955,-0.783 2.446,-0.087 1.996,0.229 1.433,0.623 0.772,0.845 0.083,0.848 -0.463,0.851 -0.548,0.003 0,0" /></g><g
           transform="translate(20.9868,52.5842)"
           id="g516"><path
             id="path518"
             style="fill:#ffffff;fill-opacity:1;fill-rule:nonzero;stroke:none"
             d="M 0,0 C 1.056,-0.365 2.162,-0.938 3.304,-0.854 3.851,-0.813 3.7,0.026 3.158,-0.014 2.496,-0.063 1.826,0.255 1.214,0.473 0.666,0.67 0.118,0.87 -0.438,1.041 -1.087,1.24 -1.741,1.381 -2.404,1.452 -1.75,1.919 -1.098,2.388 -0.439,2.846 0.578,3.552 1.693,3.898 2.934,3.878 3.481,3.869 3.565,4.718 3.017,4.727 1.767,4.747 0.547,4.485 -0.518,3.812 -1.699,3.064 -2.818,2.2 -3.958,1.391 -4.338,1.122 -3.989,0.616 -3.611,0.645 -2.367,0.743 -1.164,0.402 0,0" /></g><g
           transform="translate(23.8892,54.9297)"
           id="g520"><path
             id="path522"
             style="fill:#ffffff;fill-opacity:1;fill-rule:nonzero;stroke:none"
             d="m 0,0 c -0.229,-0.029 -0.385,-0.273 -0.347,-0.493 0.004,-0.025 0.008,-0.049 0.013,-0.074 0.041,-0.236 0.263,-0.377 0.492,-0.347 0.229,0.029 0.386,0.273 0.348,0.492 -0.005,0.025 -0.009,0.05 -0.013,0.075 C 0.452,-0.112 0.229,0.029 0,0" /></g><g
           transform="translate(19.8098,51.3959)"
           id="g524"><path
             id="path526"
             style="fill:#ffffff;fill-opacity:1;fill-rule:nonzero;stroke:none"
             d="m 0,0 c -0.851,-0.24 -1.569,-0.745 -2.038,-1.502 -0.289,-0.465 0.407,-0.958 0.696,-0.49 0.345,0.555 0.852,0.973 1.488,1.152 C 0.669,-0.692 0.527,0.149 0,0" /></g><g
           transform="translate(18.5303,57.6831)"
           id="g528"><path
             id="path530"
             style="fill:#ffffff;fill-opacity:1;fill-rule:nonzero;stroke:none"
             d="m 0,0 c -0.551,0.003 -1.053,0.151 -1.505,0.468 -0.45,0.315 -0.941,-0.381 -0.491,-0.697 0.563,-0.394 1.224,-0.616 1.913,-0.619 C 0.463,-0.851 0.548,-0.003 0,0" /></g><g
           transform="translate(43.7379,27.5292)"
           id="g532"><path
             id="path534"
             style="fill:#ffffff;fill-opacity:1;fill-rule:nonzero;stroke:none"
             d="m 0,0 c 0.002,-1.472 -0.932,-2.924 -2.462,-3.171 -1.709,-0.276 -2.603,1.047 -3.223,2.412 -0.226,0.5 -0.998,0.136 -0.771,-0.364 0.394,-0.867 0.839,-1.77 1.64,-2.335 0.714,-0.504 1.64,-0.697 2.5,-0.553 1.875,0.315 3.166,2.076 3.164,3.928 C 0.848,0.462 -0.001,0.547 0,0" /></g><g
           transform="translate(41.0876,26.3632)"
           id="g536"><path
             id="path538"
             style="fill:#ffffff;fill-opacity:1;fill-rule:nonzero;stroke:none"
             d="M 0,0 C 0.541,0.094 0.395,0.933 -0.146,0.84 -0.687,0.746 -0.54,-0.094 0,0" /></g></g></g></g></svg>