<?xml version="1.0" encoding="UTF-8" standalone="no"?>
<svg
   xmlns:dc="http://purl.org/dc/elements/1.1/"
   xmlns:cc="http://creativecommons.org/ns#"
   xmlns:rdf="http://www.w3.org/1999/02/22-rdf-syntax-ns#"
   xmlns:svg="http://www.w3.org/2000/svg"
   xmlns="http://www.w3.org/2000/svg"
   viewBox="0 0 74.137878 74.137878"
   height="74.137878"
   width="74.137878"
   xml:space="preserve"
   version="1.1"
   id="svg2"><metadata
     id="metadata8"><rdf:RDF><cc:Work
         rdf:about=""><dc:format>image/svg+xml</dc:format><dc:type
           rdf:resource="http://purl.org/dc/dcmitype/StillImage" /></cc:Work></rdf:RDF></metadata><defs
     id="defs6"><clipPath
       id="clipPath16"
       clipPathUnits="userSpaceOnUse"><path
         id="path18"
         d="M 1.121,29.655 C 1.121,13.896 13.896,1.121 29.655,1.121 l 0,0 c 15.759,0 28.534,12.775 28.534,28.534 l 0,0 c 0,15.759 -12.775,28.534 -28.534,28.534 l 0,0 C 13.896,58.189 1.121,45.414 1.121,29.655" /></clipPath><clipPath
       id="clipPath32"
       clipPathUnits="userSpaceOnUse"><path
         id="path34"
         d="m 0,59.31 59.31,0 L 59.31,0 0,0 0,59.31 Z" /></clipPath></defs><g
     transform="matrix(1.25,0,0,-1.25,0,74.137875)"
     id="g10"><g
       id="g12"><g
         clip-path="url(#clipPath16)"
         id="g14"><g
           transform="translate(6.78,-1.2608)"
           id="g20"><path
             id="path22"
             style="fill:#ffffff;fill-opacity:1;fill-rule:nonzero;stroke:none"
             d="m 0,0 45.746,0 c 0.613,0 1.182,0.251 1.564,0.686 0.335,0.377 0.478,0.857 0.421,1.346 -1.076,8.356 -6.213,15.323 -13.25,19.036 -2.973,-2.974 -7.079,-4.815 -11.605,-4.815 -4.531,0 -8.632,1.841 -11.611,4.815 C 4.233,17.355 -0.91,10.388 -1.978,2.032 -2.042,1.543 -1.894,1.063 -1.564,0.686 -1.18,0.251 -0.611,0 0,0" /></g><g
           transform="translate(19.3421,21.6155)"
           id="g24"><path
             id="path26"
             style="fill:#ffffff;fill-opacity:1;fill-rule:nonzero;stroke:none"
             d="m 0,0 c 0.272,-0.282 0.549,-0.549 0.836,-0.803 2.52,-2.255 5.835,-3.644 9.478,-3.644 3.638,0 6.951,1.389 9.473,3.644 0.287,0.254 0.569,0.521 0.834,0.803 0.266,0.276 0.527,0.564 0.766,0.866 1.979,2.447 3.165,5.554 3.165,8.931 0,7.856 -6.388,14.243 -14.238,14.243 C 2.458,24.04 -3.93,17.653 -3.93,9.797 -3.93,6.42 -2.744,3.313 -0.765,0.866 -0.526,0.564 -0.266,0.282 0,0" /></g></g></g><g
       id="g28"><g
         clip-path="url(#clipPath32)"
         id="g30"><g
           transform="translate(58.1889,29.6551)"
           id="g36"><path
             id="path38"
             style="fill:none;stroke:#ffffff;stroke-width:2;stroke-linecap:butt;stroke-linejoin:miter;stroke-miterlimit:10;stroke-dasharray:none;stroke-opacity:1"
             d="m 0,0 c 0,15.759 -12.775,28.534 -28.534,28.534 -15.759,0 -28.534,-12.775 -28.534,-28.534 0,-15.759 12.775,-28.534 28.534,-28.534 C -12.775,-28.534 0,-15.759 0,0 Z" /></g></g></g></g></svg>