<?xml version="1.0" encoding="UTF-8" standalone="no"?>
<svg
   xmlns:dc="http://purl.org/dc/elements/1.1/"
   xmlns:cc="http://creativecommons.org/ns#"
   xmlns:rdf="http://www.w3.org/1999/02/22-rdf-syntax-ns#"
   xmlns:svg="http://www.w3.org/2000/svg"
   xmlns="http://www.w3.org/2000/svg"
   viewBox="0 0 621.25 72.248497"
   height="72.248497"
   width="621.25"
   xml:space="preserve"
   version="1.1"
   id="svg2"><metadata
     id="metadata8"><rdf:RDF><cc:Work
         rdf:about=""><dc:format>image/svg+xml</dc:format><dc:type
           rdf:resource="http://purl.org/dc/dcmitype/StillImage" /></cc:Work></rdf:RDF></metadata><defs
     id="defs6"><clipPath
       id="clipPath16"
       clipPathUnits="userSpaceOnUse"><path
         id="path18"
         d="m 0,57.799 497,0 L 497,0 0,0 0,57.799 Z" /></clipPath></defs><g
     transform="matrix(1.25,0,0,-1.25,0,72.2485)"
     id="g10"><g
       id="g12"><g
         clip-path="url(#clipPath16)"
         id="g14"><g
           transform="translate(26.418,2)"
           id="g20"><path
             id="path22"
             style="fill:#ffffff;fill-opacity:1;fill-rule:nonzero;stroke:none"
             d="m 0,0 444.182,0 c 1.013,6.138 11.296,10.853 24.4,11.085 l 0,31.629 c -13.104,0.233 -23.387,4.948 -24.4,11.085 L 0,53.799 C -1.013,47.657 -11.303,42.942 -24.418,42.713 l 0,-31.627 C -11.303,10.857 -1.013,6.142 0,0 m 446.1,-2 -448.018,0 0,1 c 0,5.472 -10.762,10.095 -23.5,10.095 l -1,0 0,35.61 1,0 c 12.738,0 23.5,4.623 23.5,10.094 l 0,1 448.018,0 0,-1 c 0,-5.467 10.754,-10.091 23.482,-10.094 l 1,-10e-4 0,-35.61 -1,0 C 456.854,9.09 446.1,4.468 446.1,-1 l 0,-1 z" /></g></g></g></g></svg>