<?xml version="1.0" encoding="UTF-8" standalone="no"?>
<svg
   xmlns:dc="http://purl.org/dc/elements/1.1/"
   xmlns:cc="http://creativecommons.org/ns#"
   xmlns:rdf="http://www.w3.org/1999/02/22-rdf-syntax-ns#"
   xmlns:svg="http://www.w3.org/2000/svg"
   xmlns="http://www.w3.org/2000/svg"
   viewBox="0 0 46.507874 35.508125"
   height="35.508125"
   width="46.507874"
   xml:space="preserve"
   version="1.1"
   id="svg2"><metadata
     id="metadata8"><rdf:RDF><cc:Work
         rdf:about=""><dc:format>image/svg+xml</dc:format><dc:type
           rdf:resource="http://purl.org/dc/dcmitype/StillImage" /></cc:Work></rdf:RDF></metadata><defs
     id="defs6"><clipPath
       id="clipPath16"
       clipPathUnits="userSpaceOnUse"><path
         id="path18"
         d="m 0,28.406 37.206,0 L 37.206,0 0,0 0,28.406 Z" /></clipPath></defs><g
     transform="matrix(1.25,0,0,-1.25,0,35.508125)"
     id="g10"><g
       id="g12"><g
         clip-path="url(#clipPath16)"
         id="g14"><g
           transform="translate(20.1831,1.8331)"
           id="g20"><path
             id="path22"
             style="fill:#ffffff;fill-opacity:1;fill-rule:nonzero;stroke:none"
             d="m 0,0 c 0,-0.711 -0.411,-1.357 -1.054,-1.657 -0.248,-0.119 -0.515,-0.176 -0.78,-0.176 -0.416,0 -0.832,0.144 -1.168,0.423 l -10.014,8.297 -5.336,0 c -1.012,0 -1.831,0.822 -1.831,1.834 l 0,7.298 c 0,1.012 0.819,1.834 1.831,1.834 l 5.336,0 10.014,8.299 c 0.548,0.453 1.306,0.55 1.95,0.246 C -0.411,26.097 0,25.451 0,24.74 L 0,0 Z" /></g><g
           transform="translate(35.4205,0)"
           id="g24"><path
             id="path26"
             style="fill:#ffffff;fill-opacity:1;fill-rule:nonzero;stroke:none"
             d="m 0,0 0,0 c -0.986,0 -1.786,0.8 -1.786,1.786 l 0,24.835 c 0,0.986 0.8,1.785 1.786,1.785 l 0,0 c 0.986,0 1.786,-0.799 1.786,-1.785 l 0,-24.835 C 1.786,0.8 0.986,0 0,0" /></g><g
           transform="translate(27.2435,6.9747)"
           id="g28"><path
             id="path30"
             style="fill:#ffffff;fill-opacity:1;fill-rule:nonzero;stroke:none"
             d="m 0,0 0,0 c -0.986,0 -1.786,0.8 -1.786,1.786 l 0,10.885 c 0,0.987 0.8,1.786 1.786,1.786 l 0,0 c 0.986,0 1.786,-0.799 1.786,-1.786 l 0,-10.885 C 1.786,0.8 0.986,0 0,0" /></g></g></g></g></svg>