<?xml version="1.0" encoding="UTF-8" standalone="no"?>
<svg
   xmlns:dc="http://purl.org/dc/elements/1.1/"
   xmlns:cc="http://creativecommons.org/ns#"
   xmlns:rdf="http://www.w3.org/1999/02/22-rdf-syntax-ns#"
   xmlns:svg="http://www.w3.org/2000/svg"
   xmlns="http://www.w3.org/2000/svg"
   viewBox="0 0 204.99249 11.71215"
   height="11.71215"
   width="204.99249"
   xml:space="preserve"
   version="1.1"
   id="svg2"><metadata
     id="metadata8"><rdf:RDF><cc:Work
         rdf:about=""><dc:format>image/svg+xml</dc:format><dc:type
           rdf:resource="http://purl.org/dc/dcmitype/StillImage" /></cc:Work></rdf:RDF></metadata><defs
     id="defs6"><clipPath
       id="clipPath16"
       clipPathUnits="userSpaceOnUse"><path
         id="path18"
         d="m 0,9.37 163.994,0 0,-9.37 L 0,0 0,9.37 Z" /></clipPath></defs><g
     transform="matrix(1.25,0,0,-1.25,0,11.71215)"
     id="g10"><g
       id="g12"><g
         clip-path="url(#clipPath16)"
         id="g14"><g
           transform="translate(163.9942,3.9834)"
           id="g20"><path
             id="path22"
             style="fill:#ffffff;fill-opacity:1;fill-rule:nonzero;stroke:none"
             d="m 0,0 c -0.464,-2.252 -3.087,-3.983 -6.288,-3.983 -2.095,0 -3.939,0.753 -5.101,1.901 l 0,-0.047 -44.312,2.129 -87.667,0 -14.896,-0.717 0,0.013 c -0.582,-0.567 -1.499,-0.94 -2.543,-0.94 -1.76,0 -3.187,1.049 -3.187,2.343 0,1.294 1.427,2.342 3.187,2.342 1.044,0 1.961,-0.372 2.543,-0.939 l 0,0.01 14.745,-0.708 87.978,0 44.152,2.124 0,-0.043 c 1.162,1.148 3.006,1.901 5.101,1.901 3.201,0 5.824,-1.73 6.288,-3.982" /></g></g></g></g></svg>