<?xml version="1.0" encoding="UTF-8" standalone="no"?>
<svg
   xmlns:dc="http://purl.org/dc/elements/1.1/"
   xmlns:cc="http://creativecommons.org/ns#"
   xmlns:rdf="http://www.w3.org/1999/02/22-rdf-syntax-ns#"
   xmlns:svg="http://www.w3.org/2000/svg"
   xmlns="http://www.w3.org/2000/svg"
   viewBox="0 0 677.5 168.64999"
   height="168.64999"
   width="677.5"
   xml:space="preserve"
   version="1.1"
   id="svg2"><metadata
     id="metadata8"><rdf:RDF><cc:Work
         rdf:about=""><dc:format>image/svg+xml</dc:format><dc:type
           rdf:resource="http://purl.org/dc/dcmitype/StillImage" /></cc:Work></rdf:RDF></metadata><defs
     id="defs6"><clipPath
       id="clipPath16"
       clipPathUnits="userSpaceOnUse"><path
         id="path18"
         d="m 0,134.92 542,0 L 542,0 0,0 0,134.92 Z" /></clipPath></defs><g
     transform="matrix(1.25,0,0,-1.25,0,168.65)"
     id="g10"><g
       id="g12"><g
         clip-path="url(#clipPath16)"
         id="g14"><g
           transform="translate(72.2428,75.2546)"
           id="g20"><path
             id="path22"
             style="fill:#ffffff;fill-opacity:1;fill-rule:nonzero;stroke:none"
             d="m 0,0 c 0,10.052 0,11.88 -0.152,13.936 -0.153,2.208 -0.534,3.275 -2.742,3.58 -0.533,0.076 -1.675,0.152 -2.285,0.152 -0.228,0 -0.532,0.305 -0.532,0.533 0,0.381 0.27,1.066 1.031,1.066 l 27.754,0 c 0.228,0 0.305,-0.305 0.305,-0.609 0,-0.457 -0.381,-1.218 -0.534,-3.047 -0.076,-0.609 -0.228,-3.502 -0.38,-4.264 -0.077,-0.304 -0.305,-0.685 -0.61,-0.685 -0.38,0 -0.533,0.305 -0.533,0.838 0,0.456 -0.076,1.522 -0.38,2.284 -0.457,1.066 -1.143,1.523 -4.798,1.98 -1.142,0.152 -8.91,0.228 -9.671,0.228 -0.305,0 -0.381,-0.228 -0.381,-0.685 l 0,-17.591 c 0,-0.457 0,-0.685 0.381,-0.685 0.838,0 9.671,0 11.194,0.152 1.599,0.152 2.589,0.229 3.275,0.914 0.457,0.457 0.761,0.837 0.99,0.837 0.228,0 0.38,-0.152 0.38,-0.533 0,-0.38 -0.38,-1.447 -0.533,-3.579 -0.152,-1.295 -0.304,-3.731 -0.304,-4.188 0,-0.534 -0.153,-1.219 -0.609,-1.219 -0.305,0 -0.457,0.228 -0.457,0.609 0,0.61 0,1.295 -0.305,2.133 -0.229,0.914 -0.838,1.675 -3.427,1.98 -1.828,0.228 -8.986,0.304 -10.128,0.304 -0.381,0 -0.457,-0.228 -0.457,-0.457 l 0,-5.407 c 0,-2.208 -0.076,-9.747 0,-11.041 0.152,-4.341 1.371,-5.179 7.996,-5.179 1.751,0 4.95,0 6.701,0.686 1.752,0.761 2.666,1.903 3.047,4.493 0.152,0.761 0.304,0.99 0.685,0.99 0.381,0 0.457,-0.533 0.457,-0.99 0,-0.457 -0.533,-4.874 -0.914,-6.245 -0.457,-1.676 -1.143,-1.676 -3.731,-1.676 l -24.015,0 c -0.686,0 -1.04,0.305 -1.04,0.686 0,0.229 0.153,0.534 0.533,0.534 0.61,0 1.447,0.228 2.057,0.304 1.294,0.229 1.446,1.523 1.751,3.426 C 0,-22.769 0,-17.667 0,-11.423 L 0,0 Z" /></g><g
           transform="translate(120.2945,63.6798)"
           id="g24"><path
             id="path26"
             style="fill:#ffffff;fill-opacity:1;fill-rule:nonzero;stroke:none"
             d="m 0,0 c 0,-9.519 0.152,-13.403 1.371,-14.545 1.066,-1.066 3.655,-1.523 8.91,-1.523 3.503,0 6.472,0.076 8.072,1.98 0.837,0.99 1.37,2.36 1.599,3.655 0.076,0.457 0.305,0.838 0.685,0.838 0.305,0 0.457,-0.305 0.457,-0.991 0,-0.685 -0.457,-4.568 -0.99,-6.472 -0.457,-1.523 -0.685,-1.752 -4.264,-1.752 l -25.591,0 c -0.685,0 -1.063,0.305 -1.063,0.686 0,0.228 0.153,0.533 0.533,0.533 0.61,0 1.447,0.152 2.057,0.304 1.294,0.305 1.446,1.524 1.751,3.427 0.381,2.665 0.381,7.768 0.381,14.012 l 0,11.423 c 0,10.052 0,11.88 -0.152,13.936 -0.153,2.208 -0.534,3.883 -2.742,4.188 -0.533,0.076 -1.675,0.152 -2.285,0.152 -0.228,0 -0.533,0.305 -0.533,0.534 0,0.381 0.311,0.457 1.073,0.457 l 15.001,0 c 0.686,0 1.061,-0.076 1.061,-0.457 0,-0.229 -0.305,-0.458 -0.533,-0.458 -0.457,0 -1.447,-0.076 -2.209,-0.152 C 0.609,29.394 0.229,27.795 0.076,25.511 0,23.455 0,21.627 0,11.575 L 0,0 Z" /></g><g
           transform="translate(194.3145,63.6789)"
           id="g28"><path
             id="path30"
             style="fill:#ffffff;fill-opacity:1;fill-rule:nonzero;stroke:none"
             d="m 0,0 c 0,-6.244 0,-11.347 0.304,-14.012 0.229,-1.903 0.533,-3.122 2.589,-3.427 0.915,-0.152 2.438,-0.304 3.047,-0.304 0.457,0 0.533,-0.305 0.533,-0.533 0,-0.305 -0.305,-0.533 -1.066,-0.533 l -15.23,0 c -0.763,0 -1.067,0.152 -1.067,0.533 0,0.228 0.152,0.456 0.533,0.456 0.61,0 1.371,0.153 1.98,0.305 1.371,0.305 1.752,1.6 1.98,3.503 0.305,2.665 0.305,7.768 0.305,14.012 l 0,27.187 -9.671,-0.153 c -4.189,-0.076 -5.788,-0.533 -6.778,-2.056 -0.761,-1.142 -0.838,-1.6 -1.066,-2.056 -0.153,-0.533 -0.381,-0.609 -0.686,-0.609 -0.152,0 -0.457,0.152 -0.457,0.532 0,0.686 1.371,6.473 1.448,7.006 0.152,0.381 0.287,0.991 0.516,0.991 l 40.403,0 c 0.305,0 0.279,-0.61 0.279,-0.991 0,-1.979 -0.229,-6.625 -0.229,-7.386 0,-0.533 -0.304,-0.838 -0.609,-0.838 -0.305,0 -0.457,0.229 -0.533,1.142 l -0.077,0.686 c -0.228,1.98 -1.675,3.427 -8.072,3.579 L 0,27.187 0,0 Z" /></g><g
           transform="translate(231.3877,69.9624)"
           id="g32"><path
             id="path34"
             style="fill:#ffffff;fill-opacity:1;fill-rule:nonzero;stroke:none"
             d="m 0,0 c 0,-0.385 0.155,-0.618 0.463,-0.849 1.004,-0.54 4.478,-1.004 7.49,-1.004 1.621,0 3.474,0.077 5.096,1.158 2.316,1.545 4.092,5.019 4.092,10.037 0,8.185 -4.478,12.895 -11.736,12.895 C 3.398,22.237 1.236,22.005 0.54,21.85 0.232,21.696 0,21.464 0,21.079 L 0,0 Z m -5.867,5.559 c 0,10.192 0,12.045 -0.154,14.129 -0.156,2.239 -0.541,3.32 -2.781,3.63 -0.54,0.077 -1.698,0.154 -2.316,0.154 -0.231,0 -0.54,0.309 -0.54,0.54 0,0.387 0.309,0.541 1.081,0.541 l 16.522,0 c 4.324,0 9.111,-0.387 12.663,-2.857 1.698,-1.235 4.71,-4.401 4.71,-8.957 0,-4.863 -2.008,-9.573 -8.339,-14.978 5.559,-6.948 10.268,-12.894 14.207,-16.986 3.628,-3.705 5.867,-4.324 7.566,-4.555 1.313,-0.231 2.007,-0.231 2.394,-0.231 0.385,0 0.617,-0.31 0.617,-0.541 0,-0.386 -0.386,-0.54 -1.621,-0.54 l -4.247,0 c -3.86,0 -5.559,0.385 -7.257,1.312 -2.934,1.544 -5.405,4.71 -9.266,9.651 -2.856,3.552 -5.868,7.798 -7.334,9.574 -0.309,0.309 -0.464,0.386 -0.927,0.386 L 0.463,-4.015 C 0.155,-4.015 0,-4.169 0,-4.555 l 0,-1.544 c 0,-6.331 0,-11.428 0.309,-14.13 0.231,-1.93 0.618,-3.165 2.703,-3.474 0.926,-0.154 2.393,-0.308 3.01,-0.308 0.464,0 0.541,-0.31 0.541,-0.541 0,-0.309 -0.308,-0.54 -1.081,-0.54 l -15.056,0 c -0.694,0 -1.081,0.154 -1.081,0.54 0,0.231 0.155,0.541 0.541,0.541 0.618,0 1.467,0.154 2.085,0.308 1.312,0.309 1.467,1.544 1.775,3.474 0.387,2.702 0.387,7.876 0.387,14.207 l 0,11.581 z" /></g><g
           transform="translate(273.8929,75.9397)"
           id="g36"><path
             id="path38"
             style="fill:#ffffff;fill-opacity:1;fill-rule:nonzero;stroke:none"
             d="m 0,0 c 0,10.052 0,11.88 -0.152,13.936 -0.152,2.056 -0.533,3.116 -2.742,3.421 -0.533,0.076 -1.675,0.152 -2.284,0.152 -0.229,0 -0.533,0.305 -0.533,0.533 0,0.381 0.304,0.534 1.066,0.534 l 14.469,0 c 0.762,0 1.143,-0.153 1.143,-0.534 0,-0.228 -0.305,-0.533 -0.61,-0.533 -0.457,0 -0.838,0 -1.675,-0.152 C 6.93,17.052 6.55,16.068 6.397,13.936 6.245,11.88 6.245,10.052 6.245,0 l 0,-9.061 c 0,-9.368 2.056,-13.251 4.95,-15.841 3.274,-2.969 6.168,-3.502 9.976,-3.502 4.112,0 8.071,1.827 10.357,4.568 3.121,3.732 3.807,9.063 3.807,15.688 l 0,8.148 c 0,10.052 -0.076,11.88 -0.153,13.936 -0.076,2.056 -0.456,3.123 -2.664,3.427 -0.533,0.077 -1.676,0.153 -2.286,0.153 -0.304,0 -0.533,0.305 -0.533,0.533 0,0.381 0.305,0.533 1.067,0.533 l 12.869,0 c 0.762,0 1.067,-0.152 1.067,-0.533 0,-0.228 -0.228,-0.533 -0.533,-0.533 -0.458,0 -0.839,0 -1.676,-0.153 -1.827,-0.381 -2.208,-1.295 -2.36,-3.427 C 39.98,11.88 40.056,10.052 40.056,0 l 0,-6.929 c 0,-7.006 -0.913,-14.85 -6.244,-19.419 -4.874,-4.189 -10.052,-4.722 -14.012,-4.722 -2.208,0 -9.214,0.152 -13.936,4.569 C 2.589,-23.455 0,-18.962 0,-9.518 L 0,0 Z" /></g><g
           transform="translate(391.3205,75.9397)"
           id="g40"><path
             id="path42"
             style="fill:#ffffff;fill-opacity:1;fill-rule:nonzero;stroke:none"
             d="m 0,0 c 0,10.052 0,11.88 -0.152,13.936 -0.152,2.056 -0.533,3.116 -2.742,3.421 -0.533,0.076 -1.675,0.152 -2.284,0.152 -0.229,0 -0.533,0.305 -0.533,0.533 0,0.381 0.304,0.534 1.066,0.534 l 14.469,0 c 0.762,0 1.143,-0.153 1.143,-0.534 0,-0.228 -0.305,-0.533 -0.61,-0.533 -0.457,0 -0.838,0 -1.675,-0.152 C 6.93,17.052 6.55,16.068 6.397,13.936 6.245,11.88 6.245,10.052 6.245,0 l 0,-9.061 c 0,-9.368 2.056,-13.251 4.95,-15.841 3.274,-2.969 6.168,-3.502 9.976,-3.502 4.112,0 8.071,1.827 10.357,4.568 3.121,3.732 3.807,9.063 3.807,15.688 l 0,8.148 c 0,10.052 -0.076,11.88 -0.153,13.936 -0.076,2.056 -0.456,3.123 -2.664,3.427 -0.533,0.077 -1.676,0.153 -2.286,0.153 -0.304,0 -0.533,0.305 -0.533,0.533 0,0.381 0.305,0.533 1.067,0.533 l 12.869,0 c 0.762,0 1.067,-0.152 1.067,-0.533 0,-0.228 -0.228,-0.533 -0.533,-0.533 -0.458,0 -0.839,0 -1.676,-0.153 -1.827,-0.381 -2.208,-1.295 -2.36,-3.427 C 39.98,11.88 40.056,10.052 40.056,0 l 0,-6.929 c 0,-7.006 -0.913,-14.85 -6.244,-19.419 -4.874,-4.189 -10.052,-4.722 -14.012,-4.722 -2.208,0 -9.214,0.152 -13.936,4.569 C 2.589,-23.455 0,-18.962 0,-9.518 L 0,0 Z" /></g><g
           transform="translate(353.3645,47.4795)"
           id="g44"><path
             id="path46"
             style="fill:#ffffff;fill-opacity:1;fill-rule:nonzero;stroke:none"
             d="m 0,0 c -6.196,0 -11.573,2.571 -15.299,7.107 1.699,0.423 3.348,0.639 4.554,0.639 1.721,0 6.926,-0.196 14.438,-3.913 L 7.746,1.744 C 4.938,0.408 2.089,0 0,0 m -20.725,24.005 c 0,13.867 7.902,20.651 18.862,20.651 10.362,0 19.681,-8.125 19.681,-23.186 0,-8.793 -2.767,-14.09 -6.292,-17.225 L 7.293,6.427 C 1.737,9.44 -2.763,10.809 -6.95,10.809 c -4.188,0 -7.577,-0.981 -9.737,-1.808 -2.558,3.942 -4.038,9.038 -4.038,15.004 M 41.644,-2.61 c -0.117,0 -0.273,-0.039 -0.508,-0.117 -2.387,-0.861 -5.009,-1.291 -6.73,-1.291 -1.722,0 -6.926,0.195 -14.439,3.912 l -5.761,2.97 c 4.336,3.214 10.322,10.285 10.322,20.396 0,14.687 -11.182,23.783 -25.944,23.783 -18.116,0 -26.018,-14.539 -26.018,-24.752 0,-11.407 7.604,-24.9 25.719,-24.9 3.505,0 7.978,0.745 10.364,1.938 l 1.716,1.066 6.003,-3.094 c 5.556,-3.013 10.056,-4.383 14.242,-4.383 5.087,0 9,3.025 10.956,3.885 0.196,0.079 0.274,0.196 0.274,0.352 0,0.079 -0.078,0.235 -0.196,0.235" /></g><g
           transform="translate(450.4908,75.2546)"
           id="g48"><path
             id="path50"
             style="fill:#ffffff;fill-opacity:1;fill-rule:nonzero;stroke:none"
             d="m 0,0 c 0,10.052 0,11.88 -0.152,13.936 -0.153,2.208 -0.534,3.275 -2.742,3.58 -0.533,0.076 -1.675,0.152 -2.285,0.152 -0.228,0 -0.532,0.305 -0.532,0.533 0,0.381 0.27,1.066 1.031,1.066 l 27.754,0 c 0.228,0 0.305,-0.305 0.305,-0.609 0,-0.457 -0.381,-1.218 -0.534,-3.047 -0.076,-0.609 -0.228,-3.502 -0.38,-4.264 -0.077,-0.304 -0.305,-0.685 -0.61,-0.685 -0.38,0 -0.533,0.305 -0.533,0.838 0,0.456 -0.076,1.522 -0.38,2.284 -0.457,1.066 -1.143,1.523 -4.798,1.98 -1.142,0.152 -8.91,0.228 -9.671,0.228 -0.305,0 -0.381,-0.228 -0.381,-0.685 l 0,-17.591 c 0,-0.457 0,-0.685 0.381,-0.685 0.838,0 9.671,0 11.194,0.152 1.599,0.152 2.589,0.229 3.275,0.914 0.457,0.457 0.761,0.837 0.99,0.837 0.228,0 0.38,-0.152 0.38,-0.533 0,-0.38 -0.38,-1.447 -0.533,-3.579 -0.152,-1.295 -0.304,-3.731 -0.304,-4.188 0,-0.534 -0.153,-1.219 -0.609,-1.219 -0.305,0 -0.457,0.228 -0.457,0.609 0,0.61 0,1.295 -0.305,2.133 -0.229,0.914 -0.838,1.675 -3.427,1.98 -1.828,0.228 -8.986,0.304 -10.128,0.304 -0.381,0 -0.457,-0.228 -0.457,-0.457 l 0,-5.407 c 0,-2.208 -0.076,-9.747 0,-11.041 0.152,-4.341 1.371,-5.179 7.996,-5.179 1.751,0 4.95,0 6.701,0.686 1.752,0.761 2.666,1.903 3.047,4.493 0.152,0.761 0.304,0.99 0.685,0.99 0.381,0 0.457,-0.533 0.457,-0.99 0,-0.457 -0.533,-4.874 -0.914,-6.245 -0.457,-1.676 -1.143,-1.676 -3.731,-1.676 l -24.015,0 c -0.686,0 -1.04,0.305 -1.04,0.686 0,0.229 0.153,0.534 0.533,0.534 0.61,0 1.447,0.228 2.057,0.304 1.294,0.229 1.446,1.523 1.751,3.426 C 0,-22.769 0,-17.667 0,-11.423 L 0,0 Z" /></g><g
           transform="translate(515.1929,134.9197)"
           id="g52"><path
             id="path54"
             style="fill:#ffffff;fill-opacity:1;fill-rule:nonzero;stroke:none"
             d="m 0,0 -488.367,0 c 0,-14.816 -12.01,-26.826 -26.826,-26.826 l 0,-81.267 c 14.816,0 26.826,-12.011 26.826,-26.827 l 488.367,0 c 0,14.81 12,26.816 26.807,26.826 l 0,81.268 C 12,-26.815 0,-14.809 0,0 m -1.931,-2 c 0.984,-14.295 12.444,-25.761 26.738,-26.756 l 0,-77.408 c -14.294,-0.994 -25.754,-12.461 -26.738,-26.756 l -484.504,0 c -0.985,14.305 -12.453,25.773 -26.758,26.758 l 0,77.404 c 14.305,0.985 25.773,12.454 26.758,26.758 l 484.504,0" /></g></g></g></g></svg>