<?xml version="1.0" encoding="UTF-8" standalone="no"?>
<svg
   xmlns:dc="http://purl.org/dc/elements/1.1/"
   xmlns:cc="http://creativecommons.org/ns#"
   xmlns:rdf="http://www.w3.org/1999/02/22-rdf-syntax-ns#"
   xmlns:svg="http://www.w3.org/2000/svg"
   xmlns="http://www.w3.org/2000/svg"
   viewBox="0 0 136.82875 143.37125"
   height="143.37125"
   width="136.82875"
   xml:space="preserve"
   version="1.1"
   id="svg2"><metadata
     id="metadata8"><rdf:RDF><cc:Work
         rdf:about=""><dc:format>image/svg+xml</dc:format><dc:type
           rdf:resource="http://purl.org/dc/dcmitype/StillImage" /></cc:Work></rdf:RDF></metadata><defs
     id="defs6" /><g
     transform="matrix(1.25,0,0,-1.25,0,143.37125)"
     id="g10"><g
       transform="translate(0,114.6969)"
       id="g12"><path
         id="path14"
         style="fill:#ffffff;fill-opacity:1;fill-rule:nonzero;stroke:none"
         d="m 0,0 0,-81.21 28.629,-33.487 14.518,12.412 4.309,-3.699 23.748,27.686 29.802,25.477 -3.96,4.631 12.417,14.471 L 96.915,-22.953 103,-13.259 81.875,0 0,0 Z M 1,-80.841 1,-1 l 80.588,0 20.033,-12.574 -6.01,-9.577 12.442,-10.675 -12.324,-14.363 3.867,-4.521 -29.097,-24.884 -23.15,-26.98 -4.201,3.606 L 28.74,-113.287 1,-80.841 Z" /></g><g
       transform="translate(57.557,91.7169)"
       id="g16"><path
         id="path18"
         style="fill:#ffffff;fill-opacity:1;fill-rule:nonzero;stroke:none"
         d="M 0,0 0,0 -16.257,-19.52 -0.001,-39.039 -26.096,-19.52 0,0 Z" /></g></g></svg>